<?xml version="1.0" standalone="no"?>
<!DOCTYPE svg PUBLIC "-//W3C//DTD SVG 1.1//EN" "http://www.w3.org/Graphics/SVG/1.1/DTD/svg11.dtd" >
<svg xmlns="http://www.w3.org/2000/svg" xmlns:xlink="http://www.w3.org/1999/xlink" version="1.1">
<metadata></metadata>
<defs>
<font id="angilla_tattoo_personal_useRg" horiz-adv-x="2371" >
<font-face units-per-em="2048" ascent="1536" descent="-512" />
<missing-glyph horiz-adv-x="663" />
<glyph unicode="&#xfb01;" horiz-adv-x="903" d="M-825 -545q76 0 157.5 63.5t166.5 171t173 252t178.5 307.5t182.5 334t184 333.5t185.5 307t186.5 252t184 171t181 63.5q66 0 109 -39t64.5 -99.5t23.5 -133t-13.5 -139t-45 -119t-73.5 -71.5t-98.5 2.5t-117.5 102.5q29 -2 61.5 31t63 82t53.5 106.5t31 107.5t-3.5 83 t-47.5 33q-55 0 -135.5 -101.5t-180.5 -266.5t-215 -373.5t-240 -423.5q-16 -35 -24 -67t-7 -56.5t14 -39t42 -14.5t64.5 20.5t67.5 52.5t59.5 71t41 76.5t10.5 69.5t-30 50h109q43 76 78.5 145.5t55 121t18.5 82t-32 30.5q78 0 129.5 -15t81.5 -34q37 -23 56 -49 q-168 -240 -285 -428q-49 -80 -94 -158t-73 -137t-34 -96t19 -37q43 0 100 40t114.5 100.5t110 132t84 135t35.5 110.5t-33 57h213q-111 -186 -229 -329q-51 -61 -108.5 -121t-119 -106t-125 -73.5t-124.5 -27.5q-51 0 -71.5 25.5t-17.5 70.5t23.5 105.5t52.5 130.5 q-41 -31 -86 -49.5t-90 -18.5q-72 0 -104 45q-117 -195 -235.5 -366.5t-234.5 -293.5t-226.5 -177.5t-210.5 -14.5z" />
<glyph unicode="&#xfb02;" horiz-adv-x="856" d="M-825 -545q76 0 157.5 63.5t166.5 171t173 252t178.5 307.5t182.5 334t184 333.5t185.5 307t186.5 252t184 171t181 63.5q78 0 133.5 -24.5t87 -61.5t39 -82t-9.5 -86q-6 -37 -55 -115.5t-138 -220t-220.5 -356.5t-303.5 -524q-39 -70 -48 -115t20 -45q43 0 96 40 t105.5 100.5t97.5 132t70.5 135t25.5 110.5t-37 57h213q-96 -186 -203 -329q-47 -61 -99 -121t-109.5 -106t-119 -73.5t-122.5 -27.5q-47 0 -67.5 22.5t-22.5 60.5t14 90t43 114l23 47q-43 -31 -88.5 -50.5t-92.5 -19.5q-72 0 -104 45q-117 -195 -235.5 -366.5 t-234.5 -293.5t-226.5 -177.5t-210.5 -14.5zM159 368.5q1 -24.5 14 -39t42 -14.5t64.5 20.5t67.5 52.5t59.5 71t41 76.5t10.5 69.5t-30 50h109q51 94 106 193.5t105.5 194t92.5 177.5t66.5 145t28.5 99t-21 37h55.5t49.5 2q8 29 10 56.5t-4 49t-21.5 35t-43.5 13.5 q-55 0 -135.5 -101.5t-180.5 -266.5t-215 -373.5t-240 -423.5q-16 -35 -24 -67t-7 -56.5z" />
<glyph horiz-adv-x="0" />
<glyph unicode="&#xd;" horiz-adv-x="1024" />
<glyph horiz-adv-x="0" />
<glyph horiz-adv-x="0" />
<glyph unicode=" "  horiz-adv-x="663" />
<glyph unicode="&#x09;" horiz-adv-x="663" />
<glyph unicode="&#xa0;" horiz-adv-x="663" />
<glyph unicode="!" horiz-adv-x="473" d="M-21.5 13.5q-5.5 33.5 23 84.5t98.5 117q61 0 82 -21.5t16 -56.5t-30 -79t-53 -91q-59 -12 -95 0.5t-41.5 46zM203 395q-10 37 7 98.5t56 140.5t84 163t90 167t77 152.5t42.5 120t-14.5 66.5q66 43 126 66.5t109 33.5q55 12 109 14q-49 -72 -118 -177t-141.5 -220 t-142 -230.5t-122 -209t-82 -154.5t-19.5 -68q-51 0 -61 37z" />
<glyph unicode="&#x22;" horiz-adv-x="421" d="M201 1063q10 20 24.5 45t26.5 47q14 25 29 51q-18 16 -15 49q4 29 26 74t83 115q29 0 60.5 -8.5t53 -26.5t25.5 -49t-19.5 -74t-83 -101.5t-165.5 -133.5q-29 -6 -45 12zM446 1063q10 20 24.5 45t27.5 47q14 25 28 51q-18 16 -14 49q4 29 26 74t83 115q29 0 60.5 -8.5 t53 -26.5t25.5 -49t-19.5 -74t-83 -101.5t-165.5 -133.5q-29 -6 -46 12z" />
<glyph unicode="#" d="M233 154q0 53 30 82.5t79 29.5q39 0 58.5 -17.5t27.5 -45.5l-25 -8q-12 47 -61 47q-41 0 -60.5 -26t-19.5 -60q0 -43 22.5 -64.5t57.5 -21.5q18 0 35.5 7t25.5 15v39h-61v27h90v-80q-45 -33 -90 -33q-51 0 -80 30.5t-29 78.5zM244 -47h30l21 -98l27 98h32l27 -100l22 100 h29l-35 -143h-30l-29 106l-29 -106h-30zM262 459l72 596l317 88l-2 4l33 18l-8 35l35 12l-4 37l32 11v36l37 7l2 34l37 4l6 35h35l10 35l37 -4l12 33l37 -6l17 30l34 -10l19 31l35 -15l20 27l33 -16l25 26l30 -22l27 24l29 -24l28 22l27 -26l31 16l22 -27l33 15l20 -31 l35 10l17 -30l34 6l15 -33l35 4l10 -35h18l576 156l-72 -596l-287 -80l-14 -14l18 -33l-28 -23l14 -32l-31 -21l11 -33l-31 -16l6 -37l-33 -12l4 -37l-35 -8v-37l-34 -8l-4 -35l-35 -2l-6 -37h-37l-10 -35l-35 4l-15 -32l-34 8l-17 -33l-35 12l-20 -30l-33 14l-22 -29 l-31 17l-27 -25l-28 20l-29 -24l-27 24l-30 -20l-25 25l-33 -17l-20 29l-35 -14l-19 30l-34 -12l-17 33l-37 -8l-12 32l-37 -4l-10 35h-35l-6 37l-37 2l-2 35l-37 8l2 35zM389 848q0 -35 31 -35q6 0 22 4q-12 0 -12 31t20.5 69.5t79.5 51.5h11q18 0 26 -13.5t8 -33.5 q0 -39 -23.5 -83t-62.5 -57q12 37 24.5 71t21.5 56l-9 9q-4 4 -9 7t-15 3t-15 -2q4 0 5 -11q0 -16 -9.5 -50t-21.5 -70.5t-21.5 -72.5t-9.5 -58q0 -25 14 -25h7q-2 0 -2 6q0 14 10 50t26 79q66 16 99.5 61.5t33.5 86.5q0 25 -14 41t-45 16h-13t-14 -2q-76 -16 -109.5 -57 t-33.5 -72zM432 -47h29l22 -98l27 98h33l24 -100l23 100h28l-32 -143h-31l-29 106l-28 -106h-31zM461 125q0 39 19.5 60.5t54.5 21.5q29 0 49 -21.5t20 -60.5v-6h-117q6 -51 48 -51q31 0 40 30l29 -4q-16 -49 -69 -49q-35 0 -54.5 20.5t-19.5 59.5zM489 141h86q-2 23 -13 34 t-27 11q-18 0 -30.5 -13t-15.5 -32zM575 760q0 -16 6.5 -27.5t22.5 -11.5q25 0 48.5 20.5t35.5 34.5q4 0 11.5 10.5t14.5 23.5t13 25.5t8 16.5q2 0 6 1t9 1h7t3 -12q-2 -6 -2 -19q0 -23 2 -40t20 -17q20 0 41 24.5t29 32.5l10 13q12 -12 12 -27v-14q0 -8 -4 -17 q-8 -14 -22 -14q-6 0 -8 6t-4 6q-4 0 -5 -2q0 -6 6.5 -12t16.5 -6q12 0 23.5 7t18.5 17.5t11 20.5t4 16q0 8 -2 18.5t-24 32.5q8 10 13 22.5t5 16.5q0 6 -6 6q-29 0 -39 -17t-10 -28q0 -10 3 -15t7 -13l-10 -15h-2l-8 -12q-4 -6 -13.5 -14t-17.5 -8q-6 0 -9 10t-3 24v19v22 t-7 6q-4 0 -20 -2t-25 -2q2 2 2 9q0 8 -6 8q-20 0 -20 -23q0 -8 5 -8h9q0 -2 -1 -3t-1 -5q-35 -66 -60.5 -83.5t-35.5 -17.5t-17 13q16 20 34 39.5t18 38.5q0 4 -3 9t-14 5q-16 0 -30.5 -10.5t-24.5 -25.5t-15.5 -30.5t-5.5 -23.5zM612 776q0 35 13.5 50.5t25.5 15.5 q8 0 8 -11q0 -17 -20 -40q-8 -14 -25 -27q0 4 -1 6t-1 6zM621 -47h28l23 -98l26 98h33l25 -100l22 100h29l-35 -143h-31l-28 106l-27 -106h-33zM623 182v21h18v39l27 16v-55h24v-21h-24v-90q0 -16 3 -18t11 -2h10l6 -23q-8 -2 -20 -2q-16 0 -23.5 4t-11.5 12q-2 4 -2 31v88 h-18zM784 182v21h25v16q0 23 8 35t35 12q4 0 10 -1t12 -1l-2 -24q-6 2 -16 2q-23 0 -22 -25v-14h30v-21h-30v-133h-25v133h-25zM811 -162h27v-28h-27v28zM866 -47h43l25 -98l27 98h43v-143h-27v112l-29 -112h-28l-27 112v-112h-27v143zM872 889q0 18 17 18q4 0 4 -4 q0 -8 -14 -31q-2 4 -4.5 8.5t-2.5 8.5zM885 106v97h26v-86q0 -29 6.5 -39t24.5 -10q41 0 41 53v82h27v-154h-25v23q-14 -27 -49 -27q-27 0 -39 13.5t-12 47.5zM934 848q0 -10 6 -22.5t23 -12.5q27 0 52 27.5t25 62.5q0 18 -9 26.5t-19 8.5q-20 0 -45 -20.5t-31 -55.5 q-2 -4 -2 -14zM954 559q0 -20 13.5 -35.5t38.5 -15.5q31 0 52 21.5t21 56.5q0 27 -15 41t-38 14q-33 0 -52.5 -23.5t-19.5 -58.5zM969 874q0 6 10 32t35 26q20 -6 20 -31q0 -33 -16.5 -48t-26.5 -15q-4 2 -6 2t-6 2q-10 10 -10 32zM979 561q0 23 13.5 40t31.5 17 q29 0 29 -32q0 -25 -13.5 -41.5t-29.5 -16.5q-12 0 -21.5 9.5t-9.5 23.5zM1018 -190l55 143h31l57 -143h-33l-12 32h-55l-12 -32h-31zM1051 49v213h26v-213h-26zM1051 887q0 -10 3 -28.5t17 -18.5q10 0 16 10q27 25 32 49.5t16 26.5v-10q0 -11 1 -23t5 -22.5t14 -10.5 q14 0 30.5 17.5t26.5 29.5q0 -27 19 -26q14 0 35.5 21.5t21.5 31.5q0 -8 7.5 -20.5t17.5 -12.5t30.5 18.5t28.5 32.5q4 -31 21 -30q12 0 23 8t20.5 18t16.5 19.5t9 11.5v4h-6q-14 -23 -23.5 -28t-13.5 -5q-10 0 -14 27v13t2 16q31 49 54.5 94t23.5 67q0 10 -8 11 q-8 0 -25.5 -13.5t-35 -40t-31 -64.5t-13.5 -89v-10v-3l-10 -10q-4 -6 -10 -13t-15 -7q-10 0 -14 14q-2 12 -4 23q-2 10 -4 17t-4 7q-4 0 -6 -6q-18 -37 -23.5 -50t-21.5 -20q-16 0 -17 17q0 18 8.5 33.5t18.5 25.5t21.5 15.5t15.5 5.5q8 0 9 -1t3 -1q0 2 2 2l2 2q0 4 -12 4 q-29 0 -58.5 -32t-40.5 -66l-8 -11l-11 -11t-13 -7t-7.5 6t-3.5 16v18.5t-1 24t-3 20.5t-6 9t-10 -10q-2 -4 -8 -17.5t-14.5 -29t-15.5 -29.5t-11 -18q-4 0 -9.5 9t-7.5 23q6 12 13.5 24.5t7.5 22.5q0 6 -8 7q-16 0 -28.5 -16.5t-16.5 -41.5v-20zM1069 -133h39l-21 53z M1079 932q0 10 2 19.5t13 9.5q2 0 3 -1.5t3 -1.5q-1 -9 -19 -40q0 4 -1 7t-1 7zM1085 510h27l18 86l35 -86h25l27 129h-25l-18 -88l-35 88h-25zM1116 49v213h27v-213h-27zM1151 -47h29l22 -98l27 98h33l24 -100l23 100h28l-34 -143h-29l-31 106l-26 -106h-31zM1217 510h94 l4 20h-66l23 109h-27zM1249 182v21h25v16q0 23 8 35t33 12q6 0 12 -1t12 -1l-2 -24q-6 2 -16 2q-12 0 -16 -4q-6 -6 -7 -21v-14h31v-21h-31v-133h-24v133h-25zM1327 639l35 -80l-10 -49h26l11 47l59 82h-31l-37 -55l-24 55h-29zM1339 125q0 41 20.5 61.5t51.5 20.5 q33 0 53.5 -20.5t20.5 -57.5q0 -41 -19.5 -62.5t-54.5 -21.5q-33 0 -52.5 20.5t-19.5 59.5zM1354 -47h26l60 -96v96h26v-143h-28l-58 92v-92h-26v143zM1366 125q0 -29 13.5 -43t31.5 -14q21 0 33 14q14 14 14 45q0 57 -47 57q-45 0 -45 -59zM1409 1020q4 57 24.5 102 t36.5 45q4 0 5 -8q-1 -20 -19 -53q-10 -20 -21.5 -41t-25.5 -45zM1489 -143l29 2q2 -27 30 -27q16 0 21.5 6t5.5 12q0 4 -1 8.5t-11 8.5q-41 10 -55.5 18.5t-14.5 28.5q0 23 16.5 32t36.5 9q29 0 41 -12.5t12 -30.5l-26 -2q-6 20 -27 20q-25 0 -24 -14q0 -10 22.5 -14.5 t38.5 -14.5q23 -10 23 -37q0 -18 -14.5 -30.5t-43.5 -12.5q-53 0 -59 50zM1516 49v154h22v-21q18 25 49 25h15.5t17.5 -5t14 -18.5t6 -40.5v-94h-24v94q0 41 -33 41q-16 0 -28.5 -10t-12.5 -41v-84h-26zM1579 973q0 -33 20 -33q18 0 34 15.5t28 37.5v-6q0 -25 12 -24 q16 0 33.5 20.5t32.5 42.5q0 -14 20 -18q29 0 43.5 24.5t16.5 36.5q0 16 -5.5 22.5t-19.5 28.5q4 10 10 21.5t6 17.5t-6 6q-29 0 -39 -17.5t-10 -27.5t3 -15t7 -13l2 -2q-6 -10 -15 -28t-19.5 -35t-21.5 -30.5t-19 -15.5q-4 0 -4 8q0 16 12 62.5t29 93.5q18 55 40 123 q-4 0 -8 2q-12 4 -22 4q-14 0 -23 -2q6 0 6 -10t-5 -31t-11 -45.5t-14.5 -53t-14.5 -55.5l-14 -4q6 0 6 -14q0 -12 -6 -29.5t-15.5 -35t-20.5 -30t-19 -12.5t-9 13q0 16 12.5 52t28 76t28.5 77.5t13 62.5t-18 24q-4 0 -9 -1t-14 -3h2q4 0 5 -8q0 -14 -10.5 -49t-24 -75 t-23.5 -81t-10 -67zM1628 -162h29v-28h-29v28zM1667 182v21h21v39l24 16v-55h27v-21h-27v-90q0 -16 4 -18t10 -2h13l4 -23q-8 -2 -21 -2q-23 0 -28.5 7t-5.5 40v88h-21zM1679 -121q0 35 18.5 55.5t47.5 20.5q45 0 57 -43l-26 -6q-6 25 -31 24q-37 0 -37 -49q0 -29 10.5 -39 t24.5 -10q10 0 20 6q10 10 13 25l28 -10q-16 -45 -61 -46q-29 0 -46.5 19.5t-17.5 52.5zM1741 1028q23 35 28 59q4 -8 8.5 -13t6.5 -15q0 -10 -2 -12q0 -4 -5 -17.5t-22 -13.5q-4 0 -6 6t-6 6h-2zM1784 1141q0 18 14 18q6 0 6 -4q0 -8 -16 -31q-4 12 -4 17zM1823 -119 q0 43 22 58.5t45 15.5q33 0 51.5 -19.5t18.5 -54.5q0 -37 -19.5 -55.5t-48.5 -18.5q-70 0 -69 74zM1839 90q0 20 11.5 29.5t26.5 13.5t33.5 6t35.5 8q0 23 -8.5 30t-28.5 7t-27.5 -6t-11.5 -22l-27 4q4 27 22.5 37t47.5 10q33 0 46 -11.5t13 -45.5v-37q0 -35 1 -44.5 t9 -19.5h-28q-4 4 -4 9t-2 10q-25 -23 -56 -23q-53 0 -53 45zM1843 1102q0 -10 6 -23.5t23 -13.5q12 0 23.5 5t25.5 15q27 18 39 35q6 8 8 13q0 2 -4 2q-25 -25 -37 -36.5t-26 -11.5q-10 0 -15 13q27 35 36 47t13 29q0 18 -14 18q-29 0 -48.5 -28.5t-27.5 -51.5q0 -4 -1 -6 t-1 -6zM1851 -119q0 -49 41 -49q17 0 27 12q12 12 12 37q0 49 -39 49q-41 0 -41 -49zM1866 90q0 -25 32 -24q20 0 34 11t14 40v8q-12 -4 -25.5 -6t-26 -5t-20.5 -8.5t-8 -15.5zM1882 1128q2 23 11.5 40.5t23.5 17.5q12 0 12 -10q0 -12 -10.5 -27t-22.5 -29q-4 -4 -6 -7 t-6 -7q-2 8 -2 22zM1982 -47h43l25 -98l27 98h43v-143h-27v112l-29 -112h-26l-29 112v-112h-27v143zM1999 182v21h20v39l25 16v-55h27v-21h-27v-90q0 -16 4 -18t10 -2h13l4 -23q-8 -2 -21 -2q-27 0 -33 16q-2 4 -2 31v88h-20zM2103 49v29h31v-29h-31zM2103 174v29h31v-29 h-31z" />
<glyph unicode="$" d="M233 154q0 53 30 82.5t79 29.5q39 0 58.5 -17.5t27.5 -45.5l-25 -8q-12 47 -61 47q-41 0 -60.5 -26t-19.5 -60q0 -43 22.5 -64.5t57.5 -21.5q18 0 35.5 7t25.5 15v39h-61v27h90v-80q-45 -33 -90 -33q-51 0 -80 30.5t-29 78.5zM244 -47h30l21 -98l27 98h32l27 -100l22 100 h29l-35 -143h-30l-29 106l-29 -106h-30zM262 459l72 596l317 88l-2 4l33 18l-8 35l35 12l-4 37l32 11v36l37 7l2 34l37 4l6 35h35l10 35l37 -4l12 33l37 -6l17 30l34 -10l19 31l35 -15l20 27l33 -16l25 26l30 -22l27 24l29 -24l28 22l27 -26l31 16l22 -27l33 15l20 -31 l35 10l17 -30l34 6l15 -33l35 4l10 -35h18l576 156l-72 -596l-287 -80l-14 -14l18 -33l-28 -23l14 -32l-31 -21l11 -33l-31 -16l6 -37l-33 -12l4 -37l-35 -8v-37l-34 -8l-4 -35l-35 -2l-6 -37h-37l-10 -35l-35 4l-15 -32l-34 8l-17 -33l-35 12l-20 -30l-33 14l-22 -29 l-31 17l-27 -25l-28 20l-29 -24l-27 24l-30 -20l-25 25l-33 -17l-20 29l-35 -14l-19 30l-34 -12l-17 33l-37 -8l-12 32l-37 -4l-10 35h-35l-6 37l-37 2l-2 35l-37 8l2 35zM389 848q0 -35 31 -35q6 0 22 4q-12 0 -12 31t20.5 69.5t79.5 51.5h11q18 0 26 -13.5t8 -33.5 q0 -39 -23.5 -83t-62.5 -57q12 37 24.5 71t21.5 56l-9 9q-4 4 -9 7t-15 3t-15 -2q4 0 5 -11q0 -16 -9.5 -50t-21.5 -70.5t-21.5 -72.5t-9.5 -58q0 -25 14 -25h7q-2 0 -2 6q0 14 10 50t26 79q66 16 99.5 61.5t33.5 86.5q0 25 -14 41t-45 16h-13t-14 -2q-76 -16 -109.5 -57 t-33.5 -72zM432 -47h29l22 -98l27 98h33l24 -100l23 100h28l-32 -143h-31l-29 106l-28 -106h-31zM461 125q0 39 19.5 60.5t54.5 21.5q29 0 49 -21.5t20 -60.5v-6h-117q6 -51 48 -51q31 0 40 30l29 -4q-16 -49 -69 -49q-35 0 -54.5 20.5t-19.5 59.5zM489 141h86q-2 23 -13 34 t-27 11q-18 0 -30.5 -13t-15.5 -32zM575 760q0 -16 6.5 -27.5t22.5 -11.5q25 0 48.5 20.5t35.5 34.5q4 0 11.5 10.5t14.5 23.5t13 25.5t8 16.5q2 0 6 1t9 1h7t3 -12q-2 -6 -2 -19q0 -23 2 -40t20 -17q20 0 41 24.5t29 32.5l10 13q12 -12 12 -27v-14q0 -8 -4 -17 q-8 -14 -22 -14q-6 0 -8 6t-4 6q-4 0 -5 -2q0 -6 6.5 -12t16.5 -6q12 0 23.5 7t18.5 17.5t11 20.5t4 16q0 8 -2 18.5t-24 32.5q8 10 13 22.5t5 16.5q0 6 -6 6q-29 0 -39 -17t-10 -28q0 -10 3 -15t7 -13l-10 -15h-2l-8 -12q-4 -6 -13.5 -14t-17.5 -8q-6 0 -9 10t-3 24v19v22 t-7 6q-4 0 -20 -2t-25 -2q2 2 2 9q0 8 -6 8q-20 0 -20 -23q0 -8 5 -8h9q0 -2 -1 -3t-1 -5q-35 -66 -60.5 -83.5t-35.5 -17.5t-17 13q16 20 34 39.5t18 38.5q0 4 -3 9t-14 5q-16 0 -30.5 -10.5t-24.5 -25.5t-15.5 -30.5t-5.5 -23.5zM612 776q0 35 13.5 50.5t25.5 15.5 q8 0 8 -11q0 -17 -20 -40q-8 -14 -25 -27q0 4 -1 6t-1 6zM621 -47h28l23 -98l26 98h33l25 -100l22 100h29l-35 -143h-31l-28 106l-27 -106h-33zM623 182v21h18v39l27 16v-55h24v-21h-24v-90q0 -16 3 -18t11 -2h10l6 -23q-8 -2 -20 -2q-16 0 -23.5 4t-11.5 12q-2 4 -2 31v88 h-18zM784 182v21h25v16q0 23 8 35t35 12q4 0 10 -1t12 -1l-2 -24q-6 2 -16 2q-23 0 -22 -25v-14h30v-21h-30v-133h-25v133h-25zM811 -162h27v-28h-27v28zM866 -47h43l25 -98l27 98h43v-143h-27v112l-29 -112h-28l-27 112v-112h-27v143zM872 889q0 18 17 18q4 0 4 -4 q0 -8 -14 -31q-2 4 -4.5 8.5t-2.5 8.5zM885 106v97h26v-86q0 -29 6.5 -39t24.5 -10q41 0 41 53v82h27v-154h-25v23q-14 -27 -49 -27q-27 0 -39 13.5t-12 47.5zM934 848q0 -10 6 -22.5t23 -12.5q27 0 52 27.5t25 62.5q0 18 -9 26.5t-19 8.5q-20 0 -45 -20.5t-31 -55.5 q-2 -4 -2 -14zM954 559q0 -20 13.5 -35.5t38.5 -15.5q31 0 52 21.5t21 56.5q0 27 -15 41t-38 14q-33 0 -52.5 -23.5t-19.5 -58.5zM969 874q0 6 10 32t35 26q20 -6 20 -31q0 -33 -16.5 -48t-26.5 -15q-4 2 -6 2t-6 2q-10 10 -10 32zM979 561q0 23 13.5 40t31.5 17 q29 0 29 -32q0 -25 -13.5 -41.5t-29.5 -16.5q-12 0 -21.5 9.5t-9.5 23.5zM1018 -190l55 143h31l57 -143h-33l-12 32h-55l-12 -32h-31zM1051 49v213h26v-213h-26zM1051 887q0 -10 3 -28.5t17 -18.5q10 0 16 10q27 25 32 49.5t16 26.5v-10q0 -11 1 -23t5 -22.5t14 -10.5 q14 0 30.5 17.5t26.5 29.5q0 -27 19 -26q14 0 35.5 21.5t21.5 31.5q0 -8 7.5 -20.5t17.5 -12.5t30.5 18.5t28.5 32.5q4 -31 21 -30q12 0 23 8t20.5 18t16.5 19.5t9 11.5v4h-6q-14 -23 -23.5 -28t-13.5 -5q-10 0 -14 27v13t2 16q31 49 54.5 94t23.5 67q0 10 -8 11 q-8 0 -25.5 -13.5t-35 -40t-31 -64.5t-13.5 -89v-10v-3l-10 -10q-4 -6 -10 -13t-15 -7q-10 0 -14 14q-2 12 -4 23q-2 10 -4 17t-4 7q-4 0 -6 -6q-18 -37 -23.5 -50t-21.5 -20q-16 0 -17 17q0 18 8.5 33.5t18.5 25.5t21.5 15.5t15.5 5.5q8 0 9 -1t3 -1q0 2 2 2l2 2q0 4 -12 4 q-29 0 -58.5 -32t-40.5 -66l-8 -11l-11 -11t-13 -7t-7.5 6t-3.5 16v18.5t-1 24t-3 20.5t-6 9t-10 -10q-2 -4 -8 -17.5t-14.5 -29t-15.5 -29.5t-11 -18q-4 0 -9.5 9t-7.5 23q6 12 13.5 24.5t7.5 22.5q0 6 -8 7q-16 0 -28.5 -16.5t-16.5 -41.5v-20zM1069 -133h39l-21 53z M1079 932q0 10 2 19.5t13 9.5q2 0 3 -1.5t3 -1.5q-1 -9 -19 -40q0 4 -1 7t-1 7zM1085 510h27l18 86l35 -86h25l27 129h-25l-18 -88l-35 88h-25zM1116 49v213h27v-213h-27zM1151 -47h29l22 -98l27 98h33l24 -100l23 100h28l-34 -143h-29l-31 106l-26 -106h-31zM1217 510h94 l4 20h-66l23 109h-27zM1249 182v21h25v16q0 23 8 35t33 12q6 0 12 -1t12 -1l-2 -24q-6 2 -16 2q-12 0 -16 -4q-6 -6 -7 -21v-14h31v-21h-31v-133h-24v133h-25zM1327 639l35 -80l-10 -49h26l11 47l59 82h-31l-37 -55l-24 55h-29zM1339 125q0 41 20.5 61.5t51.5 20.5 q33 0 53.5 -20.5t20.5 -57.5q0 -41 -19.5 -62.5t-54.5 -21.5q-33 0 -52.5 20.5t-19.5 59.5zM1354 -47h26l60 -96v96h26v-143h-28l-58 92v-92h-26v143zM1366 125q0 -29 13.5 -43t31.5 -14q21 0 33 14q14 14 14 45q0 57 -47 57q-45 0 -45 -59zM1409 1020q4 57 24.5 102 t36.5 45q4 0 5 -8q-1 -20 -19 -53q-10 -20 -21.5 -41t-25.5 -45zM1489 -143l29 2q2 -27 30 -27q16 0 21.5 6t5.5 12q0 4 -1 8.5t-11 8.5q-41 10 -55.5 18.5t-14.5 28.5q0 23 16.5 32t36.5 9q29 0 41 -12.5t12 -30.5l-26 -2q-6 20 -27 20q-25 0 -24 -14q0 -10 22.5 -14.5 t38.5 -14.5q23 -10 23 -37q0 -18 -14.5 -30.5t-43.5 -12.5q-53 0 -59 50zM1516 49v154h22v-21q18 25 49 25h15.5t17.5 -5t14 -18.5t6 -40.5v-94h-24v94q0 41 -33 41q-16 0 -28.5 -10t-12.5 -41v-84h-26zM1579 973q0 -33 20 -33q18 0 34 15.5t28 37.5v-6q0 -25 12 -24 q16 0 33.5 20.5t32.5 42.5q0 -14 20 -18q29 0 43.5 24.5t16.5 36.5q0 16 -5.5 22.5t-19.5 28.5q4 10 10 21.5t6 17.5t-6 6q-29 0 -39 -17.5t-10 -27.5t3 -15t7 -13l2 -2q-6 -10 -15 -28t-19.5 -35t-21.5 -30.5t-19 -15.5q-4 0 -4 8q0 16 12 62.5t29 93.5q18 55 40 123 q-4 0 -8 2q-12 4 -22 4q-14 0 -23 -2q6 0 6 -10t-5 -31t-11 -45.5t-14.5 -53t-14.5 -55.5l-14 -4q6 0 6 -14q0 -12 -6 -29.5t-15.5 -35t-20.5 -30t-19 -12.5t-9 13q0 16 12.5 52t28 76t28.5 77.5t13 62.5t-18 24q-4 0 -9 -1t-14 -3h2q4 0 5 -8q0 -14 -10.5 -49t-24 -75 t-23.5 -81t-10 -67zM1628 -162h29v-28h-29v28zM1667 182v21h21v39l24 16v-55h27v-21h-27v-90q0 -16 4 -18t10 -2h13l4 -23q-8 -2 -21 -2q-23 0 -28.5 7t-5.5 40v88h-21zM1679 -121q0 35 18.5 55.5t47.5 20.5q45 0 57 -43l-26 -6q-6 25 -31 24q-37 0 -37 -49q0 -29 10.5 -39 t24.5 -10q10 0 20 6q10 10 13 25l28 -10q-16 -45 -61 -46q-29 0 -46.5 19.5t-17.5 52.5zM1741 1028q23 35 28 59q4 -8 8.5 -13t6.5 -15q0 -10 -2 -12q0 -4 -5 -17.5t-22 -13.5q-4 0 -6 6t-6 6h-2zM1784 1141q0 18 14 18q6 0 6 -4q0 -8 -16 -31q-4 12 -4 17zM1823 -119 q0 43 22 58.5t45 15.5q33 0 51.5 -19.5t18.5 -54.5q0 -37 -19.5 -55.5t-48.5 -18.5q-70 0 -69 74zM1839 90q0 20 11.5 29.5t26.5 13.5t33.5 6t35.5 8q0 23 -8.5 30t-28.5 7t-27.5 -6t-11.5 -22l-27 4q4 27 22.5 37t47.5 10q33 0 46 -11.5t13 -45.5v-37q0 -35 1 -44.5 t9 -19.5h-28q-4 4 -4 9t-2 10q-25 -23 -56 -23q-53 0 -53 45zM1843 1102q0 -10 6 -23.5t23 -13.5q12 0 23.5 5t25.5 15q27 18 39 35q6 8 8 13q0 2 -4 2q-25 -25 -37 -36.5t-26 -11.5q-10 0 -15 13q27 35 36 47t13 29q0 18 -14 18q-29 0 -48.5 -28.5t-27.5 -51.5q0 -4 -1 -6 t-1 -6zM1851 -119q0 -49 41 -49q17 0 27 12q12 12 12 37q0 49 -39 49q-41 0 -41 -49zM1866 90q0 -25 32 -24q20 0 34 11t14 40v8q-12 -4 -25.5 -6t-26 -5t-20.5 -8.5t-8 -15.5zM1882 1128q2 23 11.5 40.5t23.5 17.5q12 0 12 -10q0 -12 -10.5 -27t-22.5 -29q-4 -4 -6 -7 t-6 -7q-2 8 -2 22zM1982 -47h43l25 -98l27 98h43v-143h-27v112l-29 -112h-26l-29 112v-112h-27v143zM1999 182v21h20v39l25 16v-55h27v-21h-27v-90q0 -16 4 -18t10 -2h13l4 -23q-8 -2 -21 -2q-27 0 -33 16q-2 4 -2 31v88h-20zM2103 49v29h31v-29h-31zM2103 174v29h31v-29 h-31z" />
<glyph unicode="%" d="M233 154q0 53 30 82.5t79 29.5q39 0 58.5 -17.5t27.5 -45.5l-25 -8q-12 47 -61 47q-41 0 -60.5 -26t-19.5 -60q0 -43 22.5 -64.5t57.5 -21.5q18 0 35.5 7t25.5 15v39h-61v27h90v-80q-45 -33 -90 -33q-51 0 -80 30.5t-29 78.5zM244 -47h30l21 -98l27 98h32l27 -100l22 100 h29l-35 -143h-30l-29 106l-29 -106h-30zM262 459l72 596l317 88l-2 4l33 18l-8 35l35 12l-4 37l32 11v36l37 7l2 34l37 4l6 35h35l10 35l37 -4l12 33l37 -6l17 30l34 -10l19 31l35 -15l20 27l33 -16l25 26l30 -22l27 24l29 -24l28 22l27 -26l31 16l22 -27l33 15l20 -31 l35 10l17 -30l34 6l15 -33l35 4l10 -35h18l576 156l-72 -596l-287 -80l-14 -14l18 -33l-28 -23l14 -32l-31 -21l11 -33l-31 -16l6 -37l-33 -12l4 -37l-35 -8v-37l-34 -8l-4 -35l-35 -2l-6 -37h-37l-10 -35l-35 4l-15 -32l-34 8l-17 -33l-35 12l-20 -30l-33 14l-22 -29 l-31 17l-27 -25l-28 20l-29 -24l-27 24l-30 -20l-25 25l-33 -17l-20 29l-35 -14l-19 30l-34 -12l-17 33l-37 -8l-12 32l-37 -4l-10 35h-35l-6 37l-37 2l-2 35l-37 8l2 35zM389 848q0 -35 31 -35q6 0 22 4q-12 0 -12 31t20.5 69.5t79.5 51.5h11q18 0 26 -13.5t8 -33.5 q0 -39 -23.5 -83t-62.5 -57q12 37 24.5 71t21.5 56l-9 9q-4 4 -9 7t-15 3t-15 -2q4 0 5 -11q0 -16 -9.5 -50t-21.5 -70.5t-21.5 -72.5t-9.5 -58q0 -25 14 -25h7q-2 0 -2 6q0 14 10 50t26 79q66 16 99.5 61.5t33.5 86.5q0 25 -14 41t-45 16h-13t-14 -2q-76 -16 -109.5 -57 t-33.5 -72zM432 -47h29l22 -98l27 98h33l24 -100l23 100h28l-32 -143h-31l-29 106l-28 -106h-31zM461 125q0 39 19.5 60.5t54.5 21.5q29 0 49 -21.5t20 -60.5v-6h-117q6 -51 48 -51q31 0 40 30l29 -4q-16 -49 -69 -49q-35 0 -54.5 20.5t-19.5 59.5zM489 141h86q-2 23 -13 34 t-27 11q-18 0 -30.5 -13t-15.5 -32zM575 760q0 -16 6.5 -27.5t22.5 -11.5q25 0 48.5 20.5t35.5 34.5q4 0 11.5 10.5t14.5 23.5t13 25.5t8 16.5q2 0 6 1t9 1h7t3 -12q-2 -6 -2 -19q0 -23 2 -40t20 -17q20 0 41 24.5t29 32.5l10 13q12 -12 12 -27v-14q0 -8 -4 -17 q-8 -14 -22 -14q-6 0 -8 6t-4 6q-4 0 -5 -2q0 -6 6.5 -12t16.5 -6q12 0 23.5 7t18.5 17.5t11 20.5t4 16q0 8 -2 18.5t-24 32.5q8 10 13 22.5t5 16.5q0 6 -6 6q-29 0 -39 -17t-10 -28q0 -10 3 -15t7 -13l-10 -15h-2l-8 -12q-4 -6 -13.5 -14t-17.5 -8q-6 0 -9 10t-3 24v19v22 t-7 6q-4 0 -20 -2t-25 -2q2 2 2 9q0 8 -6 8q-20 0 -20 -23q0 -8 5 -8h9q0 -2 -1 -3t-1 -5q-35 -66 -60.5 -83.5t-35.5 -17.5t-17 13q16 20 34 39.5t18 38.5q0 4 -3 9t-14 5q-16 0 -30.5 -10.5t-24.5 -25.5t-15.5 -30.5t-5.5 -23.5zM612 776q0 35 13.5 50.5t25.5 15.5 q8 0 8 -11q0 -17 -20 -40q-8 -14 -25 -27q0 4 -1 6t-1 6zM621 -47h28l23 -98l26 98h33l25 -100l22 100h29l-35 -143h-31l-28 106l-27 -106h-33zM623 182v21h18v39l27 16v-55h24v-21h-24v-90q0 -16 3 -18t11 -2h10l6 -23q-8 -2 -20 -2q-16 0 -23.5 4t-11.5 12q-2 4 -2 31v88 h-18zM784 182v21h25v16q0 23 8 35t35 12q4 0 10 -1t12 -1l-2 -24q-6 2 -16 2q-23 0 -22 -25v-14h30v-21h-30v-133h-25v133h-25zM811 -162h27v-28h-27v28zM866 -47h43l25 -98l27 98h43v-143h-27v112l-29 -112h-28l-27 112v-112h-27v143zM872 889q0 18 17 18q4 0 4 -4 q0 -8 -14 -31q-2 4 -4.5 8.5t-2.5 8.5zM885 106v97h26v-86q0 -29 6.5 -39t24.5 -10q41 0 41 53v82h27v-154h-25v23q-14 -27 -49 -27q-27 0 -39 13.5t-12 47.5zM934 848q0 -10 6 -22.5t23 -12.5q27 0 52 27.5t25 62.5q0 18 -9 26.5t-19 8.5q-20 0 -45 -20.5t-31 -55.5 q-2 -4 -2 -14zM954 559q0 -20 13.5 -35.5t38.5 -15.5q31 0 52 21.5t21 56.5q0 27 -15 41t-38 14q-33 0 -52.5 -23.5t-19.5 -58.5zM969 874q0 6 10 32t35 26q20 -6 20 -31q0 -33 -16.5 -48t-26.5 -15q-4 2 -6 2t-6 2q-10 10 -10 32zM979 561q0 23 13.5 40t31.5 17 q29 0 29 -32q0 -25 -13.5 -41.5t-29.5 -16.5q-12 0 -21.5 9.5t-9.5 23.5zM1018 -190l55 143h31l57 -143h-33l-12 32h-55l-12 -32h-31zM1051 49v213h26v-213h-26zM1051 887q0 -10 3 -28.5t17 -18.5q10 0 16 10q27 25 32 49.5t16 26.5v-10q0 -11 1 -23t5 -22.5t14 -10.5 q14 0 30.5 17.5t26.5 29.5q0 -27 19 -26q14 0 35.5 21.5t21.5 31.5q0 -8 7.5 -20.5t17.5 -12.5t30.5 18.5t28.5 32.5q4 -31 21 -30q12 0 23 8t20.5 18t16.5 19.5t9 11.5v4h-6q-14 -23 -23.5 -28t-13.5 -5q-10 0 -14 27v13t2 16q31 49 54.5 94t23.5 67q0 10 -8 11 q-8 0 -25.5 -13.5t-35 -40t-31 -64.5t-13.5 -89v-10v-3l-10 -10q-4 -6 -10 -13t-15 -7q-10 0 -14 14q-2 12 -4 23q-2 10 -4 17t-4 7q-4 0 -6 -6q-18 -37 -23.5 -50t-21.5 -20q-16 0 -17 17q0 18 8.5 33.5t18.5 25.5t21.5 15.5t15.5 5.5q8 0 9 -1t3 -1q0 2 2 2l2 2q0 4 -12 4 q-29 0 -58.5 -32t-40.5 -66l-8 -11l-11 -11t-13 -7t-7.5 6t-3.5 16v18.5t-1 24t-3 20.5t-6 9t-10 -10q-2 -4 -8 -17.5t-14.5 -29t-15.5 -29.5t-11 -18q-4 0 -9.5 9t-7.5 23q6 12 13.5 24.5t7.5 22.5q0 6 -8 7q-16 0 -28.5 -16.5t-16.5 -41.5v-20zM1069 -133h39l-21 53z M1079 932q0 10 2 19.5t13 9.5q2 0 3 -1.5t3 -1.5q-1 -9 -19 -40q0 4 -1 7t-1 7zM1085 510h27l18 86l35 -86h25l27 129h-25l-18 -88l-35 88h-25zM1116 49v213h27v-213h-27zM1151 -47h29l22 -98l27 98h33l24 -100l23 100h28l-34 -143h-29l-31 106l-26 -106h-31zM1217 510h94 l4 20h-66l23 109h-27zM1249 182v21h25v16q0 23 8 35t33 12q6 0 12 -1t12 -1l-2 -24q-6 2 -16 2q-12 0 -16 -4q-6 -6 -7 -21v-14h31v-21h-31v-133h-24v133h-25zM1327 639l35 -80l-10 -49h26l11 47l59 82h-31l-37 -55l-24 55h-29zM1339 125q0 41 20.5 61.5t51.5 20.5 q33 0 53.5 -20.5t20.5 -57.5q0 -41 -19.5 -62.5t-54.5 -21.5q-33 0 -52.5 20.5t-19.5 59.5zM1354 -47h26l60 -96v96h26v-143h-28l-58 92v-92h-26v143zM1366 125q0 -29 13.5 -43t31.5 -14q21 0 33 14q14 14 14 45q0 57 -47 57q-45 0 -45 -59zM1409 1020q4 57 24.5 102 t36.5 45q4 0 5 -8q-1 -20 -19 -53q-10 -20 -21.5 -41t-25.5 -45zM1489 -143l29 2q2 -27 30 -27q16 0 21.5 6t5.5 12q0 4 -1 8.5t-11 8.5q-41 10 -55.5 18.5t-14.5 28.5q0 23 16.5 32t36.5 9q29 0 41 -12.5t12 -30.5l-26 -2q-6 20 -27 20q-25 0 -24 -14q0 -10 22.5 -14.5 t38.5 -14.5q23 -10 23 -37q0 -18 -14.5 -30.5t-43.5 -12.5q-53 0 -59 50zM1516 49v154h22v-21q18 25 49 25h15.5t17.5 -5t14 -18.5t6 -40.5v-94h-24v94q0 41 -33 41q-16 0 -28.5 -10t-12.5 -41v-84h-26zM1579 973q0 -33 20 -33q18 0 34 15.5t28 37.5v-6q0 -25 12 -24 q16 0 33.5 20.5t32.5 42.5q0 -14 20 -18q29 0 43.5 24.5t16.5 36.5q0 16 -5.5 22.5t-19.5 28.5q4 10 10 21.5t6 17.5t-6 6q-29 0 -39 -17.5t-10 -27.5t3 -15t7 -13l2 -2q-6 -10 -15 -28t-19.5 -35t-21.5 -30.5t-19 -15.5q-4 0 -4 8q0 16 12 62.5t29 93.5q18 55 40 123 q-4 0 -8 2q-12 4 -22 4q-14 0 -23 -2q6 0 6 -10t-5 -31t-11 -45.5t-14.5 -53t-14.5 -55.5l-14 -4q6 0 6 -14q0 -12 -6 -29.5t-15.5 -35t-20.5 -30t-19 -12.5t-9 13q0 16 12.5 52t28 76t28.5 77.5t13 62.5t-18 24q-4 0 -9 -1t-14 -3h2q4 0 5 -8q0 -14 -10.5 -49t-24 -75 t-23.5 -81t-10 -67zM1628 -162h29v-28h-29v28zM1667 182v21h21v39l24 16v-55h27v-21h-27v-90q0 -16 4 -18t10 -2h13l4 -23q-8 -2 -21 -2q-23 0 -28.5 7t-5.5 40v88h-21zM1679 -121q0 35 18.5 55.5t47.5 20.5q45 0 57 -43l-26 -6q-6 25 -31 24q-37 0 -37 -49q0 -29 10.5 -39 t24.5 -10q10 0 20 6q10 10 13 25l28 -10q-16 -45 -61 -46q-29 0 -46.5 19.5t-17.5 52.5zM1741 1028q23 35 28 59q4 -8 8.5 -13t6.5 -15q0 -10 -2 -12q0 -4 -5 -17.5t-22 -13.5q-4 0 -6 6t-6 6h-2zM1784 1141q0 18 14 18q6 0 6 -4q0 -8 -16 -31q-4 12 -4 17zM1823 -119 q0 43 22 58.5t45 15.5q33 0 51.5 -19.5t18.5 -54.5q0 -37 -19.5 -55.5t-48.5 -18.5q-70 0 -69 74zM1839 90q0 20 11.5 29.5t26.5 13.5t33.5 6t35.5 8q0 23 -8.5 30t-28.5 7t-27.5 -6t-11.5 -22l-27 4q4 27 22.5 37t47.5 10q33 0 46 -11.5t13 -45.5v-37q0 -35 1 -44.5 t9 -19.5h-28q-4 4 -4 9t-2 10q-25 -23 -56 -23q-53 0 -53 45zM1843 1102q0 -10 6 -23.5t23 -13.5q12 0 23.5 5t25.5 15q27 18 39 35q6 8 8 13q0 2 -4 2q-25 -25 -37 -36.5t-26 -11.5q-10 0 -15 13q27 35 36 47t13 29q0 18 -14 18q-29 0 -48.5 -28.5t-27.5 -51.5q0 -4 -1 -6 t-1 -6zM1851 -119q0 -49 41 -49q17 0 27 12q12 12 12 37q0 49 -39 49q-41 0 -41 -49zM1866 90q0 -25 32 -24q20 0 34 11t14 40v8q-12 -4 -25.5 -6t-26 -5t-20.5 -8.5t-8 -15.5zM1882 1128q2 23 11.5 40.5t23.5 17.5q12 0 12 -10q0 -12 -10.5 -27t-22.5 -29q-4 -4 -6 -7 t-6 -7q-2 8 -2 22zM1982 -47h43l25 -98l27 98h43v-143h-27v112l-29 -112h-26l-29 112v-112h-27v143zM1999 182v21h20v39l25 16v-55h27v-21h-27v-90q0 -16 4 -18t10 -2h13l4 -23q-8 -2 -21 -2q-27 0 -33 16q-2 4 -2 31v88h-20zM2103 49v29h31v-29h-31zM2103 174v29h31v-29 h-31z" />
<glyph unicode="&#x26;" horiz-adv-x="1024" d="M1 266q-5 84 42 189q51 113 126 174t142 90q80 35 164 39q-10 8 -37.5 42t-49 89t-22.5 131t44 168q49 106 130 174t168 95.5t172 13t144 -75.5q47 53 103.5 73.5t125.5 -14.5q-23 0 -50 -47t-65 -117.5t-84 -150.5t-102.5 -146.5t-125 -106.5t-148.5 -28q41 2 78 57.5 t74.5 132t78.5 162.5t90 152q-37 18 -88 9t-103 -46t-101.5 -98.5t-83.5 -145.5q-41 -98 -44.5 -171.5t11.5 -123.5q16 -57 51 -96q-63 -4 -129 -35q-55 -27 -117.5 -82t-113.5 -155q-86 -170 -74 -268.5t110 -98.5q72 0 134.5 59.5t107.5 141.5q10 29 22.5 60.5t30.5 68.5 q23 74 19 130t-43 67h131l18 30q-76 8 -142.5 4t-119.5 -45q33 43 98.5 69t144.5 42t163 24.5t158.5 17.5t129 21t74.5 35q-35 -59 -75 -95t-84 -55.5t-92 -25.5t-97 -4q-94 -154 -144.5 -249t-72.5 -142q-31 -59 -40 -98t15 -39q37 0 83 33.5t91 86t83 113.5t60.5 116.5 t22.5 95.5t-30 48h182q-82 -158 -174 -282q-39 -53 -85 -103.5t-96.5 -90.5t-102.5 -63.5t-105 -23.5q-49 0 -62.5 27.5t-3.5 74.5q-49 -47 -107.5 -73.5t-125.5 -26.5q-70 0 -133.5 31.5t-103.5 91t-45 143.5z" />
<glyph unicode="'" horiz-adv-x="40" d="M201 1063q10 20 24.5 45t26.5 47q14 25 29 51q-18 16 -15 49q4 29 26 74t83 115q29 0 60.5 -8.5t53 -26.5t25.5 -49t-19.5 -74t-83 -101.5t-165.5 -133.5q-29 -6 -45 12z" />
<glyph unicode="(" d="M233 154q0 53 30 82.5t79 29.5q39 0 58.5 -17.5t27.5 -45.5l-25 -8q-12 47 -61 47q-41 0 -60.5 -26t-19.5 -60q0 -43 22.5 -64.5t57.5 -21.5q18 0 35.5 7t25.5 15v39h-61v27h90v-80q-45 -33 -90 -33q-51 0 -80 30.5t-29 78.5zM244 -47h30l21 -98l27 98h32l27 -100l22 100 h29l-35 -143h-30l-29 106l-29 -106h-30zM262 459l72 596l317 88l-2 4l33 18l-8 35l35 12l-4 37l32 11v36l37 7l2 34l37 4l6 35h35l10 35l37 -4l12 33l37 -6l17 30l34 -10l19 31l35 -15l20 27l33 -16l25 26l30 -22l27 24l29 -24l28 22l27 -26l31 16l22 -27l33 15l20 -31 l35 10l17 -30l34 6l15 -33l35 4l10 -35h18l576 156l-72 -596l-287 -80l-14 -14l18 -33l-28 -23l14 -32l-31 -21l11 -33l-31 -16l6 -37l-33 -12l4 -37l-35 -8v-37l-34 -8l-4 -35l-35 -2l-6 -37h-37l-10 -35l-35 4l-15 -32l-34 8l-17 -33l-35 12l-20 -30l-33 14l-22 -29 l-31 17l-27 -25l-28 20l-29 -24l-27 24l-30 -20l-25 25l-33 -17l-20 29l-35 -14l-19 30l-34 -12l-17 33l-37 -8l-12 32l-37 -4l-10 35h-35l-6 37l-37 2l-2 35l-37 8l2 35zM389 848q0 -35 31 -35q6 0 22 4q-12 0 -12 31t20.5 69.5t79.5 51.5h11q18 0 26 -13.5t8 -33.5 q0 -39 -23.5 -83t-62.5 -57q12 37 24.5 71t21.5 56l-9 9q-4 4 -9 7t-15 3t-15 -2q4 0 5 -11q0 -16 -9.5 -50t-21.5 -70.5t-21.5 -72.5t-9.5 -58q0 -25 14 -25h7q-2 0 -2 6q0 14 10 50t26 79q66 16 99.5 61.5t33.5 86.5q0 25 -14 41t-45 16h-13t-14 -2q-76 -16 -109.5 -57 t-33.5 -72zM432 -47h29l22 -98l27 98h33l24 -100l23 100h28l-32 -143h-31l-29 106l-28 -106h-31zM461 125q0 39 19.5 60.5t54.5 21.5q29 0 49 -21.5t20 -60.5v-6h-117q6 -51 48 -51q31 0 40 30l29 -4q-16 -49 -69 -49q-35 0 -54.5 20.5t-19.5 59.5zM489 141h86q-2 23 -13 34 t-27 11q-18 0 -30.5 -13t-15.5 -32zM575 760q0 -16 6.5 -27.5t22.5 -11.5q25 0 48.5 20.5t35.5 34.5q4 0 11.5 10.5t14.5 23.5t13 25.5t8 16.5q2 0 6 1t9 1h7t3 -12q-2 -6 -2 -19q0 -23 2 -40t20 -17q20 0 41 24.5t29 32.5l10 13q12 -12 12 -27v-14q0 -8 -4 -17 q-8 -14 -22 -14q-6 0 -8 6t-4 6q-4 0 -5 -2q0 -6 6.5 -12t16.5 -6q12 0 23.5 7t18.5 17.5t11 20.5t4 16q0 8 -2 18.5t-24 32.5q8 10 13 22.5t5 16.5q0 6 -6 6q-29 0 -39 -17t-10 -28q0 -10 3 -15t7 -13l-10 -15h-2l-8 -12q-4 -6 -13.5 -14t-17.5 -8q-6 0 -9 10t-3 24v19v22 t-7 6q-4 0 -20 -2t-25 -2q2 2 2 9q0 8 -6 8q-20 0 -20 -23q0 -8 5 -8h9q0 -2 -1 -3t-1 -5q-35 -66 -60.5 -83.5t-35.5 -17.5t-17 13q16 20 34 39.5t18 38.5q0 4 -3 9t-14 5q-16 0 -30.5 -10.5t-24.5 -25.5t-15.5 -30.5t-5.5 -23.5zM612 776q0 35 13.5 50.5t25.5 15.5 q8 0 8 -11q0 -17 -20 -40q-8 -14 -25 -27q0 4 -1 6t-1 6zM621 -47h28l23 -98l26 98h33l25 -100l22 100h29l-35 -143h-31l-28 106l-27 -106h-33zM623 182v21h18v39l27 16v-55h24v-21h-24v-90q0 -16 3 -18t11 -2h10l6 -23q-8 -2 -20 -2q-16 0 -23.5 4t-11.5 12q-2 4 -2 31v88 h-18zM784 182v21h25v16q0 23 8 35t35 12q4 0 10 -1t12 -1l-2 -24q-6 2 -16 2q-23 0 -22 -25v-14h30v-21h-30v-133h-25v133h-25zM811 -162h27v-28h-27v28zM866 -47h43l25 -98l27 98h43v-143h-27v112l-29 -112h-28l-27 112v-112h-27v143zM872 889q0 18 17 18q4 0 4 -4 q0 -8 -14 -31q-2 4 -4.5 8.5t-2.5 8.5zM885 106v97h26v-86q0 -29 6.5 -39t24.5 -10q41 0 41 53v82h27v-154h-25v23q-14 -27 -49 -27q-27 0 -39 13.5t-12 47.5zM934 848q0 -10 6 -22.5t23 -12.5q27 0 52 27.5t25 62.5q0 18 -9 26.5t-19 8.5q-20 0 -45 -20.5t-31 -55.5 q-2 -4 -2 -14zM954 559q0 -20 13.5 -35.5t38.5 -15.5q31 0 52 21.5t21 56.5q0 27 -15 41t-38 14q-33 0 -52.5 -23.5t-19.5 -58.5zM969 874q0 6 10 32t35 26q20 -6 20 -31q0 -33 -16.5 -48t-26.5 -15q-4 2 -6 2t-6 2q-10 10 -10 32zM979 561q0 23 13.5 40t31.5 17 q29 0 29 -32q0 -25 -13.5 -41.5t-29.5 -16.5q-12 0 -21.5 9.5t-9.5 23.5zM1018 -190l55 143h31l57 -143h-33l-12 32h-55l-12 -32h-31zM1051 49v213h26v-213h-26zM1051 887q0 -10 3 -28.5t17 -18.5q10 0 16 10q27 25 32 49.5t16 26.5v-10q0 -11 1 -23t5 -22.5t14 -10.5 q14 0 30.5 17.5t26.5 29.5q0 -27 19 -26q14 0 35.5 21.5t21.5 31.5q0 -8 7.5 -20.5t17.5 -12.5t30.5 18.5t28.5 32.5q4 -31 21 -30q12 0 23 8t20.5 18t16.5 19.5t9 11.5v4h-6q-14 -23 -23.5 -28t-13.5 -5q-10 0 -14 27v13t2 16q31 49 54.5 94t23.5 67q0 10 -8 11 q-8 0 -25.5 -13.5t-35 -40t-31 -64.5t-13.5 -89v-10v-3l-10 -10q-4 -6 -10 -13t-15 -7q-10 0 -14 14q-2 12 -4 23q-2 10 -4 17t-4 7q-4 0 -6 -6q-18 -37 -23.5 -50t-21.5 -20q-16 0 -17 17q0 18 8.5 33.5t18.5 25.5t21.5 15.5t15.5 5.5q8 0 9 -1t3 -1q0 2 2 2l2 2q0 4 -12 4 q-29 0 -58.5 -32t-40.5 -66l-8 -11l-11 -11t-13 -7t-7.5 6t-3.5 16v18.5t-1 24t-3 20.5t-6 9t-10 -10q-2 -4 -8 -17.5t-14.5 -29t-15.5 -29.5t-11 -18q-4 0 -9.5 9t-7.5 23q6 12 13.5 24.5t7.5 22.5q0 6 -8 7q-16 0 -28.5 -16.5t-16.5 -41.5v-20zM1069 -133h39l-21 53z M1079 932q0 10 2 19.5t13 9.5q2 0 3 -1.5t3 -1.5q-1 -9 -19 -40q0 4 -1 7t-1 7zM1085 510h27l18 86l35 -86h25l27 129h-25l-18 -88l-35 88h-25zM1116 49v213h27v-213h-27zM1151 -47h29l22 -98l27 98h33l24 -100l23 100h28l-34 -143h-29l-31 106l-26 -106h-31zM1217 510h94 l4 20h-66l23 109h-27zM1249 182v21h25v16q0 23 8 35t33 12q6 0 12 -1t12 -1l-2 -24q-6 2 -16 2q-12 0 -16 -4q-6 -6 -7 -21v-14h31v-21h-31v-133h-24v133h-25zM1327 639l35 -80l-10 -49h26l11 47l59 82h-31l-37 -55l-24 55h-29zM1339 125q0 41 20.5 61.5t51.5 20.5 q33 0 53.5 -20.5t20.5 -57.5q0 -41 -19.5 -62.5t-54.5 -21.5q-33 0 -52.5 20.5t-19.5 59.5zM1354 -47h26l60 -96v96h26v-143h-28l-58 92v-92h-26v143zM1366 125q0 -29 13.5 -43t31.5 -14q21 0 33 14q14 14 14 45q0 57 -47 57q-45 0 -45 -59zM1409 1020q4 57 24.5 102 t36.5 45q4 0 5 -8q-1 -20 -19 -53q-10 -20 -21.5 -41t-25.5 -45zM1489 -143l29 2q2 -27 30 -27q16 0 21.5 6t5.5 12q0 4 -1 8.5t-11 8.5q-41 10 -55.5 18.5t-14.5 28.5q0 23 16.5 32t36.5 9q29 0 41 -12.5t12 -30.5l-26 -2q-6 20 -27 20q-25 0 -24 -14q0 -10 22.5 -14.5 t38.5 -14.5q23 -10 23 -37q0 -18 -14.5 -30.5t-43.5 -12.5q-53 0 -59 50zM1516 49v154h22v-21q18 25 49 25h15.5t17.5 -5t14 -18.5t6 -40.5v-94h-24v94q0 41 -33 41q-16 0 -28.5 -10t-12.5 -41v-84h-26zM1579 973q0 -33 20 -33q18 0 34 15.5t28 37.5v-6q0 -25 12 -24 q16 0 33.5 20.5t32.5 42.5q0 -14 20 -18q29 0 43.5 24.5t16.5 36.5q0 16 -5.5 22.5t-19.5 28.5q4 10 10 21.5t6 17.5t-6 6q-29 0 -39 -17.5t-10 -27.5t3 -15t7 -13l2 -2q-6 -10 -15 -28t-19.5 -35t-21.5 -30.5t-19 -15.5q-4 0 -4 8q0 16 12 62.5t29 93.5q18 55 40 123 q-4 0 -8 2q-12 4 -22 4q-14 0 -23 -2q6 0 6 -10t-5 -31t-11 -45.5t-14.5 -53t-14.5 -55.5l-14 -4q6 0 6 -14q0 -12 -6 -29.5t-15.5 -35t-20.5 -30t-19 -12.5t-9 13q0 16 12.5 52t28 76t28.5 77.5t13 62.5t-18 24q-4 0 -9 -1t-14 -3h2q4 0 5 -8q0 -14 -10.5 -49t-24 -75 t-23.5 -81t-10 -67zM1628 -162h29v-28h-29v28zM1667 182v21h21v39l24 16v-55h27v-21h-27v-90q0 -16 4 -18t10 -2h13l4 -23q-8 -2 -21 -2q-23 0 -28.5 7t-5.5 40v88h-21zM1679 -121q0 35 18.5 55.5t47.5 20.5q45 0 57 -43l-26 -6q-6 25 -31 24q-37 0 -37 -49q0 -29 10.5 -39 t24.5 -10q10 0 20 6q10 10 13 25l28 -10q-16 -45 -61 -46q-29 0 -46.5 19.5t-17.5 52.5zM1741 1028q23 35 28 59q4 -8 8.5 -13t6.5 -15q0 -10 -2 -12q0 -4 -5 -17.5t-22 -13.5q-4 0 -6 6t-6 6h-2zM1784 1141q0 18 14 18q6 0 6 -4q0 -8 -16 -31q-4 12 -4 17zM1823 -119 q0 43 22 58.5t45 15.5q33 0 51.5 -19.5t18.5 -54.5q0 -37 -19.5 -55.5t-48.5 -18.5q-70 0 -69 74zM1839 90q0 20 11.5 29.5t26.5 13.5t33.5 6t35.5 8q0 23 -8.5 30t-28.5 7t-27.5 -6t-11.5 -22l-27 4q4 27 22.5 37t47.5 10q33 0 46 -11.5t13 -45.5v-37q0 -35 1 -44.5 t9 -19.5h-28q-4 4 -4 9t-2 10q-25 -23 -56 -23q-53 0 -53 45zM1843 1102q0 -10 6 -23.5t23 -13.5q12 0 23.5 5t25.5 15q27 18 39 35q6 8 8 13q0 2 -4 2q-25 -25 -37 -36.5t-26 -11.5q-10 0 -15 13q27 35 36 47t13 29q0 18 -14 18q-29 0 -48.5 -28.5t-27.5 -51.5q0 -4 -1 -6 t-1 -6zM1851 -119q0 -49 41 -49q17 0 27 12q12 12 12 37q0 49 -39 49q-41 0 -41 -49zM1866 90q0 -25 32 -24q20 0 34 11t14 40v8q-12 -4 -25.5 -6t-26 -5t-20.5 -8.5t-8 -15.5zM1882 1128q2 23 11.5 40.5t23.5 17.5q12 0 12 -10q0 -12 -10.5 -27t-22.5 -29q-4 -4 -6 -7 t-6 -7q-2 8 -2 22zM1982 -47h43l25 -98l27 98h43v-143h-27v112l-29 -112h-26l-29 112v-112h-27v143zM1999 182v21h20v39l25 16v-55h27v-21h-27v-90q0 -16 4 -18t10 -2h13l4 -23q-8 -2 -21 -2q-27 0 -33 16q-2 4 -2 31v88h-20zM2103 49v29h31v-29h-31zM2103 174v29h31v-29 h-31z" />
<glyph unicode=")" d="M233 154q0 53 30 82.5t79 29.5q39 0 58.5 -17.5t27.5 -45.5l-25 -8q-12 47 -61 47q-41 0 -60.5 -26t-19.5 -60q0 -43 22.5 -64.5t57.5 -21.5q18 0 35.5 7t25.5 15v39h-61v27h90v-80q-45 -33 -90 -33q-51 0 -80 30.5t-29 78.5zM244 -47h30l21 -98l27 98h32l27 -100l22 100 h29l-35 -143h-30l-29 106l-29 -106h-30zM262 459l72 596l317 88l-2 4l33 18l-8 35l35 12l-4 37l32 11v36l37 7l2 34l37 4l6 35h35l10 35l37 -4l12 33l37 -6l17 30l34 -10l19 31l35 -15l20 27l33 -16l25 26l30 -22l27 24l29 -24l28 22l27 -26l31 16l22 -27l33 15l20 -31 l35 10l17 -30l34 6l15 -33l35 4l10 -35h18l576 156l-72 -596l-287 -80l-14 -14l18 -33l-28 -23l14 -32l-31 -21l11 -33l-31 -16l6 -37l-33 -12l4 -37l-35 -8v-37l-34 -8l-4 -35l-35 -2l-6 -37h-37l-10 -35l-35 4l-15 -32l-34 8l-17 -33l-35 12l-20 -30l-33 14l-22 -29 l-31 17l-27 -25l-28 20l-29 -24l-27 24l-30 -20l-25 25l-33 -17l-20 29l-35 -14l-19 30l-34 -12l-17 33l-37 -8l-12 32l-37 -4l-10 35h-35l-6 37l-37 2l-2 35l-37 8l2 35zM389 848q0 -35 31 -35q6 0 22 4q-12 0 -12 31t20.5 69.5t79.5 51.5h11q18 0 26 -13.5t8 -33.5 q0 -39 -23.5 -83t-62.5 -57q12 37 24.5 71t21.5 56l-9 9q-4 4 -9 7t-15 3t-15 -2q4 0 5 -11q0 -16 -9.5 -50t-21.5 -70.5t-21.5 -72.5t-9.5 -58q0 -25 14 -25h7q-2 0 -2 6q0 14 10 50t26 79q66 16 99.5 61.5t33.5 86.5q0 25 -14 41t-45 16h-13t-14 -2q-76 -16 -109.5 -57 t-33.5 -72zM432 -47h29l22 -98l27 98h33l24 -100l23 100h28l-32 -143h-31l-29 106l-28 -106h-31zM461 125q0 39 19.5 60.5t54.5 21.5q29 0 49 -21.5t20 -60.5v-6h-117q6 -51 48 -51q31 0 40 30l29 -4q-16 -49 -69 -49q-35 0 -54.5 20.5t-19.5 59.5zM489 141h86q-2 23 -13 34 t-27 11q-18 0 -30.5 -13t-15.5 -32zM575 760q0 -16 6.5 -27.5t22.5 -11.5q25 0 48.5 20.5t35.5 34.5q4 0 11.5 10.5t14.5 23.5t13 25.5t8 16.5q2 0 6 1t9 1h7t3 -12q-2 -6 -2 -19q0 -23 2 -40t20 -17q20 0 41 24.5t29 32.5l10 13q12 -12 12 -27v-14q0 -8 -4 -17 q-8 -14 -22 -14q-6 0 -8 6t-4 6q-4 0 -5 -2q0 -6 6.5 -12t16.5 -6q12 0 23.5 7t18.5 17.5t11 20.5t4 16q0 8 -2 18.5t-24 32.5q8 10 13 22.5t5 16.5q0 6 -6 6q-29 0 -39 -17t-10 -28q0 -10 3 -15t7 -13l-10 -15h-2l-8 -12q-4 -6 -13.5 -14t-17.5 -8q-6 0 -9 10t-3 24v19v22 t-7 6q-4 0 -20 -2t-25 -2q2 2 2 9q0 8 -6 8q-20 0 -20 -23q0 -8 5 -8h9q0 -2 -1 -3t-1 -5q-35 -66 -60.5 -83.5t-35.5 -17.5t-17 13q16 20 34 39.5t18 38.5q0 4 -3 9t-14 5q-16 0 -30.5 -10.5t-24.5 -25.5t-15.5 -30.5t-5.5 -23.5zM612 776q0 35 13.5 50.5t25.5 15.5 q8 0 8 -11q0 -17 -20 -40q-8 -14 -25 -27q0 4 -1 6t-1 6zM621 -47h28l23 -98l26 98h33l25 -100l22 100h29l-35 -143h-31l-28 106l-27 -106h-33zM623 182v21h18v39l27 16v-55h24v-21h-24v-90q0 -16 3 -18t11 -2h10l6 -23q-8 -2 -20 -2q-16 0 -23.5 4t-11.5 12q-2 4 -2 31v88 h-18zM784 182v21h25v16q0 23 8 35t35 12q4 0 10 -1t12 -1l-2 -24q-6 2 -16 2q-23 0 -22 -25v-14h30v-21h-30v-133h-25v133h-25zM811 -162h27v-28h-27v28zM866 -47h43l25 -98l27 98h43v-143h-27v112l-29 -112h-28l-27 112v-112h-27v143zM872 889q0 18 17 18q4 0 4 -4 q0 -8 -14 -31q-2 4 -4.5 8.5t-2.5 8.5zM885 106v97h26v-86q0 -29 6.5 -39t24.5 -10q41 0 41 53v82h27v-154h-25v23q-14 -27 -49 -27q-27 0 -39 13.5t-12 47.5zM934 848q0 -10 6 -22.5t23 -12.5q27 0 52 27.5t25 62.5q0 18 -9 26.5t-19 8.5q-20 0 -45 -20.5t-31 -55.5 q-2 -4 -2 -14zM954 559q0 -20 13.5 -35.5t38.5 -15.5q31 0 52 21.5t21 56.5q0 27 -15 41t-38 14q-33 0 -52.5 -23.5t-19.5 -58.5zM969 874q0 6 10 32t35 26q20 -6 20 -31q0 -33 -16.5 -48t-26.5 -15q-4 2 -6 2t-6 2q-10 10 -10 32zM979 561q0 23 13.5 40t31.5 17 q29 0 29 -32q0 -25 -13.5 -41.5t-29.5 -16.5q-12 0 -21.5 9.5t-9.5 23.5zM1018 -190l55 143h31l57 -143h-33l-12 32h-55l-12 -32h-31zM1051 49v213h26v-213h-26zM1051 887q0 -10 3 -28.5t17 -18.5q10 0 16 10q27 25 32 49.5t16 26.5v-10q0 -11 1 -23t5 -22.5t14 -10.5 q14 0 30.5 17.5t26.5 29.5q0 -27 19 -26q14 0 35.5 21.5t21.5 31.5q0 -8 7.5 -20.5t17.5 -12.5t30.5 18.5t28.5 32.5q4 -31 21 -30q12 0 23 8t20.5 18t16.5 19.5t9 11.5v4h-6q-14 -23 -23.5 -28t-13.5 -5q-10 0 -14 27v13t2 16q31 49 54.5 94t23.5 67q0 10 -8 11 q-8 0 -25.5 -13.5t-35 -40t-31 -64.5t-13.5 -89v-10v-3l-10 -10q-4 -6 -10 -13t-15 -7q-10 0 -14 14q-2 12 -4 23q-2 10 -4 17t-4 7q-4 0 -6 -6q-18 -37 -23.5 -50t-21.5 -20q-16 0 -17 17q0 18 8.5 33.5t18.5 25.5t21.5 15.5t15.5 5.5q8 0 9 -1t3 -1q0 2 2 2l2 2q0 4 -12 4 q-29 0 -58.5 -32t-40.5 -66l-8 -11l-11 -11t-13 -7t-7.5 6t-3.5 16v18.5t-1 24t-3 20.5t-6 9t-10 -10q-2 -4 -8 -17.5t-14.5 -29t-15.5 -29.5t-11 -18q-4 0 -9.5 9t-7.5 23q6 12 13.5 24.5t7.5 22.5q0 6 -8 7q-16 0 -28.5 -16.5t-16.5 -41.5v-20zM1069 -133h39l-21 53z M1079 932q0 10 2 19.5t13 9.5q2 0 3 -1.5t3 -1.5q-1 -9 -19 -40q0 4 -1 7t-1 7zM1085 510h27l18 86l35 -86h25l27 129h-25l-18 -88l-35 88h-25zM1116 49v213h27v-213h-27zM1151 -47h29l22 -98l27 98h33l24 -100l23 100h28l-34 -143h-29l-31 106l-26 -106h-31zM1217 510h94 l4 20h-66l23 109h-27zM1249 182v21h25v16q0 23 8 35t33 12q6 0 12 -1t12 -1l-2 -24q-6 2 -16 2q-12 0 -16 -4q-6 -6 -7 -21v-14h31v-21h-31v-133h-24v133h-25zM1327 639l35 -80l-10 -49h26l11 47l59 82h-31l-37 -55l-24 55h-29zM1339 125q0 41 20.5 61.5t51.5 20.5 q33 0 53.5 -20.5t20.5 -57.5q0 -41 -19.5 -62.5t-54.5 -21.5q-33 0 -52.5 20.5t-19.5 59.5zM1354 -47h26l60 -96v96h26v-143h-28l-58 92v-92h-26v143zM1366 125q0 -29 13.5 -43t31.5 -14q21 0 33 14q14 14 14 45q0 57 -47 57q-45 0 -45 -59zM1409 1020q4 57 24.5 102 t36.5 45q4 0 5 -8q-1 -20 -19 -53q-10 -20 -21.5 -41t-25.5 -45zM1489 -143l29 2q2 -27 30 -27q16 0 21.5 6t5.5 12q0 4 -1 8.5t-11 8.5q-41 10 -55.5 18.5t-14.5 28.5q0 23 16.5 32t36.5 9q29 0 41 -12.5t12 -30.5l-26 -2q-6 20 -27 20q-25 0 -24 -14q0 -10 22.5 -14.5 t38.5 -14.5q23 -10 23 -37q0 -18 -14.5 -30.5t-43.5 -12.5q-53 0 -59 50zM1516 49v154h22v-21q18 25 49 25h15.5t17.5 -5t14 -18.5t6 -40.5v-94h-24v94q0 41 -33 41q-16 0 -28.5 -10t-12.5 -41v-84h-26zM1579 973q0 -33 20 -33q18 0 34 15.5t28 37.5v-6q0 -25 12 -24 q16 0 33.5 20.5t32.5 42.5q0 -14 20 -18q29 0 43.5 24.5t16.5 36.5q0 16 -5.5 22.5t-19.5 28.5q4 10 10 21.5t6 17.5t-6 6q-29 0 -39 -17.5t-10 -27.5t3 -15t7 -13l2 -2q-6 -10 -15 -28t-19.5 -35t-21.5 -30.5t-19 -15.5q-4 0 -4 8q0 16 12 62.5t29 93.5q18 55 40 123 q-4 0 -8 2q-12 4 -22 4q-14 0 -23 -2q6 0 6 -10t-5 -31t-11 -45.5t-14.5 -53t-14.5 -55.5l-14 -4q6 0 6 -14q0 -12 -6 -29.5t-15.5 -35t-20.5 -30t-19 -12.5t-9 13q0 16 12.5 52t28 76t28.5 77.5t13 62.5t-18 24q-4 0 -9 -1t-14 -3h2q4 0 5 -8q0 -14 -10.5 -49t-24 -75 t-23.5 -81t-10 -67zM1628 -162h29v-28h-29v28zM1667 182v21h21v39l24 16v-55h27v-21h-27v-90q0 -16 4 -18t10 -2h13l4 -23q-8 -2 -21 -2q-23 0 -28.5 7t-5.5 40v88h-21zM1679 -121q0 35 18.5 55.5t47.5 20.5q45 0 57 -43l-26 -6q-6 25 -31 24q-37 0 -37 -49q0 -29 10.5 -39 t24.5 -10q10 0 20 6q10 10 13 25l28 -10q-16 -45 -61 -46q-29 0 -46.5 19.5t-17.5 52.5zM1741 1028q23 35 28 59q4 -8 8.5 -13t6.5 -15q0 -10 -2 -12q0 -4 -5 -17.5t-22 -13.5q-4 0 -6 6t-6 6h-2zM1784 1141q0 18 14 18q6 0 6 -4q0 -8 -16 -31q-4 12 -4 17zM1823 -119 q0 43 22 58.5t45 15.5q33 0 51.5 -19.5t18.5 -54.5q0 -37 -19.5 -55.5t-48.5 -18.5q-70 0 -69 74zM1839 90q0 20 11.5 29.5t26.5 13.5t33.5 6t35.5 8q0 23 -8.5 30t-28.5 7t-27.5 -6t-11.5 -22l-27 4q4 27 22.5 37t47.5 10q33 0 46 -11.5t13 -45.5v-37q0 -35 1 -44.5 t9 -19.5h-28q-4 4 -4 9t-2 10q-25 -23 -56 -23q-53 0 -53 45zM1843 1102q0 -10 6 -23.5t23 -13.5q12 0 23.5 5t25.5 15q27 18 39 35q6 8 8 13q0 2 -4 2q-25 -25 -37 -36.5t-26 -11.5q-10 0 -15 13q27 35 36 47t13 29q0 18 -14 18q-29 0 -48.5 -28.5t-27.5 -51.5q0 -4 -1 -6 t-1 -6zM1851 -119q0 -49 41 -49q17 0 27 12q12 12 12 37q0 49 -39 49q-41 0 -41 -49zM1866 90q0 -25 32 -24q20 0 34 11t14 40v8q-12 -4 -25.5 -6t-26 -5t-20.5 -8.5t-8 -15.5zM1882 1128q2 23 11.5 40.5t23.5 17.5q12 0 12 -10q0 -12 -10.5 -27t-22.5 -29q-4 -4 -6 -7 t-6 -7q-2 8 -2 22zM1982 -47h43l25 -98l27 98h43v-143h-27v112l-29 -112h-26l-29 112v-112h-27v143zM1999 182v21h20v39l25 16v-55h27v-21h-27v-90q0 -16 4 -18t10 -2h13l4 -23q-8 -2 -21 -2q-27 0 -33 16q-2 4 -2 31v88h-20zM2103 49v29h31v-29h-31zM2103 174v29h31v-29 h-31z" />
<glyph unicode="*" d="M233 154q0 53 30 82.5t79 29.5q39 0 58.5 -17.5t27.5 -45.5l-25 -8q-12 47 -61 47q-41 0 -60.5 -26t-19.5 -60q0 -43 22.5 -64.5t57.5 -21.5q18 0 35.5 7t25.5 15v39h-61v27h90v-80q-45 -33 -90 -33q-51 0 -80 30.5t-29 78.5zM244 -47h30l21 -98l27 98h32l27 -100l22 100 h29l-35 -143h-30l-29 106l-29 -106h-30zM262 459l72 596l317 88l-2 4l33 18l-8 35l35 12l-4 37l32 11v36l37 7l2 34l37 4l6 35h35l10 35l37 -4l12 33l37 -6l17 30l34 -10l19 31l35 -15l20 27l33 -16l25 26l30 -22l27 24l29 -24l28 22l27 -26l31 16l22 -27l33 15l20 -31 l35 10l17 -30l34 6l15 -33l35 4l10 -35h18l576 156l-72 -596l-287 -80l-14 -14l18 -33l-28 -23l14 -32l-31 -21l11 -33l-31 -16l6 -37l-33 -12l4 -37l-35 -8v-37l-34 -8l-4 -35l-35 -2l-6 -37h-37l-10 -35l-35 4l-15 -32l-34 8l-17 -33l-35 12l-20 -30l-33 14l-22 -29 l-31 17l-27 -25l-28 20l-29 -24l-27 24l-30 -20l-25 25l-33 -17l-20 29l-35 -14l-19 30l-34 -12l-17 33l-37 -8l-12 32l-37 -4l-10 35h-35l-6 37l-37 2l-2 35l-37 8l2 35zM389 848q0 -35 31 -35q6 0 22 4q-12 0 -12 31t20.5 69.5t79.5 51.5h11q18 0 26 -13.5t8 -33.5 q0 -39 -23.5 -83t-62.5 -57q12 37 24.5 71t21.5 56l-9 9q-4 4 -9 7t-15 3t-15 -2q4 0 5 -11q0 -16 -9.5 -50t-21.5 -70.5t-21.5 -72.5t-9.5 -58q0 -25 14 -25h7q-2 0 -2 6q0 14 10 50t26 79q66 16 99.5 61.5t33.5 86.5q0 25 -14 41t-45 16h-13t-14 -2q-76 -16 -109.5 -57 t-33.5 -72zM432 -47h29l22 -98l27 98h33l24 -100l23 100h28l-32 -143h-31l-29 106l-28 -106h-31zM461 125q0 39 19.5 60.5t54.5 21.5q29 0 49 -21.5t20 -60.5v-6h-117q6 -51 48 -51q31 0 40 30l29 -4q-16 -49 -69 -49q-35 0 -54.5 20.5t-19.5 59.5zM489 141h86q-2 23 -13 34 t-27 11q-18 0 -30.5 -13t-15.5 -32zM575 760q0 -16 6.5 -27.5t22.5 -11.5q25 0 48.5 20.5t35.5 34.5q4 0 11.5 10.5t14.5 23.5t13 25.5t8 16.5q2 0 6 1t9 1h7t3 -12q-2 -6 -2 -19q0 -23 2 -40t20 -17q20 0 41 24.5t29 32.5l10 13q12 -12 12 -27v-14q0 -8 -4 -17 q-8 -14 -22 -14q-6 0 -8 6t-4 6q-4 0 -5 -2q0 -6 6.5 -12t16.5 -6q12 0 23.5 7t18.5 17.5t11 20.5t4 16q0 8 -2 18.5t-24 32.5q8 10 13 22.5t5 16.5q0 6 -6 6q-29 0 -39 -17t-10 -28q0 -10 3 -15t7 -13l-10 -15h-2l-8 -12q-4 -6 -13.5 -14t-17.5 -8q-6 0 -9 10t-3 24v19v22 t-7 6q-4 0 -20 -2t-25 -2q2 2 2 9q0 8 -6 8q-20 0 -20 -23q0 -8 5 -8h9q0 -2 -1 -3t-1 -5q-35 -66 -60.5 -83.5t-35.5 -17.5t-17 13q16 20 34 39.5t18 38.5q0 4 -3 9t-14 5q-16 0 -30.5 -10.5t-24.5 -25.5t-15.5 -30.5t-5.5 -23.5zM612 776q0 35 13.5 50.5t25.5 15.5 q8 0 8 -11q0 -17 -20 -40q-8 -14 -25 -27q0 4 -1 6t-1 6zM621 -47h28l23 -98l26 98h33l25 -100l22 100h29l-35 -143h-31l-28 106l-27 -106h-33zM623 182v21h18v39l27 16v-55h24v-21h-24v-90q0 -16 3 -18t11 -2h10l6 -23q-8 -2 -20 -2q-16 0 -23.5 4t-11.5 12q-2 4 -2 31v88 h-18zM784 182v21h25v16q0 23 8 35t35 12q4 0 10 -1t12 -1l-2 -24q-6 2 -16 2q-23 0 -22 -25v-14h30v-21h-30v-133h-25v133h-25zM811 -162h27v-28h-27v28zM866 -47h43l25 -98l27 98h43v-143h-27v112l-29 -112h-28l-27 112v-112h-27v143zM872 889q0 18 17 18q4 0 4 -4 q0 -8 -14 -31q-2 4 -4.5 8.5t-2.5 8.5zM885 106v97h26v-86q0 -29 6.5 -39t24.5 -10q41 0 41 53v82h27v-154h-25v23q-14 -27 -49 -27q-27 0 -39 13.5t-12 47.5zM934 848q0 -10 6 -22.5t23 -12.5q27 0 52 27.5t25 62.5q0 18 -9 26.5t-19 8.5q-20 0 -45 -20.5t-31 -55.5 q-2 -4 -2 -14zM954 559q0 -20 13.5 -35.5t38.5 -15.5q31 0 52 21.5t21 56.5q0 27 -15 41t-38 14q-33 0 -52.5 -23.5t-19.5 -58.5zM969 874q0 6 10 32t35 26q20 -6 20 -31q0 -33 -16.5 -48t-26.5 -15q-4 2 -6 2t-6 2q-10 10 -10 32zM979 561q0 23 13.5 40t31.5 17 q29 0 29 -32q0 -25 -13.5 -41.5t-29.5 -16.5q-12 0 -21.5 9.5t-9.5 23.5zM1018 -190l55 143h31l57 -143h-33l-12 32h-55l-12 -32h-31zM1051 49v213h26v-213h-26zM1051 887q0 -10 3 -28.5t17 -18.5q10 0 16 10q27 25 32 49.5t16 26.5v-10q0 -11 1 -23t5 -22.5t14 -10.5 q14 0 30.5 17.5t26.5 29.5q0 -27 19 -26q14 0 35.5 21.5t21.5 31.5q0 -8 7.5 -20.5t17.5 -12.5t30.5 18.5t28.5 32.5q4 -31 21 -30q12 0 23 8t20.5 18t16.5 19.5t9 11.5v4h-6q-14 -23 -23.5 -28t-13.5 -5q-10 0 -14 27v13t2 16q31 49 54.5 94t23.5 67q0 10 -8 11 q-8 0 -25.5 -13.5t-35 -40t-31 -64.5t-13.5 -89v-10v-3l-10 -10q-4 -6 -10 -13t-15 -7q-10 0 -14 14q-2 12 -4 23q-2 10 -4 17t-4 7q-4 0 -6 -6q-18 -37 -23.5 -50t-21.5 -20q-16 0 -17 17q0 18 8.5 33.5t18.5 25.5t21.5 15.5t15.5 5.5q8 0 9 -1t3 -1q0 2 2 2l2 2q0 4 -12 4 q-29 0 -58.5 -32t-40.5 -66l-8 -11l-11 -11t-13 -7t-7.5 6t-3.5 16v18.5t-1 24t-3 20.5t-6 9t-10 -10q-2 -4 -8 -17.5t-14.5 -29t-15.5 -29.5t-11 -18q-4 0 -9.5 9t-7.5 23q6 12 13.5 24.5t7.5 22.5q0 6 -8 7q-16 0 -28.5 -16.5t-16.5 -41.5v-20zM1069 -133h39l-21 53z M1079 932q0 10 2 19.5t13 9.5q2 0 3 -1.5t3 -1.5q-1 -9 -19 -40q0 4 -1 7t-1 7zM1085 510h27l18 86l35 -86h25l27 129h-25l-18 -88l-35 88h-25zM1116 49v213h27v-213h-27zM1151 -47h29l22 -98l27 98h33l24 -100l23 100h28l-34 -143h-29l-31 106l-26 -106h-31zM1217 510h94 l4 20h-66l23 109h-27zM1249 182v21h25v16q0 23 8 35t33 12q6 0 12 -1t12 -1l-2 -24q-6 2 -16 2q-12 0 -16 -4q-6 -6 -7 -21v-14h31v-21h-31v-133h-24v133h-25zM1327 639l35 -80l-10 -49h26l11 47l59 82h-31l-37 -55l-24 55h-29zM1339 125q0 41 20.5 61.5t51.5 20.5 q33 0 53.5 -20.5t20.5 -57.5q0 -41 -19.5 -62.5t-54.5 -21.5q-33 0 -52.5 20.5t-19.5 59.5zM1354 -47h26l60 -96v96h26v-143h-28l-58 92v-92h-26v143zM1366 125q0 -29 13.5 -43t31.5 -14q21 0 33 14q14 14 14 45q0 57 -47 57q-45 0 -45 -59zM1409 1020q4 57 24.5 102 t36.5 45q4 0 5 -8q-1 -20 -19 -53q-10 -20 -21.5 -41t-25.5 -45zM1489 -143l29 2q2 -27 30 -27q16 0 21.5 6t5.5 12q0 4 -1 8.5t-11 8.5q-41 10 -55.5 18.5t-14.5 28.5q0 23 16.5 32t36.5 9q29 0 41 -12.5t12 -30.5l-26 -2q-6 20 -27 20q-25 0 -24 -14q0 -10 22.5 -14.5 t38.5 -14.5q23 -10 23 -37q0 -18 -14.5 -30.5t-43.5 -12.5q-53 0 -59 50zM1516 49v154h22v-21q18 25 49 25h15.5t17.5 -5t14 -18.5t6 -40.5v-94h-24v94q0 41 -33 41q-16 0 -28.5 -10t-12.5 -41v-84h-26zM1579 973q0 -33 20 -33q18 0 34 15.5t28 37.5v-6q0 -25 12 -24 q16 0 33.5 20.5t32.5 42.5q0 -14 20 -18q29 0 43.5 24.5t16.5 36.5q0 16 -5.5 22.5t-19.5 28.5q4 10 10 21.5t6 17.5t-6 6q-29 0 -39 -17.5t-10 -27.5t3 -15t7 -13l2 -2q-6 -10 -15 -28t-19.5 -35t-21.5 -30.5t-19 -15.5q-4 0 -4 8q0 16 12 62.5t29 93.5q18 55 40 123 q-4 0 -8 2q-12 4 -22 4q-14 0 -23 -2q6 0 6 -10t-5 -31t-11 -45.5t-14.5 -53t-14.5 -55.5l-14 -4q6 0 6 -14q0 -12 -6 -29.5t-15.5 -35t-20.5 -30t-19 -12.5t-9 13q0 16 12.5 52t28 76t28.5 77.5t13 62.5t-18 24q-4 0 -9 -1t-14 -3h2q4 0 5 -8q0 -14 -10.5 -49t-24 -75 t-23.5 -81t-10 -67zM1628 -162h29v-28h-29v28zM1667 182v21h21v39l24 16v-55h27v-21h-27v-90q0 -16 4 -18t10 -2h13l4 -23q-8 -2 -21 -2q-23 0 -28.5 7t-5.5 40v88h-21zM1679 -121q0 35 18.5 55.5t47.5 20.5q45 0 57 -43l-26 -6q-6 25 -31 24q-37 0 -37 -49q0 -29 10.5 -39 t24.5 -10q10 0 20 6q10 10 13 25l28 -10q-16 -45 -61 -46q-29 0 -46.5 19.5t-17.5 52.5zM1741 1028q23 35 28 59q4 -8 8.5 -13t6.5 -15q0 -10 -2 -12q0 -4 -5 -17.5t-22 -13.5q-4 0 -6 6t-6 6h-2zM1784 1141q0 18 14 18q6 0 6 -4q0 -8 -16 -31q-4 12 -4 17zM1823 -119 q0 43 22 58.5t45 15.5q33 0 51.5 -19.5t18.5 -54.5q0 -37 -19.5 -55.5t-48.5 -18.5q-70 0 -69 74zM1839 90q0 20 11.5 29.5t26.5 13.5t33.5 6t35.5 8q0 23 -8.5 30t-28.5 7t-27.5 -6t-11.5 -22l-27 4q4 27 22.5 37t47.5 10q33 0 46 -11.5t13 -45.5v-37q0 -35 1 -44.5 t9 -19.5h-28q-4 4 -4 9t-2 10q-25 -23 -56 -23q-53 0 -53 45zM1843 1102q0 -10 6 -23.5t23 -13.5q12 0 23.5 5t25.5 15q27 18 39 35q6 8 8 13q0 2 -4 2q-25 -25 -37 -36.5t-26 -11.5q-10 0 -15 13q27 35 36 47t13 29q0 18 -14 18q-29 0 -48.5 -28.5t-27.5 -51.5q0 -4 -1 -6 t-1 -6zM1851 -119q0 -49 41 -49q17 0 27 12q12 12 12 37q0 49 -39 49q-41 0 -41 -49zM1866 90q0 -25 32 -24q20 0 34 11t14 40v8q-12 -4 -25.5 -6t-26 -5t-20.5 -8.5t-8 -15.5zM1882 1128q2 23 11.5 40.5t23.5 17.5q12 0 12 -10q0 -12 -10.5 -27t-22.5 -29q-4 -4 -6 -7 t-6 -7q-2 8 -2 22zM1982 -47h43l25 -98l27 98h43v-143h-27v112l-29 -112h-26l-29 112v-112h-27v143zM1999 182v21h20v39l25 16v-55h27v-21h-27v-90q0 -16 4 -18t10 -2h13l4 -23q-8 -2 -21 -2q-27 0 -33 16q-2 4 -2 31v88h-20zM2103 49v29h31v-29h-31zM2103 174v29h31v-29 h-31z" />
<glyph unicode="+" d="M233 154q0 53 30 82.5t79 29.5q39 0 58.5 -17.5t27.5 -45.5l-25 -8q-12 47 -61 47q-41 0 -60.5 -26t-19.5 -60q0 -43 22.5 -64.5t57.5 -21.5q18 0 35.5 7t25.5 15v39h-61v27h90v-80q-45 -33 -90 -33q-51 0 -80 30.5t-29 78.5zM244 -47h30l21 -98l27 98h32l27 -100l22 100 h29l-35 -143h-30l-29 106l-29 -106h-30zM262 459l72 596l317 88l-2 4l33 18l-8 35l35 12l-4 37l32 11v36l37 7l2 34l37 4l6 35h35l10 35l37 -4l12 33l37 -6l17 30l34 -10l19 31l35 -15l20 27l33 -16l25 26l30 -22l27 24l29 -24l28 22l27 -26l31 16l22 -27l33 15l20 -31 l35 10l17 -30l34 6l15 -33l35 4l10 -35h18l576 156l-72 -596l-287 -80l-14 -14l18 -33l-28 -23l14 -32l-31 -21l11 -33l-31 -16l6 -37l-33 -12l4 -37l-35 -8v-37l-34 -8l-4 -35l-35 -2l-6 -37h-37l-10 -35l-35 4l-15 -32l-34 8l-17 -33l-35 12l-20 -30l-33 14l-22 -29 l-31 17l-27 -25l-28 20l-29 -24l-27 24l-30 -20l-25 25l-33 -17l-20 29l-35 -14l-19 30l-34 -12l-17 33l-37 -8l-12 32l-37 -4l-10 35h-35l-6 37l-37 2l-2 35l-37 8l2 35zM389 848q0 -35 31 -35q6 0 22 4q-12 0 -12 31t20.5 69.5t79.5 51.5h11q18 0 26 -13.5t8 -33.5 q0 -39 -23.5 -83t-62.5 -57q12 37 24.5 71t21.5 56l-9 9q-4 4 -9 7t-15 3t-15 -2q4 0 5 -11q0 -16 -9.5 -50t-21.5 -70.5t-21.5 -72.5t-9.5 -58q0 -25 14 -25h7q-2 0 -2 6q0 14 10 50t26 79q66 16 99.5 61.5t33.5 86.5q0 25 -14 41t-45 16h-13t-14 -2q-76 -16 -109.5 -57 t-33.5 -72zM432 -47h29l22 -98l27 98h33l24 -100l23 100h28l-32 -143h-31l-29 106l-28 -106h-31zM461 125q0 39 19.5 60.5t54.5 21.5q29 0 49 -21.5t20 -60.5v-6h-117q6 -51 48 -51q31 0 40 30l29 -4q-16 -49 -69 -49q-35 0 -54.5 20.5t-19.5 59.5zM489 141h86q-2 23 -13 34 t-27 11q-18 0 -30.5 -13t-15.5 -32zM575 760q0 -16 6.5 -27.5t22.5 -11.5q25 0 48.5 20.5t35.5 34.5q4 0 11.5 10.5t14.5 23.5t13 25.5t8 16.5q2 0 6 1t9 1h7t3 -12q-2 -6 -2 -19q0 -23 2 -40t20 -17q20 0 41 24.5t29 32.5l10 13q12 -12 12 -27v-14q0 -8 -4 -17 q-8 -14 -22 -14q-6 0 -8 6t-4 6q-4 0 -5 -2q0 -6 6.5 -12t16.5 -6q12 0 23.5 7t18.5 17.5t11 20.5t4 16q0 8 -2 18.5t-24 32.5q8 10 13 22.5t5 16.5q0 6 -6 6q-29 0 -39 -17t-10 -28q0 -10 3 -15t7 -13l-10 -15h-2l-8 -12q-4 -6 -13.5 -14t-17.5 -8q-6 0 -9 10t-3 24v19v22 t-7 6q-4 0 -20 -2t-25 -2q2 2 2 9q0 8 -6 8q-20 0 -20 -23q0 -8 5 -8h9q0 -2 -1 -3t-1 -5q-35 -66 -60.5 -83.5t-35.5 -17.5t-17 13q16 20 34 39.5t18 38.5q0 4 -3 9t-14 5q-16 0 -30.5 -10.5t-24.5 -25.5t-15.5 -30.5t-5.5 -23.5zM612 776q0 35 13.5 50.5t25.5 15.5 q8 0 8 -11q0 -17 -20 -40q-8 -14 -25 -27q0 4 -1 6t-1 6zM621 -47h28l23 -98l26 98h33l25 -100l22 100h29l-35 -143h-31l-28 106l-27 -106h-33zM623 182v21h18v39l27 16v-55h24v-21h-24v-90q0 -16 3 -18t11 -2h10l6 -23q-8 -2 -20 -2q-16 0 -23.5 4t-11.5 12q-2 4 -2 31v88 h-18zM784 182v21h25v16q0 23 8 35t35 12q4 0 10 -1t12 -1l-2 -24q-6 2 -16 2q-23 0 -22 -25v-14h30v-21h-30v-133h-25v133h-25zM811 -162h27v-28h-27v28zM866 -47h43l25 -98l27 98h43v-143h-27v112l-29 -112h-28l-27 112v-112h-27v143zM872 889q0 18 17 18q4 0 4 -4 q0 -8 -14 -31q-2 4 -4.5 8.5t-2.5 8.5zM885 106v97h26v-86q0 -29 6.5 -39t24.5 -10q41 0 41 53v82h27v-154h-25v23q-14 -27 -49 -27q-27 0 -39 13.5t-12 47.5zM934 848q0 -10 6 -22.5t23 -12.5q27 0 52 27.5t25 62.5q0 18 -9 26.5t-19 8.5q-20 0 -45 -20.5t-31 -55.5 q-2 -4 -2 -14zM954 559q0 -20 13.5 -35.5t38.5 -15.5q31 0 52 21.5t21 56.5q0 27 -15 41t-38 14q-33 0 -52.5 -23.5t-19.5 -58.5zM969 874q0 6 10 32t35 26q20 -6 20 -31q0 -33 -16.5 -48t-26.5 -15q-4 2 -6 2t-6 2q-10 10 -10 32zM979 561q0 23 13.5 40t31.5 17 q29 0 29 -32q0 -25 -13.5 -41.5t-29.5 -16.5q-12 0 -21.5 9.5t-9.5 23.5zM1018 -190l55 143h31l57 -143h-33l-12 32h-55l-12 -32h-31zM1051 49v213h26v-213h-26zM1051 887q0 -10 3 -28.5t17 -18.5q10 0 16 10q27 25 32 49.5t16 26.5v-10q0 -11 1 -23t5 -22.5t14 -10.5 q14 0 30.5 17.5t26.5 29.5q0 -27 19 -26q14 0 35.5 21.5t21.5 31.5q0 -8 7.5 -20.5t17.5 -12.5t30.5 18.5t28.5 32.5q4 -31 21 -30q12 0 23 8t20.5 18t16.5 19.5t9 11.5v4h-6q-14 -23 -23.5 -28t-13.5 -5q-10 0 -14 27v13t2 16q31 49 54.5 94t23.5 67q0 10 -8 11 q-8 0 -25.5 -13.5t-35 -40t-31 -64.5t-13.5 -89v-10v-3l-10 -10q-4 -6 -10 -13t-15 -7q-10 0 -14 14q-2 12 -4 23q-2 10 -4 17t-4 7q-4 0 -6 -6q-18 -37 -23.5 -50t-21.5 -20q-16 0 -17 17q0 18 8.5 33.5t18.5 25.5t21.5 15.5t15.5 5.5q8 0 9 -1t3 -1q0 2 2 2l2 2q0 4 -12 4 q-29 0 -58.5 -32t-40.5 -66l-8 -11l-11 -11t-13 -7t-7.5 6t-3.5 16v18.5t-1 24t-3 20.5t-6 9t-10 -10q-2 -4 -8 -17.5t-14.5 -29t-15.5 -29.5t-11 -18q-4 0 -9.5 9t-7.5 23q6 12 13.5 24.5t7.5 22.5q0 6 -8 7q-16 0 -28.5 -16.5t-16.5 -41.5v-20zM1069 -133h39l-21 53z M1079 932q0 10 2 19.5t13 9.5q2 0 3 -1.5t3 -1.5q-1 -9 -19 -40q0 4 -1 7t-1 7zM1085 510h27l18 86l35 -86h25l27 129h-25l-18 -88l-35 88h-25zM1116 49v213h27v-213h-27zM1151 -47h29l22 -98l27 98h33l24 -100l23 100h28l-34 -143h-29l-31 106l-26 -106h-31zM1217 510h94 l4 20h-66l23 109h-27zM1249 182v21h25v16q0 23 8 35t33 12q6 0 12 -1t12 -1l-2 -24q-6 2 -16 2q-12 0 -16 -4q-6 -6 -7 -21v-14h31v-21h-31v-133h-24v133h-25zM1327 639l35 -80l-10 -49h26l11 47l59 82h-31l-37 -55l-24 55h-29zM1339 125q0 41 20.5 61.5t51.5 20.5 q33 0 53.5 -20.5t20.5 -57.5q0 -41 -19.5 -62.5t-54.5 -21.5q-33 0 -52.5 20.5t-19.5 59.5zM1354 -47h26l60 -96v96h26v-143h-28l-58 92v-92h-26v143zM1366 125q0 -29 13.5 -43t31.5 -14q21 0 33 14q14 14 14 45q0 57 -47 57q-45 0 -45 -59zM1409 1020q4 57 24.5 102 t36.5 45q4 0 5 -8q-1 -20 -19 -53q-10 -20 -21.5 -41t-25.5 -45zM1489 -143l29 2q2 -27 30 -27q16 0 21.5 6t5.5 12q0 4 -1 8.5t-11 8.5q-41 10 -55.5 18.5t-14.5 28.5q0 23 16.5 32t36.5 9q29 0 41 -12.5t12 -30.5l-26 -2q-6 20 -27 20q-25 0 -24 -14q0 -10 22.5 -14.5 t38.5 -14.5q23 -10 23 -37q0 -18 -14.5 -30.5t-43.5 -12.5q-53 0 -59 50zM1516 49v154h22v-21q18 25 49 25h15.5t17.5 -5t14 -18.5t6 -40.5v-94h-24v94q0 41 -33 41q-16 0 -28.5 -10t-12.5 -41v-84h-26zM1579 973q0 -33 20 -33q18 0 34 15.5t28 37.5v-6q0 -25 12 -24 q16 0 33.5 20.5t32.5 42.5q0 -14 20 -18q29 0 43.5 24.5t16.5 36.5q0 16 -5.5 22.5t-19.5 28.5q4 10 10 21.5t6 17.5t-6 6q-29 0 -39 -17.5t-10 -27.5t3 -15t7 -13l2 -2q-6 -10 -15 -28t-19.5 -35t-21.5 -30.5t-19 -15.5q-4 0 -4 8q0 16 12 62.5t29 93.5q18 55 40 123 q-4 0 -8 2q-12 4 -22 4q-14 0 -23 -2q6 0 6 -10t-5 -31t-11 -45.5t-14.5 -53t-14.5 -55.5l-14 -4q6 0 6 -14q0 -12 -6 -29.5t-15.5 -35t-20.5 -30t-19 -12.5t-9 13q0 16 12.5 52t28 76t28.5 77.5t13 62.5t-18 24q-4 0 -9 -1t-14 -3h2q4 0 5 -8q0 -14 -10.5 -49t-24 -75 t-23.5 -81t-10 -67zM1628 -162h29v-28h-29v28zM1667 182v21h21v39l24 16v-55h27v-21h-27v-90q0 -16 4 -18t10 -2h13l4 -23q-8 -2 -21 -2q-23 0 -28.5 7t-5.5 40v88h-21zM1679 -121q0 35 18.5 55.5t47.5 20.5q45 0 57 -43l-26 -6q-6 25 -31 24q-37 0 -37 -49q0 -29 10.5 -39 t24.5 -10q10 0 20 6q10 10 13 25l28 -10q-16 -45 -61 -46q-29 0 -46.5 19.5t-17.5 52.5zM1741 1028q23 35 28 59q4 -8 8.5 -13t6.5 -15q0 -10 -2 -12q0 -4 -5 -17.5t-22 -13.5q-4 0 -6 6t-6 6h-2zM1784 1141q0 18 14 18q6 0 6 -4q0 -8 -16 -31q-4 12 -4 17zM1823 -119 q0 43 22 58.5t45 15.5q33 0 51.5 -19.5t18.5 -54.5q0 -37 -19.5 -55.5t-48.5 -18.5q-70 0 -69 74zM1839 90q0 20 11.5 29.5t26.5 13.5t33.5 6t35.5 8q0 23 -8.5 30t-28.5 7t-27.5 -6t-11.5 -22l-27 4q4 27 22.5 37t47.5 10q33 0 46 -11.5t13 -45.5v-37q0 -35 1 -44.5 t9 -19.5h-28q-4 4 -4 9t-2 10q-25 -23 -56 -23q-53 0 -53 45zM1843 1102q0 -10 6 -23.5t23 -13.5q12 0 23.5 5t25.5 15q27 18 39 35q6 8 8 13q0 2 -4 2q-25 -25 -37 -36.5t-26 -11.5q-10 0 -15 13q27 35 36 47t13 29q0 18 -14 18q-29 0 -48.5 -28.5t-27.5 -51.5q0 -4 -1 -6 t-1 -6zM1851 -119q0 -49 41 -49q17 0 27 12q12 12 12 37q0 49 -39 49q-41 0 -41 -49zM1866 90q0 -25 32 -24q20 0 34 11t14 40v8q-12 -4 -25.5 -6t-26 -5t-20.5 -8.5t-8 -15.5zM1882 1128q2 23 11.5 40.5t23.5 17.5q12 0 12 -10q0 -12 -10.5 -27t-22.5 -29q-4 -4 -6 -7 t-6 -7q-2 8 -2 22zM1982 -47h43l25 -98l27 98h43v-143h-27v112l-29 -112h-26l-29 112v-112h-27v143zM1999 182v21h20v39l25 16v-55h27v-21h-27v-90q0 -16 4 -18t10 -2h13l4 -23q-8 -2 -21 -2q-27 0 -33 16q-2 4 -2 31v88h-20zM2103 49v29h31v-29h-31zM2103 174v29h31v-29 h-31z" />
<glyph unicode="," horiz-adv-x="348" d="M-125 -133q10 20 24.5 45t26.5 47q14 25 29 51q-18 16 -14 49q4 29 25.5 74t82.5 115q29 0 60.5 -8.5t53 -26.5t26 -49t-19.5 -74t-83 -101.5t-166 -133.5q-29 -6 -45 12z" />
<glyph unicode="-" horiz-adv-x="636" d="M178 457q-14 66 9.5 94.5t66.5 36.5t98.5 4t104.5 -6t82.5 5t35.5 40q10 -49 0 -87t-26 -65q-20 -31 -47 -53q-41 8 -98.5 24.5t-108.5 26.5t-86 8t-31 -28z" />
<glyph unicode="." horiz-adv-x="327" d="M-47 19.5q-10 27.5 8.5 83t75.5 145.5q37 0 75 -12.5t55 -42t1 -77.5t-88 -120q-49 -12 -83 -8t-44 31.5z" />
<glyph unicode="/" horiz-adv-x="1101" d="M-84 -236q-35 31 7 115t133 202t218 259t261.5 286.5t263.5 284t224 251t142.5 188.5t20.5 96q57 10 96 4t64 -18q29 -14 45 -35q-43 -63 -131.5 -163.5t-203 -222.5t-246.5 -257.5t-261 -268.5t-248 -257t-207 -221t-137 -162.5t-41 -80.5z" />
<glyph unicode="0" horiz-adv-x="1136" d="M59.5 581.5q14.5 80.5 59.5 166.5t105.5 174t111.5 163.5t77.5 134t4.5 87.5q86 -55 115.5 -109.5t18.5 -109t-53 -109.5t-97.5 -109.5t-116 -108.5t-108.5 -107.5t-74.5 -107t-14.5 -106.5q-43 61 -28.5 141.5zM88 438q-14 57 19.5 112.5t96 109t146.5 103.5t171 97 t167 91t137.5 82t82 72t-0.5 60q135 -76 170 -134t1 -104t-122 -84t-200.5 -73t-232.5 -68.5t-219 -72.5t-160.5 -85.5t-55.5 -105.5zM88 440q-8 59 41 83t131 29t184.5 0t198.5 -3t174 20.5t113 71.5q20 -117 -2.5 -180.5t-75.5 -89t-128 -20.5t-158 24.5t-165 45 t-148.5 41t-111.5 14.5t-53 -36z" />
<glyph unicode="1" horiz-adv-x="6" d="M-1526 -414q-25 123 40 183.5t188.5 81t291.5 10t349.5 -30.5t360.5 -39.5t325.5 -17.5t244 34.5t115.5 118.5q-8 -76 -64.5 -126t-146.5 -79.5t-206.5 -43t-247 -16.5t-268.5 1t-271 8t-254 6t-216 -5t-159 -26.5t-82 -58.5z" />
<glyph unicode="2" horiz-adv-x="6" d="M-2888 -401q-20 98 56.5 155.5t223 85t350.5 31.5t437.5 -6t484.5 -28.5t491.5 -35t457.5 -24.5t385 2t272.5 45t118.5 102q-8 -76 -102 -126t-250 -78.5t-359.5 -42t-432 -15.5t-470 3t-473 11.5t-439.5 8.5t-368.5 -4.5t-262.5 -25.5t-120 -58z" />
<glyph unicode="3" horiz-adv-x="6" d="M-3557 -383q-47 104 32.5 164.5t249.5 89.5t415 32t529.5 -9.5t592.5 -34t606 -41t567.5 -30.5t476.5 -3t335 41t142 100q-8 -68 -120.5 -112.5t-300 -72.5t-434.5 -41t-525.5 -17.5t-571 -2t-572.5 5.5t-530.5 4t-443 -4t-312.5 -21.5t-136 -47.5z" />
<glyph unicode="4" horiz-adv-x="212" d="M-2511 -387q-23 102 18.5 160.5t129.5 85t215 26.5t279.5 -16t320.5 -42t336 -50.5t329.5 -42t300.5 -17.5q133 0 206 35t101.5 91.5t21.5 126t-32 136.5l133 130q55 -70 65.5 -167.5t-36.5 -186.5t-158.5 -151.5t-300.5 -62.5q-258 0 -494.5 4t-444.5 7.5t-380 3.5 t-301 -6.5t-208.5 -20.5t-100.5 -43z" />
<glyph unicode="5" horiz-adv-x="212" d="M-3971 -387q-18 82 46.5 135t190 84t303 43t388.5 9t444.5 -16t470 -31.5t465.5 -39t433 -39t371 -30t277 -11.5q133 0 206 35t101.5 91.5t21.5 126t-32 136.5l133 130q55 -70 65.5 -167.5t-36.5 -186.5t-158.5 -151.5t-300.5 -62.5q-193 0 -437.5 2t-513.5 5t-550.5 5.5 t-547 2.5t-502 -3.5t-417.5 -10.5t-293 -21.5t-128 -34.5z" />
<glyph unicode="6" horiz-adv-x="212" d="M-5588 -263q73 50 257 78.5t461.5 40t611.5 9.5t705.5 -13.5t742.5 -28t724 -34.5t650 -34.5t520.5 -27t333.5 -10.5q133 0 206 35t101.5 91.5t21.5 126t-32 136.5l133 130q55 -70 65.5 -167.5t-36.5 -186.5t-158.5 -151.5t-300.5 -62.5q-154 0 -388 1t-520 3t-610.5 5.5 t-662.5 4.5t-674.5 1t-646 -2.5t-578 -6.5t-469 -12t-321.5 -20.5t-133 -28.5q-76 74 -3 124z" />
<glyph unicode="7" horiz-adv-x="442" d="M-2112.5 -203.5q23.5 56.5 102.5 61.5t207 -25t290.5 -67.5t355 -70.5t401.5 -33q193 0 337.5 41t246.5 107.5t165.5 151.5t98.5 175t43 176t-1 156t-32.5 114t-54.5 48q63 45 120.5 24.5t93.5 -83t46 -158t-17.5 -202t-99 -212.5t-199.5 -191t-318.5 -138.5 t-454.5 -53.5q-295 0 -504 8t-358.5 13.5t-255 1t-191.5 -30.5q-45 131 -21.5 187.5z" />
<glyph unicode="8" horiz-adv-x="442" d="M-4146 -276.5q44 63.5 157.5 99.5t285.5 48t381 8t445.5 -22.5t480.5 -42t483.5 -50t455.5 -50t396 -38t305 -14.5q193 0 337.5 41t246.5 107.5t165.5 151.5t98.5 175t43 176t-1 156t-32.5 114t-54.5 48q63 45 120.5 24.5t93.5 -83t46 -158t-17.5 -202t-99 -212.5 t-199.5 -191t-318.5 -138.5t-454.5 -53.5q-248 0 -523.5 6t-558 14.5t-562 16.5t-532.5 12t-470 3t-377 -12t-250 -33.5t-90 -61.5q-45 98 -1 161.5z" />
<glyph unicode="9" horiz-adv-x="442" d="M-5661 -438q-45 98 42 161.5t272.5 99.5t455 48t588 8t670.5 -22.5t704.5 -42t689 -50t624.5 -50t511 -38t348 -14.5q193 0 337.5 41t246.5 107.5t165.5 151.5t98.5 175t43 176t-1 156t-32.5 114t-54.5 48q63 45 120.5 24.5t93.5 -83t46 -158t-17.5 -202t-99 -212.5 t-199.5 -191t-318.5 -138.5t-454.5 -53.5q-199 0 -458 4t-556 10.5t-621.5 12.5t-652.5 12t-646.5 10t-607 4t-533.5 -6t-423 -18.5t-279.5 -33t-101.5 -50.5z" />
<glyph unicode=":" d="M233 154q0 53 30 82.5t79 29.5q39 0 58.5 -17.5t27.5 -45.5l-25 -8q-12 47 -61 47q-41 0 -60.5 -26t-19.5 -60q0 -43 22.5 -64.5t57.5 -21.5q18 0 35.5 7t25.5 15v39h-61v27h90v-80q-45 -33 -90 -33q-51 0 -80 30.5t-29 78.5zM244 -47h30l21 -98l27 98h32l27 -100l22 100 h29l-35 -143h-30l-29 106l-29 -106h-30zM262 459l72 596l317 88l-2 4l33 18l-8 35l35 12l-4 37l32 11v36l37 7l2 34l37 4l6 35h35l10 35l37 -4l12 33l37 -6l17 30l34 -10l19 31l35 -15l20 27l33 -16l25 26l30 -22l27 24l29 -24l28 22l27 -26l31 16l22 -27l33 15l20 -31 l35 10l17 -30l34 6l15 -33l35 4l10 -35h18l576 156l-72 -596l-287 -80l-14 -14l18 -33l-28 -23l14 -32l-31 -21l11 -33l-31 -16l6 -37l-33 -12l4 -37l-35 -8v-37l-34 -8l-4 -35l-35 -2l-6 -37h-37l-10 -35l-35 4l-15 -32l-34 8l-17 -33l-35 12l-20 -30l-33 14l-22 -29 l-31 17l-27 -25l-28 20l-29 -24l-27 24l-30 -20l-25 25l-33 -17l-20 29l-35 -14l-19 30l-34 -12l-17 33l-37 -8l-12 32l-37 -4l-10 35h-35l-6 37l-37 2l-2 35l-37 8l2 35zM389 848q0 -35 31 -35q6 0 22 4q-12 0 -12 31t20.5 69.5t79.5 51.5h11q18 0 26 -13.5t8 -33.5 q0 -39 -23.5 -83t-62.5 -57q12 37 24.5 71t21.5 56l-9 9q-4 4 -9 7t-15 3t-15 -2q4 0 5 -11q0 -16 -9.5 -50t-21.5 -70.5t-21.5 -72.5t-9.5 -58q0 -25 14 -25h7q-2 0 -2 6q0 14 10 50t26 79q66 16 99.5 61.5t33.5 86.5q0 25 -14 41t-45 16h-13t-14 -2q-76 -16 -109.5 -57 t-33.5 -72zM432 -47h29l22 -98l27 98h33l24 -100l23 100h28l-32 -143h-31l-29 106l-28 -106h-31zM461 125q0 39 19.5 60.5t54.5 21.5q29 0 49 -21.5t20 -60.5v-6h-117q6 -51 48 -51q31 0 40 30l29 -4q-16 -49 -69 -49q-35 0 -54.5 20.5t-19.5 59.5zM489 141h86q-2 23 -13 34 t-27 11q-18 0 -30.5 -13t-15.5 -32zM575 760q0 -16 6.5 -27.5t22.5 -11.5q25 0 48.5 20.5t35.5 34.5q4 0 11.5 10.5t14.5 23.5t13 25.5t8 16.5q2 0 6 1t9 1h7t3 -12q-2 -6 -2 -19q0 -23 2 -40t20 -17q20 0 41 24.5t29 32.5l10 13q12 -12 12 -27v-14q0 -8 -4 -17 q-8 -14 -22 -14q-6 0 -8 6t-4 6q-4 0 -5 -2q0 -6 6.5 -12t16.5 -6q12 0 23.5 7t18.5 17.5t11 20.5t4 16q0 8 -2 18.5t-24 32.5q8 10 13 22.5t5 16.5q0 6 -6 6q-29 0 -39 -17t-10 -28q0 -10 3 -15t7 -13l-10 -15h-2l-8 -12q-4 -6 -13.5 -14t-17.5 -8q-6 0 -9 10t-3 24v19v22 t-7 6q-4 0 -20 -2t-25 -2q2 2 2 9q0 8 -6 8q-20 0 -20 -23q0 -8 5 -8h9q0 -2 -1 -3t-1 -5q-35 -66 -60.5 -83.5t-35.5 -17.5t-17 13q16 20 34 39.5t18 38.5q0 4 -3 9t-14 5q-16 0 -30.5 -10.5t-24.5 -25.5t-15.5 -30.5t-5.5 -23.5zM612 776q0 35 13.5 50.5t25.5 15.5 q8 0 8 -11q0 -17 -20 -40q-8 -14 -25 -27q0 4 -1 6t-1 6zM621 -47h28l23 -98l26 98h33l25 -100l22 100h29l-35 -143h-31l-28 106l-27 -106h-33zM623 182v21h18v39l27 16v-55h24v-21h-24v-90q0 -16 3 -18t11 -2h10l6 -23q-8 -2 -20 -2q-16 0 -23.5 4t-11.5 12q-2 4 -2 31v88 h-18zM784 182v21h25v16q0 23 8 35t35 12q4 0 10 -1t12 -1l-2 -24q-6 2 -16 2q-23 0 -22 -25v-14h30v-21h-30v-133h-25v133h-25zM811 -162h27v-28h-27v28zM866 -47h43l25 -98l27 98h43v-143h-27v112l-29 -112h-28l-27 112v-112h-27v143zM872 889q0 18 17 18q4 0 4 -4 q0 -8 -14 -31q-2 4 -4.5 8.5t-2.5 8.5zM885 106v97h26v-86q0 -29 6.5 -39t24.5 -10q41 0 41 53v82h27v-154h-25v23q-14 -27 -49 -27q-27 0 -39 13.5t-12 47.5zM934 848q0 -10 6 -22.5t23 -12.5q27 0 52 27.5t25 62.5q0 18 -9 26.5t-19 8.5q-20 0 -45 -20.5t-31 -55.5 q-2 -4 -2 -14zM954 559q0 -20 13.5 -35.5t38.5 -15.5q31 0 52 21.5t21 56.5q0 27 -15 41t-38 14q-33 0 -52.5 -23.5t-19.5 -58.5zM969 874q0 6 10 32t35 26q20 -6 20 -31q0 -33 -16.5 -48t-26.5 -15q-4 2 -6 2t-6 2q-10 10 -10 32zM979 561q0 23 13.5 40t31.5 17 q29 0 29 -32q0 -25 -13.5 -41.5t-29.5 -16.5q-12 0 -21.5 9.5t-9.5 23.5zM1018 -190l55 143h31l57 -143h-33l-12 32h-55l-12 -32h-31zM1051 49v213h26v-213h-26zM1051 887q0 -10 3 -28.5t17 -18.5q10 0 16 10q27 25 32 49.5t16 26.5v-10q0 -11 1 -23t5 -22.5t14 -10.5 q14 0 30.5 17.5t26.5 29.5q0 -27 19 -26q14 0 35.5 21.5t21.5 31.5q0 -8 7.5 -20.5t17.5 -12.5t30.5 18.5t28.5 32.5q4 -31 21 -30q12 0 23 8t20.5 18t16.5 19.5t9 11.5v4h-6q-14 -23 -23.5 -28t-13.5 -5q-10 0 -14 27v13t2 16q31 49 54.5 94t23.5 67q0 10 -8 11 q-8 0 -25.5 -13.5t-35 -40t-31 -64.5t-13.5 -89v-10v-3l-10 -10q-4 -6 -10 -13t-15 -7q-10 0 -14 14q-2 12 -4 23q-2 10 -4 17t-4 7q-4 0 -6 -6q-18 -37 -23.5 -50t-21.5 -20q-16 0 -17 17q0 18 8.5 33.5t18.5 25.5t21.5 15.5t15.5 5.5q8 0 9 -1t3 -1q0 2 2 2l2 2q0 4 -12 4 q-29 0 -58.5 -32t-40.5 -66l-8 -11l-11 -11t-13 -7t-7.5 6t-3.5 16v18.5t-1 24t-3 20.5t-6 9t-10 -10q-2 -4 -8 -17.5t-14.5 -29t-15.5 -29.5t-11 -18q-4 0 -9.5 9t-7.5 23q6 12 13.5 24.5t7.5 22.5q0 6 -8 7q-16 0 -28.5 -16.5t-16.5 -41.5v-20zM1069 -133h39l-21 53z M1079 932q0 10 2 19.5t13 9.5q2 0 3 -1.5t3 -1.5q-1 -9 -19 -40q0 4 -1 7t-1 7zM1085 510h27l18 86l35 -86h25l27 129h-25l-18 -88l-35 88h-25zM1116 49v213h27v-213h-27zM1151 -47h29l22 -98l27 98h33l24 -100l23 100h28l-34 -143h-29l-31 106l-26 -106h-31zM1217 510h94 l4 20h-66l23 109h-27zM1249 182v21h25v16q0 23 8 35t33 12q6 0 12 -1t12 -1l-2 -24q-6 2 -16 2q-12 0 -16 -4q-6 -6 -7 -21v-14h31v-21h-31v-133h-24v133h-25zM1327 639l35 -80l-10 -49h26l11 47l59 82h-31l-37 -55l-24 55h-29zM1339 125q0 41 20.5 61.5t51.5 20.5 q33 0 53.5 -20.5t20.5 -57.5q0 -41 -19.5 -62.5t-54.5 -21.5q-33 0 -52.5 20.5t-19.5 59.5zM1354 -47h26l60 -96v96h26v-143h-28l-58 92v-92h-26v143zM1366 125q0 -29 13.5 -43t31.5 -14q21 0 33 14q14 14 14 45q0 57 -47 57q-45 0 -45 -59zM1409 1020q4 57 24.5 102 t36.5 45q4 0 5 -8q-1 -20 -19 -53q-10 -20 -21.5 -41t-25.5 -45zM1489 -143l29 2q2 -27 30 -27q16 0 21.5 6t5.5 12q0 4 -1 8.5t-11 8.5q-41 10 -55.5 18.5t-14.5 28.5q0 23 16.5 32t36.5 9q29 0 41 -12.5t12 -30.5l-26 -2q-6 20 -27 20q-25 0 -24 -14q0 -10 22.5 -14.5 t38.5 -14.5q23 -10 23 -37q0 -18 -14.5 -30.5t-43.5 -12.5q-53 0 -59 50zM1516 49v154h22v-21q18 25 49 25h15.5t17.5 -5t14 -18.5t6 -40.5v-94h-24v94q0 41 -33 41q-16 0 -28.5 -10t-12.5 -41v-84h-26zM1579 973q0 -33 20 -33q18 0 34 15.5t28 37.5v-6q0 -25 12 -24 q16 0 33.5 20.5t32.5 42.5q0 -14 20 -18q29 0 43.5 24.5t16.5 36.5q0 16 -5.5 22.5t-19.5 28.5q4 10 10 21.5t6 17.5t-6 6q-29 0 -39 -17.5t-10 -27.5t3 -15t7 -13l2 -2q-6 -10 -15 -28t-19.5 -35t-21.5 -30.5t-19 -15.5q-4 0 -4 8q0 16 12 62.5t29 93.5q18 55 40 123 q-4 0 -8 2q-12 4 -22 4q-14 0 -23 -2q6 0 6 -10t-5 -31t-11 -45.5t-14.5 -53t-14.5 -55.5l-14 -4q6 0 6 -14q0 -12 -6 -29.5t-15.5 -35t-20.5 -30t-19 -12.5t-9 13q0 16 12.5 52t28 76t28.5 77.5t13 62.5t-18 24q-4 0 -9 -1t-14 -3h2q4 0 5 -8q0 -14 -10.5 -49t-24 -75 t-23.5 -81t-10 -67zM1628 -162h29v-28h-29v28zM1667 182v21h21v39l24 16v-55h27v-21h-27v-90q0 -16 4 -18t10 -2h13l4 -23q-8 -2 -21 -2q-23 0 -28.5 7t-5.5 40v88h-21zM1679 -121q0 35 18.5 55.5t47.5 20.5q45 0 57 -43l-26 -6q-6 25 -31 24q-37 0 -37 -49q0 -29 10.5 -39 t24.5 -10q10 0 20 6q10 10 13 25l28 -10q-16 -45 -61 -46q-29 0 -46.5 19.5t-17.5 52.5zM1741 1028q23 35 28 59q4 -8 8.5 -13t6.5 -15q0 -10 -2 -12q0 -4 -5 -17.5t-22 -13.5q-4 0 -6 6t-6 6h-2zM1784 1141q0 18 14 18q6 0 6 -4q0 -8 -16 -31q-4 12 -4 17zM1823 -119 q0 43 22 58.5t45 15.5q33 0 51.5 -19.5t18.5 -54.5q0 -37 -19.5 -55.5t-48.5 -18.5q-70 0 -69 74zM1839 90q0 20 11.5 29.5t26.5 13.5t33.5 6t35.5 8q0 23 -8.5 30t-28.5 7t-27.5 -6t-11.5 -22l-27 4q4 27 22.5 37t47.5 10q33 0 46 -11.5t13 -45.5v-37q0 -35 1 -44.5 t9 -19.5h-28q-4 4 -4 9t-2 10q-25 -23 -56 -23q-53 0 -53 45zM1843 1102q0 -10 6 -23.5t23 -13.5q12 0 23.5 5t25.5 15q27 18 39 35q6 8 8 13q0 2 -4 2q-25 -25 -37 -36.5t-26 -11.5q-10 0 -15 13q27 35 36 47t13 29q0 18 -14 18q-29 0 -48.5 -28.5t-27.5 -51.5q0 -4 -1 -6 t-1 -6zM1851 -119q0 -49 41 -49q17 0 27 12q12 12 12 37q0 49 -39 49q-41 0 -41 -49zM1866 90q0 -25 32 -24q20 0 34 11t14 40v8q-12 -4 -25.5 -6t-26 -5t-20.5 -8.5t-8 -15.5zM1882 1128q2 23 11.5 40.5t23.5 17.5q12 0 12 -10q0 -12 -10.5 -27t-22.5 -29q-4 -4 -6 -7 t-6 -7q-2 8 -2 22zM1982 -47h43l25 -98l27 98h43v-143h-27v112l-29 -112h-26l-29 112v-112h-27v143zM1999 182v21h20v39l25 16v-55h27v-21h-27v-90q0 -16 4 -18t10 -2h13l4 -23q-8 -2 -21 -2q-27 0 -33 16q-2 4 -2 31v88h-20zM2103 49v29h31v-29h-31zM2103 174v29h31v-29 h-31z" />
<glyph unicode=";" d="M233 154q0 53 30 82.5t79 29.5q39 0 58.5 -17.5t27.5 -45.5l-25 -8q-12 47 -61 47q-41 0 -60.5 -26t-19.5 -60q0 -43 22.5 -64.5t57.5 -21.5q18 0 35.5 7t25.5 15v39h-61v27h90v-80q-45 -33 -90 -33q-51 0 -80 30.5t-29 78.5zM244 -47h30l21 -98l27 98h32l27 -100l22 100 h29l-35 -143h-30l-29 106l-29 -106h-30zM262 459l72 596l317 88l-2 4l33 18l-8 35l35 12l-4 37l32 11v36l37 7l2 34l37 4l6 35h35l10 35l37 -4l12 33l37 -6l17 30l34 -10l19 31l35 -15l20 27l33 -16l25 26l30 -22l27 24l29 -24l28 22l27 -26l31 16l22 -27l33 15l20 -31 l35 10l17 -30l34 6l15 -33l35 4l10 -35h18l576 156l-72 -596l-287 -80l-14 -14l18 -33l-28 -23l14 -32l-31 -21l11 -33l-31 -16l6 -37l-33 -12l4 -37l-35 -8v-37l-34 -8l-4 -35l-35 -2l-6 -37h-37l-10 -35l-35 4l-15 -32l-34 8l-17 -33l-35 12l-20 -30l-33 14l-22 -29 l-31 17l-27 -25l-28 20l-29 -24l-27 24l-30 -20l-25 25l-33 -17l-20 29l-35 -14l-19 30l-34 -12l-17 33l-37 -8l-12 32l-37 -4l-10 35h-35l-6 37l-37 2l-2 35l-37 8l2 35zM389 848q0 -35 31 -35q6 0 22 4q-12 0 -12 31t20.5 69.5t79.5 51.5h11q18 0 26 -13.5t8 -33.5 q0 -39 -23.5 -83t-62.5 -57q12 37 24.5 71t21.5 56l-9 9q-4 4 -9 7t-15 3t-15 -2q4 0 5 -11q0 -16 -9.5 -50t-21.5 -70.5t-21.5 -72.5t-9.5 -58q0 -25 14 -25h7q-2 0 -2 6q0 14 10 50t26 79q66 16 99.5 61.5t33.5 86.5q0 25 -14 41t-45 16h-13t-14 -2q-76 -16 -109.5 -57 t-33.5 -72zM432 -47h29l22 -98l27 98h33l24 -100l23 100h28l-32 -143h-31l-29 106l-28 -106h-31zM461 125q0 39 19.5 60.5t54.5 21.5q29 0 49 -21.5t20 -60.5v-6h-117q6 -51 48 -51q31 0 40 30l29 -4q-16 -49 -69 -49q-35 0 -54.5 20.5t-19.5 59.5zM489 141h86q-2 23 -13 34 t-27 11q-18 0 -30.5 -13t-15.5 -32zM575 760q0 -16 6.5 -27.5t22.5 -11.5q25 0 48.5 20.5t35.5 34.5q4 0 11.5 10.5t14.5 23.5t13 25.5t8 16.5q2 0 6 1t9 1h7t3 -12q-2 -6 -2 -19q0 -23 2 -40t20 -17q20 0 41 24.5t29 32.5l10 13q12 -12 12 -27v-14q0 -8 -4 -17 q-8 -14 -22 -14q-6 0 -8 6t-4 6q-4 0 -5 -2q0 -6 6.5 -12t16.5 -6q12 0 23.5 7t18.5 17.5t11 20.5t4 16q0 8 -2 18.5t-24 32.5q8 10 13 22.5t5 16.5q0 6 -6 6q-29 0 -39 -17t-10 -28q0 -10 3 -15t7 -13l-10 -15h-2l-8 -12q-4 -6 -13.5 -14t-17.5 -8q-6 0 -9 10t-3 24v19v22 t-7 6q-4 0 -20 -2t-25 -2q2 2 2 9q0 8 -6 8q-20 0 -20 -23q0 -8 5 -8h9q0 -2 -1 -3t-1 -5q-35 -66 -60.5 -83.5t-35.5 -17.5t-17 13q16 20 34 39.5t18 38.5q0 4 -3 9t-14 5q-16 0 -30.5 -10.5t-24.5 -25.5t-15.5 -30.5t-5.5 -23.5zM612 776q0 35 13.5 50.5t25.5 15.5 q8 0 8 -11q0 -17 -20 -40q-8 -14 -25 -27q0 4 -1 6t-1 6zM621 -47h28l23 -98l26 98h33l25 -100l22 100h29l-35 -143h-31l-28 106l-27 -106h-33zM623 182v21h18v39l27 16v-55h24v-21h-24v-90q0 -16 3 -18t11 -2h10l6 -23q-8 -2 -20 -2q-16 0 -23.5 4t-11.5 12q-2 4 -2 31v88 h-18zM784 182v21h25v16q0 23 8 35t35 12q4 0 10 -1t12 -1l-2 -24q-6 2 -16 2q-23 0 -22 -25v-14h30v-21h-30v-133h-25v133h-25zM811 -162h27v-28h-27v28zM866 -47h43l25 -98l27 98h43v-143h-27v112l-29 -112h-28l-27 112v-112h-27v143zM872 889q0 18 17 18q4 0 4 -4 q0 -8 -14 -31q-2 4 -4.5 8.5t-2.5 8.5zM885 106v97h26v-86q0 -29 6.5 -39t24.5 -10q41 0 41 53v82h27v-154h-25v23q-14 -27 -49 -27q-27 0 -39 13.5t-12 47.5zM934 848q0 -10 6 -22.5t23 -12.5q27 0 52 27.5t25 62.5q0 18 -9 26.5t-19 8.5q-20 0 -45 -20.5t-31 -55.5 q-2 -4 -2 -14zM954 559q0 -20 13.5 -35.5t38.5 -15.5q31 0 52 21.5t21 56.5q0 27 -15 41t-38 14q-33 0 -52.5 -23.5t-19.5 -58.5zM969 874q0 6 10 32t35 26q20 -6 20 -31q0 -33 -16.5 -48t-26.5 -15q-4 2 -6 2t-6 2q-10 10 -10 32zM979 561q0 23 13.5 40t31.5 17 q29 0 29 -32q0 -25 -13.5 -41.5t-29.5 -16.5q-12 0 -21.5 9.5t-9.5 23.5zM1018 -190l55 143h31l57 -143h-33l-12 32h-55l-12 -32h-31zM1051 49v213h26v-213h-26zM1051 887q0 -10 3 -28.5t17 -18.5q10 0 16 10q27 25 32 49.5t16 26.5v-10q0 -11 1 -23t5 -22.5t14 -10.5 q14 0 30.5 17.5t26.5 29.5q0 -27 19 -26q14 0 35.5 21.5t21.5 31.5q0 -8 7.5 -20.5t17.5 -12.5t30.5 18.5t28.5 32.5q4 -31 21 -30q12 0 23 8t20.5 18t16.5 19.5t9 11.5v4h-6q-14 -23 -23.5 -28t-13.5 -5q-10 0 -14 27v13t2 16q31 49 54.5 94t23.5 67q0 10 -8 11 q-8 0 -25.5 -13.5t-35 -40t-31 -64.5t-13.5 -89v-10v-3l-10 -10q-4 -6 -10 -13t-15 -7q-10 0 -14 14q-2 12 -4 23q-2 10 -4 17t-4 7q-4 0 -6 -6q-18 -37 -23.5 -50t-21.5 -20q-16 0 -17 17q0 18 8.5 33.5t18.5 25.5t21.5 15.5t15.5 5.5q8 0 9 -1t3 -1q0 2 2 2l2 2q0 4 -12 4 q-29 0 -58.5 -32t-40.5 -66l-8 -11l-11 -11t-13 -7t-7.5 6t-3.5 16v18.5t-1 24t-3 20.5t-6 9t-10 -10q-2 -4 -8 -17.5t-14.5 -29t-15.5 -29.5t-11 -18q-4 0 -9.5 9t-7.5 23q6 12 13.5 24.5t7.5 22.5q0 6 -8 7q-16 0 -28.5 -16.5t-16.5 -41.5v-20zM1069 -133h39l-21 53z M1079 932q0 10 2 19.5t13 9.5q2 0 3 -1.5t3 -1.5q-1 -9 -19 -40q0 4 -1 7t-1 7zM1085 510h27l18 86l35 -86h25l27 129h-25l-18 -88l-35 88h-25zM1116 49v213h27v-213h-27zM1151 -47h29l22 -98l27 98h33l24 -100l23 100h28l-34 -143h-29l-31 106l-26 -106h-31zM1217 510h94 l4 20h-66l23 109h-27zM1249 182v21h25v16q0 23 8 35t33 12q6 0 12 -1t12 -1l-2 -24q-6 2 -16 2q-12 0 -16 -4q-6 -6 -7 -21v-14h31v-21h-31v-133h-24v133h-25zM1327 639l35 -80l-10 -49h26l11 47l59 82h-31l-37 -55l-24 55h-29zM1339 125q0 41 20.5 61.5t51.5 20.5 q33 0 53.5 -20.5t20.5 -57.5q0 -41 -19.5 -62.5t-54.5 -21.5q-33 0 -52.5 20.5t-19.5 59.5zM1354 -47h26l60 -96v96h26v-143h-28l-58 92v-92h-26v143zM1366 125q0 -29 13.5 -43t31.5 -14q21 0 33 14q14 14 14 45q0 57 -47 57q-45 0 -45 -59zM1409 1020q4 57 24.5 102 t36.5 45q4 0 5 -8q-1 -20 -19 -53q-10 -20 -21.5 -41t-25.5 -45zM1489 -143l29 2q2 -27 30 -27q16 0 21.5 6t5.5 12q0 4 -1 8.5t-11 8.5q-41 10 -55.5 18.5t-14.5 28.5q0 23 16.5 32t36.5 9q29 0 41 -12.5t12 -30.5l-26 -2q-6 20 -27 20q-25 0 -24 -14q0 -10 22.5 -14.5 t38.5 -14.5q23 -10 23 -37q0 -18 -14.5 -30.5t-43.5 -12.5q-53 0 -59 50zM1516 49v154h22v-21q18 25 49 25h15.5t17.5 -5t14 -18.5t6 -40.5v-94h-24v94q0 41 -33 41q-16 0 -28.5 -10t-12.5 -41v-84h-26zM1579 973q0 -33 20 -33q18 0 34 15.5t28 37.5v-6q0 -25 12 -24 q16 0 33.5 20.5t32.5 42.5q0 -14 20 -18q29 0 43.5 24.5t16.5 36.5q0 16 -5.5 22.5t-19.5 28.5q4 10 10 21.5t6 17.5t-6 6q-29 0 -39 -17.5t-10 -27.5t3 -15t7 -13l2 -2q-6 -10 -15 -28t-19.5 -35t-21.5 -30.5t-19 -15.5q-4 0 -4 8q0 16 12 62.5t29 93.5q18 55 40 123 q-4 0 -8 2q-12 4 -22 4q-14 0 -23 -2q6 0 6 -10t-5 -31t-11 -45.5t-14.5 -53t-14.5 -55.5l-14 -4q6 0 6 -14q0 -12 -6 -29.5t-15.5 -35t-20.5 -30t-19 -12.5t-9 13q0 16 12.5 52t28 76t28.5 77.5t13 62.5t-18 24q-4 0 -9 -1t-14 -3h2q4 0 5 -8q0 -14 -10.5 -49t-24 -75 t-23.5 -81t-10 -67zM1628 -162h29v-28h-29v28zM1667 182v21h21v39l24 16v-55h27v-21h-27v-90q0 -16 4 -18t10 -2h13l4 -23q-8 -2 -21 -2q-23 0 -28.5 7t-5.5 40v88h-21zM1679 -121q0 35 18.5 55.5t47.5 20.5q45 0 57 -43l-26 -6q-6 25 -31 24q-37 0 -37 -49q0 -29 10.5 -39 t24.5 -10q10 0 20 6q10 10 13 25l28 -10q-16 -45 -61 -46q-29 0 -46.5 19.5t-17.5 52.5zM1741 1028q23 35 28 59q4 -8 8.5 -13t6.5 -15q0 -10 -2 -12q0 -4 -5 -17.5t-22 -13.5q-4 0 -6 6t-6 6h-2zM1784 1141q0 18 14 18q6 0 6 -4q0 -8 -16 -31q-4 12 -4 17zM1823 -119 q0 43 22 58.5t45 15.5q33 0 51.5 -19.5t18.5 -54.5q0 -37 -19.5 -55.5t-48.5 -18.5q-70 0 -69 74zM1839 90q0 20 11.5 29.5t26.5 13.5t33.5 6t35.5 8q0 23 -8.5 30t-28.5 7t-27.5 -6t-11.5 -22l-27 4q4 27 22.5 37t47.5 10q33 0 46 -11.5t13 -45.5v-37q0 -35 1 -44.5 t9 -19.5h-28q-4 4 -4 9t-2 10q-25 -23 -56 -23q-53 0 -53 45zM1843 1102q0 -10 6 -23.5t23 -13.5q12 0 23.5 5t25.5 15q27 18 39 35q6 8 8 13q0 2 -4 2q-25 -25 -37 -36.5t-26 -11.5q-10 0 -15 13q27 35 36 47t13 29q0 18 -14 18q-29 0 -48.5 -28.5t-27.5 -51.5q0 -4 -1 -6 t-1 -6zM1851 -119q0 -49 41 -49q17 0 27 12q12 12 12 37q0 49 -39 49q-41 0 -41 -49zM1866 90q0 -25 32 -24q20 0 34 11t14 40v8q-12 -4 -25.5 -6t-26 -5t-20.5 -8.5t-8 -15.5zM1882 1128q2 23 11.5 40.5t23.5 17.5q12 0 12 -10q0 -12 -10.5 -27t-22.5 -29q-4 -4 -6 -7 t-6 -7q-2 8 -2 22zM1982 -47h43l25 -98l27 98h43v-143h-27v112l-29 -112h-26l-29 112v-112h-27v143zM1999 182v21h20v39l25 16v-55h27v-21h-27v-90q0 -16 4 -18t10 -2h13l4 -23q-8 -2 -21 -2q-27 0 -33 16q-2 4 -2 31v88h-20zM2103 49v29h31v-29h-31zM2103 174v29h31v-29 h-31z" />
<glyph unicode="&#x3c;" d="M233 154q0 53 30 82.5t79 29.5q39 0 58.5 -17.5t27.5 -45.5l-25 -8q-12 47 -61 47q-41 0 -60.5 -26t-19.5 -60q0 -43 22.5 -64.5t57.5 -21.5q18 0 35.5 7t25.5 15v39h-61v27h90v-80q-45 -33 -90 -33q-51 0 -80 30.5t-29 78.5zM244 -47h30l21 -98l27 98h32l27 -100l22 100 h29l-35 -143h-30l-29 106l-29 -106h-30zM262 459l72 596l317 88l-2 4l33 18l-8 35l35 12l-4 37l32 11v36l37 7l2 34l37 4l6 35h35l10 35l37 -4l12 33l37 -6l17 30l34 -10l19 31l35 -15l20 27l33 -16l25 26l30 -22l27 24l29 -24l28 22l27 -26l31 16l22 -27l33 15l20 -31 l35 10l17 -30l34 6l15 -33l35 4l10 -35h18l576 156l-72 -596l-287 -80l-14 -14l18 -33l-28 -23l14 -32l-31 -21l11 -33l-31 -16l6 -37l-33 -12l4 -37l-35 -8v-37l-34 -8l-4 -35l-35 -2l-6 -37h-37l-10 -35l-35 4l-15 -32l-34 8l-17 -33l-35 12l-20 -30l-33 14l-22 -29 l-31 17l-27 -25l-28 20l-29 -24l-27 24l-30 -20l-25 25l-33 -17l-20 29l-35 -14l-19 30l-34 -12l-17 33l-37 -8l-12 32l-37 -4l-10 35h-35l-6 37l-37 2l-2 35l-37 8l2 35zM389 848q0 -35 31 -35q6 0 22 4q-12 0 -12 31t20.5 69.5t79.5 51.5h11q18 0 26 -13.5t8 -33.5 q0 -39 -23.5 -83t-62.5 -57q12 37 24.5 71t21.5 56l-9 9q-4 4 -9 7t-15 3t-15 -2q4 0 5 -11q0 -16 -9.5 -50t-21.5 -70.5t-21.5 -72.5t-9.5 -58q0 -25 14 -25h7q-2 0 -2 6q0 14 10 50t26 79q66 16 99.5 61.5t33.5 86.5q0 25 -14 41t-45 16h-13t-14 -2q-76 -16 -109.5 -57 t-33.5 -72zM432 -47h29l22 -98l27 98h33l24 -100l23 100h28l-32 -143h-31l-29 106l-28 -106h-31zM461 125q0 39 19.5 60.5t54.5 21.5q29 0 49 -21.5t20 -60.5v-6h-117q6 -51 48 -51q31 0 40 30l29 -4q-16 -49 -69 -49q-35 0 -54.5 20.5t-19.5 59.5zM489 141h86q-2 23 -13 34 t-27 11q-18 0 -30.5 -13t-15.5 -32zM575 760q0 -16 6.5 -27.5t22.5 -11.5q25 0 48.5 20.5t35.5 34.5q4 0 11.5 10.5t14.5 23.5t13 25.5t8 16.5q2 0 6 1t9 1h7t3 -12q-2 -6 -2 -19q0 -23 2 -40t20 -17q20 0 41 24.5t29 32.5l10 13q12 -12 12 -27v-14q0 -8 -4 -17 q-8 -14 -22 -14q-6 0 -8 6t-4 6q-4 0 -5 -2q0 -6 6.5 -12t16.5 -6q12 0 23.5 7t18.5 17.5t11 20.5t4 16q0 8 -2 18.5t-24 32.5q8 10 13 22.5t5 16.5q0 6 -6 6q-29 0 -39 -17t-10 -28q0 -10 3 -15t7 -13l-10 -15h-2l-8 -12q-4 -6 -13.5 -14t-17.5 -8q-6 0 -9 10t-3 24v19v22 t-7 6q-4 0 -20 -2t-25 -2q2 2 2 9q0 8 -6 8q-20 0 -20 -23q0 -8 5 -8h9q0 -2 -1 -3t-1 -5q-35 -66 -60.5 -83.5t-35.5 -17.5t-17 13q16 20 34 39.5t18 38.5q0 4 -3 9t-14 5q-16 0 -30.5 -10.5t-24.5 -25.5t-15.5 -30.5t-5.5 -23.5zM612 776q0 35 13.5 50.5t25.5 15.5 q8 0 8 -11q0 -17 -20 -40q-8 -14 -25 -27q0 4 -1 6t-1 6zM621 -47h28l23 -98l26 98h33l25 -100l22 100h29l-35 -143h-31l-28 106l-27 -106h-33zM623 182v21h18v39l27 16v-55h24v-21h-24v-90q0 -16 3 -18t11 -2h10l6 -23q-8 -2 -20 -2q-16 0 -23.5 4t-11.5 12q-2 4 -2 31v88 h-18zM784 182v21h25v16q0 23 8 35t35 12q4 0 10 -1t12 -1l-2 -24q-6 2 -16 2q-23 0 -22 -25v-14h30v-21h-30v-133h-25v133h-25zM811 -162h27v-28h-27v28zM866 -47h43l25 -98l27 98h43v-143h-27v112l-29 -112h-28l-27 112v-112h-27v143zM872 889q0 18 17 18q4 0 4 -4 q0 -8 -14 -31q-2 4 -4.5 8.5t-2.5 8.5zM885 106v97h26v-86q0 -29 6.5 -39t24.5 -10q41 0 41 53v82h27v-154h-25v23q-14 -27 -49 -27q-27 0 -39 13.5t-12 47.5zM934 848q0 -10 6 -22.5t23 -12.5q27 0 52 27.5t25 62.5q0 18 -9 26.5t-19 8.5q-20 0 -45 -20.5t-31 -55.5 q-2 -4 -2 -14zM954 559q0 -20 13.5 -35.5t38.5 -15.5q31 0 52 21.5t21 56.5q0 27 -15 41t-38 14q-33 0 -52.5 -23.5t-19.5 -58.5zM969 874q0 6 10 32t35 26q20 -6 20 -31q0 -33 -16.5 -48t-26.5 -15q-4 2 -6 2t-6 2q-10 10 -10 32zM979 561q0 23 13.5 40t31.5 17 q29 0 29 -32q0 -25 -13.5 -41.5t-29.5 -16.5q-12 0 -21.5 9.5t-9.5 23.5zM1018 -190l55 143h31l57 -143h-33l-12 32h-55l-12 -32h-31zM1051 49v213h26v-213h-26zM1051 887q0 -10 3 -28.5t17 -18.5q10 0 16 10q27 25 32 49.5t16 26.5v-10q0 -11 1 -23t5 -22.5t14 -10.5 q14 0 30.5 17.5t26.5 29.5q0 -27 19 -26q14 0 35.5 21.5t21.5 31.5q0 -8 7.5 -20.5t17.5 -12.5t30.5 18.5t28.5 32.5q4 -31 21 -30q12 0 23 8t20.5 18t16.5 19.5t9 11.5v4h-6q-14 -23 -23.5 -28t-13.5 -5q-10 0 -14 27v13t2 16q31 49 54.5 94t23.5 67q0 10 -8 11 q-8 0 -25.5 -13.5t-35 -40t-31 -64.5t-13.5 -89v-10v-3l-10 -10q-4 -6 -10 -13t-15 -7q-10 0 -14 14q-2 12 -4 23q-2 10 -4 17t-4 7q-4 0 -6 -6q-18 -37 -23.5 -50t-21.5 -20q-16 0 -17 17q0 18 8.5 33.5t18.5 25.5t21.5 15.5t15.5 5.5q8 0 9 -1t3 -1q0 2 2 2l2 2q0 4 -12 4 q-29 0 -58.5 -32t-40.5 -66l-8 -11l-11 -11t-13 -7t-7.5 6t-3.5 16v18.5t-1 24t-3 20.5t-6 9t-10 -10q-2 -4 -8 -17.5t-14.5 -29t-15.5 -29.5t-11 -18q-4 0 -9.5 9t-7.5 23q6 12 13.5 24.5t7.5 22.5q0 6 -8 7q-16 0 -28.5 -16.5t-16.5 -41.5v-20zM1069 -133h39l-21 53z M1079 932q0 10 2 19.5t13 9.5q2 0 3 -1.5t3 -1.5q-1 -9 -19 -40q0 4 -1 7t-1 7zM1085 510h27l18 86l35 -86h25l27 129h-25l-18 -88l-35 88h-25zM1116 49v213h27v-213h-27zM1151 -47h29l22 -98l27 98h33l24 -100l23 100h28l-34 -143h-29l-31 106l-26 -106h-31zM1217 510h94 l4 20h-66l23 109h-27zM1249 182v21h25v16q0 23 8 35t33 12q6 0 12 -1t12 -1l-2 -24q-6 2 -16 2q-12 0 -16 -4q-6 -6 -7 -21v-14h31v-21h-31v-133h-24v133h-25zM1327 639l35 -80l-10 -49h26l11 47l59 82h-31l-37 -55l-24 55h-29zM1339 125q0 41 20.5 61.5t51.5 20.5 q33 0 53.5 -20.5t20.5 -57.5q0 -41 -19.5 -62.5t-54.5 -21.5q-33 0 -52.5 20.5t-19.5 59.5zM1354 -47h26l60 -96v96h26v-143h-28l-58 92v-92h-26v143zM1366 125q0 -29 13.5 -43t31.5 -14q21 0 33 14q14 14 14 45q0 57 -47 57q-45 0 -45 -59zM1409 1020q4 57 24.5 102 t36.5 45q4 0 5 -8q-1 -20 -19 -53q-10 -20 -21.5 -41t-25.5 -45zM1489 -143l29 2q2 -27 30 -27q16 0 21.5 6t5.5 12q0 4 -1 8.5t-11 8.5q-41 10 -55.5 18.5t-14.5 28.5q0 23 16.5 32t36.5 9q29 0 41 -12.5t12 -30.5l-26 -2q-6 20 -27 20q-25 0 -24 -14q0 -10 22.5 -14.5 t38.5 -14.5q23 -10 23 -37q0 -18 -14.5 -30.5t-43.5 -12.5q-53 0 -59 50zM1516 49v154h22v-21q18 25 49 25h15.5t17.5 -5t14 -18.5t6 -40.5v-94h-24v94q0 41 -33 41q-16 0 -28.5 -10t-12.5 -41v-84h-26zM1579 973q0 -33 20 -33q18 0 34 15.5t28 37.5v-6q0 -25 12 -24 q16 0 33.5 20.5t32.5 42.5q0 -14 20 -18q29 0 43.5 24.5t16.5 36.5q0 16 -5.5 22.5t-19.5 28.5q4 10 10 21.5t6 17.5t-6 6q-29 0 -39 -17.5t-10 -27.5t3 -15t7 -13l2 -2q-6 -10 -15 -28t-19.5 -35t-21.5 -30.5t-19 -15.5q-4 0 -4 8q0 16 12 62.5t29 93.5q18 55 40 123 q-4 0 -8 2q-12 4 -22 4q-14 0 -23 -2q6 0 6 -10t-5 -31t-11 -45.5t-14.5 -53t-14.5 -55.5l-14 -4q6 0 6 -14q0 -12 -6 -29.5t-15.5 -35t-20.5 -30t-19 -12.5t-9 13q0 16 12.5 52t28 76t28.5 77.5t13 62.5t-18 24q-4 0 -9 -1t-14 -3h2q4 0 5 -8q0 -14 -10.5 -49t-24 -75 t-23.5 -81t-10 -67zM1628 -162h29v-28h-29v28zM1667 182v21h21v39l24 16v-55h27v-21h-27v-90q0 -16 4 -18t10 -2h13l4 -23q-8 -2 -21 -2q-23 0 -28.5 7t-5.5 40v88h-21zM1679 -121q0 35 18.5 55.5t47.5 20.5q45 0 57 -43l-26 -6q-6 25 -31 24q-37 0 -37 -49q0 -29 10.5 -39 t24.5 -10q10 0 20 6q10 10 13 25l28 -10q-16 -45 -61 -46q-29 0 -46.5 19.5t-17.5 52.5zM1741 1028q23 35 28 59q4 -8 8.5 -13t6.5 -15q0 -10 -2 -12q0 -4 -5 -17.5t-22 -13.5q-4 0 -6 6t-6 6h-2zM1784 1141q0 18 14 18q6 0 6 -4q0 -8 -16 -31q-4 12 -4 17zM1823 -119 q0 43 22 58.5t45 15.5q33 0 51.5 -19.5t18.5 -54.5q0 -37 -19.5 -55.5t-48.5 -18.5q-70 0 -69 74zM1839 90q0 20 11.5 29.5t26.5 13.5t33.5 6t35.5 8q0 23 -8.5 30t-28.5 7t-27.5 -6t-11.5 -22l-27 4q4 27 22.5 37t47.5 10q33 0 46 -11.5t13 -45.5v-37q0 -35 1 -44.5 t9 -19.5h-28q-4 4 -4 9t-2 10q-25 -23 -56 -23q-53 0 -53 45zM1843 1102q0 -10 6 -23.5t23 -13.5q12 0 23.5 5t25.5 15q27 18 39 35q6 8 8 13q0 2 -4 2q-25 -25 -37 -36.5t-26 -11.5q-10 0 -15 13q27 35 36 47t13 29q0 18 -14 18q-29 0 -48.5 -28.5t-27.5 -51.5q0 -4 -1 -6 t-1 -6zM1851 -119q0 -49 41 -49q17 0 27 12q12 12 12 37q0 49 -39 49q-41 0 -41 -49zM1866 90q0 -25 32 -24q20 0 34 11t14 40v8q-12 -4 -25.5 -6t-26 -5t-20.5 -8.5t-8 -15.5zM1882 1128q2 23 11.5 40.5t23.5 17.5q12 0 12 -10q0 -12 -10.5 -27t-22.5 -29q-4 -4 -6 -7 t-6 -7q-2 8 -2 22zM1982 -47h43l25 -98l27 98h43v-143h-27v112l-29 -112h-26l-29 112v-112h-27v143zM1999 182v21h20v39l25 16v-55h27v-21h-27v-90q0 -16 4 -18t10 -2h13l4 -23q-8 -2 -21 -2q-27 0 -33 16q-2 4 -2 31v88h-20zM2103 49v29h31v-29h-31zM2103 174v29h31v-29 h-31z" />
<glyph unicode="=" d="M233 154q0 53 30 82.5t79 29.5q39 0 58.5 -17.5t27.5 -45.5l-25 -8q-12 47 -61 47q-41 0 -60.5 -26t-19.5 -60q0 -43 22.5 -64.5t57.5 -21.5q18 0 35.5 7t25.5 15v39h-61v27h90v-80q-45 -33 -90 -33q-51 0 -80 30.5t-29 78.5zM244 -47h30l21 -98l27 98h32l27 -100l22 100 h29l-35 -143h-30l-29 106l-29 -106h-30zM262 459l72 596l317 88l-2 4l33 18l-8 35l35 12l-4 37l32 11v36l37 7l2 34l37 4l6 35h35l10 35l37 -4l12 33l37 -6l17 30l34 -10l19 31l35 -15l20 27l33 -16l25 26l30 -22l27 24l29 -24l28 22l27 -26l31 16l22 -27l33 15l20 -31 l35 10l17 -30l34 6l15 -33l35 4l10 -35h18l576 156l-72 -596l-287 -80l-14 -14l18 -33l-28 -23l14 -32l-31 -21l11 -33l-31 -16l6 -37l-33 -12l4 -37l-35 -8v-37l-34 -8l-4 -35l-35 -2l-6 -37h-37l-10 -35l-35 4l-15 -32l-34 8l-17 -33l-35 12l-20 -30l-33 14l-22 -29 l-31 17l-27 -25l-28 20l-29 -24l-27 24l-30 -20l-25 25l-33 -17l-20 29l-35 -14l-19 30l-34 -12l-17 33l-37 -8l-12 32l-37 -4l-10 35h-35l-6 37l-37 2l-2 35l-37 8l2 35zM389 848q0 -35 31 -35q6 0 22 4q-12 0 -12 31t20.5 69.5t79.5 51.5h11q18 0 26 -13.5t8 -33.5 q0 -39 -23.5 -83t-62.5 -57q12 37 24.5 71t21.5 56l-9 9q-4 4 -9 7t-15 3t-15 -2q4 0 5 -11q0 -16 -9.5 -50t-21.5 -70.5t-21.5 -72.5t-9.5 -58q0 -25 14 -25h7q-2 0 -2 6q0 14 10 50t26 79q66 16 99.5 61.5t33.5 86.5q0 25 -14 41t-45 16h-13t-14 -2q-76 -16 -109.5 -57 t-33.5 -72zM432 -47h29l22 -98l27 98h33l24 -100l23 100h28l-32 -143h-31l-29 106l-28 -106h-31zM461 125q0 39 19.5 60.5t54.5 21.5q29 0 49 -21.5t20 -60.5v-6h-117q6 -51 48 -51q31 0 40 30l29 -4q-16 -49 -69 -49q-35 0 -54.5 20.5t-19.5 59.5zM489 141h86q-2 23 -13 34 t-27 11q-18 0 -30.5 -13t-15.5 -32zM575 760q0 -16 6.5 -27.5t22.5 -11.5q25 0 48.5 20.5t35.5 34.5q4 0 11.5 10.5t14.5 23.5t13 25.5t8 16.5q2 0 6 1t9 1h7t3 -12q-2 -6 -2 -19q0 -23 2 -40t20 -17q20 0 41 24.5t29 32.5l10 13q12 -12 12 -27v-14q0 -8 -4 -17 q-8 -14 -22 -14q-6 0 -8 6t-4 6q-4 0 -5 -2q0 -6 6.5 -12t16.5 -6q12 0 23.5 7t18.5 17.5t11 20.5t4 16q0 8 -2 18.5t-24 32.5q8 10 13 22.5t5 16.5q0 6 -6 6q-29 0 -39 -17t-10 -28q0 -10 3 -15t7 -13l-10 -15h-2l-8 -12q-4 -6 -13.5 -14t-17.5 -8q-6 0 -9 10t-3 24v19v22 t-7 6q-4 0 -20 -2t-25 -2q2 2 2 9q0 8 -6 8q-20 0 -20 -23q0 -8 5 -8h9q0 -2 -1 -3t-1 -5q-35 -66 -60.5 -83.5t-35.5 -17.5t-17 13q16 20 34 39.5t18 38.5q0 4 -3 9t-14 5q-16 0 -30.5 -10.5t-24.5 -25.5t-15.5 -30.5t-5.5 -23.5zM612 776q0 35 13.5 50.5t25.5 15.5 q8 0 8 -11q0 -17 -20 -40q-8 -14 -25 -27q0 4 -1 6t-1 6zM621 -47h28l23 -98l26 98h33l25 -100l22 100h29l-35 -143h-31l-28 106l-27 -106h-33zM623 182v21h18v39l27 16v-55h24v-21h-24v-90q0 -16 3 -18t11 -2h10l6 -23q-8 -2 -20 -2q-16 0 -23.5 4t-11.5 12q-2 4 -2 31v88 h-18zM784 182v21h25v16q0 23 8 35t35 12q4 0 10 -1t12 -1l-2 -24q-6 2 -16 2q-23 0 -22 -25v-14h30v-21h-30v-133h-25v133h-25zM811 -162h27v-28h-27v28zM866 -47h43l25 -98l27 98h43v-143h-27v112l-29 -112h-28l-27 112v-112h-27v143zM872 889q0 18 17 18q4 0 4 -4 q0 -8 -14 -31q-2 4 -4.5 8.5t-2.5 8.5zM885 106v97h26v-86q0 -29 6.5 -39t24.5 -10q41 0 41 53v82h27v-154h-25v23q-14 -27 -49 -27q-27 0 -39 13.5t-12 47.5zM934 848q0 -10 6 -22.5t23 -12.5q27 0 52 27.5t25 62.5q0 18 -9 26.5t-19 8.5q-20 0 -45 -20.5t-31 -55.5 q-2 -4 -2 -14zM954 559q0 -20 13.5 -35.5t38.5 -15.5q31 0 52 21.5t21 56.5q0 27 -15 41t-38 14q-33 0 -52.5 -23.5t-19.5 -58.5zM969 874q0 6 10 32t35 26q20 -6 20 -31q0 -33 -16.5 -48t-26.5 -15q-4 2 -6 2t-6 2q-10 10 -10 32zM979 561q0 23 13.5 40t31.5 17 q29 0 29 -32q0 -25 -13.5 -41.5t-29.5 -16.5q-12 0 -21.5 9.5t-9.5 23.5zM1018 -190l55 143h31l57 -143h-33l-12 32h-55l-12 -32h-31zM1051 49v213h26v-213h-26zM1051 887q0 -10 3 -28.5t17 -18.5q10 0 16 10q27 25 32 49.5t16 26.5v-10q0 -11 1 -23t5 -22.5t14 -10.5 q14 0 30.5 17.5t26.5 29.5q0 -27 19 -26q14 0 35.5 21.5t21.5 31.5q0 -8 7.5 -20.5t17.5 -12.5t30.5 18.5t28.5 32.5q4 -31 21 -30q12 0 23 8t20.5 18t16.5 19.5t9 11.5v4h-6q-14 -23 -23.5 -28t-13.5 -5q-10 0 -14 27v13t2 16q31 49 54.5 94t23.5 67q0 10 -8 11 q-8 0 -25.5 -13.5t-35 -40t-31 -64.5t-13.5 -89v-10v-3l-10 -10q-4 -6 -10 -13t-15 -7q-10 0 -14 14q-2 12 -4 23q-2 10 -4 17t-4 7q-4 0 -6 -6q-18 -37 -23.5 -50t-21.5 -20q-16 0 -17 17q0 18 8.5 33.5t18.5 25.5t21.5 15.5t15.5 5.5q8 0 9 -1t3 -1q0 2 2 2l2 2q0 4 -12 4 q-29 0 -58.5 -32t-40.5 -66l-8 -11l-11 -11t-13 -7t-7.5 6t-3.5 16v18.5t-1 24t-3 20.5t-6 9t-10 -10q-2 -4 -8 -17.5t-14.5 -29t-15.5 -29.5t-11 -18q-4 0 -9.5 9t-7.5 23q6 12 13.5 24.5t7.5 22.5q0 6 -8 7q-16 0 -28.5 -16.5t-16.5 -41.5v-20zM1069 -133h39l-21 53z M1079 932q0 10 2 19.5t13 9.5q2 0 3 -1.5t3 -1.5q-1 -9 -19 -40q0 4 -1 7t-1 7zM1085 510h27l18 86l35 -86h25l27 129h-25l-18 -88l-35 88h-25zM1116 49v213h27v-213h-27zM1151 -47h29l22 -98l27 98h33l24 -100l23 100h28l-34 -143h-29l-31 106l-26 -106h-31zM1217 510h94 l4 20h-66l23 109h-27zM1249 182v21h25v16q0 23 8 35t33 12q6 0 12 -1t12 -1l-2 -24q-6 2 -16 2q-12 0 -16 -4q-6 -6 -7 -21v-14h31v-21h-31v-133h-24v133h-25zM1327 639l35 -80l-10 -49h26l11 47l59 82h-31l-37 -55l-24 55h-29zM1339 125q0 41 20.5 61.5t51.5 20.5 q33 0 53.5 -20.5t20.5 -57.5q0 -41 -19.5 -62.5t-54.5 -21.5q-33 0 -52.5 20.5t-19.5 59.5zM1354 -47h26l60 -96v96h26v-143h-28l-58 92v-92h-26v143zM1366 125q0 -29 13.5 -43t31.5 -14q21 0 33 14q14 14 14 45q0 57 -47 57q-45 0 -45 -59zM1409 1020q4 57 24.5 102 t36.5 45q4 0 5 -8q-1 -20 -19 -53q-10 -20 -21.5 -41t-25.5 -45zM1489 -143l29 2q2 -27 30 -27q16 0 21.5 6t5.5 12q0 4 -1 8.5t-11 8.5q-41 10 -55.5 18.5t-14.5 28.5q0 23 16.5 32t36.5 9q29 0 41 -12.5t12 -30.5l-26 -2q-6 20 -27 20q-25 0 -24 -14q0 -10 22.5 -14.5 t38.5 -14.5q23 -10 23 -37q0 -18 -14.5 -30.5t-43.5 -12.5q-53 0 -59 50zM1516 49v154h22v-21q18 25 49 25h15.5t17.5 -5t14 -18.5t6 -40.5v-94h-24v94q0 41 -33 41q-16 0 -28.5 -10t-12.5 -41v-84h-26zM1579 973q0 -33 20 -33q18 0 34 15.5t28 37.5v-6q0 -25 12 -24 q16 0 33.5 20.5t32.5 42.5q0 -14 20 -18q29 0 43.5 24.5t16.5 36.5q0 16 -5.5 22.5t-19.5 28.5q4 10 10 21.5t6 17.5t-6 6q-29 0 -39 -17.5t-10 -27.5t3 -15t7 -13l2 -2q-6 -10 -15 -28t-19.5 -35t-21.5 -30.5t-19 -15.5q-4 0 -4 8q0 16 12 62.5t29 93.5q18 55 40 123 q-4 0 -8 2q-12 4 -22 4q-14 0 -23 -2q6 0 6 -10t-5 -31t-11 -45.5t-14.5 -53t-14.5 -55.5l-14 -4q6 0 6 -14q0 -12 -6 -29.5t-15.5 -35t-20.5 -30t-19 -12.5t-9 13q0 16 12.5 52t28 76t28.5 77.5t13 62.5t-18 24q-4 0 -9 -1t-14 -3h2q4 0 5 -8q0 -14 -10.5 -49t-24 -75 t-23.5 -81t-10 -67zM1628 -162h29v-28h-29v28zM1667 182v21h21v39l24 16v-55h27v-21h-27v-90q0 -16 4 -18t10 -2h13l4 -23q-8 -2 -21 -2q-23 0 -28.5 7t-5.5 40v88h-21zM1679 -121q0 35 18.5 55.5t47.5 20.5q45 0 57 -43l-26 -6q-6 25 -31 24q-37 0 -37 -49q0 -29 10.5 -39 t24.5 -10q10 0 20 6q10 10 13 25l28 -10q-16 -45 -61 -46q-29 0 -46.5 19.5t-17.5 52.5zM1741 1028q23 35 28 59q4 -8 8.5 -13t6.5 -15q0 -10 -2 -12q0 -4 -5 -17.5t-22 -13.5q-4 0 -6 6t-6 6h-2zM1784 1141q0 18 14 18q6 0 6 -4q0 -8 -16 -31q-4 12 -4 17zM1823 -119 q0 43 22 58.5t45 15.5q33 0 51.5 -19.5t18.5 -54.5q0 -37 -19.5 -55.5t-48.5 -18.5q-70 0 -69 74zM1839 90q0 20 11.5 29.5t26.5 13.5t33.5 6t35.5 8q0 23 -8.5 30t-28.5 7t-27.5 -6t-11.5 -22l-27 4q4 27 22.5 37t47.5 10q33 0 46 -11.5t13 -45.5v-37q0 -35 1 -44.5 t9 -19.5h-28q-4 4 -4 9t-2 10q-25 -23 -56 -23q-53 0 -53 45zM1843 1102q0 -10 6 -23.5t23 -13.5q12 0 23.5 5t25.5 15q27 18 39 35q6 8 8 13q0 2 -4 2q-25 -25 -37 -36.5t-26 -11.5q-10 0 -15 13q27 35 36 47t13 29q0 18 -14 18q-29 0 -48.5 -28.5t-27.5 -51.5q0 -4 -1 -6 t-1 -6zM1851 -119q0 -49 41 -49q17 0 27 12q12 12 12 37q0 49 -39 49q-41 0 -41 -49zM1866 90q0 -25 32 -24q20 0 34 11t14 40v8q-12 -4 -25.5 -6t-26 -5t-20.5 -8.5t-8 -15.5zM1882 1128q2 23 11.5 40.5t23.5 17.5q12 0 12 -10q0 -12 -10.5 -27t-22.5 -29q-4 -4 -6 -7 t-6 -7q-2 8 -2 22zM1982 -47h43l25 -98l27 98h43v-143h-27v112l-29 -112h-26l-29 112v-112h-27v143zM1999 182v21h20v39l25 16v-55h27v-21h-27v-90q0 -16 4 -18t10 -2h13l4 -23q-8 -2 -21 -2q-27 0 -33 16q-2 4 -2 31v88h-20zM2103 49v29h31v-29h-31zM2103 174v29h31v-29 h-31z" />
<glyph unicode="&#x3e;" d="M233 154q0 53 30 82.5t79 29.5q39 0 58.5 -17.5t27.5 -45.5l-25 -8q-12 47 -61 47q-41 0 -60.5 -26t-19.5 -60q0 -43 22.5 -64.5t57.5 -21.5q18 0 35.5 7t25.5 15v39h-61v27h90v-80q-45 -33 -90 -33q-51 0 -80 30.5t-29 78.5zM244 -47h30l21 -98l27 98h32l27 -100l22 100 h29l-35 -143h-30l-29 106l-29 -106h-30zM262 459l72 596l317 88l-2 4l33 18l-8 35l35 12l-4 37l32 11v36l37 7l2 34l37 4l6 35h35l10 35l37 -4l12 33l37 -6l17 30l34 -10l19 31l35 -15l20 27l33 -16l25 26l30 -22l27 24l29 -24l28 22l27 -26l31 16l22 -27l33 15l20 -31 l35 10l17 -30l34 6l15 -33l35 4l10 -35h18l576 156l-72 -596l-287 -80l-14 -14l18 -33l-28 -23l14 -32l-31 -21l11 -33l-31 -16l6 -37l-33 -12l4 -37l-35 -8v-37l-34 -8l-4 -35l-35 -2l-6 -37h-37l-10 -35l-35 4l-15 -32l-34 8l-17 -33l-35 12l-20 -30l-33 14l-22 -29 l-31 17l-27 -25l-28 20l-29 -24l-27 24l-30 -20l-25 25l-33 -17l-20 29l-35 -14l-19 30l-34 -12l-17 33l-37 -8l-12 32l-37 -4l-10 35h-35l-6 37l-37 2l-2 35l-37 8l2 35zM389 848q0 -35 31 -35q6 0 22 4q-12 0 -12 31t20.5 69.5t79.5 51.5h11q18 0 26 -13.5t8 -33.5 q0 -39 -23.5 -83t-62.5 -57q12 37 24.5 71t21.5 56l-9 9q-4 4 -9 7t-15 3t-15 -2q4 0 5 -11q0 -16 -9.5 -50t-21.5 -70.5t-21.5 -72.5t-9.5 -58q0 -25 14 -25h7q-2 0 -2 6q0 14 10 50t26 79q66 16 99.5 61.5t33.5 86.5q0 25 -14 41t-45 16h-13t-14 -2q-76 -16 -109.5 -57 t-33.5 -72zM432 -47h29l22 -98l27 98h33l24 -100l23 100h28l-32 -143h-31l-29 106l-28 -106h-31zM461 125q0 39 19.5 60.5t54.5 21.5q29 0 49 -21.5t20 -60.5v-6h-117q6 -51 48 -51q31 0 40 30l29 -4q-16 -49 -69 -49q-35 0 -54.5 20.5t-19.5 59.5zM489 141h86q-2 23 -13 34 t-27 11q-18 0 -30.5 -13t-15.5 -32zM575 760q0 -16 6.5 -27.5t22.5 -11.5q25 0 48.5 20.5t35.5 34.5q4 0 11.5 10.5t14.5 23.5t13 25.5t8 16.5q2 0 6 1t9 1h7t3 -12q-2 -6 -2 -19q0 -23 2 -40t20 -17q20 0 41 24.5t29 32.5l10 13q12 -12 12 -27v-14q0 -8 -4 -17 q-8 -14 -22 -14q-6 0 -8 6t-4 6q-4 0 -5 -2q0 -6 6.5 -12t16.5 -6q12 0 23.5 7t18.5 17.5t11 20.5t4 16q0 8 -2 18.5t-24 32.5q8 10 13 22.5t5 16.5q0 6 -6 6q-29 0 -39 -17t-10 -28q0 -10 3 -15t7 -13l-10 -15h-2l-8 -12q-4 -6 -13.5 -14t-17.5 -8q-6 0 -9 10t-3 24v19v22 t-7 6q-4 0 -20 -2t-25 -2q2 2 2 9q0 8 -6 8q-20 0 -20 -23q0 -8 5 -8h9q0 -2 -1 -3t-1 -5q-35 -66 -60.5 -83.5t-35.5 -17.5t-17 13q16 20 34 39.5t18 38.5q0 4 -3 9t-14 5q-16 0 -30.5 -10.5t-24.5 -25.5t-15.5 -30.5t-5.5 -23.5zM612 776q0 35 13.5 50.5t25.5 15.5 q8 0 8 -11q0 -17 -20 -40q-8 -14 -25 -27q0 4 -1 6t-1 6zM621 -47h28l23 -98l26 98h33l25 -100l22 100h29l-35 -143h-31l-28 106l-27 -106h-33zM623 182v21h18v39l27 16v-55h24v-21h-24v-90q0 -16 3 -18t11 -2h10l6 -23q-8 -2 -20 -2q-16 0 -23.5 4t-11.5 12q-2 4 -2 31v88 h-18zM784 182v21h25v16q0 23 8 35t35 12q4 0 10 -1t12 -1l-2 -24q-6 2 -16 2q-23 0 -22 -25v-14h30v-21h-30v-133h-25v133h-25zM811 -162h27v-28h-27v28zM866 -47h43l25 -98l27 98h43v-143h-27v112l-29 -112h-28l-27 112v-112h-27v143zM872 889q0 18 17 18q4 0 4 -4 q0 -8 -14 -31q-2 4 -4.5 8.5t-2.5 8.5zM885 106v97h26v-86q0 -29 6.5 -39t24.5 -10q41 0 41 53v82h27v-154h-25v23q-14 -27 -49 -27q-27 0 -39 13.5t-12 47.5zM934 848q0 -10 6 -22.5t23 -12.5q27 0 52 27.5t25 62.5q0 18 -9 26.5t-19 8.5q-20 0 -45 -20.5t-31 -55.5 q-2 -4 -2 -14zM954 559q0 -20 13.5 -35.5t38.5 -15.5q31 0 52 21.5t21 56.5q0 27 -15 41t-38 14q-33 0 -52.5 -23.5t-19.5 -58.5zM969 874q0 6 10 32t35 26q20 -6 20 -31q0 -33 -16.5 -48t-26.5 -15q-4 2 -6 2t-6 2q-10 10 -10 32zM979 561q0 23 13.5 40t31.5 17 q29 0 29 -32q0 -25 -13.5 -41.5t-29.5 -16.5q-12 0 -21.5 9.5t-9.5 23.5zM1018 -190l55 143h31l57 -143h-33l-12 32h-55l-12 -32h-31zM1051 49v213h26v-213h-26zM1051 887q0 -10 3 -28.5t17 -18.5q10 0 16 10q27 25 32 49.5t16 26.5v-10q0 -11 1 -23t5 -22.5t14 -10.5 q14 0 30.5 17.5t26.5 29.5q0 -27 19 -26q14 0 35.5 21.5t21.5 31.5q0 -8 7.5 -20.5t17.5 -12.5t30.5 18.5t28.5 32.5q4 -31 21 -30q12 0 23 8t20.5 18t16.5 19.5t9 11.5v4h-6q-14 -23 -23.5 -28t-13.5 -5q-10 0 -14 27v13t2 16q31 49 54.5 94t23.5 67q0 10 -8 11 q-8 0 -25.5 -13.5t-35 -40t-31 -64.5t-13.5 -89v-10v-3l-10 -10q-4 -6 -10 -13t-15 -7q-10 0 -14 14q-2 12 -4 23q-2 10 -4 17t-4 7q-4 0 -6 -6q-18 -37 -23.5 -50t-21.5 -20q-16 0 -17 17q0 18 8.5 33.5t18.5 25.5t21.5 15.5t15.5 5.5q8 0 9 -1t3 -1q0 2 2 2l2 2q0 4 -12 4 q-29 0 -58.5 -32t-40.5 -66l-8 -11l-11 -11t-13 -7t-7.5 6t-3.5 16v18.5t-1 24t-3 20.5t-6 9t-10 -10q-2 -4 -8 -17.5t-14.5 -29t-15.5 -29.5t-11 -18q-4 0 -9.5 9t-7.5 23q6 12 13.5 24.5t7.5 22.5q0 6 -8 7q-16 0 -28.5 -16.5t-16.5 -41.5v-20zM1069 -133h39l-21 53z M1079 932q0 10 2 19.5t13 9.5q2 0 3 -1.5t3 -1.5q-1 -9 -19 -40q0 4 -1 7t-1 7zM1085 510h27l18 86l35 -86h25l27 129h-25l-18 -88l-35 88h-25zM1116 49v213h27v-213h-27zM1151 -47h29l22 -98l27 98h33l24 -100l23 100h28l-34 -143h-29l-31 106l-26 -106h-31zM1217 510h94 l4 20h-66l23 109h-27zM1249 182v21h25v16q0 23 8 35t33 12q6 0 12 -1t12 -1l-2 -24q-6 2 -16 2q-12 0 -16 -4q-6 -6 -7 -21v-14h31v-21h-31v-133h-24v133h-25zM1327 639l35 -80l-10 -49h26l11 47l59 82h-31l-37 -55l-24 55h-29zM1339 125q0 41 20.5 61.5t51.5 20.5 q33 0 53.5 -20.5t20.5 -57.5q0 -41 -19.5 -62.5t-54.5 -21.5q-33 0 -52.5 20.5t-19.5 59.5zM1354 -47h26l60 -96v96h26v-143h-28l-58 92v-92h-26v143zM1366 125q0 -29 13.5 -43t31.5 -14q21 0 33 14q14 14 14 45q0 57 -47 57q-45 0 -45 -59zM1409 1020q4 57 24.5 102 t36.5 45q4 0 5 -8q-1 -20 -19 -53q-10 -20 -21.5 -41t-25.5 -45zM1489 -143l29 2q2 -27 30 -27q16 0 21.5 6t5.5 12q0 4 -1 8.5t-11 8.5q-41 10 -55.5 18.5t-14.5 28.5q0 23 16.5 32t36.5 9q29 0 41 -12.5t12 -30.5l-26 -2q-6 20 -27 20q-25 0 -24 -14q0 -10 22.5 -14.5 t38.5 -14.5q23 -10 23 -37q0 -18 -14.5 -30.5t-43.5 -12.5q-53 0 -59 50zM1516 49v154h22v-21q18 25 49 25h15.5t17.5 -5t14 -18.5t6 -40.5v-94h-24v94q0 41 -33 41q-16 0 -28.5 -10t-12.5 -41v-84h-26zM1579 973q0 -33 20 -33q18 0 34 15.5t28 37.5v-6q0 -25 12 -24 q16 0 33.5 20.5t32.5 42.5q0 -14 20 -18q29 0 43.5 24.5t16.5 36.5q0 16 -5.5 22.5t-19.5 28.5q4 10 10 21.5t6 17.5t-6 6q-29 0 -39 -17.5t-10 -27.5t3 -15t7 -13l2 -2q-6 -10 -15 -28t-19.5 -35t-21.5 -30.5t-19 -15.5q-4 0 -4 8q0 16 12 62.5t29 93.5q18 55 40 123 q-4 0 -8 2q-12 4 -22 4q-14 0 -23 -2q6 0 6 -10t-5 -31t-11 -45.5t-14.5 -53t-14.5 -55.5l-14 -4q6 0 6 -14q0 -12 -6 -29.5t-15.5 -35t-20.5 -30t-19 -12.5t-9 13q0 16 12.5 52t28 76t28.5 77.5t13 62.5t-18 24q-4 0 -9 -1t-14 -3h2q4 0 5 -8q0 -14 -10.5 -49t-24 -75 t-23.5 -81t-10 -67zM1628 -162h29v-28h-29v28zM1667 182v21h21v39l24 16v-55h27v-21h-27v-90q0 -16 4 -18t10 -2h13l4 -23q-8 -2 -21 -2q-23 0 -28.5 7t-5.5 40v88h-21zM1679 -121q0 35 18.5 55.5t47.5 20.5q45 0 57 -43l-26 -6q-6 25 -31 24q-37 0 -37 -49q0 -29 10.5 -39 t24.5 -10q10 0 20 6q10 10 13 25l28 -10q-16 -45 -61 -46q-29 0 -46.5 19.5t-17.5 52.5zM1741 1028q23 35 28 59q4 -8 8.5 -13t6.5 -15q0 -10 -2 -12q0 -4 -5 -17.5t-22 -13.5q-4 0 -6 6t-6 6h-2zM1784 1141q0 18 14 18q6 0 6 -4q0 -8 -16 -31q-4 12 -4 17zM1823 -119 q0 43 22 58.5t45 15.5q33 0 51.5 -19.5t18.5 -54.5q0 -37 -19.5 -55.5t-48.5 -18.5q-70 0 -69 74zM1839 90q0 20 11.5 29.5t26.5 13.5t33.5 6t35.5 8q0 23 -8.5 30t-28.5 7t-27.5 -6t-11.5 -22l-27 4q4 27 22.5 37t47.5 10q33 0 46 -11.5t13 -45.5v-37q0 -35 1 -44.5 t9 -19.5h-28q-4 4 -4 9t-2 10q-25 -23 -56 -23q-53 0 -53 45zM1843 1102q0 -10 6 -23.5t23 -13.5q12 0 23.5 5t25.5 15q27 18 39 35q6 8 8 13q0 2 -4 2q-25 -25 -37 -36.5t-26 -11.5q-10 0 -15 13q27 35 36 47t13 29q0 18 -14 18q-29 0 -48.5 -28.5t-27.5 -51.5q0 -4 -1 -6 t-1 -6zM1851 -119q0 -49 41 -49q17 0 27 12q12 12 12 37q0 49 -39 49q-41 0 -41 -49zM1866 90q0 -25 32 -24q20 0 34 11t14 40v8q-12 -4 -25.5 -6t-26 -5t-20.5 -8.5t-8 -15.5zM1882 1128q2 23 11.5 40.5t23.5 17.5q12 0 12 -10q0 -12 -10.5 -27t-22.5 -29q-4 -4 -6 -7 t-6 -7q-2 8 -2 22zM1982 -47h43l25 -98l27 98h43v-143h-27v112l-29 -112h-26l-29 112v-112h-27v143zM1999 182v21h20v39l25 16v-55h27v-21h-27v-90q0 -16 4 -18t10 -2h13l4 -23q-8 -2 -21 -2q-27 0 -33 16q-2 4 -2 31v88h-20zM2103 49v29h31v-29h-31zM2103 174v29h31v-29 h-31z" />
<glyph unicode="?" horiz-adv-x="595" d="M-21.5 13.5q-5.5 33.5 23 84.5t98.5 117q61 0 82 -21.5t16 -56.5t-30 -79t-53 -91q-59 -12 -95 0.5t-41.5 46zM193 334q35 74 69.5 131t68.5 103t66.5 83t65.5 70q-80 4 -124 65.5t-51 151.5t21.5 191.5t93.5 185.5q70 86 160 123t177 31.5t161 -47.5t112 -112.5 t28.5 -163.5t-87.5 -202q-92 -127 -204.5 -202.5t-220 -134t-197.5 -118t-139 -155.5zM456 802q1 -52 17 -71q37 35 75 69t78 71.5t81 83.5t86 108q61 86 82.5 153.5t15.5 112.5t-37 64.5t-74 9.5t-94 -54t-98 -124q-43 -72 -73 -151t-45 -149.5t-14 -122.5z" />
<glyph unicode="@" horiz-adv-x="1572" d="M-59 42q-4 126 26.5 273.5t100 293t181 278.5t267.5 233q59 45 149.5 88t194 75t212 48.5t206.5 11t179 -36t128 -94.5q74 -76 70 -195.5t-60.5 -254.5t-154 -271.5t-210 -246t-229 -178t-213.5 -68.5q-72 0 -84 50t13 132q-72 -80 -147.5 -131t-151.5 -51 q-68 0 -90.5 59.5t-11 152.5t51.5 209t99 228.5t134 209.5t152.5 154.5t154.5 60.5t143 -71q27 -33 32 -88q23 55 23 88t-33 33q78 0 129 -15t82 -34q37 -23 55 -49q-168 -240 -284 -428q-49 -80 -94.5 -158t-73 -137t-33.5 -96t18 -37q41 0 94.5 40t112 107.5t115.5 156.5 t106.5 187.5t88 198.5t57 191.5t13.5 166t-42 121.5q-51 47 -142 55.5t-196.5 -9t-214 -54.5t-192.5 -82q-147 -98 -263 -240.5t-191 -297t-103.5 -306t-1 -269.5t115.5 -185.5t248 -55.5q-123 -111 -220 -134t-165.5 17t-107.5 134t-43 220zM449.5 139.5 q-9.5 -69.5 33.5 -69.5t100.5 52t115 131t108.5 172t82 175t35 141.5t-33 69.5h129q10 41 7 70.5t-21 40.5q-49 25 -119 -28.5t-141.5 -149t-138 -212t-107.5 -220t-50.5 -173zM1018 1303q18 4 38 6l40 4l-40 -4t-38 -6z" />
<glyph unicode="A" horiz-adv-x="1851" d="M3 177q-1 10 -1 21q0 68 39 148q45 92 140 175t235.5 144.5t322.5 79.5q127 13 227 13q42 0 78 -2q125 -8 203 -37q137 135 263 271t225.5 249t165 191.5t84.5 101.5q29 70 35 109.5t-17 39.5q78 0 129 -15t82 -34q37 -23 55 -49q-193 -311 -352 -577 q-70 -115 -138.5 -231t-129 -218t-106.5 -185t-68 -128q-35 -72 -46.5 -116t17.5 -44q43 0 96 40t106.5 100.5t97.5 132t70.5 135t26.5 110.5t-37 57h211q-96 -186 -202 -329q-47 -61 -99.5 -120.5t-110 -106t-119 -75t-122.5 -28.5q-48 0 -68 22q-22 24 -21 65q-1 37 15 87 q16 53 43 115q20 49 57 119.5t84.5 156.5t100.5 182.5t107.5 195.5t106.5 195.5t97 182.5q-125 -129 -273.5 -293t-312.5 -334q59 -31 86 -69.5t29 -80.5v-8q1 -38 -17 -74q-20 -40 -51.5 -70t-72.5 -48q-37 -16 -74 -16h-8q14 14 21.5 39.5t5.5 57.5t-13.5 66.5t-36.5 69.5 q-117 -115 -234.5 -216t-233 -178t-226 -122t-211.5 -45q-125 0 -189.5 50t-71.5 127zM255 257q-1 -12 -2 -23q-1 -43 21 -74q26 -39 95 -39q70 0 157.5 38t186 104.5t205 154.5t212.5 188q-55 51 -152 80q-56 17 -130 17q-53 0 -115 -9q-100 -14 -184 -61t-147.5 -111.5 t-101.5 -135.5t-45 -129z" />
<glyph unicode="B" horiz-adv-x="1531" d="M34 415q18 91 84 161.5t172 105.5q58 19 126 19q56 0 119 -13h-2q-27 0 -70 -44q-45 -46 -87 -116.5t-71 -154.5q-24 -71 -24 -133q1 -12 1 -23q6 -72 53.5 -120t160.5 -48q141 0 262 56.5t212 142.5t146 184q54 98 62 184l2 24q0 70 -39 118q-45 56 -156 57h-37 q-84 -117 -157.5 -227.5t-126 -194.5t-73 -135t4.5 -51q-76 0 -89 51q-4 16 -4 34q1 43 21 102q30 85 91 194.5t134.5 225.5t147.5 229.5t128 208.5q53 96 77 162q11 31 12 51q0 23 -14 32q78 0 129 -15.5t82 -33.5q37 -23 55 -49q-68 -98 -171 -241.5t-214 -297.5h23 q119 0 228 57.5t192 143.5t133.5 187.5t54.5 187.5v13q0 78 -46 130q-50 57 -169 57q-164 0 -285 -50t-205 -125t-134 -163q-51 -88 -71 -162q-17 -62 -17 -108q0 -9 1 -17q4 -50 29 -50q-33 -5 -61 -5q-78 0 -122 36q-60 49 -60 132q0 86 62 190q62 102 181 188t293 140 q136 42 305 42q48 0 98 -3q160 -10 253 -52q93 -43 134 -105q37 -56 36 -121v-17q-5 -76 -43 -153.5t-101.5 -151t-139 -130t-156.5 -91.5t-153 -35q98 1 140 -67q33 -52 33 -125q0 -20 -3 -42q-12 -99 -78.5 -212t-184.5 -205t-288 -144q-118 -37 -259 -37q-62 0 -128 7 q-176 18 -277.5 85t-140.5 153q-26 58 -26 119q-1 29 5 58z" />
<glyph unicode="C" horiz-adv-x="927" d="M68 222q-7 43 -7 92q1 66 13 142q22 132 74.5 275t129 286.5t168 268.5t190.5 222q100 96 198 142q79 37 152 37q18 -1 37 -3q91 -12 165 -101q60 61 122 85q27 10 55 10q36 0 73 -17q-25 0 -71 -78t-110.5 -193.5t-142.5 -248.5t-164 -245t-179 -180q-79 -58 -158 -59 q-14 0 -27 2q35 2 74.5 50.5t85 125t93.5 173t99 194.5t106.5 190.5t114.5 159.5q-30 22 -68 22q-36 0 -78 -20q-87 -41 -184.5 -138t-198 -234.5t-184.5 -289t-144 -300t-78 -266.5q-7 -44 -7 -82q-1 -64 19 -111q32 -74 133 -74q63 0 136 42t143.5 104.5t131 138.5 t96.5 142q34 67 42 115q1 8 2 15q0 35 -31 43h213q-113 -186 -240 -329q-55 -61 -117.5 -120.5t-130 -106t-140.5 -75t-146 -28.5q-119 0 -181.5 60t-78.5 162z" />
<glyph unicode="D" horiz-adv-x="1669" d="M26 415q18 91 84 161.5t172 105.5q58 19 126 19q56 0 118 -13h-2q-28 0 -70 -44q-44 -46 -86 -116.5t-71 -154.5q-24 -71 -24 -133q1 -12 1 -23q6 -72 53.5 -120t159.5 -48q113 0 238 63.5t248 168t234.5 238.5t199.5 276.5t144.5 280.5t68.5 252q3 25 3 49q0 83 -33 143 q-42 78 -148 96q-70 13 -133 13q-83 0 -153 -22q-124 -38 -214 -111t-147.5 -165t-85 -175t-27.5 -139t25 -56q-28 -4 -53 -4q-54 -1 -92 21q-54 32 -70 91q-8 28 -8 60q0 36 10 77q18 78 71 157t137 150.5t198 116.5q114 46 255 58q33 3 67 3q113 0 240 -32 q162 -39 241 -135.5t90 -225.5q2 -23 2 -47q0 -109 -41 -233q-50 -152 -143 -301.5t-223.5 -286.5t-282 -238.5t-315.5 -154.5q-126 -41 -250 -41q-38 0 -75 4q-176 18 -277.5 85t-140.5 153q-26 58 -26 119q-1 29 5 58zM458 162q-2 12 -2 26q0 52 26 128q34 96 102.5 218.5 t148.5 254t160 259.5t139.5 233t85.5 177q13 36 14 59q0 23 -14 33q78 0 129 -15t82 -34q37 -23 55 -49q-43 -63 -106.5 -154.5t-137 -198t-152.5 -222t-151.5 -226t-135 -210t-104.5 -174t-57.5 -119t5.5 -44.5q-78 0 -87 58z" />
<glyph unicode="E" horiz-adv-x="991" d="M76 305q-1 10 -1 20q0 88 48 195q57 129 142 198.5t163 102.5q92 37 188 45q-10 10 -42.5 48t-56 101.5t-25.5 149.5q0 4 -1 8q0 83 50 185q57 121 148 198.5t193 108.5q66 20 130 20q34 1 68 -5q98 -16 165 -87q53 59 117 83q25 9 52 9q43 0 91 -24q-25 0 -57.5 -54.5 t-74.5 -134t-95 -171t-117.5 -167t-142.5 -120.5q-62 -36 -132 -36q-19 0 -38 3q31 2 60.5 31.5t58 77t57.5 107.5t58.5 123.5t63.5 125t71 110.5q-38 23 -90 23q-10 0 -20 -1q-65 -5 -131.5 -41t-128 -103.5t-102.5 -163.5q-44 -107 -44 -192q1 -6 1 -12q4 -89 25 -151 q27 -72 78 -127q-96 -6 -187 -40q-78 -29 -160.5 -92.5t-140.5 -178.5q-49 -96 -57 -174q-2 -22 -3 -42q-1 -51 15 -90q20 -54 64.5 -83t99.5 -29q61 0 135 42t143.5 104.5t130 138.5t97.5 142.5t44 114.5q1 8 1 14q0 35 -31 44h211q-113 -186 -239 -329 q-53 -61 -115.5 -120.5t-130.5 -106t-140.5 -75t-146.5 -28.5q-80 0 -152.5 37t-116.5 104.5t-50 163.5z" />
<glyph unicode="F" horiz-adv-x="1077" d="M66 124q10 58 43.5 137t82 170t107.5 189.5t121 196.5q-64 20 -130 20q-2 -1 -4 -1q-68 0 -134 -37q49 41 127.5 57t175.5 21q66 104 124 201.5t99 175.5q42 78 60 134q10 29 9 49q0 18 -8 29q-100 16 -189 24q-41 4 -78 4q-44 0 -82 -5q-71 -10 -117 -43t-60 -98 q12 96 80.5 150t174.5 81t238 32q74 3 149 3q60 0 122 -2q139 -4 275 -12q98 -5 183 -5q33 0 65 1q112 3 189.5 23t100.5 69q-18 -98 -66.5 -160t-117.5 -94q-70 -32 -157 -42q-52 -6 -107 -6q-38 0 -78 2q-98 6 -199.5 21.5t-202.5 34.5q33 -16 51.5 -39t28.5 -43 q10 -23 16 -49l-301 -439q90 -4 177.5 -10t161.5 -9q28 -1 52 -1q42 0 76 3q56 5 80 24q-82 -121 -160.5 -169t-157.5 -50q-6 0 -12 -1q-73 0 -144 29q-77 31 -155 66q-92 -139 -180 -274.5t-151 -243.5q-62 -106 -90 -172q-14 -33 -14 -50q0 -16 14 -16q-57 0 -77 33 q-14 22 -14 56q0 16 3 35z" />
<glyph unicode="G" horiz-adv-x="1093" d="M112 228v6q0 102 34 233q36 135 99.5 280.5t148.5 292t182.5 273.5t202 223t204.5 141q75 34 146 34q23 0 47 -4q92 -15 163 -114q59 59 122 81q24 8 50 8q40 0 82 -21q-25 0 -66.5 -66.5t-98 -165t-127 -211t-149.5 -206.5t-167 -152q-73 -47 -148 -47q-16 0 -32 2 q35 2 70.5 42t74.5 103.5t80 143.5t86 162t93 158.5t100 136.5q-39 31 -86 31q-32 0 -69 -15q-89 -37 -188.5 -132t-200.5 -235.5t-191.5 -294t-162 -306t-111.5 -275.5q-39 -120 -39 -195q0 -80 54 -80q43 0 86 25t86 64.5t83 90t77 103.5q84 125 164 285l49 -4 q-35 -78 -80 -158q-39 -68 -91 -147.5t-111 -149.5q61 94 113 189.5t85 174t42 134.5q3 15 3 27q0 32 -18 44q94 0 149.5 -21.5t83.5 -43.5q-90 -174 -172 -342t-180 -300t-222 -214t-296 -82q33 0 81 35.5t103.5 96t113.5 139.5t114 163q-66 -72 -136.5 -120t-142.5 -48 q-98 0 -142 62.5t-45 165.5z" />
<glyph unicode="H" horiz-adv-x="1161" d="M29 573q20 68 60 109t92 62q53 20 113 25q43 4 89 4q18 0 37 -1q55 94 111.5 187.5t109.5 182.5t98 169t80 147q-68 -86 -161 -175t-177 -174t-145.5 -160t-65.5 -134q-47 89 -47 162q-1 19 3 37q16 86 75 153.5t148.5 120.5t176.5 102.5t157.5 96.5t95.5 104l10 41v4 q4 35 -10 45q78 0 129 -15t82 -34q37 -23 55 -49q-41 -57 -101.5 -147t-133 -201t-153.5 -234.5t-159 -246.5q56 -6 108 -10q32 -3 59 -4q19 0 36 2q43 3 74.5 17.5t48.5 43.5l-13 -27q61 104 125 212t120 208t103.5 188.5t76 155t35.5 104t-15 37.5q78 0 128 -15t81 -34 q37 -23 55 -49q-201 -311 -373 -577q-74 -115 -146.5 -231t-136 -218t-112.5 -185t-74 -128q-39 -72 -51 -116t16 -44q43 0 97.5 40t109 100.5t102.5 132t76 135.5q30 68 29 115q0 43 -35 52h213q-102 -186 -215 -329q-49 -61 -103 -120.5t-113.5 -106t-122 -75 t-124.5 -28.5q-47 0 -66.5 22.5t-19.5 60.5t18.5 91t47.5 115q29 61 84 159.5t125 217.5q-35 -41 -76 -61.5t-85 -26.5q-20 -3 -42 -4q-24 0 -49 4q-47 8 -94 20q-76 -123 -140.5 -231.5t-107.5 -189.5t-59.5 -129t4.5 -48q-69 0 -81 52q-4 16 -3 37q0 45 18 105 q27 90 85 206t132 247q-53 15 -102 27q-34 8 -64 9q-13 0 -26 -2q-41 -5 -74 -29.5t-53 -78.5z" />
<glyph unicode="I" horiz-adv-x="692" d="M92 83q0 38 18.5 91t47.5 115q25 53 71.5 137t106 185.5t125 213t130 222t122 214t100.5 187.5q-68 -86 -160 -173t-175 -170t-143.5 -158t-64.5 -132q-46 90 -46 161q0 17 2 33q14 83 70 149.5t140 119.5t170 101t159 94.5t105 99.5q6 16 11.5 32.5l9.5 28.5v2 q11 45 -14 45q78 0 129 -15t79 -34q35 -23 54 -49q-199 -311 -371 -577q-74 -115 -146.5 -231t-137 -218t-113.5 -185t-74 -128q-37 -72 -50.5 -116t15.5 -44q43 0 98.5 40t109.5 100.5t102 131.5q48 72 76 136q30 68 30 115q0 43 -35 52h213q-102 -186 -215 -329 q-49 -61 -103.5 -120.5t-113.5 -106t-121.5 -75t-124.5 -28.5q-47 0 -66.5 22.5t-19.5 60.5z" />
<glyph unicode="J" horiz-adv-x="1140" d="M26 -62q-8 32 -8 66q0 45 14 94q23 86 78.5 169t130 135.5t159.5 59.5q8 1 16 1q77 0 151 -60q-37 0 -92 -33.5t-113.5 -87t-113.5 -118t-89 -123.5t-42 -107q-1 -8 -1 -16q0 -35 29 -51q18 -10 39 -10q30 0 66 21q63 36 137 115t155 193.5t162.5 247.5t160.5 277.5 t147.5 283t124 263t90.5 219.5q-45 -68 -107.5 -140.5t-130 -147.5t-133 -146.5t-119 -137t-87.5 -121t-36 -96.5q-44 86 -44 161q0 22 4 43q16 93 78.5 173t154.5 148.5t183 131t167 120t105 116.5q15 52 15 77q0 23 -13 23q78 0 129 -15t82 -34q35 -23 53 -49 q-264 -551 -520 -962q-109 -176 -227.5 -337t-235.5 -277t-227 -167q-59 -28 -114 -28q-46 0 -89 20q-72 33 -89 106z" />
<glyph unicode="K" horiz-adv-x="1122" d="M44 44q-6 19 -7 45q1 32 11 74q18 75 64 176t108.5 216t135 236.5t143 240.5t134 227.5t106.5 194.5q-68 -86 -160 -174t-177 -172t-145 -159t-64 -134q-46 89 -46 161q0 18 3 35q14 85 71.5 152.5t143.5 119.5t172 100.5t157.5 95.5t102.5 100q16 45 16 71q0 22 -12 31 q78 0 129 -15t82 -34q37 -23 55 -49q-41 -57 -101.5 -147t-133 -201t-153.5 -234.5t-159 -246.5q84 43 183.5 120.5t198.5 171t191.5 192.5t162.5 183q69 85 108 143q34 51 34 67q0 3 -1 5q115 -6 147 -51q17 -24 18 -54q0 -27 -14 -59q-28 -68 -107 -152.5t-188.5 -172.5 t-237.5 -172t-253 -150q53 -4 93 -21.5t67 -37.5q31 -23 53 -53q-109 -176 -178 -316q-31 -59 -55 -115q-24 -57 -38 -101q-11 -36 -12 -60q0 -5 1 -11q3 -26 28 -26q43 0 96 40t105.5 100.5t97.5 132t70.5 135t25.5 110.5t-37 57h213q-94 -186 -202 -329 q-47 -61 -99.5 -120.5t-111 -106t-120 -75t-122.5 -28.5t-86 30q-24 28 -24 75q1 49 21 117q20 64 47.5 134t57 139.5t49 130t23.5 105.5q1 7 1 13q0 35 -19 55q-57 -29 -110.5 -50.5t-102.5 -37.5q-88 -139 -166 -268.5t-132 -227.5q-52 -99 -76 -157q-12 -30 -13 -44 q0 -14 12 -14q-61 0 -75 44z" />
<glyph unicode="L" horiz-adv-x="1155" d="M41 14q49 66 103.5 104t111.5 56q56 19 116 20h12q54 0 110 -8q-26 24 -26 71q0 20 5 44q16 80 65.5 186.5t122 230.5t152.5 251t155.5 247.5t129.5 217.5q54 98 78 164q12 32 12 53t-12 30q78 0 131 -15t86 -34q37 -23 61 -49q-55 -80 -142 -206t-187.5 -272.5 t-201 -299t-182.5 -282.5t-133 -224t-49 -125q88 -18 172 -45t161 -41q54 -10 102 -10q20 0 40 2q64 6 113 55q-61 -115 -127 -168t-136 -65q-26 -4 -51 -4q-45 0 -89 12q-70 20 -143 51t-145 65t-142 50q-44 10 -87 10q-26 0 -52 -4q-69 -10 -134 -68z" />
<glyph unicode="M" horiz-adv-x="1351" d="M45 112q14 78 64.5 184.5t121 226.5t154.5 248t168 252t158.5 236.5t128.5 200.5t76 146q11 29 11 48t-12 27q23 4 44 4q25 0 49 -6q42 -10 73 -26q37 -18 64 -45q-168 -365 -293 -650q-53 -121 -102.5 -237.5t-83 -207.5t-49 -146.5t0.5 -55.5q285 369 500 662 q92 125 177 246.5t146.5 220t91.5 164.5q18 40 18 60q0 13 -7 17q78 0 129 -15t82 -34q35 -23 53 -49q-199 -311 -370 -577q-74 -115 -146.5 -231t-137 -218t-114 -185t-73.5 -128q-37 -72 -50.5 -116t15.5 -44q43 0 98 40t109.5 100.5t101.5 132t76 135.5q31 68 31 115 q0 43 -35 52h213q-102 -186 -215 -329q-49 -61 -103.5 -120.5t-114 -106t-122 -75t-123.5 -28.5q-47 0 -66.5 22.5t-19.5 60.5t17.5 91t45.5 115q35 74 108 199.5t160 273t177 302.5t160 284q-70 -115 -162 -253.5t-194.5 -278.5t-204 -276.5t-189.5 -248t-152.5 -189 t-89.5 -102.5q-33 0 -33 60q1 4 1 8q2 68 28.5 181t72.5 256.5t101.5 294t112.5 293t106 255.5q-66 -106 -145.5 -252t-158.5 -302.5t-152.5 -309t-123.5 -273.5q-51 -121 -73 -195q-12 -39 -12 -59q0 -16 10 -16q-86 0 -114 46q-18 30 -18 75q0 24 5 50zM1544 1681 q16 0 17 -20q-3 14 -17 20z" />
<glyph unicode="N" horiz-adv-x="1155" d="M20 112q2 78 41 184.5t100.5 226.5t138.5 248t153.5 252t147.5 236.5t120 200.5t69 146q10 28 10 46q0 20 -12 29q23 4 44 4q28 0 52 -6q44 -10 74 -26q37 -18 66 -45q-102 -315 -178 -600q-33 -121 -62.5 -248t-49.5 -245t-30 -219q-4 -47 -5 -87q0 -46 6 -84 q4 70 37.5 171t85 218t115 245t127 253t119.5 238.5t94 203.5q37 90 51 150q5 21 5 37q0 29 -16 40q78 0 134 -15t93 -34q43 -23 74 -49q-39 -63 -104.5 -164.5t-144.5 -224.5t-164 -259t-162.5 -269.5t-143 -254t-103.5 -211.5q-38 -92 -43 -146q-1 -6 -1 -10q0 -44 39 -44 q-113 0 -170.5 69.5t-73.5 183.5q-8 57 -8 122t8 138q16 146 49 300t73 303.5t73 269.5q-55 -100 -123 -246.5t-135.5 -307t-128 -320.5t-102.5 -287q-43 -127 -59 -205q-7 -33 -7 -52q0 -27 14 -27q-101 0 -145 46q-41 44 -42 116v9z" />
<glyph unicode="O" horiz-adv-x="1085" d="M102 294q14 134 70.5 302t139.5 338t185.5 324.5t208.5 261.5q108 108 210 151q46 19 88 19q52 0 98 -29q-8 12 -27 20q40 8 73 8q44 0 76 -14q54 -23 76 -81q16 -43 16 -103q0 -19 -2 -40q-7 -85 -39 -186.5t-83 -216t-116.5 -230.5t-142.5 -228.5t-157 -210.5 q-2 -31 9.5 -49.5t45.5 -18.5q45 0 99.5 43t93.5 100.5t50 113.5q2 12 2 23q0 39 -32 60h213q-68 -111 -141 -196q-31 -37 -67.5 -73t-76.5 -63.5t-82 -44t-85 -16.5q-35 0 -59.5 10.5t-40.5 26.5q-121 -135 -237 -219t-208 -84q-100 0 -136 84q-26 60 -26 145q0 35 4 73z M262 124q2 -64 49 -65q72 0 164 98.5t191 252.5q-1 11 -1 21q0 27 4 53q5 38 13 69q8 37 18 68q33 113 95.5 196.5t140.5 114.5q45 104 82 203.5t62 187.5q24 87 36 159q8 48 8 86q0 19 -2 36q-59 -8 -135 -79t-159 -180.5t-165.5 -248t-155.5 -281.5t-131 -279 q-56 -136 -86 -242q-28 -100 -28 -162v-8z" />
<glyph unicode="P" horiz-adv-x="1136" d="M166 144q14 66 55 154.5t96.5 190t122 209t130 212t119.5 199.5t95 171q38 76 52 126q5 18 5 32q0 24 -14 35q78 0 123 -26t68 -54q27 -37 35 -80q-35 -49 -81 -117t-100.5 -146.5t-113 -164.5t-117.5 -174q92 4 179 45t165 104.5t141.5 144t106.5 165.5t63 166 q13 53 12 99q0 25 -4 47q-10 66 -55 107t-129 47q-29 2 -57 2q-127 0 -227 -38q-120 -46 -205.5 -120.5t-135 -164.5t-71.5 -169q-18 -67 -18 -115q0 -9 1 -17q4 -53 29 -53q-34 -5 -63 -5q-78 0 -121 36q-58 48 -58 128q0 84 62 186q61 100 180 186t294 142q151 48 342 48 q31 0 63 -1q145 -6 235 -52q90 -45 130 -117q36 -64 35 -142v-20q-5 -90 -50 -184.5t-127 -183.5t-193.5 -158.5t-252 -112.5t-300.5 -43q-86 -129 -161.5 -249t-128.5 -213q-54 -94 -76 -150q-11 -27 -11 -40q0 -16 13 -16q-60 0 -78 39q-10 22 -10 52q0 24 6 53z" />
<glyph unicode="Q" horiz-adv-x="1042" d="M132 463q7 121 55.5 273.5t122 304t166.5 289.5t191.5 230.5t196.5 125.5q37 13 71 13q58 0 109 -36q-12 12 -28 18q43 8 78 8q52 0 88 -17q59 -30 78 -96q11 -35 11 -79q0 -37 -7 -81q-17 -95 -59 -205.5t-106.5 -230.5t-142 -234.5t-164.5 -217t-176 -178.5 q-10 -53 -16 -101q-4 -36 -4 -66v-19q2 -37 12 -58.5t33 -21.5q43 0 96.5 40t106.5 100.5t97 132t70.5 135t26.5 110.5t-37 57h213q-94 -186 -202 -329q-47 -61 -99.5 -120.5t-111 -106t-119.5 -75t-123 -28.5q-90 0 -117 62q-23 52 -23 123q0 16 1 32q-31 -12 -60.5 -19.5 t-56.5 -7.5q-100 0 -139 76q-33 64 -33 161q0 18 1 36zM305 302q10 -44 51 -44q33 0 70 18q10 78 27.5 161t26.5 157q6 48 6 87q0 22 -2 42q-5 55 -40 78q-49 -109 -84.5 -207t-49.5 -173q-9 -44 -9 -78q0 -23 4 -41zM455 825q13 1 26 1q49 0 87 -13q48 -16 81 -39 q37 -27 66 -61q-10 -25 -19 -56q-8 -27 -18.5 -61.5t-20.5 -75.5q57 84 111.5 182.5t103 202t88 206.5t66.5 196.5t38 170.5q6 44 6 80q0 26 -3 48q-61 -4 -141 -75t-163 -182.5t-164 -248.5t-144 -275z" />
<glyph unicode="R" horiz-adv-x="1218" d="M112 60q-2 13 -2 28q0 53 28 128q36 97 104.5 222t148.5 258t161 264.5t142 237.5q60 106 86 180q13 36 14 60q0 24 -14 35q78 0 122 -26t67 -54q27 -37 35 -80q-55 -82 -140.5 -204t-179.5 -261q115 2 219.5 59.5t183 143.5t126 185t52.5 185v17q0 76 -41 130 q-46 60 -153 68q-29 2 -57 2q-128 0 -228 -38q-120 -46 -204 -120.5t-134 -164.5q-52 -90 -72 -169q-17 -66 -17 -114q0 -9 1 -18q4 -53 29 -53q-34 -5 -63 -5q-78 0 -122 36q-59 47 -59 126v5q2 83 63.5 183.5t180.5 186.5q119 85 293 141q150 48 340 48q31 0 63 -1 q170 -6 267.5 -63t130.5 -142q18 -45 17 -95q0 -45 -13 -91q-29 -100 -110 -193t-210 -167t-297 -107q49 -6 87 -23.5t63 -37.5q29 -23 49 -49q-109 -176 -178 -316q-31 -59 -55 -115q-24 -57 -38 -101q-11 -35 -11 -59q1 -6 1 -12q4 -26 27 -26q43 0 96.5 40t105.5 100.5 t97 132t70.5 135t25.5 110.5t-36 57h212q-96 -186 -202 -329q-47 -61 -99.5 -120.5t-109.5 -106t-118.5 -75t-123.5 -28.5q-66 0 -89 33q-21 30 -21 78v8q2 53 25.5 121.5t53 142.5t59.5 145.5t46 131.5q13 48 13 83q0 9 -1 17q-4 41 -41 51q-59 -6 -123 -6h-2 q-96 -145 -190 -288.5t-162 -258.5q-67 -114 -99 -186q-16 -37 -17 -56q0 -16 14 -16q-77 0 -87 60z" />
<glyph unicode="S" horiz-adv-x="1042" d="M79 373q9 86 38.5 164.5t78 144.5t104.5 98q47 27 98 28q10 0 20 -1q62 -6 119 -70q-5 1 -10 1q-28 0 -65 -37q-44 -44 -86 -114.5t-76 -156.5t-46 -164q-5 -33 -5 -63q0 -39 9 -72q16 -57 78 -72q16 -4 35 -4q33 -1 71 11q60 18 117 59t102.5 104.5t60.5 145.5 q6 31 6 65q0 55 -16 116q-24 99 -106 212q-94 129 -122 251q-16 70 -15 135q1 48 9 94q20 106 77 193t132 145t158 84q52 16 100 16q28 0 54 -5q76 -16 113 -51t47 -80q59 82 131 119q32 17 69 17q44 0 95 -25q-25 0 -57.5 -54.5t-74.5 -134t-95 -171t-119 -167t-144 -120.5 q-61 -36 -131 -36q-19 0 -38 3q43 2 80.5 51t74.5 122t76 158t84 161q0 55 -25.5 97t-91.5 56q-19 4 -39 4q-36 0 -74 -14q-58 -22 -103.5 -71.5t-77 -120t-35.5 -154.5q-1 -12 -1 -23q0 -73 24 -153q28 -92 99 -185q80 -105 102 -217q12 -59 13 -116q-1 -53 -11 -105 q-20 -109 -77 -203t-137 -160q-80 -68 -173 -98q-56 -18 -112 -18l-74 8q-96 20 -151 78q-56 57 -76 133q-14 53 -14 110q0 26 3 52z" />
<glyph unicode="T" horiz-adv-x="837" d="M183 58q-3 15 -3 32q0 51 25 123q33 96 98.5 220t143 255t155.5 260t136 234q58 106 82 179q12 35 11 57q0 25 -14 36h2q-107 14 -203 22q-43 4 -82 4q-48 0 -90 -6q-76 -10 -126 -43.5t-62 -103.5q8 96 75.5 152.5t172.5 86.5q106 30 238 38q118 8 242 7h30 q140 -1 274 -4q51 -1 98 -1q79 0 149 3q112 5 188.5 26.5t99.5 70.5q-16 -98 -61.5 -160.5t-113 -97.5t-153.5 -46q-68 -9 -141 -9q-20 0 -40 1q-95 3 -196.5 16t-202.5 30q43 -16 68 -41t39 -47q14 -27 20 -58q-43 -63 -104 -152t-130 -191.5t-141.5 -213t-139 -216 t-123 -200t-93.5 -166t-49 -113.5t8 -42q-76 0 -87 58z" />
<glyph unicode="U" horiz-adv-x="1085" d="M64 175q14 81 60 188.5t110.5 228.5t141.5 249t151.5 248.5t139 228t107.5 188.5t55.5 128t-18.5 47q44 7 78 7q57 0 86 -20q42 -30 42 -89q0 -7 -1 -15q-6 -70 -56.5 -173t-124 -221.5t-163.5 -246.5t-176 -251t-160 -232.5t-117 -192.5q-46 -89 -46 -137q0 -44 54 -44 q47 0 108.5 40.5t124 103t118 137.5t90 140.5t40.5 113.5q1 7 1 13q0 36 -31 45h90q63 117 132 239t133.5 235.5t117.5 213t86 174t39 117.5t-23 43q78 0 133.5 -15t90.5 -34q41 -23 69 -49q-279 -420 -483 -749q-88 -141 -168 -275.5t-137 -240.5q-56 -106 -80 -170 q-11 -31 -11 -47q0 -17 13 -17q43 0 96 40t106.5 100.5t97.5 132t70.5 135t26.5 110.5t-37 57h213q-94 -186 -202 -329q-47 -61 -99.5 -120.5t-111 -106t-120 -75t-122.5 -28.5q-60 0 -66 60q-1 8 -1 16q0 56 30 143q-88 -92 -185 -155.5t-194 -63.5q-80 0 -106 47 q-17 31 -16 76q-1 24 4 52z" />
<glyph unicode="V" horiz-adv-x="1093" d="M94 47q-7 21 -6 50q0 34 10 78q18 81 60.5 188.5t98.5 228.5t121.5 249t128 248.5t116 228t86 188.5t39 128t-24.5 47q78 0 133 -15t90 -34q41 -23 70 -49q-258 -432 -443 -768q-78 -143 -148.5 -278.5t-115.5 -237.5q-45 -101 -58 -159q-3 -15 -3 -26q0 -22 15 -22 q5 0 11 2q72 23 159 102.5t178 192.5t184.5 251t175.5 279.5t149.5 274.5t109.5 239.5t54 172.5q4 21 4 37q0 33 -18 38q36 5 65 5q66 0 101 -24q50 -35 50 -109q0 -77 -45 -185q-44 -106 -119 -229t-173 -255t-208 -259t-223.5 -240t-217 -199t-190.5 -136t-144 -50 q-58 0 -72 47z" />
<glyph unicode="W" horiz-adv-x="1513" d="M68 175q12 81 54 188.5t103.5 228.5t134 249t143 248.5t132 228t101.5 188.5t51.5 128t-19.5 47q44 7 78 7q57 0 87 -20q45 -32 45 -96v-8q-3 -70 -50 -173t-118 -221.5t-156 -246.5t-168 -251t-153.5 -232.5t-111.5 -192.5q-42 -85 -42 -134q0 -47 57 -47 q47 0 108.5 40.5t123.5 103t117.5 137.5t90.5 140.5t41 113.5q1 7 1 13q0 37 -32 45h84q59 115 123.5 234t124 229.5t110 206.5t80 168t35 114t-23.5 42q78 0 133 -15.5t90 -33.5q41 -23 69 -50q-268 -426 -458 -753q-82 -139 -155 -272.5t-121 -233.5q-47 -101 -63 -157 q-5 -17 -6 -27q0 -19 16 -19q5 0 11 2q72 23 158 102.5t177 192.5t182 251t172 279.5t146.5 274.5t107.5 239.5t54 172.5q3 20 3 35q0 34 -19 40q36 5 65 5q66 0 101 -24q52 -36 52 -115q0 -75 -43 -179q-44 -106 -117.5 -229t-171 -255t-206 -259t-221 -240t-215 -199 t-189.5 -136t-144 -50q-66 0 -74 60q-2 12 -2 26q0 55 27 137q-90 -92 -188.5 -157.5t-196.5 -65.5q-80 0 -108 47q-20 33 -20 84q0 20 3 44z" />
<glyph unicode="X" horiz-adv-x="1079" d="M32 142q14 76 75 178t147 204.5t184.5 193.5t184.5 144q-34 24 -34 75q-1 45 17 105q18 62 50 132.5t66 142.5t66 137q32 66 48 116q13 40 13 68q0 6 -1 12q-4 30 -39 31q78 0 129 -15t82 -34q37 -23 55 -49q-119 -180 -198 -323q-35 -61 -64 -119t-45 -103 q-15 -42 -15 -69q0 -31 25 -31q43 0 99.5 50t113 125t106.5 165t79.5 169t32.5 136v8q0 49 -33 60q61 12 105 12q62 1 90 -23q33 -28 33 -75q0 -21 -6 -45q-22 -80 -95.5 -183.5t-171 -202t-200 -175t-179.5 -103.5q59 0 84.5 -34t25.5 -89t-19.5 -124.5t-47 -143.5 t-59 -143.5t-56.5 -125t-38 -89t-3 -33.5q43 0 99.5 41t112.5 102.5t107.5 134t81 138t33.5 112.5v9q0 39 -33 48h213q-102 -186 -215 -329q-49 -61 -104 -120.5t-114.5 -106t-122 -74t-124.5 -27.5q-72 0 -83 56q-4 19 -4 41q0 45 16 103q22 87 64 190.5t78 196.5t50 163 q4 21 5 37q0 38 -23 53q-47 -23 -106.5 -90.5t-119 -155.5t-110.5 -186.5t-82 -182.5t-36 -142q-1 -7 0 -14q0 -45 30 -53q-57 -11 -98 -11q-58 -1 -86 21q-39 29 -39 83q0 15 3 31z" />
<glyph unicode="Y" horiz-adv-x="1140" d="M84 196q16 80 64.5 157t117 123t149.5 49h7q78 0 156 -62q-37 0 -88.5 -31t-103.5 -77t-99 -103t-76 -111.5t-32 -97.5v-7q0 -38 32 -56q19 -11 42 -11q41 0 93 37q80 57 172 171t190.5 270.5t188.5 324.5q-61 -51 -129 -82t-139 -31q-98 0 -134 45q-29 36 -29 90 q0 12 1 26q8 71 49 163t95.5 187.5t110.5 187.5t94 163.5t48 115.5t-28 44q67 11 114 11q36 0 61 -6q58 -15 73 -54q5 -15 5 -34q0 -29 -13 -65q-23 -60 -67 -132t-101.5 -148.5t-114 -152.5t-103.5 -143.5t-70 -118.5q-16 -37 -16 -63q0 -11 3 -19q9 -31 67 -31 q47 0 102 34t108.5 86t98.5 114.5t69.5 118t24.5 96t-37 51.5h82q43 98 77 181t52.5 144.5t21.5 96t-13 34.5q78 0 128 -15t80 -34q37 -23 56 -49q-244 -520 -484 -905q-102 -164 -213.5 -315.5t-223 -259t-219.5 -154.5q-56 -25 -109 -25q-48 0 -93 21q-72 33 -93 103 q-12 39 -12 82q0 32 7 66z" />
<glyph unicode="Z" horiz-adv-x="1236" d="M12 -66q111 180 243 328t269.5 271.5t272.5 231t253.5 209t214 203t152.5 214.5q53 14 106.5 42.5t102.5 63.5q-82 -20 -166 -26.5t-163.5 -9.5t-153.5 -7t-133.5 -23.5t-101.5 -58t-60 -108.5q27 141 70 221t97 117q53 38 117 42q19 1 39 2q47 0 95 -8q70 -10 144 -26 q72 -15 146 -19q14 -1 28 -1q59 0 117 14q71 18 136 75q-109 -238 -253 -422t-305 -330.5t-327 -261t-313 -212t-266 -183.5t-187 -176q76 47 156 63.5t158 17.5h26q66 0 128 -4q54 -4 103 -3h39q68 2 128.5 19.5t107.5 66.5q-61 -115 -123.5 -176.5t-124.5 -87.5 q-58 -25 -118 -25h-8q-64 2 -128.5 14.5t-129 28t-128.5 18.5h-18l-112 -16q-64 -20 -130 -78z" />
<glyph unicode="[" d="M233 154q0 53 30 82.5t79 29.5q39 0 58.5 -17.5t27.5 -45.5l-25 -8q-12 47 -61 47q-41 0 -60.5 -26t-19.5 -60q0 -43 22.5 -64.5t57.5 -21.5q18 0 35.5 7t25.5 15v39h-61v27h90v-80q-45 -33 -90 -33q-51 0 -80 30.5t-29 78.5zM244 -47h30l21 -98l27 98h32l27 -100l22 100 h29l-35 -143h-30l-29 106l-29 -106h-30zM262 459l72 596l317 88l-2 4l33 18l-8 35l35 12l-4 37l32 11v36l37 7l2 34l37 4l6 35h35l10 35l37 -4l12 33l37 -6l17 30l34 -10l19 31l35 -15l20 27l33 -16l25 26l30 -22l27 24l29 -24l28 22l27 -26l31 16l22 -27l33 15l20 -31 l35 10l17 -30l34 6l15 -33l35 4l10 -35h18l576 156l-72 -596l-287 -80l-14 -14l18 -33l-28 -23l14 -32l-31 -21l11 -33l-31 -16l6 -37l-33 -12l4 -37l-35 -8v-37l-34 -8l-4 -35l-35 -2l-6 -37h-37l-10 -35l-35 4l-15 -32l-34 8l-17 -33l-35 12l-20 -30l-33 14l-22 -29 l-31 17l-27 -25l-28 20l-29 -24l-27 24l-30 -20l-25 25l-33 -17l-20 29l-35 -14l-19 30l-34 -12l-17 33l-37 -8l-12 32l-37 -4l-10 35h-35l-6 37l-37 2l-2 35l-37 8l2 35zM389 848q0 -35 31 -35q6 0 22 4q-12 0 -12 31t20.5 69.5t79.5 51.5h11q18 0 26 -13.5t8 -33.5 q0 -39 -23.5 -83t-62.5 -57q12 37 24.5 71t21.5 56l-9 9q-4 4 -9 7t-15 3t-15 -2q4 0 5 -11q0 -16 -9.5 -50t-21.5 -70.5t-21.5 -72.5t-9.5 -58q0 -25 14 -25h7q-2 0 -2 6q0 14 10 50t26 79q66 16 99.5 61.5t33.5 86.5q0 25 -14 41t-45 16h-13t-14 -2q-76 -16 -109.5 -57 t-33.5 -72zM432 -47h29l22 -98l27 98h33l24 -100l23 100h28l-32 -143h-31l-29 106l-28 -106h-31zM461 125q0 39 19.5 60.5t54.5 21.5q29 0 49 -21.5t20 -60.5v-6h-117q6 -51 48 -51q31 0 40 30l29 -4q-16 -49 -69 -49q-35 0 -54.5 20.5t-19.5 59.5zM489 141h86q-2 23 -13 34 t-27 11q-18 0 -30.5 -13t-15.5 -32zM575 760q0 -16 6.5 -27.5t22.5 -11.5q25 0 48.5 20.5t35.5 34.5q4 0 11.5 10.5t14.5 23.5t13 25.5t8 16.5q2 0 6 1t9 1h7t3 -12q-2 -6 -2 -19q0 -23 2 -40t20 -17q20 0 41 24.5t29 32.5l10 13q12 -12 12 -27v-14q0 -8 -4 -17 q-8 -14 -22 -14q-6 0 -8 6t-4 6q-4 0 -5 -2q0 -6 6.5 -12t16.5 -6q12 0 23.5 7t18.5 17.5t11 20.5t4 16q0 8 -2 18.5t-24 32.5q8 10 13 22.5t5 16.5q0 6 -6 6q-29 0 -39 -17t-10 -28q0 -10 3 -15t7 -13l-10 -15h-2l-8 -12q-4 -6 -13.5 -14t-17.5 -8q-6 0 -9 10t-3 24v19v22 t-7 6q-4 0 -20 -2t-25 -2q2 2 2 9q0 8 -6 8q-20 0 -20 -23q0 -8 5 -8h9q0 -2 -1 -3t-1 -5q-35 -66 -60.5 -83.5t-35.5 -17.5t-17 13q16 20 34 39.5t18 38.5q0 4 -3 9t-14 5q-16 0 -30.5 -10.5t-24.5 -25.5t-15.5 -30.5t-5.5 -23.5zM612 776q0 35 13.5 50.5t25.5 15.5 q8 0 8 -11q0 -17 -20 -40q-8 -14 -25 -27q0 4 -1 6t-1 6zM621 -47h28l23 -98l26 98h33l25 -100l22 100h29l-35 -143h-31l-28 106l-27 -106h-33zM623 182v21h18v39l27 16v-55h24v-21h-24v-90q0 -16 3 -18t11 -2h10l6 -23q-8 -2 -20 -2q-16 0 -23.5 4t-11.5 12q-2 4 -2 31v88 h-18zM784 182v21h25v16q0 23 8 35t35 12q4 0 10 -1t12 -1l-2 -24q-6 2 -16 2q-23 0 -22 -25v-14h30v-21h-30v-133h-25v133h-25zM811 -162h27v-28h-27v28zM866 -47h43l25 -98l27 98h43v-143h-27v112l-29 -112h-28l-27 112v-112h-27v143zM872 889q0 18 17 18q4 0 4 -4 q0 -8 -14 -31q-2 4 -4.5 8.5t-2.5 8.5zM885 106v97h26v-86q0 -29 6.5 -39t24.5 -10q41 0 41 53v82h27v-154h-25v23q-14 -27 -49 -27q-27 0 -39 13.5t-12 47.5zM934 848q0 -10 6 -22.5t23 -12.5q27 0 52 27.5t25 62.5q0 18 -9 26.5t-19 8.5q-20 0 -45 -20.5t-31 -55.5 q-2 -4 -2 -14zM954 559q0 -20 13.5 -35.5t38.5 -15.5q31 0 52 21.5t21 56.5q0 27 -15 41t-38 14q-33 0 -52.5 -23.5t-19.5 -58.5zM969 874q0 6 10 32t35 26q20 -6 20 -31q0 -33 -16.5 -48t-26.5 -15q-4 2 -6 2t-6 2q-10 10 -10 32zM979 561q0 23 13.5 40t31.5 17 q29 0 29 -32q0 -25 -13.5 -41.5t-29.5 -16.5q-12 0 -21.5 9.5t-9.5 23.5zM1018 -190l55 143h31l57 -143h-33l-12 32h-55l-12 -32h-31zM1051 49v213h26v-213h-26zM1051 887q0 -10 3 -28.5t17 -18.5q10 0 16 10q27 25 32 49.5t16 26.5v-10q0 -11 1 -23t5 -22.5t14 -10.5 q14 0 30.5 17.5t26.5 29.5q0 -27 19 -26q14 0 35.5 21.5t21.5 31.5q0 -8 7.5 -20.5t17.5 -12.5t30.5 18.5t28.5 32.5q4 -31 21 -30q12 0 23 8t20.5 18t16.5 19.5t9 11.5v4h-6q-14 -23 -23.5 -28t-13.5 -5q-10 0 -14 27v13t2 16q31 49 54.5 94t23.5 67q0 10 -8 11 q-8 0 -25.5 -13.5t-35 -40t-31 -64.5t-13.5 -89v-10v-3l-10 -10q-4 -6 -10 -13t-15 -7q-10 0 -14 14q-2 12 -4 23q-2 10 -4 17t-4 7q-4 0 -6 -6q-18 -37 -23.5 -50t-21.5 -20q-16 0 -17 17q0 18 8.5 33.5t18.5 25.5t21.5 15.5t15.5 5.5q8 0 9 -1t3 -1q0 2 2 2l2 2q0 4 -12 4 q-29 0 -58.5 -32t-40.5 -66l-8 -11l-11 -11t-13 -7t-7.5 6t-3.5 16v18.5t-1 24t-3 20.5t-6 9t-10 -10q-2 -4 -8 -17.5t-14.5 -29t-15.5 -29.5t-11 -18q-4 0 -9.5 9t-7.5 23q6 12 13.5 24.5t7.5 22.5q0 6 -8 7q-16 0 -28.5 -16.5t-16.5 -41.5v-20zM1069 -133h39l-21 53z M1079 932q0 10 2 19.5t13 9.5q2 0 3 -1.5t3 -1.5q-1 -9 -19 -40q0 4 -1 7t-1 7zM1085 510h27l18 86l35 -86h25l27 129h-25l-18 -88l-35 88h-25zM1116 49v213h27v-213h-27zM1151 -47h29l22 -98l27 98h33l24 -100l23 100h28l-34 -143h-29l-31 106l-26 -106h-31zM1217 510h94 l4 20h-66l23 109h-27zM1249 182v21h25v16q0 23 8 35t33 12q6 0 12 -1t12 -1l-2 -24q-6 2 -16 2q-12 0 -16 -4q-6 -6 -7 -21v-14h31v-21h-31v-133h-24v133h-25zM1327 639l35 -80l-10 -49h26l11 47l59 82h-31l-37 -55l-24 55h-29zM1339 125q0 41 20.5 61.5t51.5 20.5 q33 0 53.5 -20.5t20.5 -57.5q0 -41 -19.5 -62.5t-54.5 -21.5q-33 0 -52.5 20.5t-19.5 59.5zM1354 -47h26l60 -96v96h26v-143h-28l-58 92v-92h-26v143zM1366 125q0 -29 13.5 -43t31.5 -14q21 0 33 14q14 14 14 45q0 57 -47 57q-45 0 -45 -59zM1409 1020q4 57 24.5 102 t36.5 45q4 0 5 -8q-1 -20 -19 -53q-10 -20 -21.5 -41t-25.5 -45zM1489 -143l29 2q2 -27 30 -27q16 0 21.5 6t5.5 12q0 4 -1 8.5t-11 8.5q-41 10 -55.5 18.5t-14.5 28.5q0 23 16.5 32t36.5 9q29 0 41 -12.5t12 -30.5l-26 -2q-6 20 -27 20q-25 0 -24 -14q0 -10 22.5 -14.5 t38.5 -14.5q23 -10 23 -37q0 -18 -14.5 -30.5t-43.5 -12.5q-53 0 -59 50zM1516 49v154h22v-21q18 25 49 25h15.5t17.5 -5t14 -18.5t6 -40.5v-94h-24v94q0 41 -33 41q-16 0 -28.5 -10t-12.5 -41v-84h-26zM1579 973q0 -33 20 -33q18 0 34 15.5t28 37.5v-6q0 -25 12 -24 q16 0 33.5 20.5t32.5 42.5q0 -14 20 -18q29 0 43.5 24.5t16.5 36.5q0 16 -5.5 22.5t-19.5 28.5q4 10 10 21.5t6 17.5t-6 6q-29 0 -39 -17.5t-10 -27.5t3 -15t7 -13l2 -2q-6 -10 -15 -28t-19.5 -35t-21.5 -30.5t-19 -15.5q-4 0 -4 8q0 16 12 62.5t29 93.5q18 55 40 123 q-4 0 -8 2q-12 4 -22 4q-14 0 -23 -2q6 0 6 -10t-5 -31t-11 -45.5t-14.5 -53t-14.5 -55.5l-14 -4q6 0 6 -14q0 -12 -6 -29.5t-15.5 -35t-20.5 -30t-19 -12.5t-9 13q0 16 12.5 52t28 76t28.5 77.5t13 62.5t-18 24q-4 0 -9 -1t-14 -3h2q4 0 5 -8q0 -14 -10.5 -49t-24 -75 t-23.5 -81t-10 -67zM1628 -162h29v-28h-29v28zM1667 182v21h21v39l24 16v-55h27v-21h-27v-90q0 -16 4 -18t10 -2h13l4 -23q-8 -2 -21 -2q-23 0 -28.5 7t-5.5 40v88h-21zM1679 -121q0 35 18.5 55.5t47.5 20.5q45 0 57 -43l-26 -6q-6 25 -31 24q-37 0 -37 -49q0 -29 10.5 -39 t24.5 -10q10 0 20 6q10 10 13 25l28 -10q-16 -45 -61 -46q-29 0 -46.5 19.5t-17.5 52.5zM1741 1028q23 35 28 59q4 -8 8.5 -13t6.5 -15q0 -10 -2 -12q0 -4 -5 -17.5t-22 -13.5q-4 0 -6 6t-6 6h-2zM1784 1141q0 18 14 18q6 0 6 -4q0 -8 -16 -31q-4 12 -4 17zM1823 -119 q0 43 22 58.5t45 15.5q33 0 51.5 -19.5t18.5 -54.5q0 -37 -19.5 -55.5t-48.5 -18.5q-70 0 -69 74zM1839 90q0 20 11.5 29.5t26.5 13.5t33.5 6t35.5 8q0 23 -8.5 30t-28.5 7t-27.5 -6t-11.5 -22l-27 4q4 27 22.5 37t47.5 10q33 0 46 -11.5t13 -45.5v-37q0 -35 1 -44.5 t9 -19.5h-28q-4 4 -4 9t-2 10q-25 -23 -56 -23q-53 0 -53 45zM1843 1102q0 -10 6 -23.5t23 -13.5q12 0 23.5 5t25.5 15q27 18 39 35q6 8 8 13q0 2 -4 2q-25 -25 -37 -36.5t-26 -11.5q-10 0 -15 13q27 35 36 47t13 29q0 18 -14 18q-29 0 -48.5 -28.5t-27.5 -51.5q0 -4 -1 -6 t-1 -6zM1851 -119q0 -49 41 -49q17 0 27 12q12 12 12 37q0 49 -39 49q-41 0 -41 -49zM1866 90q0 -25 32 -24q20 0 34 11t14 40v8q-12 -4 -25.5 -6t-26 -5t-20.5 -8.5t-8 -15.5zM1882 1128q2 23 11.5 40.5t23.5 17.5q12 0 12 -10q0 -12 -10.5 -27t-22.5 -29q-4 -4 -6 -7 t-6 -7q-2 8 -2 22zM1982 -47h43l25 -98l27 98h43v-143h-27v112l-29 -112h-26l-29 112v-112h-27v143zM1999 182v21h20v39l25 16v-55h27v-21h-27v-90q0 -16 4 -18t10 -2h13l4 -23q-8 -2 -21 -2q-27 0 -33 16q-2 4 -2 31v88h-20zM2103 49v29h31v-29h-31zM2103 174v29h31v-29 h-31z" />
<glyph unicode="\" horiz-adv-x="663" d="M-80 1249q23 53 50.5 83t49.5 44q27 16 54 19q29 -72 64.5 -182.5t76.5 -242.5t84 -277.5t87 -286t85 -268.5t77 -224t63.5 -154.5t45.5 -58.5q-45 -12 -94 49.5t-99 172t-101.5 255t-101.5 296t-97 296.5t-91 256t-83 173t-70 50z" />
<glyph unicode="]" d="M233 154q0 53 30 82.5t79 29.5q39 0 58.5 -17.5t27.5 -45.5l-25 -8q-12 47 -61 47q-41 0 -60.5 -26t-19.5 -60q0 -43 22.5 -64.5t57.5 -21.5q18 0 35.5 7t25.5 15v39h-61v27h90v-80q-45 -33 -90 -33q-51 0 -80 30.5t-29 78.5zM244 -47h30l21 -98l27 98h32l27 -100l22 100 h29l-35 -143h-30l-29 106l-29 -106h-30zM262 459l72 596l317 88l-2 4l33 18l-8 35l35 12l-4 37l32 11v36l37 7l2 34l37 4l6 35h35l10 35l37 -4l12 33l37 -6l17 30l34 -10l19 31l35 -15l20 27l33 -16l25 26l30 -22l27 24l29 -24l28 22l27 -26l31 16l22 -27l33 15l20 -31 l35 10l17 -30l34 6l15 -33l35 4l10 -35h18l576 156l-72 -596l-287 -80l-14 -14l18 -33l-28 -23l14 -32l-31 -21l11 -33l-31 -16l6 -37l-33 -12l4 -37l-35 -8v-37l-34 -8l-4 -35l-35 -2l-6 -37h-37l-10 -35l-35 4l-15 -32l-34 8l-17 -33l-35 12l-20 -30l-33 14l-22 -29 l-31 17l-27 -25l-28 20l-29 -24l-27 24l-30 -20l-25 25l-33 -17l-20 29l-35 -14l-19 30l-34 -12l-17 33l-37 -8l-12 32l-37 -4l-10 35h-35l-6 37l-37 2l-2 35l-37 8l2 35zM389 848q0 -35 31 -35q6 0 22 4q-12 0 -12 31t20.5 69.5t79.5 51.5h11q18 0 26 -13.5t8 -33.5 q0 -39 -23.5 -83t-62.5 -57q12 37 24.5 71t21.5 56l-9 9q-4 4 -9 7t-15 3t-15 -2q4 0 5 -11q0 -16 -9.5 -50t-21.5 -70.5t-21.5 -72.5t-9.5 -58q0 -25 14 -25h7q-2 0 -2 6q0 14 10 50t26 79q66 16 99.5 61.5t33.5 86.5q0 25 -14 41t-45 16h-13t-14 -2q-76 -16 -109.5 -57 t-33.5 -72zM432 -47h29l22 -98l27 98h33l24 -100l23 100h28l-32 -143h-31l-29 106l-28 -106h-31zM461 125q0 39 19.5 60.5t54.5 21.5q29 0 49 -21.5t20 -60.5v-6h-117q6 -51 48 -51q31 0 40 30l29 -4q-16 -49 -69 -49q-35 0 -54.5 20.5t-19.5 59.5zM489 141h86q-2 23 -13 34 t-27 11q-18 0 -30.5 -13t-15.5 -32zM575 760q0 -16 6.5 -27.5t22.5 -11.5q25 0 48.5 20.5t35.5 34.5q4 0 11.5 10.5t14.5 23.5t13 25.5t8 16.5q2 0 6 1t9 1h7t3 -12q-2 -6 -2 -19q0 -23 2 -40t20 -17q20 0 41 24.5t29 32.5l10 13q12 -12 12 -27v-14q0 -8 -4 -17 q-8 -14 -22 -14q-6 0 -8 6t-4 6q-4 0 -5 -2q0 -6 6.5 -12t16.5 -6q12 0 23.5 7t18.5 17.5t11 20.5t4 16q0 8 -2 18.5t-24 32.5q8 10 13 22.5t5 16.5q0 6 -6 6q-29 0 -39 -17t-10 -28q0 -10 3 -15t7 -13l-10 -15h-2l-8 -12q-4 -6 -13.5 -14t-17.5 -8q-6 0 -9 10t-3 24v19v22 t-7 6q-4 0 -20 -2t-25 -2q2 2 2 9q0 8 -6 8q-20 0 -20 -23q0 -8 5 -8h9q0 -2 -1 -3t-1 -5q-35 -66 -60.5 -83.5t-35.5 -17.5t-17 13q16 20 34 39.5t18 38.5q0 4 -3 9t-14 5q-16 0 -30.5 -10.5t-24.5 -25.5t-15.5 -30.5t-5.5 -23.5zM612 776q0 35 13.5 50.5t25.5 15.5 q8 0 8 -11q0 -17 -20 -40q-8 -14 -25 -27q0 4 -1 6t-1 6zM621 -47h28l23 -98l26 98h33l25 -100l22 100h29l-35 -143h-31l-28 106l-27 -106h-33zM623 182v21h18v39l27 16v-55h24v-21h-24v-90q0 -16 3 -18t11 -2h10l6 -23q-8 -2 -20 -2q-16 0 -23.5 4t-11.5 12q-2 4 -2 31v88 h-18zM784 182v21h25v16q0 23 8 35t35 12q4 0 10 -1t12 -1l-2 -24q-6 2 -16 2q-23 0 -22 -25v-14h30v-21h-30v-133h-25v133h-25zM811 -162h27v-28h-27v28zM866 -47h43l25 -98l27 98h43v-143h-27v112l-29 -112h-28l-27 112v-112h-27v143zM872 889q0 18 17 18q4 0 4 -4 q0 -8 -14 -31q-2 4 -4.5 8.5t-2.5 8.5zM885 106v97h26v-86q0 -29 6.5 -39t24.5 -10q41 0 41 53v82h27v-154h-25v23q-14 -27 -49 -27q-27 0 -39 13.5t-12 47.5zM934 848q0 -10 6 -22.5t23 -12.5q27 0 52 27.5t25 62.5q0 18 -9 26.5t-19 8.5q-20 0 -45 -20.5t-31 -55.5 q-2 -4 -2 -14zM954 559q0 -20 13.5 -35.5t38.5 -15.5q31 0 52 21.5t21 56.5q0 27 -15 41t-38 14q-33 0 -52.5 -23.5t-19.5 -58.5zM969 874q0 6 10 32t35 26q20 -6 20 -31q0 -33 -16.5 -48t-26.5 -15q-4 2 -6 2t-6 2q-10 10 -10 32zM979 561q0 23 13.5 40t31.5 17 q29 0 29 -32q0 -25 -13.5 -41.5t-29.5 -16.5q-12 0 -21.5 9.5t-9.5 23.5zM1018 -190l55 143h31l57 -143h-33l-12 32h-55l-12 -32h-31zM1051 49v213h26v-213h-26zM1051 887q0 -10 3 -28.5t17 -18.5q10 0 16 10q27 25 32 49.5t16 26.5v-10q0 -11 1 -23t5 -22.5t14 -10.5 q14 0 30.5 17.5t26.5 29.5q0 -27 19 -26q14 0 35.5 21.5t21.5 31.5q0 -8 7.5 -20.5t17.5 -12.5t30.5 18.5t28.5 32.5q4 -31 21 -30q12 0 23 8t20.5 18t16.5 19.5t9 11.5v4h-6q-14 -23 -23.5 -28t-13.5 -5q-10 0 -14 27v13t2 16q31 49 54.5 94t23.5 67q0 10 -8 11 q-8 0 -25.5 -13.5t-35 -40t-31 -64.5t-13.5 -89v-10v-3l-10 -10q-4 -6 -10 -13t-15 -7q-10 0 -14 14q-2 12 -4 23q-2 10 -4 17t-4 7q-4 0 -6 -6q-18 -37 -23.5 -50t-21.5 -20q-16 0 -17 17q0 18 8.5 33.5t18.5 25.5t21.5 15.5t15.5 5.5q8 0 9 -1t3 -1q0 2 2 2l2 2q0 4 -12 4 q-29 0 -58.5 -32t-40.5 -66l-8 -11l-11 -11t-13 -7t-7.5 6t-3.5 16v18.5t-1 24t-3 20.5t-6 9t-10 -10q-2 -4 -8 -17.5t-14.5 -29t-15.5 -29.5t-11 -18q-4 0 -9.5 9t-7.5 23q6 12 13.5 24.5t7.5 22.5q0 6 -8 7q-16 0 -28.5 -16.5t-16.5 -41.5v-20zM1069 -133h39l-21 53z M1079 932q0 10 2 19.5t13 9.5q2 0 3 -1.5t3 -1.5q-1 -9 -19 -40q0 4 -1 7t-1 7zM1085 510h27l18 86l35 -86h25l27 129h-25l-18 -88l-35 88h-25zM1116 49v213h27v-213h-27zM1151 -47h29l22 -98l27 98h33l24 -100l23 100h28l-34 -143h-29l-31 106l-26 -106h-31zM1217 510h94 l4 20h-66l23 109h-27zM1249 182v21h25v16q0 23 8 35t33 12q6 0 12 -1t12 -1l-2 -24q-6 2 -16 2q-12 0 -16 -4q-6 -6 -7 -21v-14h31v-21h-31v-133h-24v133h-25zM1327 639l35 -80l-10 -49h26l11 47l59 82h-31l-37 -55l-24 55h-29zM1339 125q0 41 20.5 61.5t51.5 20.5 q33 0 53.5 -20.5t20.5 -57.5q0 -41 -19.5 -62.5t-54.5 -21.5q-33 0 -52.5 20.5t-19.5 59.5zM1354 -47h26l60 -96v96h26v-143h-28l-58 92v-92h-26v143zM1366 125q0 -29 13.5 -43t31.5 -14q21 0 33 14q14 14 14 45q0 57 -47 57q-45 0 -45 -59zM1409 1020q4 57 24.5 102 t36.5 45q4 0 5 -8q-1 -20 -19 -53q-10 -20 -21.5 -41t-25.5 -45zM1489 -143l29 2q2 -27 30 -27q16 0 21.5 6t5.5 12q0 4 -1 8.5t-11 8.5q-41 10 -55.5 18.5t-14.5 28.5q0 23 16.5 32t36.5 9q29 0 41 -12.5t12 -30.5l-26 -2q-6 20 -27 20q-25 0 -24 -14q0 -10 22.5 -14.5 t38.5 -14.5q23 -10 23 -37q0 -18 -14.5 -30.5t-43.5 -12.5q-53 0 -59 50zM1516 49v154h22v-21q18 25 49 25h15.5t17.5 -5t14 -18.5t6 -40.5v-94h-24v94q0 41 -33 41q-16 0 -28.5 -10t-12.5 -41v-84h-26zM1579 973q0 -33 20 -33q18 0 34 15.5t28 37.5v-6q0 -25 12 -24 q16 0 33.5 20.5t32.5 42.5q0 -14 20 -18q29 0 43.5 24.5t16.5 36.5q0 16 -5.5 22.5t-19.5 28.5q4 10 10 21.5t6 17.5t-6 6q-29 0 -39 -17.5t-10 -27.5t3 -15t7 -13l2 -2q-6 -10 -15 -28t-19.5 -35t-21.5 -30.5t-19 -15.5q-4 0 -4 8q0 16 12 62.5t29 93.5q18 55 40 123 q-4 0 -8 2q-12 4 -22 4q-14 0 -23 -2q6 0 6 -10t-5 -31t-11 -45.5t-14.5 -53t-14.5 -55.5l-14 -4q6 0 6 -14q0 -12 -6 -29.5t-15.5 -35t-20.5 -30t-19 -12.5t-9 13q0 16 12.5 52t28 76t28.5 77.5t13 62.5t-18 24q-4 0 -9 -1t-14 -3h2q4 0 5 -8q0 -14 -10.5 -49t-24 -75 t-23.5 -81t-10 -67zM1628 -162h29v-28h-29v28zM1667 182v21h21v39l24 16v-55h27v-21h-27v-90q0 -16 4 -18t10 -2h13l4 -23q-8 -2 -21 -2q-23 0 -28.5 7t-5.5 40v88h-21zM1679 -121q0 35 18.5 55.5t47.5 20.5q45 0 57 -43l-26 -6q-6 25 -31 24q-37 0 -37 -49q0 -29 10.5 -39 t24.5 -10q10 0 20 6q10 10 13 25l28 -10q-16 -45 -61 -46q-29 0 -46.5 19.5t-17.5 52.5zM1741 1028q23 35 28 59q4 -8 8.5 -13t6.5 -15q0 -10 -2 -12q0 -4 -5 -17.5t-22 -13.5q-4 0 -6 6t-6 6h-2zM1784 1141q0 18 14 18q6 0 6 -4q0 -8 -16 -31q-4 12 -4 17zM1823 -119 q0 43 22 58.5t45 15.5q33 0 51.5 -19.5t18.5 -54.5q0 -37 -19.5 -55.5t-48.5 -18.5q-70 0 -69 74zM1839 90q0 20 11.5 29.5t26.5 13.5t33.5 6t35.5 8q0 23 -8.5 30t-28.5 7t-27.5 -6t-11.5 -22l-27 4q4 27 22.5 37t47.5 10q33 0 46 -11.5t13 -45.5v-37q0 -35 1 -44.5 t9 -19.5h-28q-4 4 -4 9t-2 10q-25 -23 -56 -23q-53 0 -53 45zM1843 1102q0 -10 6 -23.5t23 -13.5q12 0 23.5 5t25.5 15q27 18 39 35q6 8 8 13q0 2 -4 2q-25 -25 -37 -36.5t-26 -11.5q-10 0 -15 13q27 35 36 47t13 29q0 18 -14 18q-29 0 -48.5 -28.5t-27.5 -51.5q0 -4 -1 -6 t-1 -6zM1851 -119q0 -49 41 -49q17 0 27 12q12 12 12 37q0 49 -39 49q-41 0 -41 -49zM1866 90q0 -25 32 -24q20 0 34 11t14 40v8q-12 -4 -25.5 -6t-26 -5t-20.5 -8.5t-8 -15.5zM1882 1128q2 23 11.5 40.5t23.5 17.5q12 0 12 -10q0 -12 -10.5 -27t-22.5 -29q-4 -4 -6 -7 t-6 -7q-2 8 -2 22zM1982 -47h43l25 -98l27 98h43v-143h-27v112l-29 -112h-26l-29 112v-112h-27v143zM1999 182v21h20v39l25 16v-55h27v-21h-27v-90q0 -16 4 -18t10 -2h13l4 -23q-8 -2 -21 -2q-27 0 -33 16q-2 4 -2 31v88h-20zM2103 49v29h31v-29h-31zM2103 174v29h31v-29 h-31z" />
<glyph unicode="^" horiz-adv-x="704" d="M213.5 948q-14.5 37 2.5 72t55 65.5t79 54t74 38t41 16.5l147 47q8 -94 23 -168q12 -63 34.5 -116.5t59.5 -55.5q-90 -29 -142 -5t-80 72t-36 103t-8 90q-37 -23 -74 -64.5t-62.5 -86.5t-36.5 -83t1 -53q-63 37 -77.5 74z" />
<glyph unicode="_" horiz-adv-x="749" d="M-57 -213q-14 66 24.5 94.5t105 36.5t147.5 4t152.5 -6t121 5t51.5 40q10 -49 0 -87t-27 -64q-20 -31 -47 -54q-27 6 -78 15.5t-110.5 19.5t-121 17.5t-110.5 8.5t-79.5 -5.5t-28.5 -24.5z" />
<glyph unicode="`" horiz-adv-x="698" d="M61 1622q8 -37 53.5 -65.5t108 -57.5t133 -59.5t130 -69.5t97.5 -90t38 -119q-49 20 -109.5 38t-122 39.5t-120 50t-103.5 72.5t-74 107.5t-31 153.5z" />
<glyph unicode="a" horiz-adv-x="860" d="M-93 210q11 93 51 209t99.5 228.5t134 209.5t152.5 154.5t154 60.5h6q73 0 137 -71q27 -33 33 -88q23 55 23 88t-33 33q78 0 129 -15t81 -34q37 -23 56 -49q-168 -240 -285 -428q-49 -80 -94 -158t-72.5 -137t-34 -96t18.5 -37q43 0 96 40t105.5 100.5t97.5 132t70.5 135 t25.5 110.5t-37 57h213q-94 -186 -203 -329q-47 -61 -99 -121t-110.5 -106t-120 -73.5t-122.5 -27.5q-72 0 -84 50q-4 17 -4 37q0 40 16 95q-72 -80 -147.5 -131t-151.5 -51q-68 0 -90 60q-15 40 -15 94q0 27 4 58zM40 140q-2 -12 -2 -22q0 -48 36 -48q43 0 100 52 t114.5 131t109 172t82 175t34.5 142v11q0 49 -33 58h129q8 32 8 56q0 7 -1 15q-3 30 -21 40q-16 8 -33 8q-37 0 -85 -36q-70 -54 -142 -149.5t-138.5 -212t-107.5 -219.5t-50 -173z" />
<glyph unicode="b" horiz-adv-x="802" d="M-158 64q-13 23 -13 58q0 63 44 163q25 57 79 155.5t123.5 219t148.5 256t154 268.5t141.5 254t110.5 213t60 147q6 21 5 34q0 21 -15 21q78 0 129 -15t82 -34q37 -23 57 -49q-209 -330 -387 -614q-76 -121 -152.5 -245t-144 -232.5t-120 -195.5t-78.5 -136 q-47 -84 -68 -135.5t-22 -79t9.5 -36.5t24.5 -9q47 0 96.5 27.5t98.5 75.5t96 110.5t88 132.5q-1 11 -1 21q0 27 4 53q5 36 11 65q8 35 19 68q20 72 54 144.5t67 133.5q37 70 78 139h190q2 -15 2 -33q-1 -55 -19 -135q-24 -106 -81 -219q-35 -78 -88.5 -158.5t-118.5 -158.5 q12 -23 49 -23q31 0 65.5 20.5t66.5 52.5t59.5 71t41.5 77q11 31 11 57q0 6 -1 12q-3 32 -30 50h213q-68 -111 -141 -196q-33 -37 -70 -73t-77 -63.5t-82 -44t-85 -16.5q-45 0 -73 17q-55 -59 -114.5 -110.5t-119 -89.5t-117 -59.5t-106.5 -21.5q-117 0 -154 66z" />
<glyph unicode="c" horiz-adv-x="737" d="M-72 158q-9 35 -9 74q-1 42 9 88q18 92 65.5 189t118 190.5t157.5 168t186.5 122.5t203.5 54q53 78 121 115q31 17 67 17q42 0 89 -23q-25 0 -55.5 -56.5t-69.5 -140.5t-88 -180t-111.5 -176t-138.5 -128q-61 -38 -132 -38q-18 0 -36 2q43 2 81 55.5t74 132t73.5 172 t80.5 173.5q-68 -43 -148.5 -127t-154 -186.5t-131.5 -209.5q-58 -108 -82 -196q-12 -45 -12 -82q0 -34 10 -62q22 -56 109 -57q55 0 123.5 42t136 106.5t128 139.5t97.5 142.5t44 116.5q1 8 1 15q0 36 -30 44h213q-115 -186 -240 -329q-53 -61 -114.5 -121t-127 -106 t-133 -73.5t-135.5 -27.5q-106 0 -164 44t-76 116z" />
<glyph unicode="d" horiz-adv-x="864" d="M-91 210q11 93 51 209t99.5 228.5t133 209.5t151.5 154.5t154 60.5h6q73 0 137 -71q35 -43 35 -124q66 113 132 229.5t126.5 225t111 203.5t81 166t40 111.5t-13.5 40.5q78 0 130 -15t83 -34q37 -23 55 -49q-229 -358 -420 -665q-82 -131 -162.5 -263.5t-151.5 -247 t-123 -204.5t-75 -135q-35 -72 -46 -116t18 -44q43 0 96 40t106.5 100.5t97.5 132t70.5 135t26.5 110.5t-37 57h211q-96 -186 -203 -329q-47 -61 -99 -121t-109.5 -106t-119 -73.5t-122.5 -27.5q-72 0 -85 49q-5 17 -5 38q0 39 16 91q-72 -78 -145.5 -128t-149.5 -50 q-68 0 -90 60q-15 40 -15 94q0 27 4 58zM42 140q-2 -12 -2 -22q0 -48 36 -48q43 0 100 52t114.5 131t109 172t82 175t34.5 142v11q0 49 -33 58h129q6 30 6 54q0 9 -1 17q-3 30 -21 40q-16 8 -33 8q-39 0 -85 -36q-68 -54 -141 -149.5t-138.5 -212t-106.5 -219.5t-50 -173z " />
<glyph unicode="e" horiz-adv-x="733" d="M-74 158q-8 34 -9 74q1 42 11 92q20 94 66.5 191t119 191.5t162 168t189.5 119.5t205 50q52 70 118 103q35 18 80 18q39 0 86 -14q-25 0 -52.5 -57.5t-67 -144.5t-96 -190.5t-139.5 -192.5t-194.5 -152.5t-263.5 -71.5h-16q-25 -60 -37 -114q-8 -34 -8 -63q0 -17 3 -31 q7 -40 35.5 -62.5t82.5 -22.5q55 0 123.5 42t137 106.5t128 139.5t96.5 142.5t44 116.5q1 8 1 15q0 36 -31 44h213q-115 -186 -239 -329q-53 -61 -113.5 -121t-126 -106t-133.5 -73.5t-135 -27.5q-109 0 -165.5 44t-74.5 116zM145 387q9 2 27 2q98 8 164.5 69.5t116 149.5 t89.5 187.5t87 183.5q-55 -31 -122 -94.5t-133.5 -145.5t-127 -174t-101.5 -178z" />
<glyph unicode="f" horiz-adv-x="462" d="M-825 -545q86 0 179 80t189.5 213t196.5 307t203.5 363.5t208 380t208.5 358.5q-20 25 -38.5 58.5t-34.5 74.5q47 -59 110 -76q70 109 140.5 200t140.5 156.5t139.5 102.5t136.5 37q68 0 84 -48q8 -21 8 -46q0 -34 -12 -75q-22 -73 -76.5 -157t-125 -154.5t-152.5 -115.5 q-75 -41 -147 -41h-13q-78 -135 -159.5 -282.5t-170.5 -298.5q-16 -35 -24 -67t-7 -56.5t14 -39t42 -14.5t64.5 20.5t67.5 52.5t59.5 71t41.5 77q11 30 11 57q0 6 -1 12q-3 32 -30 50h213q-68 -111 -141 -196q-33 -37 -70 -73t-77 -63.5t-82 -44t-85 -16.5q-72 0 -104 45 q-117 -195 -235.5 -366.5t-234.5 -293.5t-226 -177q-64 -32 -124 -32q-45 0 -87 17zM621 1247q86 43 163.5 111.5t129 135.5t68.5 115q5 15 5 25q0 23 -26 23q-29 0 -66 -30t-80 -84t-92 -130t-102 -166z" />
<glyph unicode="g" horiz-adv-x="841" d="M-294 -276q-11 31 -11 66q0 41 16 89q23 63 69 116.5t98 74.5q27 12 54 12q25 0 50 -10q51 -19 86 -103q-29 0 -61 -12t-62.5 -33.5t-59 -48.5t-49.5 -55q-50 -69 -50 -115q0 -41 28 -54q11 -5 24 -5q25 0 58 16q53 23 110 92q61 78 130 200t153 263 q-57 -47 -117.5 -76.5t-122.5 -29.5q-68 0 -91 54q-18 40 -18 97q0 20 2 43q9 86 47 191.5t94 208t127 189.5t146 135q72 47 147 47h3q76 -1 141 -75q31 -37 35 -108q15 54 15 90q0 4 -1 7q-1 38 -26 44q78 0 128 -15t81 -34q37 -23 57 -49q-80 -84 -147.5 -180.5 t-129 -197.5t-117 -205.5t-106.5 -202.5q96 74 180 156.5t139.5 155.5t74.5 127q6 19 6 33q0 27 -23 37h213q-51 -86 -124 -168.5t-158 -159.5t-177 -146.5t-184 -131.5q-70 -125 -138.5 -226t-146.5 -161q-80 -61 -162 -70q-17 -1 -33 -1q-62 0 -111 27q-60 34 -86 102z M79 244q-1 -7 -1 -13q0 -49 39 -49q43 0 97 44t107.5 110.5t99.5 144.5t73 149q29 73 29 123q0 48 -36 58h129q8 33 8 58v13q-3 29 -22 40q-17 9 -37 9q-36 0 -79 -29q-66 -46 -134.5 -128t-130 -185.5t-99.5 -193.5t-43 -151z" />
<glyph unicode="h" horiz-adv-x="782" d="M-163 77q0 75 47 197q48 124 134 284.5t184.5 329.5t197 333.5t172 299t108.5 224.5q20 51 20 79q0 21 -12 29q78 0 129 -15t82 -34q37 -23 55 -49q-49 -72 -134 -200t-186.5 -285.5t-210 -330.5t-206.5 -335q61 86 129 166t134 142q66 63 128 100q59 35 108 35h5 q37 -2 65.5 -15.5t51 -31t36 -38t19.5 -36.5q-16 0 -52 -37t-83 -97.5t-100.5 -138.5t-104.5 -158.5t-94 -158.5t-68.5 -138.5t-30 -97.5t22.5 -37q37 0 88 40t103.5 101.5t98.5 135.5t73.5 139.5t30.5 114.5v7q0 43 -34 54h213q-100 -186 -204 -329q-45 -61 -95.5 -121 t-102.5 -106t-106.5 -73.5t-105.5 -27.5q-84 0 -116 41q-26 34 -26 88q0 11 1 21q6 68 40.5 154.5t84.5 176.5q115 213 319 484q-35 0 -104.5 -59.5t-155.5 -154t-176 -211t-166 -231.5q-76 -139 -114 -224q-23 -51 -23 -72q0 -13 10 -13q-79 0 -79 79z" />
<glyph unicode="i" horiz-adv-x="440" d="M-171 42q-7 19 -7 44q0 32 12 74q20 74 64.5 167t97.5 189t105.5 189.5t86.5 166.5q34 74 40 118q1 6 0 12q0 32 -33 32q78 0 129 -15t82 -34q37 -23 55 -49q-168 -240 -285 -428q-49 -80 -94 -158t-72.5 -137t-34.5 -96t19 -37q43 0 100.5 40t114.5 100.5t109.5 132 t84 135t35.5 110.5v9q0 39 -32 48h212q-111 -186 -229 -329q-51 -61 -108.5 -121t-119 -106t-125 -73.5t-124.5 -27.5q-68 0 -83 44zM502 1265v9q0 37 14 82q16 51 49 104q45 9 81 9q21 0 40 -3q50 -8 64 -42q4 -9 4 -19q0 -29 -27 -75q-37 -62 -143 -154q-41 0 -60.5 24.5 t-21.5 64.5z" />
<glyph unicode="j" horiz-adv-x="419" d="M-788 -302q-5 16 -5 35q0 46 27 105q20 45 61 81t89 45q12 2 25 2q34 0 68 -18q46 -24 77 -98q-18 12 -45 8.5t-57 -17t-56.5 -34t-44.5 -43.5q-39 -49 -41 -80.5t22 -41.5q9 -5 23 -5q18 0 44 9q44 14 97 57q55 45 112.5 127t115 181.5t110.5 205t103 195.5 q63 119 123.5 229.5t101.5 195.5t54 138q5 17 5 29q0 26 -20 30q78 0 129 -15t82 -34q37 -23 57 -49q-72 -84 -137.5 -179t-126 -197.5t-116.5 -206t-112 -201.5q98 74 188.5 155.5t151 154.5t83.5 127q9 22 9 38q0 22 -20 32h213q-51 -86 -128 -168.5t-168 -159.5 t-190.5 -146.5t-195.5 -129.5q-86 -147 -172 -258.5t-184 -161.5q-88 -43 -164 -47h-19q-63 0 -106 24q-49 28 -63 86zM487 1265v9q0 37 15 82q16 51 49 104q45 9 81 9q21 0 40 -3q51 -8 64 -42q4 -8 4 -19q0 -30 -28 -75q-37 -62 -143 -154q-41 0 -60.5 24.5t-21.5 64.5z " />
<glyph unicode="k" horiz-adv-x="782" d="M-162 74v6q0 76 47 194q49 124 134 284.5t183.5 329.5t197 333.5t172 299t108.5 224.5q20 51 20 79q0 21 -12 29q78 0 129 -15t82 -34q37 -23 55 -49q-35 -49 -86 -126t-113.5 -173t-133 -206.5t-144.5 -226.5t-146.5 -233.5t-137.5 -226.5q100 55 195 139t167 165 t113 147q34 54 34 76q0 5 -2 8q90 -10 129 -38q37 -27 37 -63q0 -40 -38 -92q-36 -49 -99 -100t-146 -101.5t-175 -95.5q43 -10 71.5 -24.5t46.5 -28.5q20 -16 33 -33q-86 -123 -139 -221q-23 -41 -41.5 -81t-25.5 -70.5t-1 -50t31 -19.5q43 0 96 40t105.5 100.5t97.5 132 t70.5 135t25.5 110.5t-37 57h213q-96 -186 -202 -329q-47 -61 -99.5 -121t-110 -106t-119 -73.5t-122.5 -27.5q-75 0 -101 32q-22 28 -23 72q0 6 1 14q4 54 31 119.5t56.5 129t52 121t22.5 92.5q-45 -20 -90 -37t-90 -33q-63 -109 -115.5 -202t-86.5 -161.5t-46 -107.5 t4 -39q-76 0 -78 76z" />
<glyph unicode="l" horiz-adv-x="393" d="M-176 81v8q0 35 14 82q16 52 43 114q25 57 74 151t111.5 208t132 240t136 248.5t123 235.5t93.5 198t48.5 135t-13.5 50q125 0 186.5 -14.5t64.5 -64.5v-5q-1 -51 -51 -143q-54 -98 -158 -265t-256.5 -417t-346.5 -602q-39 -70 -48.5 -115t19.5 -45q43 0 96 40 t105.5 100.5t97.5 132t70.5 135t25.5 110.5t-37 57h213q-96 -186 -202 -329q-47 -61 -99.5 -121t-110 -106t-119 -73.5t-122.5 -27.5q-47 0 -67.5 22.5t-22.5 60.5z" />
<glyph unicode="m" horiz-adv-x="1175" d="M-162 148q12 68 51 154.5t89.5 179.5t101.5 186.5t88 169.5q38 77 50 133q4 18 3 32q0 30 -18 44q78 0 130 -15.5t83 -34.5q37 -23 55 -49q-43 -63 -93 -137t-102 -152q59 74 120 139.5t118 115.5q58 48 110 76q49 26 89 26h6q35 -2 61.5 -13.5t42.5 -25.5q20 -16 33 -37 q-14 -8 -47 -47t-76 -98.5t-93 -133t-97 -153.5q63 94 139 191.5t152.5 175t148.5 125.5q69 47 126 47h5q37 -2 66.5 -15.5t51 -31t35 -38t19.5 -36.5q-20 0 -75.5 -63.5t-124 -160t-139 -208t-121 -208t-68.5 -160.5q-6 -20 -5 -34q0 -29 25 -29q37 0 88.5 40t103.5 101.5 t98 135.5t74 140q28 65 30 114v6q0 44 -35 55h213q-100 -186 -205 -329q-45 -61 -95.5 -121t-102.5 -106t-106.5 -73.5t-105.5 -27.5q-83 0 -115 41q-27 35 -28 91q0 10 1 18q5 68 41 154.5t85 176.5q117 213 321 484q-35 0 -107.5 -61.5t-161.5 -160t-182 -219.5t-167 -239 q-23 -47 -40 -91.5t-26.5 -81t-9.5 -65.5t10 -47q-84 0 -116 40q-28 35 -29 88q0 8 1 18q5 66 39 149.5t81 171.5q113 205 311 467q-35 0 -104.5 -57.5t-153.5 -148.5t-173 -205.5t-163 -227.5q-35 -63 -62.5 -117.5t-42 -93.5t-13.5 -61.5t20 -22.5q-77 0 -101 41 q-16 27 -16 66q0 20 4 43z" />
<glyph unicode="n" horiz-adv-x="798" d="M-162 148q12 68 51 154.5t89.5 179.5t102.5 186.5t88 169.5q35 77 49 133q4 19 5 33q0 29 -18 43q78 0 129 -15.5t82 -34.5q37 -23 55 -49q-39 -55 -81 -118.5t-87 -131.5q55 72 113.5 136.5t115 111.5t108.5 75q49 26 89 26h6q37 -2 66.5 -15.5t51 -31t35 -38 t19.5 -36.5q-20 0 -75.5 -63.5t-124 -160t-139 -208t-120.5 -208.5q-50 -96 -68 -160q-6 -20 -6 -34q0 -29 25 -29q37 0 88.5 40t103.5 101.5t98 135.5t74 140q30 70 30 119q0 45 -35 56h213q-100 -186 -205 -329q-45 -61 -95 -121t-102.5 -106t-106.5 -73.5t-106 -27.5 q-84 0 -116 41q-27 35 -27 91q0 10 1 18q5 68 41 154.5t85 176.5q117 213 322 484q-35 0 -105 -59.5t-156 -154t-177 -211t-165 -231.5q-37 -66 -66.5 -123t-45 -98t-15.5 -64.5t19 -23.5q-77 0 -101 41q-16 27 -16 66q0 20 4 43z" />
<glyph unicode="o" horiz-adv-x="808" d="M-104 194q8 88 47 196t97 215.5t132 203.5t150.5 157.5t150.5 79.5q19 5 38 4q52 0 97 -36q43 9 77 9q37 -1 63 -11q50 -20 63 -67q7 -22 7 -50q0 -31 -9 -69q-16 -70 -55 -151t-97.5 -168t-126.5 -167q8 -25 48 -25q45 0 95 43t86 100.5t44 113.5q1 9 1 18q0 43 -34 65 h213q-61 -111 -131 -196q-31 -37 -65.5 -73t-72.5 -63.5t-79 -44t-84 -16.5q-45 0 -74 17q-55 -59 -113.5 -110.5t-117 -89.5t-114.5 -59.5t-105 -21.5q-78 0 -108 54q-24 43 -24 108q-1 17 1 34zM40 104q3 -38 38 -38q43 0 88 23.5t90 63.5t87 95t81 117q-5 25 -5 52 q0 17 2 34q5 45 15 84q11 45 29 90q16 57 40.5 108t49.5 93t47.5 73t34.5 47q-37 0 -88 -37t-107.5 -99t-116 -141t-111.5 -162t-93 -162t-63 -141q-19 -55 -18 -91v-9z" />
<glyph unicode="p" horiz-adv-x="790" d="M-786 -539q35 0 100 64.5t148 172t176.5 245t182.5 282t167 284.5t132 255t76 190q11 37 11 60t-12 30q94 0 149 -20t84 -43q-10 -25 -25 -53q-12 -25 -28.5 -59.5t-38.5 -77.5q94 119 175 191q73 66 123 66q6 0 11 -1q72 -10 117 -48t55 -73q-57 -135 -122.5 -264.5 t-137.5 -241t-149.5 -200.5t-157.5 -144q82 23 159.5 72t144.5 110t119 127t80.5 122t31.5 97t-27 51h213q-115 -186 -258 -329q-61 -61 -135 -121t-160 -106t-182.5 -73.5t-202.5 -27.5q-45 0 -68.5 23.5t-27.5 64.5q-84 -123 -174.5 -236.5t-182.5 -199.5t-185 -137.5 t-181 -51.5zM-18 91q-1 -5 -1 -10q0 -40 37 -40q23 0 63 40t89 104.5t103.5 147.5t105.5 169t95 169t71.5 147.5t35.5 104.5t-12 40q-29 0 -100.5 -83t-169.5 -214q31 -2 59 -37q-6 2 -12 2q-28 0 -71 -38q-52 -46 -105 -120q-35 -61 -73 -126.5t-79 -131.5 q-31 -74 -36 -124z" />
<glyph unicode="q" horiz-adv-x="919" d="M-172 -143q55 51 146 64q70 10 149 10q24 0 49 -1q35 78 75 159t85 167q-66 -66 -137.5 -105.5t-143.5 -39.5q-68 0 -93 54q-17 39 -17 94q0 22 3 46q9 86 46 191.5t93 208t127 189.5t146 135q74 47 148 47h3q75 -1 140 -75q18 -20 29 -59q15 46 15 74q0 25 -13 35 q78 0 129 -15.5t82 -34.5q37 -23 55 -49q-43 -61 -101.5 -156.5t-125 -209t-136 -238.5t-132.5 -246q106 74 202.5 163t163 171t91.5 144q9 24 9 42q0 26 -22 37h213q-55 -92 -135 -182t-174.5 -172t-194.5 -155.5t-199 -135.5q-14 -23 -26 -47t-25 -49q59 -6 113.5 -10 t100.5 -5h15q37 0 65 4q34 5 52 19q-49 -61 -100 -95t-102 -46q-37 -9 -76 -9q-12 0 -25 1q-51 4 -102 16q-35 -72 -60.5 -132t-40 -103t-15.5 -68t13 -25q-59 0 -86.5 29t-30.5 79v15q0 45 14 104q17 70 48 152q-82 29 -159 40q-17 3 -34 3q-58 0 -114 -30zM80 218 q4 -36 37 -36q43 0 97 44t108.5 110.5t100.5 144.5t73 149q29 73 29 123q0 48 -36 58h129q6 31 6 56v15q-3 29 -22 40q-17 8 -36 8q-22 0 -48 -12q-47 -21 -98 -70t-102.5 -116.5t-95.5 -142.5t-77.5 -147.5t-50.5 -129.5q-15 -47 -15 -80q0 -7 1 -14z" />
<glyph unicode="r" horiz-adv-x="698" d="M-161 148q11 68 51 154.5t90.5 179.5t101.5 186.5t88 169.5t49 132q4 18 4 32q0 31 -18 45q78 0 129 -15.5t82 -34.5q37 -23 57 -49q-41 -59 -88 -129.5t-96 -144.5t-97.5 -149.5t-91.5 -147.5q66 78 132.5 141.5t125.5 110.5q20 53 51 110.5t71 111.5t89 103.5t109 87.5 h194q-12 -45 -57 -105t-107.5 -121.5t-136 -118t-141.5 -91.5q0 -2 -1 -2t-1 -2q-10 -14 -20.5 -50t-12.5 -74q0 -7 -1 -13q0 -31 8 -55q10 -30 40 -29q45 0 100.5 32.5t95.5 78t52 91.5q3 11 3 20q0 32 -31 52h212q-66 -92 -139 -161q-63 -61 -144 -111.5t-167 -50.5 q-66 0 -88 56q-12 31 -12 72q0 32 8 70q-47 -37 -97.5 -82t-98.5 -95t-91 -103.5t-74 -108.5q-31 -66 -38 -104.5t18 -38.5q-75 0 -99 41q-16 28 -17 68q0 19 4 41z" />
<glyph unicode="s" horiz-adv-x="675" d="M-58 402q34 98 91 166t127 86q15 4 30 4q55 0 111 -52q-27 0 -65.5 -41t-76.5 -103.5t-70 -135t-47 -134.5q-10 -43 -10 -76q0 -15 2 -29q7 -42 48 -42t81 52.5t74.5 133t61.5 179t39 190.5q9 69 9 128q0 20 -1 38q-4 74 -29 108q49 51 105 91q48 35 110 61q58 25 124 25 h10q-18 -6 -35 -53.5t-33 -122t-36.5 -169t-48.5 -190.5t-65.5 -189.5t-89.5 -164.5q74 61 141.5 140t111.5 152q43 74 57 130q4 16 4 29q0 33 -25 46h213q-57 -96 -139 -201.5t-175 -197.5t-193.5 -159.5t-196.5 -92.5q-41 -10 -82 -10q-90 0 -129 64q-38 62 -38 149 q-1 91 35 191z" />
<glyph unicode="t" horiz-adv-x="401" d="M-169 77q1 38 15.5 91t34.5 117q18 57 74.5 161.5t130.5 227.5t153.5 253t143.5 240q-82 -6 -139 -49q27 35 69.5 57.5t96.5 38.5q54 94 82 156q20 44 20 62q0 8 -4 10q37 25 91 49.5t112.5 44.5t117 33.5t105.5 13.5q-53 -41 -125 -128t-154 -202q74 6 143.5 10.5 t129 10.5t103 17t61.5 34q-51 -90 -112 -133q-60 -42 -127 -56q-43 -9 -87 -9q-24 1 -48 3q-68 8 -136 19q-92 -133 -183.5 -276.5t-168 -271.5t-132 -225t-75.5 -136q-35 -72 -46.5 -116t17.5 -44q43 0 96 40t106.5 100.5t97.5 132t70.5 135t26.5 110.5t-37 57h213 q-94 -186 -202 -329q-47 -61 -99.5 -121t-111 -106t-120 -73.5t-122.5 -27.5q-47 0 -64.5 20.5t-16.5 58.5z" />
<glyph unicode="u" horiz-adv-x="786" d="M-169 42q-7 19 -7 44q0 32 12 74q20 74 64.5 167t97.5 189t105.5 189.5t86.5 166.5q34 74 40 118q1 6 0 12q0 32 -33 32q106 0 146 -41q35 -36 34 -92v-17q-6 -68 -46 -154.5t-95.5 -177.5t-114 -177t-101.5 -154.5t-58 -109.5t18 -41q43 0 97 41t108.5 102t101.5 134 t75 139q29 68 28 114q0 45 -36 55h111q43 76 79 145.5t55 121.5q19 50 19 80q0 32 -32 32q78 0 129 -15t82 -34q37 -23 55 -49q-168 -240 -285 -428q-49 -80 -94 -158t-72.5 -137t-34 -96t18.5 -37q43 0 96.5 40t105.5 100.5t97 132t70.5 135t25.5 110.5t-37 57h213 q-96 -186 -202 -329q-47 -61 -99.5 -121t-110 -106t-118.5 -73.5t-123 -27.5q-70 0 -84 46q-6 19 -6 43q0 34 12 77q-72 -72 -150.5 -119t-160.5 -47q-68 0 -83 44z" />
<glyph unicode="v" horiz-adv-x="782" d="M-170 42q-6 18 -6 42q0 34 12 76q20 74 64.5 167t97.5 189t105.5 189.5t86.5 166.5q34 74 40 118q1 6 0 12q0 32 -33 32q78 0 129 -15t82 -34q37 -23 55 -49q-168 -238 -285 -424q-49 -80 -94 -155.5t-72.5 -135t-34 -95.5t18.5 -36q16 0 55 25.5t91.5 68.5t110.5 101.5 t114 126.5q-2 15 -2 30q0 22 4 44q6 38 12 69q8 37 18 70q20 72 59.5 144.5t78.5 133.5q45 70 94 139h184q2 -20 -9 -62t-30.5 -90t-43 -97.5t-46.5 -85.5q-78 -127 -197 -263q-13 -40 -13 -70q0 -12 2 -22q7 -37 54 -37q29 0 65 20.5t67.5 52.5t59.5 71t41 77q11 30 11 57 q0 6 -1 12q-3 32 -30 50h213q-68 -111 -141 -196q-33 -37 -69.5 -73t-76.5 -63.5t-82 -44t-85 -16.5q-47 0 -76 18.5t-43 49.5q-68 -70 -136.5 -130.5t-132 -105.5t-115.5 -70.5t-89 -25.5q-68 0 -82 44z" />
<glyph unicode="w" horiz-adv-x="1165" d="M-172 42q-6 18 -6 42q0 34 12 76q20 74 64.5 167t97.5 189t105.5 189.5t86 167t39.5 117.5q1 6 1 11q0 33 -33 33q106 0 146 -41q35 -36 35 -92q0 -7 -1 -17q-6 -68 -46 -154.5t-95.5 -177.5t-114 -177t-101.5 -154.5t-58 -109.5t17 -41q43 0 97.5 41t109 102t101.5 134 t75 139q29 68 28 114q0 45 -36 55h107q43 76 79 145q36 70 56 122q19 48 19 77q0 35 -33 35q78 0 130 -15t83 -34q37 -23 55 -49q-168 -238 -285 -424q-51 -80 -95 -155.5t-72.5 -135t-35 -95.5t18.5 -36q16 0 56 25.5t91.5 68.5t109.5 101.5t114 126.5q-1 11 -1 21 q0 27 4 53q5 38 13 69q8 37 18 70q20 72 58.5 144.5t77.5 133.5q45 70 94 139h184q2 -20 -8 -62t-29.5 -90t-43 -97.5t-46.5 -85.5q-39 -61 -88 -128t-109 -133q-14 -43 -14 -74q0 -10 2 -20q6 -37 53 -37q45 0 99.5 43t93.5 100.5t50 113.5q2 12 2 23q0 39 -32 60h213 q-68 -111 -141 -196q-31 -37 -67.5 -73t-76.5 -63.5t-82 -44t-85 -16.5q-47 0 -76 18.5t-45 49.5q-68 -70 -136.5 -130.5t-131 -105.5t-114.5 -70.5t-89 -25.5q-68 0 -83 44q-6 19 -6 43q0 32 11 73q-72 -70 -150.5 -115t-158.5 -45q-68 0 -82 44z" />
<glyph unicode="x" horiz-adv-x="722" d="M-246 83q4 50 52.5 120.5t118 144.5t152.5 142.5t156 113.5q-45 18 -48 57v12q1 35 15 75q18 48 46 98.5t46 92.5q14 34 14 58q0 5 -1 11q-4 26 -51 26q78 0 129 -15t82 -34q37 -23 55 -49q-70 -76 -110 -133q-18 -25 -31.5 -49.5t-17 -43t5 -29.5t32.5 -11q43 0 86 21.5 t80 55t65 74.5t38 78q5 18 5 35q1 16 -5 30q-10 28 -47 40q99 20 158 20q25 0 43 -4q62 -13 62 -51q0 -37 -45 -89q-46 -54 -117 -106.5t-155 -97.5t-157 -68q62 -4 74 -46q5 -17 5 -37q1 -29 -11 -65q-18 -60 -55.5 -128t-73.5 -126.5t-57.5 -97t-8.5 -38.5q43 0 100 41 t113.5 102t107.5 134t81 138.5t33 112.5v7q0 41 -34 50h213q-102 -186 -215 -329q-49 -61 -104.5 -121t-115 -106t-121.5 -73.5t-124 -27.5q-72 0 -84 39q-4 14 -4 32q1 29 13 67q20 60 60 132t72 138q32 67 44 117q3 13 3 24q0 30 -26 43q-43 -16 -94 -63.5t-98.5 -108 t-84.5 -128.5q-38 -68 -60 -126q-21 -56 -20 -96q0 -45 35 -54q-66 -13 -111 -13q-40 0 -63 10q-45 20 -45 65v7z" />
<glyph unicode="y" horiz-adv-x="763" d="M-383 -280q-4 23 -4 48q0 39 10 80q10 45 36 88.5t58.5 77t70.5 52.5q36 17 71 17h4q37 -1 69.5 -27.5t57.5 -86.5q-31 0 -67 -15t-69.5 -40t-63.5 -55.5t-48 -61.5q-39 -66 -39 -103q0 -5 1 -10q7 -38 41 -48q14 -3 30 -3q23 0 51 7q47 14 82 43q37 31 71.5 83 t70.5 120.5t73 150.5t80 168q-55 -47 -115.5 -76t-120.5 -29q-68 0 -85 40q-9 22 -9 51q0 24 7 55q14 65 53.5 149t87 172t93.5 172t75.5 149.5t32.5 105.5t-36 40q106 0 148.5 -36.5t42.5 -97t-35 -138.5t-84 -159t-102.5 -158.5t-91 -138t-51 -97.5t19.5 -37q43 0 98 44 t108.5 111.5t101.5 148.5t74.5 151.5t28.5 122.5v5q0 47 -34 56h104q41 98 54 157q3 15 3 27q0 33 -26 39q78 0 129 -15t82 -34q37 -23 57 -49q-68 -82 -129 -178t-116.5 -197.5t-106.5 -206t-103 -202.5q96 74 179.5 155.5t138.5 154.5t74 127q6 19 6 34q0 26 -21 36h213 q-51 -86 -123.5 -168.5t-156.5 -159.5t-176.5 -146.5t-184.5 -129.5q-84 -154 -169 -270.5t-185 -161.5q-96 -43 -164 -43h-11q-71 4 -111 41t-50 99z" />
<glyph unicode="z" horiz-adv-x="770" d="M-270 -287q22 -5 45 -5q44 0 88 18q67 28 126.5 77.5t103.5 110.5q45 60 65 116q14 37 13 68q0 15 -3 28q-10 40 -62 46q-29 -8 -58.5 -13t-63.5 -9l47 20q61 33 110 84t92 113.5t84 132t87.5 138.5t98.5 130t118 109q15 -4 34 -4q15 0 33 3q38 7 80 17q-35 -2 -61.5 8 t-53 22.5t-54.5 23.5t-67 11q-35 0 -76.5 -38.5t-85.5 -97t-85 -129t-69 -134t-41 -111.5q-7 -25 -6 -42q0 -15 5 -21q-12 -1 -23 -1q-61 0 -87 38q-25 37 -25 91q0 13 1 27q7 72 48 158t104.5 161t146.5 125t175 50q63 0 109.5 -21.5t84 -45t73.5 -39.5q20 -9 42 -10 q18 0 37 6q16 6 27.5 10t15.5 8l-12 -6l12 6q2 0 4 2q-2 -2 -4 -2q2 0 4 2q-78 -43 -135 -99.5t-104 -121t-89 -133t-87.5 -133t-100.5 -121.5t-127 -100q44 5 78 5h11q38 -1 65 -5q31 -6 51 -13q-14 -33 -37 -69q-18 -31 -45 -72t-59 -84q61 61 121.5 134t113.5 144.5 t95 139t69 120t32 85t-16 34.5h213q-23 -33 -80 -106.5t-135.5 -168.5t-173 -198.5t-189.5 -195.5t-183.5 -162t-155.5 -94v2q-73 -38 -149 -46q-15 -2 -30 -1q-62 0 -130 28z" />
<glyph unicode="{" d="M233 154q0 53 30 82.5t79 29.5q39 0 58.5 -17.5t27.5 -45.5l-25 -8q-12 47 -61 47q-41 0 -60.5 -26t-19.5 -60q0 -43 22.5 -64.5t57.5 -21.5q18 0 35.5 7t25.5 15v39h-61v27h90v-80q-45 -33 -90 -33q-51 0 -80 30.5t-29 78.5zM244 -47h30l21 -98l27 98h32l27 -100l22 100 h29l-35 -143h-30l-29 106l-29 -106h-30zM262 459l72 596l317 88l-2 4l33 18l-8 35l35 12l-4 37l32 11v36l37 7l2 34l37 4l6 35h35l10 35l37 -4l12 33l37 -6l17 30l34 -10l19 31l35 -15l20 27l33 -16l25 26l30 -22l27 24l29 -24l28 22l27 -26l31 16l22 -27l33 15l20 -31 l35 10l17 -30l34 6l15 -33l35 4l10 -35h18l576 156l-72 -596l-287 -80l-14 -14l18 -33l-28 -23l14 -32l-31 -21l11 -33l-31 -16l6 -37l-33 -12l4 -37l-35 -8v-37l-34 -8l-4 -35l-35 -2l-6 -37h-37l-10 -35l-35 4l-15 -32l-34 8l-17 -33l-35 12l-20 -30l-33 14l-22 -29 l-31 17l-27 -25l-28 20l-29 -24l-27 24l-30 -20l-25 25l-33 -17l-20 29l-35 -14l-19 30l-34 -12l-17 33l-37 -8l-12 32l-37 -4l-10 35h-35l-6 37l-37 2l-2 35l-37 8l2 35zM389 848q0 -35 31 -35q6 0 22 4q-12 0 -12 31t20.5 69.5t79.5 51.5h11q18 0 26 -13.5t8 -33.5 q0 -39 -23.5 -83t-62.5 -57q12 37 24.5 71t21.5 56l-9 9q-4 4 -9 7t-15 3t-15 -2q4 0 5 -11q0 -16 -9.5 -50t-21.5 -70.5t-21.5 -72.5t-9.5 -58q0 -25 14 -25h7q-2 0 -2 6q0 14 10 50t26 79q66 16 99.5 61.5t33.5 86.5q0 25 -14 41t-45 16h-13t-14 -2q-76 -16 -109.5 -57 t-33.5 -72zM432 -47h29l22 -98l27 98h33l24 -100l23 100h28l-32 -143h-31l-29 106l-28 -106h-31zM461 125q0 39 19.5 60.5t54.5 21.5q29 0 49 -21.5t20 -60.5v-6h-117q6 -51 48 -51q31 0 40 30l29 -4q-16 -49 -69 -49q-35 0 -54.5 20.5t-19.5 59.5zM489 141h86q-2 23 -13 34 t-27 11q-18 0 -30.5 -13t-15.5 -32zM575 760q0 -16 6.5 -27.5t22.5 -11.5q25 0 48.5 20.5t35.5 34.5q4 0 11.5 10.5t14.5 23.5t13 25.5t8 16.5q2 0 6 1t9 1h7t3 -12q-2 -6 -2 -19q0 -23 2 -40t20 -17q20 0 41 24.5t29 32.5l10 13q12 -12 12 -27v-14q0 -8 -4 -17 q-8 -14 -22 -14q-6 0 -8 6t-4 6q-4 0 -5 -2q0 -6 6.5 -12t16.5 -6q12 0 23.5 7t18.5 17.5t11 20.5t4 16q0 8 -2 18.5t-24 32.5q8 10 13 22.5t5 16.5q0 6 -6 6q-29 0 -39 -17t-10 -28q0 -10 3 -15t7 -13l-10 -15h-2l-8 -12q-4 -6 -13.5 -14t-17.5 -8q-6 0 -9 10t-3 24v19v22 t-7 6q-4 0 -20 -2t-25 -2q2 2 2 9q0 8 -6 8q-20 0 -20 -23q0 -8 5 -8h9q0 -2 -1 -3t-1 -5q-35 -66 -60.5 -83.5t-35.5 -17.5t-17 13q16 20 34 39.5t18 38.5q0 4 -3 9t-14 5q-16 0 -30.5 -10.5t-24.5 -25.5t-15.5 -30.5t-5.5 -23.5zM612 776q0 35 13.5 50.5t25.5 15.5 q8 0 8 -11q0 -17 -20 -40q-8 -14 -25 -27q0 4 -1 6t-1 6zM621 -47h28l23 -98l26 98h33l25 -100l22 100h29l-35 -143h-31l-28 106l-27 -106h-33zM623 182v21h18v39l27 16v-55h24v-21h-24v-90q0 -16 3 -18t11 -2h10l6 -23q-8 -2 -20 -2q-16 0 -23.5 4t-11.5 12q-2 4 -2 31v88 h-18zM784 182v21h25v16q0 23 8 35t35 12q4 0 10 -1t12 -1l-2 -24q-6 2 -16 2q-23 0 -22 -25v-14h30v-21h-30v-133h-25v133h-25zM811 -162h27v-28h-27v28zM866 -47h43l25 -98l27 98h43v-143h-27v112l-29 -112h-28l-27 112v-112h-27v143zM872 889q0 18 17 18q4 0 4 -4 q0 -8 -14 -31q-2 4 -4.5 8.5t-2.5 8.5zM885 106v97h26v-86q0 -29 6.5 -39t24.5 -10q41 0 41 53v82h27v-154h-25v23q-14 -27 -49 -27q-27 0 -39 13.5t-12 47.5zM934 848q0 -10 6 -22.5t23 -12.5q27 0 52 27.5t25 62.5q0 18 -9 26.5t-19 8.5q-20 0 -45 -20.5t-31 -55.5 q-2 -4 -2 -14zM954 559q0 -20 13.5 -35.5t38.5 -15.5q31 0 52 21.5t21 56.5q0 27 -15 41t-38 14q-33 0 -52.5 -23.5t-19.5 -58.5zM969 874q0 6 10 32t35 26q20 -6 20 -31q0 -33 -16.5 -48t-26.5 -15q-4 2 -6 2t-6 2q-10 10 -10 32zM979 561q0 23 13.5 40t31.5 17 q29 0 29 -32q0 -25 -13.5 -41.5t-29.5 -16.5q-12 0 -21.5 9.5t-9.5 23.5zM1018 -190l55 143h31l57 -143h-33l-12 32h-55l-12 -32h-31zM1051 49v213h26v-213h-26zM1051 887q0 -10 3 -28.5t17 -18.5q10 0 16 10q27 25 32 49.5t16 26.5v-10q0 -11 1 -23t5 -22.5t14 -10.5 q14 0 30.5 17.5t26.5 29.5q0 -27 19 -26q14 0 35.5 21.5t21.5 31.5q0 -8 7.5 -20.5t17.5 -12.5t30.5 18.5t28.5 32.5q4 -31 21 -30q12 0 23 8t20.5 18t16.5 19.5t9 11.5v4h-6q-14 -23 -23.5 -28t-13.5 -5q-10 0 -14 27v13t2 16q31 49 54.5 94t23.5 67q0 10 -8 11 q-8 0 -25.5 -13.5t-35 -40t-31 -64.5t-13.5 -89v-10v-3l-10 -10q-4 -6 -10 -13t-15 -7q-10 0 -14 14q-2 12 -4 23q-2 10 -4 17t-4 7q-4 0 -6 -6q-18 -37 -23.5 -50t-21.5 -20q-16 0 -17 17q0 18 8.5 33.5t18.5 25.5t21.5 15.5t15.5 5.5q8 0 9 -1t3 -1q0 2 2 2l2 2q0 4 -12 4 q-29 0 -58.5 -32t-40.5 -66l-8 -11l-11 -11t-13 -7t-7.5 6t-3.5 16v18.5t-1 24t-3 20.5t-6 9t-10 -10q-2 -4 -8 -17.5t-14.5 -29t-15.5 -29.5t-11 -18q-4 0 -9.5 9t-7.5 23q6 12 13.5 24.5t7.5 22.5q0 6 -8 7q-16 0 -28.5 -16.5t-16.5 -41.5v-20zM1069 -133h39l-21 53z M1079 932q0 10 2 19.5t13 9.5q2 0 3 -1.5t3 -1.5q-1 -9 -19 -40q0 4 -1 7t-1 7zM1085 510h27l18 86l35 -86h25l27 129h-25l-18 -88l-35 88h-25zM1116 49v213h27v-213h-27zM1151 -47h29l22 -98l27 98h33l24 -100l23 100h28l-34 -143h-29l-31 106l-26 -106h-31zM1217 510h94 l4 20h-66l23 109h-27zM1249 182v21h25v16q0 23 8 35t33 12q6 0 12 -1t12 -1l-2 -24q-6 2 -16 2q-12 0 -16 -4q-6 -6 -7 -21v-14h31v-21h-31v-133h-24v133h-25zM1327 639l35 -80l-10 -49h26l11 47l59 82h-31l-37 -55l-24 55h-29zM1339 125q0 41 20.5 61.5t51.5 20.5 q33 0 53.5 -20.5t20.5 -57.5q0 -41 -19.5 -62.5t-54.5 -21.5q-33 0 -52.5 20.5t-19.5 59.5zM1354 -47h26l60 -96v96h26v-143h-28l-58 92v-92h-26v143zM1366 125q0 -29 13.5 -43t31.5 -14q21 0 33 14q14 14 14 45q0 57 -47 57q-45 0 -45 -59zM1409 1020q4 57 24.5 102 t36.5 45q4 0 5 -8q-1 -20 -19 -53q-10 -20 -21.5 -41t-25.5 -45zM1489 -143l29 2q2 -27 30 -27q16 0 21.5 6t5.5 12q0 4 -1 8.5t-11 8.5q-41 10 -55.5 18.5t-14.5 28.5q0 23 16.5 32t36.5 9q29 0 41 -12.5t12 -30.5l-26 -2q-6 20 -27 20q-25 0 -24 -14q0 -10 22.5 -14.5 t38.5 -14.5q23 -10 23 -37q0 -18 -14.5 -30.5t-43.5 -12.5q-53 0 -59 50zM1516 49v154h22v-21q18 25 49 25h15.5t17.5 -5t14 -18.5t6 -40.5v-94h-24v94q0 41 -33 41q-16 0 -28.5 -10t-12.5 -41v-84h-26zM1579 973q0 -33 20 -33q18 0 34 15.5t28 37.5v-6q0 -25 12 -24 q16 0 33.5 20.5t32.5 42.5q0 -14 20 -18q29 0 43.5 24.5t16.5 36.5q0 16 -5.5 22.5t-19.5 28.5q4 10 10 21.5t6 17.5t-6 6q-29 0 -39 -17.5t-10 -27.5t3 -15t7 -13l2 -2q-6 -10 -15 -28t-19.5 -35t-21.5 -30.5t-19 -15.5q-4 0 -4 8q0 16 12 62.5t29 93.5q18 55 40 123 q-4 0 -8 2q-12 4 -22 4q-14 0 -23 -2q6 0 6 -10t-5 -31t-11 -45.5t-14.5 -53t-14.5 -55.5l-14 -4q6 0 6 -14q0 -12 -6 -29.5t-15.5 -35t-20.5 -30t-19 -12.5t-9 13q0 16 12.5 52t28 76t28.5 77.5t13 62.5t-18 24q-4 0 -9 -1t-14 -3h2q4 0 5 -8q0 -14 -10.5 -49t-24 -75 t-23.5 -81t-10 -67zM1628 -162h29v-28h-29v28zM1667 182v21h21v39l24 16v-55h27v-21h-27v-90q0 -16 4 -18t10 -2h13l4 -23q-8 -2 -21 -2q-23 0 -28.5 7t-5.5 40v88h-21zM1679 -121q0 35 18.5 55.5t47.5 20.5q45 0 57 -43l-26 -6q-6 25 -31 24q-37 0 -37 -49q0 -29 10.5 -39 t24.5 -10q10 0 20 6q10 10 13 25l28 -10q-16 -45 -61 -46q-29 0 -46.5 19.5t-17.5 52.5zM1741 1028q23 35 28 59q4 -8 8.5 -13t6.5 -15q0 -10 -2 -12q0 -4 -5 -17.5t-22 -13.5q-4 0 -6 6t-6 6h-2zM1784 1141q0 18 14 18q6 0 6 -4q0 -8 -16 -31q-4 12 -4 17zM1823 -119 q0 43 22 58.5t45 15.5q33 0 51.5 -19.5t18.5 -54.5q0 -37 -19.5 -55.5t-48.5 -18.5q-70 0 -69 74zM1839 90q0 20 11.5 29.5t26.5 13.5t33.5 6t35.5 8q0 23 -8.5 30t-28.5 7t-27.5 -6t-11.5 -22l-27 4q4 27 22.5 37t47.5 10q33 0 46 -11.5t13 -45.5v-37q0 -35 1 -44.5 t9 -19.5h-28q-4 4 -4 9t-2 10q-25 -23 -56 -23q-53 0 -53 45zM1843 1102q0 -10 6 -23.5t23 -13.5q12 0 23.5 5t25.5 15q27 18 39 35q6 8 8 13q0 2 -4 2q-25 -25 -37 -36.5t-26 -11.5q-10 0 -15 13q27 35 36 47t13 29q0 18 -14 18q-29 0 -48.5 -28.5t-27.5 -51.5q0 -4 -1 -6 t-1 -6zM1851 -119q0 -49 41 -49q17 0 27 12q12 12 12 37q0 49 -39 49q-41 0 -41 -49zM1866 90q0 -25 32 -24q20 0 34 11t14 40v8q-12 -4 -25.5 -6t-26 -5t-20.5 -8.5t-8 -15.5zM1882 1128q2 23 11.5 40.5t23.5 17.5q12 0 12 -10q0 -12 -10.5 -27t-22.5 -29q-4 -4 -6 -7 t-6 -7q-2 8 -2 22zM1982 -47h43l25 -98l27 98h43v-143h-27v112l-29 -112h-26l-29 112v-112h-27v143zM1999 182v21h20v39l25 16v-55h27v-21h-27v-90q0 -16 4 -18t10 -2h13l4 -23q-8 -2 -21 -2q-27 0 -33 16q-2 4 -2 31v88h-20zM2103 49v29h31v-29h-31zM2103 174v29h31v-29 h-31z" />
<glyph unicode="|" horiz-adv-x="663" d="M25 -276q2 79 31.5 197t81.5 262.5t108.5 294t111 291.5t90 256t46 186.5t-22.5 82.5q53 27 92 33t66 2q31 -6 53 -20q-23 -74 -65 -181.5t-93 -236.5t-109.5 -269.5t-113.5 -276.5t-103 -261t-82 -222.5t-48.5 -159.5t-1.5 -75q-43 18 -41 97z" />
<glyph unicode="}" d="M233 154q0 53 30 82.5t79 29.5q39 0 58.5 -17.5t27.5 -45.5l-25 -8q-12 47 -61 47q-41 0 -60.5 -26t-19.5 -60q0 -43 22.5 -64.5t57.5 -21.5q18 0 35.5 7t25.5 15v39h-61v27h90v-80q-45 -33 -90 -33q-51 0 -80 30.5t-29 78.5zM244 -47h30l21 -98l27 98h32l27 -100l22 100 h29l-35 -143h-30l-29 106l-29 -106h-30zM262 459l72 596l317 88l-2 4l33 18l-8 35l35 12l-4 37l32 11v36l37 7l2 34l37 4l6 35h35l10 35l37 -4l12 33l37 -6l17 30l34 -10l19 31l35 -15l20 27l33 -16l25 26l30 -22l27 24l29 -24l28 22l27 -26l31 16l22 -27l33 15l20 -31 l35 10l17 -30l34 6l15 -33l35 4l10 -35h18l576 156l-72 -596l-287 -80l-14 -14l18 -33l-28 -23l14 -32l-31 -21l11 -33l-31 -16l6 -37l-33 -12l4 -37l-35 -8v-37l-34 -8l-4 -35l-35 -2l-6 -37h-37l-10 -35l-35 4l-15 -32l-34 8l-17 -33l-35 12l-20 -30l-33 14l-22 -29 l-31 17l-27 -25l-28 20l-29 -24l-27 24l-30 -20l-25 25l-33 -17l-20 29l-35 -14l-19 30l-34 -12l-17 33l-37 -8l-12 32l-37 -4l-10 35h-35l-6 37l-37 2l-2 35l-37 8l2 35zM389 848q0 -35 31 -35q6 0 22 4q-12 0 -12 31t20.5 69.5t79.5 51.5h11q18 0 26 -13.5t8 -33.5 q0 -39 -23.5 -83t-62.5 -57q12 37 24.5 71t21.5 56l-9 9q-4 4 -9 7t-15 3t-15 -2q4 0 5 -11q0 -16 -9.5 -50t-21.5 -70.5t-21.5 -72.5t-9.5 -58q0 -25 14 -25h7q-2 0 -2 6q0 14 10 50t26 79q66 16 99.5 61.5t33.5 86.5q0 25 -14 41t-45 16h-13t-14 -2q-76 -16 -109.5 -57 t-33.5 -72zM432 -47h29l22 -98l27 98h33l24 -100l23 100h28l-32 -143h-31l-29 106l-28 -106h-31zM461 125q0 39 19.5 60.5t54.5 21.5q29 0 49 -21.5t20 -60.5v-6h-117q6 -51 48 -51q31 0 40 30l29 -4q-16 -49 -69 -49q-35 0 -54.5 20.5t-19.5 59.5zM489 141h86q-2 23 -13 34 t-27 11q-18 0 -30.5 -13t-15.5 -32zM575 760q0 -16 6.5 -27.5t22.5 -11.5q25 0 48.5 20.5t35.5 34.5q4 0 11.5 10.5t14.5 23.5t13 25.5t8 16.5q2 0 6 1t9 1h7t3 -12q-2 -6 -2 -19q0 -23 2 -40t20 -17q20 0 41 24.5t29 32.5l10 13q12 -12 12 -27v-14q0 -8 -4 -17 q-8 -14 -22 -14q-6 0 -8 6t-4 6q-4 0 -5 -2q0 -6 6.5 -12t16.5 -6q12 0 23.5 7t18.5 17.5t11 20.5t4 16q0 8 -2 18.5t-24 32.5q8 10 13 22.5t5 16.5q0 6 -6 6q-29 0 -39 -17t-10 -28q0 -10 3 -15t7 -13l-10 -15h-2l-8 -12q-4 -6 -13.5 -14t-17.5 -8q-6 0 -9 10t-3 24v19v22 t-7 6q-4 0 -20 -2t-25 -2q2 2 2 9q0 8 -6 8q-20 0 -20 -23q0 -8 5 -8h9q0 -2 -1 -3t-1 -5q-35 -66 -60.5 -83.5t-35.5 -17.5t-17 13q16 20 34 39.5t18 38.5q0 4 -3 9t-14 5q-16 0 -30.5 -10.5t-24.5 -25.5t-15.5 -30.5t-5.5 -23.5zM612 776q0 35 13.5 50.5t25.5 15.5 q8 0 8 -11q0 -17 -20 -40q-8 -14 -25 -27q0 4 -1 6t-1 6zM621 -47h28l23 -98l26 98h33l25 -100l22 100h29l-35 -143h-31l-28 106l-27 -106h-33zM623 182v21h18v39l27 16v-55h24v-21h-24v-90q0 -16 3 -18t11 -2h10l6 -23q-8 -2 -20 -2q-16 0 -23.5 4t-11.5 12q-2 4 -2 31v88 h-18zM784 182v21h25v16q0 23 8 35t35 12q4 0 10 -1t12 -1l-2 -24q-6 2 -16 2q-23 0 -22 -25v-14h30v-21h-30v-133h-25v133h-25zM811 -162h27v-28h-27v28zM866 -47h43l25 -98l27 98h43v-143h-27v112l-29 -112h-28l-27 112v-112h-27v143zM872 889q0 18 17 18q4 0 4 -4 q0 -8 -14 -31q-2 4 -4.5 8.5t-2.5 8.5zM885 106v97h26v-86q0 -29 6.5 -39t24.5 -10q41 0 41 53v82h27v-154h-25v23q-14 -27 -49 -27q-27 0 -39 13.5t-12 47.5zM934 848q0 -10 6 -22.5t23 -12.5q27 0 52 27.5t25 62.5q0 18 -9 26.5t-19 8.5q-20 0 -45 -20.5t-31 -55.5 q-2 -4 -2 -14zM954 559q0 -20 13.5 -35.5t38.5 -15.5q31 0 52 21.5t21 56.5q0 27 -15 41t-38 14q-33 0 -52.5 -23.5t-19.5 -58.5zM969 874q0 6 10 32t35 26q20 -6 20 -31q0 -33 -16.5 -48t-26.5 -15q-4 2 -6 2t-6 2q-10 10 -10 32zM979 561q0 23 13.5 40t31.5 17 q29 0 29 -32q0 -25 -13.5 -41.5t-29.5 -16.5q-12 0 -21.5 9.5t-9.5 23.5zM1018 -190l55 143h31l57 -143h-33l-12 32h-55l-12 -32h-31zM1051 49v213h26v-213h-26zM1051 887q0 -10 3 -28.5t17 -18.5q10 0 16 10q27 25 32 49.5t16 26.5v-10q0 -11 1 -23t5 -22.5t14 -10.5 q14 0 30.5 17.5t26.5 29.5q0 -27 19 -26q14 0 35.5 21.5t21.5 31.5q0 -8 7.5 -20.5t17.5 -12.5t30.5 18.5t28.5 32.5q4 -31 21 -30q12 0 23 8t20.5 18t16.5 19.5t9 11.5v4h-6q-14 -23 -23.5 -28t-13.5 -5q-10 0 -14 27v13t2 16q31 49 54.5 94t23.5 67q0 10 -8 11 q-8 0 -25.5 -13.5t-35 -40t-31 -64.5t-13.5 -89v-10v-3l-10 -10q-4 -6 -10 -13t-15 -7q-10 0 -14 14q-2 12 -4 23q-2 10 -4 17t-4 7q-4 0 -6 -6q-18 -37 -23.5 -50t-21.5 -20q-16 0 -17 17q0 18 8.5 33.5t18.5 25.5t21.5 15.5t15.5 5.5q8 0 9 -1t3 -1q0 2 2 2l2 2q0 4 -12 4 q-29 0 -58.5 -32t-40.5 -66l-8 -11l-11 -11t-13 -7t-7.5 6t-3.5 16v18.5t-1 24t-3 20.5t-6 9t-10 -10q-2 -4 -8 -17.5t-14.5 -29t-15.5 -29.5t-11 -18q-4 0 -9.5 9t-7.5 23q6 12 13.5 24.5t7.5 22.5q0 6 -8 7q-16 0 -28.5 -16.5t-16.5 -41.5v-20zM1069 -133h39l-21 53z M1079 932q0 10 2 19.5t13 9.5q2 0 3 -1.5t3 -1.5q-1 -9 -19 -40q0 4 -1 7t-1 7zM1085 510h27l18 86l35 -86h25l27 129h-25l-18 -88l-35 88h-25zM1116 49v213h27v-213h-27zM1151 -47h29l22 -98l27 98h33l24 -100l23 100h28l-34 -143h-29l-31 106l-26 -106h-31zM1217 510h94 l4 20h-66l23 109h-27zM1249 182v21h25v16q0 23 8 35t33 12q6 0 12 -1t12 -1l-2 -24q-6 2 -16 2q-12 0 -16 -4q-6 -6 -7 -21v-14h31v-21h-31v-133h-24v133h-25zM1327 639l35 -80l-10 -49h26l11 47l59 82h-31l-37 -55l-24 55h-29zM1339 125q0 41 20.5 61.5t51.5 20.5 q33 0 53.5 -20.5t20.5 -57.5q0 -41 -19.5 -62.5t-54.5 -21.5q-33 0 -52.5 20.5t-19.5 59.5zM1354 -47h26l60 -96v96h26v-143h-28l-58 92v-92h-26v143zM1366 125q0 -29 13.5 -43t31.5 -14q21 0 33 14q14 14 14 45q0 57 -47 57q-45 0 -45 -59zM1409 1020q4 57 24.5 102 t36.5 45q4 0 5 -8q-1 -20 -19 -53q-10 -20 -21.5 -41t-25.5 -45zM1489 -143l29 2q2 -27 30 -27q16 0 21.5 6t5.5 12q0 4 -1 8.5t-11 8.5q-41 10 -55.5 18.5t-14.5 28.5q0 23 16.5 32t36.5 9q29 0 41 -12.5t12 -30.5l-26 -2q-6 20 -27 20q-25 0 -24 -14q0 -10 22.5 -14.5 t38.5 -14.5q23 -10 23 -37q0 -18 -14.5 -30.5t-43.5 -12.5q-53 0 -59 50zM1516 49v154h22v-21q18 25 49 25h15.5t17.5 -5t14 -18.5t6 -40.5v-94h-24v94q0 41 -33 41q-16 0 -28.5 -10t-12.5 -41v-84h-26zM1579 973q0 -33 20 -33q18 0 34 15.5t28 37.5v-6q0 -25 12 -24 q16 0 33.5 20.5t32.5 42.5q0 -14 20 -18q29 0 43.5 24.5t16.5 36.5q0 16 -5.5 22.5t-19.5 28.5q4 10 10 21.5t6 17.5t-6 6q-29 0 -39 -17.5t-10 -27.5t3 -15t7 -13l2 -2q-6 -10 -15 -28t-19.5 -35t-21.5 -30.5t-19 -15.5q-4 0 -4 8q0 16 12 62.5t29 93.5q18 55 40 123 q-4 0 -8 2q-12 4 -22 4q-14 0 -23 -2q6 0 6 -10t-5 -31t-11 -45.5t-14.5 -53t-14.5 -55.5l-14 -4q6 0 6 -14q0 -12 -6 -29.5t-15.5 -35t-20.5 -30t-19 -12.5t-9 13q0 16 12.5 52t28 76t28.5 77.5t13 62.5t-18 24q-4 0 -9 -1t-14 -3h2q4 0 5 -8q0 -14 -10.5 -49t-24 -75 t-23.5 -81t-10 -67zM1628 -162h29v-28h-29v28zM1667 182v21h21v39l24 16v-55h27v-21h-27v-90q0 -16 4 -18t10 -2h13l4 -23q-8 -2 -21 -2q-23 0 -28.5 7t-5.5 40v88h-21zM1679 -121q0 35 18.5 55.5t47.5 20.5q45 0 57 -43l-26 -6q-6 25 -31 24q-37 0 -37 -49q0 -29 10.5 -39 t24.5 -10q10 0 20 6q10 10 13 25l28 -10q-16 -45 -61 -46q-29 0 -46.5 19.5t-17.5 52.5zM1741 1028q23 35 28 59q4 -8 8.5 -13t6.5 -15q0 -10 -2 -12q0 -4 -5 -17.5t-22 -13.5q-4 0 -6 6t-6 6h-2zM1784 1141q0 18 14 18q6 0 6 -4q0 -8 -16 -31q-4 12 -4 17zM1823 -119 q0 43 22 58.5t45 15.5q33 0 51.5 -19.5t18.5 -54.5q0 -37 -19.5 -55.5t-48.5 -18.5q-70 0 -69 74zM1839 90q0 20 11.5 29.5t26.5 13.5t33.5 6t35.5 8q0 23 -8.5 30t-28.5 7t-27.5 -6t-11.5 -22l-27 4q4 27 22.5 37t47.5 10q33 0 46 -11.5t13 -45.5v-37q0 -35 1 -44.5 t9 -19.5h-28q-4 4 -4 9t-2 10q-25 -23 -56 -23q-53 0 -53 45zM1843 1102q0 -10 6 -23.5t23 -13.5q12 0 23.5 5t25.5 15q27 18 39 35q6 8 8 13q0 2 -4 2q-25 -25 -37 -36.5t-26 -11.5q-10 0 -15 13q27 35 36 47t13 29q0 18 -14 18q-29 0 -48.5 -28.5t-27.5 -51.5q0 -4 -1 -6 t-1 -6zM1851 -119q0 -49 41 -49q17 0 27 12q12 12 12 37q0 49 -39 49q-41 0 -41 -49zM1866 90q0 -25 32 -24q20 0 34 11t14 40v8q-12 -4 -25.5 -6t-26 -5t-20.5 -8.5t-8 -15.5zM1882 1128q2 23 11.5 40.5t23.5 17.5q12 0 12 -10q0 -12 -10.5 -27t-22.5 -29q-4 -4 -6 -7 t-6 -7q-2 8 -2 22zM1982 -47h43l25 -98l27 98h43v-143h-27v112l-29 -112h-26l-29 112v-112h-27v143zM1999 182v21h20v39l25 16v-55h27v-21h-27v-90q0 -16 4 -18t10 -2h13l4 -23q-8 -2 -21 -2q-27 0 -33 16q-2 4 -2 31v88h-20zM2103 49v29h31v-29h-31zM2103 174v29h31v-29 h-31z" />
<glyph unicode="~" horiz-adv-x="819" d="M160 453q47 109 102 146.5t112.5 36.5t116 -24.5t117 -39t112.5 -7.5t103 74q-45 -111 -86 -165t-80 -70.5t-77.5 -3t-77.5 37t-79 50t-82 38t-87 -3t-94 -69.5z" />
<glyph unicode="&#xa1;" horiz-adv-x="473" d="M-86 -66q49 72 117.5 177.5t141.5 220t142.5 230.5t121.5 209t81 153.5t21 68.5q51 0 61 -36.5t-7.5 -98t-56 -140.5t-83.5 -163t-90.5 -167t-77 -152.5t-42 -120t14.5 -66.5q-66 -43 -128 -66.5t-110 -33.5q-57 -12 -106 -15zM605 1214.5q5 34.5 29.5 78.5t53.5 91 q59 12 95 0t41 -45.5t-23.5 -84.5t-98.5 -117q-61 0 -81.5 21.5t-15.5 56z" />
<glyph unicode="&#xa2;" d="M233 154q0 53 30 82.5t79 29.5q39 0 58.5 -17.5t27.5 -45.5l-25 -8q-12 47 -61 47q-41 0 -60.5 -26t-19.5 -60q0 -43 22.5 -64.5t57.5 -21.5q18 0 35.5 7t25.5 15v39h-61v27h90v-80q-45 -33 -90 -33q-51 0 -80 30.5t-29 78.5zM244 -47h30l21 -98l27 98h32l27 -100l22 100 h29l-35 -143h-30l-29 106l-29 -106h-30zM262 459l72 596l317 88l-2 4l33 18l-8 35l35 12l-4 37l32 11v36l37 7l2 34l37 4l6 35h35l10 35l37 -4l12 33l37 -6l17 30l34 -10l19 31l35 -15l20 27l33 -16l25 26l30 -22l27 24l29 -24l28 22l27 -26l31 16l22 -27l33 15l20 -31 l35 10l17 -30l34 6l15 -33l35 4l10 -35h18l576 156l-72 -596l-287 -80l-14 -14l18 -33l-28 -23l14 -32l-31 -21l11 -33l-31 -16l6 -37l-33 -12l4 -37l-35 -8v-37l-34 -8l-4 -35l-35 -2l-6 -37h-37l-10 -35l-35 4l-15 -32l-34 8l-17 -33l-35 12l-20 -30l-33 14l-22 -29 l-31 17l-27 -25l-28 20l-29 -24l-27 24l-30 -20l-25 25l-33 -17l-20 29l-35 -14l-19 30l-34 -12l-17 33l-37 -8l-12 32l-37 -4l-10 35h-35l-6 37l-37 2l-2 35l-37 8l2 35zM389 848q0 -35 31 -35q6 0 22 4q-12 0 -12 31t20.5 69.5t79.5 51.5h11q18 0 26 -13.5t8 -33.5 q0 -39 -23.5 -83t-62.5 -57q12 37 24.5 71t21.5 56l-9 9q-4 4 -9 7t-15 3t-15 -2q4 0 5 -11q0 -16 -9.5 -50t-21.5 -70.5t-21.5 -72.5t-9.5 -58q0 -25 14 -25h7q-2 0 -2 6q0 14 10 50t26 79q66 16 99.5 61.5t33.5 86.5q0 25 -14 41t-45 16h-13t-14 -2q-76 -16 -109.5 -57 t-33.5 -72zM432 -47h29l22 -98l27 98h33l24 -100l23 100h28l-32 -143h-31l-29 106l-28 -106h-31zM461 125q0 39 19.5 60.5t54.5 21.5q29 0 49 -21.5t20 -60.5v-6h-117q6 -51 48 -51q31 0 40 30l29 -4q-16 -49 -69 -49q-35 0 -54.5 20.5t-19.5 59.5zM489 141h86q-2 23 -13 34 t-27 11q-18 0 -30.5 -13t-15.5 -32zM575 760q0 -16 6.5 -27.5t22.5 -11.5q25 0 48.5 20.5t35.5 34.5q4 0 11.5 10.5t14.5 23.5t13 25.5t8 16.5q2 0 6 1t9 1h7t3 -12q-2 -6 -2 -19q0 -23 2 -40t20 -17q20 0 41 24.5t29 32.5l10 13q12 -12 12 -27v-14q0 -8 -4 -17 q-8 -14 -22 -14q-6 0 -8 6t-4 6q-4 0 -5 -2q0 -6 6.5 -12t16.5 -6q12 0 23.5 7t18.5 17.5t11 20.5t4 16q0 8 -2 18.5t-24 32.5q8 10 13 22.5t5 16.5q0 6 -6 6q-29 0 -39 -17t-10 -28q0 -10 3 -15t7 -13l-10 -15h-2l-8 -12q-4 -6 -13.5 -14t-17.5 -8q-6 0 -9 10t-3 24v19v22 t-7 6q-4 0 -20 -2t-25 -2q2 2 2 9q0 8 -6 8q-20 0 -20 -23q0 -8 5 -8h9q0 -2 -1 -3t-1 -5q-35 -66 -60.5 -83.5t-35.5 -17.5t-17 13q16 20 34 39.5t18 38.5q0 4 -3 9t-14 5q-16 0 -30.5 -10.5t-24.5 -25.5t-15.5 -30.5t-5.5 -23.5zM612 776q0 35 13.5 50.5t25.5 15.5 q8 0 8 -11q0 -17 -20 -40q-8 -14 -25 -27q0 4 -1 6t-1 6zM621 -47h28l23 -98l26 98h33l25 -100l22 100h29l-35 -143h-31l-28 106l-27 -106h-33zM623 182v21h18v39l27 16v-55h24v-21h-24v-90q0 -16 3 -18t11 -2h10l6 -23q-8 -2 -20 -2q-16 0 -23.5 4t-11.5 12q-2 4 -2 31v88 h-18zM784 182v21h25v16q0 23 8 35t35 12q4 0 10 -1t12 -1l-2 -24q-6 2 -16 2q-23 0 -22 -25v-14h30v-21h-30v-133h-25v133h-25zM811 -162h27v-28h-27v28zM866 -47h43l25 -98l27 98h43v-143h-27v112l-29 -112h-28l-27 112v-112h-27v143zM872 889q0 18 17 18q4 0 4 -4 q0 -8 -14 -31q-2 4 -4.5 8.5t-2.5 8.5zM885 106v97h26v-86q0 -29 6.5 -39t24.5 -10q41 0 41 53v82h27v-154h-25v23q-14 -27 -49 -27q-27 0 -39 13.5t-12 47.5zM934 848q0 -10 6 -22.5t23 -12.5q27 0 52 27.5t25 62.5q0 18 -9 26.5t-19 8.5q-20 0 -45 -20.5t-31 -55.5 q-2 -4 -2 -14zM954 559q0 -20 13.5 -35.5t38.5 -15.5q31 0 52 21.5t21 56.5q0 27 -15 41t-38 14q-33 0 -52.5 -23.5t-19.5 -58.5zM969 874q0 6 10 32t35 26q20 -6 20 -31q0 -33 -16.5 -48t-26.5 -15q-4 2 -6 2t-6 2q-10 10 -10 32zM979 561q0 23 13.5 40t31.5 17 q29 0 29 -32q0 -25 -13.5 -41.5t-29.5 -16.5q-12 0 -21.5 9.5t-9.5 23.5zM1018 -190l55 143h31l57 -143h-33l-12 32h-55l-12 -32h-31zM1051 49v213h26v-213h-26zM1051 887q0 -10 3 -28.5t17 -18.5q10 0 16 10q27 25 32 49.5t16 26.5v-10q0 -11 1 -23t5 -22.5t14 -10.5 q14 0 30.5 17.5t26.5 29.5q0 -27 19 -26q14 0 35.5 21.5t21.5 31.5q0 -8 7.5 -20.5t17.5 -12.5t30.5 18.5t28.5 32.5q4 -31 21 -30q12 0 23 8t20.5 18t16.5 19.5t9 11.5v4h-6q-14 -23 -23.5 -28t-13.5 -5q-10 0 -14 27v13t2 16q31 49 54.5 94t23.5 67q0 10 -8 11 q-8 0 -25.5 -13.5t-35 -40t-31 -64.5t-13.5 -89v-10v-3l-10 -10q-4 -6 -10 -13t-15 -7q-10 0 -14 14q-2 12 -4 23q-2 10 -4 17t-4 7q-4 0 -6 -6q-18 -37 -23.5 -50t-21.5 -20q-16 0 -17 17q0 18 8.5 33.5t18.5 25.5t21.5 15.5t15.5 5.5q8 0 9 -1t3 -1q0 2 2 2l2 2q0 4 -12 4 q-29 0 -58.5 -32t-40.5 -66l-8 -11l-11 -11t-13 -7t-7.5 6t-3.5 16v18.5t-1 24t-3 20.5t-6 9t-10 -10q-2 -4 -8 -17.5t-14.5 -29t-15.5 -29.5t-11 -18q-4 0 -9.5 9t-7.5 23q6 12 13.5 24.5t7.5 22.5q0 6 -8 7q-16 0 -28.5 -16.5t-16.5 -41.5v-20zM1069 -133h39l-21 53z M1079 932q0 10 2 19.5t13 9.5q2 0 3 -1.5t3 -1.5q-1 -9 -19 -40q0 4 -1 7t-1 7zM1085 510h27l18 86l35 -86h25l27 129h-25l-18 -88l-35 88h-25zM1116 49v213h27v-213h-27zM1151 -47h29l22 -98l27 98h33l24 -100l23 100h28l-34 -143h-29l-31 106l-26 -106h-31zM1217 510h94 l4 20h-66l23 109h-27zM1249 182v21h25v16q0 23 8 35t33 12q6 0 12 -1t12 -1l-2 -24q-6 2 -16 2q-12 0 -16 -4q-6 -6 -7 -21v-14h31v-21h-31v-133h-24v133h-25zM1327 639l35 -80l-10 -49h26l11 47l59 82h-31l-37 -55l-24 55h-29zM1339 125q0 41 20.5 61.5t51.5 20.5 q33 0 53.5 -20.5t20.5 -57.5q0 -41 -19.5 -62.5t-54.5 -21.5q-33 0 -52.5 20.5t-19.5 59.5zM1354 -47h26l60 -96v96h26v-143h-28l-58 92v-92h-26v143zM1366 125q0 -29 13.5 -43t31.5 -14q21 0 33 14q14 14 14 45q0 57 -47 57q-45 0 -45 -59zM1409 1020q4 57 24.5 102 t36.5 45q4 0 5 -8q-1 -20 -19 -53q-10 -20 -21.5 -41t-25.5 -45zM1489 -143l29 2q2 -27 30 -27q16 0 21.5 6t5.5 12q0 4 -1 8.5t-11 8.5q-41 10 -55.5 18.5t-14.5 28.5q0 23 16.5 32t36.5 9q29 0 41 -12.5t12 -30.5l-26 -2q-6 20 -27 20q-25 0 -24 -14q0 -10 22.5 -14.5 t38.5 -14.5q23 -10 23 -37q0 -18 -14.5 -30.5t-43.5 -12.5q-53 0 -59 50zM1516 49v154h22v-21q18 25 49 25h15.5t17.5 -5t14 -18.5t6 -40.5v-94h-24v94q0 41 -33 41q-16 0 -28.5 -10t-12.5 -41v-84h-26zM1579 973q0 -33 20 -33q18 0 34 15.5t28 37.5v-6q0 -25 12 -24 q16 0 33.5 20.5t32.5 42.5q0 -14 20 -18q29 0 43.5 24.5t16.5 36.5q0 16 -5.5 22.5t-19.5 28.5q4 10 10 21.5t6 17.5t-6 6q-29 0 -39 -17.5t-10 -27.5t3 -15t7 -13l2 -2q-6 -10 -15 -28t-19.5 -35t-21.5 -30.5t-19 -15.5q-4 0 -4 8q0 16 12 62.5t29 93.5q18 55 40 123 q-4 0 -8 2q-12 4 -22 4q-14 0 -23 -2q6 0 6 -10t-5 -31t-11 -45.5t-14.5 -53t-14.5 -55.5l-14 -4q6 0 6 -14q0 -12 -6 -29.5t-15.5 -35t-20.5 -30t-19 -12.5t-9 13q0 16 12.5 52t28 76t28.5 77.5t13 62.5t-18 24q-4 0 -9 -1t-14 -3h2q4 0 5 -8q0 -14 -10.5 -49t-24 -75 t-23.5 -81t-10 -67zM1628 -162h29v-28h-29v28zM1667 182v21h21v39l24 16v-55h27v-21h-27v-90q0 -16 4 -18t10 -2h13l4 -23q-8 -2 -21 -2q-23 0 -28.5 7t-5.5 40v88h-21zM1679 -121q0 35 18.5 55.5t47.5 20.5q45 0 57 -43l-26 -6q-6 25 -31 24q-37 0 -37 -49q0 -29 10.5 -39 t24.5 -10q10 0 20 6q10 10 13 25l28 -10q-16 -45 -61 -46q-29 0 -46.5 19.5t-17.5 52.5zM1741 1028q23 35 28 59q4 -8 8.5 -13t6.5 -15q0 -10 -2 -12q0 -4 -5 -17.5t-22 -13.5q-4 0 -6 6t-6 6h-2zM1784 1141q0 18 14 18q6 0 6 -4q0 -8 -16 -31q-4 12 -4 17zM1823 -119 q0 43 22 58.5t45 15.5q33 0 51.5 -19.5t18.5 -54.5q0 -37 -19.5 -55.5t-48.5 -18.5q-70 0 -69 74zM1839 90q0 20 11.5 29.5t26.5 13.5t33.5 6t35.5 8q0 23 -8.5 30t-28.5 7t-27.5 -6t-11.5 -22l-27 4q4 27 22.5 37t47.5 10q33 0 46 -11.5t13 -45.5v-37q0 -35 1 -44.5 t9 -19.5h-28q-4 4 -4 9t-2 10q-25 -23 -56 -23q-53 0 -53 45zM1843 1102q0 -10 6 -23.5t23 -13.5q12 0 23.5 5t25.5 15q27 18 39 35q6 8 8 13q0 2 -4 2q-25 -25 -37 -36.5t-26 -11.5q-10 0 -15 13q27 35 36 47t13 29q0 18 -14 18q-29 0 -48.5 -28.5t-27.5 -51.5q0 -4 -1 -6 t-1 -6zM1851 -119q0 -49 41 -49q17 0 27 12q12 12 12 37q0 49 -39 49q-41 0 -41 -49zM1866 90q0 -25 32 -24q20 0 34 11t14 40v8q-12 -4 -25.5 -6t-26 -5t-20.5 -8.5t-8 -15.5zM1882 1128q2 23 11.5 40.5t23.5 17.5q12 0 12 -10q0 -12 -10.5 -27t-22.5 -29q-4 -4 -6 -7 t-6 -7q-2 8 -2 22zM1982 -47h43l25 -98l27 98h43v-143h-27v112l-29 -112h-26l-29 112v-112h-27v143zM1999 182v21h20v39l25 16v-55h27v-21h-27v-90q0 -16 4 -18t10 -2h13l4 -23q-8 -2 -21 -2q-27 0 -33 16q-2 4 -2 31v88h-20zM2103 49v29h31v-29h-31zM2103 174v29h31v-29 h-31z" />
<glyph unicode="&#xa3;" d="M233 154q0 53 30 82.5t79 29.5q39 0 58.5 -17.5t27.5 -45.5l-25 -8q-12 47 -61 47q-41 0 -60.5 -26t-19.5 -60q0 -43 22.5 -64.5t57.5 -21.5q18 0 35.5 7t25.5 15v39h-61v27h90v-80q-45 -33 -90 -33q-51 0 -80 30.5t-29 78.5zM244 -47h30l21 -98l27 98h32l27 -100l22 100 h29l-35 -143h-30l-29 106l-29 -106h-30zM262 459l72 596l317 88l-2 4l33 18l-8 35l35 12l-4 37l32 11v36l37 7l2 34l37 4l6 35h35l10 35l37 -4l12 33l37 -6l17 30l34 -10l19 31l35 -15l20 27l33 -16l25 26l30 -22l27 24l29 -24l28 22l27 -26l31 16l22 -27l33 15l20 -31 l35 10l17 -30l34 6l15 -33l35 4l10 -35h18l576 156l-72 -596l-287 -80l-14 -14l18 -33l-28 -23l14 -32l-31 -21l11 -33l-31 -16l6 -37l-33 -12l4 -37l-35 -8v-37l-34 -8l-4 -35l-35 -2l-6 -37h-37l-10 -35l-35 4l-15 -32l-34 8l-17 -33l-35 12l-20 -30l-33 14l-22 -29 l-31 17l-27 -25l-28 20l-29 -24l-27 24l-30 -20l-25 25l-33 -17l-20 29l-35 -14l-19 30l-34 -12l-17 33l-37 -8l-12 32l-37 -4l-10 35h-35l-6 37l-37 2l-2 35l-37 8l2 35zM389 848q0 -35 31 -35q6 0 22 4q-12 0 -12 31t20.5 69.5t79.5 51.5h11q18 0 26 -13.5t8 -33.5 q0 -39 -23.5 -83t-62.5 -57q12 37 24.5 71t21.5 56l-9 9q-4 4 -9 7t-15 3t-15 -2q4 0 5 -11q0 -16 -9.5 -50t-21.5 -70.5t-21.5 -72.5t-9.5 -58q0 -25 14 -25h7q-2 0 -2 6q0 14 10 50t26 79q66 16 99.5 61.5t33.5 86.5q0 25 -14 41t-45 16h-13t-14 -2q-76 -16 -109.5 -57 t-33.5 -72zM432 -47h29l22 -98l27 98h33l24 -100l23 100h28l-32 -143h-31l-29 106l-28 -106h-31zM461 125q0 39 19.5 60.5t54.5 21.5q29 0 49 -21.5t20 -60.5v-6h-117q6 -51 48 -51q31 0 40 30l29 -4q-16 -49 -69 -49q-35 0 -54.5 20.5t-19.5 59.5zM489 141h86q-2 23 -13 34 t-27 11q-18 0 -30.5 -13t-15.5 -32zM575 760q0 -16 6.5 -27.5t22.5 -11.5q25 0 48.5 20.5t35.5 34.5q4 0 11.5 10.5t14.5 23.5t13 25.5t8 16.5q2 0 6 1t9 1h7t3 -12q-2 -6 -2 -19q0 -23 2 -40t20 -17q20 0 41 24.5t29 32.5l10 13q12 -12 12 -27v-14q0 -8 -4 -17 q-8 -14 -22 -14q-6 0 -8 6t-4 6q-4 0 -5 -2q0 -6 6.5 -12t16.5 -6q12 0 23.5 7t18.5 17.5t11 20.5t4 16q0 8 -2 18.5t-24 32.5q8 10 13 22.5t5 16.5q0 6 -6 6q-29 0 -39 -17t-10 -28q0 -10 3 -15t7 -13l-10 -15h-2l-8 -12q-4 -6 -13.5 -14t-17.5 -8q-6 0 -9 10t-3 24v19v22 t-7 6q-4 0 -20 -2t-25 -2q2 2 2 9q0 8 -6 8q-20 0 -20 -23q0 -8 5 -8h9q0 -2 -1 -3t-1 -5q-35 -66 -60.5 -83.5t-35.5 -17.5t-17 13q16 20 34 39.5t18 38.5q0 4 -3 9t-14 5q-16 0 -30.5 -10.5t-24.5 -25.5t-15.5 -30.5t-5.5 -23.5zM612 776q0 35 13.5 50.5t25.5 15.5 q8 0 8 -11q0 -17 -20 -40q-8 -14 -25 -27q0 4 -1 6t-1 6zM621 -47h28l23 -98l26 98h33l25 -100l22 100h29l-35 -143h-31l-28 106l-27 -106h-33zM623 182v21h18v39l27 16v-55h24v-21h-24v-90q0 -16 3 -18t11 -2h10l6 -23q-8 -2 -20 -2q-16 0 -23.5 4t-11.5 12q-2 4 -2 31v88 h-18zM784 182v21h25v16q0 23 8 35t35 12q4 0 10 -1t12 -1l-2 -24q-6 2 -16 2q-23 0 -22 -25v-14h30v-21h-30v-133h-25v133h-25zM811 -162h27v-28h-27v28zM866 -47h43l25 -98l27 98h43v-143h-27v112l-29 -112h-28l-27 112v-112h-27v143zM872 889q0 18 17 18q4 0 4 -4 q0 -8 -14 -31q-2 4 -4.5 8.5t-2.5 8.5zM885 106v97h26v-86q0 -29 6.5 -39t24.5 -10q41 0 41 53v82h27v-154h-25v23q-14 -27 -49 -27q-27 0 -39 13.5t-12 47.5zM934 848q0 -10 6 -22.5t23 -12.5q27 0 52 27.5t25 62.5q0 18 -9 26.5t-19 8.5q-20 0 -45 -20.5t-31 -55.5 q-2 -4 -2 -14zM954 559q0 -20 13.5 -35.5t38.5 -15.5q31 0 52 21.5t21 56.5q0 27 -15 41t-38 14q-33 0 -52.5 -23.5t-19.5 -58.5zM969 874q0 6 10 32t35 26q20 -6 20 -31q0 -33 -16.5 -48t-26.5 -15q-4 2 -6 2t-6 2q-10 10 -10 32zM979 561q0 23 13.5 40t31.5 17 q29 0 29 -32q0 -25 -13.5 -41.5t-29.5 -16.5q-12 0 -21.5 9.5t-9.5 23.5zM1018 -190l55 143h31l57 -143h-33l-12 32h-55l-12 -32h-31zM1051 49v213h26v-213h-26zM1051 887q0 -10 3 -28.5t17 -18.5q10 0 16 10q27 25 32 49.5t16 26.5v-10q0 -11 1 -23t5 -22.5t14 -10.5 q14 0 30.5 17.5t26.5 29.5q0 -27 19 -26q14 0 35.5 21.5t21.5 31.5q0 -8 7.5 -20.5t17.5 -12.5t30.5 18.5t28.5 32.5q4 -31 21 -30q12 0 23 8t20.5 18t16.5 19.5t9 11.5v4h-6q-14 -23 -23.5 -28t-13.5 -5q-10 0 -14 27v13t2 16q31 49 54.5 94t23.5 67q0 10 -8 11 q-8 0 -25.5 -13.5t-35 -40t-31 -64.5t-13.5 -89v-10v-3l-10 -10q-4 -6 -10 -13t-15 -7q-10 0 -14 14q-2 12 -4 23q-2 10 -4 17t-4 7q-4 0 -6 -6q-18 -37 -23.5 -50t-21.5 -20q-16 0 -17 17q0 18 8.5 33.5t18.5 25.5t21.5 15.5t15.5 5.5q8 0 9 -1t3 -1q0 2 2 2l2 2q0 4 -12 4 q-29 0 -58.5 -32t-40.5 -66l-8 -11l-11 -11t-13 -7t-7.5 6t-3.5 16v18.5t-1 24t-3 20.5t-6 9t-10 -10q-2 -4 -8 -17.5t-14.5 -29t-15.5 -29.5t-11 -18q-4 0 -9.5 9t-7.5 23q6 12 13.5 24.5t7.5 22.5q0 6 -8 7q-16 0 -28.5 -16.5t-16.5 -41.5v-20zM1069 -133h39l-21 53z M1079 932q0 10 2 19.5t13 9.5q2 0 3 -1.5t3 -1.5q-1 -9 -19 -40q0 4 -1 7t-1 7zM1085 510h27l18 86l35 -86h25l27 129h-25l-18 -88l-35 88h-25zM1116 49v213h27v-213h-27zM1151 -47h29l22 -98l27 98h33l24 -100l23 100h28l-34 -143h-29l-31 106l-26 -106h-31zM1217 510h94 l4 20h-66l23 109h-27zM1249 182v21h25v16q0 23 8 35t33 12q6 0 12 -1t12 -1l-2 -24q-6 2 -16 2q-12 0 -16 -4q-6 -6 -7 -21v-14h31v-21h-31v-133h-24v133h-25zM1327 639l35 -80l-10 -49h26l11 47l59 82h-31l-37 -55l-24 55h-29zM1339 125q0 41 20.5 61.5t51.5 20.5 q33 0 53.5 -20.5t20.5 -57.5q0 -41 -19.5 -62.5t-54.5 -21.5q-33 0 -52.5 20.5t-19.5 59.5zM1354 -47h26l60 -96v96h26v-143h-28l-58 92v-92h-26v143zM1366 125q0 -29 13.5 -43t31.5 -14q21 0 33 14q14 14 14 45q0 57 -47 57q-45 0 -45 -59zM1409 1020q4 57 24.5 102 t36.5 45q4 0 5 -8q-1 -20 -19 -53q-10 -20 -21.5 -41t-25.5 -45zM1489 -143l29 2q2 -27 30 -27q16 0 21.5 6t5.5 12q0 4 -1 8.5t-11 8.5q-41 10 -55.5 18.5t-14.5 28.5q0 23 16.5 32t36.5 9q29 0 41 -12.5t12 -30.5l-26 -2q-6 20 -27 20q-25 0 -24 -14q0 -10 22.5 -14.5 t38.5 -14.5q23 -10 23 -37q0 -18 -14.5 -30.5t-43.5 -12.5q-53 0 -59 50zM1516 49v154h22v-21q18 25 49 25h15.5t17.5 -5t14 -18.5t6 -40.5v-94h-24v94q0 41 -33 41q-16 0 -28.5 -10t-12.5 -41v-84h-26zM1579 973q0 -33 20 -33q18 0 34 15.5t28 37.5v-6q0 -25 12 -24 q16 0 33.5 20.5t32.5 42.5q0 -14 20 -18q29 0 43.5 24.5t16.5 36.5q0 16 -5.5 22.5t-19.5 28.5q4 10 10 21.5t6 17.5t-6 6q-29 0 -39 -17.5t-10 -27.5t3 -15t7 -13l2 -2q-6 -10 -15 -28t-19.5 -35t-21.5 -30.5t-19 -15.5q-4 0 -4 8q0 16 12 62.5t29 93.5q18 55 40 123 q-4 0 -8 2q-12 4 -22 4q-14 0 -23 -2q6 0 6 -10t-5 -31t-11 -45.5t-14.5 -53t-14.5 -55.5l-14 -4q6 0 6 -14q0 -12 -6 -29.5t-15.5 -35t-20.5 -30t-19 -12.5t-9 13q0 16 12.5 52t28 76t28.5 77.5t13 62.5t-18 24q-4 0 -9 -1t-14 -3h2q4 0 5 -8q0 -14 -10.5 -49t-24 -75 t-23.5 -81t-10 -67zM1628 -162h29v-28h-29v28zM1667 182v21h21v39l24 16v-55h27v-21h-27v-90q0 -16 4 -18t10 -2h13l4 -23q-8 -2 -21 -2q-23 0 -28.5 7t-5.5 40v88h-21zM1679 -121q0 35 18.5 55.5t47.5 20.5q45 0 57 -43l-26 -6q-6 25 -31 24q-37 0 -37 -49q0 -29 10.5 -39 t24.5 -10q10 0 20 6q10 10 13 25l28 -10q-16 -45 -61 -46q-29 0 -46.5 19.5t-17.5 52.5zM1741 1028q23 35 28 59q4 -8 8.5 -13t6.5 -15q0 -10 -2 -12q0 -4 -5 -17.5t-22 -13.5q-4 0 -6 6t-6 6h-2zM1784 1141q0 18 14 18q6 0 6 -4q0 -8 -16 -31q-4 12 -4 17zM1823 -119 q0 43 22 58.5t45 15.5q33 0 51.5 -19.5t18.5 -54.5q0 -37 -19.5 -55.5t-48.5 -18.5q-70 0 -69 74zM1839 90q0 20 11.5 29.5t26.5 13.5t33.5 6t35.5 8q0 23 -8.5 30t-28.5 7t-27.5 -6t-11.5 -22l-27 4q4 27 22.5 37t47.5 10q33 0 46 -11.5t13 -45.5v-37q0 -35 1 -44.5 t9 -19.5h-28q-4 4 -4 9t-2 10q-25 -23 -56 -23q-53 0 -53 45zM1843 1102q0 -10 6 -23.5t23 -13.5q12 0 23.5 5t25.5 15q27 18 39 35q6 8 8 13q0 2 -4 2q-25 -25 -37 -36.5t-26 -11.5q-10 0 -15 13q27 35 36 47t13 29q0 18 -14 18q-29 0 -48.5 -28.5t-27.5 -51.5q0 -4 -1 -6 t-1 -6zM1851 -119q0 -49 41 -49q17 0 27 12q12 12 12 37q0 49 -39 49q-41 0 -41 -49zM1866 90q0 -25 32 -24q20 0 34 11t14 40v8q-12 -4 -25.5 -6t-26 -5t-20.5 -8.5t-8 -15.5zM1882 1128q2 23 11.5 40.5t23.5 17.5q12 0 12 -10q0 -12 -10.5 -27t-22.5 -29q-4 -4 -6 -7 t-6 -7q-2 8 -2 22zM1982 -47h43l25 -98l27 98h43v-143h-27v112l-29 -112h-26l-29 112v-112h-27v143zM1999 182v21h20v39l25 16v-55h27v-21h-27v-90q0 -16 4 -18t10 -2h13l4 -23q-8 -2 -21 -2q-27 0 -33 16q-2 4 -2 31v88h-20zM2103 49v29h31v-29h-31zM2103 174v29h31v-29 h-31z" />
<glyph unicode="&#xa4;" horiz-adv-x="923" d="M20 223q39 20 76 43q33 20 69 44t64 48q-8 33 -4 74t18.5 84t38 83t52.5 75q-20 14 -44 30.5t-45.5 30t-40 23.5t-30.5 12q4 35 22.5 56.5t36.5 31.5q23 12 48 19q12 -27 28 -54q14 -23 31 -51t37 -55q31 27 65.5 42t69.5 14t68.5 -20.5t64.5 -64.5q12 18 32.5 46 t40 58.5t36 57.5t18.5 43q35 -6 56.5 -23.5t31.5 -35.5q12 -23 19 -48q-37 -18 -74 -41q-31 -18 -65.5 -41.5t-63.5 -46.5q18 -27 20 -66.5t-10 -85.5t-40 -91t-68 -80q16 -12 36.5 -27.5t40 -30t39 -24.5t31.5 -12q-6 -35 -23.5 -56.5t-35.5 -31.5q-23 -12 -48 -19 q-10 29 -20 60q-10 27 -24.5 55t-32.5 57q-35 -23 -74 -35t-86 -12q-49 0 -82 15.5t-49 41.5q-12 -18 -32.5 -46.5t-40 -57.5t-34 -54.5t-16.5 -39.5q-35 4 -56.5 22.5t-31.5 36.5q-12 23 -19 47zM374 349.5q9 -23.5 48 -23.5q37 0 79 36.5t74.5 88t49 106.5t0.5 92 q-35 0 -74 -24.5t-75 -60.5t-62.5 -78t-37.5 -77.5t-2 -59z" />
<glyph unicode="&#xa5;" d="M233 154q0 53 30 82.5t79 29.5q39 0 58.5 -17.5t27.5 -45.5l-25 -8q-12 47 -61 47q-41 0 -60.5 -26t-19.5 -60q0 -43 22.5 -64.5t57.5 -21.5q18 0 35.5 7t25.5 15v39h-61v27h90v-80q-45 -33 -90 -33q-51 0 -80 30.5t-29 78.5zM244 -47h30l21 -98l27 98h32l27 -100l22 100 h29l-35 -143h-30l-29 106l-29 -106h-30zM262 459l72 596l317 88l-2 4l33 18l-8 35l35 12l-4 37l32 11v36l37 7l2 34l37 4l6 35h35l10 35l37 -4l12 33l37 -6l17 30l34 -10l19 31l35 -15l20 27l33 -16l25 26l30 -22l27 24l29 -24l28 22l27 -26l31 16l22 -27l33 15l20 -31 l35 10l17 -30l34 6l15 -33l35 4l10 -35h18l576 156l-72 -596l-287 -80l-14 -14l18 -33l-28 -23l14 -32l-31 -21l11 -33l-31 -16l6 -37l-33 -12l4 -37l-35 -8v-37l-34 -8l-4 -35l-35 -2l-6 -37h-37l-10 -35l-35 4l-15 -32l-34 8l-17 -33l-35 12l-20 -30l-33 14l-22 -29 l-31 17l-27 -25l-28 20l-29 -24l-27 24l-30 -20l-25 25l-33 -17l-20 29l-35 -14l-19 30l-34 -12l-17 33l-37 -8l-12 32l-37 -4l-10 35h-35l-6 37l-37 2l-2 35l-37 8l2 35zM389 848q0 -35 31 -35q6 0 22 4q-12 0 -12 31t20.5 69.5t79.5 51.5h11q18 0 26 -13.5t8 -33.5 q0 -39 -23.5 -83t-62.5 -57q12 37 24.5 71t21.5 56l-9 9q-4 4 -9 7t-15 3t-15 -2q4 0 5 -11q0 -16 -9.5 -50t-21.5 -70.5t-21.5 -72.5t-9.5 -58q0 -25 14 -25h7q-2 0 -2 6q0 14 10 50t26 79q66 16 99.5 61.5t33.5 86.5q0 25 -14 41t-45 16h-13t-14 -2q-76 -16 -109.5 -57 t-33.5 -72zM432 -47h29l22 -98l27 98h33l24 -100l23 100h28l-32 -143h-31l-29 106l-28 -106h-31zM461 125q0 39 19.5 60.5t54.5 21.5q29 0 49 -21.5t20 -60.5v-6h-117q6 -51 48 -51q31 0 40 30l29 -4q-16 -49 -69 -49q-35 0 -54.5 20.5t-19.5 59.5zM489 141h86q-2 23 -13 34 t-27 11q-18 0 -30.5 -13t-15.5 -32zM575 760q0 -16 6.5 -27.5t22.5 -11.5q25 0 48.5 20.5t35.5 34.5q4 0 11.5 10.5t14.5 23.5t13 25.5t8 16.5q2 0 6 1t9 1h7t3 -12q-2 -6 -2 -19q0 -23 2 -40t20 -17q20 0 41 24.5t29 32.5l10 13q12 -12 12 -27v-14q0 -8 -4 -17 q-8 -14 -22 -14q-6 0 -8 6t-4 6q-4 0 -5 -2q0 -6 6.5 -12t16.5 -6q12 0 23.5 7t18.5 17.5t11 20.5t4 16q0 8 -2 18.5t-24 32.5q8 10 13 22.5t5 16.5q0 6 -6 6q-29 0 -39 -17t-10 -28q0 -10 3 -15t7 -13l-10 -15h-2l-8 -12q-4 -6 -13.5 -14t-17.5 -8q-6 0 -9 10t-3 24v19v22 t-7 6q-4 0 -20 -2t-25 -2q2 2 2 9q0 8 -6 8q-20 0 -20 -23q0 -8 5 -8h9q0 -2 -1 -3t-1 -5q-35 -66 -60.5 -83.5t-35.5 -17.5t-17 13q16 20 34 39.5t18 38.5q0 4 -3 9t-14 5q-16 0 -30.5 -10.5t-24.5 -25.5t-15.5 -30.5t-5.5 -23.5zM612 776q0 35 13.5 50.5t25.5 15.5 q8 0 8 -11q0 -17 -20 -40q-8 -14 -25 -27q0 4 -1 6t-1 6zM621 -47h28l23 -98l26 98h33l25 -100l22 100h29l-35 -143h-31l-28 106l-27 -106h-33zM623 182v21h18v39l27 16v-55h24v-21h-24v-90q0 -16 3 -18t11 -2h10l6 -23q-8 -2 -20 -2q-16 0 -23.5 4t-11.5 12q-2 4 -2 31v88 h-18zM784 182v21h25v16q0 23 8 35t35 12q4 0 10 -1t12 -1l-2 -24q-6 2 -16 2q-23 0 -22 -25v-14h30v-21h-30v-133h-25v133h-25zM811 -162h27v-28h-27v28zM866 -47h43l25 -98l27 98h43v-143h-27v112l-29 -112h-28l-27 112v-112h-27v143zM872 889q0 18 17 18q4 0 4 -4 q0 -8 -14 -31q-2 4 -4.5 8.5t-2.5 8.5zM885 106v97h26v-86q0 -29 6.5 -39t24.5 -10q41 0 41 53v82h27v-154h-25v23q-14 -27 -49 -27q-27 0 -39 13.5t-12 47.5zM934 848q0 -10 6 -22.5t23 -12.5q27 0 52 27.5t25 62.5q0 18 -9 26.5t-19 8.5q-20 0 -45 -20.5t-31 -55.5 q-2 -4 -2 -14zM954 559q0 -20 13.5 -35.5t38.5 -15.5q31 0 52 21.5t21 56.5q0 27 -15 41t-38 14q-33 0 -52.5 -23.5t-19.5 -58.5zM969 874q0 6 10 32t35 26q20 -6 20 -31q0 -33 -16.5 -48t-26.5 -15q-4 2 -6 2t-6 2q-10 10 -10 32zM979 561q0 23 13.5 40t31.5 17 q29 0 29 -32q0 -25 -13.5 -41.5t-29.5 -16.5q-12 0 -21.5 9.5t-9.5 23.5zM1018 -190l55 143h31l57 -143h-33l-12 32h-55l-12 -32h-31zM1051 49v213h26v-213h-26zM1051 887q0 -10 3 -28.5t17 -18.5q10 0 16 10q27 25 32 49.5t16 26.5v-10q0 -11 1 -23t5 -22.5t14 -10.5 q14 0 30.5 17.5t26.5 29.5q0 -27 19 -26q14 0 35.5 21.5t21.5 31.5q0 -8 7.5 -20.5t17.5 -12.5t30.5 18.5t28.5 32.5q4 -31 21 -30q12 0 23 8t20.5 18t16.5 19.5t9 11.5v4h-6q-14 -23 -23.5 -28t-13.5 -5q-10 0 -14 27v13t2 16q31 49 54.5 94t23.5 67q0 10 -8 11 q-8 0 -25.5 -13.5t-35 -40t-31 -64.5t-13.5 -89v-10v-3l-10 -10q-4 -6 -10 -13t-15 -7q-10 0 -14 14q-2 12 -4 23q-2 10 -4 17t-4 7q-4 0 -6 -6q-18 -37 -23.5 -50t-21.5 -20q-16 0 -17 17q0 18 8.5 33.5t18.5 25.5t21.5 15.5t15.5 5.5q8 0 9 -1t3 -1q0 2 2 2l2 2q0 4 -12 4 q-29 0 -58.5 -32t-40.5 -66l-8 -11l-11 -11t-13 -7t-7.5 6t-3.5 16v18.5t-1 24t-3 20.5t-6 9t-10 -10q-2 -4 -8 -17.5t-14.5 -29t-15.5 -29.5t-11 -18q-4 0 -9.5 9t-7.5 23q6 12 13.5 24.5t7.5 22.5q0 6 -8 7q-16 0 -28.5 -16.5t-16.5 -41.5v-20zM1069 -133h39l-21 53z M1079 932q0 10 2 19.5t13 9.5q2 0 3 -1.5t3 -1.5q-1 -9 -19 -40q0 4 -1 7t-1 7zM1085 510h27l18 86l35 -86h25l27 129h-25l-18 -88l-35 88h-25zM1116 49v213h27v-213h-27zM1151 -47h29l22 -98l27 98h33l24 -100l23 100h28l-34 -143h-29l-31 106l-26 -106h-31zM1217 510h94 l4 20h-66l23 109h-27zM1249 182v21h25v16q0 23 8 35t33 12q6 0 12 -1t12 -1l-2 -24q-6 2 -16 2q-12 0 -16 -4q-6 -6 -7 -21v-14h31v-21h-31v-133h-24v133h-25zM1327 639l35 -80l-10 -49h26l11 47l59 82h-31l-37 -55l-24 55h-29zM1339 125q0 41 20.5 61.5t51.5 20.5 q33 0 53.5 -20.5t20.5 -57.5q0 -41 -19.5 -62.5t-54.5 -21.5q-33 0 -52.5 20.5t-19.5 59.5zM1354 -47h26l60 -96v96h26v-143h-28l-58 92v-92h-26v143zM1366 125q0 -29 13.5 -43t31.5 -14q21 0 33 14q14 14 14 45q0 57 -47 57q-45 0 -45 -59zM1409 1020q4 57 24.5 102 t36.5 45q4 0 5 -8q-1 -20 -19 -53q-10 -20 -21.5 -41t-25.5 -45zM1489 -143l29 2q2 -27 30 -27q16 0 21.5 6t5.5 12q0 4 -1 8.5t-11 8.5q-41 10 -55.5 18.5t-14.5 28.5q0 23 16.5 32t36.5 9q29 0 41 -12.5t12 -30.5l-26 -2q-6 20 -27 20q-25 0 -24 -14q0 -10 22.5 -14.5 t38.5 -14.5q23 -10 23 -37q0 -18 -14.5 -30.5t-43.5 -12.5q-53 0 -59 50zM1516 49v154h22v-21q18 25 49 25h15.5t17.5 -5t14 -18.5t6 -40.5v-94h-24v94q0 41 -33 41q-16 0 -28.5 -10t-12.5 -41v-84h-26zM1579 973q0 -33 20 -33q18 0 34 15.5t28 37.5v-6q0 -25 12 -24 q16 0 33.5 20.5t32.5 42.5q0 -14 20 -18q29 0 43.5 24.5t16.5 36.5q0 16 -5.5 22.5t-19.5 28.5q4 10 10 21.5t6 17.5t-6 6q-29 0 -39 -17.5t-10 -27.5t3 -15t7 -13l2 -2q-6 -10 -15 -28t-19.5 -35t-21.5 -30.5t-19 -15.5q-4 0 -4 8q0 16 12 62.5t29 93.5q18 55 40 123 q-4 0 -8 2q-12 4 -22 4q-14 0 -23 -2q6 0 6 -10t-5 -31t-11 -45.5t-14.5 -53t-14.5 -55.5l-14 -4q6 0 6 -14q0 -12 -6 -29.5t-15.5 -35t-20.5 -30t-19 -12.5t-9 13q0 16 12.5 52t28 76t28.5 77.5t13 62.5t-18 24q-4 0 -9 -1t-14 -3h2q4 0 5 -8q0 -14 -10.5 -49t-24 -75 t-23.5 -81t-10 -67zM1628 -162h29v-28h-29v28zM1667 182v21h21v39l24 16v-55h27v-21h-27v-90q0 -16 4 -18t10 -2h13l4 -23q-8 -2 -21 -2q-23 0 -28.5 7t-5.5 40v88h-21zM1679 -121q0 35 18.5 55.5t47.5 20.5q45 0 57 -43l-26 -6q-6 25 -31 24q-37 0 -37 -49q0 -29 10.5 -39 t24.5 -10q10 0 20 6q10 10 13 25l28 -10q-16 -45 -61 -46q-29 0 -46.5 19.5t-17.5 52.5zM1741 1028q23 35 28 59q4 -8 8.5 -13t6.5 -15q0 -10 -2 -12q0 -4 -5 -17.5t-22 -13.5q-4 0 -6 6t-6 6h-2zM1784 1141q0 18 14 18q6 0 6 -4q0 -8 -16 -31q-4 12 -4 17zM1823 -119 q0 43 22 58.5t45 15.5q33 0 51.5 -19.5t18.5 -54.5q0 -37 -19.5 -55.5t-48.5 -18.5q-70 0 -69 74zM1839 90q0 20 11.5 29.5t26.5 13.5t33.5 6t35.5 8q0 23 -8.5 30t-28.5 7t-27.5 -6t-11.5 -22l-27 4q4 27 22.5 37t47.5 10q33 0 46 -11.5t13 -45.5v-37q0 -35 1 -44.5 t9 -19.5h-28q-4 4 -4 9t-2 10q-25 -23 -56 -23q-53 0 -53 45zM1843 1102q0 -10 6 -23.5t23 -13.5q12 0 23.5 5t25.5 15q27 18 39 35q6 8 8 13q0 2 -4 2q-25 -25 -37 -36.5t-26 -11.5q-10 0 -15 13q27 35 36 47t13 29q0 18 -14 18q-29 0 -48.5 -28.5t-27.5 -51.5q0 -4 -1 -6 t-1 -6zM1851 -119q0 -49 41 -49q17 0 27 12q12 12 12 37q0 49 -39 49q-41 0 -41 -49zM1866 90q0 -25 32 -24q20 0 34 11t14 40v8q-12 -4 -25.5 -6t-26 -5t-20.5 -8.5t-8 -15.5zM1882 1128q2 23 11.5 40.5t23.5 17.5q12 0 12 -10q0 -12 -10.5 -27t-22.5 -29q-4 -4 -6 -7 t-6 -7q-2 8 -2 22zM1982 -47h43l25 -98l27 98h43v-143h-27v112l-29 -112h-26l-29 112v-112h-27v143zM1999 182v21h20v39l25 16v-55h27v-21h-27v-90q0 -16 4 -18t10 -2h13l4 -23q-8 -2 -21 -2q-27 0 -33 16q-2 4 -2 31v88h-20zM2103 49v29h31v-29h-31zM2103 174v29h31v-29 h-31z" />
<glyph unicode="&#xa6;" horiz-adv-x="663" d="M5.5 -277.5q-3.5 70.5 21 165t65.5 197.5t71 193.5t36 154t-37 77.5q53 27 92 33t65 2q31 -6 54 -21q-31 -96 -71 -196.5t-80 -194.5t-75.5 -179t-59.5 -152.5t-32 -112.5t11 -62q-57 25 -60.5 95.5zM343 683.5q-3 70.5 21.5 164.5t65.5 197.5t70.5 193.5t36 153.5 t-36.5 77.5q53 27 92 33t65 2q31 -6 54 -20q-31 -98 -71 -197.5t-80 -194t-75.5 -179.5t-59.5 -152.5t-32 -112.5t10 -61q-57 25 -60 95.5z" />
<glyph unicode="&#xa7;" horiz-adv-x="675" d="M11 139.5q-7 65.5 0 133t28.5 133t55.5 112.5t78 71.5t97 12.5q-20 106 -47.5 188t-60.5 113q23 49 59 90q31 35 80 68t119 43q-18 -8 -16 -59.5t12 -130t24.5 -177t22.5 -202t4 -204t-29.5 -183t-78 -139t-142.5 -72.5q-63 -10 -106 14t-68 73.5t-32 115zM151 84 q1 -49 16 -76.5t50 -21.5t54.5 57t26.5 128t2 172t-19 187q-25 -35 -49.5 -91t-43 -118.5t-28.5 -125t-9 -111.5zM491.5 1014.5q-4.5 103.5 4 204t37 183.5t83 139t144.5 73q66 12 108.5 -15.5t67.5 -80t30 -122t-4.5 -140t-34 -136t-62.5 -109.5t-86 -61.5t-105 8.5 q14 -115 38.5 -203.5t59.5 -119.5q-25 -47 -61 -84q-33 -33 -82 -63.5t-119 -41.5q18 8 19 59.5t-6 130.5t-17 177t-14.5 201.5zM658 1183.5q1 -100.5 12 -196.5q27 23 54.5 77t50 119.5t36.5 136.5t15 127t-14 90t-52 28t-59.5 -61.5t-33 -137.5t-9.5 -182.5z" />
<glyph unicode="&#xa8;" horiz-adv-x="618" d="M65.5 1296.5q2.5 32.5 18.5 72.5t34.5 77t35 65.5t20.5 42.5q94 14 129 -10t23.5 -73.5t-59.5 -116t-122 -133.5q-47 2 -64.5 22.5t-15 53zM269.5 1285q9.5 34 33 72t49 73.5t47 63.5t27.5 40q96 0 125 -33t7.5 -83t-83 -110.5t-143.5 -115.5q-47 8 -59.5 33.5t-3 59.5z " />
</font>
</defs>
</svg>
