<?xml version="1.0" standalone="no"?>
<!DOCTYPE svg PUBLIC "-//W3C//DTD SVG 1.1//EN" "http://www.w3.org/Graphics/SVG/1.1/DTD/svg11.dtd" >
<svg xmlns="http://www.w3.org/2000/svg" xmlns:xlink="http://www.w3.org/1999/xlink" version="1.1">
<metadata></metadata>
<defs>
<font id="hickory_jackregular" horiz-adv-x="600" >
<font-face units-per-em="2048" ascent="1536" descent="-512" />
<missing-glyph horiz-adv-x="286" />
<glyph horiz-adv-x="0" />
<glyph unicode="&#xd;" horiz-adv-x="286" />
<glyph horiz-adv-x="0" />
<glyph horiz-adv-x="0" />
<glyph unicode=" "  horiz-adv-x="286" />
<glyph unicode="&#x09;" horiz-adv-x="286" />
<glyph unicode="&#xa0;" horiz-adv-x="286" />
<glyph unicode="!" horiz-adv-x="339" d="M125 807q2 12 18.5 18t35 5t33.5 -8t15 -19q-2 -205 -7 -372t-9 -290q0 -10 -10.5 -16t-21.5 -7t-21.5 4t-12.5 17q-6 127 -13 295t-7 373zM145 27q-8 20 11.5 33.5t46.5 -1.5q18 -20 16 -35.5t-14 -21.5t-30 -2t-30 27z" />
<glyph unicode="&#x22;" horiz-adv-x="415" d="M88 936q2 12 13.5 18.5t23.5 5t22.5 -8.5t10.5 -19q0 -104 -1 -207.5t-1 -208.5q0 -12 -7.5 -19.5t-16.5 -7.5t-16 6.5t-10 18.5q0 109 -9 212.5t-9 209.5zM254 822v91q2 12 13.5 18.5t23.5 5.5t22.5 -8t10.5 -20q0 -90 -6.5 -183t-8.5 -171q-10 -20 -27.5 -18t-21.5 24 q-2 33 -3 77t-2 90t-1 94z" />
<glyph unicode="#" horiz-adv-x="1005" d="M24.5 195.5q-1.5 27.5 20.5 37.5h102.5t104.5 3l22 204q-84 -8 -118.5 -9t-55.5 -1q-23 4 -23.5 31.5t19.5 38.5l187 14l32 289q2 12 19.5 18t38 5t37 -8t16.5 -19l-31 -277l168 13l17 253q2 12 20 18.5t38.5 5.5t37 -9t16.5 -21l-16 -239l264 20q12 0 20.5 -7t9.5 -16.5 t-5.5 -16.5t-18.5 -9l-274 -31l-15 -237l293 10q12 0 20.5 -7t9.5 -15.5t-5 -16.5t-19 -10l-303 -14l-12 -205q-4 -10 -21.5 -14.5t-36 -4.5t-35 6.5t-18.5 16.5l13 194l-187 -8l-22 -215q-4 -10 -21.5 -14t-37 -4t-35 6t-17.5 16l23 205l-197 -8q-23 4 -24.5 31.5zM362 238 l183 6l14 227q-49 -6 -93 -10t-79 -8z" />
<glyph unicode="$" horiz-adv-x="509" d="M87.5 244q-21.5 35 0.5 96q6 12 17.5 14t19.5 -1t12 -11t-2 -20q-10 -29 -4 -48.5t23.5 -30t43 -13.5t54.5 1l6 181q-41 29 -80 61.5t-55 67.5q-23 45 -18.5 83t26 65.5t58 44t79.5 16.5q0 27 1 52t3 52q6 25 31 24t29 -24l-4 -113q29 -6 57 -22q23 -16 15.5 -34.5 t-33.5 -4.5l-41 16l-13 -227q31 -23 64 -46.5t59.5 -47t42 -48t8.5 -46.5q-4 -20 -21 -37t-44 -29t-58.5 -20.5t-64.5 -12.5q-2 -27 -3 -52.5t-1 -51.5q-2 -27 -24.5 -25t-24.5 25q0 25 1 50.5t3 51.5q-29 0 -54.5 3t-43.5 12h2q-45 14 -66.5 49zM223 638q-12 -36 8 -87 q6 -16 29 -37l6 176q-31 -16 -43 -52zM301 240q35 10 61.5 25.5t36.5 33.5q4 10 -23.5 30.5t-68.5 47.5z" />
<glyph unicode="%" horiz-adv-x="657" d="M49 564q-6 50 12.5 97.5t65.5 61.5q37 10 65.5 -5.5t46 -46t24.5 -69.5t-1 -73.5t-31.5 -60.5t-64.5 -28q-49 -4 -80 35t-37 89zM137 111l287 731q4 14 23.5 19t40 2t36 -14t11.5 -26l-332 -731q-6 -10 -17.5 -11t-22.5 2t-18.5 10t-7.5 18zM156 581.5q2 -24.5 11 -46 t26 -33.5q16 12 22 34.5t3 47t-13.5 47.5t-24.5 35q-14 -12 -20 -36t-4 -48.5zM382 288q-9 40 0 83t38 71q16 29 41.5 32t64.5 5q20 -6 21 -24q35 -23 50 -67t9 -88t-32.5 -77t-77.5 -33q-47 0 -76 29t-38 69zM487 329.5q0 -24.5 10.5 -46t28.5 -33.5q14 12 22.5 34.5 t8.5 47t-7.5 48.5t-25.5 36q-18 -14 -27.5 -38t-9.5 -48.5z" />
<glyph unicode="&#x26;" horiz-adv-x="604" d="M57 170q-12 27 2.5 57.5t41 60t57 56.5t49.5 47q-29 59 -47.5 120.5t-18.5 125.5q0 61 35 90t80 25q35 0 72 -15.5t62.5 -46.5t35.5 -75t-10 -101q-16 -41 -54 -85t-79 -85l63 -115q53 20 102.5 39t79.5 23q12 0 19.5 -7.5t8.5 -15.5t-5 -16t-19 -10q-43 -4 -82.5 -19.5 t-80.5 -32.5q39 -72 68.5 -151.5t39.5 -181.5q0 -12 -7 -19.5t-16.5 -7.5t-16.5 6t-9 19q-8 86 -37 164.5t-67 150.5q-20 -10 -60.5 -21.5t-81.5 -16.5t-76.5 2t-48.5 36zM172 205q23 -10 62.5 -6t66.5 14l-53 98q-35 -35 -54.5 -59.5t-21.5 -46.5zM198 632q-7 -32 5 -83 q8 -33 18 -61.5t23 -57.5q25 27 48 55.5t36.5 56t11.5 56.5t-29 57q-20 23 -44.5 28t-43 -7t-25.5 -44z" />
<glyph unicode="'" horiz-adv-x="253" d="M92 911q2 12 13.5 18.5t24.5 5.5t23.5 -8t10.5 -20q0 -88 -2 -176l-4 -176q0 -12 -7.5 -19.5t-16.5 -7.5t-17 6.5t-11 18.5q-4 94 -9 181t-5 177z" />
<glyph unicode="(" horiz-adv-x="430" d="M27 492q2 68 21.5 148.5t51 161.5t74.5 152.5t94 120.5l4 4l9 4h4q4 4 8 0h2q2 0 2 -2q10 -6 12 -20v-4q0 -4 -2 -6q0 -8 -8 -17q-2 0 -4 -2q-78 -104 -118 -246.5t-44 -289.5q-12 -342 254 -496q10 -4 13 -13.5t-1 -17.5q-8 -23 -32 -16q-2 0 -2 1t-3 1 q-80 43 -144 99.5t-108 126t-65.5 147.5t-17.5 164z" />
<glyph unicode=")" horiz-adv-x="395" d="M-28.5 -61.5q1.5 14.5 18.5 24.5q98 45 165.5 134t90.5 188q20 94 8 197.5t-47 204.5t-85 195.5t-108 170.5l-4 6q-2 18 8 28q14 12 29 -2l2 -2q61 -78 126 -175t112 -203.5t67.5 -218t-4.5 -220.5q-12 -59 -48 -114.5t-84 -101.5t-106.5 -82t-115.5 -54h-6q-2 0 -3 1 t-3 1l-2 2q-12 6 -10.5 20.5z" />
<glyph unicode="*" horiz-adv-x="548" d="M50 418q1 8 11 18l140 117l-138 94q-10 20 4.5 33.5t32.5 -0.5l131 -72l11 160q2 16 11 21.5t18.5 4.5t15.5 -9.5t4 -20.5q0 -10 2 -30.5t3 -44t3 -44t2 -29.5l117 82q20 16 35.5 2t-0.5 -36l-131 -111l167 -107q20 -16 9 -33.5t-33 -6.5l-164 79l-10 -184 q0 -27 -22.5 -27t-26.5 25l-13 188l-143 -88q-8 -4 -17.5 -3t-14.5 7.5t-4 14.5z" />
<glyph unicode="+" horiz-adv-x="481" d="M25 401.5q0 12.5 7 21.5t19 9l137 -4q-2 61 -2 107.5v107.5q2 12 18.5 17.5t37 5.5t37 -5.5t18.5 -15.5v-109.5t2 -109.5l131 -2q27 0 29 -20.5t-25 -24.5l-133 -8l6 -236q0 -12 -16.5 -19t-37 -7t-37.5 6t-19 18l-7 236l-141 -4q-12 2 -18 13t-6 23.5z" />
<glyph unicode="," horiz-adv-x="190" d="M43 74.5q6 19.5 24.5 31t43.5 3.5q31 -8 37 -36t-1.5 -63t-24 -68.5t-30.5 -52.5q-18 -12 -30.5 1.5t-2.5 31.5q16 23 25.5 43.5t-4.5 42.5q-29 8 -36 27.5t-1 39z" />
<glyph unicode="-" horiz-adv-x="501" d="M127 405.5q0 14.5 7 26.5t20 12l295 -14q12 0 20 -7t9 -16.5t-5 -16.5t-18 -9l-303 -16q-12 2 -18.5 14t-6.5 26.5z" />
<glyph unicode="." horiz-adv-x="169" d="M45 68v4q2 23 15.5 33t27.5 8t25.5 -14.5t11.5 -32.5q-4 -18 -15.5 -26.5t-24.5 -8.5t-25.5 9t-14.5 28z" />
<glyph unicode="/" horiz-adv-x="417" d="M16 -47q29 88 67 222t77 279.5t75.5 283t61.5 233.5q4 14 21.5 19t37 3t35 -10t17.5 -20q-66 -258 -133.5 -519.5t-149.5 -502.5q-6 -10 -23.5 -14.5t-37 -3.5t-35 9.5t-13.5 20.5z" />
<glyph unicode="0" horiz-adv-x="616" d="M51 418q-2 98 10.5 189t43 162t85 115t134.5 52q20 0 40.5 -15.5t14.5 -41.5q66 -39 108.5 -120t63 -178.5t15.5 -202t-37.5 -189.5t-94 -139t-153.5 -54q-57 0 -99.5 36t-71 94t-43 134t-16.5 158zM177 533.5q-3 -68.5 1 -134t15.5 -124t23.5 -99.5q23 -59 49.5 -89 t59.5 -40q47 16 88.5 60.5t68.5 105.5t33 156.5t-13.5 190.5t-65.5 174t-122 106q-47 -23 -75.5 -70t-44 -107.5t-18.5 -129z" />
<glyph unicode="1" horiz-adv-x="292" d="M74 920q2 27 20.5 34t41 3.5t41 -14.5t20.5 -21q2 -121 4 -235t5 -225.5t6 -225t3 -234.5q0 -12 -19.5 -21.5t-43 -11.5t-43 5.5t-17.5 25.5v25z" />
<glyph unicode="2" horiz-adv-x="555" d="M51 119q6 43 35 91t68 101.5t82 110.5t79.5 114.5t59 116t20.5 115.5q-8 39 -49 47t-89 -6t-90 -48t-50 -79q-14 -18 -31.5 -14t-17.5 28q14 51 54 90t92 61.5t110.5 27t111.5 -14.5q35 -12 56.5 -34.5t25.5 -59.5q6 -68 -27.5 -141.5t-84 -148.5t-106.5 -150.5 t-95 -147.5q-25 -47 -21 -69.5t58 -26.5q59 2 118.5 10t118.5 17q25 -4 27 -22.5t-19 -29.5q-106 -16 -172.5 -22t-106.5 -6t-62.5 2t-39.5 6q-20 8 -39.5 27.5t-15.5 54.5z" />
<glyph unicode="3" horiz-adv-x="524" d="M49 164q2 23 20.5 27t28.5 -19q4 -35 24.5 -53.5t53.5 -24.5q51 6 97 26.5t67 49.5q27 33 1 71t-71 73.5t-96 68.5t-78 59q-12 12 -17 24.5t9 29.5q27 29 61.5 62.5t67.5 69.5t58.5 71.5t33.5 70.5q-53 -2 -105.5 -4t-105.5 -6q-27 4 -27.5 24.5t23.5 28.5q76 4 122 6 t74.5 3t45 1h33.5q59 0 70.5 -23.5t-7 -59t-56.5 -77.5t-77 -80t-67.5 -66t-28.5 -34q12 -20 40.5 -40.5t64.5 -43t71 -46t60.5 -52.5t33.5 -63.5t-10 -77.5q-25 -49 -87.5 -80t-132 -35t-126 23.5t-68.5 95.5z" />
<glyph unicode="4" horiz-adv-x="589" d="M49 360q14 39 45 81t65 87t63.5 89.5t41.5 87.5q-4 59 -12 111t8 97q10 33 28.5 47.5t38 13.5t39 -14.5t31.5 -35.5q12 -25 15.5 -53.5t-0.5 -58.5t-11.5 -58.5t-13.5 -51.5q8 -92 17.5 -183t15.5 -183q45 0 78 1t39 1q12 0 19 -7t8 -15.5t-5 -16.5t-18 -10q-16 0 -47 -1 t-70 -3q4 -72 3 -142.5t-9 -142.5q-6 -23 -27.5 -27t-43 2.5t-38 20.5t-12.5 29q4 66 3 129t-5 129q-6 0 -49 1t-91.5 9t-83 23.5t-22.5 43.5zM100 356q10 -10 65.5 -14t127.5 -6q-4 63 -11.5 128.5t-13.5 137.5q-18 -31 -42.5 -65.5t-49 -68.5t-46.5 -64t-30 -48z" />
<glyph unicode="5" d="M51 102.5q-10 20.5 12 55.5q16 23 36 14.5t10 -33.5l-9 -18q29 -35 86.5 -37t113.5 21.5t96 67.5t38 99q-4 57 -45 83t-93 43.5t-100.5 42t-66.5 79.5q-16 53 -22.5 94t-2.5 95q6 76 29 109.5t57.5 39.5t81 -8.5t99.5 -34.5q18 -16 11 -32.5t-30 -14.5q-10 4 -38.5 14.5 t-59.5 18.5q-16 -20 -22.5 -66.5t-5.5 -96.5t10.5 -94t25.5 -61q20 -27 67.5 -39t95.5 -30.5t83 -56.5t35 -117q0 -68 -53.5 -115t-127 -69.5t-151.5 -20.5t-127 33q-23 14 -33 34.5z" />
<glyph unicode="6" horiz-adv-x="475" d="M50 321.5q-3 73.5 7.5 155.5t24.5 160t28.5 143.5t18.5 108.5q6 27 25.5 34t41 3t39 -16.5t17.5 -24.5q-4 -51 -21.5 -133t-36 -176.5t-29.5 -187.5t-3 -167q12 41 34.5 84t53.5 70.5t66.5 30t76.5 -36.5q37 -39 32 -91.5t-36 -100.5t-78 -79.5t-94 -29.5 q-4 -31 -2 -56.5t12 -44.5q8 -23 -11 -30t-32 6q-20 35 -28.5 73.5t-10.5 77.5q-49 33 -70.5 93.5t-24.5 134zM229 121q35 2 67 27.5t52.5 61.5t22.5 72t-21 56q-39 -29 -71.5 -90.5t-49.5 -126.5z" />
<glyph unicode="7" horiz-adv-x="481" d="M55 756q53 47 121 71q104 41 160.5 37t78 -38.5t16.5 -93t-24.5 -124t-46 -131t-45.5 -117.5q-23 -63 -43 -136.5t-18 -139.5q31 -2 35 -16.5t-8.5 -26.5t-36 -16.5t-47.5 14.5q-27 39 -24 99.5t20.5 129t43 143t46 144.5t27.5 130t-11 101q-57 -4 -110.5 -16t-100.5 -49 q-18 -10 -31.5 3t-1.5 32z" />
<glyph unicode="8" horiz-adv-x="606" d="M51 192.5q6 40.5 23.5 79.5t42 74t43.5 64q14 18 25.5 34.5t21.5 32.5q-31 33 -58.5 70t-49 71.5t-32 64.5t-4.5 48q12 39 46 65.5t80.5 40t98.5 13.5t103 -12l4 36q10 27 29.5 20t19.5 -34q0 -18 -8 -43q20 -20 22.5 -36.5t-30.5 -20.5q-23 -66 -55.5 -124t-67.5 -110 l8 -6q31 -31 67 -64.5t69.5 -70.5t59.5 -78t38 -84q14 -57 -11.5 -98t-75.5 -65.5t-112.5 -33t-122 -1t-104.5 29t-60 56.5q-16 41 -10 81.5zM105.5 203.5q-5.5 -27.5 4 -55t37.5 -52.5q29 -23 83.5 -22.5t103.5 19t76.5 53t7.5 83.5q-16 39 -66.5 95.5t-107.5 117.5 q-23 -29 -44.5 -60.5t-43.5 -68.5q-16 -27 -30.5 -54.5t-20 -55zM197 701.5q-2 -29.5 20 -68.5q8 -16 22.5 -32.5t30.5 -35.5q35 51 61 103t44 118l-22.5 4.5t-24.5 2.5q-35 -4 -65 -14.5t-47 -29t-19 -48z" />
<glyph unicode="9" horiz-adv-x="491" d="M55 567q-10 47 3.5 103.5t47 107.5t82.5 74q27 10 61 13t58 -5l8 66q0 23 19.5 30t43 3.5t43 -14.5t19.5 -23q0 -231 -1 -457.5t-19 -456.5q-6 -12 -25.5 -20t-40 -8t-38 7t-19.5 25q0 145 13.5 299t4.5 303q-14 -27 -39.5 -50t-55.5 -38.5t-60.5 -21.5t-55.5 2 q-39 14 -49 61zM100 638q-4 -52 19 -87q37 -8 69.5 21.5t57 73.5t38 92t11.5 77q-55 16 -98 -9.5t-68 -70.5t-29 -97z" />
<glyph unicode=":" horiz-adv-x="243" d="M119 117v4q2 23 15.5 33t27.5 8t25.5 -14.5t11.5 -32.5q-4 -18 -15.5 -26.5t-24.5 -8.5t-25.5 9t-14.5 28zM119 316v4q2 23 15.5 33t27.5 8t25.5 -14.5t11.5 -32.5q-4 -18 -15.5 -26.5t-24.5 -8.5t-25.5 9t-14.5 28z" />
<glyph unicode=";" horiz-adv-x="256" d="M119 316v4q2 23 15.5 33t27.5 8t25.5 -14.5t11.5 -32.5q-4 -18 -15.5 -26.5t-24.5 -8.5t-25.5 9t-14.5 28zM122.5 120q5.5 17 21 27t36.5 3q26 -7 31.5 -31.5t-1 -55t-20.5 -59.5t-26 -46q-15 -11 -25.5 1t-2.5 28q14 20 22 38t-4 37q-25 7 -31 24t-0.5 34z" />
<glyph unicode="&#x3c;" horiz-adv-x="391" d="M35 371q12 14 38.5 35.5t59.5 47t66.5 52t60.5 53.5q20 16 35.5 1t-0.5 -36q-25 -23 -51.5 -51.5t-49 -55t-39 -49t-18.5 -34.5q4 -14 30 -36t59.5 -43.5t67.5 -37.5t52 -20q12 -4 17.5 -12.5t3.5 -17.5t-10.5 -15.5t-20.5 -4.5q-72 23 -153 60t-136 92q-37 41 -12 72z " />
<glyph unicode="=" horiz-adv-x="444" d="M25 479.5q0 12.5 7 22.5t19 10q86 0 169 -4t167 -4q12 0 20.5 -7.5t9.5 -16.5t-5 -16t-19 -9q-86 -4 -171 -8.5t-173 -4.5q-12 2 -18 13.5t-6 24zM47 346q0 12 7 22.5t20 10.5q74 0 146.5 -4t148.5 -4q12 0 19 -7.5t8 -16.5t-5 -16t-18 -9q-74 -4 -149.5 -8.5 t-151.5 -4.5q-12 2 -18.5 13.5t-6.5 23.5z" />
<glyph unicode="&#x3e;" horiz-adv-x="393" d="M24.5 544.5q4.5 18.5 30.5 18.5q41 -12 85 -27.5t84 -33t73 -35.5t53 -37q39 -33 2 -74q-68 -78 -270 -204q-18 -12 -30.5 5t3.5 31q39 27 76 57.5t65.5 58.5t45 51.5t16.5 35.5q-4 25 -67.5 61.5t-147.5 65.5q-23 8 -18.5 26.5z" />
<glyph unicode="?" horiz-adv-x="333" d="M27 729q2 8 12 12q27 8 65.5 17.5t78.5 8.5t73 -15.5t45 -53.5q12 -37 3 -81t-29.5 -89t-46 -92t-46 -90t-31 -82t0.5 -67q20 -14 13 -34t-30 -7q-33 20 -39 59t3.5 88t28.5 103.5t36.5 104.5t28 93t2.5 68q-6 20 -37 25t-99 -5q-12 -2 -20 4t-11 15.5t-1 17.5zM118 54.5 q-1 11.5 7 21.5q12 10 25.5 7t21.5 -13.5t8 -24.5t-14 -22q-12 -6 -23.5 -2t-17.5 13t-7 20.5z" />
<glyph unicode="@" horiz-adv-x="909" d="M16 204.5q-4 67.5 13.5 138.5t54.5 136.5t89 117.5t118.5 86t142.5 40q150 4 258.5 -69.5t155.5 -247.5q20 -86 -2.5 -168t-67.5 -143.5t-102.5 -91.5t-108.5 -11q-35 12 -54 40.5t-30.5 63.5t-14.5 73t-3 73v2q-10 -12 -19.5 -26.5t-23.5 -24.5q-29 -27 -62.5 -39.5 t-64.5 -6t-51.5 32t-20.5 76.5q0 41 26.5 73.5t64.5 52t80 23t75 -13.5q4 29 7 58.5t5 70.5q4 16 21.5 20.5t38 2.5t36 -10.5t15.5 -16.5v-2q0 -45 -9.5 -115.5t-10.5 -142.5t13.5 -131t59.5 -82q23 10 50.5 34.5t56.5 65.5q53 76 55 165t-35 168t-107.5 134.5t-162.5 63.5 h-4q-106 -12 -189.5 -78t-128.5 -166q-53 -117 -46 -213t53 -165.5t120 -110.5t158 -47q35 4 67.5 11t63.5 23q12 6 20.5 3t11.5 -11t1 -18.5t-15 -18.5q-88 -37 -172 -42t-157.5 21.5t-134 82t-101.5 135.5q-29 57 -33 124.5zM333 249.5q-1 -24.5 17 -48.5q39 22 62 55 q29 41 45 82q-4 4 -11.5 7t-13.5 7q-25 -6 -48.5 -21.5t-36.5 -36t-14 -45z" />
<glyph unicode="A" horiz-adv-x="851" d="M6 301q0 16 4 31.5t15 19.5h81q14 78 33 158t39.5 153.5t45 135t55.5 104.5l2 2q18 29 43.5 36t50 3t46 -15t30.5 -20q29 -63 49 -129.5t36.5 -134t30 -135.5t29.5 -135q27 2 52.5 4t49.5 6q12 0 20.5 -7t9.5 -16.5t-5 -16.5t-18 -9q-25 -4 -48.5 -8t-48.5 -9 q14 -57 37 -118q2 -8 12.5 -28.5t22.5 -38t26.5 -27t26.5 3.5q41 45 75 98t44 76q14 29 27.5 58.5t21.5 53.5q14 27 30.5 21t16.5 -33q-10 -41 -35.5 -94t-60.5 -109q-29 -45 -68 -92q-39 -46 -82 -68q-24 -12 -48 -13q-18 -1 -37 7q-42 16 -76 101q-18 41 -32.5 87 t-27.5 97q-158 -25 -311 -37l-41 -227q-4 -10 -16.5 -15.5t-26.5 -4.5t-24.5 8.5t-10.5 19.5q10 43 19.5 97.5t19.5 115.5q-16 -2 -30.5 -3t-28.5 -1q-12 2 -18.5 16.5t-6.5 30.5zM184 352q68 2 139.5 5t143.5 8q-16 70 -26.5 132t-20.5 105q-8 33 -18.5 76t-21.5 83 t-22.5 68.5t-21.5 30.5q-25 -10 -45.5 -56t-39 -117t-35.5 -158t-32 -177z" />
<glyph unicode="B" horiz-adv-x="1185" d="M14 502q-6 17 -7 37q0 28 13 61q14 43 48 87t78 83t92.5 71.5t95.5 53.5q18 8 47 17.5t57.5 13.5t51 1t28.5 -20q20 -43 29 -102q23 53 60.5 84t81.5 38q14 2 28 2q31 -1 65 -11q49 -16 92 -56q61 -58 87 -120q20 -47 20 -94q0 -14 -2 -28q-8 -60 -47 -115.5t-105 -101.5 q37 -4 82 -15t88 -30.5t75 -49t40 -68.5q3 -14 3 -28q1 -30 -15 -56q-22 -37 -65.5 -65t-102 -46t-121.5 -28.5t-127 -11.5h-13q-55 0 -102 7q0 -4 1 -8t1 -8q0 -12 -20.5 -18.5t-44 -6.5t-43 9.5t-17.5 31.5v49q-47 33 -63 82q0 23 16.5 28t30.5 -15q6 -14 16 -29v219 q-29 0 -76.5 3t-102 12.5t-109 25.5t-91.5 45t-53 70zM84 516q12 -33 44 -55.5t76 -35.5t89 -19.5t86 -8.5t67 -2v134t-4 136.5t-12 120t-22 84.5q-31 -6 -77 -32.5t-94.5 -65.5t-88.5 -85t-58 -91q-11 -28 -11 -51q0 -16 5 -29zM565 635q5 -104 5 -227v-42q-1 -148 -1 -309 q41 -8 86 -8q23 0 46 2q71 6 132.5 28.5t103.5 59.5t48 84q-2 35 -31.5 58.5t-71.5 38t-88 22.5t-81 12q-25 -10 -48.5 -13t-41.5 7q-12 12 -15 27q2 29 26.5 37t57.5 6q31 20 62.5 47t55.5 58.5t36 70.5q8 26 8 54q0 14 -2 28q-10 66 -60.5 124t-111.5 74q-41 -14 -70 -63 q-20 -35 -30.5 -82t-14.5 -94z" />
<glyph unicode="C" horiz-adv-x="792" d="M12 356v22q0 83 14 163q16 90 33 145q14 39 40 86t61 86q35 38 78 62q32 18 66 18q12 0 24 -2q51 -8 96 -55t78 -113q23 -72 36 -124t13 -91q0 -23 -8 -33t-18.5 -10t-18.5 8t-6 25q2 27 -3 55.5t-14 60.5q-18 72 -55 136.5t-88 83.5q-53 -16 -92 -75t-65.5 -134.5 t-38.5 -154.5q-11 -68 -11 -120v-16q2 -45 8 -89t16.5 -83t28 -70t43.5 -49q45 -31 107 -37q70 8 145.5 39t144 78t125 106.5t91.5 122.5q14 20 30.5 16.5t16.5 -28.5q-25 -63 -76 -123.5t-117.5 -111t-142.5 -86.5q-75 -34 -153 -50q-49 -10 -97 -10q-27 0 -54 3 q-73 9 -130 50t-81 123t-26 176z" />
<glyph unicode="D" horiz-adv-x="839" d="M9 628v12q0 102 45 166q47 67 168 66h7q0 23 -1 43.5t1 42.5q2 20 21.5 28.5t41 6.5t40 -11t20.5 -19q-2 -25 -1 -52.5t1 -56.5q66 -20 139.5 -58t138 -88.5t110.5 -111.5t55 -129q2 -16 2 -31q0 -68 -37 -120q-45 -64 -116 -110t-149.5 -76t-136.5 -48q-10 -47 -24 -70 q-29 -41 -71 -49q-8 -2 -16 -2q-32 0 -54 27q-8 6 -15.5 21.5t-17.5 35.5q-29 4 -37 21.5t16 50.5q-49 131 -88 266t-42 245zM80 682q-2 -20 -2 -41q0 -54 11 -117q15 -88 38 -172t45.5 -153.5t32.5 -102.5q20 0 37 10h2q8 76 9 168v36q0 74 -3 150q-4 95 -10.5 189 t-10.5 174q-15 2 -28 2q-53 -1 -81 -33q-34 -40 -40 -110zM217 47l6 -10l3 6t1 6q-2 0 -4 -1t-6 -1zM354 801q4 -78 8.5 -164t8.5 -170q0 -31 2 -71t2 -85t-2 -91t-6 -87q57 20 116.5 52t106.5 74q46 42 74 92q21 39 22 82q0 13 -2 26q-8 53 -41 105t-79 96.5t-100 81 t-110 59.5z" />
<glyph unicode="E" horiz-adv-x="897" d="M24 296q28 69 107.5 133.5t187.5 107.5q-27 0 -63.5 5t-70 16t-59.5 32.5t-30 56.5q-1 10 -1 20q-1 37 17 67q22 38 61.5 67.5t90.5 50t103.5 30t99.5 10.5h8q42 0 72 -9q18 -16 11 -34t-30 -13l-22 4q-47 -4 -98.5 -18.5t-92.5 -38t-67 -54.5q-22 -27 -21 -57v-10 q2 -27 29 -43.5t61.5 -23.5t69.5 -8t53 1q45 23 81 23q6 -1 11 -1q39 -4 51.5 -19.5t-7 -32.5t-80.5 -17q-49 -16 -102.5 -46t-100.5 -67t-84 -78t-51 -82q-8 -21 -8 -42q0 -18 6 -36q14 -38 65 -69q63 57 136 100t139 66q29 8 84 18t111.5 10t101.5 -17t51 -62q2 -9 2 -18 q0 -42 -39 -82q-47 -48 -143 -77q-33 -10 -79 -20t-100.5 -17.5t-110.5 -8.5h-9q-51 0 -97 10q-25 -18 -48 -48t-43.5 -70t-33 -88t-12.5 -102q0 -23 -19.5 -25.5t-29.5 15.5q-9 42 -9 87q0 37 6 76q13 87 79 183q-104 45 -133 111q-15 33 -15 66q0 34 14 68zM324 76 q18 -6 43.5 -9.5t54.5 -5.5q63 2 128.5 14.5t119 33t88.5 50t35 68.5q-6 16 -25.5 24.5t-46.5 12.5q-37 -2 -72 -9t-63 -17q-68 -23 -136.5 -66t-125.5 -96z" />
<glyph unicode="F" horiz-adv-x="1052" d="M16 236q29 68 98.5 112.5t155.5 77.5t177.5 54.5t160.5 43.5q-16 61 -19 134q-1 24 -1 46q0 44 4 80l-45 23q-16 -10 -53 -30.5t-85.5 -42t-102.5 -40t-101 -25.5q-19 -3 -37 -3q-25 0 -46 6q-36 10 -50 47q-6 15 -6 31q0 29 18 63q28 53 88 86q48 27 110 29h30 q42 0 73 -4q68 -10 134.5 -33t129.5 -51q47 -20 94.5 -34.5t102.5 -19.5q37 5 76 14q25 0 28.5 -19t-16.5 -33q-68 -16 -122 -16q-3 0 -5 -1q-51 0 -94 10q-2 -21 -2 -41q0 -26 3 -51q5 -45 15 -92q72 20 143.5 39.5t143.5 42.5q23 0 28 -17.5t-16 -31.5 q-72 -23 -144.5 -42.5t-144.5 -39.5q0 -6 4 -19q12 -61 23 -123q12 -62 14 -120v-17q0 -49 -10 -93q-12 -52 -47 -91q-20 -23 -62.5 -39t-94.5 -25.5t-108.5 -9.5t-107.5 9q-72 8 -141.5 29.5t-118.5 54.5q-50 32 -72 76q-12 23 -11 49q0 23 9 47zM92 223q-6 -18 -6 -35 q0 -28 16 -51q26 -37 75.5 -62.5t115 -37.5t127.5 -13h10q56 0 104 11q52 12 76 37q33 37 40 89q4 30 4 62q0 23 -2 47q-5 56 -17.5 110t-18.5 95q-104 -29 -195 -57.5t-159.5 -59t-113 -64.5t-56.5 -71zM123 731q14 -18 59 -14t100.5 21.5t112 42t97.5 48.5 q-39 16 -84.5 28.5t-98.5 16.5h-13q-30 0 -62 -7q-38 -9 -68 -27q-29 -18 -42 -46q-7 -14 -7 -31q0 -15 6 -32z" />
<glyph unicode="G" horiz-adv-x="958" d="M9 419.5q9 20.5 34 12.5q23 -10 50.5 -18t70.5 -11v17q0 50 10 110q12 70 37 137.5t61.5 126t81.5 95.5t100 43q9 1 17 1q48 0 100 -30q55 -33 71 -80q10 -27 10 -57q0 -21 -5 -44q-12 -54 -49 -109.5t-87 -103.5t-109.5 -85t-116.5 -53q0 -4 1 -7.5t1 -7.5 q14 -123 52 -183t91 -75q61 14 120.5 69.5t94.5 133.5q0 51 6 96t29 84v2q10 20 29.5 25.5t39 2.5t35 -13.5t19.5 -20.5v-16q0 -40 -7 -80q-10 -49 -30 -96q0 -57 9 -105.5t26 -120.5l61 23q25 0 29 -18.5t-17 -30.5l-61 -23l6 -24q33 -119 53 -240q9 -48 9 -96 q0 -72 -19 -142q-25 -92 -83 -148t-134 -83q-39 -12 -95 -18.5t-116 -6.5h-16q-63 0 -124 14q-67 17 -124 50q-82 47 -110 102q-19 38 -19 78q0 16 3 32q11 56 53 112.5t99.5 106.5t122 93t121.5 72q59 31 122 56.5t126 51.5q-10 53 -20.5 94.5t-18.5 92.5 q-78 -102 -161 -137q-50 -21 -95 -21q-29 0 -56 9q-69 22 -117 97.5t-56 196.5q-47 0 -80.5 10.5t-58.5 22.5q-25 14 -16 34.5zM112 -466q-4 -17 -4 -33q0 -33 14 -63q23 -46 95 -83q66 -35 147 -43q24 -2 48 -2q56 0 111 14q77 19 136 68t82 131q13 55 13 116q0 45 -6 93 q-17 114 -46 235q-61 -23 -122.5 -47t-120.5 -53q-45 -23 -101.5 -58.5t-106.5 -80.5t-89 -94.5t-50 -99.5zM285 420q70 23 141.5 77t117.5 119.5t54 131.5q1 8 1 15q0 56 -50 97l-35 12q-53 -12 -95 -60t-72 -112.5t-45 -138.5t-17 -141z" />
<glyph unicode="H" horiz-adv-x="1189" d="M8 522q-1 10 -1 20q0 70 36 140q41 80 109 140q67 60 153 90q49 17 98 17q36 0 72 -9q30 -11 30 -59v-9q-3 -56 -11 -156q-8 -102 -22.5 -198.5t-27.5 -188.5q102 16 204 27.5t204 23.5q-3 45 -3 91q0 23 1 45q2 68 6 134t8 125.5t6 106.5q0 18 18.5 26.5t40 6.5 t41 -12.5t23.5 -26.5q-2 -41 -6 -96t-7 -117.5t-4 -131.5q0 -14 -1 -27q0 -55 4 -107q20 4 39.5 7t40.5 7q25 -4 29 -21.5t-19 -29.5l-88 -16q2 -27 6 -62t11.5 -69.5t18.5 -64.5t27 -46q20 12 41 35.5t40.5 51.5t36 58.5t28.5 57.5q14 29 28.5 58.5t20.5 53.5 q14 27 30.5 21t16.5 -33q-10 -41 -35.5 -94t-60.5 -109q-33 -53 -74 -99q-41 -47 -83 -63q-17 -7 -33 -6q-24 0 -47 14q-38 24 -66 113q-23 70 -33 164q-104 -16 -208.5 -31.5t-209.5 -37.5q-8 -66 -10 -124v-24q0 -45 6 -84q23 0 14.5 -16.5t-31 -30.5t-50 -19.5 t-43.5 19.5q-12 16 -16.5 47t-4.5 66.5t3 72.5t7 66q-18 -4 -35.5 -8t-33.5 -8q-14 0 -21.5 9t-9.5 22.5t3 25.5t15 16q23 6 45.5 11.5t44.5 9.5q18 156 43 300q19 109 19 219q0 35 -2 71q-78 -6 -141.5 -48.5t-104.5 -99.5t-57 -119q-7 -29 -7 -56q-1 -29 9 -54 q18 -48 74 -68q23 -9 54 -8q43 0 101 16q23 0 28 -18.5t-16 -30.5q-43 -10 -94 -14q-13 -1 -25 -1q-38 0 -73 9q-47 12 -80 44t-39 93z" />
<glyph unicode="I" horiz-adv-x="661" d="M10 111q-2 23 14.5 29.5t32.5 -11.5q6 -16 29 -37.5t56 -37.5q34 -18 74 -26q16 -3 31 -3q24 0 48 8q37 10 61.5 38.5t39 69.5t20.5 89.5t6 97.5q-29 -6 -62 -6q-26 0 -56 4q-64 8 -121.5 34.5t-101.5 70.5t-58 110q-3 16 -3 32q0 41 22 87q30 64 79 122t106.5 101 t100.5 59q8 4 28.5 8t41 5t38 -2t21.5 -13q12 -20 26.5 -78.5t26.5 -136.5t21.5 -163t9.5 -159q29 4 34 -16t-32 -35v-23q-1 -49 -7 -99q-8 -60 -27.5 -111t-50 -86t-73.5 -47q-41 -10 -92 -10q-2 0 -4 -1q-49 0 -92 11q-59 14 -112.5 48t-74.5 77zM82 553q12 -49 48 -87 t83 -60.5t103 -30.5q22 -3 43 -4q32 0 63 8q0 70 -7 149.5t-17.5 152.5t-24 129t-23.5 79q-33 0 -83 -37t-95 -90q-44 -52 -72 -110q-20 -42 -20 -76q-1 -12 2 -23z" />
<glyph unicode="J" horiz-adv-x="854" d="M8 -236q-2 15 -2 31q0 43 12 87q17 61 62 116q98 125 218 210t267 165q-16 61 -38.5 136t-43 150.5t-37 147.5t-18.5 127q0 20 10 29q10 8 28.5 10t36 -1t32 -10.5t16.5 -17.5q14 -117 51 -249t72 -269l59 29q33 -16 12 -43l-61 -29q23 -90 37 -159.5t23.5 -125 t13.5 -99.5t6 -81q1 -16 1 -36q0 -29 -2 -66q-3 -60 -15.5 -121.5t-37 -117.5t-67.5 -91q-59 -47 -132 -62q-44 -10 -87 -10q-30 0 -60 4q-73 11 -140.5 45.5t-114.5 87.5q-41 45 -68 99.5t-33 113.5zM76 -180q-1 -10 -1 -19q0 -63 25 -121q27 -65 79 -115t115 -75 q51 -20 103 -20h23q64 6 117 53q63 68 87 168q20 89 20 186v25q-3 110 -23.5 220.5t-45.5 201.5q-49 -27 -110.5 -65t-121.5 -83t-116.5 -98t-95.5 -111q-51 -74 -55 -147z" />
<glyph unicode="K" horiz-adv-x="1241" d="M9 543q5 47 31 96t66.5 96t86 86t91.5 66.5t81 38.5q4 0 6 2q4 0 6 2q4 0 7 1t7 1q20 4 45 6t46.5 1t37 -5t19.5 -12q20 -49 29.5 -145.5t11.5 -209.5q47 43 94 85t88 80t72.5 66.5t48.5 45.5q20 20 34.5 5t-4.5 -36l-323 -354q92 33 188 40q12 1 25 1q83 0 164 -41 q47 -25 76.5 -80t53 -126t44 -146.5t48.5 -142t66.5 -114t98.5 -59.5q33 4 63.5 13.5t65.5 15.5q12 0 19 -7.5t7 -16.5t-6 -16t-18 -9q-37 -8 -74 -17.5t-74 -13.5q-16 -2 -33 -2q-20 0 -40 3q-36 5 -72 28q-53 37 -86 96t-56.5 128.5t-41 140.5t-41 132.5t-57 105.5 t-87.5 58q-26 7 -53 7q-32 0 -66 -9q-64 -16 -124 -45q-2 -131 -7.5 -237.5t-7.5 -145.5q-2 -10 -18.5 -19.5t-35.5 -13.5t-38.5 -1t-28.5 16q-6 6 -2 18q6 43 10.5 128t4.5 189q-49 -31 -62 -32q-16 -4 -23 11t-7 35.5t6 41t16 26.5q16 12 33.5 27.5t36.5 32.5 q0 70 -3 137.5t-6.5 124.5t-9.5 98t-12 60l-8 4q-55 -4 -124 -48t-124 -104.5t-81 -126.5q-12 -30 -12 -58q0 -32 17 -59q18 -31 46 -45t58.5 -20t62 -5t58.5 1q20 -6 19.5 -25.5t-25.5 -23.5q-29 0 -67.5 1t-78.5 8t-77 25.5t-61 55.5q-21 31 -21 69q0 7 1 15z" />
<glyph unicode="L" horiz-adv-x="854" d="M4 383.5q2 19.5 25 19.5q92 -23 172 -29q23 -2 45 -3q55 0 106 12q-6 49 -12 107t-7 118v20q0 50 4 97q5 57 21 104q23 63 61 94t82 35q9 1 18 1q35 1 73 -13q47 -18 86 -51t66.5 -78t33.5 -94q1 -10 1 -20q-1 -43 -21 -85q-26 -52 -69.5 -97.5t-100 -82.5t-107.5 -61 q6 -59 8.5 -103.5t2.5 -76t-3.5 -57t-9.5 -48.5l13 -6q57 -27 110 -57.5t103.5 -58t97.5 -49t96 -27.5q39 4 77 20t79 49q18 8 30.5 -5t1.5 -30q-83 -62 -153 -76q-28 -6 -58 -6q-42 0 -84 12q-72 20 -153.5 62.5t-187.5 95.5q-31 -43 -79 -73.5t-96 -46.5 q-16 -4 -39.5 -7.5t-47 -2.5t-44 4.5t-32.5 11.5q-49 25 -73 80q-11 25 -11 50q0 31 16 62q18 34 59 46q38 11 82 11h8q48 -1 94 -10.5t74 -15.5q7 39 7 74q0 19 -2 35q-5 50 -9 100q-58 -15 -117 -15q-22 1 -44 3q-81 8 -177 30q-18 12 -16 31.5zM83 27q1 -27 17 -49 q16 -21 44 -33q16 -7 34 -7q16 0 33 5q47 14 79 45.5t54 72.5q-37 12 -76 23.5t-72.5 15.5t-60 -2t-41.5 -26q-12 -18 -11 -45zM462 570q3 -68 11 -140q43 20 88 49t83 64t61.5 75t23.5 87q0 37 -14.5 69.5t-38 58t-55 44t-66.5 26.5q-45 -18 -66.5 -75.5t-25.5 -116.5 q-2 -41 -2 -81q0 -31 1 -60z" />
<glyph unicode="M" horiz-adv-x="1490" d="M3 478.5q-5 29.5 1 59t17.5 56.5t17.5 43q14 27 37.5 60.5t54.5 68.5t68 68.5t73 60.5q20 14 58 33q36 18 76 28q26 7 51 7q13 1 26 -1q37 -6 56 -36q14 -61 20 -137t8 -155q1 -40 1 -79t-1 -78q-2 -78 -4 -141q27 190 49.5 306t51.5 185q8 25 29.5 31t46 -1t47 -24.5 t30.5 -41.5q16 -49 30.5 -129t32 -169.5t40 -174.5t55.5 -142q27 49 49.5 134t42.5 176.5t41.5 172t46.5 121.5q20 25 46 23t47.5 -17.5t35.5 -38t14 -40.5q2 -25 4.5 -81.5t10.5 -130t21.5 -155.5t35.5 -160q35 -119 79 -188.5t118 -83.5q68 12 164 57q25 10 37 -9t-9 -38 q-129 -58 -226 -58q-57 0 -101 19q-124 53 -183 283q-20 78 -32.5 153.5t-20.5 140t-12 117t-8 84.5q-23 -66 -43.5 -151.5t-44 -167.5t-53 -150.5t-72.5 -99.5q-12 -10 -25.5 -11t-22.5 3q-57 55 -88.5 140t-50 180.5t-33 189.5t-38.5 168q-18 -39 -36 -127t-34.5 -195.5 t-32.5 -218.5t-31 -197q0 -16 -16 -22t-37.5 -6t-41 7t-27.5 19q-2 8 -3.5 14.5t-1.5 14.5q-8 60 -8 119q0 18 1 36q1 33 1 68q0 46 -2 95q-52 -1 -108 -3q-20 -1 -40 0q-36 0 -71 2q-55 4 -103 17.5t-81 44.5q-25 23 -30 52.5zM68 482q22 -44 82 -60q53 -14 122 -14h18 q81 2 152 6q2 123 2 248.5t-24 244.5q-70 -25 -122 -61.5t-91 -78.5t-67 -83t-46 -72q-32 -59 -32 -98q-1 -18 6 -32z" />
<glyph unicode="N" horiz-adv-x="1193" d="M12 550q6 44 25.5 90t46.5 89q25 39 61.5 85t81.5 81t97 53q28 9 58 9q25 0 50 -7q49 -14 81 -64q30 -47 30 -132v-11q0 -39 -1 -66.5t-3 -59t-5.5 -74.5t-7.5 -113q-4 -53 -6 -96t-2 -83t3 -81t7 -86q16 33 31.5 94.5t34 138t41 159.5t50.5 157t62.5 131t77.5 82 q20 12 44 16t45.5 2t39 -10t23.5 -23q16 -59 22.5 -149t12.5 -191.5t19 -205t42 -190.5t78 -146.5t129 -71.5q23 4 48.5 8t53.5 15q12 0 19.5 -7.5t8.5 -16.5t-5 -17.5t-19 -10.5q-83 -27 -149 -27q-45 0 -82 13q-90 31 -144.5 108.5t-79 188.5t-35.5 229.5t-16.5 230 t-19.5 189.5q-39 -31 -70.5 -86t-57 -124.5t-48 -148.5t-43 -155t-42 -145.5t-46.5 -120.5q-8 -16 -25.5 -27.5t-37 -15.5t-37 -1t-23.5 17q-14 31 -22.5 75t-11.5 91t-3 95.5t2 89.5h-2q-39 -4 -86 -8q-21 -2 -42 -3l-52 3q-47 6 -91 23t-77 56q-25 31 -32 71q-4 22 -4 44 q0 20 3 40zM74 540q-4 -20 -4 -39q0 -44 24 -73q31 -39 78 -52.5t93 -13.5t84 6t48 3q2 57 5.5 102t5.5 88t5 88t7 103q2 23 2 43q0 73 -24 97q-17 18 -40 17q-18 1 -38 -9q-48 -22 -101 -84t-92 -134t-53 -142z" />
<glyph unicode="O" horiz-adv-x="931" d="M10 467q4 92 40 193.5t108 170.5q43 43 94 66q50 23 106 27q13 1 27 1q42 1 85 -9q56 -12 110 -37q82 -39 143 -100.5t95 -138.5t36 -164v-9q0 -83 -35 -166q20 8 51 25q12 6 20.5 3t11.5 -10.5t1 -17.5t-14 -16q-41 -25 -61.5 -32t-49.5 -17q-35 -51 -86 -99.5 t-114.5 -82.5t-137.5 -48q-35 -7 -73 -7q-43 0 -88 9q-70 12 -122.5 55t-86.5 105q-32 63 -48 141q-12 62 -13 125q0 17 1 33zM137 372q10 -98 51 -175q14 -27 36 -53.5t48.5 -47t57 -33t65.5 -12.5q92 6 173.5 52t140.5 120q-27 -5 -56 -5q-45 0 -96 12q-84 18 -164 63 t-146.5 114.5t-101.5 155.5q-12 -59 -12 -121q0 -35 4 -70zM244 730q-1 -13 -1 -26q0 -29 6 -59q9 -43 27.5 -83t42.5 -70q31 -41 74 -79t93.5 -69t106.5 -50.5t114 -25.5q25 4 41 8q41 68 49 138q3 23 3 46q0 48 -12 92q-16 66 -56 124.5t-93 102.5t-116.5 68.5 t-131.5 24.5q-68 -16 -123 -67q-20 -33 -24 -75z" />
<glyph unicode="P" horiz-adv-x="907" d="M12 475q-6 40 -6 78q0 55 12 106q20 86 81 153t177 95q49 12 116 12q26 0 52 -2q100 -6 192.5 -35.5t162 -80.5t80.5 -125q2 -16 2 -31q0 -55 -28 -103q-36 -62 -101.5 -108.5t-152.5 -78.5t-179 -46q-2 -143 -14.5 -225t-53.5 -104q-10 -6 -38.5 -10.5t-57.5 5.5 q-29 4 -59.5 42t-58 88.5t-50 100.5t-31.5 79q-31 92 -45 190zM78 454q12 -85 39.5 -166t66.5 -149.5t80 -113.5q12 14 19.5 46.5t9.5 73.5t3 84t1 78q-18 2 -33.5 3t-27.5 5q-10 10 -9.5 23.5t17.5 19.5q10 0 26.5 -1t26.5 -1q0 66 -2 139.5t-7 142.5t-13.5 125t-20.5 89 q-80 -35 -122 -97.5t-54 -138.5q-6 -38 -6 -79t6 -83zM375 872q8 -25 14 -60.5t10 -71t6.5 -67.5t4.5 -48q4 -61 6 -129l4 -136q61 14 122.5 42t110.5 66t78 85q24 39 24 83q0 9 -1 19q-6 45 -40 84t-86.5 68t-118 45t-134.5 20z" />
<glyph unicode="Q" horiz-adv-x="792" d="M-76 29q-4 23 11.5 28.5t31.5 -14.5q18 -41 39 -65.5t66 -43.5q61 -27 141 -38t158 -15q-10 51 -18.5 104.5t-14.5 110.5q-88 18 -150.5 59.5t-102.5 95.5t-59 117q-18 58 -18 114v12q2 61 22.5 116.5t57.5 91.5q59 57 144 90t178 37q41 78 80 105q30 20 57 20 q10 0 19 -2q36 -10 68 -48t55.5 -90t37.5 -111.5t16 -112.5v-19q0 -67 -12 -133q-14 -76 -48 -141.5t-89 -115.5t-135 -72q6 -57 13 -116t22 -118q55 -2 129.5 -10t138 -28.5t102.5 -58.5q30 -29 30 -72q0 -13 -3 -28q-12 -61 -58.5 -110t-104.5 -70q-35 -14 -72 -14 q-24 0 -48 6q-63 14 -112 80q-41 57 -68 122.5t-45 137.5q-90 4 -185.5 19.5t-164.5 50.5q-47 23 -70.5 52.5t-38.5 76.5zM130 535q-3 -25 -3 -50q0 -48 15 -96q22 -72 72 -132t118 -91q-2 49 -2 97q0 104 9 205q13 148 52 296q-55 -12 -104 -35.5t-86 -60.5 q-59 -59 -71 -133zM456 303v-53q0 -52 1 -98q55 18 99 61t72.5 101.5t43.5 127.5q12 62 12 125v17q0 39 -7 85t-19.5 89t-30 78.5t-37.5 54.5q-14 -16 -25.5 -33.5t-21.5 -40.5q4 0 16 -4q14 -8 17.5 -18.5t-3 -17.5t-18.5 -10t-31 3h-2q-23 -63 -37 -141t-21 -161t-8 -165z M508 -176q16 -59 41.5 -115.5t60.5 -107.5q8 -12 32 -28.5t56 -25.5q37 8 78 41q18 14 31.5 38t17.5 50.5t-2.5 51.5t-31.5 41q-47 31 -124 41t-159 14z" />
<glyph unicode="R" horiz-adv-x="911" d="M26 664q42 118 230 174v73q2 18 20.5 25.5t41 4.5t41 -12.5t22.5 -21.5q4 -10 4 -21.5v-25.5q38 4 76 4q19 0 37 -1q56 -3 105.5 -14t87.5 -31.5t61 -51.5q24 -35 24 -72q0 -20 -6 -40q-20 -58 -70.5 -114.5t-120 -106.5t-137.5 -85q135 -8 219 -68.5t152 -187.5 q47 -90 88 -138t93 -62q22 -6 48 -5q34 1 74 11q70 18 174 63q23 0 28 -18.5t-15 -30.5q-43 -16 -83 -30.5t-79 -24.5h2q-72 -23 -135.5 -23t-120 25.5t-104.5 79t-91 141.5q-47 96 -117.5 158.5t-183.5 66.5q-2 -102 -6 -174t-10 -88q-2 -8 -16.5 -17.5t-35 -14.5t-41 -4 t-34.5 18q-59 78 -110.5 172t-86.5 184q-41 102 -41 186q0 52 16 97zM76 612q-6 -28 -7 -56q1 -34 9 -70q14 -68 41.5 -137.5t64.5 -136.5t72 -120l8 187q-23 -6 -32 -1t-7 15t12.5 21.5t28.5 17.5q2 50 2 101q0 63 -3 127q-5 114 -9 226q-84 -25 -126 -69.5t-54 -104.5z M387 807q4 -86 5 -196.5t1 -217.5q51 33 102.5 76t89.5 89t55 91q8 22 8 42q0 22 -9 42q-16 37 -81.5 53.5t-139.5 20.5h-31z" />
<glyph unicode="S" horiz-adv-x="872" d="M8 163q-6 30 13.5 60.5t72.5 55.5q109 53 230.5 69.5t244.5 28.5q-63 55 -147 115.5t-162 146.5q-41 45 -49 90q-3 15 -3 29q0 29 12 55q16 39 51.5 69.5t78.5 47.5t92 17q16 1 32 -1q67 -8 110 -59q4 -12 1 -21.5t-11.5 -14.5t-17.5 -3t-17 12q-17 27 -57 32 q-11 1 -23 1q-27 -1 -55 -9q-38 -12 -68.5 -41.5t-32.5 -70.5q0 -41 51.5 -94t121 -105.5t139 -99.5t104.5 -78q12 2 31.5 3t35.5 5q25 4 30 -12t-21 -26q-6 -2 -18.5 -4.5t-18.5 -2.5q37 -51 50 -106q4 -17 4 -34q0 -40 -21 -85q-31 -61 -115 -93t-188 -39q-33 -2 -66 -2 q-72 1 -146 11q-106 16 -178 51q-35 18 -59.5 45t-30.5 57zM76 173q6 -38 78 -73q47 -23 111.5 -36t133.5 -15q90 6 159.5 32t98.5 73q9 28 9 54q0 22 -7 43q-14 44 -51 85q-121 -12 -243.5 -28.5t-221.5 -63.5q-67 -31 -67 -66v-5z" />
<glyph unicode="T" horiz-adv-x="958" d="M29 211q-10 23 7 34t36 -9q39 -72 116.5 -120t158.5 -58q19 -2 37 -3q60 0 112 26q68 34 90 126q14 55 14 111q0 16 -1 32q-5 72 -16.5 144.5t-20.5 145.5q-5 39 -5 76q0 33 4 66q-49 -20 -109.5 -46.5t-121 -49t-115.5 -32.5q-24 -4 -44 -5q-28 0 -50 8q-66 23 -75 62 q-3 11 -3 22q1 28 17 56q22 39 67 70.5t90 41.5q53 10 107 11q20 0 40 -2q74 -5 149 -20t152.5 -32.5t155.5 -25.5q47 4 88 14q23 0 28 -17.5t-13 -31.5q-58 -17 -116 -17h-7q-54 0 -107 9q-11 -51 -11 -102q0 -26 3 -51q8 -77 19.5 -153.5t17.5 -151.5q2 -19 1 -37 q0 -56 -13 -109q-14 -51 -46 -88t-75 -59q-42 -22 -94 -32q-43 -8 -87 -8h-18q-104 0 -200.5 53.5t-161.5 151.5zM113.5 772.5q-9.5 -24.5 13.5 -49.5q24 -26 60 -26q10 1 22 3q51 10 102 29q61 23 122 50.5t108 47.5q-27 6 -59.5 14.5t-68.5 15.5q-35 7 -69 11q-22 3 -44 3 q-11 0 -21 -1q-31 -2 -67 -16t-62.5 -35.5t-36 -46z" />
<glyph unicode="U" horiz-adv-x="860" d="M8 860q8 31 35 43t60.5 11t65.5 -14t50 -34q23 -27 32 -78q9 -52 10 -116v-32q0 -50 -2 -104q-3 -72 -5 -138q-1 -34 -1 -66t1 -62q2 -60 14 -102q20 -63 72 -80q37 8 76 28.5t74.5 46t65.5 52.5t48 49q-12 98 -22.5 192.5t-14.5 192.5q0 35 -2 78q-1 29 -1 57v28 q1 42 7.5 78t18.5 58q14 20 35 13q41 -16 71.5 -64.5t48.5 -105.5q27 -79 27 -163q0 -26 -3 -53q-11 -112 -52 -217q0 -10 4 -30q12 -72 20.5 -121t16.5 -91t15 -80t18 -85q2 -12 -12.5 -25.5t-36 -20.5t-43 -4t-29.5 23v2q-23 63 -34 131t-24 144q-31 -37 -69.5 -67 t-80.5 -52.5t-84 -34.5t-79 -12q-88 0 -126 59.5t-46 148.5q-4 44 -4 93q0 50 4 102q8 106 11 196q1 16 1 31q0 71 -12 123q-14 62 -68 66q0 -2 -1 -3t-1 -3q-10 -23 -31.5 -18.5t-17.5 30.5zM686 647q2 -41 6 -86t10 -90q20 72 20 143q0 12 -1 25q-2 31 -10.5 78t-24.5 92 q-3 -36 -3 -76.5t3 -85.5z" />
<glyph unicode="V" horiz-adv-x="1142" d="M12 676q17 60 57 111t95 89.5t110 55.5q57 14 98.5 14t71 -8t49 -20.5t35.5 -22.5q70 -51 98.5 -141t45.5 -189q14 -90 29.5 -175t37 -155.5t50 -121t67.5 -68.5q27 20 47.5 85t34.5 155t23.5 197.5t16.5 213t10 200.5t7 163q6 27 29 23.5t20 -29.5q-2 -33 -3 -125 t-7 -210t-18 -247t-35 -236.5t-57.5 -178t-85.5 -72.5h-6q-54 0 -94 32q-42 34 -70.5 89t-48 121.5t-33.5 125.5q-44 -7 -100 -7q-24 0 -48 1q-86 4 -169 28.5t-151.5 69.5t-97.5 115q-15 34 -15 69q0 24 7 48zM86 657q-1 -12 -1 -23q-1 -43 17 -78q22 -44 63.5 -75.5 t94.5 -50t109.5 -28t110.5 -10.5h12q47 0 86 7q-18 92 -33 175t-33 147.5t-45 106.5t-68 57q-24 8 -49 8q-25 1 -51 -7q-53 -16 -99 -49.5t-78 -82t-36 -97.5z" />
<glyph unicode="W" horiz-adv-x="1353" d="M10 605q-1 7 -1 13q1 36 19 73q22 44 59.5 85t87.5 75t101 56q35 14 66 21q34 9 63 10q27 0 48 -10q43 -18 67.5 -57.5t33.5 -95.5t9 -113q0 -61 2 -128t6 -133.5t13.5 -127t23.5 -109.5q16 86 30.5 166t41.5 166q10 31 24.5 65.5t38.5 59.5q31 31 65 33h4q32 0 60 -20 q30 -22 56 -60.5t43 -90.5q14 -49 20 -72.5t11.5 -42t12.5 -42t23 -74.5q4 -14 11.5 -38t17.5 -51.5t22.5 -56t28.5 -49.5q29 43 40 121t12 173v48q0 73 -2 151q-3 104 -3 198q0 98 14.5 193t59.5 181q14 20 32.5 15.5t18.5 -29.5q-40 -90 -58 -172q-12 -59 -13 -129 q0 -28 2 -59q2 -61 6 -141.5t5 -164.5v-28q0 -70 -4 -138q-5 -82 -17.5 -148.5t-35 -108.5t-57.5 -46q-13 -2 -24 -2q-35 1 -61 19q-34 24 -55.5 64t-35.5 88t-27 89q-6 16 -18 72.5t-30.5 118t-40 110t-44.5 52.5q-31 -31 -49 -83t-30.5 -114.5t-20.5 -128t-18.5 -120 t-24.5 -91.5t-37 -43q-5 -1 -11 -1q-27 0 -49 34q-28 41 -49.5 108.5t-34 148.5t-14.5 152q-26 -10 -60 -14q-28 -3 -57 -3h-15q-38 1 -77.5 9t-76.5 21q-74 29 -109 66.5t-39 79.5zM78 587q16 -50 102 -83q33 -12 70 -20q36 -7 72 -9q10 -1 20 0q24 0 47 3q31 5 53 18 q0 45 1 81.5t1 71.5q1 21 1 39q0 38 -3 72q-4 52 -22.5 82t-54.5 36q-6 1 -13 2q-33 0 -84 -26q-49 -23 -101 -68t-79 -97q-17 -32 -17 -64q1 -19 7 -38z" />
<glyph unicode="X" horiz-adv-x="1099" d="M8 561q2 39 13.5 86t35 91t56 79t77.5 47q36 10 69 10q56 0 105 -29q78 -46 123 -143q18 -43 59.5 -126.5t90.5 -176.5q55 113 98 222.5t66 201.5q4 12 16 16.5t25.5 2.5t24 -10.5t7.5 -20.5q-25 -111 -77 -234.5t-121 -248.5q23 -43 45 -84t45 -76q61 -100 121 -119 q55 16 107.5 81t105.5 155q14 27 27.5 57.5t21.5 54.5q12 27 29.5 21t17.5 -33q-12 -41 -36.5 -94t-59.5 -109q-37 -55 -84 -104q-46 -48 -100 -72q-34 -15 -70 -15q-20 0 -42 5q-58 14 -116 86q-23 27 -42 57.5t-42 65.5q-70 -113 -144.5 -211t-146.5 -176 q-8 -10 -18 -10.5t-16.5 5t-8.5 14.5t6 19q72 78 147 188.5t144 233.5q-35 57 -65.5 119t-58 117t-49 101t-34.5 75q-29 61 -59.5 98t-64.5 41q-7 1 -14 1q-34 0 -62 -24q-33 -30 -54.5 -73t-34 -90t-14.5 -76q-10 -23 -27.5 -20.5t-21.5 24.5z" />
<glyph unicode="Y" horiz-adv-x="1083" d="M8 655q4 88 35 144.5t78 83.5h-2q46 24 99 24q3 0 6 -1q57 -1 108 -30.5t89 -86t48 -138.5q10 -76 22.5 -164t26.5 -167.5t30.5 -141t37.5 -82.5q78 27 139 88.5t106 145.5q-6 25 -18 70.5t-23.5 101t-19.5 117t-8 117t12 100.5t43 71q31 27 69 27q9 0 18 -2 q48 -8 75 -35q27 -29 33 -72q4 -26 4 -52q0 -18 -2 -36q-4 -45 -13.5 -84t-15.5 -57q-10 -37 -23.5 -78t-29.5 -82q14 -82 25.5 -139t18.5 -99t12 -75t9 -66l7 2q23 0 27.5 -18t-15.5 -31l-12 -4q4 -68 6 -152v-19q0 -73 -14 -145q-15 -81 -55 -149.5t-118 -107.5 q-25 -12 -63.5 -19.5t-81.5 -9.5q-17 -1 -34 -1q-26 0 -51 2q-42 3 -73 11q-61 12 -119.5 40t-101.5 65t-65 83q-18 35 -18 71q0 12 2 23q7 48 51 99t137 99q109 57 232.5 82.5t246.5 54.5q-8 59 -18.5 116.5t-20.5 110.5q-27 -41 -55.5 -78t-61.5 -65q-14 -12 -45 -35 t-66.5 -40t-70.5 -21.5t-55 18.5q-47 51 -70 134t-37 175q-38 -16 -79 -16q-26 0 -53 6q-69 18 -124 64.5t-90 113.5q-31 61 -31 124v15zM66 655v-8q0 -51 24 -103q27 -57 72 -96.5t101 -55.5q23 -7 46 -7q34 0 70 14l-31 250q-10 96 -55 147.5t-94 54.5h-6q-45 0 -84 -45 q-41 -48 -43 -151zM290 -345q11 -52 59 -98t113.5 -73t137.5 -31h16q63 0 113 27q55 29 90 82t53.5 120.5t21.5 145.5q1 21 1 43q0 56 -6 113q-98 -16 -212 -43t-218 -74q-106 -47 -143 -103q-29 -44 -29 -85q0 -12 3 -24zM897 752q0 -43 1 -72t3 -52.5t5 -45t7 -50.5 q16 41 25 76q10 33 19.5 77t10.5 82v7q0 33 -10 58q-10 28 -36 30q-8 0 -13.5 -15.5t-7.5 -34.5t-3 -37.5t-1 -22.5z" />
<glyph unicode="Z" horiz-adv-x="753" d="M7.5 857q-3.5 20 31.5 20q35 -6 68.5 -21.5t62.5 -38.5q31 35 61.5 56.5t59.5 33.5q42 14 86 14q17 0 35 -2q62 -8 114 -38.5t90.5 -77.5t55.5 -105q16 -60 18 -126v-15q0 -59 -13 -119q-15 -68 -49 -135t-87 -125q39 -25 74.5 -62.5t59 -85.5t31.5 -106q2 -18 2 -37 q0 -43 -12 -90q94 -10 181.5 -27.5t173.5 -21.5q57 4 114.5 17.5t116.5 44.5q25 0 30 -18.5t-14 -31.5q-86 -41 -166 -54q-61 -10 -120 -10q-18 0 -37 1q-78 4 -154 19.5t-155 27.5q-27 -41 -65 -70.5t-83 -52.5q-27 -12 -69.5 -24.5t-88.5 -15.5q-10 -1 -20 -1q-35 0 -66 8 q-41 10 -61 45q-11 17 -11 37q0 16 7 33q16 39 88 74q53 27 123 33q28 2 56 2q43 0 89 -5q22 45 22 90q1 36 -13 72q-30 82 -103 142q-16 -14 -52 -32t-80 -33q-44 -14 -91 -24q-36 -7 -67 -8q-10 0 -20 1q-40 3 -70 21.5t-36 59.5q-3 13 -3 24q0 43 36 69q46 33 110 43 q36 6 71 6q29 0 59 -4q66 -8 100 -27q45 45 73.5 100t44.5 115q15 60 16 118v12q0 51 -7 99q-12 72 -47 125t-82 77q-29 15 -62 15q-20 0 -40 -6q-56 -14 -111 -80q37 -35 67.5 -76.5t52 -86t32 -86t10.5 -78.5q-4 -45 -31 -82t-65.5 -57.5t-83.5 -20.5t-84 29 q-45 31 -59 84q-10 36 -10 76q0 20 2 40q7 62 31.5 126.5t59.5 117.5q-18 16 -40.5 29.5t-67.5 33.5q-16 6 -19.5 26zM92 437q8 -50 47 -81q23 -16 44.5 -13t37 18.5t24.5 38t9 46.5q1 10 1 21q-1 61 -21 126q-24 77 -64 134q-23 -31 -44.5 -81t-31.5 -104q-6 -30 -6 -60 q0 -23 4 -45zM104 104q10 -38 52 -38h2q40 0 86 17q47 17 89 43t58 42q-25 16 -77 22q-20 2 -41 2q-31 0 -61 -6q-50 -8 -84 -28q-26 -16 -27 -40q1 -6 3 -14zM261 -344q7 -16 34 -24q9 -2 19 -2q21 0 48 10q43 16 90.5 46.5t79.5 71.5q-51 0 -105 -4t-99 -20 q-43 -16 -58.5 -39t-8.5 -39z" />
<glyph unicode="[" horiz-adv-x="344" d="M50 656.5q-1 76.5 0 142t3 110.5t4 58q8 35 21.5 48t42.5 17q12 2 35.5 2t49 -1t53 -2t50.5 1q12 0 19.5 -7t8.5 -16.5t-5 -16.5t-19 -9q-47 -6 -86 -3t-55 -7q-2 -8 -5 -68.5t-4 -149.5t0 -197.5t5 -215t12 -200t21 -150.5q18 -23 62 -12.5t128 32.5q23 0 28 -18.5 t-16 -30.5q-117 -35 -186.5 -40t-85.5 5q-18 10 -31.5 34t-21.5 66t-14.5 104.5t-8.5 152.5q-2 31 -3 91t-1 132t-1 148.5z" />
<glyph unicode="\" horiz-adv-x="417" d="M12 963q2 12 17.5 20t35 10t37 -3t21.5 -19q25 -96 61.5 -233.5t75.5 -283t77 -279.5t66 -222q2 -12 -13 -20.5t-34.5 -9.5t-37 3t-23.5 15q-82 242 -149.5 503t-133.5 519z" />
<glyph unicode="]" horiz-adv-x="315" d="M-75 -60.5q1 9.5 8.5 16.5t19.5 7q27 0 46 -3t35.5 -3t35 4t45.5 14q8 10 15 54.5t11 111t7.5 150.5t4.5 173t2 180t1 173q0 53 -1 86t-3 51.5t-9.5 25.5t-19.5 9q-14 2 -32.5 2t-57.5 -4q-25 4 -24.5 24.5t20.5 26.5q39 4 91 5t73 -1q29 -2 44 -12t21 -34.5t8 -64.5 t2 -102q-4 -209 -6 -342t-4 -212.5t-3 -118.5t-3 -58q-6 -72 -12.5 -115.5t-24.5 -62.5q-29 -25 -92.5 -18.5t-173.5 12.5q-12 2 -18.5 9t-5.5 16.5z" />
<glyph unicode="^" horiz-adv-x="356" d="M25 608q2 14 11 46t22.5 70t29 75.5t31.5 64.5q20 35 36.5 34t32.5 -24q12 -18 31 -50.5t37 -67.5t36.5 -70t35.5 -55q14 -23 -2.5 -37t-34.5 4q-6 6 -18.5 23.5t-28 41t-31.5 48t-31 47.5q-16 -45 -28.5 -89t-18.5 -67q-4 -10 -21.5 -17t-37 -9.5t-35.5 5t-16 27.5z" />
<glyph unicode="_" horiz-adv-x="399" d="M29 41q0 12 7 22.5t19 10.5q78 -2 152 -5t143 -6q12 0 20.5 -7t9.5 -15t-5 -16.5t-19 -10.5q-39 -2 -72.5 -4t-67.5 -3t-74 -2t-91 -1q-12 2 -17 13.5t-5 23.5z" />
<glyph unicode="`" horiz-adv-x="219" d="M29 759.5q4 12.5 15 20.5t25.5 10.5t24.5 -6.5q29 -35 54.5 -76.5t37.5 -62.5q12 -23 -2 -37t-32 4q-27 27 -54.5 56.5t-62.5 70.5q-10 8 -6 20.5z" />
<glyph unicode="a" d="M14 188q-1 16 -1 33q0 37 6 79q9 60 38 120q14 31 36 54.5t48.5 37.5t53 19.5t51.5 -1.5q31 -6 57.5 -19t46 -29.5t31.5 -33t14 -26.5q0 -12 -10 -23q2 -35 8 -77.5t15.5 -83.5t23.5 -75t35 -50q43 23 73.5 71.5t59.5 100.5q16 29 28.5 58.5t20.5 53.5q14 27 30.5 21 t16.5 -33q-10 -41 -35.5 -92t-60.5 -109q-37 -57 -75 -96t-85 -39q-53 0 -93 50.5t-66 127.5q-29 -57 -64 -98q-29 -35 -65 -61q-25 -17 -49 -17q-11 0 -23 4q-27 8 -44.5 44.5t-21.5 88.5zM134 238q1 -50 7 -91q49 86 72 163t43 155l-7 7t-7 5q-41 -18 -64.5 -57t-33.5 -86 q-10 -43 -10 -88v-8z" />
<glyph unicode="b" horiz-adv-x="503" d="M27 117.5q-4 19.5 0 36t22 22.5q-8 63 -11 129t-3 137v137.5t7 179.5t23.5 177t47.5 131q25 37 52.5 46t52 -1t44 -34.5t25.5 -57.5q4 -28 4 -58q0 -28 -4 -60q-8 -64 -27.5 -130.5t-47.5 -135.5t-56 -134v-97.5t2 -39.5q30 41 70 67q35 23 78 24q7 0 13 -1q59 -6 87 -40 t31 -79v-12q-1 -39 -17 -81q-20 -48 -51 -81q-68 -68 -181 -103l7 -43q0 -18 -17.5 -28.5t-40 -12.5t-42 3.5t-21.5 17.5q-2 4 -2 12l-9 49q-12 6 -22 23.5t-14 37zM158 629q35 82 57.5 156.5t26.5 146.5q1 14 1 27q0 49 -18 79q-12 -23 -22 -57.5t-17.5 -68t-11.5 -61.5 t-6 -38q-4 -45 -7 -91t-3 -93zM178 133q23 14 44.5 29.5t39.5 38.5q23 27 37 56.5t17 58t-8 52t-38 35.5q-27 -14 -44 -44.5t-27.5 -68.5t-15.5 -78t-5 -73v-6z" />
<glyph unicode="c" horiz-adv-x="446" d="M8 219v12q0 26 6 62q8 45 24.5 88t42 77t60.5 42q8 2 17 2q28 0 51 -26q31 -34 39 -101q0 -12 -7.5 -19.5t-16.5 -7.5t-17 6t-10 19q-4 27 -9 41q-29 -38 -42 -94q-11 -48 -11 -86v-11q4 -82 25.5 -125t56.5 -53q47 12 91 52t80 92.5t63.5 107.5t42.5 100q14 27 34.5 20 t12.5 -32q-23 -68 -61 -141.5t-88 -133.5q-50 -58 -110 -94q-52 -30 -107 -31q-9 0 -19 1q-61 8 -103.5 65.5t-44.5 167.5z" />
<glyph unicode="d" horiz-adv-x="632" d="M11 228q1 60 16.5 113.5t42 93.5t65.5 52q23 6 58.5 -6t68.5 -37q10 123 21.5 242t31.5 197q2 14 22.5 21t42 5t40 -10t18.5 -20q0 -66 -5 -137.5t-10 -145.5t-7 -148v-36q0 -55 4 -109q6 -59 20.5 -125.5t38.5 -99.5q23 18 47.5 48t46 61.5t38 58t22.5 39.5 q14 29 27.5 58.5t21.5 53.5q14 27 30.5 21t16.5 -33q-10 -41 -35.5 -94t-60.5 -109q-12 -18 -38 -52t-57 -66q-32 -30 -67 -50q-25 -14 -47 -14q-9 0 -18 2q-31 8 -54.5 62.5t-38.5 117.5q-16 -35 -36.5 -66.5t-42 -57t-43 -41t-41.5 -15.5q-49 0 -80 33q-32 33 -46 83 q-14 47 -13 102v8zM141 251q-1 -17 -1 -34q0 -37 6 -71q8 -50 30 -74q16 18 28.5 52t22 77t16.5 90t13 94l-21.5 21.5t-25.5 15.5q-29 -20 -46.5 -68.5t-21.5 -102.5z" />
<glyph unicode="e" horiz-adv-x="444" d="M25 242v18q0 46 8 90q12 72 40.5 112t62.5 53q20 8 40 8l28 -4q34 -9 55.5 -36.5t25.5 -70.5q1 -6 1 -13q0 -38 -20 -84q-18 -41 -48 -80.5t-60 -66.5q4 -29 18 -61.5t45 -43.5q35 10 70 35t63.5 57.5t52 66.5t37.5 63t27.5 58.5t22.5 53.5q14 27 30.5 21t16.5 -33 q-10 -41 -36 -94.5t-61 -108.5q-23 -35 -58.5 -71.5t-77.5 -64.5t-89 -40q-20 -5 -40 -5q-26 0 -52 9q-33 12 -55.5 46t-33.5 82t-13 104zM154 231q18 20 36.5 47t32.5 58q12 27 12 51q0 9 -2 17q-6 32 -24 51q-18 -18 -29.5 -46t-17.5 -59t-7 -61.5t-1 -57.5z" />
<glyph unicode="f" horiz-adv-x="423" d="M25 394.5q0 99.5 6 199.5t17 195.5t31.5 167t51.5 111.5q27 35 63 35q5 0 11 -1q51 -8 75.5 -46t27.5 -94q1 -9 1 -20q0 -47 -12 -104q-14 -70 -36.5 -140.5t-52.5 -139.5t-56 -122q-4 -76 -4.5 -145.5t-0.5 -124.5q113 2 197 52t127 179q10 23 27.5 18t19.5 -30 q-35 -125 -103.5 -190.5t-162.5 -90.5q49 -39 78.5 -104.5t41.5 -143.5q11 -62 11 -126q0 -16 -1 -31q-3 -80 -21.5 -145.5t-51.5 -109.5t-78 -48h-7q-42 0 -74 48q-33 52 -54.5 135t-34 183.5t-19.5 193.5t-9 163.5t-4 93.5q-4 82 -4 181.5zM150 90q2 -80 11 -175 t23.5 -183t33.5 -158.5t46 -103.5q29 29 46.5 83t21.5 119q1 20 1 41q0 45 -5 91q-9 69 -30.5 128.5t-56 102.5t-83.5 55h-8zM160 569q25 55 49 122t39 131q17 69 17 123q0 49 -19 79q-35 -72 -56.5 -196t-29.5 -259z" />
<glyph unicode="g" horiz-adv-x="559" d="M-70 -500q-5 19 -5 39q0 27 9 57q17 50 50.5 101t82 102t98.5 98.5t99 88.5t88 73q-16 57 -26.5 105.5t-26.5 114.5q-8 -20 -28.5 -50t-46 -58t-56.5 -45t-57 -13q-27 6 -46.5 29.5t-29.5 58.5t-10 76.5t12 84.5q14 53 39.5 86t57.5 48q24 10 48 10q8 0 16 -1 q33 -5 64 -26l-2 66q0 12 17.5 17t39 4t41 -7t25.5 -18q4 -90 23.5 -189.5t48.5 -204.5q51 49 84.5 104.5t68.5 145.5q12 20 30.5 16.5t18.5 -28.5q-23 -55 -44 -96t-42.5 -75t-46 -61.5t-55.5 -56.5q33 -117 61.5 -227.5t36.5 -206.5q2 -26 2 -50q0 -73 -23 -126 q-30 -70 -81 -107q-47 -35 -130 -44q-32 -3 -64 -3q-51 0 -103 8q-84 15 -151.5 55t-86.5 105zM10 -410q-5 -21 -5 -41q0 -39 21 -71q31 -49 101 -78q60 -17 109 -17q78 0 128 43q78 65 78 211v15q-4 92 -25.5 180t-47.5 178l-23 -18q-49 -43 -104.5 -94.5t-102.5 -105.5 t-81.5 -106.5t-47.5 -95.5zM149 269q1 -48 19 -76q18 18 34.5 46.5t30 58.5t23.5 58.5t16 46.5q-12 12 -25.5 23.5t-27.5 19.5q-35 -20 -61 -96q-9 -30 -9 -72v-9z" />
<glyph unicode="h" horiz-adv-x="671" d="M18 662q2 110 17.5 201t46.5 156.5t84 88.5q17 7 33 7q29 1 56 -23q42 -36 48 -109q2 -16 2 -34q0 -35 -8 -77q-12 -62 -34.5 -128t-51.5 -134.5t-59 -130.5q2 -55 4 -101t6 -85q33 70 60.5 115t53.5 63q14 9 39 15q9 2 22 3q21 0 50 -6t47.5 -54t32.5 -111.5t26.5 -130 t30.5 -105.5q23 18 46.5 48t44 60.5t36 56t21.5 38.5q12 29 26.5 58.5t22.5 53.5q14 27 30.5 21t16.5 -33q-10 -41 -35.5 -94t-60.5 -109q-12 -18 -37 -51t-55 -63q-31 -32 -66 -50q-24 -13 -46 -12q-10 0 -19 2q-6 0 -13 6q-2 0 -9 11.5t-15 23.5q-16 31 -31.5 91.5 t-29 122t-27 107.5t-21.5 46q-10 0 -30.5 -32t-40.5 -84q-18 -52 -32 -120q-10 -53 -11 -108q0 -16 1 -33v-2q0 -12 -19 -20.5t-43 -9.5t-43 6t-22 24q-2 6 -2 20q-10 76 -21 177q-12 102 -18 210q-5 83 -4 167v51zM145 592q29 61 54.5 125.5t41 124t15.5 107.5t-20 79l-5 4 q-25 -25 -49 -86q-23 -78 -31 -158q-6 -64 -6 -126v-31v-39z" />
<glyph unicode="i" horiz-adv-x="348" d="M45 309v73t4 105q2 18 22.5 25.5t43 5.5t41 -12t18.5 -23q0 -18 -1 -63t-3 -98q2 -29 4 -63t6 -66.5t10 -62.5t11 -48q23 20 46 50t43.5 59.5t36 55t21.5 38.5q12 29 26.5 58.5t22.5 53.5q12 27 29.5 21t17.5 -33q-10 -41 -35.5 -94t-60.5 -109q-12 -18 -37.5 -53 t-57.5 -65q-33 -32 -67 -52q-23 -14 -44 -13q-11 0 -21 3q-25 6 -40 43t-23.5 84t-10.5 96t-2 84zM66 670q-2 14 8 24.5t26.5 15.5t36 0.5t33.5 -18.5q18 -18 6 -31.5t-35.5 -18.5t-47 1t-27.5 27z" />
<glyph unicode="j" horiz-adv-x="380" d="M-118 -452q-1 8 -1 16q0 47 27 98q29 53 78 113.5t108 140.5q-10 55 -19 130t-17.5 154t-12.5 152q-3 50 -3 89q0 20 1 38q0 6 4 10q0 2 2 5l2 2q8 8 26.5 10t37 0t34 -9.5t17.5 -15.5q2 -90 12 -210.5t27 -243.5q72 86 130 174t95 196q12 27 29.5 21t17.5 -33 q-35 -117 -106.5 -222.5t-155.5 -197.5q6 -39 14.5 -95t16.5 -118.5t14 -127t8 -118.5q1 -21 1 -40q0 -29 -2 -52q-3 -39 -15 -51q-31 -35 -77 -43q-18 -3 -35 -3q-29 0 -59 8q-48 13 -93 46t-73 78t-33 99zM-54 -480q19 -57 57 -91.5t80 -44.5q10 -2 19 -2q27 0 39 22 q10 20 11 68v6q0 45 -6 102q-7 62 -18 131.5t-22 136.5q-41 -49 -77.5 -101t-65.5 -107q-23 -41 -23 -80q0 -20 6 -40zM55 633q4 14 30 23.5t54 -1.5q31 -12 14.5 -35.5t-57.5 -27.5q-29 4 -37 16.5t-4 24.5z" />
<glyph unicode="k" horiz-adv-x="618" d="M13 830q1 102 17.5 193t59.5 151q18 25 46 28.5t56.5 -7.5t51 -32.5t30.5 -48.5q10 -41 10 -96v-24q-2 -70 -19 -151t-44.5 -169t-62.5 -172q4 -53 10 -101.5t14 -89.5q55 70 111.5 139t101.5 130q12 16 33 10t10 -29q-29 -59 -64.5 -116.5t-78.5 -133.5q32 8 62 8 q9 0 19 -1q40 -3 62 -15q35 -18 60.5 -62t48 -99.5t44 -113t46.5 -105.5q25 -49 55 -79q29 -29 67 -28h5l37 14q23 0 28 -18.5t-16 -30.5q-23 -6 -44 -15.5t-44 -9.5q-47 0 -85 30t-68.5 76t-56.5 102t-50.5 111.5t-50 101.5t-54.5 73q-14 12 -42.5 8t-61.5 -18l-47 -93 q6 -41 8 -72.5t2 -49.5q0 -12 -17.5 -22.5t-39 -14.5t-41 -1t-21.5 17l-12 96q-12 -10 -18 -12l-9 -4q-16 -2 -25 7t-7 26q10 23 21 45t24 43l-33 241q-9 80 -19 182q-9 92 -9 183v19zM143 783q0 -85 7 -171q20 59 37.5 126t29.5 131.5t15 122.5q1 14 1 27q0 43 -8 77 q-6 18 -28 34q-18 -18 -30.5 -69t-18 -122t-5.5 -156z" />
<glyph unicode="l" horiz-adv-x="385" d="M16 592q0 92 6.5 177t23.5 153.5t46 116.5t74 67q17 7 33 7q29 -1 56 -23q42 -36 48 -107q2 -16 2 -35q0 -38 -8 -84q-12 -70 -35.5 -146.5t-54.5 -152.5t-62 -137q8 -150 33 -234.5t49 -119.5q23 16 48.5 47t48 62.5t39 60t22.5 41.5q14 29 27.5 58.5t21.5 53.5 q14 27 30.5 21t16.5 -33q-10 -41 -35.5 -94t-60.5 -109q-12 -18 -37.5 -52t-57.5 -66q-32 -30 -67 -50q-25 -14 -47 -14q-9 0 -18 2q-12 4 -28.5 21.5t-25.5 35.5q-29 47 -46 124t-26 157t-12.5 148.5t-3.5 103.5zM143 545q29 61 55 133q24 72 40 140q17 72 17 128 q0 54 -24 86q-35 -35 -52 -95t-24.5 -131t-9.5 -140.5t-2 -120.5z" />
<glyph unicode="m" horiz-adv-x="962" d="M46 274l2 112v38q0 39 -1 80v6q4 23 26.5 20.5t22.5 -26.5q0 -74 1 -147.5t3 -145.5q2 10 7.5 21.5t9.5 21.5q14 41 24.5 72.5t26.5 68.5q-2 -37 -2 -73t2 -72l-68 -139q-10 98 -29.5 193t-23.5 200v8q2 16 21.5 21.5t42 3.5t41 -11.5t18.5 -21.5q0 -27 -1 -53.5 t-1 -53.5q31 66 55 95l10 8q12 12 23 14q27 10 54.5 6t37.5 -8l6 -6l6 -6q25 -23 40.5 -66t26.5 -94t22.5 -106.5t27.5 -100.5q16 45 27.5 90t24 90t26.5 90.5t39 88.5q2 4 3 7t5 7l8 10q12 10 29.5 12t34 0t30 -8t19.5 -12q14 -33 25.5 -86t24.5 -108.5t30.5 -103.5 t42.5 -73q16 10 31.5 24.5t29.5 31.5q20 29 34.5 54t21.5 38q12 29 26.5 58.5t22.5 53.5q12 27 29.5 21t17.5 -33q-10 -41 -36 -94t-60 -109q-8 -12 -21.5 -29.5t-30.5 -33.5q-53 -53 -99 -59q-6 -1 -11 0q-40 0 -73 35q-38 40 -64.5 121t-38.5 200q-16 -41 -29.5 -91.5 t-28 -100.5t-31 -96t-36.5 -77q-20 -29 -54 -30t-47 16q-23 25 -37 60.5t-25 77.5t-21.5 87t-20.5 86l-10 35q-4 18 -10.5 35.5t-14.5 32.5q-23 -8 -39 -63.5t-30.5 -123t-25.5 -131t-20 -84.5q-10 -16 -42.5 -17t-43.5 15q-10 57 -12 113q-1 38 -1 76v38z" />
<glyph unicode="n" horiz-adv-x="669" d="M45 416v22.5t1 35t4 33.5t9 19q14 8 34 10.5t38.5 -2t32.5 -12.5t14 -16q-4 -60 -7 -116q-1 -24 -1 -48q0 -33 2 -66q20 61 50 119t69 76q29 17 57 17q6 0 12 -1q34 -4 50 -10q31 -12 47 -62t27.5 -111.5t20.5 -119t25 -86.5q16 12 25 21q39 43 71.5 94t43.5 72 q12 29 26.5 58.5t22.5 53.5q12 27 29.5 21t17.5 -33q-10 -41 -35.5 -94t-60.5 -109q-10 -16 -32 -48t-50 -58q-35 -35 -64.5 -45.5t-52.5 -7.5q-27 2 -43 30.5t-28.5 70.5t-21.5 91t-16.5 92t-16.5 73t-21 36q-18 6 -36 -18.5t-33 -66.5t-29.5 -92.5t-25 -94.5t-16.5 -75.5 t-8 -33.5q-6 -10 -21.5 -16.5t-32 -7.5t-31.5 4t-19 20q-6 37 -11.5 85t-9.5 98t-5 101.5t-1 96.5z" />
<glyph unicode="o" horiz-adv-x="471" d="M35 338q6 62 32.5 112.5t77.5 73.5q23 0 27 -20q8 1 16 1q39 1 76 -23q45 -28 68 -70q20 -35 31.5 -75t11.5 -83q53 16 88 53t59 90q12 20 29.5 16.5t17.5 -28.5q-20 -63 -73.5 -115.5t-124.5 -68.5q-10 -51 -36 -93t-73 -61q-32 -14 -61 -14q-22 1 -42 9q-46 20 -76 66 t-42 107q-8 41 -8 82q0 21 2 41zM166 262q4 -57 23.5 -104t54.5 -64h2q31 12 48 38t25 61q-43 0 -82.5 18t-70.5 51zM188 416q-3 -16 -3 -31q0 -47 28 -84q37 -49 113 -53q-4 70 -39 120q-34 48 -94 48h-5z" />
<glyph unicode="p" horiz-adv-x="530" d="M20 -369q-3 34 -3 68q0 58 9 115q13 90 48 200l10 29l-12 88v21q-12 94 -20 190q-7 78 -7 157v38q0 8 6 14q8 12 26.5 14t38 -2t34 -13t18.5 -18q-1 -23 -1 -46q0 -46 3 -91q4 -67 10 -127q33 59 68 99.5t74 50.5q8 2 15 2q29 0 49 -26q24 -32 37 -78t15 -93v-18 q0 -33 -6 -51l-6 -17q45 37 70.5 82t33.5 66q14 29 28.5 58.5t21.5 53.5q14 27 30.5 21t16.5 -33q-10 -41 -37 -92t-60 -111q-16 -29 -44.5 -53.5t-64.5 -41.5t-74 -28.5t-75 -13.5h-33.5t-33.5 2q0 -2 2 -4q10 -78 15 -157t7 -158q0 -16 2 -58q1 -18 1 -35q0 -27 -2 -55 q-3 -47 -14 -87t-34 -48q-33 -12 -55.5 -11t-38.5 11q-31 10 -47 68.5t-21 117.5zM63 -314v-11q0 -99 33 -162q6 23 8 56.5t3.5 67t0 59t-1.5 32.5q0 49 -4 98l-8 98q0 -4 -1 -8t-1 -8q-27 -115 -29 -222zM126 -235.5q1 -0.5 3 4.5v6q-4 -10 -3 -10.5zM188 178l13 -86 q49 4 78 35q35 37 37 93q1 7 1 14q0 48 -16 90q-2 6 -4 11t-6 11q-16 -16 -31.5 -39.5t-28 -47t-22.5 -44t-16 -31.5z" />
<glyph unicode="q" horiz-adv-x="475" d="M-367.5 -94.5q-13.5 20.5 21.5 49.5q20 16 35.5 2t-0.5 -37h-2q10 -10 49 -16t83 -9.5t79.5 -5.5t40.5 -2q49 -4 123.5 -5t152.5 -9q0 33 2 76t5 86t6 85t8 77q-43 -37 -85 -37q-9 0 -19 2q-50 10 -79.5 52t-29.5 104.5t51 121.5q29 35 79 66t103 41q2 23 4 44t2 44v14 q0 12 18.5 18.5t42 5.5t43 -9.5t21.5 -26.5q0 -16 2 -39t-2 -59q20 -29 25 -43q6 -20 -8.5 -29.5t-28.5 0.5q-12 -143 -24.5 -295t-12.5 -303v-12q43 -10 84 -26.5t74.5 -43.5t56 -62.5t29.5 -82.5q1 -8 1 -17q0 -35 -19 -81q-25 -58 -67 -104t-95 -66q-20 -8 -40 -8 q-33 0 -65 22q-35 31 -51.5 80t-23.5 108t-7 123.5v124.5q-106 16 -213.5 17t-212.5 7q-8 2 -43 7.5t-67.5 17.5t-46 32.5zM146 310.5q-1 -25.5 6.5 -48t19.5 -37.5l10 13q10 16 19.5 43.5t17.5 59.5t14.5 63.5t12.5 56.5q-16 -10 -30.5 -19.5t-25.5 -23.5 q-23 -25 -33 -53.5t-11 -54zM338 -193v-120.5t6 -114.5t20.5 -92t43.5 -53q16 10 37.5 31.5t41 51t31.5 62.5t12 68q0 18 -8 41.5t-29.5 47t-58.5 45t-96 33.5z" />
<glyph unicode="r" horiz-adv-x="493" d="M12 283q-2 12 4 32q41 88 46.5 134.5t5.5 66.5q-14 27 10 33q6 6 22 2q27 -27 45 -39q29 -16 56.5 -24.5t50 -16.5t39 -19.5t22.5 -35.5q2 -14 2 -57.5t3.5 -94.5t12.5 -100t29 -76q23 14 43.5 41t38 56.5t31.5 56t23 43.5q14 29 28.5 58.5t22.5 53.5q12 27 28.5 21 t16.5 -33q-10 -41 -36 -94t-60 -109q-12 -18 -27.5 -39.5t-32.5 -44.5q-33 -47 -74 -65q-16 -10 -30 -13q-12 -3 -23 -3q-32 0 -61 21q-39 28 -51 105q-9 67 -11 131q0 18 -1 33q0 42 3 72q0 33 -11 47t-34 31l-12 6q-27 -80 -55.5 -121t-38.5 -55q-23 -16 -25 -4z" />
<glyph unicode="s" horiz-adv-x="430" d="M21.5 73.5q-9.5 20.5 23.5 43.5q23 12 61.5 28.5t81.5 36.5q-18 18 -48.5 46t-58.5 62q-29 34 -45 70q-9 20 -9 41q0 16 6 31q6 20 34.5 37.5t66.5 30t78 19.5q31 5 56 5h13q12 -4 16 -12t2 -17.5t-11 -15.5t-22 -4h-6q-63 -12 -90 -26.5t-31 -31t9.5 -33.5t31.5 -36 l109 -119q12 6 30.5 18.5t38 26t37 25.5t25.5 20q41 33 59 78q12 20 29.5 16.5t17.5 -28.5q-8 -27 -28.5 -54.5t-48 -53t-60.5 -48t-63 -39.5l24 -24q23 -29 32 -53.5t1 -49.5q-8 -33 -46 -47t-86 -15h-10q-43 0 -89 8q-52 9 -86.5 26.5t-44 38zM72 82q2 -10 26.5 -18.5 t55 -12.5t59.5 -1t41 18h2q12 16 -3 36.5t-28 36.5q-59 -23 -98 -36t-55 -23z" />
<glyph unicode="t" horiz-adv-x="352" d="M-82 633.5q-4 21.5 19 34.5l104 18q4 53 7 106.5t11 104.5v6q4 20 22.5 26.5t38 1.5t35 -16.5t15.5 -23.5q-4 -35 -7 -83t-5 -101q115 16 229 24q12 0 20.5 -7t9.5 -16.5t-5 -16.5t-19 -9q-84 -6 -138 -11t-99 -12q0 -82 3 -167.5t10 -162.5t19.5 -138.5t28.5 -92.5 q18 18 37.5 41t38 48.5t34 50t25.5 47.5q14 29 28.5 58.5t22.5 53.5q12 27 29 21t17 -33q-10 -41 -36 -94t-61 -109q-10 -16 -33.5 -48t-52 -61.5t-58.5 -49t-54 -13.5q-27 4 -43.5 42t-30.5 108q-23 96 -33 220q-7 89 -7 182q0 37 1 75l-92 -21q-27 -4 -31 17.5z" />
<glyph unicode="u" horiz-adv-x="614" d="M49 399q2 20 20.5 27.5t41 5.5t41 -10t20.5 -19q2 -25 4 -62.5t6 -78.5t11.5 -82t19.5 -74q20 37 34.5 89.5t26 104.5t17.5 96t10 67v4q0 2 1 4t1 4q6 14 26.5 17.5t42 -0.5t38 -12.5t18.5 -20.5q-4 -31 -5 -81v-25q0 -37 2 -79q3 -54 10 -102.5t22 -73.5q6 -14 14 -18 q23 16 46.5 45t43 59.5t33.5 58t20 42.5q14 29 28.5 58.5t21.5 53.5q14 27 30.5 21t16.5 -33q-10 -41 -36 -94.5t-61 -108.5q-12 -20 -31.5 -50t-45 -57.5t-55 -47t-60.5 -15.5q-41 4 -67.5 46t-41.5 89q-4 -16 -16 -38.5t-29.5 -44t-38 -38t-41.5 -18.5q-31 -4 -53 16.5 t-37.5 57.5t-25 83t-14.5 91t-7 83t-2 60z" />
<glyph unicode="v" horiz-adv-x="483" d="M37 422q-6 25 3 36t24.5 13t32 -2t26.5 -10q27 -16 49.5 -53t40.5 -84.5t34.5 -96.5t31.5 -90q10 27 20 58.5t24.5 74.5t33 98.5t46.5 127.5q25 72 63 132t85 115q18 14 33.5 4t3.5 -30q-57 -66 -93 -137.5t-63 -153.5q-27 -84 -42 -152.5t-24.5 -122t-16.5 -91.5 t-15 -60q-10 -23 -25.5 -31t-31 -7t-27.5 7t-14 13q-6 14 -15.5 41.5t-23 62.5t-29.5 75t-33 79q-39 70 -65.5 119t-30.5 61z" />
<glyph unicode="w" horiz-adv-x="696" d="M4 489q-4 25 13.5 35.5t40 10.5t44 -6.5t27.5 -16.5q29 -53 47.5 -131t28.5 -150q23 53 50.5 105.5t53.5 77.5q19 19 40 19q9 -1 21 -5q32 -14 64.5 -51t62 -88t52.5 -96q6 141 40 286.5t105 272.5q16 20 33.5 15t15.5 -28q-39 -68 -70.5 -159t-47.5 -183 q-9 -66 -11 -129q-1 -38 -1 -72v-44v-33q0 -33 -1 -57q-2 -38 -14 -52q-6 -8 -14.5 -9t-18.5 -1q-29 10 -52.5 42t-43.5 72t-37.5 84t-34 81.5t-31 63.5t-28.5 28q-14 0 -34.5 -42t-42 -98.5t-41.5 -113t-32 -84.5q-10 -29 -29.5 -36.5t-37.5 15.5q-12 12 -18.5 62.5 t-15.5 116t-22.5 136t-39.5 124.5q-4 10 -10.5 20t-10.5 18z" />
<glyph unicode="x" horiz-adv-x="616" d="M-98 -218.5q0 11.5 14 21.5q94 78 169 156t134 174q-31 39 -59.5 83t-54 87t-48 81t-41.5 62q-4 6 -4 19q0 20 16.5 26.5t38 5.5t41 -9.5t25.5 -16.5q18 -27 56 -96.5t85 -141.5q23 47 40.5 97.5t31.5 107.5l12 56q6 27 22.5 36t33 5.5t30 -13.5t13.5 -22 q-23 -98 -56.5 -180t-74.5 -154q29 -35 59.5 -60.5t58.5 -29.5q6 2 19 10q41 35 83 89t70 110q14 29 28.5 58.5t23.5 53.5q12 27 29.5 21t17.5 -33q-12 -41 -38 -92.5t-61 -110.5q-23 -39 -55.5 -76.5t-71.5 -60.5q-45 -27 -86 -27q-15 0 -29 4q-54 14 -104 58 q-33 -47 -65 -82q-53 -70 -122 -127t-153 -111h-10l-8 4q-10 6 -10 17.5z" />
<glyph unicode="y" horiz-adv-x="655" d="M45 418q0 23 16.5 30t37 5t40 -11.5t27.5 -19.5q16 -45 41.5 -109.5t56.5 -103.5q12 18 22.5 48t17.5 62.5t12.5 67.5t7.5 66v14q6 18 25.5 24.5t41 4.5t38.5 -10.5t17 -16.5q0 -43 3.5 -96.5t7.5 -109.5t9 -111.5t11 -104.5q70 70 115 134.5t63 103.5q12 29 26.5 58.5 t23.5 53.5q12 27 29.5 21t17.5 -33q-12 -41 -36 -95t-61 -108q-45 -66 -85 -109.5t-83 -84.5v-2q18 -135 29.5 -232.5t13.5 -193.5q0 -45 -14 -84t-40.5 -69t-63.5 -45q-29 -12 -61 -12q-8 0 -17 1q-10 0 -20.5 2t-22.5 6l-17 6q-35 14 -77 45q-29 18 -52.5 44t-40 53.5 t-22.5 55t2 54.5q10 37 35.5 77t62.5 81t81 82t91 84l15 14q-4 23 -8.5 55.5t-8.5 67.5t-8 69.5t-6 59.5q-2 6 -2 20q-29 -55 -68 -83q-19 -14 -38 -14l-40 15q-53 43 -84.5 110t-50.5 120q-4 8 -5 15t-3 13q-4 10 -2 15zM158 -392q-2 -15 -2 -29q0 -41 24 -77 q33 -49 119 -94q33 -12 55.5 -3t37 31.5t19.5 56.5t5 75q-4 76 -13.5 155.5t-21.5 172.5l-45 -37q-72 -70 -119 -132.5t-59 -118.5z" />
<glyph unicode="z" horiz-adv-x="491" d="M37 360q10 33 22.5 68t27.5 65.5t34.5 54t42.5 34.5q32 13 61 13q11 0 22 -2q38 -7 50 -20q23 -24 22 -75q0 -52 -12 -116q-12 -62 -31.5 -128t-35.5 -117q30 10 60 10l22 -1q41 -5 61 -21q31 43 51.5 71.5t31.5 47t16 28t10 13.5q12 29 26 58.5t23 53.5q14 27 30.5 21 t16.5 -33q-10 -39 -34 -90t-56 -105q-16 -29 -32.5 -52t-33.5 -46q16 -18 24.5 -47t10.5 -59.5t0 -61t-8 -55.5q-16 -74 -51 -125t-77 -78.5t-83 -33.5q-10 -1 -20 -1q-28 1 -50 13q-28 16 -40 52q-4 13 -4 29q0 28 13 64q20 59 68.5 126t108.5 136q-24 28 -52 28 q-6 0 -13 -1q-36 -8 -62 -49q-6 -10 -23.5 -13.5t-37 -2.5t-35 8.5t-15.5 17.5q2 12 17.5 51t34 88t38 104.5t30.5 103.5q10 44 10 77v6q-1 35 -21 43q-23 8 -40.5 -12.5t-30.5 -49t-23.5 -59.5t-18.5 -43q-14 -20 -31.5 -17t-13.5 29zM195 -268.5q0 -16.5 9 -28.5t32 -14 q23 14 45 50t38.5 79t25.5 88q7 37 7 67v13q-39 -49 -73.5 -93.5t-63.5 -95.5q-8 -12 -14 -30.5t-6 -35z" />
<glyph unicode="{" horiz-adv-x="436" d="M26 359.5q-1 13.5 13 21.5q23 10 45 13t51 5q33 23 39 81.5t2 131t-9 147.5t5 130q12 59 57.5 94t143.5 33q12 -2 19 -10.5t7 -17.5t-6 -16t-18 -9q-20 0 -31 -2q-27 -14 -40 -35t-19 -47q-14 -55 -9 -124t10 -136.5t0 -129t-40 -104.5q37 -10 54 -41t23.5 -73t4.5 -89 t-6.5 -89t-7.5 -73.5t3 -42.5q10 -23 37 -28q12 2 22.5 4t20.5 2q27 -2 28 -24.5t-28 -24.5q-53 -8 -87 -8t-53 5t-27.5 13t-12.5 16q-14 29 -13 75t7 97.5t10 100.5t-4 84q-4 18 -18.5 35.5t-57.5 21.5q-49 -33 -98 -10q-16 10 -17 23.5z" />
<glyph unicode="|" horiz-adv-x="288" d="M75 688q-3 178 5 356q2 12 19.5 18.5t38 5.5t36.5 -8t16 -20q-8 -178 -5 -355t10.5 -355t15.5 -355.5t12 -355.5q0 -12 -16.5 -19.5t-36.5 -7.5t-37.5 6.5t-19.5 18.5q-4 180 -12.5 358.5t-15.5 356.5t-10 356z" />
<glyph unicode="}" horiz-adv-x="468" d="M7 -84.5q3 18.5 28 23.5q10 -4 20.5 -5.5t20.5 -3.5q39 8 52 36t14 67t-4 85t-3 90t18.5 82t61.5 62q-37 27 -50 69t-13 92t8 105.5t13 109.5t2 102.5t-25 82.5q-31 37 -70 43q-4 0 -6 -1t-6 -1q-25 2 -26 21.5t17 28.5q47 4 100.5 -2.5t82.5 -45.5q35 -45 43 -100 t3 -114.5t-15.5 -118t-10.5 -108.5t17.5 -87t68.5 -53q41 10 80 0q18 -8 18 -25.5t-24 -25.5q-53 -12 -90 0q-57 -12 -72.5 -56.5t-14.5 -100.5t5 -115.5t-10.5 -103.5t-62.5 -63.5t-150 2.5q-23 10 -20 28.5z" />
<glyph unicode="~" horiz-adv-x="415" d="M25 350q0 12 5 32.5t14 43.5t22.5 44.5t29.5 35.5q41 33 72 21.5t55.5 -40t47 -60.5t44.5 -40q12 16 18.5 41t10.5 47q4 23 21.5 23t21.5 -21q0 -59 -25.5 -106t-72.5 -49q-31 0 -56.5 22.5t-46 50t-35 50t-22.5 22.5t-16.5 -12.5t-16.5 -30.5t-14 -40t-8 -38 q-10 -20 -27.5 -19t-21.5 23z" />
<glyph unicode="&#xa1;" horiz-adv-x="339" d="M123 24q2 205 7 372t9 290q0 10 10.5 16t21.5 7t21.5 -4t12.5 -17q6 -127 13 -295t7 -373q-2 -12 -18.5 -18t-35 -5t-33.5 8t-15 19zM131 803.5q2 15.5 14 21.5t30 2t30 -27q8 -20 -11.5 -33.5t-46.5 1.5q-18 20 -16 35.5z" />
<glyph unicode="&#xa2;" horiz-adv-x="432" d="M48 435.5q-1 68.5 12.5 131t44 107.5t79.5 57l-2 143q2 12 13.5 18.5t24.5 5.5t23.5 -8t10.5 -20v-147q23 -16 40 -45t29.5 -62.5t18.5 -67.5t6 -56q-2 -27 -24.5 -27t-24.5 22q0 39 -12.5 81t-32.5 71q-2 -106 -3 -213t-1 -215q25 8 45 28.5t39 67.5q14 23 32.5 17.5 t16.5 -27.5q-23 -61 -57.5 -94t-75.5 -43v-148q0 -12 -7 -19t-16.5 -7t-17.5 6t-10 18l-4 146q-45 6 -78 48t-50.5 102.5t-18.5 129zM146 436.5q1 -57.5 12.5 -110t36.5 -84.5l-9 393q-20 -35 -30.5 -88t-9.5 -110.5z" />
<glyph unicode="&#xa3;" horiz-adv-x="745" d="M56.5 152q17.5 16 46 25t58 13.5t36.5 4.5q35 2 67.5 4t67.5 -2q-6 53 -17.5 105t-23.5 104q-39 -4 -77 -6.5t-79 -2.5q-10 2 -16 11.5t-6 20.5t4 22.5t14 15.5q37 0 74 -2t76 2q-14 72 -17.5 139.5t23.5 147.5q25 74 75 93t102 3t93 -61.5t47 -102.5q0 -23 -18.5 -26 t-30.5 16q-8 53 -34.5 86t-61.5 43q-29 -10 -51.5 -43t-32.5 -88q-8 -47 -3 -98.5t17 -104.5l201 18q12 0 20 -7t9.5 -16t-5 -16.5t-18.5 -9.5q-51 -4 -99 -11t-96 -11q10 -47 22.5 -94.5t18.5 -92.5q2 -10 3 -20t1 -21q57 -4 114.5 -10t115.5 -10q23 -4 22.5 -24.5 t-24.5 -24.5q-53 2 -110.5 8t-117.5 12q-4 -41 -20 -72.5t-57 -41.5q-12 -4 -37 -5.5t-51.5 0t-52 5.5t-44.5 10q-41 12 -75.5 31.5t-51.5 42.5q-18 25 -0.5 41zM109 123q16 -16 54 -30.5t77 -17.5t67.5 8t28.5 48v21q-59 2 -116.5 -4.5t-110.5 -24.5z" />
<glyph unicode="&#xa4;" horiz-adv-x="538" d="M51 104q10 29 25.5 60t36.5 69q-23 41 -28 93.5t-1 106.5t16.5 104.5t26.5 87.5q-14 29 -26.5 58.5t-24.5 57.5q-6 27 13.5 33t33.5 -16l47 -53q37 49 83 48t87 -28l33 76q16 18 33.5 10t13.5 -33l-37 -92q18 -25 24.5 -51.5t-8.5 -46.5q31 -90 37 -186.5t-22 -163.5 l69 -99q8 -12 6 -21t-10 -14.5t-18 -4.5t-19 12q-16 18 -29.5 37.5t-27.5 39.5q-47 -51 -107.5 -48t-107.5 44l-72 -100q-12 -20 -32.5 -13t-14.5 33zM191.5 425q-3.5 -81 22.5 -148.5t93 -83.5q49 14 66.5 76.5t12.5 141t-28.5 156.5t-56.5 125h-2q-8 -4 -12 -8 q-37 -31 -64.5 -104.5t-31 -154.5z" />
<glyph unicode="&#xa5;" horiz-adv-x="634" d="M51 786q-2 12 4 20.5t15.5 9.5t17.5 -4t12 -17q2 -18 35 -65.5t75 -101t81 -103.5t55 -74q14 135 22.5 263t22.5 244q4 14 21.5 17.5t36 -0.5t33 -13.5t14.5 -21.5l-37 -559l90 14q12 0 19 -7t8.5 -16.5t-5 -16.5t-18.5 -9l-96 -16l-6 -80l108 18q23 0 28 -18.5 t-16 -30.5l-122 -24l-13 -199q-6 -10 -21.5 -17.5t-34 -9.5t-34.5 3t-20 22q-2 6 0 14l12 168q-47 -10 -88 -19.5t-86 -13.5q-23 4 -25 32t19 38l186 23l4 73q-43 -8 -90 -17t-113 -20q-23 4 -24.5 33t20.5 39l197 21q-18 18 -64.5 76.5t-94.5 128t-86 131t-42 85.5z" />
<glyph unicode="&#xa6;" horiz-adv-x="350" d="M105 708.5q-2 155.5 6 311.5q2 12 19 18t37.5 5t37 -8t16.5 -19q-6 -158 -5 -312.5t5 -308.5q-2 -8 -18.5 -11t-36 -3t-36.5 5t-19 11q-4 156 -6 311.5zM119 274q0 10 16.5 15.5t37 5.5t36.5 -4t20 -10q8 -166 14.5 -318.5t10.5 -318.5q0 -12 -16.5 -19.5t-37 -7.5 t-38 6.5t-19.5 18.5q-4 162 -10 317.5t-14 314.5z" />
<glyph unicode="&#xa7;" horiz-adv-x="616" d="M51 119q-2 23 15.5 31t31.5 -11q18 -51 73.5 -77.5t117 -29.5t114 17.5t64.5 63.5q6 23 -23.5 47t-77 52t-103.5 58.5t-101 65.5t-73 75t-17 85q10 45 56 69.5t112 34.5q-37 20 -71 44t-58.5 50.5t-37 57t-5.5 65.5q8 43 62 70.5t119.5 35t127 -5t86.5 -45.5 q4 -23 -11.5 -33t-31.5 5q-10 16 -36 24.5t-58 10.5q-51 -4 -94.5 -22.5t-53.5 -51.5q-10 -37 25 -73t89 -69.5t112.5 -66.5t99.5 -66q49 -41 46 -77.5t-33 -66.5t-77 -48.5t-86 -24.5q51 -29 100.5 -61.5t77.5 -67.5q20 -25 23.5 -48t-4.5 -45.5t-25.5 -42t-38.5 -34.5 q-49 -27 -114.5 -34t-130 5.5t-116.5 45.5t-75 88zM184 455q10 -27 38 -52.5t63 -48.5q61 0 114.5 19.5t65.5 60.5q4 14 -10.5 31.5t-38 34t-51 32t-48.5 25.5q-61 -6 -105 -31.5t-28 -70.5z" />
<glyph unicode="&#xa8;" horiz-adv-x="247" d="M20 686v2q2 23 15.5 33t28 8t25.5 -13t11 -32q-4 -18 -15 -26.5t-24.5 -8.5t-25.5 9.5t-15 27.5zM155 693.5q3 13.5 12 21.5t22.5 10t25.5 -6q12 -16 9 -32.5t-13 -26t-24.5 -10.5t-24.5 16q-10 14 -7 27.5z" />
<glyph unicode="&#xa9;" horiz-adv-x="854" d="M39 284q-6 83 22 160q35 86 83.5 137.5t107.5 79t128.5 37t149.5 9.5q18 0 25.5 -13.5t-0.5 -23.5q53 -12 94 -43q47 -31 86 -86.5t56 -108.5q25 -96 1 -181t-84.5 -149.5t-150.5 -100.5t-199 -34q-96 2 -165.5 48t-108.5 116t-45 153zM150.5 368.5q-17.5 -85.5 8 -160.5 t91 -128t170.5 -64q102 6 183 59.5t121 132.5t28.5 171t-93.5 176q-37 39 -79.5 54.5t-90.5 19.5q-37 -2 -74.5 -6.5t-74.5 -6.5h-4q-53 -25 -107 -86q-61 -76 -78.5 -161.5zM249 296q7 42 37.5 81t73.5 67.5t76 32.5q18 -2 28.5 -16.5t11.5 -29.5t-6.5 -25.5t-23.5 -2.5 q-20 -12 -38.5 -30.5t-30.5 -38t-13.5 -37.5t13.5 -33q10 -10 29.5 -13t43 -1t48 7t43.5 11q25 0 28.5 -17.5t-16.5 -31.5q-61 -20 -135 -27.5t-133 33.5q-43 29 -36 71z" />
<glyph unicode="&#xab;" horiz-adv-x="442" d="M0 256q-2 25 17.5 72t48 100t60 103t56.5 81q23 16 37 1t-2 -35q-23 -33 -47.5 -81t-44 -96.5t-30.5 -88.5t-11 -52q4 -53 43 -101t113 -114q16 -18 2.5 -32.5t-35.5 -4.5q-29 27 -63.5 53.5t-65.5 56t-52.5 63.5t-25.5 75zM130 243q-1 40 12.5 84t38 88t49 83t47 69.5 t32.5 48.5q12 23 29.5 12.5t9.5 -32.5q-29 -57 -59.5 -112.5t-52 -104.5t-27.5 -93t18 -79q35 -51 75 -76t83 -61q16 -18 3 -32.5t-36 -4.5q-47 39 -100 65.5t-96 73.5q-25 31 -26 71z" />
<glyph unicode="&#xad;" horiz-adv-x="501" d="M127 405.5q0 14.5 7 26.5t20 12l295 -14q12 0 20 -7t9 -16.5t-5 -16.5t-18 -9l-303 -16q-12 2 -18.5 14t-6.5 26.5z" />
<glyph unicode="&#xae;" horiz-adv-x="854" d="M39 284q-6 83 22 160q35 86 83.5 137.5t107.5 79t128.5 37t149.5 9.5q18 0 25.5 -13.5t-0.5 -23.5q53 -12 94 -43q47 -31 86 -86.5t56 -108.5q25 -96 1 -181t-84.5 -149.5t-150.5 -100.5t-199 -34q-96 2 -165.5 48t-108.5 116t-45 153zM150.5 368.5q-17.5 -85.5 8 -160.5 t91 -128t170.5 -64q102 6 183 59.5t121 132.5t28.5 171t-93.5 176q-37 39 -79.5 54.5t-90.5 19.5q-37 -2 -74.5 -6.5t-74.5 -6.5h-4q-53 -25 -107 -86q-61 -76 -78.5 -161.5zM256 158q0 109 2 180.5t2 144.5q0 18 16.5 26.5t36 6.5t37 -11t21.5 -26v-14q43 37 102 31 q31 -2 56.5 -17.5t32.5 -43t-9 -65.5t-68 -85q47 -2 83 -8.5t69 -22.5q18 -14 12 -31.5t-28 -15.5q-25 12 -58 19t-68.5 10.5t-71.5 2.5t-65 -3l-14 -91q-6 -8 -19.5 -14t-27.5 -6t-26.5 7t-14.5 26zM367 305q39 27 71.5 63.5t32.5 75.5q-33 23 -53.5 0.5t-40.5 -65.5z" />
<glyph unicode="&#xaf;" horiz-adv-x="352" d="M24.5 674.5q-1.5 27.5 20.5 38.5q63 2 127 -2t127 -2q12 0 19.5 -7.5t8.5 -16.5t-5.5 -16t-18.5 -10q-63 -2 -125.5 -8t-128.5 -8q-23 4 -24.5 31.5z" />
<glyph unicode="&#xb0;" horiz-adv-x="274" d="M27 590q0 37 23.5 72t60.5 47q33 12 59.5 4t43.5 -29.5t26.5 -50.5t4.5 -56.5t-23.5 -50t-53.5 -30.5q-35 -6 -61.5 0t-44 20t-26.5 34.5t-9 39.5zM118 597q-1 -17 7 -31.5t27 -20.5q6 0 8 2q20 6 30.5 21.5t10.5 32.5t-12.5 33.5t-34.5 22.5q-16 -10 -25.5 -26.5 t-10.5 -33.5z" />
<glyph unicode="&#xb1;" horiz-adv-x="483" d="M25 526.5q0 12.5 7 21.5t19 9l137 -4q0 31 -1 53.5t-1 44v44v53.5q2 12 18.5 17t37 5t37 -5t18.5 -15v-54.5v-45t1 -45t1 -54.5l131 -2q27 0 29 -20.5t-25 -24.5l-133 -8l6 -183q0 -12 -16.5 -19t-37 -7t-37.5 6t-19 18l-7 183l-141 -5q-12 2 -18 13.5t-6 24zM66 233.5 q0 14.5 7 26.5t19 12l295 -14q12 0 20.5 -7t9.5 -16.5t-5 -16.5t-19 -9l-303 -16q-12 2 -18 14t-6 26.5z" />
<glyph unicode="&#xb4;" horiz-adv-x="249" d="M29 657q35 45 58 80t54 88q8 14 24.5 14.5t30 -8t20.5 -20.5t-1 -25q-37 -55 -80 -100t-72 -63q-18 -12 -31.5 2t-2.5 32z" />
<glyph unicode="&#xb5;" horiz-adv-x="860" d="M29 -346l22 874q2 20 20.5 27.5t40 4.5t39 -13t17.5 -23v-12q4 -31 19.5 -89t38 -120.5t51 -117t57.5 -76.5q31 25 55.5 83t45 121.5t36.5 117.5t27 73l2 2q6 18 21.5 23.5t32.5 3t32.5 -9.5t21.5 -15q14 -35 24.5 -92.5t23 -115.5t29.5 -106.5t46 -64.5q20 10 38.5 26.5 t35.5 37.5q20 29 34.5 54t20.5 38q12 29 26.5 58.5t22.5 53.5q12 27 29.5 21t17.5 -33q-12 -41 -36.5 -94t-59.5 -109q-8 -10 -18.5 -24.5t-24.5 -28.5q-111 -119 -190.5 -44t-102.5 316q-10 -31 -28.5 -90t-45 -118.5t-62.5 -105.5t-81 -48q-33 -2 -62.5 21.5t-54 62.5 t-45 85t-34.5 91l-31 -643q0 -12 -7 -19.5t-16.5 -7.5t-17.5 6.5t-10 18.5z" />
<glyph unicode="&#xb7;" horiz-adv-x="243" d="M123 315v4q2 20 14.5 28.5t24.5 6.5t22.5 -12t10.5 -29q-2 -16 -12.5 -23t-23 -7t-23.5 8t-13 24z" />
<glyph unicode="&#xb8;" horiz-adv-x="266" d="M29 -38q0 30 7 61.5l13 58.5q6 10 23.5 13t35 2t31 -8t13.5 -19q-2 -8 -6.5 -27.5t-8.5 -40t-5 -39t3 -26.5t16.5 -12.5t25.5 -8.5t27.5 -9t24.5 -18q20 -25 8 -48t-38.5 -42.5t-58 -33t-48.5 -15.5q-27 -4 -31 17.5t19 31.5q23 4 55.5 17.5t46.5 33.5q-18 14 -42.5 18.5 t-47.5 10.5q-37 8 -50 30.5t-13 52.5z" />
<glyph unicode="&#xbb;" horiz-adv-x="454" d="M18 37.5q13 -14.5 36 -4.5q47 39 100 65.5t96 73.5q25 31 26 71t-12.5 84t-38 88t-49 83t-47 69.5t-32.5 48.5q-12 23 -29.5 12.5t-9.5 -32.5q29 -57 59.5 -112.5t52 -104.5t27.5 -93t-18 -79q-35 -51 -75 -76t-83 -61q-16 -18 -3 -32.5zM163.5 12.5 q13.5 -14.5 35.5 -4.5q29 27 63.5 53.5t65.5 56t52.5 63.5t25.5 75q2 25 -17.5 72t-48 100t-60 103t-56.5 81q-23 16 -37 1t2 -35q23 -33 47.5 -81t44 -96.5t30.5 -88.5t11 -52q-4 -53 -43 -101t-113 -114q-16 -18 -2.5 -32.5z" />
<glyph unicode="&#xbf;" horiz-adv-x="391" d="M93 190q9 44 29.5 89t46 92t46 90t31 82t-0.5 67q-20 14 -13 34t30 7q33 -20 39 -59t-3.5 -88t-28.5 -103.5t-36.5 -104.5t-28 -93t-2.5 -68q6 -20 37 -25t99 5q12 2 20 -4t11 -15.5t1 -17.5t-12 -12q-27 -8 -65.5 -17.5t-78.5 -8.5t-73 15.5t-45 53.5q-12 37 -3 81z M217 762q0 14 14 22q12 6 23.5 2t17.5 -13t7 -20.5t-7 -21.5q-12 -10 -25.5 -7t-21.5 13.5t-8 24.5z" />
<glyph unicode="&#xc0;" horiz-adv-x="851" d="M6 301q0 16 4 31.5t15 19.5h81q14 78 33 158t39.5 153.5t45 135t55.5 104.5l2 2q18 29 43.5 36t50 3t46 -15t30.5 -20q29 -63 49 -129.5t36.5 -134t30 -135.5t29.5 -135q27 2 52.5 4t49.5 6q12 0 20.5 -7t9.5 -16.5t-5 -16.5t-18 -9q-25 -4 -48.5 -8t-48.5 -9 q14 -57 37 -118q2 -8 12.5 -28.5t22.5 -38t26.5 -27t26.5 3.5q41 45 75 98t44 76q14 29 27.5 58.5t21.5 53.5q14 27 30.5 21t16.5 -33q-10 -41 -35.5 -94t-60.5 -109q-29 -45 -68 -92t-82 -68.5t-85 -5t-76 100.5q-18 41 -32.5 87t-27.5 97q-158 -25 -311 -37l-41 -227 q-4 -10 -16.5 -15.5t-26.5 -4.5t-24.5 8.5t-10.5 19.5q10 43 19.5 97.5t19.5 115.5q-16 -2 -30.5 -3t-28.5 -1q-12 2 -18.5 16.5t-6.5 30.5zM184 352q68 2 139.5 5t143.5 8q-16 70 -26.5 132t-20.5 105q-8 33 -18.5 76t-21.5 83t-22.5 68.5t-21.5 30.5q-25 -10 -45.5 -56 t-39 -117t-35.5 -158t-32 -177zM271 1138.5q4 12.5 15 20.5t25.5 10.5t24.5 -6.5q29 -35 54.5 -76.5t37.5 -62.5q12 -23 -2 -37t-32 4q-27 27 -54.5 56.5t-62.5 70.5q-10 8 -6 20.5z" />
<glyph unicode="&#xc1;" horiz-adv-x="851" d="M6 301q0 16 4 31.5t15 19.5h81q14 78 33 158t39.5 153.5t45 135t55.5 104.5l2 2q18 29 43.5 36t50 3t46 -15t30.5 -20q29 -63 49 -129.5t36.5 -134t30 -135.5t29.5 -135q27 2 52.5 4t49.5 6q12 0 20.5 -7t9.5 -16.5t-5 -16.5t-18 -9q-25 -4 -48.5 -8t-48.5 -9 q14 -57 37 -118q2 -8 12.5 -28.5t22.5 -38t26.5 -27t26.5 3.5q41 45 75 98t44 76q14 29 27.5 58.5t21.5 53.5q14 27 30.5 21t16.5 -33q-10 -41 -35.5 -94t-60.5 -109q-29 -45 -68 -92t-82 -68.5t-85 -5t-76 100.5q-18 41 -32.5 87t-27.5 97q-158 -25 -311 -37l-41 -227 q-4 -10 -16.5 -15.5t-26.5 -4.5t-24.5 8.5t-10.5 19.5q10 43 19.5 97.5t19.5 115.5q-16 -2 -30.5 -3t-28.5 -1q-12 2 -18.5 16.5t-6.5 30.5zM184 352q68 2 139.5 5t143.5 8q-16 70 -26.5 132t-20.5 105q-8 33 -18.5 76t-21.5 83t-22.5 68.5t-21.5 30.5q-25 -10 -45.5 -56 t-39 -117t-35.5 -158t-32 -177zM246 1036q35 45 58 80t54 88q8 14 24.5 14.5t30 -8t20.5 -20.5t-1 -25q-37 -55 -80 -100t-72 -63q-18 -12 -31.5 2t-2.5 32z" />
<glyph unicode="&#xc2;" horiz-adv-x="851" d="M6 301q0 16 4 31.5t15 19.5h81q14 78 33 158t39.5 153.5t45 135t55.5 104.5l2 2q18 29 43.5 36t50 3t46 -15t30.5 -20q29 -63 49 -129.5t36.5 -134t30 -135.5t29.5 -135q27 2 52.5 4t49.5 6q12 0 20.5 -7t9.5 -16.5t-5 -16.5t-18 -9q-25 -4 -48.5 -8t-48.5 -9 q14 -57 37 -118q2 -8 12.5 -28.5t22.5 -38t26.5 -27t26.5 3.5q41 45 75 98t44 76q14 29 27.5 58.5t21.5 53.5q14 27 30.5 21t16.5 -33q-10 -41 -35.5 -94t-60.5 -109q-29 -45 -68 -92t-82 -68.5t-85 -5t-76 100.5q-18 41 -32.5 87t-27.5 97q-158 -25 -311 -37l-41 -227 q-4 -10 -16.5 -15.5t-26.5 -4.5t-24.5 8.5t-10.5 19.5q10 43 19.5 97.5t19.5 115.5q-16 -2 -30.5 -3t-28.5 -1q-12 2 -18.5 16.5t-6.5 30.5zM184 352q68 2 139.5 5t143.5 8q-16 70 -26.5 132t-20.5 105q-8 33 -18.5 76t-21.5 83t-22.5 68.5t-21.5 30.5q-25 -10 -45.5 -56 t-39 -117t-35.5 -158t-32 -177zM228 1030q10 20 22 51t24.5 61t25 51.5t24.5 25.5q10 2 18.5 2t18.5 -11q16 -16 32.5 -43.5t30 -54t22.5 -47t11 -27.5q8 -25 -9.5 -31.5t-27.5 7.5q-14 18 -29.5 42.5t-33.5 53.5q-10 -23 -19.5 -47.5t-23.5 -50.5q-10 -14 -41 -16.5 t-43 14.5q-8 8 -2 20z" />
<glyph unicode="&#xc3;" horiz-adv-x="851" d="M6 301q0 16 4 31.5t15 19.5h81q14 78 33 158t39.5 153.5t45 135t55.5 104.5l2 2q18 29 43.5 36t50 3t46 -15t30.5 -20q29 -63 49 -129.5t36.5 -134t30 -135.5t29.5 -135q27 2 52.5 4t49.5 6q12 0 20.5 -7t9.5 -16.5t-5 -16.5t-18 -9q-25 -4 -48.5 -8t-48.5 -9 q14 -57 37 -118q2 -8 12.5 -28.5t22.5 -38t26.5 -27t26.5 3.5q41 45 75 98t44 76q14 29 27.5 58.5t21.5 53.5q14 27 30.5 21t16.5 -33q-10 -41 -35.5 -94t-60.5 -109q-29 -45 -68 -92t-82 -68.5t-85 -5t-76 100.5q-18 41 -32.5 87t-27.5 97q-158 -25 -311 -37l-41 -227 q-4 -10 -16.5 -15.5t-26.5 -4.5t-24.5 8.5t-10.5 19.5q10 43 19.5 97.5t19.5 115.5q-16 -2 -30.5 -3t-28.5 -1q-12 2 -18.5 16.5t-6.5 30.5zM184 352q68 2 139.5 5t143.5 8q-16 70 -26.5 132t-20.5 105q-8 33 -18.5 76t-21.5 83t-22.5 68.5t-21.5 30.5q-25 -10 -45.5 -56 t-39 -117t-35.5 -158t-32 -177zM230 1042q6 23 22.5 45.5t34.5 34.5q29 20 48.5 16t32.5 -18t23.5 -31.5t19.5 -27t18.5 -2t23.5 44.5q12 20 30.5 15t18.5 -28q-41 -109 -91 -107.5t-104 85.5q-6 0 -15 -11.5t-13 -27.5q-10 -23 -31.5 -19t-17.5 31z" />
<glyph unicode="&#xc4;" horiz-adv-x="851" d="M6 301q0 16 4 31.5t15 19.5h81q14 78 33 158t39.5 153.5t45 135t55.5 104.5l2 2q18 29 43.5 36t50 3t46 -15t30.5 -20q29 -63 49 -129.5t36.5 -134t30 -135.5t29.5 -135q27 2 52.5 4t49.5 6q12 0 20.5 -7t9.5 -16.5t-5 -16.5t-18 -9q-25 -4 -48.5 -8t-48.5 -9 q14 -57 37 -118q2 -8 12.5 -28.5t22.5 -38t26.5 -27t26.5 3.5q41 45 75 98t44 76q14 29 27.5 58.5t21.5 53.5q14 27 30.5 21t16.5 -33q-10 -41 -35.5 -94t-60.5 -109q-29 -45 -68 -92t-82 -68.5t-85 -5t-76 100.5q-18 41 -32.5 87t-27.5 97q-158 -25 -311 -37l-41 -227 q-4 -10 -16.5 -15.5t-26.5 -4.5t-24.5 8.5t-10.5 19.5q10 43 19.5 97.5t19.5 115.5q-16 -2 -30.5 -3t-28.5 -1q-12 2 -18.5 16.5t-6.5 30.5zM184 352q68 2 139.5 5t143.5 8q-16 70 -26.5 132t-20.5 105q-8 33 -18.5 76t-21.5 83t-22.5 68.5t-21.5 30.5q-25 -10 -45.5 -56 t-39 -117t-35.5 -158t-32 -177zM256 1065v2q2 23 15.5 33t28 8t25.5 -13t11 -32q-4 -18 -15 -26.5t-24.5 -8.5t-25.5 9.5t-15 27.5zM391 1072.5q3 13.5 12 21.5t22.5 10t25.5 -6q12 -16 9 -32.5t-13 -26t-24.5 -10.5t-24.5 16q-10 14 -7 27.5z" />
<glyph unicode="&#xc5;" horiz-adv-x="851" d="M6 301q0 16 4 31.5t15 19.5h81q14 78 33 158t39.5 153.5t45 135t55.5 104.5l2 2q18 29 43.5 36t50 3t46 -15t30.5 -20q29 -63 49 -129.5t36.5 -134t30 -135.5t29.5 -135q27 2 52.5 4t49.5 6q12 0 20.5 -7t9.5 -16.5t-5 -16.5t-18 -9q-25 -4 -48.5 -8t-48.5 -9 q14 -57 37 -118q2 -8 12.5 -28.5t22.5 -38t26.5 -27t26.5 3.5q41 45 75 98t44 76q14 29 27.5 58.5t21.5 53.5q14 27 30.5 21t16.5 -33q-10 -41 -35.5 -94t-60.5 -109q-29 -45 -68 -92t-82 -68.5t-85 -5t-76 100.5q-18 41 -32.5 87t-27.5 97q-158 -25 -311 -37l-41 -227 q-4 -10 -16.5 -15.5t-26.5 -4.5t-24.5 8.5t-10.5 19.5q10 43 19.5 97.5t19.5 115.5q-16 -2 -30.5 -3t-28.5 -1q-12 2 -18.5 16.5t-6.5 30.5zM184 352q68 2 139.5 5t143.5 8q-16 70 -26.5 132t-20.5 105q-8 33 -18.5 76t-21.5 83t-22.5 68.5t-21.5 30.5q-25 -10 -45.5 -56 t-39 -117t-35.5 -158t-32 -177zM259 1080.5q9 33.5 32.5 63.5t54.5 36q14 0 24 -10q49 -14 67.5 -45t10.5 -62t-43 -53.5t-90 -18.5q-43 2 -54 29t-2 60.5zM343.5 1075.5q-10.5 -22.5 12.5 -32.5l-2 -2q14 4 26.5 14t17.5 20.5t-0.5 21.5t-25.5 17q-18 -16 -28.5 -38.5z" />
<glyph unicode="&#xc6;" horiz-adv-x="1280" d="M6 301q0 16 4 31.5t15 19.5h81q14 78 33 158t39.5 153.5t45 135t55.5 104.5l2 2q18 29 43.5 36t50 3t46 -15t30.5 -20q16 -39 30.5 -76.5t26.5 -78.5q31 43 87 72.5t117.5 46t121 19.5t96.5 -9q18 -16 11 -34t-30 -13l-22 4q-47 -4 -98.5 -18.5t-92.5 -38t-66.5 -54.5 t-21.5 -67q2 -27 29 -43.5t61.5 -23.5t69.5 -8t53 1q53 27 92 22.5t51.5 -20t-7 -32.5t-80.5 -17q-49 -16 -102.5 -46t-100.5 -67t-84 -78t-51.5 -82t-1 -78.5t64.5 -68.5q63 57 136 100t139 66q29 8 84 18t111 10t101.5 -17t51.5 -62q10 -53 -37 -100.5t-143 -76.5 q-33 -10 -79 -20t-100.5 -17.5t-110 -8.5t-106.5 10q-25 -18 -48 -48t-43.5 -70t-33 -88t-12.5 -102q0 -23 -19.5 -25.5t-29.5 15.5q-16 76 -3 163t79 183q-104 45 -133 107.5t-2 130.5q-117 -14 -236 -25l-41 -227q-4 -10 -16.5 -15.5t-26.5 -4.5t-24.5 8.5t-10.5 19.5 q10 43 19.5 97.5t19.5 115.5q-16 -2 -30.5 -3t-28.5 -1q-12 2 -18.5 16.5t-6.5 30.5zM184 352q63 2 130 4t135 6q8 12 14 19q-14 66 -24.5 123t-18.5 98q-8 33 -18.5 76t-21.5 83t-22.5 68.5t-21.5 30.5q-25 -10 -45.5 -56t-39 -117t-35.5 -158t-32 -177zM555 563l18 -92 q63 39 129 66q-31 0 -71.5 5t-75.5 21zM707 76q18 -6 43.5 -9.5t54.5 -5.5q63 2 128.5 14.5t119 33t88.5 50t35 68.5q-6 16 -26 24.5t-46 12.5q-37 -2 -72 -9t-63 -17q-68 -23 -136.5 -66t-125.5 -96z" />
<glyph unicode="&#xc7;" horiz-adv-x="792" d="M12 356.5q-2 94.5 13.5 184.5t33.5 145q14 39 40 86t61 86t78 62.5t90 15.5q51 -8 96 -55t78 -113q23 -72 36 -124t13 -91q0 -23 -8 -33t-18.5 -10t-18.5 8t-6 25q2 27 -3 55.5t-14 60.5q-18 72 -55 136.5t-88 83.5q-53 -16 -92 -75t-65.5 -134.5t-39 -154.5t-10.5 -136 q2 -45 8 -89t16.5 -83t28 -70t43.5 -49q45 -31 107 -37q70 8 145.5 39t144 78t125 106.5t91.5 122.5q14 20 30.5 16.5t16.5 -28.5q-25 -63 -76 -123.5t-117.5 -111t-142.5 -86t-153.5 -51t-150.5 -6.5t-130 50t-81 123t-26 176.5zM263 -61.5q-3 24.5 2 53t11 53.5l101 -18 q-6 -27 -10.5 -57.5t2.5 -41.5q4 -8 16 -12t25.5 -8t28 -9t24.5 -18q20 -25 8 -48t-38.5 -42.5t-58.5 -33t-48 -15.5q-27 -4 -31 17.5t18 31.5q23 4 55.5 17.5t47.5 33.5q-18 14 -43 18.5t-47 10.5q-31 6 -45.5 24.5t-17.5 43z" />
<glyph unicode="&#xc8;" horiz-adv-x="897" d="M24.5 296q28.5 69 107.5 133.5t187 107.5q-27 0 -63.5 5t-70 16t-59.5 32.5t-30 56.5q-6 49 16.5 87t61.5 67.5t90 50t103.5 30t99.5 10.5t80 -9q18 -16 11 -34t-30 -13l-22 4q-47 -4 -98.5 -18.5t-92.5 -38t-66.5 -54.5t-21.5 -67q2 -27 29 -43.5t61.5 -23.5t69.5 -8 t53 1q53 27 92 22.5t51.5 -20t-7 -32.5t-80.5 -17q-49 -16 -102.5 -46t-100.5 -67t-84 -78t-51.5 -82t-1 -78.5t64.5 -68.5q63 57 136 100t139 66q29 8 84 18t111.5 10t101.5 -17t51 -62q10 -53 -37 -100.5t-143 -76.5q-33 -10 -79 -20t-100.5 -17.5t-110 -8.5t-106.5 10 q-25 -18 -48 -48t-43.5 -70t-33 -88t-12.5 -102q0 -23 -19.5 -25.5t-29.5 15.5q-16 76 -3 163t79 183q-104 45 -133 110.5t-0.5 134.5zM283 1111.5q4 12.5 15 20.5t25.5 10.5t24.5 -6.5q29 -35 54.5 -76.5t37.5 -62.5q12 -23 -2 -37t-32 4q-27 27 -54.5 56.5t-62.5 70.5 q-10 8 -6 20.5zM324 76q18 -6 43.5 -9.5t54.5 -5.5q63 2 128.5 14.5t119 33t88.5 50t35 68.5q-6 16 -25.5 24.5t-46.5 12.5q-37 -2 -72 -9t-63 -17q-68 -23 -136.5 -66t-125.5 -96z" />
<glyph unicode="&#xc9;" horiz-adv-x="897" d="M24.5 296q28.5 69 107.5 133.5t187 107.5q-27 0 -63.5 5t-70 16t-59.5 32.5t-30 56.5q-6 49 16.5 87t61.5 67.5t90 50t103.5 30t99.5 10.5t80 -9q18 -16 11 -34t-30 -13l-22 4q-47 -4 -98.5 -18.5t-92.5 -38t-66.5 -54.5t-21.5 -67q2 -27 29 -43.5t61.5 -23.5t69.5 -8 t53 1q53 27 92 22.5t51.5 -20t-7 -32.5t-80.5 -17q-49 -16 -102.5 -46t-100.5 -67t-84 -78t-51.5 -82t-1 -78.5t64.5 -68.5q63 57 136 100t139 66q29 8 84 18t111.5 10t101.5 -17t51 -62q10 -53 -37 -100.5t-143 -76.5q-33 -10 -79 -20t-100.5 -17.5t-110 -8.5t-106.5 10 q-25 -18 -48 -48t-43.5 -70t-33 -88t-12.5 -102q0 -23 -19.5 -25.5t-29.5 15.5q-16 76 -3 163t79 183q-104 45 -133 110.5t-0.5 134.5zM277 985q35 45 58 80t54 88q8 14 24.5 14.5t30 -8t20.5 -20.5t-1 -25q-37 -55 -80 -100t-72 -63q-18 -12 -31.5 2t-2.5 32zM324 76 q18 -6 43.5 -9.5t54.5 -5.5q63 2 128.5 14.5t119 33t88.5 50t35 68.5q-6 16 -25.5 24.5t-46.5 12.5q-37 -2 -72 -9t-63 -17q-68 -23 -136.5 -66t-125.5 -96z" />
<glyph unicode="&#xca;" horiz-adv-x="897" d="M24.5 296q28.5 69 107.5 133.5t187 107.5q-27 0 -63.5 5t-70 16t-59.5 32.5t-30 56.5q-6 49 16.5 87t61.5 67.5t90 50t103.5 30t99.5 10.5t80 -9q18 -16 11 -34t-30 -13l-22 4q-47 -4 -98.5 -18.5t-92.5 -38t-66.5 -54.5t-21.5 -67q2 -27 29 -43.5t61.5 -23.5t69.5 -8 t53 1q53 27 92 22.5t51.5 -20t-7 -32.5t-80.5 -17q-49 -16 -102.5 -46t-100.5 -67t-84 -78t-51.5 -82t-1 -78.5t64.5 -68.5q63 57 136 100t139 66q29 8 84 18t111.5 10t101.5 -17t51 -62q10 -53 -37 -100.5t-143 -76.5q-33 -10 -79 -20t-100.5 -17.5t-110 -8.5t-106.5 10 q-25 -18 -48 -48t-43.5 -70t-33 -88t-12.5 -102q0 -23 -19.5 -25.5t-29.5 15.5q-16 76 -3 163t79 183q-104 45 -133 110.5t-0.5 134.5zM265 995q10 20 22 51t24.5 61t25 51.5t24.5 25.5q10 2 18.5 2t18.5 -11q16 -16 32.5 -43.5t30 -54t22.5 -47t11 -27.5q8 -25 -9.5 -31.5 t-27.5 7.5q-14 18 -29.5 42.5t-33.5 53.5q-10 -23 -19.5 -47.5t-23.5 -50.5q-10 -14 -41 -16.5t-43 14.5q-8 8 -2 20zM324 76q18 -6 43.5 -9.5t54.5 -5.5q63 2 128.5 14.5t119 33t88.5 50t35 68.5q-6 16 -25.5 24.5t-46.5 12.5q-37 -2 -72 -9t-63 -17q-68 -23 -136.5 -66 t-125.5 -96z" />
<glyph unicode="&#xcb;" horiz-adv-x="897" d="M24.5 296q28.5 69 107.5 133.5t187 107.5q-27 0 -63.5 5t-70 16t-59.5 32.5t-30 56.5q-6 49 16.5 87t61.5 67.5t90 50t103.5 30t99.5 10.5t80 -9q18 -16 11 -34t-30 -13l-22 4q-47 -4 -98.5 -18.5t-92.5 -38t-66.5 -54.5t-21.5 -67q2 -27 29 -43.5t61.5 -23.5t69.5 -8 t53 1q53 27 92 22.5t51.5 -20t-7 -32.5t-80.5 -17q-49 -16 -102.5 -46t-100.5 -67t-84 -78t-51.5 -82t-1 -78.5t64.5 -68.5q63 57 136 100t139 66q29 8 84 18t111.5 10t101.5 -17t51 -62q10 -53 -37 -100.5t-143 -76.5q-33 -10 -79 -20t-100.5 -17.5t-110 -8.5t-106.5 10 q-25 -18 -48 -48t-43.5 -70t-33 -88t-12.5 -102q0 -23 -19.5 -25.5t-29.5 15.5q-16 76 -3 163t79 183q-104 45 -133 110.5t-0.5 134.5zM260 1038v2q2 23 15.5 33t28 8t25.5 -13t11 -32q-4 -18 -15 -26.5t-24.5 -8.5t-25.5 9.5t-15 27.5zM324 76q18 -6 43.5 -9.5t54.5 -5.5 q63 2 128.5 14.5t119 33t88.5 50t35 68.5q-6 16 -25.5 24.5t-46.5 12.5q-37 -2 -72 -9t-63 -17q-68 -23 -136.5 -66t-125.5 -96zM395 1045.5q3 13.5 12 21.5t22.5 10t25.5 -6q12 -16 9 -32.5t-13 -26t-24.5 -10.5t-24.5 16q-10 14 -7 27.5z" />
<glyph unicode="&#xcc;" horiz-adv-x="661" d="M10 111q-2 23 14.5 29.5t32.5 -11.5q6 -16 29 -37.5t56.5 -38t73.5 -25t79 4.5q37 10 61.5 38.5t39 69.5t20.5 89.5t6 97.5q-53 -10 -117.5 -2t-122 34.5t-101.5 70.5t-58 110q-12 55 18.5 119.5t79.5 122t106.5 100.5t100.5 59q8 4 28.5 8t41 5t38 -2t21.5 -13 q12 -20 26.5 -78.5t26.5 -136.5t21.5 -163t9.5 -159q29 4 34 -16t-32 -35q2 -61 -6.5 -121.5t-28 -111.5t-50 -86t-73.5 -47q-41 -10 -92 -10.5t-96 10.5q-59 14 -112.5 48t-74.5 77zM82 553q12 -49 48 -87t83 -60.5t102.5 -30.5t106.5 4q0 70 -7 149.5t-17.5 152.5t-24 129 t-23.5 79q-33 0 -83 -37t-95 -90t-72.5 -110.5t-17.5 -98.5zM254 1162.5q4 12.5 15 20.5t25.5 10.5t24.5 -6.5q29 -35 54.5 -76.5t37.5 -62.5q12 -23 -2 -37t-32 4q-27 27 -54.5 56.5t-62.5 70.5q-10 8 -6 20.5z" />
<glyph unicode="&#xcd;" horiz-adv-x="661" d="M10 111q-2 23 14.5 29.5t32.5 -11.5q6 -16 29 -37.5t56.5 -38t73.5 -25t79 4.5q37 10 61.5 38.5t39 69.5t20.5 89.5t6 97.5q-53 -10 -117.5 -2t-122 34.5t-101.5 70.5t-58 110q-12 55 18.5 119.5t79.5 122t106.5 100.5t100.5 59q8 4 28.5 8t41 5t38 -2t21.5 -13 q12 -20 26.5 -78.5t26.5 -136.5t21.5 -163t9.5 -159q29 4 34 -16t-32 -35q2 -61 -6.5 -121.5t-28 -111.5t-50 -86t-73.5 -47q-41 -10 -92 -10.5t-96 10.5q-59 14 -112.5 48t-74.5 77zM82 553q12 -49 48 -87t83 -60.5t102.5 -30.5t106.5 4q0 70 -7 149.5t-17.5 152.5t-24 129 t-23.5 79q-33 0 -83 -37t-95 -90t-72.5 -110.5t-17.5 -98.5zM238 1036q35 45 58 80t54 88q8 14 24.5 14.5t30 -8t20.5 -20.5t-1 -25q-37 -55 -80 -100t-72 -63q-18 -12 -31.5 2t-2.5 32z" />
<glyph unicode="&#xce;" horiz-adv-x="661" d="M10 111q-2 23 14.5 29.5t32.5 -11.5q6 -16 29 -37.5t56.5 -38t73.5 -25t79 4.5q37 10 61.5 38.5t39 69.5t20.5 89.5t6 97.5q-53 -10 -117.5 -2t-122 34.5t-101.5 70.5t-58 110q-12 55 18.5 119.5t79.5 122t106.5 100.5t100.5 59q8 4 28.5 8t41 5t38 -2t21.5 -13 q12 -20 26.5 -78.5t26.5 -136.5t21.5 -163t9.5 -159q29 4 34 -16t-32 -35q2 -61 -6.5 -121.5t-28 -111.5t-50 -86t-73.5 -47q-41 -10 -92 -10.5t-96 10.5q-59 14 -112.5 48t-74.5 77zM82 553q12 -49 48 -87t83 -60.5t102.5 -30.5t106.5 4q0 70 -7 149.5t-17.5 152.5t-24 129 t-23.5 79q-33 0 -83 -37t-95 -90t-72.5 -110.5t-17.5 -98.5zM217 1050q10 20 22 51t24.5 61t25 51.5t24.5 25.5q10 2 18.5 2t18.5 -11q16 -16 32.5 -43.5t30 -54t22.5 -47t11 -27.5q8 -25 -9.5 -31.5t-27.5 7.5q-14 18 -29.5 42.5t-33.5 53.5q-10 -23 -19.5 -47.5 t-23.5 -50.5q-10 -14 -41 -16.5t-43 14.5q-8 8 -2 20z" />
<glyph unicode="&#xcf;" horiz-adv-x="661" d="M10 111q-2 23 14.5 29.5t32.5 -11.5q6 -16 29 -37.5t56.5 -38t73.5 -25t79 4.5q37 10 61.5 38.5t39 69.5t20.5 89.5t6 97.5q-53 -10 -117.5 -2t-122 34.5t-101.5 70.5t-58 110q-12 55 18.5 119.5t79.5 122t106.5 100.5t100.5 59q8 4 28.5 8t41 5t38 -2t21.5 -13 q12 -20 26.5 -78.5t26.5 -136.5t21.5 -163t9.5 -159q29 4 34 -16t-32 -35q2 -61 -6.5 -121.5t-28 -111.5t-50 -86t-73.5 -47q-41 -10 -92 -10.5t-96 10.5q-59 14 -112.5 48t-74.5 77zM82 553q12 -49 48 -87t83 -60.5t102.5 -30.5t106.5 4q0 70 -7 149.5t-17.5 152.5t-24 129 t-23.5 79q-33 0 -83 -37t-95 -90t-72.5 -110.5t-17.5 -98.5zM258 1077v2q2 23 15.5 33t28 8t25.5 -13t11 -32q-4 -18 -15 -26.5t-24.5 -8.5t-25.5 9.5t-15 27.5zM393 1084.5q3 13.5 12 21.5t22.5 10t25.5 -6q12 -16 9 -32.5t-13 -26t-24.5 -10.5t-24.5 16q-10 14 -7 27.5z " />
<glyph unicode="&#xd0;" horiz-adv-x="839" d="M8 327.5q0 20.5 27 20.5h26q-31 104 -45 199.5t0.5 168t64.5 115.5t148 41q0 23 -1 43.5t1 42.5q2 20 21.5 28.5t41 6.5t40 -11t20.5 -19q-2 -25 -1 -52.5t1 -56.5q66 -20 139.5 -58t138 -88.5t110.5 -111.5t55 -129q8 -76 -30 -136.5t-100.5 -106.5t-140.5 -79.5 t-145 -54.5q-6 -2 -11.5 -4t-9.5 -4q-10 -47 -24 -70q-29 -41 -71 -49t-70 25q-8 6 -15.5 21.5t-17.5 35.5q-29 4 -37 21.5t16 50.5q-16 47 -32.5 93t-32.5 93h-41q-25 4 -25 24.5zM65.5 679q-6.5 -71 12 -159t43.5 -172h133q-2 123 -10.5 247t-14.5 228q-84 8 -120.5 -32.5 t-43 -111.5zM133 303q23 -70 42.5 -124t29.5 -83q20 0 37 10h2q4 45 7 95.5t3 103.5q-29 0 -59.5 -1t-61.5 -1zM217 47l6 -10l3 6t1 6q-2 0 -4 -1t-6 -1zM354 801q4 -78 8.5 -164t8.5 -170q0 -23 1 -53.5t1 -63.5h33q27 0 28.5 -20.5t-24.5 -24.5h-37q0 -45 -1 -88t-5 -84 q57 20 116.5 52t106.5 74t74.5 92t19.5 108q-8 53 -41 105t-79 96.5t-100 81t-110 59.5z" />
<glyph unicode="&#xd1;" horiz-adv-x="1193" d="M12 550q6 44 25.5 90t46.5 89q25 39 61.5 85t81.5 81t97.5 52.5t107.5 2.5q49 -14 81 -64t30 -143q0 -39 -1 -66.5t-3 -59t-5.5 -74.5t-7.5 -113q-4 -53 -6 -96t-2 -83t3 -81t7 -86q16 33 31.5 94.5t34 138t41 159.5t50.5 157t62.5 131t77.5 82q20 12 44 16t45.5 2 t39 -10t23.5 -23q16 -59 22.5 -149t12.5 -191.5t19 -205t42 -190.5t78 -146.5t129 -71.5q23 4 48.5 8t53.5 15q12 0 19.5 -7.5t8.5 -16.5t-5 -17.5t-19 -10.5q-141 -45 -231 -14t-144.5 108.5t-79 188.5t-35.5 229.5t-16.5 230t-19.5 189.5q-39 -31 -70.5 -86t-57 -124.5 t-48 -148.5t-43 -155t-42 -145.5t-46.5 -120.5q-8 -16 -25.5 -27.5t-37 -15.5t-37 -1t-23.5 17q-14 31 -22.5 75t-11.5 91t-3 95.5t2 89.5h-2q-39 -4 -86 -8.5t-94 1t-91 22.5t-77 56q-25 31 -32 71t-1 84zM74.5 539.5q-13.5 -70.5 19.5 -111.5q31 -39 78 -52.5t93 -13.5 t84 5.5t48 3.5q2 57 5.5 102t5.5 88t5 88t7 103q8 109 -21.5 139.5t-78 8t-101.5 -84t-92 -133.5t-52.5 -142.5zM736 1014q6 23 22.5 45.5t34.5 34.5q29 20 48.5 16t32.5 -18t23.5 -31.5t19.5 -27t18.5 -2t23.5 44.5q12 20 30.5 15t18.5 -28q-41 -109 -91 -107.5t-104 85.5 q-6 0 -15 -11.5t-13 -27.5q-10 -23 -31.5 -19t-17.5 31z" />
<glyph unicode="&#xd2;" horiz-adv-x="931" d="M10 467q4 92 40 193.5t108 170.5q43 43 94 66t106.5 27t111.5 -8.5t110 -36.5q82 -39 143 -100.5t95 -138.5t36 -164t-35 -175q20 8 51 25q12 6 20.5 3t11.5 -10.5t1 -17.5t-14 -16q-41 -25 -61.5 -32t-49.5 -17q-35 -51 -86 -99.5t-114.5 -82.5t-138 -48t-160.5 2 q-70 12 -122.5 55t-86 105.5t-49 140.5t-11.5 158zM137 372.5q10 -98.5 51 -175.5q14 -27 36 -53.5t48.5 -47t57 -33t65.5 -12.5q92 6 173.5 52t140.5 120q-68 -12 -152 6.5t-164 63.5t-146.5 114.5t-101.5 155.5q-18 -92 -8 -190.5zM244 730q-4 -42 5 -85t27.5 -83 t42.5 -70q31 -41 74 -79t93.5 -69t106.5 -50.5t114 -25.5q25 4 41 8q41 68 49 138.5t-8.5 137t-56.5 125t-93 102.5t-116.5 68.5t-131.5 24.5q-68 -16 -123 -67q-20 -33 -24 -75zM310 1138.5q4 12.5 15 20.5t25.5 10.5t24.5 -6.5q29 -35 54.5 -76.5t37.5 -62.5 q12 -23 -2 -37t-32 4q-27 27 -54.5 56.5t-62.5 70.5q-10 8 -6 20.5z" />
<glyph unicode="&#xd3;" horiz-adv-x="931" d="M10 467q4 92 40 193.5t108 170.5q43 43 94 66t106.5 27t111.5 -8.5t110 -36.5q82 -39 143 -100.5t95 -138.5t36 -164t-35 -175q20 8 51 25q12 6 20.5 3t11.5 -10.5t1 -17.5t-14 -16q-41 -25 -61.5 -32t-49.5 -17q-35 -51 -86 -99.5t-114.5 -82.5t-138 -48t-160.5 2 q-70 12 -122.5 55t-86 105.5t-49 140.5t-11.5 158zM137 372.5q10 -98.5 51 -175.5q14 -27 36 -53.5t48.5 -47t57 -33t65.5 -12.5q92 6 173.5 52t140.5 120q-68 -12 -152 6.5t-164 63.5t-146.5 114.5t-101.5 155.5q-18 -92 -8 -190.5zM244 730q-4 -42 5 -85t27.5 -83 t42.5 -70q31 -41 74 -79t93.5 -69t106.5 -50.5t114 -25.5q25 4 41 8q41 68 49 138.5t-8.5 137t-56.5 125t-93 102.5t-116.5 68.5t-131.5 24.5q-68 -16 -123 -67q-20 -33 -24 -75zM293 1036q35 45 58 80t54 88q8 14 24.5 14.5t30 -8t20.5 -20.5t-1 -25q-37 -55 -80 -100 t-72 -63q-18 -12 -31.5 2t-2.5 32z" />
<glyph unicode="&#xd4;" horiz-adv-x="931" d="M10 467q4 92 40 193.5t108 170.5q43 43 94 66t106.5 27t111.5 -8.5t110 -36.5q82 -39 143 -100.5t95 -138.5t36 -164t-35 -175q20 8 51 25q12 6 20.5 3t11.5 -10.5t1 -17.5t-14 -16q-41 -25 -61.5 -32t-49.5 -17q-35 -51 -86 -99.5t-114.5 -82.5t-138 -48t-160.5 2 q-70 12 -122.5 55t-86 105.5t-49 140.5t-11.5 158zM137 372.5q10 -98.5 51 -175.5q14 -27 36 -53.5t48.5 -47t57 -33t65.5 -12.5q92 6 173.5 52t140.5 120q-68 -12 -152 6.5t-164 63.5t-146.5 114.5t-101.5 155.5q-18 -92 -8 -190.5zM244 730q-4 -42 5 -85t27.5 -83 t42.5 -70q31 -41 74 -79t93.5 -69t106.5 -50.5t114 -25.5q25 4 41 8q41 68 49 138.5t-8.5 137t-56.5 125t-93 102.5t-116.5 68.5t-131.5 24.5q-68 -16 -123 -67q-20 -33 -24 -75zM277 1030q10 20 22 51t24.5 61t25 51.5t24.5 25.5q10 2 18.5 2t18.5 -11q16 -16 32.5 -43.5 t30 -54t22.5 -47t11 -27.5q8 -25 -9.5 -31.5t-27.5 7.5q-14 18 -29.5 42.5t-33.5 53.5q-10 -23 -19.5 -47.5t-23.5 -50.5q-10 -14 -41 -16.5t-43 14.5q-8 8 -2 20z" />
<glyph unicode="&#xd5;" horiz-adv-x="931" d="M10 467q4 92 40 193.5t108 170.5q43 43 94 66t106.5 27t111.5 -8.5t110 -36.5q82 -39 143 -100.5t95 -138.5t36 -164t-35 -175q20 8 51 25q12 6 20.5 3t11.5 -10.5t1 -17.5t-14 -16q-41 -25 -61.5 -32t-49.5 -17q-35 -51 -86 -99.5t-114.5 -82.5t-138 -48t-160.5 2 q-70 12 -122.5 55t-86 105.5t-49 140.5t-11.5 158zM137 372.5q10 -98.5 51 -175.5q14 -27 36 -53.5t48.5 -47t57 -33t65.5 -12.5q92 6 173.5 52t140.5 120q-68 -12 -152 6.5t-164 63.5t-146.5 114.5t-101.5 155.5q-18 -92 -8 -190.5zM244 730q-4 -42 5 -85t27.5 -83 t42.5 -70q31 -41 74 -79t93.5 -69t106.5 -50.5t114 -25.5q25 4 41 8q41 68 49 138.5t-8.5 137t-56.5 125t-93 102.5t-116.5 68.5t-131.5 24.5q-68 -16 -123 -67q-20 -33 -24 -75zM275 1038q6 23 22.5 45.5t34.5 34.5q29 20 48.5 16t32.5 -18t23.5 -31.5t19.5 -27t18.5 -2 t23.5 44.5q12 20 30.5 15t18.5 -28q-41 -109 -91 -107.5t-104 85.5q-6 0 -15 -11.5t-13 -27.5q-10 -23 -31.5 -19t-17.5 31z" />
<glyph unicode="&#xd6;" horiz-adv-x="931" d="M10 467q4 92 40 193.5t108 170.5q43 43 94 66t106.5 27t111.5 -8.5t110 -36.5q82 -39 143 -100.5t95 -138.5t36 -164t-35 -175q20 8 51 25q12 6 20.5 3t11.5 -10.5t1 -17.5t-14 -16q-41 -25 -61.5 -32t-49.5 -17q-35 -51 -86 -99.5t-114.5 -82.5t-138 -48t-160.5 2 q-70 12 -122.5 55t-86 105.5t-49 140.5t-11.5 158zM137 372.5q10 -98.5 51 -175.5q14 -27 36 -53.5t48.5 -47t57 -33t65.5 -12.5q92 6 173.5 52t140.5 120q-68 -12 -152 6.5t-164 63.5t-146.5 114.5t-101.5 155.5q-18 -92 -8 -190.5zM244 730q-4 -42 5 -85t27.5 -83 t42.5 -70q31 -41 74 -79t93.5 -69t106.5 -50.5t114 -25.5q25 4 41 8q41 68 49 138.5t-8.5 137t-56.5 125t-93 102.5t-116.5 68.5t-131.5 24.5q-68 -16 -123 -67q-20 -33 -24 -75zM276 1065v2q2 23 15.5 33t28 8t25.5 -13t11 -32q-4 -18 -15 -26.5t-24.5 -8.5t-25.5 9.5 t-15 27.5zM411 1072.5q3 13.5 12 21.5t22.5 10t25.5 -6q12 -16 9 -32.5t-13 -26t-24.5 -10.5t-24.5 16q-10 14 -7 27.5z" />
<glyph unicode="&#xd7;" horiz-adv-x="464" d="M45 535.5q4 13.5 15.5 23.5t23.5 13t22 -7l91 -94l92 141q6 10 21.5 9.5t29.5 -9t22.5 -21.5t2.5 -26l-105 -159l148 -154q8 -10 7 -19.5t-8.5 -15.5t-17.5 -7t-18 9l-146 133l-92 -139q-8 -10 -22.5 -7t-27.5 13t-20.5 23.5t-1.5 23.5l97 148l-107 100q-10 8 -6 21.5z " />
<glyph unicode="&#xd8;" horiz-adv-x="931" d="M10 467q4 92 40 193.5t108 170.5q68 68 154.5 85.5t174.5 -5.5l21 76q4 14 21.5 19.5t37 3.5t34.5 -10.5t17 -20.5l-28 -107q80 -41 139 -102t91 -136t33 -160t-34 -173q20 8 51 25q12 6 20.5 3t11.5 -10.5t1 -17.5t-14 -16q-41 -25 -61.5 -32t-49.5 -17 q-31 -47 -75 -89.5t-97 -75t-117.5 -52t-136.5 -19.5l-24 -74q-6 -10 -23.5 -14t-37 -3t-35 9t-13.5 21l25 77q-61 18 -106.5 62.5t-75 106t-43 134t-9.5 148.5zM137 372.5q10 -98.5 51 -175.5q14 -27 34 -51.5t46 -45.5l66 232q-61 43 -110.5 101.5t-78.5 129.5 q-18 -92 -8 -190.5zM244 730q-4 -42 5 -85t27.5 -83t42.5 -70q16 -25 43 -52l113 422q-23 4 -42 7t-42 3q-68 -16 -123 -67q-20 -33 -24 -75zM369 53q8 -2 26 -2q92 6 173.5 52t140.5 120q-59 -12 -131 1.5t-144 47.5q-16 -57 -32.5 -111.5t-32.5 -107.5zM459 362 q55 -39 118.5 -63.5t129.5 -30.5q25 4 41 8q47 78 51 158t-22.5 154t-79 134t-119.5 99q-29 -115 -59 -229.5t-60 -229.5z" />
<glyph unicode="&#xd9;" horiz-adv-x="860" d="M8 860q8 31 35 43t60.5 11t65.5 -14t50 -34q23 -27 32 -78t10 -115.5t-2 -136t-5 -139t0 -128t14 -101.5q20 -63 72 -80q37 8 76 28.5t74.5 46t65.5 52.5t48 49q-12 98 -22.5 192.5t-14.5 192.5q0 35 -2 78t-1 85t7.5 78t18.5 58q14 20 35 13q41 -16 71.5 -64.5 t48.5 -105.5q35 -104 24 -216t-52 -217q0 -10 4 -30q12 -72 20.5 -121t16.5 -91t15 -80t18 -85q2 -12 -12.5 -25.5t-36 -20.5t-43 -4t-29.5 23v2q-23 63 -34 131t-24 144q-31 -37 -69.5 -67t-80.5 -52.5t-84 -34.5t-79 -12q-88 0 -126 59.5t-46 148.5t0 194.5t11 196.5 t-11 153.5t-68 66.5q0 -2 -1 -3t-1 -3q-10 -23 -31.5 -18.5t-17.5 30.5zM248 1138.5q4 12.5 15 20.5t25.5 10.5t24.5 -6.5q29 -35 54.5 -76.5t37.5 -62.5q12 -23 -2 -37t-32 4q-27 27 -54.5 56.5t-62.5 70.5q-10 8 -6 20.5zM686 647q2 -41 6 -86t10 -90q23 84 19 168 q-2 31 -10.5 78t-24.5 92q-6 -72 0 -162z" />
<glyph unicode="&#xda;" horiz-adv-x="860" d="M8 860q8 31 35 43t60.5 11t65.5 -14t50 -34q23 -27 32 -78t10 -115.5t-2 -136t-5 -139t0 -128t14 -101.5q20 -63 72 -80q37 8 76 28.5t74.5 46t65.5 52.5t48 49q-12 98 -22.5 192.5t-14.5 192.5q0 35 -2 78t-1 85t7.5 78t18.5 58q14 20 35 13q41 -16 71.5 -64.5 t48.5 -105.5q35 -104 24 -216t-52 -217q0 -10 4 -30q12 -72 20.5 -121t16.5 -91t15 -80t18 -85q2 -12 -12.5 -25.5t-36 -20.5t-43 -4t-29.5 23v2q-23 63 -34 131t-24 144q-31 -37 -69.5 -67t-80.5 -52.5t-84 -34.5t-79 -12q-88 0 -126 59.5t-46 148.5t0 194.5t11 196.5 t-11 153.5t-68 66.5q0 -2 -1 -3t-1 -3q-10 -23 -31.5 -18.5t-17.5 30.5zM283 1009q35 45 58 80t54 88q8 14 24.5 14.5t30 -8t20.5 -20.5t-1 -25q-37 -55 -80 -100t-72 -63q-18 -12 -31.5 2t-2.5 32zM686 647q2 -41 6 -86t10 -90q23 84 19 168q-2 31 -10.5 78t-24.5 92 q-6 -72 0 -162z" />
<glyph unicode="&#xdb;" horiz-adv-x="860" d="M8 860q8 31 35 43t60.5 11t65.5 -14t50 -34q23 -27 32 -78t10 -115.5t-2 -136t-5 -139t0 -128t14 -101.5q20 -63 72 -80q37 8 76 28.5t74.5 46t65.5 52.5t48 49q-12 98 -22.5 192.5t-14.5 192.5q0 35 -2 78t-1 85t7.5 78t18.5 58q14 20 35 13q41 -16 71.5 -64.5 t48.5 -105.5q35 -104 24 -216t-52 -217q0 -10 4 -30q12 -72 20.5 -121t16.5 -91t15 -80t18 -85q2 -12 -12.5 -25.5t-36 -20.5t-43 -4t-29.5 23v2q-23 63 -34 131t-24 144q-31 -37 -69.5 -67t-80.5 -52.5t-84 -34.5t-79 -12q-88 0 -126 59.5t-46 148.5t0 194.5t11 196.5 t-11 153.5t-68 66.5q0 -2 -1 -3t-1 -3q-10 -23 -31.5 -18.5t-17.5 30.5zM252 1003q10 20 22 51t24.5 61t25 51.5t24.5 25.5q10 2 18.5 2t18.5 -11q16 -16 32.5 -43.5t30 -54t22.5 -47t11 -27.5q8 -25 -9.5 -31.5t-27.5 7.5q-14 18 -29.5 42.5t-33.5 53.5 q-10 -23 -19.5 -47.5t-23.5 -50.5q-10 -14 -41 -16.5t-43 14.5q-8 8 -2 20zM686 647q2 -41 6 -86t10 -90q23 84 19 168q-2 31 -10.5 78t-24.5 92q-6 -72 0 -162z" />
<glyph unicode="&#xdc;" horiz-adv-x="860" d="M8 860q8 31 35 43t60.5 11t65.5 -14t50 -34q23 -27 32 -78t10 -115.5t-2 -136t-5 -139t0 -128t14 -101.5q20 -63 72 -80q37 8 76 28.5t74.5 46t65.5 52.5t48 49q-12 98 -22.5 192.5t-14.5 192.5q0 35 -2 78t-1 85t7.5 78t18.5 58q14 20 35 13q41 -16 71.5 -64.5 t48.5 -105.5q35 -104 24 -216t-52 -217q0 -10 4 -30q12 -72 20.5 -121t16.5 -91t15 -80t18 -85q2 -12 -12.5 -25.5t-36 -20.5t-43 -4t-29.5 23v2q-23 63 -34 131t-24 144q-31 -37 -69.5 -67t-80.5 -52.5t-84 -34.5t-79 -12q-88 0 -126 59.5t-46 148.5t0 194.5t11 196.5 t-11 153.5t-68 66.5q0 -2 -1 -3t-1 -3q-10 -23 -31.5 -18.5t-17.5 30.5zM251 1059v2q2 23 15.5 33t28 8t25.5 -13t11 -32q-4 -18 -15 -26.5t-24.5 -8.5t-25.5 9.5t-15 27.5zM386 1066.5q3 13.5 12 21.5t22.5 10t25.5 -6q12 -16 9 -32.5t-13 -26t-24.5 -10.5t-24.5 16 q-10 14 -7 27.5zM686 647q2 -41 6 -86t10 -90q23 84 19 168q-2 31 -10.5 78t-24.5 92q-6 -72 0 -162z" />
<glyph unicode="&#xdd;" horiz-adv-x="1083" d="M8 655q4 88 35 144.5t78 83.5h-2q49 25 105.5 23.5t107.5 -31t89 -86t48 -138.5q10 -76 22.5 -164t26.5 -167.5t30.5 -141t37.5 -82.5q78 27 139 88.5t106 145.5q-6 25 -18 70.5t-23.5 101t-19.5 117t-8 117t12 100.5t43 71q39 33 87 25t75 -35q27 -29 33 -72t2 -88 t-13.5 -84t-15.5 -57q-10 -37 -23.5 -78t-29.5 -82q14 -82 25.5 -139t18.5 -99t12 -75t9 -66l7 2q23 0 27.5 -18t-15.5 -31l-12 -4q4 -68 6 -151.5t-13.5 -164.5t-55.5 -149.5t-118 -107.5q-25 -12 -63.5 -19.5t-81.5 -9.5t-85 1t-73 11q-61 12 -119.5 40t-101.5 65 t-65.5 83t-15.5 94t51 99t137 99q109 57 232.5 82.5t246.5 54.5q-8 59 -18.5 116.5t-20.5 110.5q-27 -41 -55.5 -78t-61.5 -65q-14 -12 -45 -35t-66.5 -40t-70.5 -21.5t-55 18.5q-47 51 -70 134t-37 175q-63 -27 -132 -9.5t-124 64t-90 114t-31 138.5zM66 655 q-2 -55 24.5 -111.5t71.5 -96t101 -56t116 7.5l-31 250q-10 96 -55 147.5t-94 54.5t-90 -45t-43 -151zM290 -345q11 -52 59 -98t113.5 -73t137.5 -31t129 27q55 29 90 82t53.5 120.5t21.5 145.5t-5 156q-98 -16 -212 -43t-218 -74q-106 -47 -143 -103.5t-26 -108.5z M471 1013q35 45 58 80t54 88q8 14 24.5 14.5t30 -8t20.5 -20.5t-1 -25q-37 -55 -80 -100t-72 -63q-18 -12 -31.5 2t-2.5 32zM897 752q0 -43 1 -72t3 -52.5t5 -45t7 -50.5q16 41 25 76q10 33 19.5 77t10.5 82t-9.5 65.5t-36.5 29.5q-8 0 -13.5 -15.5t-7.5 -34.5t-3 -37.5 t-1 -22.5z" />
<glyph unicode="&#xde;" horiz-adv-x="536" d="M13 524.5q-1 10.5 7.5 18.5t26.5 10q-2 90 -2 186.5t2 216.5q2 20 20.5 27.5t38 6.5t36 -12t16.5 -28v-391q53 -2 110.5 -13t104.5 -32.5t78.5 -53.5t35.5 -75q2 -39 -23.5 -75t-69.5 -63.5t-104.5 -44t-129.5 -18.5v-227q-4 -10 -21.5 -18.5t-37 -10.5t-36 5.5 t-16.5 29.5q-2 47 -2 106.5v123.5q-8 0 -12 2q-25 14 -17.5 32.5t29.5 14.5v260q-16 -2 -24.5 5t-9.5 17.5zM158 508l2 -277q43 2 88 14.5t81 32t56 47t16 62.5q-4 33 -27.5 55.5t-58 36t-76.5 20.5t-81 9z" />
<glyph unicode="&#xdf;" horiz-adv-x="632" d="M38 451.5q1 107.5 12 202t37 165t71 94.5q33 18 74.5 23.5t79.5 -3.5t66 -32.5t36 -64.5q6 -33 -4.5 -73t-27.5 -82t-38.5 -84t-39 -80t-28 -70.5t-4.5 -55.5q8 -25 48 -39t88.5 -30.5t94.5 -39t66 -63.5q14 -31 5 -66.5t-35.5 -69.5t-65.5 -61.5t-80 -39.5 q-14 -4 -24.5 1t-13.5 13t1 18.5t17 14.5q27 8 50 31.5t36.5 53t12.5 59.5t-23 54q-27 27 -63 38t-70.5 22.5t-65.5 30t-47 61.5q-14 47 6 105.5t46 123t41 132t-9 132.5q-49 0 -77 -47t-41 -124.5t-15 -176t1 -201t7 -200.5t4 -174q-4 -10 -20.5 -15.5t-37 -5.5t-38 5.5 t-19.5 17.5q2 39 -3 117.5t-8 177t-2 206z" />
<glyph unicode="&#xe0;" d="M14 188.5q-4 51.5 5 112t38 119.5q14 31 36 54.5t48.5 37.5t53 19.5t51.5 -1.5q31 -6 57.5 -19t46 -29.5t31.5 -33t14 -26.5q0 -12 -10 -23q2 -35 8 -77.5t15.5 -83.5t23.5 -75t35 -50q43 23 73.5 71.5t59.5 100.5q16 29 28.5 58.5t20.5 53.5q14 27 30.5 21t16.5 -33 q-10 -41 -35.5 -92t-60.5 -109q-37 -57 -75 -96t-85 -39q-53 0 -93 50.5t-66 127.5q-29 -57 -64 -98q-29 -35 -65.5 -60.5t-71.5 -13.5q-27 8 -44.5 45t-21.5 88.5zM134 237.5q1 -49.5 7 -90.5q49 86 72 163t43 155l-7 7t-7 5q-41 -18 -64.5 -57t-34 -86t-9.5 -96.5z M135 749.5q4 12.5 15 20.5t25.5 10.5t24.5 -6.5q29 -35 54.5 -76.5t37.5 -62.5q12 -23 -2 -37t-32 4q-27 27 -54.5 56.5t-62.5 70.5q-10 8 -6 20.5z" />
<glyph unicode="&#xe1;" d="M14 188.5q-4 51.5 5 112t38 119.5q14 31 36 54.5t48.5 37.5t53 19.5t51.5 -1.5q31 -6 57.5 -19t46 -29.5t31.5 -33t14 -26.5q0 -12 -10 -23q2 -35 8 -77.5t15.5 -83.5t23.5 -75t35 -50q43 23 73.5 71.5t59.5 100.5q16 29 28.5 58.5t20.5 53.5q14 27 30.5 21t16.5 -33 q-10 -41 -35.5 -92t-60.5 -109q-37 -57 -75 -96t-85 -39q-53 0 -93 50.5t-66 127.5q-29 -57 -64 -98q-29 -35 -65.5 -60.5t-71.5 -13.5q-27 8 -44.5 45t-21.5 88.5zM127 608q35 45 58 80t54 88q8 14 24.5 14.5t30 -8t20.5 -20.5t-1 -25q-37 -55 -80 -100t-72 -63 q-18 -12 -31.5 2t-2.5 32zM134 237.5q1 -49.5 7 -90.5q49 86 72 163t43 155l-7 7t-7 5q-41 -18 -64.5 -57t-34 -86t-9.5 -96.5z" />
<glyph unicode="&#xe2;" d="M14 188.5q-4 51.5 5 112t38 119.5q14 31 36 54.5t48.5 37.5t53 19.5t51.5 -1.5q31 -6 57.5 -19t46 -29.5t31.5 -33t14 -26.5q0 -12 -10 -23q2 -35 8 -77.5t15.5 -83.5t23.5 -75t35 -50q43 23 73.5 71.5t59.5 100.5q16 29 28.5 58.5t20.5 53.5q14 27 30.5 21t16.5 -33 q-10 -41 -35.5 -92t-60.5 -109q-37 -57 -75 -96t-85 -39q-53 0 -93 50.5t-66 127.5q-29 -57 -64 -98q-29 -35 -65.5 -60.5t-71.5 -13.5q-27 8 -44.5 45t-21.5 88.5zM117 624q10 20 22 51t24.5 61t25 51.5t24.5 25.5q10 2 18.5 2t18.5 -11q16 -16 32.5 -43.5t30 -54t22.5 -47 t11 -27.5q8 -25 -9.5 -31.5t-27.5 7.5q-14 18 -29.5 42.5t-33.5 53.5q-10 -23 -19.5 -47.5t-23.5 -50.5q-10 -14 -41 -16.5t-43 14.5q-8 8 -2 20zM134 237.5q1 -49.5 7 -90.5q49 86 72 163t43 155l-7 7t-7 5q-41 -18 -64.5 -57t-34 -86t-9.5 -96.5z" />
<glyph unicode="&#xe3;" d="M14 188.5q-4 51.5 5 112t38 119.5q14 31 36 54.5t48.5 37.5t53 19.5t51.5 -1.5q31 -6 57.5 -19t46 -29.5t31.5 -33t14 -26.5q0 -12 -10 -23q2 -35 8 -77.5t15.5 -83.5t23.5 -75t35 -50q43 23 73.5 71.5t59.5 100.5q16 29 28.5 58.5t20.5 53.5q14 27 30.5 21t16.5 -33 q-10 -41 -35.5 -92t-60.5 -109q-37 -57 -75 -96t-85 -39q-53 0 -93 50.5t-66 127.5q-29 -57 -64 -98q-29 -35 -65.5 -60.5t-71.5 -13.5q-27 8 -44.5 45t-21.5 88.5zM97 643q6 23 22.5 45.5t34.5 34.5q29 20 48.5 16t32.5 -18t23.5 -31.5t19.5 -27t18.5 -2t23.5 44.5 q12 20 30.5 15t18.5 -28q-41 -109 -91 -107.5t-104 85.5q-6 0 -15 -11.5t-13 -27.5q-10 -23 -31.5 -19t-17.5 31zM134 237.5q1 -49.5 7 -90.5q49 86 72 163t43 155l-7 7t-7 5q-41 -18 -64.5 -57t-34 -86t-9.5 -96.5z" />
<glyph unicode="&#xe4;" d="M14 188.5q-4 51.5 5 112t38 119.5q14 31 36 54.5t48.5 37.5t53 19.5t51.5 -1.5q31 -6 57.5 -19t46 -29.5t31.5 -33t14 -26.5q0 -12 -10 -23q2 -35 8 -77.5t15.5 -83.5t23.5 -75t35 -50q43 23 73.5 71.5t59.5 100.5q16 29 28.5 58.5t20.5 53.5q14 27 30.5 21t16.5 -33 q-10 -41 -35.5 -92t-60.5 -109q-37 -57 -75 -96t-85 -39q-53 0 -93 50.5t-66 127.5q-29 -57 -64 -98q-29 -35 -65.5 -60.5t-71.5 -13.5q-27 8 -44.5 45t-21.5 88.5zM124 661v2q2 23 15.5 33t28 8t25.5 -13t11 -32q-4 -18 -15 -26.5t-24.5 -8.5t-25.5 9.5t-15 27.5z M134 237.5q1 -49.5 7 -90.5q49 86 72 163t43 155l-7 7t-7 5q-41 -18 -64.5 -57t-34 -86t-9.5 -96.5zM259 668.5q3 13.5 12 21.5t22.5 10t25.5 -6q12 -16 9 -32.5t-13 -26t-24.5 -10.5t-24.5 16q-10 14 -7 27.5z" />
<glyph unicode="&#xe5;" d="M14 188.5q-4 51.5 5 112t38 119.5q14 31 36 54.5t48.5 37.5t53 19.5t51.5 -1.5q31 -6 57.5 -19t46 -29.5t31.5 -33t14 -26.5q0 -12 -10 -23q2 -35 8 -77.5t15.5 -83.5t23.5 -75t35 -50q43 23 73.5 71.5t59.5 100.5q16 29 28.5 58.5t20.5 53.5q14 27 30.5 21t16.5 -33 q-10 -41 -35.5 -92t-60.5 -109q-37 -57 -75 -96t-85 -39q-53 0 -93 50.5t-66 127.5q-29 -57 -64 -98q-29 -35 -65.5 -60.5t-71.5 -13.5q-27 8 -44.5 45t-21.5 88.5zM128 685.5q9 33.5 32.5 63.5t54.5 36q14 0 24 -10q49 -14 67.5 -45t10.5 -62t-43 -53.5t-90 -18.5 q-43 2 -54 29t-2 60.5zM134 237.5q1 -49.5 7 -90.5q49 86 72 163t43 155l-7 7t-7 5q-41 -18 -64.5 -57t-34 -86t-9.5 -96.5zM212.5 680.5q-10.5 -22.5 12.5 -32.5l-2 -2q14 4 26.5 14t17.5 20.5t-0.5 21.5t-25.5 17q-18 -16 -28.5 -38.5z" />
<glyph unicode="&#xe6;" horiz-adv-x="835" d="M14 188.5q-4 51.5 6.5 111.5t38.5 120q14 31 36 54.5t47.5 37.5t52 19.5t51.5 -1.5q31 -6 57.5 -19t46 -29.5t31.5 -33t14 -26.5q0 -12 -10 -23q4 -41 10 -92t21 -96q-6 68 6 139q12 72 41 112t62.5 53t67.5 4t55.5 -36.5t25.5 -70.5t-19 -97q-18 -41 -47.5 -80.5 t-60.5 -66.5q4 -29 18.5 -61.5t44.5 -43.5q35 10 70 35t63.5 57.5t52 66.5t38.5 63q14 29 27 58.5t22 53.5q14 27 30.5 21t16.5 -33q-10 -41 -35.5 -94.5t-60.5 -108.5q-23 -35 -59 -71.5t-78 -64.5t-89 -40t-92 4q-16 4 -29.5 15.5t-23.5 25.5q-6 -2 -23 -2q-53 0 -93 50.5 t-66 127.5q-29 -57 -64 -98q-29 -35 -65.5 -60.5t-71.5 -13.5q-27 8 -44.5 45t-21.5 88.5zM134 237.5q1 -49.5 7 -90.5q49 86 72 163t43 155l-7 7t-7 5q-41 -18 -64.5 -57t-34 -86t-9.5 -96.5zM543 231q18 20 36.5 47t32.5 58q16 37 10 68.5t-24 50.5q-18 -18 -29.5 -46 t-17.5 -59t-7 -61.5t-1 -57.5z" />
<glyph unicode="&#xe7;" horiz-adv-x="446" d="M8 219q-2 29 6.5 74t24.5 88t41.5 77t60.5 42q37 10 68 -24t39 -101q0 -12 -7.5 -19.5t-16.5 -7.5t-17 6t-10 19q-4 27 -9 41q-29 -39 -42 -94.5t-11 -96.5q4 -82 25.5 -125t56.5 -53q47 12 91 52t80 92.5t63.5 107.5t42.5 100q14 27 34.5 20t12.5 -32 q-18 -55 -47 -115.5t-67 -115t-83 -95.5t-96 -59q-6 -25 -9 -50.5t3 -35.5q4 -8 16 -12l25.5 -8.5t28 -9.5t24.5 -17q20 -25 8 -48.5t-38.5 -43t-58.5 -32.5t-48 -15q-27 -4 -31 17.5t18 31.5q23 4 55.5 17t47.5 34q-18 14 -43 18t-47 11q-25 6 -39.5 18t-20.5 30.5t-5 40 t5 44.5q-55 12 -92 68.5t-39 160.5z" />
<glyph unicode="&#xe8;" horiz-adv-x="444" d="M25 241.5q-2 55.5 8 108.5q12 72 40.5 112t62.5 53t68 4t55.5 -36.5t25.5 -70.5t-19 -97q-18 -41 -48 -80.5t-60 -66.5q4 -29 18 -61.5t45 -43.5q35 10 70 35t63.5 57.5t52 66.5t37.5 63t27.5 58.5t22.5 53.5q14 27 30.5 21t16.5 -33q-10 -41 -36 -94.5t-61 -108.5 q-23 -35 -58.5 -71.5t-77.5 -64.5t-89 -40t-92 4q-33 12 -55.5 46t-33.5 82t-13 103.5zM92 747.5q4 12.5 15 20.5t25.5 10.5t24.5 -6.5q29 -35 54.5 -76.5t37.5 -62.5q12 -23 -2 -37t-32 4q-27 27 -54.5 56.5t-62.5 70.5q-10 8 -6 20.5zM154 231q18 20 36.5 47t32.5 58 q16 37 10 68.5t-24 50.5q-18 -18 -29.5 -46t-17.5 -59t-7 -61.5t-1 -57.5z" />
<glyph unicode="&#xe9;" horiz-adv-x="444" d="M25 241.5q-2 55.5 8 108.5q12 72 40.5 112t62.5 53t68 4t55.5 -36.5t25.5 -70.5t-19 -97q-18 -41 -48 -80.5t-60 -66.5q4 -29 18 -61.5t45 -43.5q35 10 70 35t63.5 57.5t52 66.5t37.5 63t27.5 58.5t22.5 53.5q14 27 30.5 21t16.5 -33q-10 -41 -36 -94.5t-61 -108.5 q-23 -35 -58.5 -71.5t-77.5 -64.5t-89 -40t-92 4q-33 12 -55.5 46t-33.5 82t-13 103.5zM74 596q35 45 58 80t54 88q8 14 24.5 14.5t30 -8t20.5 -20.5t-1 -25q-37 -55 -80 -100t-72 -63q-18 -12 -31.5 2t-2.5 32zM154 231q18 20 36.5 47t32.5 58q16 37 10 68.5t-24 50.5 q-18 -18 -29.5 -46t-17.5 -59t-7 -61.5t-1 -57.5z" />
<glyph unicode="&#xea;" horiz-adv-x="444" d="M25 241.5q-2 55.5 8 108.5q12 72 40.5 112t62.5 53t68 4t55.5 -36.5t25.5 -70.5t-19 -97q-18 -41 -48 -80.5t-60 -66.5q4 -29 18 -61.5t45 -43.5q35 10 70 35t63.5 57.5t52 66.5t37.5 63t27.5 58.5t22.5 53.5q14 27 30.5 21t16.5 -33q-10 -41 -36 -94.5t-61 -108.5 q-23 -35 -58.5 -71.5t-77.5 -64.5t-89 -40t-92 4q-33 12 -55.5 46t-33.5 82t-13 103.5zM58 616q10 20 22 51t24.5 61t25 51.5t24.5 25.5q10 2 18.5 2t18.5 -11q16 -16 32.5 -43.5t30 -54t22.5 -47t11 -27.5q8 -25 -9.5 -31.5t-27.5 7.5q-14 18 -29.5 42.5t-33.5 53.5 q-10 -23 -19.5 -47.5t-23.5 -50.5q-10 -14 -41 -16.5t-43 14.5q-8 8 -2 20zM154 231q18 20 36.5 47t32.5 58q16 37 10 68.5t-24 50.5q-18 -18 -29.5 -46t-17.5 -59t-7 -61.5t-1 -57.5z" />
<glyph unicode="&#xeb;" horiz-adv-x="444" d="M25 241.5q-2 55.5 8 108.5q12 72 40.5 112t62.5 53t68 4t55.5 -36.5t25.5 -70.5t-19 -97q-18 -41 -48 -80.5t-60 -66.5q4 -29 18 -61.5t45 -43.5q35 10 70 35t63.5 57.5t52 66.5t37.5 63t27.5 58.5t22.5 53.5q14 27 30.5 21t16.5 -33q-10 -41 -36 -94.5t-61 -108.5 q-23 -35 -58.5 -71.5t-77.5 -64.5t-89 -40t-92 4q-33 12 -55.5 46t-33.5 82t-13 103.5zM65 663v2q2 23 15.5 33t28 8t25.5 -13t11 -32q-4 -18 -15 -26.5t-24.5 -8.5t-25.5 9.5t-15 27.5zM154 231q18 20 36.5 47t32.5 58q16 37 10 68.5t-24 50.5q-18 -18 -29.5 -46t-17.5 -59 t-7 -61.5t-1 -57.5zM200 670.5q3 13.5 12 21.5t22.5 10t25.5 -6q12 -16 9 -32.5t-13 -26t-24.5 -10.5t-24.5 16q-10 14 -7 27.5z" />
<glyph unicode="&#xec;" horiz-adv-x="348" d="M31 745.5q4 12.5 15 20.5t25.5 10.5t24.5 -6.5q29 -35 54.5 -76.5t37.5 -62.5q12 -23 -2 -37t-32 4q-27 27 -54.5 56.5t-62.5 70.5q-10 8 -6 20.5zM45 309v73t4 105q2 18 22.5 25.5t43 5.5t41 -12t18.5 -23q0 -18 -1 -63t-3 -98q2 -29 4 -63t6 -66.5t9.5 -62.5t11.5 -48 q23 20 46 50t43.5 59.5t36 55t21.5 38.5q12 29 26.5 58.5t22.5 53.5q12 27 29.5 21t17.5 -33q-10 -41 -35.5 -94t-60.5 -109q-12 -18 -37.5 -53t-57.5 -65.5t-66.5 -51t-65.5 -10.5q-25 6 -40 43t-23.5 84t-10.5 96t-2 84z" />
<glyph unicode="&#xed;" horiz-adv-x="348" d="M19 632q35 45 58 80t54 88q8 14 24.5 14.5t30 -8t20.5 -20.5t-1 -25q-37 -55 -80 -100t-72 -63q-18 -12 -31.5 2t-2.5 32zM45 309v73t4 105q2 18 22.5 25.5t43 5.5t41 -12t18.5 -23q0 -18 -1 -63t-3 -98q2 -29 4 -63t6 -66.5t9.5 -62.5t11.5 -48q23 20 46 50t43.5 59.5 t36 55t21.5 38.5q12 29 26.5 58.5t22.5 53.5q12 27 29.5 21t17.5 -33q-10 -41 -35.5 -94t-60.5 -109q-12 -18 -37.5 -53t-57.5 -65.5t-66.5 -51t-65.5 -10.5q-25 6 -40 43t-23.5 84t-10.5 96t-2 84z" />
<glyph unicode="&#xee;" horiz-adv-x="348" d="M-6 628q10 20 22 51t24.5 61t25 51.5t24.5 25.5q10 2 18.5 2t18.5 -11q16 -16 32.5 -43.5t30 -54t22.5 -47t11 -27.5q8 -25 -9.5 -31.5t-27.5 7.5q-14 18 -29.5 42.5t-33.5 53.5q-10 -23 -19.5 -47.5t-23.5 -50.5q-10 -14 -41 -16.5t-43 14.5q-8 8 -2 20zM45 309v73 t4 105q2 18 22.5 25.5t43 5.5t41 -12t18.5 -23q0 -18 -1 -63t-3 -98q2 -29 4 -63t6 -66.5t9.5 -62.5t11.5 -48q23 20 46 50t43.5 59.5t36 55t21.5 38.5q12 29 26.5 58.5t22.5 53.5q12 27 29.5 21t17.5 -33q-10 -41 -35.5 -94t-60.5 -109q-12 -18 -37.5 -53t-57.5 -65.5 t-66.5 -51t-65.5 -10.5q-25 6 -40 43t-23.5 84t-10.5 96t-2 84z" />
<glyph unicode="&#xef;" horiz-adv-x="348" d="M8 684v2q2 23 15.5 33t28 8t25.5 -13t11 -32q-4 -18 -15 -26.5t-24.5 -8.5t-25.5 9.5t-15 27.5zM45 309v73t4 105q2 18 22.5 25.5t43 5.5t41 -12t18.5 -23q0 -18 -1 -63t-3 -98q2 -29 4 -63t6 -66.5t9.5 -62.5t11.5 -48q23 20 46 50t43.5 59.5t36 55t21.5 38.5 q12 29 26.5 58.5t22.5 53.5q12 27 29.5 21t17.5 -33q-10 -41 -35.5 -94t-60.5 -109q-12 -18 -37.5 -53t-57.5 -65.5t-66.5 -51t-65.5 -10.5q-25 6 -40 43t-23.5 84t-10.5 96t-2 84zM143 691.5q3 13.5 12 21.5t22.5 10t25.5 -6q12 -16 9 -32.5t-13 -26t-24.5 -10.5t-24.5 16 q-10 14 -7 27.5z" />
<glyph unicode="&#xf0;" horiz-adv-x="585" d="M-33 615.5q-4 21.5 19 31.5q41 10 74.5 16.5t64.5 14.5q-14 82 -17.5 154.5t7.5 125.5q0 6 2 11q8 18 25.5 22t36 1t33.5 -11t17 -18q18 -43 32.5 -107.5t27.5 -138.5l139 37q23 0 28 -18.5t-16 -30.5l-143 -37q16 -96 25.5 -187.5t13.5 -148.5l6 -35q6 -29 16.5 -61.5 t21.5 -64.5t23.5 -58.5t22.5 -40.5q23 16 48.5 47t48 63.5t40 61t23.5 41.5q12 29 26.5 58.5t22.5 53.5q12 27 29.5 21t17.5 -33q-10 -41 -35.5 -94t-60.5 -109q-12 -18 -38 -53t-57.5 -66.5t-66.5 -51t-66 -9.5q-20 6 -41.5 44t-44.5 101q-8 -18 -29.5 -43.5t-45.5 -35.5 q-29 -12 -49.5 -4t-37 25t-27.5 41t-20 46q-23 72 -25.5 148.5t25.5 144.5q16 35 43 37t58 -14q-18 68 -31 135q-29 -6 -61.5 -13.5t-73.5 -15.5q-27 -4 -31 17.5zM151 266q9 -76 48 -133q16 25 24 65t8 83q-12 35 -25 69.5t-24 69.5l-18 16q-10 -10 -10 -28 q-12 -66 -3 -142z" />
<glyph unicode="&#xf1;" horiz-adv-x="669" d="M45 416v22.5t1 35t4 33.5t9 19q14 8 34 10.5t38.5 -2t32.5 -12.5t14 -16q-4 -59 -7 -115.5t1 -114.5q20 61 50 119t69 76q35 20 68.5 16t50.5 -10q31 -12 47 -62t27.5 -111.5t20.5 -119t25 -86.5q16 12 25 21q39 43 71.5 94t43.5 72q12 29 26.5 58.5t22.5 53.5 q12 27 29.5 21t17.5 -33q-10 -41 -35.5 -94t-60.5 -109q-10 -16 -32 -48t-50 -58q-35 -35 -64.5 -45.5t-52.5 -7.5q-27 2 -43 30.5t-28.5 70.5t-21.5 91t-16.5 92t-16.5 73t-21 36q-18 6 -36 -18.5t-33 -66.5t-29.5 -92.5t-25 -94.5t-16.5 -75.5t-8 -33.5 q-6 -10 -21.5 -16.5t-32 -7.5t-31.5 4t-19 20q-6 37 -11.5 85t-9.5 98t-5 101.5t-1 96.5zM197 602q6 23 22.5 45.5t34.5 34.5q29 20 48.5 16t32.5 -18t23.5 -31.5t19.5 -27t18.5 -2t23.5 44.5q12 20 30.5 15t18.5 -28q-41 -109 -91 -107.5t-104 85.5q-6 0 -15 -11.5 t-13 -27.5q-10 -23 -31.5 -19t-17.5 31z" />
<glyph unicode="&#xf2;" horiz-adv-x="475" d="M35 337.5q6 61.5 32.5 112.5t77.5 74q23 0 27 -20q47 6 92 -22.5t68 -69.5q20 -35 31.5 -75t11.5 -83q53 16 88 53t59 90q12 20 29.5 16.5t17.5 -28.5q-20 -63 -73.5 -115.5t-124.5 -68.5q-10 -51 -36 -93t-73 -61q-57 -25 -103 -5.5t-76 66t-42 107.5t-6 122.5z M125 745.5q4 12.5 15 20.5t25.5 10.5t24.5 -6.5q29 -35 54.5 -76.5t37.5 -62.5q12 -23 -2 -37t-32 4q-27 27 -54.5 56.5t-62.5 70.5q-10 8 -6 20.5zM166 262q4 -57 23.5 -104t54.5 -64h2q31 12 48 38t25 61q-43 0 -82.5 18t-70.5 51zM188 416q-12 -66 25 -115t113 -53 q-4 70 -39 120t-99 48z" />
<glyph unicode="&#xf3;" horiz-adv-x="475" d="M35 337.5q6 61.5 32.5 112.5t77.5 74q23 0 27 -20q47 6 92 -22.5t68 -69.5q20 -35 31.5 -75t11.5 -83q53 16 88 53t59 90q12 20 29.5 16.5t17.5 -28.5q-20 -63 -73.5 -115.5t-124.5 -68.5q-10 -51 -36 -93t-73 -61q-57 -25 -103 -5.5t-76 66t-42 107.5t-6 122.5zM84 612 q35 45 58 80t54 88q8 14 24.5 14.5t30 -8t20.5 -20.5t-1 -25q-37 -55 -80 -100t-72 -63q-18 -12 -31.5 2t-2.5 32zM166 262q4 -57 23.5 -104t54.5 -64h2q31 12 48 38t25 61q-43 0 -82.5 18t-70.5 51zM188 416q-12 -66 25 -115t113 -53q-4 70 -39 120t-99 48z" />
<glyph unicode="&#xf4;" horiz-adv-x="475" d="M35 337.5q6 61.5 32.5 112.5t77.5 74q23 0 27 -20q47 6 92 -22.5t68 -69.5q20 -35 31.5 -75t11.5 -83q53 16 88 53t59 90q12 20 29.5 16.5t17.5 -28.5q-20 -63 -73.5 -115.5t-124.5 -68.5q-10 -51 -36 -93t-73 -61q-57 -25 -103 -5.5t-76 66t-42 107.5t-6 122.5zM82 624 q10 20 22 51t24.5 61t25 51.5t24.5 25.5q10 2 18.5 2t18.5 -11q16 -16 32.5 -43.5t30 -54t22.5 -47t11 -27.5q8 -25 -9.5 -31.5t-27.5 7.5q-14 18 -29.5 42.5t-33.5 53.5q-10 -23 -19.5 -47.5t-23.5 -50.5q-10 -14 -41 -16.5t-43 14.5q-8 8 -2 20zM166 262q4 -57 23.5 -104 t54.5 -64h2q31 12 48 38t25 61q-43 0 -82.5 18t-70.5 51zM188 416q-12 -66 25 -115t113 -53q-4 70 -39 120t-99 48z" />
<glyph unicode="&#xf5;" horiz-adv-x="475" d="M35 337.5q6 61.5 32.5 112.5t77.5 74q23 0 27 -20q47 6 92 -22.5t68 -69.5q20 -35 31.5 -75t11.5 -83q53 16 88 53t59 90q12 20 29.5 16.5t17.5 -28.5q-20 -63 -73.5 -115.5t-124.5 -68.5q-10 -51 -36 -93t-73 -61q-57 -25 -103 -5.5t-76 66t-42 107.5t-6 122.5zM82 643 q6 23 22.5 45.5t34.5 34.5q29 20 48.5 16t32.5 -18t23.5 -31.5t19.5 -27t18.5 -2t23.5 44.5q12 20 30.5 15t18.5 -28q-41 -109 -91 -107.5t-104 85.5q-6 0 -15 -11.5t-13 -27.5q-10 -23 -31.5 -19t-17.5 31zM166 262q4 -57 23.5 -104t54.5 -64h2q31 12 48 38t25 61 q-43 0 -82.5 18t-70.5 51zM188 416q-12 -66 25 -115t113 -53q-4 70 -39 120t-99 48z" />
<glyph unicode="&#xf6;" horiz-adv-x="475" d="M35 337.5q6 61.5 32.5 112.5t77.5 74q23 0 27 -20q47 6 92 -22.5t68 -69.5q20 -35 31.5 -75t11.5 -83q53 16 88 53t59 90q12 20 29.5 16.5t17.5 -28.5q-20 -63 -73.5 -115.5t-124.5 -68.5q-10 -51 -36 -93t-73 -61q-57 -25 -103 -5.5t-76 66t-42 107.5t-6 122.5zM92 651 v2q2 23 15.5 33t28 8t25.5 -13t11 -32q-4 -18 -15 -26.5t-24.5 -8.5t-25.5 9.5t-15 27.5zM166 262q4 -57 23.5 -104t54.5 -64h2q31 12 48 38t25 61q-43 0 -82.5 18t-70.5 51zM188 416q-12 -66 25 -115t113 -53q-4 70 -39 120t-99 48zM227 658.5q3 13.5 12 21.5t22.5 10 t25.5 -6q12 -16 9 -32.5t-13 -26t-24.5 -10.5t-24.5 16q-10 14 -7 27.5z" />
<glyph unicode="&#xf7;" horiz-adv-x="397" d="M25 405.5q0 14.5 7 26.5t19 12l295 -14q12 0 20.5 -7t9.5 -16.5t-5 -16.5t-19 -9l-303 -16q-12 2 -18 14t-6 26.5zM156 528v9q2 16 12 23t22.5 6t21.5 -11t9 -29q-8 -29 -34.5 -28.5t-30.5 30.5zM162 274v2q2 18 13 25.5t23.5 6.5t22.5 -11.5t10 -28.5q-2 -14 -12 -20 t-21.5 -6t-22.5 8t-13 24z" />
<glyph unicode="&#xf8;" horiz-adv-x="475" d="M35 337.5q6 61.5 32.5 112.5t77.5 74q23 0 27 -20q47 6 92 -22.5t68 -69.5q20 -35 31.5 -75t11.5 -83q53 16 88 53t59 90q12 20 29.5 16.5t17.5 -28.5q-20 -63 -73.5 -115.5t-124.5 -68.5q-10 -51 -36 -93t-73 -61q-57 -25 -103 -5.5t-76 66t-42 107.5t-6 122.5zM96 -27 q8 18 21.5 46t39 90.5t67.5 176t112 306.5q12 23 30.5 17.5t18.5 -29.5q-53 -164 -113.5 -321t-126.5 -298q-10 -23 -31.5 -18.5t-17.5 30.5zM166 262q4 -57 23.5 -104t54.5 -64h2q31 12 48 38t25 61q-43 0 -82.5 18t-70.5 51zM188 416q-12 -66 25 -115t113 -53 q-4 70 -39 120t-99 48z" />
<glyph unicode="&#xf9;" horiz-adv-x="589" d="M49 399q2 20 20.5 27.5t41 5.5t41 -10t20.5 -19q2 -25 4 -62.5t6 -78.5t11.5 -82t19.5 -74q20 37 34.5 89.5t26 104.5t17.5 96t10 67v4q0 2 1 4t1 4q6 14 26.5 17.5t42 0t38 -12.5t18.5 -21q-4 -31 -5 -81t2 -104.5t10 -102.5t22 -73q6 -14 14 -18q23 16 46.5 45t43 59.5 t33.5 58t20 42.5q14 29 28.5 58.5t21.5 53.5q14 27 30.5 21t16.5 -33q-10 -41 -36 -94.5t-61 -108.5q-12 -20 -31.5 -50t-45 -57.5t-55 -47t-60.5 -15.5q-41 4 -67.5 46t-41.5 89q-4 -16 -16 -38.5t-29.5 -44t-38 -38t-41.5 -18.5q-31 -4 -53 16.5t-37.5 57.5t-25 83 t-14.5 91t-7 83t-2 60zM99 677.5q4 12.5 15 20.5t25.5 10.5t24.5 -6.5q29 -35 54.5 -76.5t37.5 -62.5q12 -23 -2 -37t-32 4q-27 27 -54.5 56.5t-62.5 70.5q-10 8 -6 20.5z" />
<glyph unicode="&#xfa;" horiz-adv-x="589" d="M49 399q2 20 20.5 27.5t41 5.5t41 -10t20.5 -19q2 -25 4 -62.5t6 -78.5t11.5 -82t19.5 -74q20 37 34.5 89.5t26 104.5t17.5 96t10 67v4q0 2 1 4t1 4q6 14 26.5 17.5t42 0t38 -12.5t18.5 -21q-4 -31 -5 -81t2 -104.5t10 -102.5t22 -73q6 -14 14 -18q23 16 46.5 45t43 59.5 t33.5 58t20 42.5q14 29 28.5 58.5t21.5 53.5q14 27 30.5 21t16.5 -33q-10 -41 -36 -94.5t-61 -108.5q-12 -20 -31.5 -50t-45 -57.5t-55 -47t-60.5 -15.5q-41 4 -67.5 46t-41.5 89q-4 -16 -16 -38.5t-29.5 -44t-38 -38t-41.5 -18.5q-31 -4 -53 16.5t-37.5 57.5t-25 83 t-14.5 91t-7 83t-2 60zM142 569q35 45 58 80t54 88q8 14 24.5 14.5t30 -8t20.5 -20.5t-1 -25q-37 -55 -80 -100t-72 -63q-18 -12 -31.5 2t-2.5 32z" />
<glyph unicode="&#xfb;" horiz-adv-x="589" d="M49 399q2 20 20.5 27.5t41 5.5t41 -10t20.5 -19q2 -25 4 -62.5t6 -78.5t11.5 -82t19.5 -74q20 37 34.5 89.5t26 104.5t17.5 96t10 67v4q0 2 1 4t1 4q6 14 26.5 17.5t42 0t38 -12.5t18.5 -21q-4 -31 -5 -81t2 -104.5t10 -102.5t22 -73q6 -14 14 -18q23 16 46.5 45t43 59.5 t33.5 58t20 42.5q14 29 28.5 58.5t21.5 53.5q14 27 30.5 21t16.5 -33q-10 -41 -36 -94.5t-61 -108.5q-12 -20 -31.5 -50t-45 -57.5t-55 -47t-60.5 -15.5q-41 4 -67.5 46t-41.5 89q-4 -16 -16 -38.5t-29.5 -44t-38 -38t-41.5 -18.5q-31 -4 -53 16.5t-37.5 57.5t-25 83 t-14.5 91t-7 83t-2 60zM136 588q10 20 22 51t24.5 61t25 51.5t24.5 25.5q10 2 18.5 2t18.5 -11q16 -16 32.5 -43.5t30 -54t22.5 -47t11 -27.5q8 -25 -9.5 -31.5t-27.5 7.5q-14 18 -29.5 42.5t-33.5 53.5q-10 -23 -19.5 -47.5t-23.5 -50.5q-10 -14 -41 -16.5t-43 14.5 q-8 8 -2 20z" />
<glyph unicode="&#xfc;" horiz-adv-x="589" d="M49 399q2 20 20.5 27.5t41 5.5t41 -10t20.5 -19q2 -25 4 -62.5t6 -78.5t11.5 -82t19.5 -74q20 37 34.5 89.5t26 104.5t17.5 96t10 67v4q0 2 1 4t1 4q6 14 26.5 17.5t42 0t38 -12.5t18.5 -21q-4 -31 -5 -81t2 -104.5t10 -102.5t22 -73q6 -14 14 -18q23 16 46.5 45t43 59.5 t33.5 58t20 42.5q14 29 28.5 58.5t21.5 53.5q14 27 30.5 21t16.5 -33q-10 -41 -36 -94.5t-61 -108.5q-12 -20 -31.5 -50t-45 -57.5t-55 -47t-60.5 -15.5q-41 4 -67.5 46t-41.5 89q-4 -16 -16 -38.5t-29.5 -44t-38 -38t-41.5 -18.5q-31 -4 -53 16.5t-37.5 57.5t-25 83 t-14.5 91t-7 83t-2 60zM141 604v2q2 23 15.5 33t28 8t25.5 -13t11 -32q-4 -18 -15 -26.5t-24.5 -8.5t-25.5 9.5t-15 27.5zM276 611.5q3 13.5 12 21.5t22.5 10t25.5 -6q12 -16 9 -32.5t-13 -26t-24.5 -10.5t-24.5 16q-10 14 -7 27.5z" />
<glyph unicode="&#xfd;" horiz-adv-x="655" d="M45 418q0 23 16.5 30t37 5t40 -11.5t27.5 -19.5q16 -45 41.5 -109.5t56.5 -103.5q12 18 22.5 48t17.5 62.5t12.5 67.5t7.5 66v14q6 18 25.5 24.5t41 4.5t38.5 -10.5t17 -16.5q0 -43 3.5 -96.5t7.5 -109.5t9 -111.5t11 -104.5q70 70 115 134.5t63 103.5q12 29 26.5 58.5 t23.5 53.5q12 27 29.5 21t17.5 -33q-12 -41 -36 -95t-61 -108q-45 -66 -85 -109.5t-83 -84.5v-2q18 -135 29.5 -232.5t13.5 -193.5q0 -45 -14 -84t-40.5 -69t-63.5 -45t-78 -11q-10 0 -20.5 2t-22.5 6l-17 6q-35 14 -77 45q-29 18 -52.5 44t-40 53.5t-22.5 55t2 54.5 q10 37 35.5 77t62.5 81t81 82t91 84l15 14q-4 23 -8.5 55.5t-8.5 67.5t-8 69.5t-6 59.5q-2 6 -2 20q-29 -55 -68 -83.5t-78 1.5q-53 43 -84.5 110t-50.5 120q-4 8 -5 15t-3 13q-4 10 -2 15zM111 548q35 45 58 80t54 88q8 14 24.5 14.5t30 -8t20.5 -20.5t-1 -25 q-37 -55 -80 -100t-72 -63q-18 -12 -31.5 2t-2.5 32zM158.5 -392.5q-11.5 -56.5 21.5 -105.5t119 -94q33 -12 55.5 -3t37 31.5t19.5 56.5t5 75q-4 76 -13.5 155.5t-21.5 172.5l-45 -37q-72 -70 -119 -132.5t-58.5 -119z" />
<glyph unicode="&#xfe;" horiz-adv-x="407" d="M16 211q-4 16 9.5 24.5t25.5 2.5q0 180 -2 359t0 359q2 23 19.5 29t38 3t37 -14t16.5 -24v-389q59 16 118.5 -36t77.5 -173q8 -59 -6 -110.5t-42.5 -91t-67.5 -64.5t-78 -27v-323q-4 -10 -22.5 -19.5t-38 -12.5t-35 4t-15.5 32v377q-23 37 -35 94zM160 504l2 -395 q25 4 48 25.5t39.5 55t24.5 74.5t2 84q-14 94 -47.5 134t-68.5 22z" />
<glyph unicode="&#xff;" horiz-adv-x="655" d="M45 418q0 23 16.5 30t37 5t40 -11.5t27.5 -19.5q16 -45 41.5 -109.5t56.5 -103.5q12 18 22.5 48t17.5 62.5t12.5 67.5t7.5 66v14q6 18 25.5 24.5t41 4.5t38.5 -10.5t17 -16.5q0 -43 3.5 -96.5t7.5 -109.5t9 -111.5t11 -104.5q70 70 115 134.5t63 103.5q12 29 26.5 58.5 t23.5 53.5q12 27 29.5 21t17.5 -33q-12 -41 -36 -95t-61 -108q-45 -66 -85 -109.5t-83 -84.5v-2q18 -135 29.5 -232.5t13.5 -193.5q0 -45 -14 -84t-40.5 -69t-63.5 -45t-78 -11q-10 0 -20.5 2t-22.5 6l-17 6q-35 14 -77 45q-29 18 -52.5 44t-40 53.5t-22.5 55t2 54.5 q10 37 35.5 77t62.5 81t81 82t91 84l15 14q-4 23 -8.5 55.5t-8.5 67.5t-8 69.5t-6 59.5q-2 6 -2 20q-29 -55 -68 -83.5t-78 1.5q-53 43 -84.5 110t-50.5 120q-4 8 -5 15t-3 13q-4 10 -2 15zM102 606v2q2 23 15.5 33t28 8t25.5 -13t11 -32q-4 -18 -15 -26.5t-24.5 -8.5 t-25.5 9.5t-15 27.5zM158.5 -392.5q-11.5 -56.5 21.5 -105.5t119 -94q33 -12 55.5 -3t37 31.5t19.5 56.5t5 75q-4 76 -13.5 155.5t-21.5 172.5l-45 -37q-72 -70 -119 -132.5t-58.5 -119zM237 613.5q3 13.5 12 21.5t22.5 10t25.5 -6q12 -16 9 -32.5t-13 -26t-24.5 -10.5 t-24.5 16q-10 14 -7 27.5z" />
<glyph unicode="&#x11e;" horiz-adv-x="958" d="M9 419.5q9 20.5 34 12.5q23 -10 50.5 -18t70.5 -11q-2 57 10 127t37 137.5t61.5 126t81.5 95.5t100.5 43t116.5 -29q55 -33 71.5 -80t4.5 -101t-49 -109.5t-87 -103.5t-109.5 -85t-116.5 -53q0 -4 1 -7.5t1 -7.5q14 -123 52 -183t91 -75q61 14 120.5 69.5t94.5 133.5 q0 51 6 96t29 84v2q10 20 29.5 25.5t39 2.5t35 -13.5t19.5 -20.5q2 -47 -7.5 -96t-29.5 -96q0 -57 9 -105.5t26 -120.5l61 23q25 0 29 -18.5t-17 -30.5l-61 -23l6 -24q33 -119 53.5 -240t-10.5 -238q-25 -92 -83 -148t-134 -83q-39 -12 -95 -18.5t-116 -6.5 q-72 -2 -139.5 14.5t-124.5 49.5q-82 47 -109.5 101.5t-16.5 110.5t53 112.5t99.5 106.5t122 93t121.5 72q59 31 122 56.5t126 51.5q-10 53 -20.5 94.5t-18.5 92.5q-78 -102 -160.5 -137t-151.5 -12.5t-117 98t-56 196.5q-47 0 -80.5 10.5t-58.5 22.5q-25 14 -16 34.5z M111.5 -466q-11.5 -50 11 -96t94.5 -83q66 -35 147.5 -43t158.5 11.5t136 68.5t82 131q23 94 6.5 208.5t-45.5 235.5q-61 -23 -122.5 -47t-120.5 -53q-45 -23 -101.5 -58.5t-106.5 -80.5t-89 -94.5t-50.5 -99.5zM285 420q70 23 141.5 77t117.5 119.5t54 131t-49 112.5 l-35 12q-53 -12 -95 -60t-72 -112.5t-45 -138.5t-17 -141zM349 1131q0 4 1 5t1 5q6 12 21 16t31.5 2t30 -10t15.5 -16q4 -27 13 -42.5t20 -25.5q20 14 36.5 39t24.5 53q14 20 31.5 16.5t17.5 -28.5q-16 -57 -51 -95t-74 -46.5t-72.5 20.5t-45.5 107z" />
<glyph unicode="&#x11f;" horiz-adv-x="559" d="M-70 -500q-12 45 4.5 95.5t50 101.5t82 102t98.5 98.5t99 88.5t88 73q-16 57 -26.5 105.5t-26.5 114.5q-8 -20 -28.5 -50t-46 -58t-56.5 -45t-57 -13q-27 6 -46.5 29.5t-29.5 58.5t-10 76.5t12 84.5q14 53 39.5 86t57.5 47.5t64.5 9.5t63.5 -26l-2 66q0 12 17.5 17t39 4 t41 -7t25.5 -18q4 -90 23.5 -189.5t48.5 -204.5q51 49 84.5 104.5t68.5 145.5q12 20 30.5 16.5t18.5 -28.5q-23 -55 -44 -96t-42.5 -75t-46 -61.5t-55.5 -56.5q33 -117 61.5 -227.5t36.5 -206.5q10 -106 -20.5 -176t-81.5 -107q-47 -35 -130 -44t-167 5.5t-151.5 54.5 t-86.5 105zM10 -410q-16 -63 15.5 -112t101.5 -78q156 -43 237.5 25.5t77.5 226.5q-4 92 -25.5 180t-47.5 178l-23 -18q-49 -43 -104.5 -94.5t-102.5 -105.5t-81.5 -106.5t-47.5 -95.5zM82 732q0 4 1 5t1 5q6 12 21 16t31.5 2t30 -10t15.5 -16q4 -27 13 -42.5t20 -25.5 q20 14 36.5 39t24.5 53q14 20 31.5 16.5t17.5 -28.5q-16 -57 -51 -95t-74 -46.5t-72.5 20.5t-45.5 107zM149 269q1 -48 19 -76q18 18 34.5 46.5t30 58.5t23.5 58.5t16 46.5q-12 12 -25.5 23.5t-27.5 19.5q-35 -20 -61 -96q-10 -33 -9 -81z" />
<glyph unicode="&#x130;" horiz-adv-x="661" d="M10 111q-2 23 14.5 29.5t32.5 -11.5q6 -16 29 -37.5t56.5 -38t73.5 -25t79 4.5q37 10 61.5 38.5t39 69.5t20.5 89.5t6 97.5q-53 -10 -117.5 -2t-122 34.5t-101.5 70.5t-58 110q-12 55 18.5 119.5t79.5 122t106.5 100.5t100.5 59q8 4 28.5 8t41 5t38 -2t21.5 -13 q12 -20 26.5 -78.5t26.5 -136.5t21.5 -163t9.5 -159q29 4 34 -16t-32 -35q2 -61 -6.5 -121.5t-28 -111.5t-50 -86t-73.5 -47q-41 -10 -92 -10.5t-96 10.5q-59 14 -112.5 48t-74.5 77zM82 553q12 -49 48 -87t83 -60.5t102.5 -30.5t106.5 4q0 70 -7 149.5t-17.5 152.5t-24 129 t-23.5 79q-33 0 -83 -37t-95 -90t-72.5 -110.5t-17.5 -98.5zM319 1085.5q3 12.5 12 19.5t22.5 8t25.5 -7q12 -16 9 -30.5t-13 -24t-24.5 -9.5t-24.5 17q-10 14 -7 26.5z" />
<glyph unicode="&#x131;" horiz-adv-x="348" d="M45 309v73t4 105q2 18 22.5 25.5t43 5.5t41 -12t18.5 -23q0 -18 -1 -63t-3 -98q2 -29 4 -63t6 -66.5t9.5 -62.5t11.5 -48q23 20 46 50t43.5 59.5t36 55t21.5 38.5q12 29 26.5 58.5t22.5 53.5q12 27 29.5 21t17.5 -33q-10 -41 -35.5 -94t-60.5 -109q-12 -18 -37.5 -53 t-57.5 -65.5t-66.5 -51t-65.5 -10.5q-25 6 -40 43t-23.5 84t-10.5 96t-2 84z" />
<glyph unicode="&#x152;" horiz-adv-x="1431" d="M10 467q4 92 40 193.5t108 170.5q43 43 94 66t106.5 27t111.5 -8.5t110 -36.5q72 -35 125 -82q39 31 91 52t105 31.5t101 11.5t81 -9q18 -16 11 -34t-29 -13l-23 4q-47 -4 -98 -18.5t-92 -38t-66.5 -54.5t-21.5 -67q2 -27 28.5 -43.5t61.5 -23.5t69.5 -8t53.5 1 q53 27 92 22.5t51.5 -20t-7 -32.5t-81.5 -17q-49 -16 -102 -46t-100.5 -67t-84 -78t-51 -82t-1 -78.5t64.5 -68.5q63 57 136 100t138 66q29 8 84 18t111.5 10t101.5 -17t51 -62q10 -53 -37 -100.5t-143 -76.5q-33 -10 -79 -20t-100 -17.5t-109.5 -8.5t-106.5 10 q-25 -18 -48.5 -48t-44 -70t-32.5 -88t-12 -102q0 -23 -19.5 -25.5t-30.5 15.5q-16 76 -2.5 163t78.5 183q-35 14 -65 35q-70 -49 -158 -72.5t-192 -5.5q-70 12 -122.5 55t-86 105.5t-49 140.5t-11.5 158zM137 372.5q10 -98.5 51 -175.5q14 -27 36 -53.5t48.5 -47t57 -33 t65.5 -12.5q53 4 102.5 20.5t94.5 45.5q-51 51 -47 114q-59 14 -119.5 44t-115 73t-97.5 97.5t-68 117.5q-18 -92 -8 -190.5zM244 730q-4 -42 5 -85t27 -82.5t43 -70.5q41 -57 105.5 -107.5t138.5 -81.5q33 68 110 130.5t183 103.5q-27 0 -63.5 5t-70.5 16t-59.5 32.5 t-29.5 56.5q-8 59 31 109q-57 53 -127 84.5t-146 31.5q-68 -16 -123 -67q-20 -33 -24 -75zM860 76q18 -6 44 -9.5t54 -5.5q63 2 129 14.5t119.5 33t88 50t34.5 68.5q-6 16 -25.5 24.5t-46.5 12.5q-37 -2 -71.5 -9t-63.5 -17q-68 -23 -136 -66t-126 -96z" />
<glyph unicode="&#x153;" horiz-adv-x="696" d="M35 337.5q6 61.5 32.5 113t77.5 73.5q23 0 27 -20q47 6 92 -22.5t68 -69.5q20 -35 31.5 -75t11.5 -83l14 6l2 -53l-20 -6q-10 -51 -36 -93t-73 -61q-57 -25 -103 -5.5t-76 66t-42 107.5t-6 122.5zM166 262q4 -57 23.5 -104t54.5 -64h2q31 12 48 38t25 61q-43 0 -82.5 18 t-70.5 51zM188 416q-12 -66 25 -115t113 -53q-4 70 -39 120t-99 48zM276.5 241.5q-2.5 55.5 8.5 108.5q12 72 40.5 112t62.5 53t67.5 4t55 -36.5t26 -70.5t-18.5 -97q-18 -41 -48 -80.5t-60 -66.5q4 -29 18 -61.5t45 -43.5q35 10 70 35t63.5 57.5t52 66.5t37.5 63t27.5 58.5 t21.5 53.5q14 27 31 21t17 -33q-10 -41 -36 -94.5t-61 -108.5q-23 -35 -58.5 -71.5t-77.5 -64.5t-89 -40t-92 4q-33 12 -55.5 46t-33.5 82t-13.5 103.5zM406 231q18 20 36.5 47t32.5 58q16 37 10 68.5t-24 50.5q-18 -18 -29.5 -46t-17.5 -59t-7 -61.5t-1 -57.5z" />
<glyph unicode="&#x15e;" horiz-adv-x="872" d="M8 163q-6 30 13.5 60.5t72.5 55.5q109 53 230.5 69.5t244.5 28.5q-63 55 -147 115.5t-162 146.5q-41 45 -49 90t8.5 84t52 69.5t78.5 47.5q57 23 124 15.5t110 -58.5q4 -12 1 -21.5t-11.5 -14.5t-17.5 -3t-17 12q-18 27 -57.5 32t-78 -7.5t-68.5 -42t-32 -70.5 q0 -41 51.5 -94t121 -105.5t139 -99.5t104.5 -78q12 2 31.5 3t35.5 5q25 4 30 -12t-21 -26q-6 -2 -18.5 -4.5t-18.5 -2.5q37 -51 50 -106t-17 -119q-29 -59 -109 -91t-180 -40q-4 -23 -5 -41t3 -29q4 -8 16 -12t25.5 -8t28 -9t24.5 -18q20 -25 8 -48t-38.5 -42.5t-58.5 -33 t-48 -15.5q-27 -4 -31 17.5t18 31.5q23 4 55.5 17.5t47.5 33.5q-18 14 -43 18.5t-47 10.5q-47 10 -56.5 47t-3.5 78q-86 2 -163.5 17.5t-135.5 43.5q-35 18 -59.5 45t-30.5 57zM76.5 173q5.5 -38 77.5 -73q47 -23 111.5 -36t133.5 -15q90 6 159.5 32t98.5 73q16 53 2 97 t-51 85q-121 -12 -243.5 -28.5t-221.5 -63.5q-72 -33 -66.5 -71z" />
<glyph unicode="&#x15f;" horiz-adv-x="430" d="M20 83q0 17 25 34q23 12 61.5 28.5t81.5 36.5q-18 18 -48.5 46t-58.5 62t-44.5 70.5t-3.5 71.5q6 20 34.5 37.5t66.5 30t78 19.5t69 5q12 -4 16 -12t2 -17.5t-11 -15.5t-22 -4h-6q-63 -12 -90 -26.5t-31 -31t9.5 -33.5t31.5 -36l109 -119q12 6 30.5 18.5t38 26t37 25.5 t25.5 20q41 33 59 78q12 20 29.5 16.5t17.5 -28.5q-8 -27 -28.5 -54.5t-48 -53t-60.5 -48t-63 -39.5q41 -47 53 -74.5t4 -52.5q-8 -31 -42 -45t-79 -18q-4 -23 -5 -42t3 -28q4 -8 16.5 -12t25.5 -8t27.5 -9t24.5 -18q20 -25 8 -48t-38.5 -42.5t-58.5 -33t-48 -15.5 q-27 -4 -31 17.5t19 31.5q23 4 55.5 17.5t46.5 33.5q-18 14 -42.5 18.5t-47.5 10.5q-27 6 -40 19.5t-19 32t-5 40t5 43.5q-37 6 -69 17.5t-50.5 26t-18.5 31.5zM72 82q2 -10 26.5 -18.5t55 -12.5t59.5 -1t41 18h2q12 16 -3 36.5t-28 36.5q-59 -23 -98 -36t-55 -23z" />
<glyph unicode="&#x178;" horiz-adv-x="1083" d="M8 655q4 88 35 144.5t78 83.5h-2q49 25 105.5 23.5t107.5 -31t89 -86t48 -138.5q10 -76 22.5 -164t26.5 -167.5t30.5 -141t37.5 -82.5q78 27 139 88.5t106 145.5q-6 25 -18 70.5t-23.5 101t-19.5 117t-8 117t12 100.5t43 71q39 33 87 25t75 -35q27 -29 33 -72t2 -88 t-13.5 -84t-15.5 -57q-10 -37 -23.5 -78t-29.5 -82q14 -82 25.5 -139t18.5 -99t12 -75t9 -66l7 2q23 0 27.5 -18t-15.5 -31l-12 -4q4 -68 6 -151.5t-13.5 -164.5t-55.5 -149.5t-118 -107.5q-25 -12 -63.5 -19.5t-81.5 -9.5t-85 1t-73 11q-61 12 -119.5 40t-101.5 65 t-65.5 83t-15.5 94t51 99t137 99q109 57 232.5 82.5t246.5 54.5q-8 59 -18.5 116.5t-20.5 110.5q-27 -41 -55.5 -78t-61.5 -65q-14 -12 -45 -35t-66.5 -40t-70.5 -21.5t-55 18.5q-47 51 -70 134t-37 175q-63 -27 -132 -9.5t-124 64t-90 114t-31 138.5zM66 655 q-2 -55 24.5 -111.5t71.5 -96t101 -56t116 7.5l-31 250q-10 96 -55 147.5t-94 54.5t-90 -45t-43 -151zM290 -345q11 -52 59 -98t113.5 -73t137.5 -31t129 27q55 29 90 82t53.5 120.5t21.5 145.5t-5 156q-98 -16 -212 -43t-218 -74q-106 -47 -143 -103.5t-26 -108.5z M462 1051v2q2 23 15.5 33t28 8t25.5 -13t11 -32q-4 -18 -15 -26.5t-24.5 -8.5t-25.5 9.5t-15 27.5zM597 1058.5q3 13.5 12 21.5t22.5 10t25.5 -6q12 -16 9 -32.5t-13 -26t-24.5 -10.5t-24.5 16q-10 14 -7 27.5zM897 752q0 -43 1 -72t3 -52.5t5 -45t7 -50.5q16 41 25 76 q10 33 19.5 77t10.5 82t-9.5 65.5t-36.5 29.5q-8 0 -13.5 -15.5t-7.5 -34.5t-3 -37.5t-1 -22.5z" />
<glyph unicode="&#x2c6;" horiz-adv-x="286" d="M27 651q10 20 22 51t24.5 61t25 51.5t24.5 25.5q10 2 18.5 2t18.5 -11q16 -16 32.5 -43.5t30 -54t22.5 -47t11 -27.5q8 -25 -9.5 -31.5t-27.5 7.5q-14 18 -29.5 42.5t-33.5 53.5q-10 -23 -19.5 -47.5t-23.5 -50.5q-10 -14 -41 -16.5t-43 14.5q-8 8 -2 20z" />
<glyph unicode="&#x2da;" horiz-adv-x="249" d="M32 701.5q9 33.5 32.5 63.5t54.5 36q14 0 24 -10q49 -14 67.5 -45t10.5 -62t-43 -53.5t-90 -18.5q-43 2 -54 29t-2 60.5zM116.5 696.5q-10.5 -22.5 12.5 -32.5l-2 -2q14 4 26.5 14t17.5 20.5t-0.5 21.5t-25.5 17q-18 -16 -28.5 -38.5z" />
<glyph unicode="&#x2dc;" horiz-adv-x="323" d="M27 643q6 23 22.5 45.5t34.5 34.5q29 20 48.5 16t32.5 -18t23.5 -31.5t19.5 -27t18.5 -2t23.5 44.5q12 20 30.5 15t18.5 -28q-41 -109 -91 -107.5t-104 85.5q-6 0 -15 -11.5t-13 -27.5q-10 -23 -31.5 -19t-17.5 31z" />
<glyph unicode="&#x2000;" horiz-adv-x="682" />
<glyph unicode="&#x2001;" horiz-adv-x="1365" />
<glyph unicode="&#x2002;" horiz-adv-x="682" />
<glyph unicode="&#x2003;" horiz-adv-x="1365" />
<glyph unicode="&#x2004;" horiz-adv-x="455" />
<glyph unicode="&#x2005;" horiz-adv-x="341" />
<glyph unicode="&#x2006;" horiz-adv-x="227" />
<glyph unicode="&#x2007;" horiz-adv-x="227" />
<glyph unicode="&#x2008;" horiz-adv-x="170" />
<glyph unicode="&#x2009;" horiz-adv-x="273" />
<glyph unicode="&#x200a;" horiz-adv-x="75" />
<glyph unicode="&#x2010;" horiz-adv-x="501" d="M127 405.5q0 14.5 7 26.5t20 12l295 -14q12 0 20 -7t9 -16.5t-5 -16.5t-18 -9l-303 -16q-12 2 -18.5 14t-6.5 26.5z" />
<glyph unicode="&#x2011;" horiz-adv-x="501" d="M127 405.5q0 14.5 7 26.5t20 12l295 -14q12 0 20 -7t9 -16.5t-5 -16.5t-18 -9l-303 -16q-12 2 -18.5 14t-6.5 26.5z" />
<glyph unicode="&#x2012;" horiz-adv-x="501" d="M127 405.5q0 14.5 7 26.5t20 12l295 -14q12 0 20 -7t9 -16.5t-5 -16.5t-18 -9l-303 -16q-12 2 -18.5 14t-6.5 26.5z" />
<glyph unicode="&#x2013;" horiz-adv-x="602" d="M127 405.5q0 16.5 7 30t20 13.5l370 -19q12 0 19.5 -7t8.5 -16.5t-5 -16.5t-19 -9l-376 -23q-12 2 -18.5 16.5t-6.5 31z" />
<glyph unicode="&#x2014;" horiz-adv-x="698" d="M127 405.5q0 16.5 7 30t20 13.5l469 -19q12 0 19 -7t8 -16.5t-5 -16.5t-18 -9l-475 -23q-12 2 -18.5 16.5t-6.5 31z" />
<glyph unicode="&#x2018;" horiz-adv-x="145" d="M26.5 657.5q-6.5 63.5 24.5 110.5q8 8 19.5 11t22.5 0t18.5 -10t7.5 -17q-23 -53 -31 -93.5t29 -87.5q10 -18 -3.5 -32.5t-31.5 -1.5q-49 57 -55.5 120.5z" />
<glyph unicode="&#x2019;" horiz-adv-x="145" d="M27 752q0 10 7 17t18 10t22.5 0t19.5 -11q31 -47 25 -110.5t-56 -120.5q-18 -12 -31.5 2t-2.5 32q18 23 24 44.5t4 43t-11 44t-19 49.5z" />
<glyph unicode="&#x201c;" horiz-adv-x="266" d="M26.5 657.5q-6.5 63.5 24.5 110.5q8 8 19.5 11t22.5 0t18.5 -10t7.5 -17q-23 -53 -31 -93.5t29 -87.5q10 -18 -3.5 -32.5t-31.5 -1.5q-49 57 -55.5 120.5zM145.5 657.5q-6.5 63.5 24.5 110.5q8 8 19.5 11t22.5 0t18.5 -10t7.5 -17q-23 -53 -32 -94.5t30 -86.5 q10 -18 -3.5 -32.5t-31.5 -1.5q-49 57 -55.5 120.5z" />
<glyph unicode="&#x201d;" horiz-adv-x="266" d="M29 752q0 10 7 17t18.5 10t22.5 0t19 -11q33 -47 26 -110.5t-54 -120.5q-18 -12 -33 2t-2 32q37 47 28 87.5t-32 93.5zM147 752q0 10 7.5 17t18.5 10t22.5 0t19.5 -11q31 -47 24.5 -110.5t-55.5 -120.5q-18 -12 -31.5 2t-0.5 32q37 47 27.5 87.5t-32.5 93.5z" />
<glyph unicode="&#x2022;" horiz-adv-x="313" d="M112 333.5q1 26.5 20.5 48t57.5 21.5q33 -6 51.5 -28.5t19.5 -48t-16.5 -47t-54.5 -27.5h-6q-37 6 -55 30.5t-17 51z" />
<glyph unicode="&#x2026;" horiz-adv-x="462" d="M45 68v4q2 23 15.5 33t27.5 8t25.5 -14.5t11.5 -32.5q-4 -18 -15.5 -26.5t-24.5 -8.5t-25.5 9t-14.5 28zM190 68v4q2 23 15.5 33t27.5 8t25.5 -14.5t11.5 -32.5q-4 -18 -15.5 -26.5t-24.5 -8.5t-25.5 9t-14.5 28zM336 68v4q2 23 15.5 33t27.5 8t25.5 -14.5t11.5 -32.5 q-4 -18 -15.5 -26.5t-24.5 -8.5t-25.5 9t-14.5 28z" />
<glyph unicode="&#x202f;" horiz-adv-x="273" />
<glyph unicode="&#x2039;" horiz-adv-x="296" d="M0 256q-2 25 17.5 72t48 100t60 103t56.5 81q23 16 37 1t-2 -35q-23 -33 -44 -72t-38.5 -80t-30 -81t-16.5 -77q-6 -49 37 -103t115 -120q16 -18 2.5 -32.5t-35.5 -4.5q-29 27 -63.5 53.5t-65.5 56t-52.5 63.5t-25.5 75z" />
<glyph unicode="&#x203a;" horiz-adv-x="333" d="M25.5 37q-13.5 14 1.5 33q20 18 41.5 31.5t41 27.5t39 31.5t35.5 42.5q25 35 19 79t-27.5 95t-52.5 106.5t-60 112.5q-6 23 10.5 33t30.5 -13q14 -27 54.5 -82t74 -120.5t47 -131t-23.5 -110.5q-41 -47 -96.5 -73.5t-100.5 -65.5q-20 -10 -33.5 4z" />
<glyph unicode="&#x205f;" horiz-adv-x="341" />
<glyph unicode="&#x20ac;" horiz-adv-x="645" d="M51 444.5q0 12.5 4 22.5t15 16q29 0 57.5 -2t56.5 0q6 92 22.5 166t47.5 111q39 45 83 41t82 -35t65.5 -78t35.5 -86q0 -23 -18.5 -26t-30.5 16q-2 12 -12 32.5t-24.5 42t-33 42t-36.5 32.5l-9 -12q-27 -41 -42 -106.5t-21 -139.5q70 2 137.5 3t132.5 5q12 0 19.5 -6 t8.5 -15t-5 -17.5t-19 -10.5q-70 -4 -138.5 -8t-139.5 -8v-44.5t2 -43.5q66 0 124 4t113 18q25 0 29 -18t-16 -31q-39 -8 -105.5 -19t-138.5 -18q10 -53 30.5 -106t73.5 -74q49 14 90 59.5t58 102.5q12 20 30.5 16t18.5 -28q-31 -102 -96.5 -152.5t-132 -47.5t-120.5 58.5 t-65 165.5q-35 0 -65.5 -3t-46.5 5q-12 6 -15.5 19.5t-0.5 26t11.5 19.5t20.5 3h92v37.5t2 42.5q-27 -4 -53.5 -4h-54.5q-10 2 -16.5 11t-6.5 21.5z" />
<glyph unicode="&#x25fc;" horiz-adv-x="532" d="M0 0v532h532v-532h-532z" />
</font>
</defs>
</svg>
