<?xml version="1.0" standalone="no"?>
<!DOCTYPE svg PUBLIC "-//W3C//DTD SVG 1.1//EN" "http://www.w3.org/Graphics/SVG/1.1/DTD/svg11.dtd" >
<svg xmlns="http://www.w3.org/2000/svg" xmlns:xlink="http://www.w3.org/1999/xlink" version="1.1">
<metadata></metadata>
<defs>
<font id="walt_disney_script_v4.1Rg" horiz-adv-x="1366" >
<font-face units-per-em="2048" ascent="1638" descent="-410" />
<missing-glyph horiz-adv-x="559" />
<glyph horiz-adv-x="0" />
<glyph unicode="&#xd;" horiz-adv-x="1064" />
<glyph unicode=" "  horiz-adv-x="559" />
<glyph unicode="&#x09;" horiz-adv-x="559" />
<glyph unicode="&#xa0;" horiz-adv-x="559" />
<glyph unicode="!" horiz-adv-x="348" d="M61 94q0 41 26 68.5t67 27.5q35 0 61.5 -26.5t26.5 -63.5q0 -35 -26 -61.5t-60 -26.5q-37 0 -66 23.5t-29 58.5zM90 815q0 41 1 87t1 112v69q0 37 -2 82q0 29 6 60.5t23 93.5q8 16 19.5 27.5t37.5 15.5q35 -10 66.5 -26.5t44.5 -45.5l-27 -119q-20 -86 -31.5 -167.5 t-15.5 -163.5q-4 -61 -6 -139t-2 -191v-92t2 -105q-6 -29 -26.5 -36t-41.5 -17q-8 6 -21.5 14.5t-17.5 22.5l-6 131v162q0 70 -2 123t-2 102z" />
<glyph unicode="&#x22;" horiz-adv-x="413" d="M27 1356q12 35 35.5 41t46.5 6q14 0 41.5 -10t31.5 -37q-6 -45 -11 -78t-11 -66.5t-16.5 -73.5t-26.5 -100q-10 -6 -19 -6q-10 0 -19 6t-13 21zM221 1356q12 35 36 41t46 6q14 0 42 -10t32 -37q-6 -45 -11.5 -78t-11.5 -66.5t-16 -73.5t-27 -100q-10 -6 -18 -6 q-10 0 -19.5 6t-13.5 21z" />
<glyph unicode="#" horiz-adv-x="1173" d="M66 801q0 29 18 51t47 29v-7q0 -8 9.5 -10t33.5 -8q45 -12 88 -20.5t84 -12.5l2 37v84q0 45 -4 90q4 12 33 19.5t49 7.5l37 2q33 0 33 -21v-2q2 -31 3 -61.5t1 -60.5v-52t-2 -47q47 0 94 3t94 7l2 58v71q0 37 -2 76q6 12 35 20.5t59 8.5q25 0 43.5 -6t22.5 -19l2 -139 l-2 -57q43 4 87 6t91 4q10 2 31 2q29 0 39 -8q10 -16 10 -53q0 -33 -8.5 -65t-26.5 -40q-41 6 -80 8t-80 2l-63 -4l-2 -182v-51q74 2 153 12q10 2 21 2h22q25 0 41.5 -6t18.5 -23q-6 -20 -10.5 -44.5t-9.5 -45t-13 -35t-23 -14.5q-53 -2 -101 -3t-95 -1q2 -51 6 -103.5 t10 -105.5q4 -20 7 -28.5t26 -8.5q-12 -29 -24.5 -43t-47.5 -14q-43 0 -79.5 24.5t-40.5 59.5q-6 55 -10.5 108.5t-6.5 106.5q-53 -2 -104 -2h-99q4 -49 11.5 -100.5t17.5 -104.5q2 -10 3 -17t1 -16q0 -29 -13 -40t-34 -11q-20 0 -42.5 8.5t-37.5 16.5q-23 10 -29 45 q-10 57 -14 111.5t-6 107.5q-99 0 -199 6q-29 20 -41 46t-12 50q0 47 33 68q10 4 23.5 6t29.5 2l55 -2q29 -2 55.5 -3t53.5 -3l4 209q-47 4 -95 12t-97 23q-47 12 -66.5 37.5t-19.5 52.5zM481 459q45 -2 88 -2h88h27v49l2 180l-194 -10q-4 -53 -7.5 -107.5t-3.5 -109.5z" />
<glyph unicode="$" horiz-adv-x="1173" d="M70 326q0 68 20.5 109.5t51 65t67.5 31t70 7.5q84 -1 143 -107q0 -23 -14.5 -39t-30.5 -16q-20 0 -33 24q-14 31 -28.5 50.5t-55.5 19.5h-18q-14 0 -34 -4t-36 -17.5t-28.5 -41t-12.5 -74.5q0 -43 33 -75t80 -56.5t102 -40t100 -23.5l9 561q-66 8 -123.5 23.5 t-101.5 42.5t-69.5 69t-25.5 107q0 66 24.5 119t68.5 95t103.5 71.5t129.5 48.5l2 100q14 29 49 29h6q25 0 42.5 -12.5t21.5 -30.5q0 -16 -1 -30.5t-1 -31.5q29 4 54 6.5t54 4.5l2 32q8 16 12.5 33t20.5 17q25 -2 51.5 -7.5t30.5 -23.5q0 -14 -1 -26.5t-1 -26.5 q82 -10 143.5 -48t93.5 -104q8 -16 9 -33q0 -41 -33 -69.5t-62 -28.5q-8 0 -12 2q29 20 29 53q0 25 -25 39q-12 6 -49 18.5t-96 22.5q-2 -96 -3 -198.5t-3 -206.5q63 -14 119.5 -37t99.5 -62t68.5 -97t25.5 -140q0 -59 -27.5 -115.5t-72.5 -104.5t-102.5 -87t-117.5 -66v-74 q-16 -23 -24 -31t-27 -8h-8q-41 2 -49 21.5t-12 52.5q-33 -8 -72 -8h-31v-27q-16 -23 -24.5 -31t-26.5 -8h-8q-16 0 -25.5 3.5t-21.5 13.5q-8 10 -10.5 25.5t-2.5 31.5v10q-66 14 -132 42t-120.5 67t-89 88t-34.5 111zM272 950q0 -70 51.5 -100.5t131.5 -46.5l4 338 q-76 -23 -131.5 -68t-55.5 -123zM567 131q55 4 97 14v25q0 88 3 177t5 149l4 174q-27 4 -52.5 8t-52.5 8q-2 -145 -2 -287q0 -139 -2 -268zM571 786q27 -4 52.5 -6t54.5 -6l8 395h-6q-47 0 -102 -6q-2 -90 -3.5 -184.5t-3.5 -192.5zM791 197q47 27 79.5 60.5t53 64t30 55.5 t9.5 37q0 96 -47.5 147t-120.5 78q-2 -115 -2 -227q0 -111 -2 -215z" />
<glyph unicode="%" horiz-adv-x="1490" d="M113 971q0 37 4 66.5t16 58t34.5 58.5t59.5 67q18 23 43 31t49 12q2 -2 5.5 -3t5.5 -6l-4 -55q0 -10 -4 -12q-23 -18 -44.5 -38t-39 -45.5t-27.5 -58t-10 -79.5q0 -90 61.5 -138.5t153.5 -48.5q35 0 68.5 14.5t59 41t41 61.5t15.5 78q0 41 -12 82q-37 4 -73 12.5 t-71 22.5q-18 4 -36.5 17t-34 29.5t-24.5 35t-9 32.5q0 43 35 60.5t82 17.5t106.5 -47t93.5 -125q141 4 275.5 59.5t241.5 149.5q6 6 16 6q12 0 28.5 -8t31 -21.5t24.5 -29t10 -27.5q0 -6 -2 -8q-123 -152 -240.5 -305.5t-233.5 -308t-231.5 -309t-238.5 -308.5 q-10 -12 -27 -12q-29 0 -58.5 25.5t-29.5 50.5q0 12 8 20q121 117 227.5 245t205 263t191.5 273.5t189 275.5q-86 -41 -179 -65.5t-187 -26.5q10 -41 10 -80q0 -59 -23.5 -109.5t-61.5 -86.5t-86 -55.5t-99 -19.5q-145 0 -225 76t-80 195zM410 1184q0 -10 12 -23.5t29 -21.5 q29 -12 56.5 -15.5t55.5 -7.5q-23 41 -53.5 66.5t-63.5 25.5q-20 0 -28 -7t-8 -17zM846 287q0 37 9 83t37 89t77 75.5t131 43.5q18 12 43.5 15t44.5 3q51 0 94 -28.5t73.5 -72.5t48 -99.5t17.5 -108.5q0 -59 -25.5 -109.5t-66.5 -86.5t-92 -56.5t-102 -20.5q-145 0 -217 77 t-72 196zM930 305q0 -90 52 -146.5t144 -56.5q35 0 73 16.5t69.5 45.5t52 65.5t20.5 79.5t-13 81t-34.5 65.5t-49 44t-56.5 16.5q-20 0 -31.5 -4t-15.5 -8l-90 -74q2 20 4 30.5t4 16.5t5 13.5t9 21.5q-8 -14 -16 -18q-29 -12 -51.5 -25.5t-40 -34t-26.5 -51.5t-9 -78z" />
<glyph unicode="&#x26;" horiz-adv-x="1292" d="M31 702q0 66 33.5 114t87 79t118 46t125.5 15q43 0 86 -5t84 -17q31 92 67 178t73 164q18 33 40 33q14 0 28.5 -15.5t26 -37t18.5 -44t7 -36.5q0 -4 -1 -7.5t-1 -5.5q-31 -20 -65.5 -102t-63.5 -197q43 -39 76 -98t53 -148q57 12 109.5 26.5t91.5 33t63.5 41t28.5 47.5 l2 18q0 16 -10 35h6q12 0 28.5 -12t31 -32.5t24.5 -44t10 -44.5q0 -37 -27.5 -67.5t-76.5 -57t-115.5 -48t-144.5 -36.5q6 -55 6 -117q0 -55 -6 -117.5t-22.5 -116.5t-44 -90t-68.5 -36q-68 0 -112 48t-68.5 116.5t-34 144.5t-11.5 131h-43q-78 0 -151.5 18.5t-131 52.5 t-92 83t-34.5 108zM137 696q0 -27 30 -48t72 -36.5t89 -23.5t82 -8h36q21 0 41 2q6 66 19.5 129t32.5 129q-57 14 -140 14q-39 0 -84 -8t-85 -27.5t-66.5 -49.5t-26.5 -73zM627 371q0 -127 16 -198t45 -71q14 0 26.5 20.5t21.5 52.5t14.5 71t5.5 76q0 78 -6 139 q-57 -8 -121 -12q-2 -20 -2 -41v-37zM641 592q23 2 45.5 4t44.5 6q-20 96 -61 152q-8 -41 -15.5 -81t-13.5 -81z" />
<glyph unicode="'" horiz-adv-x="251" d="M35 942q0 6 2 17.5t8 21.5t17.5 18.5t29.5 8.5q37 0 63.5 -15.5t43 -37t24.5 -45t8 -42.5q0 -41 -24.5 -70.5t-55 -50t-58 -29.5t-34.5 -9q-20 0 -20 22q0 16 8 27.5t17.5 20.5t17.5 16.5t8 17.5q0 18 -8 26.5t-19.5 18.5t-19.5 27.5t-8 56.5z" />
<glyph unicode="(" horiz-adv-x="407" d="M12 793q0 135 13.5 248.5t44 229t81 243.5t125.5 288l25 4q31 -18 37 -59q-92 -190 -138 -426t-46 -475q0 -94 13 -224t41 -262.5t71 -249t102 -180.5l6 -8l4 -8l-10 -111l-70 -65l-43 24q-74 96 -123 238.5t-78.5 291t-42 283t-12.5 218.5z" />
<glyph unicode=")" horiz-adv-x="415" d="M12 1696l23 57q80 -16 138 -67.5t99 -123t67 -156.5t40 -170t19 -161t5 -129q0 -139 -5 -304t-26.5 -330t-68.5 -314.5t-129 -259.5l-20 -2l-68 4l-51 88l10 70q47 45 84 120.5t63.5 170t45 199t28.5 204.5t15.5 191t5.5 159q0 98 -8.5 201.5t-32 199t-64.5 175 t-108 131.5z" />
<glyph unicode="*" horiz-adv-x="657" d="M18 1139q0 8 12.5 25.5t51.5 58.5q10 8 18 8q4 0 12.5 -4t26 -17.5t47 -38t76.5 -65.5l-2 84q0 14 3 31.5t16 64.5l102 37l6 -2l6 -4q8 -4 13.5 -10.5t5.5 -22.5q0 -14 -2 -22l-4 -17q-10 -29 -19.5 -70.5t-13.5 -70.5l43 22q29 16 64.5 30.5t109.5 45.5l31 -20l4 -29 l-250 -149l223 -189l2 -22l-25 -37q-4 -2 -12 -2q-10 0 -14 2l-24.5 24.5t-33 30.5t-54.5 46t-89 71l-12 -236q-4 -16 -14 -16q-29 0 -38.5 4t-11.5 14l-10 226l-24 -23l-35 -31.5t-27 -27t-26.5 -27.5t-32.5 -37q-14 -20 -37 -20q-37 23 -47 39t-10 34q0 25 8 39 q23 23 65.5 57.5t120.5 88.5l-31 22q-6 2 -41.5 22.5t-124.5 76.5q-2 2 -2 6z" />
<glyph unicode="+" horiz-adv-x="864" d="M53 801q0 29 12.5 51t32.5 29v-4q0 -8 6.5 -11.5t24.5 -9.5q55 -23 108.5 -31t106.5 -8q2 33 3 67t1 68q0 29 -1 57.5t-3 59.5q4 10 33 14t49 4h29q16 0 29.5 -2t13.5 -12v-2q2 -18 2 -37v-37q0 -45 -2 -86t-6 -82q55 8 110 14.5t115 8.5h2q6 2 20 2q20 0 29 -8 q6 -16 6 -53q0 -33 -6 -65t-18 -40q-29 6 -54.5 8t-54.5 2q-41 0 -80 -4t-80 -8v-27q0 -53 7.5 -106t25.5 -113q4 -16 4 -20q0 -18 -13 -25.5t-34 -7.5q-23 0 -44 5t-36 11q-23 6 -29 29q-14 66 -18 124t-4 118h-25q-49 0 -99 7t-103 30q-33 12 -46.5 37.5t-13.5 52.5z" />
<glyph unicode="," horiz-adv-x="294" d="M23 -6q0 20 3 42.5t15 41t35.5 30t62.5 11.5t65.5 -22.5t41 -51.5t20.5 -58.5t6 -43.5q0 -70 -43 -123t-114 -53q-29 0 -51.5 12t-32.5 41h10q47 0 86 29.5t39 76.5q0 27 -23 35q-10 0 -16 -8q-16 -16 -39 -16t-44 17t-21 40z" />
<glyph unicode="-" horiz-adv-x="688" d="M72 514q0 29 8 51.5t24 28.5v-6q0 -8 5.5 -10.5t17.5 -8.5q41 -23 79 -30t77 -7q70 0 138 15.5t142 17.5q4 2 15 2q14 0 20 -8q6 -16 6 -53q0 -33 -4 -64.5t-14 -40.5q-20 6 -41 8.5t-41 2.5l-240 -25q-37 0 -73.5 7t-75.5 30q-23 12 -33 37.5t-10 52.5z" />
<glyph unicode="." horiz-adv-x="225" d="M23 37q0 41 25.5 68.5t66.5 27.5q35 0 61.5 -26.5t26.5 -63.5q0 -35 -25.5 -61.5t-60.5 -26.5q-37 0 -65.5 23.5t-28.5 58.5z" />
<glyph unicode="/" horiz-adv-x="1124" d="M23 6q0 16 10 25q98 117 209.5 264t219 293.5t200 278.5t151.5 223l135 221q8 6 21 6q14 0 37.5 -13.5t46 -32t38 -40t15.5 -35.5q0 -8 -4 -10q-113 -135 -209 -262t-199.5 -272.5t-224.5 -318.5t-281 -401q-12 -14 -30 -14q-16 0 -40 8t-45.5 21.5t-35.5 29t-14 29.5z " />
<glyph unicode="0" horiz-adv-x="1376" d="M39 629q0 139 56.5 261t151.5 212t222 142t266 52q125 0 234.5 -53t190.5 -140t128 -201t47 -234q0 -133 -50 -254t-137 -213t-206 -146.5t-254 -54.5q-125 0 -241.5 50t-208 136t-145.5 200t-54 243zM172 686q0 -104 42 -197.5t112.5 -164t164 -111.5t197.5 -41 q106 0 197.5 43t157 115.5t103.5 167t38 198.5q0 115 -43 198t-129 155q-14 10 -39 26.5t-49.5 31.5t-43 26.5t-22.5 11.5h-18v-19q18 -18 37.5 -39.5t37 -48t28.5 -56.5t11 -67q-33 37 -72.5 71t-85.5 60.5t-95.5 43t-98.5 16.5q-43 0 -73.5 -14.5t-69.5 -24.5q-6 0 -6 4 t5 12.5t7 18.5h-14q-63 0 -114.5 -46t-88.5 -111.5t-56.5 -137.5t-19.5 -121z" />
<glyph unicode="1" horiz-adv-x="399" d="M6 993q0 6 2 8q66 31 117 103t59 168q14 31 54 31q25 0 59.5 -11.5t40.5 -29.5q4 -299 16.5 -606.5t18.5 -606.5q-16 -25 -25.5 -33t-32.5 -8q-16 0 -44.5 3t-41.5 12q-10 14 -12 33.5t-2 39.5q-4 221 -13 438.5t-16 438.5q-10 -16 -26 -27.5t-41 -11.5q-43 0 -67.5 14.5 t-43.5 36.5q-2 2 -2 8z" />
<glyph unicode="2" horiz-adv-x="1228" d="M37 80q2 29 20.5 53.5t44 43t54 31.5t51.5 21l440 420q25 23 63 64t73.5 89t61 99t25.5 96q0 27 -14 49.5t-35.5 39t-48.5 26.5t-51 12q-10 2 -19 2h-18q-90 0 -177 -33.5t-153 -86.5q-12 -12 -17 -34t-10 -43.5t-16.5 -36.5t-38.5 -15q-35 4 -46 34.5t-11 65.5 q0 16 1 28.5t3 22.5q8 74 47 123t95.5 80t125 44t136.5 13q18 0 35.5 -1t33.5 -3q57 -6 108.5 -28.5t89.5 -62.5t59.5 -95.5t21.5 -126.5q0 -59 -29 -123t-75 -127.5t-103 -126t-116.5 -119.5t-115 -108.5t-96.5 -92.5q10 -2 31.5 -4t46.5 -5t46.5 -5t29.5 -2 q45 -4 76.5 -13t63.5 -19.5t69 -17.5t92 -7l43 2q43 2 71.5 10t54 21.5t52.5 30t64 36.5q16 -4 19 -17.5t3 -35.5q-31 -37 -72 -71t-87 -60.5t-94 -42t-93 -17.5l-555 25q-25 0 -51.5 -10.5t-52 -22.5t-52 -22.5t-51.5 -10.5q-23 2 -38 20.5t-15 43.5z" />
<glyph unicode="3" horiz-adv-x="983" d="M41 287q0 45 3 65.5t15 20.5q10 0 27.5 -8.5t34.5 -36.5q57 -88 144 -138.5t206 -50.5q39 0 91 12.5t99.5 40t79 71.5t31.5 110q0 39 -5 66.5t-21.5 49t-46 41t-81.5 41.5q-57 -23 -116.5 -29.5t-120.5 -6.5q-49 0 -91 8t-73 23.5t-49 33.5t-18 41q0 41 36.5 65.5 t82.5 37t87 15.5t52 3q49 0 99 -6t99 -21q35 6 61.5 32t44 60.5t27 70.5t9.5 63q0 63 -33 104t-83 63.5t-113.5 31.5t-125.5 9q-39 0 -83 -7t-79 -19q-45 -20 -53 -29.5t-8 -17.5q0 -31 20.5 -53.5t34.5 -32.5q-12 -2 -22 -5.5t-25 -3.5q-47 0 -67.5 30t-20.5 73 q0 53 23.5 103t68.5 65q55 18 104.5 28.5t110.5 10.5q96 0 186.5 -16.5t162 -56.5t116.5 -107.5t49 -172.5q-2 -33 -13 -75.5t-31.5 -84.5t-50.5 -75t-66 -45q51 -29 87.5 -53.5t59.5 -58.5t33 -82t10 -122q0 -113 -45 -183t-114.5 -110t-154.5 -54.5t-167 -14.5 q-104 0 -182 30.5t-130.5 75t-79 93.5t-26.5 88zM276 653q59 -16 103 -16l108 10q-27 4 -61.5 12.5t-75.5 8.5q-47 0 -74 -15z" />
<glyph unicode="4" horiz-adv-x="833" d="M29 707q0 68 14 140.5t40 145t59.5 140t72.5 127.5q10 16 15.5 22t21.5 6q31 0 31 -39q0 -29 -13.5 -65.5t-23.5 -59.5q-31 -82 -52.5 -176t-21.5 -186q0 -41 5 -78t16 -72q59 -45 111 -67.5t106 -22.5q10 0 20 1t21 3l2 76v98q0 66 2 146t9 163t22.5 150.5t42 111.5 t67.5 44q59 0 97 -43t59.5 -111.5t30 -154.5t8.5 -170t-5.5 -148.5t-23 -113t-51 -82t-93.5 -58.5q4 -113 13.5 -216t42.5 -212q2 -4 2 -14q0 -16 -10.5 -37t-32.5 -31h-12q-41 0 -87.5 14.5t-56.5 41.5q-4 14 -8 47.5t-7 78t-5 95.5t-2 104v53q0 27 2 52h-27 q-121 0 -211 32.5t-172 126.5q-18 63 -18 138zM602 948q0 -55 1 -113.5t2 -111.5t3 -96t4 -68q18 20 28.5 56t16 76t7.5 82t2 75q0 43 -2 90t-8.5 91t-16.5 79t-27 51q-6 -25 -8 -82t-2 -129z" />
<glyph unicode="5" horiz-adv-x="1085" d="M41 334q0 82 47 124t117 42t147.5 -42t141.5 -130q0 -27 -31 -43.5t-60 -16.5q-27 0 -36 11q-25 27 -52.5 52t-55.5 45.5t-55.5 33t-47.5 12.5q-25 0 -40.5 -18.5t-15.5 -65.5q0 -55 52.5 -93t122 -62.5t135 -36t94.5 -11.5q125 0 201.5 37t118.5 89t55.5 108.5 t13.5 97.5q0 80 -38 128t-100.5 74.5t-142.5 36t-166 9.5q-39 0 -76.5 -1t-74.5 -3q-25 -2 -51.5 -20.5t-48.5 -20.5l-29 -2q-10 0 -20.5 2t-22.5 12q-6 57 -11.5 108.5t-5.5 100.5q0 59 10.5 122.5t33.5 137.5q-41 10 -67 41t-36 65l14 13l66 12q4 0 50 1t118 2t160 3 t174 5t161.5 6.5t124.5 7.5h15q20 0 28 -7q27 -18 41.5 -54t18.5 -70q-12 -12 -31 -15q-29 -4 -96.5 -6t-140 -4t-134 -3t-79.5 -3l-234 -2q-25 -29 -34 -97.5t-9 -134.5q0 -29 1 -52t3 -40q20 14 89 21.5t169 7.5q90 0 183.5 -16.5t169 -62.5t124 -129t48.5 -216 q0 -117 -53.5 -197t-128 -129t-156.5 -71.5t-140 -22.5q-63 0 -154 20.5t-174 61.5t-141.5 102.5t-58.5 145.5z" />
<glyph unicode="6" horiz-adv-x="1009" d="M35 377q0 131 31.5 261t91 249t146.5 222t198 179q23 16 48 25.5t46 9.5q29 0 29 -23q0 -16 -8.5 -30.5t-14.5 -20.5q-53 -51 -98 -103t-84 -110q-100 -145 -160.5 -324.5t-60.5 -365.5q0 -41 10 -89t31.5 -90t54.5 -70.5t80 -28.5q53 0 106 41q-4 16 -11 55t-13 104 q-4 39 -5 57.5t-2 31t-1 22.5t-3 35q4 76 27 164t66 163.5t108.5 126t157.5 50.5q53 0 87 -24t54.5 -60.5t27.5 -82.5t7 -92q0 -141 -77 -285.5t-230 -275.5l18 -61l2 -14q0 -43 -30.5 -80t-65.5 -37q-18 0 -35.5 13t-30.5 46l-12 41q-78 -31 -155 -31q-90 0 -152.5 33 t-101.5 88.5t-57.5 128t-18.5 152.5zM631 362q0 -8 1 -24t3 -34.5t6 -34t8 -19.5q80 102 131 198.5t51 202.5q0 10 -2 39t-8 59.5t-17 54t-30 23.5q-37 0 -53 -30.5t-27 -59.5q-18 -53 -30.5 -95t-19.5 -84t-10 -88t-3 -108z" />
<glyph unicode="7" horiz-adv-x="1032" d="M33 1229q0 12 9 26.5t24.5 24.5t34 17.5t36.5 7.5h15q70 -6 138 -21.5t136 -32t136.5 -31t137.5 -18.5q35 -2 53.5 -3t28.5 -1q6 0 8.5 1t6.5 1q12 18 21 34.5t23.5 29t36 20.5t56.5 8q29 0 49.5 -21.5t20.5 -49.5q0 -27 -4.5 -51.5t-24.5 -41.5q-23 -16 -46.5 -24 t-39.5 -12q-145 -211 -226 -456t-104 -495q-2 -20 -11 -43.5t-23.5 -44t-32 -34t-35.5 -13.5q-35 0 -60.5 17.5t-25.5 58.5q0 119 30.5 247t80.5 256t115 252t132 236q-84 0 -184.5 7t-184.5 24q-59 10 -116.5 19.5t-112.5 15.5q-6 0 -14 -10.5t-16.5 -22.5t-16.5 -23.5 t-12 -11.5q-8 0 -15.5 22.5t-12.5 51.5t-8 54.5t-3 29.5z" />
<glyph unicode="8" horiz-adv-x="1021" d="M45 367q0 55 29.5 100t81 85t117 75t137.5 65q-139 53 -227.5 126t-88.5 165q0 74 34 135.5t92.5 105.5t134 67.5t159.5 23.5q92 0 175 -23.5t146.5 -66.5t101.5 -100.5t38 -125.5q0 -55 -30 -100t-79 -81t-115.5 -65.5t-140.5 -54.5q66 -20 132.5 -45.5t118.5 -63.5 t85 -94.5t33 -140.5q0 -78 -33 -140t-92 -106.5t-142 -68t-182 -23.5q-109 0 -198.5 26t-153 72t-98.5 110.5t-35 142.5zM193 365q0 -35 21.5 -72t64.5 -65.5t109.5 -47t158.5 -18.5q33 0 79 10t89 32.5t72.5 56.5t29.5 83q0 61 -32.5 109.5t-80 85t-102.5 63t-100 49.5 q-61 -29 -117.5 -58.5t-99.5 -63t-67.5 -74.5t-24.5 -90zM233 977q0 -27 24 -56.5t62.5 -60.5t89 -61.5t105.5 -57.5q63 31 120.5 62t100.5 62.5t68.5 65.5t25.5 70q0 33 -19 70t-53 67.5t-80 51t-99 20.5h-15q37 -41 63.5 -69.5t26.5 -57.5v-6q-20 16 -44.5 36t-52.5 36 t-58.5 26.5t-61.5 10.5q-12 0 -21 -5t-17.5 -12.5t-16.5 -12.5t-19 -5q-4 0 -4 6q0 8 3.5 19.5t5.5 15.5q-45 -12 -72 -41t-40 -61.5t-17.5 -64.5t-4.5 -48z" />
<glyph unicode="9" horiz-adv-x="888" d="M33 831q0 106 47 198.5t119.5 160t158.5 106.5t164 39q88 0 151.5 -32.5t102.5 -88t57.5 -128t18.5 -152.5q-4 -129 -36 -259t-91 -249t-144 -222.5t-196 -180.5q-23 -16 -48.5 -25.5t-45.5 -9.5q-4 2 -4 12q0 23 18.5 61.5t40.5 61.5q76 84 139.5 182t108.5 205.5 t69.5 222.5t24.5 232q0 123 -48 190.5t-132 67.5q-160 0 -252 -108.5t-92 -291.5q0 -78 29.5 -135t89.5 -57q78 2 129 14t85.5 37t56 62.5t40.5 89.5q4 6 14 22t58 27q-6 -76 -35 -141.5t-80 -114.5t-122 -78t-159 -29q-59 0 -103 25.5t-74 68.5t-45 99.5t-15 117.5z" />
<glyph unicode=":" horiz-adv-x="276" d="M23 152q0 51 32.5 85.5t83.5 34.5q45 0 78 -32q35 -35 35 -80t-31 -76q-33 -39 -80 -39t-82.5 29.5t-35.5 77.5zM23 496q0 51 32.5 85.5t83.5 34.5q47 0 80 -31.5t33 -82.5q0 -45 -31 -76q-29 -35 -80 -35q-47 0 -82.5 29t-35.5 76z" />
<glyph unicode=";" horiz-adv-x="317" d="M45 -6q0 20 3 42.5t15.5 41t36 30t62.5 11.5t65.5 -22.5t41 -51.5t20.5 -58.5t6 -43.5q0 -70 -43 -123t-115 -53q-29 0 -51.5 12t-32.5 41h10q47 0 86 29.5t39 76.5q0 27 -22 35q-10 0 -16 -8q-16 -16 -39 -16t-44.5 17t-21.5 40zM51 532q0 53 32 87t85 34q45 0 78 -32.5 t33 -79.5q0 -43 -33 -78t-76 -35q-47 0 -83 29.5t-36 74.5z" />
<glyph unicode="&#x3c;" horiz-adv-x="0" d="M-285 854q0 41 25.5 68.5t66.5 27.5q35 0 62 -26.5t27 -63.5q0 -35 -26 -61.5t-60 -26.5q-37 0 -66 23.5t-29 58.5z" />
<glyph unicode="=" horiz-adv-x="1095" d="M63 434q0 29 16.5 51.5t43.5 28.5v-6q0 -8 7 -10t30 -9q70 -23 134 -29.5t130 -6.5q119 0 234.5 15t244.5 17q6 2 12 2h15q25 0 35 -8q8 -14 8 -53q0 -33 -7.5 -64.5t-23.5 -39.5q-35 6 -69.5 8t-69.5 2q-102 0 -202.5 -12.5t-207.5 -12.5q-61 0 -124.5 7.5t-129.5 29.5 q-41 12 -58.5 38t-17.5 52zM88 705q0 29 15.5 51t41.5 28v-6q0 -8 8.5 -10t28.5 -8q70 -23 134.5 -30t129.5 -7q117 0 233 15.5t243 17.5q8 2 24 2q25 0 35 -8q8 -14 8 -54q0 -33 -7 -64.5t-24 -39.5q-35 6 -68.5 8t-68.5 2q-100 0 -200.5 -12t-204.5 -12q-61 0 -125 7 t-129 29q-41 12 -57.5 38t-16.5 53z" />
<glyph unicode="&#x3e;" horiz-adv-x="73" />
<glyph unicode="?" horiz-adv-x="727" d="M23 1174q0 43 35.5 78.5t90 61t116 40t112.5 14.5q68 0 127 -22.5t104 -63.5t71 -96.5t26 -120.5q0 -37 -23 -81t-56.5 -95t-73.5 -107.5t-74 -118t-56.5 -125t-22.5 -128.5q0 -86 93 -86h14l6 -41l-18 -25l-13 -4q-31 -8 -47 -8q-63 0 -115.5 43t-52.5 121q0 104 47 198 t103.5 177t103.5 155t47 131q0 23 -9 49.5t-30.5 49t-54.5 38t-82 15.5q-10 0 -52 -3t-88 -11.5t-83 -24t-37 -39.5q0 -16 20.5 -36.5t69.5 -45.5q-41 -20 -78 -21q-31 0 -53 13.5t-37.5 33t-22.5 42t-7 43.5zM297 41q0 41 25.5 68.5t66.5 27.5q35 0 61.5 -26.5t26.5 -63.5 q0 -35 -25.5 -61.5t-60.5 -26.5q-37 0 -65.5 23.5t-28.5 58.5z" />
<glyph unicode="@" horiz-adv-x="1353" d="M129 563q0 127 49 258t131 236.5t190.5 173t227.5 67.5q143 0 246.5 -55t168 -149.5t95.5 -219t31 -264.5q0 -31 -9.5 -77t-35 -89t-69.5 -73.5t-112 -30.5q-78 0 -137 41q-31 -39 -76 -61.5t-104 -22.5q-141 0 -213 89t-72 239q0 39 16.5 91t54.5 98t102.5 78t162.5 32 l-12 -13q-10 -16 -27.5 -38.5t-31.5 -32.5q-12 -8 -39 -23.5t-53.5 -41t-47 -62.5t-20.5 -88q0 -225 178 -226q33 0 60.5 15.5t50.5 40.5q-47 72 -72 164t-25 178q0 18 3 34.5t3 22.5q0 8 9.5 21.5t22.5 25.5t28.5 20.5t27.5 8.5q39 0 68 -23.5t47.5 -63.5t27.5 -94.5 t9 -117.5q0 -102 -37 -185q31 -31 70 -30q82 0 106.5 56t24.5 155q0 141 -34 243.5t-90 169t-132 98t-162 31.5q-104 0 -189 -49t-144.5 -133t-92.5 -197.5t-33 -242.5q0 -229 109.5 -359.5t337.5 -130.5q39 0 93 7.5t110.5 24.5t107.5 45t82 69q39 23 72 22q47 0 47 -32 q0 -2 -4 -15q-41 -86 -106.5 -136t-139.5 -77.5t-146.5 -36t-127.5 -8.5q-133 0 -239 44t-181.5 127t-115.5 203t-40 269zM815 819q6 -125 41 -215q6 -14 12 -29.5t15 -31.5q16 49 16 90q0 25 -3 64.5t-10 77.5t-18.5 66.5t-25.5 28.5q-16 0 -21.5 -20.5t-5.5 -30.5z" />
<glyph unicode="A" horiz-adv-x="1112" d="M27 709q0 66 75 88q31 156 84.5 282.5t124 216.5t158.5 139.5t188 49.5q82 0 142.5 -38t102.5 -102.5t68.5 -150.5t42 -183.5t20.5 -199.5t7 -199q47 31 67.5 49.5t20.5 40.5q0 10 -2 17q35 0 50.5 -15.5t15.5 -37.5q0 -23 -14.5 -48.5t-39 -44t-49 -36t-49.5 -31.5 q-2 -55 -3 -104.5t-1 -90.5v-321q0 -12 -5 -34t-11 -24q-25 -4 -45.5 -6t-38.5 -2q-43 0 -76 13q-12 45 -34.5 100t-52.5 112.5t-65.5 113.5t-72.5 106q-29 -4 -56.5 -8.5t-56.5 -8.5q-66 4 -134.5 18.5t-131.5 49.5v-21l-4 -428q-8 -29 -32.5 -35t-53.5 -6h-76 q-16 0 -24.5 13.5t-8.5 29.5q0 8 2 15q2 102 4.5 201.5t2.5 201.5q0 51 2 101.5t6 97.5q-47 68 -47 119zM262 545q66 -47 141.5 -66.5t157.5 -19.5q-72 80 -145.5 138.5t-139.5 78.5q-4 -33 -8 -64.5t-6 -66.5zM297 793q10 -2 21.5 -3.5t21.5 -5.5q86 -37 182 -116.5 t189 -190.5q41 10 79.5 20.5t77.5 26.5q2 45 4 96.5t2 104.5q0 106 -9 216t-34.5 198t-70.5 143t-117 55q-55 0 -106.5 -41t-96.5 -113.5t-81.5 -173t-61.5 -216.5zM774 397q23 -29 42.5 -57.5t39.5 -58.5v49q0 27 6 94q-23 -8 -44 -14.5t-44 -12.5z" />
<glyph unicode="B" horiz-adv-x="1484" d="M-100 915q0 16 2 24.5t6 23.5q78 98 181.5 178t207.5 143q141 86 292.5 143.5t313.5 57.5q66 0 142.5 -15.5t143 -48t110.5 -82t44 -116.5q0 -129 -38.5 -217t-102.5 -166q45 -27 91 -67t83 -89t60.5 -104.5t23.5 -110.5q0 -158 -77.5 -260.5t-197.5 -161.5t-263.5 -83.5 t-274.5 -24.5q-47 0 -110.5 5t-122 24.5t-99.5 56t-41 100.5l21 326q-14 14 -31.5 34.5t-34 39t-28 34.5t-11.5 27q4 45 32 79.5t54 69.5q0 20 1.5 53t1.5 70q0 39 -3.5 79t-11.5 75t-23.5 60.5t-39.5 37.5q-41 -29 -72 -50.5t-55.5 -44t-46 -47t-43.5 -59.5 q-6 -10 -14.5 -25.5t-26.5 -15.5q-20 0 -31.5 14.5t-11.5 32.5zM377 1171q31 -37 47 -75.5t24.5 -79.5t12.5 -84t12 -86q78 27 184.5 45t202.5 18q74 0 133.5 -11t87.5 -21q53 51 88 124.5t35 145.5q0 57 -28.5 94t-72.5 58.5t-95.5 29.5t-96.5 8q-172 0 -364 -71 q-10 -4 -38 -14.5t-56.5 -25t-52 -29t-23.5 -26.5zM461 389l2 -84q27 16 66.5 27.5t82.5 19.5t83 11.5t69 3.5q25 0 54.5 -5.5t29.5 -31.5q0 -12 -27.5 -19.5t-68.5 -13.5t-89.5 -14.5t-90.5 -23.5t-70.5 -37.5t-30.5 -57.5q0 -23 29.5 -35t66.5 -18.5t73 -7.5t48 -1 q80 0 185.5 22.5t200.5 69t162 119t67 174.5q0 29 -3.5 60t-21.5 60.5t-56 60t-106 59.5q-29 -29 -61.5 -58.5t-67.5 -50.5q-16 -10 -47 -25t-63.5 -31.5t-60.5 -30t-34 -15.5q-14 -6 -56 -15t-90 -19.5t-90 -18.5t-59 -12q-18 -10 -22 -25.5t-4 -36.5zM479 696l2 -75 q12 -4 28.5 -5.5t27.5 -1.5q27 0 92 17.5t136 42t131 50.5t77 40q-47 16 -103.5 20t-76.5 4q-57 0 -127 -16t-109 -29q-14 -4 -37.5 -16t-40.5 -31z" />
<glyph unicode="C" horiz-adv-x="1253" d="M31 635q0 86 18.5 181t61.5 188.5t111.5 177.5t169 148.5t234.5 102t308 37.5q33 0 80 -12t93 -36.5t85 -60.5t57 -83q4 -12 6 -27.5t2 -29.5q0 -238 -95 -341.5t-279 -103.5q-47 0 -78 19.5t-49.5 50.5t-25.5 69.5t-7 79.5q0 27 18.5 58.5t47 59.5t64.5 47.5t73 19.5h8 q-47 -57 -75 -98.5t-28 -75.5v-35q0 -18 2.5 -33.5t10.5 -28t25.5 -18.5t45.5 -6q100 0 163 71.5t63 210.5q0 49 -19.5 82t-50.5 52.5t-68.5 27.5t-74.5 8q-174 0 -311.5 -56t-232.5 -150.5t-146.5 -217t-51.5 -258.5q0 -129 51.5 -231t126 -174t158.5 -110t150 -38 q57 0 123.5 8.5t134 22.5t130 32t111.5 34q25 -20 34 -39t9 -35q0 -10 -2 -22.5t-6 -24.5q-49 -29 -116.5 -55.5t-142.5 -48t-149.5 -34t-135.5 -12.5q-113 0 -225.5 49.5t-203 141.5t-146.5 222t-56 294z" />
<glyph unicode="D" horiz-adv-x="1798" d="M-236 1286q0 47 26 80t66 54.5t92 34.5t104 19.5t101.5 7.5t84.5 1q139 0 304 -38t316 -91q76 -29 174 -77t200.5 -112.5t201 -144.5t176.5 -171t125 -191.5t47 -204.5q0 -139 -68.5 -243t-179.5 -172.5t-249 -102t-277 -33.5q-72 0 -151 10t-148 20q-4 -16 -9.5 -33.5 t-15.5 -52.5q-18 -4 -34.5 -6t-37.5 -2l-47 4q-23 29 -33 71t-20 89q-141 82 -231.5 149.5t-130.5 114.5q-35 37 -68 84t-33 94t68 95q72 53 170 85.5t250 59.5l4 84q0 8 5 47t13 86t20.5 89t30.5 59q29 -23 45.5 -47.5t25.5 -50t13 -56.5t6 -66q2 -31 4.5 -62.5t6.5 -66.5 h28q35 0 92.5 -4t122 -13t130 -26.5t118.5 -44t86 -65.5t33 -90q0 -18 -12.5 -43t-33 -46.5t-45 -37t-50.5 -15.5q-18 0 -46 7.5t-44 19.5q23 27 50 49.5t38 42.5q-16 18 -61.5 36.5t-106 34t-128 26t-128.5 10.5q-20 0 -30.5 -2t-23.5 -7l2 -442q49 -31 103.5 -38t93.5 -7 q55 0 129 4t150.5 19.5t150.5 42t132.5 71.5t94 109.5t35.5 157.5q0 90 -35.5 173t-96 157.5t-141.5 140t-170 121t-182.5 100.5t-179.5 78q-182 70 -359 104.5t-380 34.5q-41 0 -84 -4t-84 -15q-47 -10 -47 -24q0 -6 11.5 -10.5t24.5 -7.5t25.5 -5t16.5 -4q10 -6 10 -16 q0 -9 -8 -17q-6 0 -19.5 -1t-29.5 -1q-35 0 -67 6.5t-32 26.5zM100 426q0 -20 15.5 -43t39 -44.5t49 -42t48.5 -36.5q49 -41 117.5 -73.5t140.5 -49.5l18 398h-22q-66 -8 -137.5 -15.5t-131 -20t-98.5 -29.5t-39 -44z" />
<glyph unicode="E" horiz-adv-x="1067" d="M18 395q0 74 15.5 144.5t47.5 131t80 107.5t113 76q-41 47 -73.5 110.5t-36.5 129.5q4 104 55 179t129 123t174 70.5t193 22.5q61 0 118.5 -10.5t112.5 -28.5q45 -14 68.5 -64.5t23.5 -103.5q0 -23 -5 -46.5t-15 -42.5t-26.5 -32.5t-41.5 -13.5q-14 0 -24.5 3t-22.5 5 q6 6 16.5 19.5t18.5 30t14 35t6 34.5q0 8 -8 17t-53 30q-35 12 -87 19.5t-91 7.5q-61 0 -127 -16.5t-119 -49.5t-88 -82t-35 -113q0 -53 16.5 -103t51.5 -73q49 14 99 20.5t99 6.5q43 0 85 -5t83 -18q57 -16 73.5 -34.5t16.5 -63.5q0 -29 -9 -48t-34.5 -32.5t-70.5 -19.5 t-117 -6q-61 0 -120.5 7t-116.5 30q-10 -4 -23 -13q-55 -18 -91 -51t-56.5 -75t-28.5 -92t-8 -101q0 -84 36.5 -149.5t95 -110.5t133.5 -67.5t152 -22.5q92 0 181.5 40.5t150.5 104.5q45 45 62 45q12 0 15 -20.5t3 -65.5q0 -72 -49 -109q-47 -37 -86 -63.5t-79 -45 t-84 -26.5t-99 -8q-111 0 -216.5 31t-195.5 90q-100 53 -150.5 150.5t-50.5 205.5zM537 823l108 -10q43 0 103 16q-27 14 -74 15q-41 0 -76 -8.5t-61 -12.5z" />
<glyph unicode="F" horiz-adv-x="1081" d="M25 1374q0 14 3 29.5t13 29t28.5 23.5t51.5 14q10 2 20 3h21q49 0 100 -12.5t99.5 -33t89.5 -48t71 -58.5q51 4 101.5 5t97.5 5q63 4 152.5 8t224.5 4q37 0 73.5 -4t67.5 -17t50.5 -37.5t19.5 -65.5q0 -25 -12.5 -43.5t-31 -30.5t-41 -18.5t-42.5 -6.5q-25 0 -39 8 q23 20 52.5 33t29.5 29q0 23 -30 26t-58 3q-66 0 -121 -1t-115.5 -3.5t-132.5 -5.5t-172 -5q43 -61 73.5 -115.5t51 -112.5t33 -121.5t18.5 -143.5l74 -4q14 0 38.5 -1t49 -2.5t45.5 -1.5h31q16 0 29.5 -9t22.5 -22.5t14 -28.5t5 -26q0 -29 -9 -36t-28 -13q-10 16 -24 17 h-240v-299q0 -53 -2 -102.5t-12 -84.5q-20 -76 -68.5 -124t-128.5 -48q-20 0 -44.5 24.5t-30.5 45.5q-29 86 -38.5 199.5t-9.5 212.5q0 76 3.5 132t3.5 74q-33 4 -71 16.5t-67 31.5q-18 14 -45.5 42.5t-29.5 63.5q57 -10 112.5 -24.5t108.5 -18.5q4 141 9 240.5t42 183.5 q8 -74 11 -144.5t5 -130t2 -102.5v-57q20 -2 29.5 -3t15.5 -1h17h33q-4 74 -6.5 140.5t-13.5 125.5t-35.5 115.5t-69.5 111.5h-205q-29 0 -75 14.5t-89 39t-74.5 55t-31.5 61.5zM113 1380q0 -23 28.5 -36t64.5 -20t67.5 -9t37.5 -2l101 2q-27 20 -62 37.5t-69.5 28 t-64.5 16.5t-48 6q-37 0 -46 -6t-9 -17zM532 526q0 -51 2 -110.5t5.5 -121t10.5 -111.5t17.5 -81.5t24.5 -31.5q10 0 17 27.5t11.5 71.5t5.5 101.5t2 115.5t1 112q0 55 2 96l-99 12v-80z" />
<glyph unicode="G" horiz-adv-x="1200" d="M43 408q0 143 41 278t114.5 255t175 220.5t222.5 172t256 111.5t276 40q72 0 138.5 -19.5t119 -56.5t83 -89t30.5 -120q0 -49 -31.5 -86t-78.5 -37q-33 0 -60 23.5t-35 54.5q18 -4 33.5 -8t28.5 -4q41 0 41 53q0 27 -18.5 51.5t-50.5 44t-74 30.5t-87 11 q-125 0 -243.5 -34.5t-223 -94t-188.5 -136.5t-141 -161q-72 -106 -116 -242.5t-44 -287.5q0 -70 28.5 -121t75.5 -85t108.5 -50.5t127.5 -16.5q76 0 151.5 29t134 79t95.5 120.5t37 156.5v19q0 8 -2 18q-111 -49 -230 -69.5t-241 -20.5q-23 0 -58 8.5t-66.5 25.5t-54 44 t-22.5 64q0 55 39 93t98.5 61.5t132 34.5t140.5 11q74 0 142 -17.5t146 -64.5q18 6 39 19.5t39 25.5q0 6 -11 18.5t-11 20.5q6 14 18 15q6 0 8 -2q45 -23 55.5 -47.5t10.5 -49.5q0 -41 -24.5 -75.5t-65.5 -63.5q20 -76 20 -154q0 -104 -42 -189t-112.5 -145.5t-165 -92 t-198.5 -31.5q-111 0 -204 26.5t-160.5 84t-106.5 144.5t-39 208zM397 598q25 -4 63 -6t72 -2h33q16 0 29 2q51 4 92 7t75 6t64.5 9.5t65.5 16.5q-25 14 -52.5 24.5t-53 16.5t-46 9t-30.5 3q-39 0 -87.5 -3t-93.5 -12.5t-81 -25.5t-50 -45z" />
<glyph unicode="H" horiz-adv-x="1241" d="M23 610q0 57 30.5 110.5t81.5 80.5l4 6v520l-4 70q10 25 48 40t73 15q18 0 33.5 -5t19.5 -17l-8 -629l4 -6q96 -35 207 -99.5t213 -142.5l4 -2q61 8 111.5 17.5t79.5 17.5h2q20 4 34 10l2 6v205v123v129t-1 144.5t-1 168.5v72q18 16 52 27.5t65 11.5q18 0 33.5 -5 t21.5 -16v-620v-101q0 -47 -2 -94l9 -8q72 25 127 55.5t61 75.5q29 -12 42 -21.5t13 -39.5q0 -23 -6 -44.5t-35 -41.5q-41 -25 -94 -53.5t-113 -51.5l-4 -6q-4 -123 -7 -241.5t-9 -247.5v-72q0 -8 -29.5 -10t-54.5 -2q-20 0 -46 1t-30 7q-4 4 -4 12q0 6 -2 29 q0 104 -65.5 207.5t-167.5 199.5l-6 2q-59 -16 -113.5 -22t-95.5 -6q-53 0 -101.5 1t-93.5 5l-6 -6l-4 -385q0 -23 -17.5 -34t-46.5 -11q-31 0 -55.5 2t-26.5 16l-4 469l-4 6q-37 20 -59 49q-55 55 -55 129zM295 528l6 -6q16 -2 35 -2h39q70 0 143 6l4 13 q-53 35 -106.5 62.5t-108.5 51.5l-8 -6zM877 428l36 -39l31 -33l10 4q2 23 2 46v47l-8 6q-16 -6 -33.5 -11.5t-35.5 -9.5z" />
<glyph unicode="I" horiz-adv-x="751" d="M49 57q0 27 21.5 41.5t50.5 14.5q16 0 28.5 -5.5t18.5 -19.5q-31 -4 -31 -31q0 -29 45 -63.5t123 -36.5q74 0 117 53t66.5 136t30.5 185.5t7 200.5q0 66 -2 123.5t-2 104.5q0 102 -2 200.5t-6 175t-10 125t-15 54.5q-29 -10 -38 -79t-12 -177.5t-5 -247.5t-12 -289 l-2 -28q0 -66 24 -222q-70 98 -90 254t-20 377v80q0 59 3 141t15.5 156t36 126t64.5 52q39 0 67.5 -9t49 -26.5t34.5 -44t29 -63.5q2 -4 11 -51t19.5 -138.5t19.5 -222.5t9 -303q0 -66 -5 -144.5t-19.5 -157.5t-41 -151.5t-70.5 -129t-105.5 -90t-147.5 -33.5q-49 0 -95 13 t-81 36.5t-56.5 53.5t-21.5 60z" />
<glyph unicode="J" horiz-adv-x="1226" d="M90 -43q0 74 54.5 127t142.5 87t197.5 50.5t220.5 16.5q33 0 65.5 -2.5t63.5 -6.5q8 39 15 110t11 146.5t6 141t2 96.5v6q0 113 -2 220.5t-12 190.5t-31.5 133t-64.5 50q-18 0 -40 -33t-43.5 -84t-41 -114.5t-33.5 -124t-23.5 -113.5t-9.5 -82q0 -25 2 -56.5t12.5 -64.5 t31 -62.5t57.5 -49.5q-12 -4 -30.5 -6.5t-35.5 -2.5q-4 0 -7 1t-7 1q-80 16 -117 101.5t-37 197.5q0 92 22.5 206t65.5 213.5t103.5 167t134.5 67.5q47 0 78.5 -11.5t54.5 -33t40 -50t34 -65.5q6 -14 15 -50t18.5 -113t17.5 -202.5t12 -318.5q0 -27 -2 -88t-7 -131 t-12 -135.5t-16 -98.5q78 -29 129.5 -73t57.5 -101q-49 23 -106.5 40.5t-117.5 29.5q-31 -80 -77.5 -152.5t-110 -130t-145.5 -91.5t-183 -34q-84 0 -148.5 31t-110.5 75t-69.5 92t-23.5 83zM201 -61q0 -12 14 -42t44 -62t75.5 -55.5t111.5 -23.5t120.5 29t98.5 78 t76.5 112.5t57.5 135.5q-41 4 -77 6t-67 2q-129 0 -216 -11.5t-140 -34t-75.5 -56t-22.5 -78.5z" />
<glyph unicode="K" horiz-adv-x="1118" d="M20 655q0 115 70 174v347l-2 36v183q2 27 25.5 34t52.5 7q23 0 48.5 -15.5t27.5 -56.5l18 -485q72 -4 162 -32t182 -83q66 51 124 114.5t116 133.5q16 18 40.5 57t48 85t41 92t17.5 77q0 41 -35 41q-16 0 -31.5 -7t-19.5 -42l-24 45q0 6 5 21.5t16 32t29.5 28.5t43.5 12 q18 0 38.5 -9t38 -23.5t30 -35t12.5 -40.5q0 -98 -27 -192.5t-75 -181.5t-114.5 -162t-148.5 -132q88 -74 163 -177.5t122 -240.5q8 -23 15 -55.5t12.5 -69.5t8.5 -72.5t3 -66.5t-3 -51.5t-14 -20.5q-31 0 -46 18.5t-19 34.5q-20 94 -60.5 182.5t-92.5 166t-113.5 145.5 t-122.5 123q-72 -33 -148 -50.5t-155 -17.5l8 -350l6 -168q-10 -47 -40 -61.5t-63 -14.5q-16 0 -47.5 7.5t-40.5 44.5l-10 139l-2 459q-29 14 -49.5 28.5t-20.5 44.5zM266 772l6 -143q106 6 201 53q-43 31 -80 55q-31 18 -60.5 26.5t-56.5 8.5h-10z" />
<glyph unicode="L" horiz-adv-x="983" d="M33 133q0 45 16.5 88t43 77t59 53.5t65.5 19.5q59 0 94 -7.5t66 -15.5q23 59 38 136t25.5 154t14.5 146.5t4 114.5q0 82 -11.5 159t-26.5 144.5t-30.5 123.5t-25.5 101q0 39 10 51.5t49 12.5q70 0 108.5 -39t57 -97.5t22.5 -126t4 -122.5q0 -106 -11 -205.5t-30.5 -196 t-45 -192t-56.5 -193.5q61 -31 131 -68.5t139.5 -83.5t132 -101.5t109.5 -116.5q12 -16 12 -27q0 -20 -29.5 -27.5t-64.5 -7.5q-16 0 -50 9.5t-62 25.5q-45 25 -93.5 63t-95.5 76.5t-93 74.5t-87 57q-41 -100 -100.5 -154.5t-151.5 -54.5q-57 0 -97 38.5t-40 110.5zM127 145 q0 -29 12.5 -51t38.5 -22q37 0 87 35.5t77 125.5q-35 23 -61.5 27t-44.5 4q-35 0 -72 -31.5t-37 -87.5z" />
<glyph unicode="M" horiz-adv-x="1546" d="M61 442q0 98 6.5 193.5t15.5 179.5t19.5 153.5t20.5 116.5q12 53 29.5 127t50.5 140.5t84 113.5t129 47q53 0 92 -36.5t53 -90.5l270 -1001h21l291 1020q6 23 24.5 39t41 26.5t46 15.5t43.5 5q51 0 84 -42t50.5 -100.5t24.5 -120t11 -98.5q0 -4 1 -7t1 -7v-776 q0 -10 -1 -44t-4 -73t-6 -75.5t-5 -55.5v-2q0 -4 -1 -20.5t-4 -36t-11 -34.5t-23 -15q-18 0 -35.5 20.5t-31 48t-21.5 54t-8 40.5l-37 1141l-20 2q-4 -31 -18.5 -89t-33 -133t-40 -157t-40.5 -157q-23 -86 -39 -154l-24 -102q-8 -31 -26.5 -88.5t-46 -113.5t-63.5 -97 t-79 -41q-33 0 -54.5 12t-43.5 41q-10 18 -34 66.5t-48.5 104.5t-46 108.5t-27.5 74.5q-6 25 -18.5 77t-31 122t-39 147.5t-42 150.5t-43 134t-37.5 96l-18 -2q-80 -340 -114 -669.5t-42 -647.5q0 -16 -12.5 -30.5t-26.5 -16.5h-4q-27 0 -43 22.5t-25.5 53.5t-12.5 63.5 t-5 55.5v2q-12 76 -17.5 157.5t-5.5 161.5z" />
<glyph unicode="N" horiz-adv-x="1155" d="M10 113v18q0 10 4 21q23 78 45.5 176t45 209.5t46 231.5t48.5 243q-27 78 -36 146.5t-9 119.5q0 66 27.5 101.5t66.5 35.5t54 -44q14 -43 20 -101q4 -42 5 -84q0 -15 -1 -30v-26q0 -36 4 -55v-2h2q27 -59 69.5 -145t96 -180.5t111 -187.5t112.5 -168t104 -121t86 -46 q25 82 36 164t11 164q0 113 -18 225.5t-49 222t-71 214t-81 202.5q0 14 5.5 27t13.5 29q193 -184 284 -404.5t91 -486.5q0 -68 -5.5 -161t-26 -183.5t-61.5 -164t-112 -100.5q-37 2 -90.5 38t-111.5 98.5t-120.5 144.5t-120 175t-105.5 193.5t-81 196.5q-8 -115 -18.5 -208 t-26.5 -181t-40 -179t-54 -200q-8 -29 -21.5 -53.5t-56.5 -24.5q-16 0 -28.5 13.5t-23 33t-15.5 44t-5 49.5zM229 1288q0 -25 19 -61q10 47 10 80q0 10 -2 18t-8 8q-14 0 -16.5 -10t-2.5 -35z" />
<glyph unicode="O" horiz-adv-x="1140" d="M33 643q0 147 48 298t136 272.5t214 198.5t284 77q104 0 181 -51.5t126 -128.5q43 16 86 24t84 8q27 0 57.5 -8t58 -25.5t46 -43t18.5 -60.5q0 -27 -9 -44t-26 -17q-16 0 -23 9t-14 28q-12 41 -43.5 55t-70.5 14q-55 0 -119 -26q37 -92 37 -193q0 -37 -10 -94 q8 -6 14 -23.5t10 -39t7 -44t3 -36.5q0 -82 -15 -177.5t-47 -189.5t-80 -181t-113.5 -154.5t-149.5 -107.5t-186 -40q-129 0 -224.5 66.5t-157 170t-92 226t-30.5 237.5zM227 627q0 -102 20.5 -192.5t63.5 -160t113 -109.5t168 -40q80 0 155.5 58.5t136 150.5t100.5 204.5 t52 221.5q-23 -47 -51.5 -88t-65 -74t-82.5 -51.5t-102 -18.5q-100 0 -146 57.5t-46 168.5q0 70 28.5 141.5t76.5 136t112.5 120.5t136.5 99q-35 61 -82 95t-96 34q-115 0 -206 -64.5t-154.5 -170t-97.5 -241.5t-34 -277zM700 725q0 -59 19.5 -88t48.5 -29q31 0 65.5 32 t62.5 85t46.5 121.5t18.5 142.5q0 43 -5.5 82t-15.5 74q-49 -41 -93 -90t-77 -104.5t-51.5 -113t-18.5 -112.5z" />
<glyph unicode="P" horiz-adv-x="1058" d="M27 1348q59 59 147 90.5t193 31.5q86 0 184 -20t194.5 -59t184.5 -93.5t155.5 -123t107.5 -149.5t40 -171q0 -88 -56.5 -164t-148.5 -132t-209 -88t-237 -32q-16 0 -36 1t-65 7q-2 -25 -2 -55v-65q0 -57 2 -128t6 -161q-2 -39 -31.5 -72t-66.5 -43q-18 0 -24.5 9.5 t-22.5 31.5q-4 23 -8 43.5t-8 42.5q-2 18 -3 45t-1 62l4 278v45q-41 12 -90.5 37t-91.5 58.5t-70.5 73.5t-28.5 83q0 68 50 124t155 85q8 2 33.5 9t33.5 7q2 41 2 78q0 39 5 70q4 39 14 76t51 77q12 -8 22.5 -25.5t19.5 -36.5t15.5 -38.5t6.5 -32.5l14 -170q68 0 113 -11 t70.5 -29.5t35.5 -41t10 -47.5q0 -66 -61 -71q6 14 6 28q0 33 -36 45.5t-134 12.5l4 -252q47 -8 98 -8q53 0 136.5 14t162 45t135 81t56.5 124q0 88 -44 158.5t-114.5 125t-156.5 94.5t-172.5 64.5t-162 36.5t-122.5 12q-59 0 -129 -3t-131 -7zM125 758q0 -29 20.5 -49.5 t50 -36t63.5 -26.5t60 -17v211q-20 0 -49.5 -1t-46.5 -5q-39 -8 -68.5 -25.5t-29.5 -50.5z" />
<glyph unicode="Q" d="M27 655q0 94 9 173t36.5 156t78 157t130.5 176q47 55 113.5 85t119.5 38l16 -27q-16 -23 -27 -52.5t-11 -64.5v-14q-49 -43 -100.5 -96t-94.5 -127t-69.5 -172.5t-26.5 -231.5q0 -129 32.5 -230t92.5 -175q27 47 72.5 82t99.5 45q20 4 40.5 6t39.5 2q59 0 111 -16.5 t100.5 -43t91.5 -60.5t84 -68q84 82 131 203.5t47 258.5q0 115 -35 238t-89 224.5t-119.5 166t-129.5 64.5h-4q-47 -2 -66.5 -19.5t-19.5 -46.5q0 -27 16.5 -57.5t42 -56t59 -43t68.5 -17.5l-35 -65q-12 -6 -32 -7q-23 0 -48.5 5.5t-41.5 7.5q-33 4 -65 32.5t-57.5 63.5 t-41 70.5t-15.5 54.5q0 59 21.5 100t57.5 65.5t83 35t99 10.5q74 0 165 -60.5t169.5 -170t132 -262t53.5 -337.5q0 -180 -63.5 -321t-166.5 -238q35 -27 70 -48t72 -34q27 -10 61 -10q39 0 53 14v-12q0 -35 -21.5 -70.5t-49.5 -37.5q-10 -2 -19 -2h-18q-78 0 -142.5 32.5 t-123.5 79.5q-121 -69 -254 -69h-4q-160 0 -286 52t-213 147t-133 227.5t-46 289.5zM424 160q121 -76 281 -76q70 0 137 29q-35 29 -70 53t-72 45q-33 10 -73.5 20.5t-81.5 10.5t-73 -16.5t-46 -61.5q0 -2 -2 -2v-2z" />
<glyph unicode="R" d="M68 1176q0 53 41 95t106.5 74.5t145 55t157.5 37t144.5 21.5t103.5 7q88 0 184.5 -23.5t176 -73.5t131 -128t51.5 -184q0 -82 -24.5 -154t-64.5 -131t-91.5 -106.5t-104.5 -79.5q37 -49 69.5 -94.5t67.5 -106.5t75 -151.5t89 -227.5q6 -16 6 -29q0 -20 -9 -33.5 t-26 -13.5q-29 0 -53 45q-55 98 -103 175t-96.5 139.5t-100.5 117t-116 109.5q-78 -29 -175 -45t-189 -16h-41q-2 -49 -2 -84v-86q0 -53 2 -108.5t8 -113.5v-10q0 -43 -23.5 -66.5t-52.5 -23.5t-50 20.5t-25 63.5q-12 104 -13 189q0 59 3 117.5t7 125.5q-53 16 -78.5 70.5 t-25.5 116.5q0 33 7 63.5t21.5 55t35 41t47.5 18.5v98v72q0 33 -4 76l2 20q2 37 29.5 55.5t56.5 18.5q25 0 44 -13.5t19 -44.5q4 -57 5 -101t1 -97v-66q111 -2 222.5 -40t205.5 -99q55 25 104.5 58.5t86.5 74.5t57.5 90t20.5 105q0 82 -53.5 132t-124 77.5t-140.5 37 t-102 9.5q-63 0 -150.5 -10.5t-167.5 -30t-137 -46t-59 -57.5v-12q0 -23 11 -35t34 -31q-33 -8 -66 -8q-57 0 -83.5 30t-26.5 69zM420 662l2 -44q12 -2 28.5 -3t36.5 -1q27 0 57.5 2t58.5 6.5t48.5 9.5t28.5 13q-12 14 -33.5 23.5t-48.5 15.5t-55.5 8t-55.5 2 q-18 0 -35.5 -1t-27.5 -3z" />
<glyph unicode="S" horiz-adv-x="1323" d="M70 319q0 74 33.5 126.5t86 85t115 48t121.5 15.5t114.5 -6t107.5 -26.5t101.5 -57.5t96.5 -98q0 -31 -35 -50.5t-70 -19.5q-29 0 -43 12q-66 57 -142.5 100.5t-195.5 43.5q-37 0 -74.5 -7.5t-70.5 -26t-53.5 -50t-20.5 -80.5q0 -43 29 -77t74 -60.5t100 -46t107.5 -32 t95.5 -18.5t65 -6q147 0 244.5 43t154 104.5t79 128t22.5 113.5q0 86 -42 136.5t-110.5 77t-156.5 36.5t-180.5 17.5t-180.5 18.5t-156.5 39.5t-110.5 82t-42 145.5q0 113 63.5 198t167 142t234.5 85t266 28q121 0 213 -46t137 -139q8 -14 9 -32q0 -27 -16.5 -50.5t-41 -42 t-50 -28.5t-44.5 -10l-12 2q-4 0 -4 4q0 2 2 4q10 14 26.5 36.5t16.5 45.5q0 8 -2 12q-4 10 -29 23.5t-64.5 24.5t-95 19.5t-118.5 8.5q-66 0 -147 -13.5t-152.5 -45t-120.5 -85t-49 -133.5q0 -63 42 -97t109.5 -49t155.5 -22.5t178 -16.5t178 -30.5t155.5 -67.5t109.5 -124 t42 -203q0 -137 -68.5 -231.5t-164.5 -152.5t-198.5 -84t-170.5 -26q-49 0 -114.5 11.5t-135 33t-136 54.5t-119 75t-84 95t-31.5 116z" />
<glyph unicode="T" horiz-adv-x="1030" d="M29 1360q0 35 33.5 65.5t78.5 30.5h9q10 0 11 -5t1 -9q0 -10 -4 -15q-45 -47 -45 -73q0 -14 15 -28.5t40 -33.5q29 -23 78 -45t109.5 -40.5t127 -35t127.5 -26.5q133 129 308.5 198.5t359.5 69.5q18 0 40.5 -2t42 -8t33 -19.5t13.5 -37.5q0 -98 -52 -169t-131 -117 t-170 -67.5t-169 -21.5q-94 0 -189 18q-82 -137 -131 -304t-49 -335q0 -104 20.5 -199.5t65.5 -181.5q14 -23 27.5 -47t30 -46.5t25.5 -37t9 -26.5q1 -21 -26 -21q-10 0 -30 5t-34 16q-16 10 -29.5 20t-27.5 27q-47 61 -86 138t-66.5 160t-42 167t-14.5 155q0 154 50 288 t136 263q-92 31 -185 73t-161 79q-25 14 -51.5 32.5t-48 41t-35.5 48t-14 56.5zM823 1118q18 -2 37 -2h37q102 0 193.5 31t144.5 117q-39 0 -77.5 -8.5t-61.5 -12.5q-70 -16 -141.5 -48t-131.5 -77z" />
<glyph unicode="U" horiz-adv-x="1298" d="M47 741q0 188 48.5 366.5t140.5 319.5q31 25 45 25q16 0 16 -27q0 -20 -8 -51t-19 -69q-33 -113 -50 -232t-17 -246q0 -139 14 -276t56 -245.5t119 -176.5t202 -68q78 0 164 47.5t160 145.5q-29 66 -48.5 132.5t-30 142t-14.5 162.5t-4 194q0 31 5 85t16.5 116.5t29 127 t41 116.5t53 86t68.5 34q53 0 89 -34t59.5 -87t37 -122.5t19.5 -139.5t7 -136.5t1 -115.5q0 -141 -39 -289.5t-112 -277.5q41 -80 106 -189q33 -27 33 -65q0 -33 -21.5 -58.5t-52.5 -25.5q-23 0 -47 18q-35 49 -64.5 93.5t-54.5 84.5q-80 -92 -183 -148t-226 -56 q-162 0 -266.5 66.5t-165 181t-84 267t-23.5 324.5zM977 834q0 -133 9 -226.5t34 -173.5q33 82 51.5 180.5t18.5 214.5q0 166 -3.5 259.5t-8.5 138.5t-11 54t-12 9q-12 0 -22.5 -31.5t-19.5 -80t-15.5 -105.5t-11.5 -107.5t-7 -87t-2 -44.5z" />
<glyph unicode="V" horiz-adv-x="1056" d="M35 1057q0 23 8 81t27.5 125.5t52.5 130t82 91.5l16 -17q0 -92 -14 -170.5t-14 -148.5q12 -246 68 -423t128 -290.5t144.5 -168t119.5 -54.5q23 0 50.5 40t57.5 106.5t58.5 151.5t53 173t43 172t28.5 152q2 25 13.5 73.5t29 98t37.5 87.5t43 38q41 0 52 -16.5t11 -59.5 q-4 -166 -30.5 -340t-78.5 -338t-127 -305.5t-173 -241.5q-14 -4 -31 -4h-35h-37q-16 0 -28 4q-23 12 -73 43t-111.5 84t-127 133t-120 192.5t-89 261t-34.5 339.5z" />
<glyph unicode="W" horiz-adv-x="1466" d="M16 449q0 131 32 265t91.5 255t144.5 224t191 177q23 16 49.5 30.5t46.5 14.5q29 0 29 -22q0 -16 -11 -27.5t-18 -17.5q-88 -90 -159.5 -199t-122.5 -228.5t-80 -247.5t-29 -255q0 -47 7.5 -96.5t26.5 -89t53 -66.5t85 -27q31 0 61.5 10.5t49.5 30.5q-2 0 -5 24.5 t-7.5 59.5t-9.5 77t-8 80t-5 64.5t-2 32.5q0 129 42 220t100.5 148.5t119 84t98.5 26.5q47 0 79 -27.5t52.5 -67.5t28.5 -86t8 -85q0 -141 -79.5 -282.5t-233.5 -272.5q39 -117 182 -117q70 0 154 56.5t154.5 166t118.5 273.5t48 379q0 86 -17 174t-52 171t-85 156.5 t-114 129.5l4 14q25 0 55.5 -12.5t53.5 -30.5q74 -59 136 -145t107.5 -184.5t70 -204t24.5 -201.5q0 -156 -34 -285t-89 -230.5t-127 -176t-148.5 -123.5t-152.5 -74t-139 -25q-68 0 -121.5 27t-90 60.5t-57 67.5t-22.5 46q-39 -16 -84 -26.5t-86 -10.5q-86 0 -145.5 35 t-96.5 91t-54.5 127t-17.5 145zM610 410q0 -23 1.5 -52.5t9.5 -35.5q94 113 130.5 222t36.5 232q0 20 -1 45t-6 46.5t-14 34.5t-26 13q-25 0 -44 -30.5t-33.5 -79.5t-24.5 -108.5t-16.5 -116t-9.5 -102.5t-3 -68z" />
<glyph unicode="X" horiz-adv-x="1351" d="M0 1350v8q0 27 19.5 50.5t48 38.5t66.5 24.5t75 9.5q45 0 84 -13.5t61 -42.5q109 -135 188 -272t144 -272l109 166q39 63 67.5 107t49 83t38 79t35.5 93l8 18l19 15q16 10 33.5 15t29.5 9l72 -80v-36q-4 -25 -13.5 -59t-40 -95t-94 -160.5t-176.5 -253.5 q-14 -20 -27.5 -38.5t-25.5 -38.5q45 -92 92 -179.5t100.5 -166t116 -148.5t140.5 -127q0 -4 23.5 -22.5t54 -38t60 -36t44.5 -16.5q0 -10 -5 -15t-10 -5q-8 -4 -16 -4h-18q-23 0 -49.5 5t-53 12t-50 14.5t-38.5 13.5q-86 33 -156.5 88t-131 127t-112.5 157t-99 175 q-129 -195 -202 -305.5t-109 -169t-47 -80t-17 -35.5q-2 -10 -13.5 -16.5t-27.5 -6.5q-8 0 -25 4l-43 37l4 27l6 18q6 18 7.5 40t5.5 46.5t13 50t30 54.5l331 508q-39 80 -75.5 159.5t-76.5 152.5t-82 137.5t-89 117.5q-25 29 -51.5 47t-53.5 18q-35 0 -44 -26.5t-19 -77.5 q-39 8 -61.5 26.5t-22.5 84.5z" />
<glyph unicode="Y" horiz-adv-x="739" d="M70 698q0 106 27.5 211t74.5 201t108.5 184t131.5 164q12 10 18 16.5t14 6.5q33 0 33 -41q0 -16 -8 -40t-20.5 -47.5t-25.5 -46t-22 -36.5q-76 -133 -128 -273.5t-52 -300.5q0 -23 5 -50.5t17.5 -54t33 -47t51.5 -24.5l22 94q6 25 24.5 90.5t48.5 150.5t69.5 177t87 169 t100.5 126t113 49q45 0 70.5 -36.5t37.5 -89t14.5 -110t2.5 -100.5q0 -123 -29 -240.5t-86.5 -212.5t-142.5 -161t-195 -80q-35 -147 -56.5 -290.5t-21.5 -293.5q0 -10 -4 -24t-12.5 -28.5t-19.5 -25t-25 -12.5q-20 6 -44 20.5t-43.5 33t-32.5 39t-13 40.5q0 27 9 87.5 t23.5 138.5t32.5 165t39 166q-63 25 -106.5 62t-70 81t-38.5 94t-12 99zM500 506q72 29 125 88t88 136t51 165t16 172q0 29 -6 57.5t-12 44.5l-12 -8q-49 -45 -92.5 -137t-76 -193.5t-54 -191.5t-27.5 -133z" />
<glyph unicode="Z" horiz-adv-x="1417" d="M6 23q0 4 1 5t1 3q4 29 23.5 52t46 42.5t56.5 33t54 23.5q117 129 225.5 245t207 235.5t184.5 253t158 298.5q-100 16 -183.5 38t-156 40.5t-141 30.5t-138.5 12q-23 0 -54.5 -1t-61 -7t-51 -17.5t-21.5 -31.5q0 -18 24.5 -42t46.5 -40q-23 0 -46 3t-44.5 12.5t-35 22.5 t-13.5 36q0 55 35 94t84 63.5t103.5 36t92.5 11.5q100 0 177 -16.5t145 -39t135.5 -47t147.5 -43.5q10 18 34.5 33.5t54 27t60.5 17.5t55 6q33 0 70 -28.5t37 -77.5q0 -53 -40 -83t-103 -30q-18 0 -25.5 3t-28.5 3q-68 -164 -148.5 -307t-168.5 -269t-180.5 -234.5 t-184.5 -201.5q8 -2 30 -5t45.5 -8t45 -8t31.5 -5q72 -12 133 -22.5t122.5 -17.5t127 -12.5t145.5 -5.5h17q37 0 64.5 6.5t51 17.5t49 25.5t60.5 30.5l8 -2q10 -2 14.5 -11t4.5 -19l-3 -25q-31 -35 -73.5 -66.5t-89.5 -56t-96.5 -39t-92.5 -14.5h-8l-743 41h-7 q-25 0 -49 -8.5t-48.5 -18.5t-48.5 -18t-44 -8l-12 2q-23 4 -45.5 30.5t-22.5 51.5zM1159 1307h31q23 0 46.5 5t23.5 11t-14.5 11t-33.5 5h-2q-10 0 -27.5 -11t-23.5 -21z" />
<glyph unicode="[" horiz-adv-x="583" d="M53 -158q0 27 32 44.5t62 31.5l19 1653q-31 14 -67 32.5t-36 47.5q0 16 12.5 20t35.5 6q57 4 128.5 20.5t182.5 16.5q12 0 28.5 -2t45.5 -10q12 -16 34.5 -41t22.5 -47q0 -6 -10.5 -13.5t-25.5 -13.5t-32.5 -10t-29.5 -4q-29 -2 -47 -2h-35q-14 0 -28.5 -1t-33.5 -1h-14 q-6 0 -12 -2q-2 -2 -3 -90t-1 -230v-258q0 -139 1 -283.5t2 -280.5t2 -244.5t1 -178.5v-78h14q18 0 32.5 -1t28.5 -1h35q18 0 47 -2q12 0 30 -4t33 -10t25.5 -13.5t10.5 -13.5q0 -23 -22.5 -47.5t-35.5 -40.5q-29 -8 -45 -10t-28 -2q-111 0 -182.5 16.5t-129.5 20.5 q-23 2 -35 6t-12 20z" />
<glyph unicode="\" horiz-adv-x="1247" d="M49 1176q0 6 2 10q2 14 18.5 31.5t38 34t44 27.5t38.5 11l11 -2q8 0 8 -6q102 -141 202.5 -265t216 -259t255 -295t321.5 -371q6 -10 6 -20q0 -8 -2 -13q-4 -16 -15 -34.5t-27.5 -36t-35 -28.5t-32.5 -11h-6q-18 4 -23 18q-90 123 -204.5 267.5t-231.5 283.5t-222.5 261 t-179.5 202l-180 184q-2 2 -2 11z" />
<glyph unicode="]" horiz-adv-x="583" d="M53 -123q0 6 10.5 13.5t25.5 13.5t32.5 10t30.5 4q29 2 47 2h32q16 0 30.5 1t33.5 1h12q8 0 15 2q2 2 3 90t1 230v256q0 141 -1 285.5t-2 280.5t-2.5 244.5t-1.5 176.5v80h-14q-18 0 -32.5 1t-30.5 1h-33q-18 0 -47 2q-12 0 -29.5 4t-33 10t-26 13.5t-10.5 13.5 q0 23 23 47t35 41q29 8 45 10t29 2q111 0 182.5 -16.5t128.5 -20.5q23 -2 35 -6t12 -20q0 -27 -32 -44.5t-62 -31.5l-19 -1653q31 -14 67 -32.5t36 -47.5q0 -16 -12.5 -20t-34.5 -6q-57 -4 -129 -20.5t-183 -16.5q-12 0 -28.5 2t-44.5 10q-12 16 -35 41t-23 47z" />
<glyph unicode="^" horiz-adv-x="675" d="M31 1214q0 20 8 31q16 -8 28.5 -9t24.5 -1q47 0 74 23.5t55 62.5q10 12 16.5 22.5t11.5 22.5t10 27.5t13 38.5q4 29 24.5 43t43.5 14q45 0 61 -43q10 -35 17.5 -66.5t38.5 -74.5q4 -6 17 -14.5t30.5 -15.5t36 -12.5t34.5 -5.5q23 0 33 -16t10 -39t-10 -48.5t-33 -25.5 q-47 0 -98 17.5t-78 40.5q-23 18 -42 34.5t-29 39.5q-16 -29 -40 -57.5t-59 -51.5q-29 -18 -53 -28.5t-63 -10.5q-37 0 -59.5 35t-22.5 67z" />
<glyph unicode="_" horiz-adv-x="686" d="M0 -10h686v-72h-686v72z" />
<glyph unicode="`" horiz-adv-x="483" d="M4 1726v13q0 61 51 61q12 0 25.5 -4t30.5 -10l45 -22.5t96 -45t112.5 -47t98.5 -29.5l14 9q-2 -16 -6 -39t-12 -44.5t-21.5 -35.5t-34.5 -14q-80 37 -138 65.5t-98 48t-66.5 29.5t-45.5 12h-6q-10 0 -26 -10q-12 16 -15.5 31.5t-3.5 31.5z" />
<glyph unicode="a" horiz-adv-x="598" d="M16 303l4 39q8 -2 29 -2h68q12 27 30.5 64.5t40 78.5t43 79t39.5 67l99 121l6 24q4 8 9 9t13 1h13q20 0 37.5 -20.5t21.5 -42.5q4 -12 12 -35.5t16.5 -51.5t15.5 -55.5t11 -48.5q8 -68 16.5 -122t13.5 -104t8 -100t3 -110q0 -53 -1 -74.5t-5 -39.5q-10 -6 -22 -7 q-29 0 -52.5 28t-40.5 69l-8 118h-65q-53 0 -77 1t-36 1q-10 0 -12 -2q-23 -8 -37 -58t-37 -107l-22 -60q-16 -16 -50 -16q-10 0 -19 2t-22 4q-23 23 -31 45t-8 55q0 74 58 176q0 25 -14.5 47.5t-47.5 26.5zM301 350q14 -2 29 -2h28h29q16 0 31 2q0 14 -1 37t-4 48.5 t-8.5 49t-15.5 41.5q-10 -4 -23.5 -24.5t-25.5 -48t-22.5 -56.5t-16.5 -47z" />
<glyph unicode="b" horiz-adv-x="632" d="M-18 565q4 16 11 26.5t15 20.5q31 39 76 60.5t93 32t94 12.5t83 2q43 0 81 -14.5t66.5 -40t45 -60.5t16.5 -74q0 -23 -12 -48t-47 -54q53 -12 88 -53t35 -103q0 -72 -21.5 -125t-58.5 -87.5t-88 -51t-111 -16.5q-36 3 -73 3h-18h-6q-43 0 -81 13q-27 -10 -61 -10 q-37 0 -48 20v2q-10 53 -13 103.5t-3 105.5v35q0 18 2 39q0 25 4 56.5t12.5 65.5t17.5 67.5t19 62.5q-47 -18 -82 -18q-16 0 -36 28zM190 147q25 27 72 49.5t98 22.5l31 -2v-10q0 -10 -14.5 -20.5t-32.5 -22.5q-16 -10 -33.5 -18.5t-21.5 -16.5q37 0 72.5 5t64.5 19.5t46 40 t17 68.5q0 18 -14 29.5t-36.5 17.5t-51 9.5t-57.5 3.5q-41 0 -78 -4.5t-51 -8.5zM205 434q31 4 68.5 11.5t70.5 18.5t54.5 27.5t21.5 38.5q0 31 -12.5 47.5t-59.5 18.5h-20q-41 0 -90 -12q-2 -10 -4.5 -20.5t-6.5 -20.5q-6 -25 -12 -51.5t-10 -57.5z" />
<glyph unicode="c" horiz-adv-x="684" d="M31 274q0 82 30.5 162t88 143.5t140.5 102.5t187 39q16 0 38 -1t42.5 -5t37.5 -13.5t26 -25.5q14 -27 19 -36t5 -32q0 -14 -3 -28.5t-7 -32.5q-18 -8 -35.5 -13.5t-34.5 -5.5q-61 0 -104 64l-103 -27q-31 -8 -62.5 -34.5t-57 -66.5t-42 -90t-16.5 -106q0 -66 39 -104.5 t146 -38.5q39 0 86 17.5t106 35.5h64q14 -10 23 -26.5t9 -38.5q0 -37 -33.5 -59.5t-83 -35t-104.5 -15.5t-100 -3q-154 0 -227.5 69.5t-73.5 204.5z" />
<glyph unicode="d" horiz-adv-x="761" d="M6 633q0 66 105 88q18 2 34 2h33q295 0 477 -234q18 -31 30.5 -53t20 -43.5t10.5 -44t3 -51.5q0 -66 -35 -121t-91 -95t-127 -63.5t-140 -23.5h-13q-12 -27 -55 -51h-16q-74 0 -74 82v8q-137 88 -137 174q0 41 24 82q16 -23 41 -40.5t58 -33.5q-2 16 -2 31v30 q0 242 116 242h15q8 -53 9 -114.5t1 -114.5v-129q23 -10 46 -11.5t40 -1.5q199 0 199 115q0 76 -89 197q-147 178 -385 178h-24l-45 -64l-27 37q-2 8 -2 23z" />
<glyph unicode="e" horiz-adv-x="624" d="M23 133q0 35 17 81t34 93q-4 16 -10.5 26.5t-6.5 26.5q0 12 3 20.5t8 20.5q12 4 25 9.5t28 7.5l49 112q-18 8 -38.5 17.5t-38 21t-29 24.5t-11.5 30q0 16 13.5 22t39.5 8q33 2 69 8.5t78 13.5t93 13t115 6q14 0 32.5 -2t51.5 -12q14 -16 39.5 -45t25.5 -55 q0 -8 -12 -15.5t-28.5 -13.5t-36 -11t-33.5 -5q-33 -2 -55.5 -3.5t-38.5 -1.5t-33 -1t-37 -1t-31 -2q-6 -6 -15 -26.5t-9 -59.5q0 -6 4 -13t14 -7h152l28 -4q8 -10 10.5 -27.5t2.5 -32.5q0 -12 -4.5 -29.5t-18.5 -19.5q-29 -2 -91.5 -4t-139.5 -2q-8 0 -13 -8 q-8 -33 -20 -68t-29 -69q8 0 64.5 11t154.5 21q16 2 33.5 3.5t34.5 1.5q18 0 34.5 -21t16.5 -41q0 -23 -12 -31q-20 -16 -53 -39.5t-75 -46t-89 -38t-99 -15.5q-86 0 -124.5 53.5t-38.5 118.5z" />
<glyph unicode="f" horiz-adv-x="677" d="M53 657l2 15q106 8 203.5 23.5t212.5 21.5q66 0 99.5 -1t50 -3t23.5 -7.5t20 -13.5q14 -10 19 -26.5t7 -26.5v-4q0 -29 -33.5 -38t-74.5 -9q-27 0 -51.5 2t-38.5 2q-29 0 -70 -5t-113 -22q-29 -53 -41 -141l203 6q31 2 47 2q18 0 39 4q18 -18 18 -51q0 -16 -4 -35.5 t-18 -36.5q-29 -4 -55 -4h-49h-54q-37 0 -72.5 -3t-80.5 -17q-16 -18 -20.5 -54t-4.5 -55q0 -37 6 -72.5t6 -70.5q0 -21 -2 -29q-25 -6 -44 -10t-36 -4q-41 0 -53 26q-18 27 -18 107q0 70 16.5 182.5t54.5 247.5q-41 6 -58 22.5t-26 32.5q-4 10 -7 21.5t-3 23.5z" />
<glyph unicode="g" horiz-adv-x="690" d="M18 272q0 100 45.5 183.5t110 142.5t138 92t130.5 33q154 0 154 -102q0 -43 -25 -93l-4 -4q-34 -22 -84 -22h-4q18 33 19 53q0 16 -25 16q-14 0 -55 -10q-106 -25 -180 -98.5t-74 -194.5q0 -68 38 -103.5t122 -35.5q18 0 52 4t66.5 18.5t57 44t24.5 78.5q0 10 -10 15.5 t-24.5 8.5t-32 4t-29.5 1q-43 0 -73.5 -22.5t-53.5 -63.5q-35 10 -41 24.5t-6 39.5q0 49 30.5 76.5t73.5 40t90.5 15.5t81.5 3q70 0 109 -40t39 -93q0 -141 -97.5 -215t-275.5 -74q-156 0 -221.5 69.5t-65.5 208.5z" />
<glyph unicode="h" horiz-adv-x="626" d="M2 428q0 4 1 5t1 3v19q53 -33 94 -43l15 252l32 16q18 6 41 6q14 0 41 -5t37 -15q0 -12 -1 -18.5t-3 -18.5q-4 -27 -7 -67t-3 -103v-94q16 -4 28.5 -5.5t26.5 -3.5t31 -2h45h22t25 4l-18 260l-4 50q10 35 47 57h28q12 0 36 -3t40 -11v-27q0 -14 2 -33q0 -10 1 -23.5 t1 -27.5l14 -252q0 -29 4.5 -55.5t8.5 -52.5q4 -29 8 -57.5t4 -61.5q0 -23 -3 -58.5t-19 -54.5l-24.5 -7t-23.5 -3q-23 0 -51 14.5t-33 40.5l-8 152v8h-6q-20 -2 -36.5 -3t-33.5 -1q-39 0 -108 6q2 -18 3 -43t1 -49v-43v-27q0 -31 -11 -38t-52 -11q-20 0 -39 4t-41 21 l-17 59q-4 8 -6 30.5t-3 49.5t-2 50.5t-1 33.5q-18 8 -40.5 29.5t-31.5 44.5q-4 10 -8 43.5t-4 58.5z" />
<glyph unicode="i" horiz-adv-x="346" d="M-76 1024q0 51 35 106.5t91 101.5t127 76.5t145 30.5q68 0 116 -22t58 -57q2 0 3 1t5 1q12 0 31.5 -6.5t38 -20.5t31.5 -34.5t13 -49.5q0 -59 -44 -119.5t-107.5 -109t-133 -79t-120.5 -30.5q-31 0 -65.5 4t-63.5 14q-16 -20 -27.5 -34.5t-33.5 -18.5q-16 4 -32 28.5 t-20 59.5q0 8 2 17.5t4 17.5q-23 31 -38 59.5t-15 63.5zM25 1024q4 -4 8 -4q6 0 10 4q10 14 29.5 34.5t42 44t46 46t42.5 39.5v2q0 6 -4 10q-78 -16 -123 -66.5t-51 -109.5zM86 119v61q0 25 1 45.5t2 44t3 64.5q2 23 8 107.5t27 240.5q2 14 12 14q55 -2 69.5 -32.5 t18.5 -90.5q4 -125 12.5 -252.5t8.5 -250.5q0 -25 -12.5 -48.5t-51.5 -23.5q-12 0 -28.5 4t-28.5 8q-10 2 -17.5 17.5t-12.5 33t-8 34t-3 24.5zM147 950q0 -4 6.5 -10t10.5 -6h45q39 0 92 13.5t102.5 38t83 60t33.5 82.5q0 23 -6 37.5t-47 14.5q-45 0 -88 -19.5t-84 -52.5 t-79 -74t-69 -84z" />
<glyph unicode="j" horiz-adv-x="397" d="M-98 -254q0 125 63.5 232.5t151.5 195.5v401q2 53 20.5 76t38.5 45q20 -35 35.5 -82t28 -98t20.5 -104.5t14 -102.5q47 35 88 61.5t70 43.5q2 0 2 -2q0 -6 -2 -11q-25 -59 -63.5 -108t-83.5 -90q2 -23 3 -39.5t1 -26.5q0 -158 -7.5 -260t-17.5 -164.5t-20.5 -91.5 t-16.5 -39q-27 -61 -63.5 -92t-114.5 -31q-53 0 -82.5 33t-44 79t-17.5 94t-3 81zM-84 1024q0 51 35 106.5t91 101.5t127 76.5t144 30.5q68 0 116 -22t58 -57q2 0 3.5 1t5.5 1q12 0 31.5 -6.5t38 -20.5t31.5 -34.5t13 -49.5q0 -59 -44 -119.5t-107.5 -109t-133 -79 t-120.5 -30.5q-31 0 -66 4t-63 14q-16 -20 -27.5 -34.5t-34.5 -18.5q-16 4 -31.5 28.5t-19.5 59.5q0 8 2 17.5t4 17.5q-23 31 -38 59.5t-15 63.5zM16 1024q4 -4 9 -4q6 0 10 4q10 14 29.5 34.5t42 44t46 46t42.5 39.5v2q0 6 -5 10q-78 -16 -123 -66.5t-51 -109.5zM41 -252 q0 -23 2 -49.5t7 -51t13.5 -43t22.5 -22.5q8 2 13 43t9.5 104.5t6.5 144.5t2 165q-6 -8 -11.5 -14.5t-9.5 -14.5q-39 -66 -47 -134.5t-8 -127.5zM139 950q0 -4 6.5 -10t10.5 -6h45q39 0 92 13.5t102 38t83 60t34 82.5q0 23 -6 37.5t-47 14.5q-45 0 -88 -19.5t-84 -52.5 t-79 -74t-69 -84z" />
<glyph unicode="k" horiz-adv-x="626" d="M35 676l39 33q10 8 19 11t16 3q35 0 58 -63.5t23 -174.5v-30q0 -14 -2 -31q51 16 89 33.5t73 46t72 75t90 119.5l-2 -2q2 10 18 11q8 0 19.5 -8.5t22 -19.5t17.5 -23.5t7 -18.5v-4q-23 -59 -48.5 -100t-58 -75t-73.5 -66t-95 -68q6 -10 24.5 -35t50.5 -54.5t79 -55 t111 -34.5q18 -10 24 -27.5t6 -37.5q0 -16 -4 -37q-4 -4 -8 -7t-8 -7q-10 -10 -18.5 -17.5t-18.5 -13.5q-61 6 -111.5 26.5t-94.5 52.5t-84 74t-79 89l11 -217q-35 -27 -82 -27q-35 0 -60 8q-6 23 -8 44.5t-2 45.5v25q0 14 2 26q-4 82 -7 157t-3 153z" />
<glyph unicode="l" horiz-adv-x="462" d="M35 223q0 57 14 126t34.5 134.5t43.5 120.5t39 86q10 16 22 25.5t41 19.5q23 0 29 -11t6 -34q0 -55 -10 -96t-25.5 -90t-32 -115.5t-28.5 -173.5v-8q0 -14 6 -24.5t16 -10.5q23 0 57 15.5t81 31.5q23 10 49 21.5t43 11.5q16 0 19 -18.5t3 -28.5q0 -33 -25.5 -72 t-63.5 -71.5t-82 -54t-81 -21.5q-51 0 -81.5 22.5t-47 57t-21.5 76.5t-5 81z" />
<glyph unicode="m" horiz-adv-x="960" d="M37 295q0 63 6 127.5t16 118.5q6 31 12.5 57.5t15.5 45t25.5 29.5t43.5 11q20 0 33.5 -14.5t20.5 -34t10 -39t5 -31.5q4 8 27.5 35t57.5 56.5t76 53t85 23.5q20 0 33.5 -13t20.5 -35.5t10.5 -51.5t5.5 -60q2 -49 3 -91t5 -62q10 27 29.5 73t50 90t76 75.5t104.5 31.5 q45 0 74.5 -36t34.5 -70q0 -20 3 -73.5t4 -121t1 -141.5t-3 -136.5t-12.5 -102.5t-23.5 -40h-6q-37 1 -59 25q-24 26 -36 60t-16 67t-4 43q0 12 -1 37.5t-2 58.5t-1 68v69q0 47 1 84t5 47q-37 -16 -64.5 -71.5t-47 -126t-36 -141t-30.5 -113.5q-4 -14 -20.5 -21.5 t-32.5 -7.5q-27 0 -47.5 33t-36 85t-25.5 114.5t-16 119t-9.5 99.5t-3.5 57q-37 -25 -73.5 -53.5t-65.5 -75.5t-45 -117.5t-16 -177.5q0 -61 -10.5 -105t-61.5 -46q-23 -2 -39 10t-27 47q-6 16 -10 51t-7 73t-5 74.5t-2 59.5z" />
<glyph unicode="n" horiz-adv-x="679" d="M35 166q0 27 4 73t12 100t20.5 108.5t29 99.5t35 73.5t40.5 28.5q23 0 56.5 -42t72.5 -102.5t81 -128t83 -118.5q16 -16 14 -16q10 0 11.5 13t1.5 40q0 70 -7.5 120t-19.5 96t-28.5 97t-34.5 123l-7 25v8q0 12 3.5 27.5t17.5 15.5q20 0 58 -36t74 -100.5t62.5 -154.5 t26.5 -197q0 -47 -10 -95t-30.5 -88t-50.5 -65.5t-67 -25.5q-29 0 -59.5 28.5t-58 70.5t-52 91.5t-45 91.5t-36 70.5t-21.5 28.5q-8 0 -14 -23q-2 -10 -4.5 -49t-4.5 -88t-5 -95t-7 -71q-2 -10 -6 -26.5t-10 -31.5t-17.5 -26.5t-27.5 -11.5q-25 0 -40.5 18.5t-24.5 44 t-12 53t-3 46.5z" />
<glyph unicode="o" horiz-adv-x="743" d="M20 342q0 82 33 151.5t87.5 121t125 80t148.5 28.5q66 0 108 -16q51 -23 51 -41q0 -12 -15 -18.5t-30 -8.5h4q35 0 71 -8t69 -31q12 -8 23.5 -27.5t19.5 -42t13 -48t5 -46.5q0 -94 -46 -172t-119.5 -134t-166 -88t-184.5 -36q-6 -18 -22.5 -33.5t-34.5 -31.5 q-31 41 -46.5 75.5t-15.5 59.5v4q-41 70 -59.5 135.5t-18.5 126.5zM139 299q0 -35 8 -61q66 170 131.5 263t151.5 120q23 6 42.5 11t41.5 7q-31 -4 -64.5 -11t-62.5 -18q-66 -16 -112 -49t-76.5 -76t-45 -91t-14.5 -95zM279 180h26q41 0 95.5 21.5t102.5 58.5t81.5 86 t33.5 103q0 33 -22 49t-59 16q-82 0 -141.5 -90t-116.5 -244z" />
<glyph unicode="p" horiz-adv-x="745" d="M18 135q0 20 5.5 45t17.5 53l109 -38q2 39 6 93t13 112.5t25.5 114.5t41.5 101q-10 2 -23 2h-20q-29 0 -54.5 -5t-64.5 -13h-6q-12 0 -13 14q0 21 41 68q33 23 69 31t81 8q229 0 351 -109.5t122 -320.5q0 -72 -26.5 -127t-70.5 -93t-104.5 -58.5t-128.5 -20.5 q-27 0 -45 2t-49 6q-2 -119 -5 -228.5t-14 -181.5q-20 -16 -32.5 -24t-28.5 -8q-33 0 -63 32q-6 31 -7.5 78t-1.5 109q0 59 1 118.5t1 147.5l-55 27q-27 10 -49.5 19t-22.5 46zM287 608q4 -113 9 -216t5 -230q41 -6 62.5 -9t56.5 -3q72 0 107.5 49t35.5 120q0 39 -13 82 t-45 82t-85 72t-133 53z" />
<glyph unicode="q" horiz-adv-x="774" d="M23 342q0 113 39.5 188.5t108.5 120.5t162 63.5t197 18.5q47 0 85 -16.5t59 -38.5q6 -10 13 -20.5t7 -24.5t-6 -21q-27 10 -43 13.5t-33 3.5q-90 0 -172 -15.5t-143 -50.5t-97 -89t-36 -132q0 -66 21.5 -105.5t60.5 -60t91 -28t114 -7.5q0 31 -3.5 53.5t-3.5 36.5 q0 70 6.5 135.5t25 117t53 82t92.5 30.5q37 0 59 -21.5t33.5 -54.5t14.5 -70.5t3 -70.5q0 -47 -4 -94t-18.5 -93.5t-42 -87.5t-76.5 -73q2 -47 7 -83l10 -72t12.5 -72.5t17.5 -84.5q4 -18 12 -43.5t16.5 -51t14.5 -51.5t6 -44q0 -33 -24 -33q-59 0 -98.5 45t-63 118 t-33.5 162t-12 179q-90 2 -169 16.5t-137.5 51t-92 102.5t-33.5 172zM586 156q8 8 13 12t11 14q25 41 34 78t9 94q0 49 -6 91t-16 65q-33 -16 -39 -77.5t-6 -133.5v-143z" />
<glyph unicode="r" horiz-adv-x="700" d="M27 92q0 66 4 120t13 105.5t23.5 104.5t34.5 117q6 23 32 34t52 11q23 0 38.5 -8.5t15.5 -26.5q-31 -129 -41.5 -254t-20.5 -252q-4 -25 -18.5 -37t-34.5 -12q-35 0 -66.5 26.5t-31.5 71.5zM80 631q0 18 21.5 35.5t50 32t60.5 22.5t52 8q186 0 287.5 -79t101.5 -228 q0 -51 -24.5 -93t-65.5 -73q41 -45 71 -100.5t62 -110.5q8 -14 9 -35q0 -31 -20.5 -51t-41.5 -20q-12 0 -20 8q-2 2 -20.5 27.5t-44.5 61.5t-57.5 78t-60.5 79q-61 -16 -114 -17q-49 0 -80 30t-31 75q0 14 10.5 27.5t27.5 24.5t37.5 17t39.5 6q72 0 131 -26q20 25 32.5 50.5 t12.5 47.5q0 59 -30 95t-72 56.5t-89 26.5t-84 6q-31 0 -58 -12t-52 -14q-41 20 -41 45zM289 264q-1 -35 26 -35q29 0 70 29q-25 29 -35 29q-61 0 -61 -23z" />
<glyph unicode="s" horiz-adv-x="731" d="M23 496q0 47 28.5 81.5t72.5 57t95 36t97 20.5t78 9t36 2q78 0 144.5 -11t117.5 -23q10 -2 16.5 -8.5t6.5 -22.5q-2 -18 -15.5 -29.5t-29.5 -17.5q-12 -4 -34 -7t-34 -5q-27 -4 -76 -7.5t-101 -7.5t-99 -8t-72 -8q-51 -8 -76 -14.5t-41 -16.5q-4 -4 -4 -8t4 -4 q59 -23 104.5 -31t106.5 -12q51 -4 112.5 -9.5t113 -24.5t86 -59t34.5 -112q0 -84 -40 -130t-92 -69.5t-103 -28.5t-76 -5q-66 0 -125 18t-104 47t-72 63.5t-27 65.5q0 37 17.5 61.5t45 39t60.5 20.5t64 6q59 0 129.5 -15.5t134.5 -47.5q4 -4 4 -9q0 -8 -4 -12 q-12 -12 -45 -26.5t-72 -14.5q-23 0 -48.5 7t-54 16.5t-58 17.5t-60.5 8q-23 0 -43.5 -8t-20.5 -43q0 -18 15.5 -29.5t40 -15.5t53.5 -5t57 -1q14 0 66.5 6t109 19.5t101.5 34t45 48.5q0 27 -35 46.5t-84 32t-100 19.5t-84 7q-88 2 -141.5 8t-81 19.5t-35.5 35t-8 54.5z" />
<glyph unicode="t" horiz-adv-x="675" d="M31 700q0 20 9 51t32 40q10 0 13 -8.5t4 -19.5t1 -22q0 -10 6 -14q53 -43 106.5 -60.5t116.5 -27.5q14 12 33 33.5t42.5 41t54 34t67.5 14.5q20 0 45 -5t46.5 -21.5t35.5 -50.5t14 -89q0 -43 -26.5 -70.5t-64.5 -42t-79 -19.5t-67 -5h-12q-27 -98 -34 -206t-7 -210 q0 -59 1 -116.5t3 -108.5q-14 -12 -24.5 -16.5t-33.5 -4.5q-29 0 -58.5 24.5t-43.5 43.5q-27 41 -32 100.5t-5 106.5q0 133 21.5 239.5t48.5 188.5q-213 84 -213 200zM451 625q8 -2 15 -3t17 -1q12 0 28.5 4t31 11t25 16.5t10.5 19.5q0 12 -8.5 22.5t-22.5 10.5 q-31 0 -62.5 -20.5t-33.5 -59.5z" />
<glyph unicode="u" horiz-adv-x="684" d="M31 272q0 248 196 488q14 10 29 10q23 0 29 -41q-29 -98 -55.5 -193.5t-43.5 -195.5q-4 -25 -6 -48.5t-2 -43.5q0 -49 12.5 -78t53.5 -29q35 0 61.5 34t50 90.5t45 130t48.5 151.5q37 90 63 90q18 0 35 -49q51 -137 70.5 -227.5t27.5 -161.5l10 -101v-20q0 -86 -63 -86 q-14 0 -25.5 2t-25.5 6q-25 33 -25 74q0 27 -3 57.5t-7 58.5l-8 82q-20 -72 -55 -123t-75 -84.5t-79 -49t-70 -15.5h-2q-113 2 -160 92q-14 47 -20 92t-6 88z" />
<glyph unicode="v" horiz-adv-x="706" d="M12 610v15q0 59 47 102h74q16 -27 32.5 -64.5t37.5 -84.5l100 -334q4 -18 21 -41l192 422q18 37 32.5 65.5t37.5 38.5q2 2 10 2q10 0 24.5 -6t26.5 -15.5t21.5 -19.5t9.5 -20q0 -29 -10.5 -57.5t-34.5 -84.5l-187 -419q-10 -23 -20 -43.5t-27 -38.5q-27 -14 -51 -19.5 t-51 -5.5q-37 0 -76 12l-47 168q-8 25 -29.5 84.5t-47 126t-49 128t-36.5 89.5z" />
<glyph unicode="w" horiz-adv-x="845" d="M20 242q0 92 38 175t90.5 146.5t103.5 101t80 37.5q14 0 35 -4q12 -4 12 -28l-2 -33q-39 -37 -77 -81t-68.5 -93t-50 -104.5t-19.5 -114.5q0 -16 3 -35t11 -34t22.5 -25.5t37.5 -10.5h14q-10 35 -16.5 71t-6.5 71q0 43 15.5 86t43 76.5t67.5 55t89 21.5q59 0 89 -43 t30 -102q0 -78 -37 -140.5t-104 -115.5q29 -14 45 -15q51 0 90 36t65.5 88.5t40 110.5t13.5 101q0 78 -30 146.5t-101 134.5v14q0 25 12 35h18q8 0 18.5 -1t25 -8t36 -20.5t52.5 -38.5q61 -49 85.5 -133t24.5 -176q0 -82 -19.5 -155.5t-62.5 -130t-109.5 -90t-158.5 -33.5 q-51 0 -103.5 10t-85.5 59q-33 -8 -71 -8q-86 0 -135.5 52.5t-49.5 144.5zM358 305q0 -12 3.5 -39.5t9.5 -46.5q12 8 23.5 26.5t18.5 40t12 42.5t5 37q0 23 -14 41q-23 -12 -40.5 -36t-17.5 -65z" />
<glyph unicode="x" horiz-adv-x="684" d="M41 672q0 25 10 35q50 32 115 32h4q27 -27 47 -69l82 -148q45 61 92 103q83 71 137 71h2q12 0 24.5 -3t22 -16t16.5 -38t11 -68q-10 18 -33 19q-23 0 -48 -20.5t-54 -43.5q-25 -23 -47.5 -55.5t-44.5 -73.5q18 -29 42.5 -71.5t50.5 -82.5t52.5 -69t50.5 -29 q29 0 40.5 18.5t21.5 57.5q8 -25 11 -52.5t3 -51.5q0 -63 -22.5 -108.5t-69.5 -45.5q-6 0 -22.5 13.5t-35 31t-36 34.5t-25.5 28l-137 180q-29 -70 -52.5 -131.5t-33.5 -95.5q-16 -51 -55 -68.5t-70 -17.5q-10 0 -14 13t-4 32q0 37 10 67q20 80 54 163t75 161 q-29 39 -49.5 69.5t-38 59t-34.5 59.5t-38 72q-10 12 -10 39z" />
<glyph unicode="y" horiz-adv-x="716" d="M-76 -434q0 14 7.5 61t23.5 118t45 162t72 193q-16 37 -26.5 75t-10.5 75q0 80 32.5 162t74.5 148.5t82 109.5t57 45q23 -4 27.5 -16.5t4.5 -41.5q0 -31 -20.5 -61.5t-67.5 -101.5q-25 -39 -52.5 -96.5t-27.5 -112.5q0 -6 1 -13.5t6 -11.5h4q2 0 8 8q37 49 90 113.5 t110.5 123t111.5 99.5t93 41t66 -28.5t41 -68.5t20 -83t6 -74q0 -90 -49 -165.5t-118.5 -131t-145.5 -86.5t-127 -31q-10 0 -21.5 -1t-23.5 -3q-31 -88 -50.5 -154.5t-34.5 -128t-29.5 -126t-34.5 -146.5l-7 -16q-61 6 -99 52t-38 112zM319 154q106 12 201 94q88 76 88 201 q0 16 -3 36.5t-23 20.5q-12 0 -33 -15.5t-41.5 -36t-38.5 -43t-31 -36.5q-8 -12 -25.5 -43t-37 -67t-35 -67.5t-21.5 -43.5z" />
<glyph unicode="z" horiz-adv-x="661" d="M23 684q0 18 6 42q84 -4 152.5 -22t137.5 -18q41 0 81 8t87 32q20 8 35 7q27 0 46.5 -17.5t23.5 -45.5l4 -39q-10 -74 -43 -137.5t-79 -120t-100.5 -107.5t-107.5 -102q63 4 124 13t124 9h27q12 0 28 -2q37 -2 54.5 -23.5t17.5 -49.5q0 -29 -18.5 -52.5t-59.5 -23.5h-4 q-10 2 -22 2h-23q-29 0 -57.5 -3t-59.5 -7q-53 -4 -105 -11.5t-104 -7.5q-45 0 -94 6q-31 6 -48 26.5t-17 45.5q0 27 22 53q41 53 89 103.5t96.5 100.5t94.5 102.5t83 111.5q-53 -16 -99 -16q-37 0 -88 6t-96 22.5t-76.5 44t-31.5 70.5z" />
<glyph unicode="{" horiz-adv-x="348" d="M61 119v61q0 25 1 45.5t2.5 44t3.5 64.5q2 23 8 107.5t26 240.5q3 14 13 14q55 -2 69.5 -32.5t18.5 -90.5q4 -125 12 -252.5t8 -250.5q0 -25 -12 -48.5t-51 -23.5q-12 0 -28.5 4t-29.5 8q-10 2 -17 17.5t-12 33t-8.5 34t-3.5 24.5z" />
<glyph unicode="|" horiz-adv-x="389" d="M82 1485q4 4 6 9t6 9q10 8 28.5 11.5t41.5 3.5q35 0 68.5 -8.5t43.5 -24.5q4 -4 5 -6l-5 -4q-6 -119 -9 -228.5t-3 -224.5q0 -109 2 -225.5t5 -248.5t6.5 -285.5t7.5 -338.5q-2 -16 -18.5 -28.5t-45 -19.5t-57.5 -7q-45 0 -60 16q-2 4 -4 8.5t-2 10.5t2 10 q10 145 13.5 316t3.5 345q0 193 -4 366t-9 288z" />
<glyph unicode="}" horiz-adv-x="397" d="M-86 -254q0 125 63.5 232.5t151.5 195.5v401q2 53 20.5 76t38.5 45q20 -35 36 -82t28 -98t20.5 -104.5t14.5 -102.5q47 35 88 61.5t69 43.5q2 0 2 -2q0 -6 -2 -11q-25 -59 -63.5 -108t-83.5 -90q2 -23 3 -39.5t1 -26.5q0 -158 -7 -260t-17.5 -164.5t-20.5 -91.5t-16 -39 q-27 -61 -64 -92t-115 -31q-53 0 -82.5 33t-44 79t-17.5 94t-3 81zM53 -252q0 -23 2 -49.5t7.5 -51t13.5 -43t22 -22.5q8 2 13.5 43t9.5 104.5t6 144.5t2 165q-6 -8 -11 -14.5t-9 -14.5q-39 -66 -47.5 -134.5t-8.5 -127.5z" />
<glyph unicode="~" horiz-adv-x="993" d="M25 662v6q51 98 107 158.5t149 60.5q72 0 229 -92q158 -90 207 -90q25 0 56.5 12t59 31.5t47 43t19.5 46.5q0 10 -2 14q29 -10 52.5 -31.5t23.5 -54.5l-2 -12q-78 -109 -119 -150t-123 -41q-111 0 -254 76q-152 78 -205 78q-70 0 -104.5 -38t-67.5 -110q-35 23 -54 46.5 t-19 46.5z" />
<glyph unicode="&#xa1;" horiz-adv-x="348" d="M61 82l27 119q20 86 31.5 168t15.5 163q4 61 6 139.5t2 190.5v92t-2 105q6 29 26.5 36t41.5 17q8 -6 21.5 -14t17.5 -23l6 -131v-162q0 -70 2 -123t2 -102q0 -41 -1 -87t-1 -112v-69q0 -37 2 -82q0 -29 -6 -60.5t-23 -93.5q-8 -16 -19 -27.5t-38 -15.5q-35 10 -66.5 26.5 t-44.5 45.5zM106 1272q0 35 26 61.5t61 26.5q37 0 65.5 -23.5t28.5 -58.5q0 -41 -25.5 -68.5t-66.5 -27.5q-35 0 -62 26.5t-27 63.5z" />
<glyph unicode="&#xa2;" horiz-adv-x="620" d="M31 600q0 57 16 114.5t49 106.5t80 89t107 65q4 59 8 109.5t8 86.5l10 9q41 0 68 -33q8 -10 8 -29q0 -16 2 -47v-29q0 -18 2 -43l43 2q14 0 33.5 -1t38 -5t34 -12t23.5 -22q12 -23 16.5 -31t4.5 -29q0 -25 -9 -55q-37 -16 -63 -17q-55 0 -92 58l-27 -8q0 -59 1 -123 t2 -120t2 -98t1 -57v-4q23 8 49.5 17.5t57.5 19.5h57q29 -23 29 -53v-6q-2 -25 -18.5 -42.5t-43 -27.5t-60.5 -17.5t-67 -9.5q2 -29 3.5 -58.5t1.5 -57.5q0 -35 -21 -54q-10 -4 -20 -4h-21h-22t-23 4q-14 10 -22.5 22.5t-12.5 22.5v121q-233 18 -233 246zM166 596 q0 -47 21.5 -81t80.5 -44v2v37q0 33 1 84t3 113.5t4 130.5q-45 -35 -77.5 -99.5t-32.5 -142.5z" />
<glyph unicode="&#xa3;" horiz-adv-x="1089" d="M33 133q0 39 14 77t36.5 66.5t51.5 46t58 17.5q51 0 81.5 -6t57.5 -15q18 53 31.5 119t23.5 133l-57 -2q-23 0 -48.5 4.5t-68.5 16.5q-41 12 -58.5 34.5t-17.5 45.5t15.5 43t42.5 24v-4q0 -6 8 -8t30 -6q53 -16 80 -19.5t52 -3.5h34q2 29 2 62t5 86q2 10 2 20v21l-9 182 q0 49 4.5 92t16.5 66q31 59 67.5 71.5t83.5 12.5q14 0 40 -6.5t52.5 -14.5t49 -16t32.5 -15q16 -10 32 -27.5t28 -39t20.5 -43t8.5 -37.5q0 -20 -13 -29q-12 12 -32.5 26.5t-45 28t-48 22.5t-40.5 9q-37 0 -58.5 -9t-33.5 -34.5t-17 -72.5t-7 -121q-4 -55 -8.5 -111.5 t-12.5 -111.5q45 6 98.5 12t128.5 8l23 2q27 0 37 -8q10 -14 10 -49q0 -29 -7 -55.5t-22 -32.5q-35 4 -65.5 7t-58.5 3q-47 0 -88.5 -5t-79.5 -11q-16 -72 -36 -141.5t-42 -141.5q53 -27 114.5 -59.5t122 -73.5t114.5 -88t95 -101q10 -16 10 -24q0 -16 -25 -22.5t-56 -6.5 q-14 0 -44 6t-55 23q-39 23 -81 55.5t-83 67t-81.5 65.5t-75.5 49q-35 -88 -87.5 -135t-129.5 -47q-51 0 -86 34t-35 95zM115 143q0 -27 11 -45t34 -18q33 0 75.5 30.5t65.5 108.5q-29 20 -52.5 24.5t-39.5 4.5q-29 0 -61.5 -29t-32.5 -76z" />
<glyph unicode="&#xa4;" horiz-adv-x="935" d="M55 336q0 10 8.5 33.5t16.5 33.5q12 18 29.5 30.5t31.5 27.5l2 24q-39 72 -39 174q0 45 11.5 103.5t46.5 111.5v3q-16 10 -33.5 21t-32 25.5t-24 32t-6.5 39.5q0 31 19 47.5t42 16.5q16 0 30.5 -23.5t43.5 -40.5q10 -6 23.5 -14t25.5 -18q33 23 75 37t95 20 q23 16 54.5 19t53.5 3q41 0 79 -16t71 -45q35 12 52.5 27.5t26.5 28t16 20.5t20 8q25 0 44 -16.5t19 -42.5q0 -16 -8 -31q-14 -33 -43 -47.5t-49 -42.5q29 -51 45 -109.5t16 -116.5q0 -51 -15.5 -96t-41.5 -84q18 -14 35.5 -32.5t33.5 -34.5q20 -20 21 -45 q0 -25 -25.5 -43.5t-50.5 -18.5q-10 0 -16 7t-17 18l-33.5 33.5t-33.5 27.5h-2q-98 -70 -209 -69q-139 0 -227 59q-14 -16 -31 -29.5t-31 -25.5q-23 -25 -49 -25q-37 0 -53.5 10.5t-16.5 24.5zM209 682q0 -111 65.5 -181.5t178.5 -70.5q82 0 159 62q12 14 25 20 q35 35 58.5 80t23.5 96t-14.5 95t-38.5 79q-18 8 -29 31q-51 51 -109 51q-25 0 -39 -6t-18 -10l-113 -90q2 25 4.5 37t5.5 20t7 16.5t12 26.5q-12 -18 -20 -23q-35 -14 -64 -30.5t-50.5 -42t-32.5 -64.5t-11 -96z" />
<glyph unicode="&#xa5;" horiz-adv-x="739" d="M-94 164q0 29 16.5 51.5t42.5 28.5v-6q0 -8 7.5 -10.5t29.5 -8.5q66 -20 128.5 -28.5t123.5 -10.5q8 33 14 64.5t15 62.5h-27q-61 0 -123.5 7.5t-128.5 29.5q-41 12 -57.5 38t-16.5 52q0 29 15.5 51.5t42.5 28.5v-6q0 -8 8 -10t29 -9q33 -10 64.5 -17t62.5 -11 q-45 51 -63.5 113.5t-18.5 123.5q0 106 27.5 211t74.5 201t108.5 184t131.5 164q12 10 18 16.5t14 6.5q33 0 33 -41q0 -16 -8 -40t-20.5 -47.5t-25.5 -46t-22 -36.5q-76 -133 -128 -273.5t-52 -300.5q0 -23 5 -50.5t17.5 -54t33 -47t51.5 -24.5l22 94q6 25 24.5 90.5 t48.5 150.5t69.5 177t87 169t100.5 126t113 49q45 0 70.5 -36.5t37.5 -89t14.5 -110t2.5 -100.5q0 -160 -48.5 -307t-144.5 -250l39 2q8 2 24 2q25 0 35 -8q8 -14 8 -53q0 -33 -7 -64.5t-23 -39.5q-35 6 -69 8t-68 2q-51 0 -102.5 -4t-102.5 -9q-8 -33 -14.5 -64.5 t-12.5 -64.5q76 6 152.5 14.5t160.5 10.5q6 2 13 2h14q25 0 35 -8q8 -14 8 -53q0 -33 -7 -65t-24 -40q-35 6 -68.5 8t-68.5 2q-59 0 -119.5 -5t-119.5 -11q-10 -70 -15.5 -140.5t-5.5 -142.5q0 -10 -4 -24t-12.5 -28.5t-19.5 -25t-25 -12.5q-20 6 -44 20.5t-43.5 33 t-32.5 39t-13 40.5q0 29 8 90.5t24 141.5q-59 0 -119.5 8t-123.5 29q-41 12 -58.5 37.5t-17.5 52.5zM500 506q72 29 125 88t88 136t51 165t16 172q0 29 -6 57.5t-12 44.5l-12 -8q-49 -45 -92.5 -137t-76 -193.5t-54 -191.5t-27.5 -133z" />
<glyph unicode="&#xa6;" horiz-adv-x="266" d="M45 33v254q0 147 2 295h4q12 0 48 5t65 5q33 0 35 -10l4 -205q4 -127 7 -195.5t4 -101.5t1 -39v-8q0 -35 -9 -55.5t-38 -36.5q-66 0 -105 36q-4 14 -11 27t-7 29zM47 739l4 387v119q0 57 3.5 110.5t13.5 86.5q10 10 21 11t22 5q35 -14 65 -51q4 -23 7 -50.5t3 -62.5 l11 -555q-20 -10 -47 -15t-50 -5t-38 5t-15 15z" />
<glyph unicode="&#xa7;" horiz-adv-x="794" d="M20 418q0 47 18.5 99t48.5 99.5t66.5 88t73.5 65.5q-141 90 -141 227q0 63 33 111.5t84 81.5t115.5 49t130.5 16q80 0 130 -13t79.5 -32.5t43 -43t21.5 -44.5l12 -32q0 -53 -57 -99q-23 -12 -35 -15t-18 -3q-16 0 -37 49q-23 51 -80 85t-117 34q-18 0 -50 -6.5 t-62.5 -19.5t-54 -37.5t-23.5 -61.5q0 -31 24 -58q29 -29 140 -79q113 -51 217 -103q104 -47 147 -107.5t43 -138.5t-43 -161.5t-125 -182.5l33 -14q94 -57 94 -174q0 -74 -29.5 -133.5t-81 -99t-119 -61t-143.5 -21.5q-25 0 -79 7t-108 22.5t-96 40t-42 59.5q0 31 14 57.5 t43 42.5q33 18 55.5 25.5t61.5 13.5q4 -4 4 -6l-2 -6q-12 -18 -29.5 -39t-17.5 -35t18.5 -23.5t47 -15.5t63.5 -8t65 -2q49 0 92.5 8t75 23.5t51 40t19.5 59.5q0 70 -42 111.5t-106.5 69.5t-138.5 48.5t-138.5 49t-106.5 72.5t-42 120zM160 444q0 -31 22.5 -61.5t64.5 -59 t101.5 -52t132.5 -35.5l4 4q20 25 48 56.5t52.5 66t42 70.5t17.5 71q0 43 -30.5 80t-98.5 67l-149 68q-31 -14 -67 -44t-66.5 -68t-52 -81t-21.5 -82z" />
<glyph unicode="&#xa8;" horiz-adv-x="690" d="M113 1634q0 41 25.5 69t66.5 28q35 0 61.5 -27t26.5 -64q0 -35 -25.5 -61.5t-60.5 -26.5q-37 0 -65.5 23.5t-28.5 58.5zM408 1640q0 41 25.5 69t66.5 28q35 0 61.5 -27t26.5 -63q0 -35 -25.5 -61.5t-60.5 -26.5q-37 0 -65.5 23.5t-28.5 57.5z" />
<glyph unicode="&#xa9;" horiz-adv-x="1376" d="M39 772q0 139 56.5 261t151.5 212t222 142.5t266 52.5q125 0 234.5 -53.5t190.5 -140.5t128 -200.5t47 -234.5q0 -133 -50 -254t-137 -213t-206 -146.5t-254 -54.5q-125 0 -241.5 50.5t-208 136.5t-145.5 199.5t-54 242.5zM172 829q0 -104 42 -197t112.5 -164t164 -112 t197.5 -41q106 0 197.5 43t157 116t103.5 167t38 199q0 115 -43 197.5t-129 154.5q-14 10 -39 26.5t-49.5 32t-43 26.5t-22.5 11h-18q25 -16 48 -30.5t41.5 -31t30 -40t11.5 -60.5q-66 72 -167.5 97.5t-201.5 25.5q-43 0 -73.5 -14t-69.5 -25q-6 0 -6 4t5 12.5t7 18.5h-14 q-63 0 -114.5 -46t-88.5 -111.5t-56.5 -137.5t-19.5 -121zM326 770q0 82 30.5 151.5t88 122t140.5 82t187 29.5q16 0 37.5 -1t42 -5t38 -13.5t25.5 -25.5q14 -27 19.5 -36t5.5 -32q0 -14 -3 -28.5t-7 -32.5q-18 -8 -35.5 -13t-34.5 -5q-61 0 -104 63l-103 -27 q-31 -8 -62.5 -24.5t-57 -45t-42 -69.5t-16.5 -96q0 -37 17.5 -74t45 -65.5t59.5 -47t62 -18.5q39 0 86.5 17.5t106.5 35.5h63q14 -10 23.5 -26.5t9.5 -38.5q0 -37 -33.5 -59.5t-83 -35t-104.5 -15.5t-100 -3q-43 0 -95.5 27.5t-98.5 75t-76.5 108t-30.5 125.5z" />
<glyph unicode="&#xaa;" horiz-adv-x="1777" d="M35 1047q0 66 26.5 128t80 115t118 80t129.5 27q53 0 103.5 -18.5t91.5 -57.5q39 -41 57 -91t18 -104q0 -70 -26 -131q115 66 258 66t258 -68q-29 68 -29 131q0 115 78 197q41 39 91 57.5t104 18.5q66 0 129 -27t116.5 -80t80 -115.5t26.5 -127.5q0 -53 -18.5 -103.5 t-57.5 -91.5q-41 -41 -92 -59.5t-104 -18.5q-61 0 -123 25q35 -59 53 -127t18 -142q0 -109 -42 -206t-114.5 -168.5t-169 -113.5t-204.5 -42q-111 0 -208 42t-170 113.5t-115 169t-42 205.5q0 74 19.5 141.5t54.5 127.5q-61 -25 -123 -25q-53 0 -103 18.5t-91 59.5 q-78 82 -78 195z" />
<glyph unicode="&#xab;" horiz-adv-x="841" d="M59 369q25 37 49.5 58.5t52 46t57.5 62t65 107.5q8 14 13 34.5t10 39t12.5 35t19.5 26.5q33 -18 52.5 -48t15.5 -64q-8 -88 -45 -156t-97 -141q78 -80 130 -152t59 -170q0 -45 -20.5 -60.5t-43.5 -15.5q-16 0 -27.5 12.5t-20.5 29t-15.5 33.5t-10.5 30q-29 68 -65.5 117 t-72.5 82.5t-67.5 56t-50.5 37.5zM371 369q31 20 71.5 62t80.5 97.5t75 119.5t51 130q39 -8 55.5 -43t12.5 -69q-6 -63 -22.5 -106.5t-38 -75t-43 -58.5t-38.5 -57q78 -80 124 -151t65 -171q-4 -29 -18.5 -52.5t-40.5 -23.5q-10 0 -21.5 12.5t-23 29t-20.5 33.5t-13 30 q-29 68 -66 117t-72.5 82.5t-67.5 56t-50 37.5z" />
<glyph unicode="&#xac;" horiz-adv-x="7806" d="M90 481q0 131 32 264.5t91 253.5q59 123 145 227.5t193 176.5q23 16 49.5 31.5t46.5 15.5q31 0 31 -25q0 -16 -12.5 -26t-18.5 -17q-88 -90 -159.5 -199.5t-123 -230.5t-80 -249t-28.5 -254q0 -47 7 -96.5t26.5 -90.5t53.5 -67.5t85 -26.5q31 0 61.5 9t49.5 32 q-2 2 -8.5 51t-12.5 110.5t-11 115t-3 63.5q0 66 9 120t32 101q45 92 96 150q33 29 63.5 48t59.5 33q61 29 98 29q49 0 81 -27.5t52.5 -67.5t28.5 -87t8 -84q0 -145 -80 -285.5t-235 -273.5q23 -59 65.5 -88t116.5 -29t158 59q41 25 80 67t73 97q37 55 66 125t53 150 q45 162 45 379q0 86 -17.5 175t-51 172t-84 156.5t-113.5 128.5l4 13q27 0 57.5 -10.5t51.5 -30.5q74 -61 136 -147.5t108 -184.5t71 -201.5t25 -201.5q0 -158 -34 -287t-89.5 -230.5t-127 -177.5t-149.5 -125t-154.5 -73.5t-140.5 -24.5q-68 0 -120 26.5t-91 59.5 q-18 18 -33.5 34.5t-25.5 33.5q-8 16 -14.5 28.5t-6.5 18.5q-41 -16 -85 -26.5t-87 -10.5q-86 0 -145 35t-96 91t-54.5 129t-17.5 146zM686 389q2 -31 12 -37q47 57 78 112.5t51 108.5q37 113 37 236q0 20 -1 44t-6 45.5t-14 35.5t-26 14q-25 0 -43 -31.5t-33.5 -80 t-25.5 -107.5t-16.5 -115.5t-9.5 -102.5t-3 -69v-53zM1487 369l2 41h33h69q10 27 28.5 64.5t40 77.5t43 79t40.5 67l98 119l6 25q4 12 15 12h6h14q10 0 20.5 -6t18.5 -14q8 -12 14.5 -23.5t8.5 -22.5q4 -12 11 -35.5t16 -51t16.5 -55.5t11.5 -50q8 -68 16 -121t13.5 -103 t8.5 -100.5t3 -111.5v-76q-2 -10 -2 -21q0 -8 -2 -18q-10 -6 -23 -6q-31 0 -54.5 27.5t-39.5 68.5l-8 121h-70q-51 0 -74.5 1t-35.5 1q-4 0 -9 -1l-4 -1q-20 -8 -39 -61q-8 -27 -16 -52.5t-18 -54.5l-23 -57q-6 -10 -19.5 -13.5t-29.5 -3.5h-21q-8 0 -20 4q-23 23 -33 45.5 t-10 57.5t16.5 80t44.5 96q0 25 -14 46.5t-49 25.5zM1774 418q8 -2 14 -2h14h29h29h16t14 2q0 14 -1 36.5t-4 47t-8 49t-15 41.5q-10 -4 -22.5 -23.5t-25 -47t-23.5 -56.5t-17 -47zM2079 301q0 57 14 127t34.5 135.5t43 120.5t39.5 86q10 14 22 22.5t41 20.5q20 0 26.5 -11 t6.5 -32q0 -29 -3 -52.5t-7 -45.5q-4 -20 -11.5 -44t-13.5 -46q-16 -49 -31.5 -115t-27.5 -174v-10q0 -33 20 -33q23 0 56.5 15.5t83.5 31.5q23 10 48 21.5t42 11.5q18 0 18 -19q6 -18 6 -30q0 -35 -25.5 -73t-64.5 -72t-83 -55.5t-81 -21.5q-49 0 -79.5 22.5t-47 58.5 t-21.5 78t-5 83zM2378 733q0 27 10 53q6 29 31 39q12 0 15 -17t3 -34q0 -10 8 -10q53 -45 105.5 -61.5t115.5 -26.5q14 12 33 31.5t43.5 40t55 34t69.5 13.5q20 0 45 -5.5t46.5 -21.5t36 -49t14.5 -88q0 -43 -27 -69.5t-66 -41t-81 -19.5t-68 -5h-10q-29 -102 -36 -210 t-7 -212q0 -120 6 -224q-16 -10 -26.5 -14t-33.5 -4q-31 0 -59 23q-29 20 -43 43q-12 20 -20.5 44.5t-10.5 53.5q-4 31 -4 57v51q0 133 19.5 241t48.5 187q-213 86 -213 201zM2800 659q8 -2 15 -3t19 -1q25 0 59 15.5t34 34.5q0 33 -29 32q-31 0 -64 -18q-32 -21 -34 -60z M2812 1327q0 70 53 109t129 58t156 23.5t133 4.5q141 0 307 -37q82 -20 162 -42t156 -50q57 -18 127.5 -51t146.5 -77t154.5 -97.5t150.5 -112.5q74 -57 136.5 -124t109.5 -138.5t73.5 -147.5t26.5 -153q0 -74 -17.5 -134.5t-51.5 -115.5q-61 -100 -179 -170 q-53 -35 -115.5 -60.5t-132 -42t-139 -24.5t-141.5 -8t-149.5 9t-147.5 21q-6 -16 -11 -33.5l-15 -52.5q-18 -6 -34 -8t-38 -2l-47 4q-23 29 -33 71t-23 91q-143 82 -232 149.5t-130 116.5q-16 16 -34.5 39t-35.5 45q-35 47 -35 94t70 92q37 29 81 49.5t91 39.5 q49 16 111.5 30.5t138.5 28.5l4 84q0 6 5 47t14 88q8 43 21 86t32 59q57 -45 71.5 -97t18.5 -120q2 -63 12 -131h27q35 0 91 -3t120.5 -13t131 -27.5t119 -44t86 -65.5t33.5 -90q0 -18 -12 -43t-31.5 -46.5t-44 -37t-51.5 -15.5q-20 0 -49 6.5t-45 18.5q14 12 26.5 25.5 t26.5 25.5q14 10 24.5 22.5t12.5 22.5q-16 16 -61 34.5t-105.5 34t-128 24.5t-127.5 9q-23 0 -33 -2t-22 -6l2 -442q25 -16 51.5 -26.5t52.5 -14.5q29 -4 49.5 -5t40.5 -1q43 0 96.5 2t111 10t115.5 20.5t112 34.5q55 20 103 50t84 72t56.5 95.5t20.5 122.5q0 135 -78 254 t-196.5 217.5t-261 174t-271.5 126.5q-92 35 -181 62t-182 45q-90 18 -184 25.5t-199 7.5q-41 0 -82.5 -3t-82.5 -14q-49 -10 -50 -26q0 -4 11.5 -8.5t26 -7.5t26.5 -6t16 -5q10 -6 11 -16q-1 -11 -7 -15q-10 0 -22 -2t-31 -2q-33 0 -63 6q-33 8 -33 29zM3146 461 q0 -18 16 -41t39 -44.5t49.5 -43t48.5 -37.5q51 -41 119 -75t139 -52l19 399h-21q-66 -6 -138.5 -13t-131.5 -19.5t-99 -30t-40 -43.5zM4741 1055q0 51 35 106.5t91 103.5t128 78.5t145 32.5q68 0 116.5 -22.5t58.5 -57.5h8q12 0 31.5 -7t38 -20.5t31.5 -35t13 -47.5 q0 -57 -43 -123q-23 -31 -49 -58.5t-61 -50.5q-31 -23 -63.5 -42t-69.5 -35q-72 -33 -121 -33q-33 0 -68 4t-63 14q-16 -20 -26.5 -34.5t-33.5 -18.5q-18 4 -32.5 30.5t-20.5 61.5q0 12 8 33q-25 31 -39 58.5t-14 62.5zM4839 1055q2 -2 9 -2q8 0 10 2q10 14 29.5 35.5t43 45 t47 46t42.5 39.5v2q0 4 -1 6t-1 4q-43 -10 -73 -25.5t-54 -42.5q-46 -47 -52 -110zM4903 147v62v35q0 14 1 30.5t2 38t3 52.5q2 23 7 106.5t26 239.5q0 16 12 16q61 -4 70 -31q20 -35 20 -92q2 -125 11.5 -254t9.5 -252q0 -25 -13 -49q-12 -23 -53 -22q-10 0 -27.5 4 t-29.5 8q-10 2 -17.5 16.5t-11.5 32.5t-7 35.5t-3 23.5zM4962 981q0 -4 6.5 -10t10.5 -6h45q41 0 95 13t102.5 38.5t82 62.5t33.5 84q0 16 -4 33q-6 16 -47 16q-45 0 -89 -19t-86 -52t-80 -75t-69 -85zM5134 528q0 47 29 82t73 57.5t95 36t97 20.5t78 9t38 2q74 0 139.5 -11 t116.5 -22q12 -4 18.5 -10t6.5 -22q-4 -16 -17.5 -27.5t-30.5 -19.5q-10 -4 -30.5 -7.5t-34.5 -3.5q-27 -4 -76 -8t-101.5 -8t-99.5 -8t-71 -8q-53 -10 -78 -15.5t-39 -17.5l-4 -4q0 -6 4 -6q29 -10 55.5 -18.5t48.5 -16.5q23 0 49.5 -2t57.5 -6q27 -2 56.5 -3.5t58.5 -5.5 q31 -2 58.5 -9t53.5 -17q47 -18 82 -60q18 -23 27.5 -48t9.5 -64q0 -82 -39 -133q-41 -43 -92 -68q-47 -23 -102 -29q-53 -6 -76 -6q-66 0 -126.5 19.5t-106.5 48t-72.5 64.5t-26.5 67q0 37 17.5 61.5t45 37.5t61.5 19.5t64 6.5q59 0 131 -13.5t134 -48.5q4 -2 4 -10t-4 -10 q-12 -14 -43 -29q-14 -8 -33 -10t-39 -2q-23 0 -49.5 7t-55 16.5t-58.5 17.5t-60 8q-12 0 -21.5 -2t-19.5 -6q-23 -12 -23 -43q0 -20 15.5 -31.5t40 -16.5t53 -6t57.5 -1q12 0 68 6q29 4 55.5 9t54.5 11q29 8 52.5 16.5t46.5 18.5q47 23 47 49q0 27 -35 47.5t-84 33.5 t-101.5 19.5t-84.5 8.5q-90 0 -142.5 5t-79 18.5t-35 36t-8.5 54.5zM5859 193q-2 43 7.5 123.5t28 161.5t45 141.5t59.5 60.5q12 0 27.5 -9t31.5 -34q16 -18 34.5 -45t39.5 -55q18 -29 37.5 -62t42.5 -67q20 -35 40.5 -64t43.5 -55q14 -16 12 -17q14 0 14 35v19q0 70 -7 119 t-19.5 96t-29 98t-34.5 125l-10 22v9q0 14 4 28.5t16 14.5q23 0 62 -35t76 -101q35 -66 60.5 -154.5t25.5 -197.5q0 -47 -10.5 -96t-31 -90t-49 -66.5t-67.5 -25.5q-29 0 -58.5 28.5t-57.5 71.5t-53.5 93t-46 93t-35.5 72t-22 29q-6 0 -16 -23q-2 -10 -3 -51t-3 -90t-5 -96 t-9 -70q0 -10 -4.5 -26.5t-10.5 -32t-17 -26.5t-28 -11q-25 0 -41 18.5t-24.5 44t-11.5 53t-3 44.5zM6494 168q0 35 17.5 82t33.5 96q-4 16 -10 25.5t-6 27.5q0 12 3 20.5t7 18.5q12 6 26.5 11.5t27.5 7.5l47 110q-18 8 -38 17.5t-37.5 20.5t-28.5 24.5t-11 32.5q0 27 53 30 q66 4 148 22.5t209 18.5q16 0 33.5 -2t49.5 -12q6 -10 17.5 -20.5t21.5 -22.5q25 -29 25 -58q0 -6 -11.5 -14t-28.5 -15t-35.5 -12.5t-33.5 -5.5q-35 -2 -56 -3t-38 -1h-71q-25 0 -29 -2q-6 -8 -17.5 -27.5t-11.5 -56.5q0 -8 5 -15t16 -7h153l31 -4q8 -10 10 -27.5t2 -34.5 q0 -12 -4 -28.5t-20 -18.5q-29 0 -92.5 -2t-143.5 -2q-6 0 -12 -12q-6 -35 -19.5 -69t-29.5 -68q10 0 66.5 11t154.5 21q16 2 34.5 3t37.5 1q16 0 32 -20q17 -18 17 -41t-13 -31q-20 -16 -54 -40.5t-74.5 -47t-89 -38t-99.5 -15.5q-82 0 -125 55q-39 47 -39 117zM6951 -406 q0 14 7 61.5t24.5 118t46 162t71.5 193.5q-16 35 -27 75t-11 77q0 41 9 80.5t25 80.5q16 43 35 79t39 69q23 35 42 62.5t42 49.5q43 43 53 43q25 -4 31 -16t6 -39q0 -16 -6 -30.5t-16.5 -31t-26.5 -43t-41 -61.5q-27 -37 -49 -96q-14 -29 -22.5 -56.5t-8.5 -54.5 q0 -20 8 -26h4l2 2q3 2 5 6q18 27 39.5 53.5t50.5 59.5q29 35 54.5 64.5t53.5 58.5q31 29 58.5 54t56.5 46q51 43 92 43q39 0 65.5 -28.5t42 -69.5t21.5 -84t6 -74q0 -92 -53 -166q-45 -80 -115 -131q-37 -31 -72.5 -51.5t-74.5 -36.5q-37 -16 -70 -23.5t-57 -7.5 q-10 0 -21.5 -1t-23.5 -3q-31 -88 -50.5 -154.5t-35 -128t-29.5 -126t-35 -148.5l-6 -16q-29 4 -54.5 17t-41.5 36q-43 49 -43 112zM7348 180q109 16 201 96q47 41 67.5 90.5t20.5 114.5v17q0 8 -4 18q0 23 -21 23q-14 0 -33.5 -15.5t-40 -37t-39 -44t-30.5 -36.5 q-8 -12 -25.5 -44t-36 -68t-36 -69t-23.5 -45z" />
<glyph unicode="&#xad;" horiz-adv-x="688" d="M72 514q0 29 8 51.5t24 28.5v-6q0 -8 5.5 -10.5t17.5 -8.5q41 -23 79 -30t77 -7q70 0 138 15.5t142 17.5q4 2 15 2q14 0 20 -8q6 -16 6 -53q0 -33 -4 -64.5t-14 -40.5q-20 6 -41 8.5t-41 2.5l-240 -25q-37 0 -73.5 7t-75.5 30q-23 12 -33 37.5t-10 52.5z" />
<glyph unicode="&#xae;" horiz-adv-x="1376" d="M39 772q0 139 56.5 261t151.5 212t222 142.5t266 52.5q125 0 234.5 -53.5t190.5 -140.5t128 -200.5t47 -234.5q0 -133 -50 -254t-137 -213t-206 -146.5t-254 -54.5q-125 0 -241.5 50.5t-208 136.5t-145.5 199.5t-54 242.5zM172 829q0 -104 42 -197t112.5 -164t164 -112 t197.5 -41q106 0 197.5 43t157 116t103.5 167t38 199q0 115 -43 197.5t-129 154.5q-14 10 -39 26.5t-49.5 32t-43 26.5t-22.5 11h-18q20 -10 41.5 -22.5t39 -30.5t29 -44t11.5 -63q-31 37 -72 60.5t-88 37t-98.5 18.5t-100.5 5q-43 0 -73.5 -14t-69.5 -25q-6 0 -6 4t5 12.5 t7 18.5h-14q-63 0 -114.5 -46t-88.5 -111.5t-56.5 -137.5t-19.5 -121zM319 1034q0 12 7 19l63 41q45 23 76 39t61.5 26t65.5 15.5t86 5.5q31 0 77 -8.5t89 -27t73.5 -47t30.5 -69.5q0 -16 -4 -53t-29 -68q-31 -41 -70.5 -70.5t-78.5 -64.5q51 -47 87 -86t69 -82 q4 -4 16 -22.5t18 -28.5q6 -14 14.5 -34.5t8.5 -37.5q0 -12 -9 -15t-20 -3q-23 0 -51.5 13t-44.5 34l-147 162q-18 18 -50 26.5t-55 10.5h-2q-6 0 -8 -6.5t-2 -10.5v-145q0 -20 -2 -43t-10.5 -42.5t-24.5 -31.5t-43 -12q-25 0 -35 16q-6 145 -7 289.5t-1 292.5l-3 -2t-5 -2 q-23 -10 -28 -15.5t-8 -8.5t-10 -4t-30 -1q-63 0 -64 51zM590 866q0 -4 1 -23.5t3 -23.5h6q29 8 63.5 26.5t64.5 44t49.5 57.5t19.5 69q0 33 -21.5 44t-50.5 11q-12 0 -24.5 -1t-26.5 -5q-8 -2 -21.5 -5t-26 -6t-21.5 -6.5t-11 -3.5l-4 -2v-176z" />
<glyph unicode="&#xaf;" horiz-adv-x="688" d="M63 1591q0 25 9.5 46.5t23.5 27.5q2 -12 31 -14q63 -6 119 -6q80 0 153.5 8t163.5 14q4 2 15 2q14 0 20 -8q6 -16 6 -49q0 -29 -4 -56.5t-14 -35.5q-16 2 -31 2h-27q-70 0 -135 -7.5t-141 -7.5q-33 0 -66.5 2t-70.5 9q-29 4 -40.5 25.5t-11.5 47.5z" />
<glyph unicode="&#xb0;" horiz-adv-x="604" d="M59 655q20 33 46 51.5t62 43t85 67.5t117 127q23 27 34.5 65t36.5 56q33 -18 52.5 -48t15.5 -65q-4 -43 -31.5 -82t-64.5 -73.5t-77 -69.5t-71 -72q37 -41 85 -77.5t92 -75.5t76 -80t38 -88q0 -45 -20.5 -60.5t-42.5 -15.5q-16 0 -31 11.5t-29 26.5t-25.5 30.5 t-17.5 25.5q-39 57 -90 104.5t-99 84.5t-87 65.5t-54 48.5z" />
<glyph unicode="&#xb1;" horiz-adv-x="604" d="M59 334q6 47 38 88t76 80t92 75.5t85 77.5q-31 37 -70.5 72t-76.5 69.5t-64.5 73.5t-32.5 82q-4 35 15.5 65t52.5 48q25 -18 37 -56t35 -65q68 -84 117 -127t84.5 -67.5t61.5 -43t46 -51.5q-14 -20 -53 -48.5t-87 -65.5t-99.5 -84t-90.5 -105q-6 -10 -17 -25.5 t-25.5 -30.5t-30 -26.5t-29.5 -11.5q-23 0 -43.5 15.5t-20.5 60.5z" />
<glyph unicode="&#xb2;" horiz-adv-x="768" d="M23 745v3q2 18 13 34.5t26.5 28.5t34 21.5t32.5 13.5l250 239q14 12 34.5 35t41 50.5t35 56t14.5 53.5q0 27 -26.5 43t-51.5 18q-6 2 -18 2q-49 0 -98.5 -19t-84.5 -48q-2 -2 -4 -10.5t-6 -18.5q-4 -20 -12 -34.5t-33 -14.5q-29 4 -37 25.5t-8 44.5q0 6 1 11t1 9v10 q6 45 29.5 76t58.5 50.5t76 27.5t82 8h22t21 -2q72 -10 121 -58t49 -136q0 -43 -23.5 -88.5t-59.5 -90.5t-79 -88t-82 -79q-16 -12 -28.5 -25.5t-24.5 -26.5q18 -2 37.5 -3t27.5 -1q27 -4 43.5 -8t32.5 -8q20 -4 43 -10.5t55 -6.5h25q35 2 53.5 11.5t40.5 19.5 q10 6 18.5 12.5t24.5 14.5q18 -4 23.5 -16.5t5.5 -30.5q-37 -47 -98.5 -82t-114.5 -37l-322 14q-10 0 -25.5 -6t-29.5 -10q-18 -8 -33.5 -14.5t-32.5 -6.5q-20 0 -30 14.5t-10 32.5z" />
<glyph unicode="&#xb3;" horiz-adv-x="620" d="M45 883q0 61 23 61q10 0 21 -5t24 -26q33 -47 80 -75.5t112 -28.5q20 0 48 6t52.5 20.5t42 39t17.5 59.5q0 41 -12.5 59.5t-61.5 40.5q-33 -12 -67.5 -15t-69.5 -3q-59 0 -102 22.5t-43 51.5q0 27 22.5 43t51 25t54 11t31.5 2q29 0 57.5 -3t57.5 -13q35 10 51.5 51 t16.5 68q0 33 -17.5 55.5t-45.5 34.5t-61.5 17t-66.5 5q-23 0 -46.5 -4t-41.5 -12v2q-23 -10 -26 -13t-3 -5q0 -14 20.5 -32.5t35.5 -29.5q-4 0 -19.5 -1t-21.5 -1q-4 -2 -8.5 -3t-14.5 -1q-33 0 -47 21.5t-14 50.5q0 35 16 67.5t45 42.5q33 10 60.5 16.5t66.5 6.5 q57 0 110.5 -10.5t96.5 -35t69.5 -66.5t30.5 -105q-2 -37 -22.5 -88t-54.5 -76q25 -16 43 -30.5t28 -35t15.5 -48t5.5 -68.5q0 -70 -27 -113t-67.5 -67.5t-92 -33.5t-100.5 -9q-61 0 -108.5 18t-79 46t-48 58.5t-16.5 55.5z" />
<glyph unicode="&#xb4;" horiz-adv-x="483" d="M6 1610h14q29 0 53.5 15t59.5 48q66 57 112 90t76.5 47.5t47 17.5t22.5 3q43 0 63.5 -29.5t20.5 -62.5q0 -27 -13 -46.5t-38 -19.5q-18 0 -45 -10t-67 -29.5t-98 -49.5t-138 -66q-41 0 -53.5 29.5t-16.5 62.5z" />
<glyph unicode="&#xb5;" horiz-adv-x="747" d="M20 358q0 8 4.5 22.5t14.5 12.5q4 -2 12 -2q0 66 7.5 123t26.5 102.5t57 73t100 33.5q16 2 37 2h45h84q43 0 98 -8t104 -28.5t84 -57.5t35 -92q0 -39 -21.5 -72t-54 -59.5t-73.5 -46t-78 -31.5q-20 -8 -41 -13.5t-41 -9.5q70 -41 123 -101.5t112 -127.5q14 -16 23.5 -38 t9.5 -44q0 -57 -37 -57q-8 0 -15 1t-18 9q-47 35 -95 77t-97 80.5t-100.5 70.5t-106.5 48q2 -45 7 -91t14 -93q2 -10 3 -19.5t1 -19.5q0 -16 -6.5 -26.5t-26.5 -10.5h-27q-31 0 -53 34t-37.5 84t-25 109.5t-13.5 112.5q-35 29 -35 53zM215 393q70 8 138.5 22.5t122.5 33 t88 37t34 34.5q0 29 -40 40t-99 11q-55 0 -121 -1t-111 -5q-10 -37 -11 -74.5t-1 -72.5v-25z" />
<glyph unicode="&#xb6;" horiz-adv-x="997" d="M41 1042q0 80 18.5 156t56.5 139.5t95 107.5t133 60q49 -4 88 -9t83 -11t100.5 -10.5t140.5 -6.5q4 0 20.5 4.5t39 7.5t48 6t47.5 3q25 0 41.5 -7t16.5 -24q0 -25 -15.5 -47t-40 -38.5t-55.5 -28t-61 -17.5q33 -213 45 -410.5t12 -414.5q0 -80 -1 -146.5t-3 -131t-5 -130 t-7 -145.5q-2 -70 -50 -70q-14 0 -30.5 5t-31.5 14.5t-24.5 25t-7.5 33.5q4 70 8.5 127t6.5 111.5t3 112t1 126.5q0 104 -3 201.5t-8.5 194t-12.5 193.5t-17 200q0 25 -6.5 49t-12.5 47q-31 2 -51 5t-38.5 7t-38 7t-50.5 8q23 -78 38 -148t24.5 -139.5t13.5 -141t4 -153.5 q0 -106 -5 -203.5t-11.5 -193t-13.5 -192t-9 -200.5q-2 -35 -8 -53t-33 -18q-14 0 -32.5 5t-34 15t-26.5 25.5t-9 34.5q2 88 8 168.5t11 160.5t10.5 162t7.5 174q-31 -6 -60 -6q-61 0 -117.5 37t-98.5 95.5t-67.5 129t-25.5 137.5zM184 1102q0 -53 11.5 -111.5t36 -105.5 t64.5 -74.5t97 -15.5q6 6 19 14q-2 76 -7.5 142.5t-15.5 130t-26.5 127t-38.5 134.5q-25 -12 -49.5 -35.5t-45 -56t-33 -70.5t-12.5 -79z" />
<glyph unicode="&#xb7;" horiz-adv-x="370" d="M23 741q0 72 45.5 122t117.5 50q66 0 114 -47t48 -114q0 -63 -47 -112.5t-111 -49.5q-68 0 -117.5 44t-49.5 107z" />
<glyph unicode="&#xb8;" horiz-adv-x="350" d="M2 -332q0 27 14.5 47.5t34.5 30.5q4 -43 33 -60.5t63 -17.5q23 0 46 6q4 16 4 25q0 23 -12.5 45.5t-29 42.5t-37 38.5t-34.5 35.5q-18 18 -18 45q0 29 18 47q23 23 38.5 38t31.5 44q14 6 36 6q29 0 59 -11.5t34 -33.5q-6 -27 -23.5 -46.5t-36.5 -39.5q41 -45 75 -100.5 t34 -116.5v-21q0 -10 -4 -20q-12 -57 -52 -82t-90 -25q-45 0 -89 18.5t-72 49.5q-23 23 -23 55z" />
<glyph unicode="&#xb9;" horiz-adv-x="264" d="M20 1298v21q35 16 64 57t33 94q12 29 39 29q14 0 37.5 -9t27.5 -24q2 -96 4 -194t4 -197q4 -80 6.5 -160.5t4.5 -160.5q-10 -18 -18.5 -25.5t-24.5 -7.5q-8 0 -26.5 4t-29.5 10q-6 10 -7 21.5t-1 27.5q-2 66 -4 127.5t-4 126.5q-4 57 -5 114.5t-3 115.5q-4 -2 -11.5 -4 t-13.5 -2q-27 0 -42 9t-30 27z" />
<glyph unicode="&#xba;" horiz-adv-x="1820" d="M57 1108q0 59 20.5 117.5t59.5 104.5t92.5 74t118.5 28q152 0 240 -74t88 -238q0 -59 -25.5 -118.5t-69.5 -107.5t-101.5 -78t-119.5 -30q-68 0 -124 25t-96 68t-61.5 101t-21.5 128zM141 1096q0 -96 59.5 -152.5t151.5 -56.5q45 0 87 22.5t75 57t53.5 80t20.5 88.5 q0 35 -11.5 72.5t-33 68.5t-53 50.5t-70.5 19.5q-78 0 -129 -70h-12v45h-15l-20 -19q-21 -20 -31 -32q-33 -35 -52.5 -81t-19.5 -93zM438 446v23q0 100 42 185t112 147.5t160 98.5t188 36q90 0 170 -38t140.5 -101.5t95 -146.5t34.5 -171q0 -96 -37.5 -183t-102 -153.5 t-152 -106.5t-185.5 -40q-90 0 -174 36t-148.5 97t-103.5 143t-39 174zM528 496q0 -76 31 -143.5t83 -120t120.5 -83t144.5 -30.5q80 0 146.5 29.5t116 82t77 121t27.5 146.5q0 51 -19.5 104t-53.5 99.5t-81 79t-102 40.5q0 -16 13 -30.5t28.5 -33t29 -41t13.5 -52.5h-10 q-51 55 -118 99t-145 44h-22q-8 -4 -24.5 -16.5t-20.5 -16.5h-10q-12 0 -18.5 6t-16.5 6q-20 0 -27 -6q-72 -47 -117 -120.5t-45 -163.5zM1130 1106v59q4 20 16.5 31t16.5 27q0 2 2 12t4 20.5t4.5 20.5t2.5 12q37 80 116.5 127t165.5 47q72 0 130.5 -33.5t100.5 -85 t65.5 -113t23.5 -116.5q0 -68 -26 -126t-70 -101t-103 -67.5t-125 -24.5t-125 23.5t-103 65.5t-70 98t-26 124zM1163 1159q0 -33 22.5 -79t62.5 -87t93.5 -70.5t114.5 -29.5q41 0 80 15.5t69.5 42t49 64.5t18.5 85q0 51 -17.5 99t-50 85t-79.5 59.5t-105 22.5 q-59 0 -105 -31.5t-81 -91.5v-84q2 -4 7 -13t5 -13v-5q0 -6 -6 -7t-10 -1z" />
<glyph unicode="&#xbb;" horiz-adv-x="841" d="M59 47q18 100 64.5 171t124.5 151q-16 31 -38 57.5t-43.5 58t-37.5 74.5t-23 107q-4 35 12.5 69.5t55.5 42.5q16 -66 51 -130t75 -119.5t81 -97.5t72 -62q-18 -14 -50 -37t-68 -56.5t-73 -83t-65 -116.5q-4 -12 -13.5 -29.5t-20.5 -34t-22.5 -29t-21.5 -12.5 q-27 0 -41.5 23.5t-18.5 52.5zM371 47q6 98 58 170t130 152q-59 74 -96 141.5t-45 155.5q-4 35 15 64.5t52 47.5q12 -10 19.5 -26.5t12.5 -35t10 -39t14 -34.5q35 -70 64.5 -107.5t57 -62t52 -46t49.5 -58.5q-18 -14 -50 -37t-68 -56.5t-72.5 -83t-65.5 -116.5 q-4 -12 -10 -29.5t-15.5 -34t-21.5 -29t-27 -12.5q-23 0 -43 15.5t-20 60.5z" />
<glyph unicode="&#xbc;" horiz-adv-x="1056" d="M84 92q0 14 8 23q74 104 158 235t165 261t151.5 248t115.5 198l100 196q6 6 17 7q12 0 29.5 -11.5t34 -29t27.5 -36t11 -30.5q0 -8 -2 -10q-84 -121 -156.5 -233.5t-151.5 -241.5t-170 -284t-212 -357q-10 -12 -23 -13q-12 0 -30.5 7.5t-34 19.5t-26.5 25.5t-11 25.5z M94 1149v20q35 16 63.5 57.5t32.5 94.5q12 29 39 29q14 0 38 -9.5t28 -23.5q2 -96 4 -194.5t4 -196.5q4 -80 6 -161t4 -161q-10 -18 -18 -25.5t-25 -7.5q-8 0 -26.5 4.5t-28.5 10.5q-6 10 -7 21t-1 28q-2 66 -4 127t-4 127q-4 57 -5 114.5t-4 114.5q-4 -2 -11 -4t-13 -2 q-27 0 -42 9t-30 28zM578 365q0 72 27.5 150.5t68.5 139.5q6 14 9 17.5t17 3.5q27 0 27 -31q0 -14 -7 -34.5t-13 -35.5h2q-16 -41 -27.5 -89t-11.5 -95q0 -33 10 -69q51 -43 102 -43h9l2 30v37q0 41 1 99.5t9 112.5t25.5 93t48.5 39q33 0 54 -23.5t33.5 -60.5t16.5 -83 t4 -91t-2 -79t-11 -59.5t-26.5 -45t-48.5 -33.5q2 -55 6 -105.5t21 -103.5h-2q4 -4 4 -12q0 -12 -6.5 -25.5t-22.5 -19.5h-10q-23 0 -49.5 9t-32.5 26q-4 16 -8 65t-4 107v45h-2q-66 0 -112 17.5t-93 70.5q-4 16 -6 34.5t-2 41.5zM887 408q0 -41 2 -74q6 25 8 53.5t2 50.5 q0 29 -2 65t-8 62q-2 -16 -2 -35v-41v-81z" />
<glyph unicode="&#xbd;" horiz-adv-x="1202" d="M33 1157v21q35 16 63.5 57t32.5 94q12 29 39 29q14 0 37.5 -9.5t27.5 -23.5q2 -96 4.5 -194.5t4.5 -196.5q4 -80 6 -161t4 -161q-10 -18 -18.5 -25t-24.5 -7q-8 0 -26.5 4t-28.5 10q-6 10 -7.5 21.5t-1.5 27.5q-2 66 -4 127t-4 127q-4 57 -5 114.5t-3 114.5 q-4 -2 -11.5 -4t-13.5 -2q-27 0 -42 9.5t-29 27.5zM68 131q0 14 8 23q74 104 157.5 235t164.5 261t152 248t116 198l100 196q6 6 16 6q12 0 29.5 -11t34 -28.5t28 -36t11.5 -30.5q0 -8 -2 -10q-84 -121 -157 -233.5t-151.5 -241.5t-170 -284t-211.5 -357q-10 -12 -23 -13 q-12 0 -30.5 7.5t-34 19.5t-26.5 25.5t-11 25.5zM492 16v2q2 18 13 35t26.5 29t34 21.5t32.5 13.5l250 239q14 12 34.5 35t41 50.5t35 56t14.5 53.5q0 27 -26.5 43t-51.5 18q-6 2 -18 2q-49 0 -98.5 -19.5t-84.5 -47.5q-2 -2 -4 -10.5t-6 -18.5q-4 -20 -12 -34.5t-33 -14.5 q-29 4 -37 25.5t-8 44.5q0 6 1 11t1 9v10q6 45 29.5 76t58.5 50.5t76 27.5t82 8h22t21 -2q72 -10 121 -58t49 -136q0 -43 -23.5 -88.5t-59.5 -90.5t-79 -88t-82 -80q-16 -12 -28.5 -25t-24.5 -26q18 -2 37.5 -3t27.5 -1q27 -4 43.5 -8t32.5 -8q20 -4 43 -10.5t55 -6.5h25 q35 2 53.5 11.5t40.5 19.5q10 6 18.5 12.5t24.5 14.5q18 -4 23.5 -16.5t5.5 -30.5q-37 -47 -98.5 -82t-114.5 -37l-322 14q-10 0 -25.5 -6t-29.5 -10q-18 -8 -33.5 -14.5t-32.5 -6.5q-20 0 -30 14.5t-10 32.5z" />
<glyph unicode="&#xbe;" horiz-adv-x="1196" d="M57 793q0 55 21 55q8 0 18 -5t21 -24q29 -41 71.5 -66.5t100.5 -25.5q18 0 42.5 5t47 18.5t38 35t15.5 52.5q0 18 -2 30.5t-9 21.5t-20.5 18.5t-35.5 19.5q-29 -10 -60 -13.5t-61 -3.5q-53 0 -91 19.5t-38 46.5q0 25 20.5 39t45 21t47 9.5t28.5 2.5q27 0 52.5 -2.5 t49.5 -12.5q14 4 25.5 17.5t20 29t11.5 31.5t3 29q0 31 -15.5 50t-40 30.5t-54 15.5t-60.5 4q-39 0 -78 -14v2q-18 -10 -21.5 -12.5t-3.5 -4.5q0 -12 18.5 -28.5t31.5 -26.5q-4 0 -17.5 -1t-19.5 -1q-4 -2 -7.5 -3t-13.5 -1q-29 0 -42 19.5t-13 43.5q0 33 14.5 62t40.5 39 q29 10 53.5 14t59.5 4q51 0 99 -8t86 -29.5t61.5 -59.5t27.5 -95q-2 -33 -19.5 -78t-49.5 -68q23 -14 39 -27.5t25 -31.5t13.5 -43t4.5 -62q0 -61 -24 -100t-60.5 -60.5t-81.5 -29.5t-88 -8q-55 0 -98.5 16.5t-71 41t-42 52t-14.5 50.5zM227 170q0 14 9 23q74 104 157.5 235 t164.5 261t151.5 248t115.5 198l101 196q6 6 16 6q12 0 29.5 -11t34 -28.5t27.5 -36t11 -30.5q0 -8 -2 -10q-84 -121 -156.5 -234t-151.5 -242t-170 -283.5t-212 -357.5q-10 -12 -22 -12t-30.5 7t-34 19.5t-27 26t-11.5 25.5zM694 373q0 72 28 150.5t69 140.5q6 14 9 17 t17 3q27 0 27 -31q0 -14 -7.5 -34.5t-13.5 -34.5h2q-16 -41 -27.5 -89.5t-11.5 -95.5q0 -33 11 -69q51 -43 102 -43h8l2 30v37q0 41 1 99.5t9.5 113t26 93t47.5 38.5q33 0 54.5 -23.5t34 -60t16.5 -83t4 -91.5t-2 -78.5t-11.5 -59.5t-27 -45t-47.5 -34q2 -55 6 -105t20 -104 h-2q4 -4 4 -12q0 -12 -6 -25.5t-22 -19.5h-10q-23 0 -49.5 9t-32.5 26q-4 16 -8.5 65t-4.5 107v45h-2q-66 0 -111.5 17.5t-93.5 70.5q-4 16 -6 34.5t-2 41.5zM1004 416q0 -41 2 -74q6 25 8 53.5t2 50.5q0 29 -2 65t-8 62q-2 -16 -2 -34v-41v-82z" />
<glyph unicode="&#xbf;" horiz-adv-x="727" d="M20 336q0 37 23 81t56.5 95t73.5 107.5t74 118t56.5 125t22.5 128.5q0 86 -93 86h-14l-6 41l18 25l13 4q31 8 47 8q63 0 115.5 -43t52.5 -121q0 -104 -47 -198.5t-103.5 -177.5t-103.5 -154.5t-47 -130.5q0 -23 9 -49.5t30.5 -49t54.5 -38t82 -15.5q10 0 52 3t88 11.5 t83 23.5t37 40q0 16 -20.5 36.5t-69.5 45.5q41 20 78 20q31 0 53 -13t37.5 -32.5t22.5 -42t7 -43.5q0 -43 -36.5 -78.5t-90 -61.5t-115 -40t-112.5 -14q-68 0 -127 22.5t-104 63.5t-71 96t-26 121zM248 1354q0 35 25.5 61.5t60.5 26.5q37 0 65.5 -23.5t28.5 -58.5 q0 -41 -25.5 -68.5t-66.5 -27.5q-35 0 -61.5 26.5t-26.5 63.5z" />
<glyph unicode="&#xc0;" horiz-adv-x="1112" d="M27 709q0 66 75 88q31 156 84.5 282.5t124 216.5t158.5 139.5t188 49.5q82 0 142.5 -38t102.5 -102.5t68.5 -150.5t42 -183.5t20.5 -199.5t7 -199q47 31 67.5 49.5t20.5 40.5q0 10 -2 17q35 0 50.5 -15.5t15.5 -37.5q0 -23 -14.5 -48.5t-39 -44t-49 -36t-49.5 -31.5 q-2 -55 -3 -104.5t-1 -90.5v-321q0 -12 -5 -34t-11 -24q-25 -4 -45.5 -6t-38.5 -2q-43 0 -76 13q-12 45 -34.5 100t-52.5 112.5t-65.5 113.5t-72.5 106q-29 -4 -56.5 -8.5t-56.5 -8.5q-66 4 -134.5 18.5t-131.5 49.5v-21l-4 -428q-8 -29 -32.5 -35t-53.5 -6h-76 q-16 0 -24.5 13.5t-8.5 29.5q0 8 2 15q2 102 4.5 201.5t2.5 201.5q0 51 2 101.5t6 97.5q-47 68 -47 119zM262 545q66 -47 141.5 -66.5t157.5 -19.5q-72 80 -145.5 138.5t-139.5 78.5q-4 -33 -8 -64.5t-6 -66.5zM297 793q10 -2 21.5 -3.5t21.5 -5.5q86 -37 182 -116.5 t189 -190.5q41 10 79.5 20.5t77.5 26.5q2 45 4 96.5t2 104.5q0 106 -9 216t-34.5 198t-70.5 143t-117 55q-55 0 -106.5 -41t-96.5 -113.5t-81.5 -173t-61.5 -216.5zM414 1726v13q0 61 51 61q12 0 25.5 -4t30.5 -10l45 -22.5t96 -45t112.5 -47t98.5 -29.5l14 9q-2 -16 -6 -39 t-12 -44.5t-21.5 -35.5t-34.5 -14q-80 37 -138 65.5t-98 48t-66.5 29.5t-45.5 12h-6q-10 0 -26 -10q-12 16 -15.5 31.5t-3.5 31.5zM774 397q23 -29 42.5 -57.5t39.5 -58.5v49q0 27 6 94q-23 -8 -44 -14.5t-44 -12.5z" />
<glyph unicode="&#xc1;" horiz-adv-x="1112" d="M27 709q0 66 75 88q31 156 84.5 282.5t124 216.5t158.5 139.5t188 49.5q82 0 142.5 -38t102.5 -102.5t68.5 -150.5t42 -183.5t20.5 -199.5t7 -199q47 31 67.5 49.5t20.5 40.5q0 10 -2 17q35 0 50.5 -15.5t15.5 -37.5q0 -23 -14.5 -48.5t-39 -44t-49 -36t-49.5 -31.5 q-2 -55 -3 -104.5t-1 -90.5v-321q0 -12 -5 -34t-11 -24q-25 -4 -45.5 -6t-38.5 -2q-43 0 -76 13q-12 45 -34.5 100t-52.5 112.5t-65.5 113.5t-72.5 106q-29 -4 -56.5 -8.5t-56.5 -8.5q-66 4 -134.5 18.5t-131.5 49.5v-21l-4 -428q-8 -29 -32.5 -35t-53.5 -6h-76 q-16 0 -24.5 13.5t-8.5 29.5q0 8 2 15q2 102 4.5 201.5t2.5 201.5q0 51 2 101.5t6 97.5q-47 68 -47 119zM262 545q66 -47 141.5 -66.5t157.5 -19.5q-72 80 -145.5 138.5t-139.5 78.5q-4 -33 -8 -64.5t-6 -66.5zM297 793q10 -2 21.5 -3.5t21.5 -5.5q86 -37 182 -116.5 t189 -190.5q41 10 79.5 20.5t77.5 26.5q2 45 4 96.5t2 104.5q0 106 -9 216t-34.5 198t-70.5 143t-117 55q-55 0 -106.5 -41t-96.5 -113.5t-81.5 -173t-61.5 -216.5zM346 1610h14q29 0 53.5 15t59.5 48q66 57 112 90t76.5 47.5t47 17.5t22.5 3q43 0 63.5 -29.5t20.5 -62.5 q0 -27 -13 -46.5t-38 -19.5q-18 0 -45 -10t-67 -29.5t-98 -49.5t-138 -66q-41 0 -53.5 29.5t-16.5 62.5zM774 397q23 -29 42.5 -57.5t39.5 -58.5v49q0 27 6 94q-23 -8 -44 -14.5t-44 -12.5z" />
<glyph unicode="&#xc2;" horiz-adv-x="1112" d="M27 709q0 66 75 88q31 156 84.5 282.5t124 216.5t158.5 139.5t188 49.5q82 0 142.5 -38t102.5 -102.5t68.5 -150.5t42 -183.5t20.5 -199.5t7 -199q47 31 67.5 49.5t20.5 40.5q0 10 -2 17q35 0 50.5 -15.5t15.5 -37.5q0 -23 -14.5 -48.5t-39 -44t-49 -36t-49.5 -31.5 q-2 -55 -3 -104.5t-1 -90.5v-321q0 -12 -5 -34t-11 -24q-25 -4 -45.5 -6t-38.5 -2q-43 0 -76 13q-12 45 -34.5 100t-52.5 112.5t-65.5 113.5t-72.5 106q-29 -4 -56.5 -8.5t-56.5 -8.5q-66 4 -134.5 18.5t-131.5 49.5v-21l-4 -428q-8 -29 -32.5 -35t-53.5 -6h-76 q-16 0 -24.5 13.5t-8.5 29.5q0 8 2 15q2 102 4.5 201.5t2.5 201.5q0 51 2 101.5t6 97.5q-47 68 -47 119zM262 545q66 -47 141.5 -66.5t157.5 -19.5q-72 80 -145.5 138.5t-139.5 78.5q-4 -33 -8 -64.5t-6 -66.5zM297 793q10 -2 21.5 -3.5t21.5 -5.5q86 -37 182 -116.5 t189 -190.5q41 10 79.5 20.5t77.5 26.5q2 45 4 96.5t2 104.5q0 106 -9 216t-34.5 198t-70.5 143t-117 55q-55 0 -106.5 -41t-96.5 -113.5t-81.5 -173t-61.5 -216.5zM307 1649q0 20 8 30q16 -8 28.5 -9t24.5 -1q47 0 74 23.5t55 62.5q10 12 16.5 22.5t11.5 22.5t10 27.5 t13 38.5q4 29 24.5 43t43.5 14q45 0 61 -43q10 -35 17.5 -66.5t38.5 -74.5q4 -6 17 -14.5t30.5 -15.5t36 -12t34.5 -5q23 0 33 -16.5t10 -39.5t-10 -48t-33 -25q-47 0 -98 17t-78 40q-23 18 -42 34.5t-29 39.5q-16 -29 -40 -57.5t-59 -51.5q-29 -18 -53 -28.5t-63 -10.5 q-37 0 -59.5 35t-22.5 68zM774 397q23 -29 42.5 -57.5t39.5 -58.5v49q0 27 6 94q-23 -8 -44 -14.5t-44 -12.5z" />
<glyph unicode="&#xc3;" horiz-adv-x="1112" d="M27 709q0 66 75 88q31 156 84.5 282.5t124 216.5t158.5 139.5t188 49.5q82 0 142.5 -38t102.5 -102.5t68.5 -150.5t42 -183.5t20.5 -199.5t7 -199q47 31 67.5 49.5t20.5 40.5q0 10 -2 17q35 0 50.5 -15.5t15.5 -37.5q0 -23 -14.5 -48.5t-39 -44t-49 -36t-49.5 -31.5 q-2 -55 -3 -104.5t-1 -90.5v-321q0 -12 -5 -34t-11 -24q-25 -4 -45.5 -6t-38.5 -2q-43 0 -76 13q-12 45 -34.5 100t-52.5 112.5t-65.5 113.5t-72.5 106q-29 -4 -56.5 -8.5t-56.5 -8.5q-66 4 -134.5 18.5t-131.5 49.5v-21l-4 -428q-8 -29 -32.5 -35t-53.5 -6h-76 q-16 0 -24.5 13.5t-8.5 29.5q0 8 2 15q2 102 4.5 201.5t2.5 201.5q0 51 2 101.5t6 97.5q-47 68 -47 119zM200 1640q12 74 37 119t55.5 70.5t65.5 34t68 8.5q18 0 58 -28.5t86 -62.5t91 -62.5t76 -28.5q23 0 50.5 10t51 27.5t40 40t16.5 49.5q0 14 -2 20q25 -10 45 -30.5 t20 -51.5q0 -90 -61.5 -148.5t-149.5 -58.5q-39 0 -88 23.5t-97 53.5t-87 53.5t-59 23.5q-59 0 -89 -38t-59 -110q-29 23 -48.5 43.5t-19.5 42.5zM262 545q66 -47 141.5 -66.5t157.5 -19.5q-72 80 -145.5 138.5t-139.5 78.5q-4 -33 -8 -64.5t-6 -66.5zM297 793 q10 -2 21.5 -3.5t21.5 -5.5q86 -37 182 -116.5t189 -190.5q41 10 79.5 20.5t77.5 26.5q2 45 4 96.5t2 104.5q0 106 -9 216t-34.5 198t-70.5 143t-117 55q-55 0 -106.5 -41t-96.5 -113.5t-81.5 -173t-61.5 -216.5zM774 397q23 -29 42.5 -57.5t39.5 -58.5v49q0 27 6 94 q-23 -8 -44 -14.5t-44 -12.5z" />
<glyph unicode="&#xc4;" horiz-adv-x="1112" d="M27 709q0 66 75 88q31 156 84.5 282.5t124 216.5t158.5 139.5t188 49.5q82 0 142.5 -38t102.5 -102.5t68.5 -150.5t42 -183.5t20.5 -199.5t7 -199q47 31 67.5 49.5t20.5 40.5q0 10 -2 17q35 0 50.5 -15.5t15.5 -37.5q0 -23 -14.5 -48.5t-39 -44t-49 -36t-49.5 -31.5 q-2 -55 -3 -104.5t-1 -90.5v-321q0 -12 -5 -34t-11 -24q-25 -4 -45.5 -6t-38.5 -2q-43 0 -76 13q-12 45 -34.5 100t-52.5 112.5t-65.5 113.5t-72.5 106q-29 -4 -56.5 -8.5t-56.5 -8.5q-66 4 -134.5 18.5t-131.5 49.5v-21l-4 -428q-8 -29 -32.5 -35t-53.5 -6h-76 q-16 0 -24.5 13.5t-8.5 29.5q0 8 2 15q2 102 4.5 201.5t2.5 201.5q0 51 2 101.5t6 97.5q-47 68 -47 119zM262 545q66 -47 141.5 -66.5t157.5 -19.5q-72 80 -145.5 138.5t-139.5 78.5q-4 -33 -8 -64.5t-6 -66.5zM297 793q10 -2 21.5 -3.5t21.5 -5.5q86 -37 182 -116.5 t189 -190.5q41 10 79.5 20.5t77.5 26.5q2 45 4 96.5t2 104.5q0 106 -9 216t-34.5 198t-70.5 143t-117 55q-55 0 -106.5 -41t-96.5 -113.5t-81.5 -173t-61.5 -216.5zM389 1634q0 41 25.5 69t66.5 28q35 0 61.5 -27t26.5 -64q0 -35 -25.5 -61.5t-60.5 -26.5q-37 0 -65.5 23.5 t-28.5 58.5zM684 1640q0 41 25.5 69t66.5 28q35 0 61.5 -27t26.5 -63q0 -35 -25.5 -61.5t-60.5 -26.5q-37 0 -65.5 23.5t-28.5 57.5zM774 397q23 -29 42.5 -57.5t39.5 -58.5v49q0 27 6 94q-23 -8 -44 -14.5t-44 -12.5z" />
<glyph unicode="&#xc5;" horiz-adv-x="1112" d="M27 709q0 66 75 88q31 156 84.5 282.5t124 216.5t158.5 139.5t188 49.5q82 0 142.5 -38t102.5 -102.5t68.5 -150.5t42 -183.5t20.5 -199.5t7 -199q47 31 67.5 49.5t20.5 40.5q0 10 -2 17q35 0 50.5 -15.5t15.5 -37.5q0 -23 -14.5 -48.5t-39 -44t-49 -36t-49.5 -31.5 q-2 -55 -3 -104.5t-1 -90.5v-321q0 -12 -5 -34t-11 -24q-25 -4 -45.5 -6t-38.5 -2q-43 0 -76 13q-12 45 -34.5 100t-52.5 112.5t-65.5 113.5t-72.5 106q-29 -4 -56.5 -8.5t-56.5 -8.5q-66 4 -134.5 18.5t-131.5 49.5v-21l-4 -428q-8 -29 -32.5 -35t-53.5 -6h-76 q-16 0 -24.5 13.5t-8.5 29.5q0 8 2 15q2 102 4.5 201.5t2.5 201.5q0 51 2 101.5t6 97.5q-47 68 -47 119zM262 545q66 -47 141.5 -66.5t157.5 -19.5q-72 80 -145.5 138.5t-139.5 78.5q-4 -33 -8 -64.5t-6 -66.5zM297 793q10 -2 21.5 -3.5t21.5 -5.5q86 -37 182 -116.5 t189 -190.5q41 10 79.5 20.5t77.5 26.5q2 45 4 96.5t2 104.5q0 106 -9 216t-34.5 198t-70.5 143t-117 55q-55 0 -106.5 -41t-96.5 -113.5t-81.5 -173t-61.5 -216.5zM389 1747q0 29 7 65.5t28.5 71.5t60.5 61.5t105 34.5q16 10 35.5 12.5t36.5 2.5q41 0 74.5 -22.5t58 -58.5 t39 -80t14.5 -87q0 -47 -20.5 -87t-53.5 -68.5t-74 -45t-82 -16.5q-117 0 -173 60.5t-56 156.5zM479 1761q0 -59 36 -98t97 -39q25 0 50.5 11.5t47 31t35 45t13.5 53.5q0 59 -33 100.5t-70 41.5q-16 0 -22 -4.5t-10 -4.5l-62 -51q2 14 3 21.5t2 11.5t4 8t8 15l-7.5 -7.5 l-5.5 -5.5q-37 -16 -61.5 -39.5t-24.5 -89.5zM774 397q23 -29 42.5 -57.5t39.5 -58.5v49q0 27 6 94q-23 -8 -44 -14.5t-44 -12.5z" />
<glyph unicode="&#xc6;" horiz-adv-x="1931" d="M59 709q0 66 76 88q31 156 84 282.5t124 216.5t159 139.5t188 49.5q123 0 198 -83t116 -220q23 80 78 138t128.5 96t158.5 55.5t171 17.5q61 0 118.5 -10.5t113.5 -28.5q45 -14 68.5 -64.5t23.5 -103.5q0 -23 -5.5 -46.5t-15.5 -42.5t-26.5 -32.5t-40.5 -13.5 q-14 0 -24.5 3t-22.5 5q6 6 16 19.5t18.5 30t14.5 35t6 34.5q0 8 -8.5 17t-53.5 30q-35 12 -87 19.5t-91 7.5q-61 0 -126.5 -16.5t-119 -49.5t-88 -82t-34.5 -113q0 -53 16 -103t51 -73q49 14 99.5 20.5t99.5 6.5q43 0 85 -5t83 -18q57 -16 73.5 -34.5t16.5 -63.5 q0 -29 -9.5 -48t-35 -32.5t-70.5 -19.5t-117 -6q-61 0 -120.5 7t-116.5 30q-10 -4 -23 -13q-41 -12 -65.5 -33.5t-37.5 -49t-17.5 -59.5t-4.5 -69l2 -106q0 -84 27 -149.5t75 -110.5t112.5 -68.5t142.5 -23.5q92 0 181 40.5t151 104.5q45 45 61 45q12 0 15 -20.5t3 -65.5 q0 -72 -49 -109q-47 -37 -86 -63.5t-79 -45t-84 -26.5t-99 -8q-104 0 -202.5 26.5t-184.5 78.5v-33q0 -12 -5 -34t-11 -24q-25 -4 -45.5 -6t-38.5 -2q-43 0 -76 13q-12 45 -34.5 100t-52.5 112.5t-65.5 113.5t-72.5 106q-29 -4 -56.5 -8.5t-56.5 -8.5q-66 4 -134.5 18.5 t-131.5 49.5v-21l-4 -428q-8 -29 -33 -35t-53 -6h-76q-16 0 -24.5 13.5t-8.5 29.5q0 8 2 15q2 102 4 201.5t2 201.5q0 51 2 101.5t6 97.5q-47 68 -47 119zM295 545q66 -47 141.5 -66.5t157.5 -19.5q-72 80 -145.5 138.5t-139.5 78.5q-4 -33 -8 -64.5t-6 -66.5zM330 793 q10 -2 21 -3.5t22 -5.5q86 -37 182 -116.5t188 -190.5q41 10 80 20.5t78 26.5q2 45 4 96.5t2 104.5q0 106 -9 216t-34.5 198t-70.5 143t-117 55q-55 0 -106.5 -41t-96.5 -113.5t-82 -173t-61 -216.5zM807 397q23 -29 42 -57.5t40 -58.5v49q0 27 6 94q-23 -8 -44.5 -14.5 t-43.5 -12.5zM1362 823l108 -10q43 0 103 16q-27 14 -74 15q-41 0 -75.5 -8.5t-61.5 -12.5z" />
<glyph unicode="&#xc7;" horiz-adv-x="1253" d="M31 635q0 86 18.5 181t61.5 188.5t111.5 177.5t169 148.5t234.5 102t308 37.5q33 0 80 -12t93 -36.5t85 -60.5t57 -83q4 -12 6 -27.5t2 -29.5q0 -238 -95 -341.5t-279 -103.5q-47 0 -78 19.5t-49.5 50.5t-25.5 69.5t-7 79.5q0 27 18.5 58.5t47 59.5t64.5 47.5t73 19.5h8 q-47 -57 -75 -98.5t-28 -75.5v-35q0 -18 2.5 -33.5t10.5 -28t25.5 -18.5t45.5 -6q100 0 163 71.5t63 210.5q0 49 -19.5 82t-50.5 52.5t-68.5 27.5t-74.5 8q-174 0 -311.5 -56t-232.5 -150.5t-146.5 -217t-51.5 -258.5q0 -129 51.5 -231t126 -174t158.5 -110t150 -38 q57 0 123.5 8.5t134 22.5t130 32t111.5 34q25 -20 34 -39t9 -35q0 -10 -2 -22.5t-6 -24.5q-49 -29 -116.5 -55.5t-142.5 -48t-149.5 -34t-135.5 -12.5q-113 0 -225.5 49.5t-203 141.5t-146.5 222t-56 294zM510 -332q0 27 14.5 47.5t34.5 30.5q4 -43 33 -60.5t63 -17.5 q23 0 46 6q4 16 4 25q0 23 -12.5 45.5t-29 42.5t-37 38.5t-34.5 35.5q-18 18 -18 45q0 29 18 47q23 23 38.5 38t31.5 44q14 6 36 6q29 0 59 -11.5t34 -33.5q-6 -27 -23.5 -46.5t-36.5 -39.5q41 -45 75 -100.5t34 -116.5v-21q0 -10 -4 -20q-12 -57 -52 -82t-90 -25 q-45 0 -89 18.5t-72 49.5q-23 23 -23 55z" />
<glyph unicode="&#xc8;" horiz-adv-x="1067" d="M18 395q0 74 15.5 144.5t47.5 131t80 107.5t113 76q-41 47 -73.5 110.5t-36.5 129.5q4 104 55 179t129 123t174 70.5t193 22.5q61 0 118.5 -10.5t112.5 -28.5q45 -14 68.5 -64.5t23.5 -103.5q0 -23 -5 -46.5t-15 -42.5t-26.5 -32.5t-41.5 -13.5q-14 0 -24.5 3t-22.5 5 q6 6 16.5 19.5t18.5 30t14 35t6 34.5q0 8 -8 17t-53 30q-35 12 -87 19.5t-91 7.5q-61 0 -127 -16.5t-119 -49.5t-88 -82t-35 -113q0 -53 16.5 -103t51.5 -73q49 14 99 20.5t99 6.5q43 0 85 -5t83 -18q57 -16 73.5 -34.5t16.5 -63.5q0 -29 -9 -48t-34.5 -32.5t-70.5 -19.5 t-117 -6q-61 0 -120.5 7t-116.5 30q-10 -4 -23 -13q-55 -18 -91 -51t-56.5 -75t-28.5 -92t-8 -101q0 -84 36.5 -149.5t95 -110.5t133.5 -67.5t152 -22.5q92 0 181.5 40.5t150.5 104.5q45 45 62 45q12 0 15 -20.5t3 -65.5q0 -72 -49 -109q-47 -37 -86 -63.5t-79 -45 t-84 -26.5t-99 -8q-111 0 -216.5 31t-195.5 90q-100 53 -150.5 150.5t-50.5 205.5zM405 1726v13q0 61 51 61q12 0 25.5 -4t30.5 -10l45 -22.5t96 -45t112.5 -47t98.5 -29.5l14 9q-2 -16 -6 -39t-12 -44.5t-21.5 -35.5t-34.5 -14q-80 37 -138 65.5t-98 48t-66.5 29.5 t-45.5 12h-6q-10 0 -26 -10q-12 16 -15.5 31.5t-3.5 31.5zM537 823l108 -10q43 0 103 16q-27 14 -74 15q-41 0 -76 -8.5t-61 -12.5z" />
<glyph unicode="&#xc9;" horiz-adv-x="1024" d="M18 395q0 74 15.5 144.5t47.5 131t80 107.5t113 76q-41 47 -73.5 110.5t-36.5 129.5q4 104 55 179t129 123t174 70.5t193 22.5q61 0 118.5 -10.5t112.5 -28.5q45 -14 68.5 -64.5t23.5 -103.5q0 -23 -5 -46.5t-15 -42.5t-26.5 -32.5t-41.5 -13.5q-14 0 -24.5 3t-22.5 5 q6 6 16.5 19.5t18.5 30t14 35t6 34.5q0 8 -8 17t-53 30q-35 12 -87 19.5t-91 7.5q-61 0 -127 -16.5t-119 -49.5t-88 -82t-35 -113q0 -53 16.5 -103t51.5 -73q49 14 99 20.5t99 6.5q43 0 85 -5t83 -18q57 -16 73.5 -34.5t16.5 -63.5q0 -29 -9 -48t-34.5 -32.5t-70.5 -19.5 t-117 -6q-61 0 -120.5 7t-116.5 30q-10 -4 -23 -13q-55 -18 -91 -51t-56.5 -75t-28.5 -92t-8 -101q0 -84 36.5 -149.5t95 -110.5t133.5 -67.5t152 -22.5q92 0 181.5 40.5t150.5 104.5q45 45 62 45q12 0 15 -20.5t3 -65.5q0 -72 -49 -109q-47 -37 -86 -63.5t-79 -45 t-84 -26.5t-99 -8q-111 0 -216.5 31t-195.5 90q-100 53 -150.5 150.5t-50.5 205.5zM364 1610h14q29 0 53.5 15t59.5 48q66 57 112 90t76.5 47.5t47 17.5t22.5 3q43 0 63.5 -29.5t20.5 -62.5q0 -27 -13 -46.5t-38 -19.5q-18 0 -45 -10t-67 -29.5t-98 -49.5t-138 -66 q-41 0 -53.5 29.5t-16.5 62.5zM537 823l108 -10q43 0 103 16q-27 14 -74 15q-41 0 -76 -8.5t-61 -12.5z" />
<glyph unicode="&#xca;" horiz-adv-x="1067" d="M18 395q0 74 15.5 144.5t47.5 131t80 107.5t113 76q-41 47 -73.5 110.5t-36.5 129.5q4 104 55 179t129 123t174 70.5t193 22.5q61 0 118.5 -10.5t112.5 -28.5q45 -14 68.5 -64.5t23.5 -103.5q0 -23 -5 -46.5t-15 -42.5t-26.5 -32.5t-41.5 -13.5q-14 0 -24.5 3t-22.5 5 q6 6 16.5 19.5t18.5 30t14 35t6 34.5q0 8 -8 17t-53 30q-35 12 -87 19.5t-91 7.5q-61 0 -127 -16.5t-119 -49.5t-88 -82t-35 -113q0 -53 16.5 -103t51.5 -73q49 14 99 20.5t99 6.5q43 0 85 -5t83 -18q57 -16 73.5 -34.5t16.5 -63.5q0 -29 -9 -48t-34.5 -32.5t-70.5 -19.5 t-117 -6q-61 0 -120.5 7t-116.5 30q-10 -4 -23 -13q-55 -18 -91 -51t-56.5 -75t-28.5 -92t-8 -101q0 -84 36.5 -149.5t95 -110.5t133.5 -67.5t152 -22.5q92 0 181.5 40.5t150.5 104.5q45 45 62 45q12 0 15 -20.5t3 -65.5q0 -72 -49 -109q-47 -37 -86 -63.5t-79 -45 t-84 -26.5t-99 -8q-111 0 -216.5 31t-195.5 90q-100 53 -150.5 150.5t-50.5 205.5zM328 1649q0 20 8 30q16 -8 28.5 -9t24.5 -1q47 0 74 23.5t55 62.5q10 12 16.5 22.5t11.5 22.5t10 27.5t13 38.5q4 29 24.5 43t43.5 14q45 0 61 -43q10 -35 17.5 -66.5t38.5 -74.5 q4 -6 17 -14.5t30.5 -15.5t36 -12t34.5 -5q23 0 33 -16.5t10 -39.5t-10 -48t-33 -25q-47 0 -98 17t-78 40q-23 18 -42 34.5t-29 39.5q-16 -29 -40 -57.5t-59 -51.5q-29 -18 -53 -28.5t-63 -10.5q-37 0 -59.5 35t-22.5 68zM537 823l108 -10q43 0 103 16q-27 14 -74 15 q-41 0 -76 -8.5t-61 -12.5z" />
<glyph unicode="&#xcb;" horiz-adv-x="1067" d="M18 395q0 74 15.5 144.5t47.5 131t80 107.5t113 76q-41 47 -73.5 110.5t-36.5 129.5q4 104 55 179t129 123t174 70.5t193 22.5q61 0 118.5 -10.5t112.5 -28.5q45 -14 68.5 -64.5t23.5 -103.5q0 -23 -5 -46.5t-15 -42.5t-26.5 -32.5t-41.5 -13.5q-14 0 -24.5 3t-22.5 5 q6 6 16.5 19.5t18.5 30t14 35t6 34.5q0 8 -8 17t-53 30q-35 12 -87 19.5t-91 7.5q-61 0 -127 -16.5t-119 -49.5t-88 -82t-35 -113q0 -53 16.5 -103t51.5 -73q49 14 99 20.5t99 6.5q43 0 85 -5t83 -18q57 -16 73.5 -34.5t16.5 -63.5q0 -29 -9 -48t-34.5 -32.5t-70.5 -19.5 t-117 -6q-61 0 -120.5 7t-116.5 30q-10 -4 -23 -13q-55 -18 -91 -51t-56.5 -75t-28.5 -92t-8 -101q0 -84 36.5 -149.5t95 -110.5t133.5 -67.5t152 -22.5q92 0 181.5 40.5t150.5 104.5q45 45 62 45q12 0 15 -20.5t3 -65.5q0 -72 -49 -109q-47 -37 -86 -63.5t-79 -45 t-84 -26.5t-99 -8q-111 0 -216.5 31t-195.5 90q-100 53 -150.5 150.5t-50.5 205.5zM412 1634q0 41 25.5 69t66.5 28q35 0 61.5 -27t26.5 -64q0 -35 -25.5 -61.5t-60.5 -26.5q-37 0 -65.5 23.5t-28.5 58.5zM537 823l108 -10q43 0 103 16q-27 14 -74 15q-41 0 -76 -8.5 t-61 -12.5zM707 1640q0 41 25.5 69t66.5 28q35 0 61.5 -27t26.5 -63q0 -35 -25.5 -61.5t-60.5 -26.5q-37 0 -65.5 23.5t-28.5 57.5z" />
<glyph unicode="&#xcc;" horiz-adv-x="751" d="M49 57q0 27 21.5 41.5t50.5 14.5q16 0 28.5 -5.5t18.5 -19.5q-31 -4 -31 -31q0 -29 45 -63.5t123 -36.5q74 0 117 53t66.5 136t30.5 185.5t7 200.5q0 66 -2 123.5t-2 104.5q0 102 -2 200.5t-6 175t-10 125t-15 54.5q-29 -10 -38 -79t-12 -177.5t-5 -247.5t-12 -289 l-2 -28q0 -66 24 -222q-70 98 -90 254t-20 377v80q0 59 3 141t15.5 156t36 126t64.5 52q39 0 67.5 -9t49 -26.5t34.5 -44t29 -63.5q2 -4 11 -51t19.5 -138.5t19.5 -222.5t9 -303q0 -66 -5 -144.5t-19.5 -157.5t-41 -151.5t-70.5 -129t-105.5 -90t-147.5 -33.5q-49 0 -95 13 t-81 36.5t-56.5 53.5t-21.5 60zM242 1726v13q0 61 51 61q12 0 25.5 -4t30.5 -10l45 -22.5t96 -45t112.5 -47t98.5 -29.5l14 9q-2 -16 -6 -39t-12 -44.5t-21.5 -35.5t-34.5 -14q-80 37 -138 65.5t-98 48t-66.5 29.5t-45.5 12h-6q-10 0 -26 -10q-12 16 -15.5 31.5t-3.5 31.5z " />
<glyph unicode="&#xcd;" horiz-adv-x="751" d="M49 57q0 27 21.5 41.5t50.5 14.5q16 0 28.5 -5.5t18.5 -19.5q-31 -4 -31 -31q0 -29 45 -63.5t123 -36.5q74 0 117 53t66.5 136t30.5 185.5t7 200.5q0 66 -2 123.5t-2 104.5q0 102 -2 200.5t-6 175t-10 125t-15 54.5q-29 -10 -38 -79t-12 -177.5t-5 -247.5t-12 -289 l-2 -28q0 -66 24 -222q-70 98 -90 254t-20 377v80q0 59 3 141t15.5 156t36 126t64.5 52q39 0 67.5 -9t49 -26.5t34.5 -44t29 -63.5q2 -4 11 -51t19.5 -138.5t19.5 -222.5t9 -303q0 -66 -5 -144.5t-19.5 -157.5t-41 -151.5t-70.5 -129t-105.5 -90t-147.5 -33.5q-49 0 -95 13 t-81 36.5t-56.5 53.5t-21.5 60zM221 1610h14q29 0 53.5 15t59.5 48q66 57 112 90t76.5 47.5t47 17.5t22.5 3q43 0 63.5 -29.5t20.5 -62.5q0 -27 -13 -46.5t-38 -19.5q-18 0 -45 -10t-67 -29.5t-98 -49.5t-138 -66q-41 0 -53.5 29.5t-16.5 62.5z" />
<glyph unicode="&#xce;" horiz-adv-x="751" d="M49 57q0 27 21.5 41.5t50.5 14.5q16 0 28.5 -5.5t18.5 -19.5q-31 -4 -31 -31q0 -29 45 -63.5t123 -36.5q74 0 117 53t66.5 136t30.5 185.5t7 200.5q0 66 -2 123.5t-2 104.5q0 102 -2 200.5t-6 175t-10 125t-15 54.5q-29 -10 -38 -79t-12 -177.5t-5 -247.5t-12 -289 l-2 -28q0 -66 24 -222q-70 98 -90 254t-20 377v80q0 59 3 141t15.5 156t36 126t64.5 52q39 0 67.5 -9t49 -26.5t34.5 -44t29 -63.5q2 -4 11 -51t19.5 -138.5t19.5 -222.5t9 -303q0 -66 -5 -144.5t-19.5 -157.5t-41 -151.5t-70.5 -129t-105.5 -90t-147.5 -33.5q-49 0 -95 13 t-81 36.5t-56.5 53.5t-21.5 60zM166 1649q0 20 8 30q16 -8 28.5 -9t24.5 -1q47 0 74 23.5t55 62.5q10 12 16.5 22.5t11.5 22.5t10 27.5t13 38.5q4 29 24.5 43t43.5 14q45 0 61 -43q10 -35 17.5 -66.5t38.5 -74.5q4 -6 17 -14.5t30.5 -15.5t36 -12t34.5 -5q23 0 33 -16.5 t10 -39.5t-10 -48t-33 -25q-47 0 -98 17t-78 40q-23 18 -42 34.5t-29 39.5q-16 -29 -40 -57.5t-59 -51.5q-29 -18 -53 -28.5t-63 -10.5q-37 0 -59.5 35t-22.5 68z" />
<glyph unicode="&#xcf;" horiz-adv-x="751" d="M49 57q0 27 21.5 41.5t50.5 14.5q16 0 28.5 -5.5t18.5 -19.5q-31 -4 -31 -31q0 -29 45 -63.5t123 -36.5q74 0 117 53t66.5 136t30.5 185.5t7 200.5q0 66 -2 123.5t-2 104.5q0 102 -2 200.5t-6 175t-10 125t-15 54.5q-29 -10 -38 -79t-12 -177.5t-5 -247.5t-12 -289 l-2 -28q0 -66 24 -222q-70 98 -90 254t-20 377v80q0 59 3 141t15.5 156t36 126t64.5 52q39 0 67.5 -9t49 -26.5t34.5 -44t29 -63.5q2 -4 11 -51t19.5 -138.5t19.5 -222.5t9 -303q0 -66 -5 -144.5t-19.5 -157.5t-41 -151.5t-70.5 -129t-105.5 -90t-147.5 -33.5q-49 0 -95 13 t-81 36.5t-56.5 53.5t-21.5 60zM236 1634q0 41 25.5 69t66.5 28q35 0 61.5 -27t26.5 -64q0 -35 -25.5 -61.5t-60.5 -26.5q-37 0 -65.5 23.5t-28.5 58.5zM531 1640q0 41 25.5 69t66.5 28q35 0 61.5 -27t26.5 -63q0 -35 -25.5 -61.5t-60.5 -26.5q-37 0 -65.5 23.5t-28.5 57.5z " />
<glyph unicode="&#xd0;" horiz-adv-x="1908" d="M29 1286q0 70 53 109t128 57t153.5 22.5t132.5 4.5q135 0 279.5 -37t291.5 -90q76 -27 166 -75t181 -111.5t176 -142.5t151.5 -168t106.5 -187.5t40 -202.5q0 -139 -67.5 -240.5t-176 -169t-244.5 -100.5t-274 -33q-70 0 -143.5 2t-151.5 6l-24 -63q-16 -4 -32.5 -6 t-37.5 -2l-47 4q-23 27 -34 44t-17 58q-37 12 -77 26.5t-71.5 33t-52 41t-20.5 51.5q0 51 12 70.5t45 27.5q2 -25 8 -40t25 -32q16 -14 40.5 -27.5t90.5 -23.5l14 453q-47 -2 -109.5 -6t-111.5 -9h-6q-39 0 -39 27q0 23 21.5 49.5t48.5 36.5q45 18 95 31.5t110 17.5l4 82 q0 8 5 47t13 85t20.5 88t30.5 57q55 -45 69.5 -95.5t18.5 -119.5l4 -62t7 -65h28q20 0 49 -1t64 -8.5t76 -21.5t84 -41q29 -16 28 -43q0 -29 -32.5 -50.5t-67.5 -21.5q-8 0 -25 4q-53 18 -86.5 22.5t-68.5 4.5h-33q-12 0 -25 -2v-471q86 -10 143.5 -13.5t96.5 -3.5 q55 0 123.5 4.5t139.5 18.5t138.5 41t119.5 71t84 108.5t32 154.5q0 133 -62.5 249.5t-163 213t-226.5 171t-253 124.5q-90 35 -172 60.5t-163.5 42.5t-168.5 25.5t-186 8.5q-41 0 -83 -4t-83 -15q-47 -10 -47 -22q0 -6 11.5 -10.5t24.5 -7.5t25.5 -5t16.5 -4q10 -6 10 -16 q0 -8 -8 -17q-6 0 -19.5 -1t-29.5 -1q-33 0 -64.5 6.5t-31.5 26.5z" />
<glyph unicode="&#xd1;" horiz-adv-x="1155" d="M10 113v18q0 10 4 21q23 78 45.5 176t45 209.5t46 231.5t48.5 243q-27 78 -36 146.5t-9 119.5q0 66 27.5 101.5t66.5 35.5t54 -44t20.5 -101.5t3.5 -113.5t4 -81v-2h2q27 -59 69.5 -145t96 -180.5t111 -187.5t112.5 -168t104 -121t86 -46q25 82 36 164t11 164 q0 113 -18 225.5t-49 222t-71 214t-81 202.5q0 14 5.5 27t13.5 29q193 -184 284 -404.5t91 -486.5q0 -68 -5.5 -161t-26 -183.5t-61.5 -164t-112 -100.5q-37 2 -90.5 38t-111.5 98.5t-120.5 144.5t-120 175t-105.5 193.5t-81 196.5q-8 -115 -18.5 -208t-26.5 -181t-40 -179 t-54 -200q-8 -29 -21.5 -53.5t-56.5 -24.5q-16 0 -28.5 13.5t-23 33t-15.5 44t-5 49.5zM155 1640q12 74 37 119t55.5 70.5t65.5 34t68 8.5q18 0 58 -28.5t86 -62.5t91 -62.5t76 -28.5q23 0 50.5 10t51 27.5t40 40t16.5 49.5q0 14 -2 20q25 -10 45 -30.5t20 -51.5 q0 -90 -61.5 -148.5t-149.5 -58.5q-39 0 -88 23.5t-97 53.5t-87 53.5t-59 23.5q-59 0 -89 -38t-59 -110q-29 23 -48.5 43.5t-19.5 42.5zM229 1288q0 -25 19 -61q10 47 10 80q0 10 -2 18t-8 8q-14 0 -16.5 -10t-2.5 -35z" />
<glyph unicode="&#xd2;" d="M33 643q0 147 48 298t136 272.5t214 198.5t284 77q104 0 181 -51.5t126 -128.5q43 16 86 24t84 8q27 0 57.5 -8t58 -25.5t46 -43t18.5 -60.5q0 -27 -9 -44t-26 -17q-16 0 -23 9t-14 28q-12 41 -43.5 55t-70.5 14q-55 0 -119 -26q37 -92 37 -193q0 -37 -10 -94 q8 -6 14 -23.5t10 -39t7 -44t3 -36.5q0 -82 -15 -177.5t-47 -189.5t-80 -181t-113.5 -154.5t-149.5 -107.5t-186 -40q-129 0 -224.5 66.5t-157 170t-92 226t-30.5 237.5zM227 627q0 -102 20.5 -192.5t63.5 -160t113 -109.5t168 -40q80 0 155.5 58.5t136 150.5t100.5 204.5 t52 221.5q-23 -47 -51.5 -88t-65 -74t-82.5 -51.5t-102 -18.5q-100 0 -146 57.5t-46 168.5q0 70 28.5 141.5t76.5 136t112.5 120.5t136.5 99q-35 61 -82 95t-96 34q-115 0 -206 -64.5t-154.5 -170t-97.5 -241.5t-34 -277zM479 1726v13q0 61 51 61q12 0 25.5 -4t30.5 -10 l45 -22.5t96 -45t112.5 -47t98.5 -29.5l14 9q-2 -16 -6 -39t-12 -44.5t-21.5 -35.5t-34.5 -14q-80 37 -138 65.5t-98 48t-66.5 29.5t-45.5 12h-6q-10 0 -26 -10q-12 16 -15.5 31.5t-3.5 31.5zM700 725q0 -59 19.5 -88t48.5 -29q31 0 65.5 32t62.5 85t46.5 121.5t18.5 142.5 q0 43 -5.5 82t-15.5 74q-49 -41 -93 -90t-77 -104.5t-51.5 -113t-18.5 -112.5z" />
<glyph unicode="&#xd3;" d="M33 643q0 147 48 298t136 272.5t214 198.5t284 77q104 0 181 -51.5t126 -128.5q43 16 86 24t84 8q27 0 57.5 -8t58 -25.5t46 -43t18.5 -60.5q0 -27 -9 -44t-26 -17q-16 0 -23 9t-14 28q-12 41 -43.5 55t-70.5 14q-55 0 -119 -26q37 -92 37 -193q0 -37 -10 -94 q8 -6 14 -23.5t10 -39t7 -44t3 -36.5q0 -82 -15 -177.5t-47 -189.5t-80 -181t-113.5 -154.5t-149.5 -107.5t-186 -40q-129 0 -224.5 66.5t-157 170t-92 226t-30.5 237.5zM227 627q0 -102 20.5 -192.5t63.5 -160t113 -109.5t168 -40q80 0 155.5 58.5t136 150.5t100.5 204.5 t52 221.5q-23 -47 -51.5 -88t-65 -74t-82.5 -51.5t-102 -18.5q-100 0 -146 57.5t-46 168.5q0 70 28.5 141.5t76.5 136t112.5 120.5t136.5 99q-35 61 -82 95t-96 34q-115 0 -206 -64.5t-154.5 -170t-97.5 -241.5t-34 -277zM362 1610h14q29 0 53.5 15t59.5 48q66 57 112 90 t76.5 47.5t47 17.5t22.5 3q43 0 63.5 -29.5t20.5 -62.5q0 -27 -13 -46.5t-38 -19.5q-18 0 -45 -10t-67 -29.5t-98 -49.5t-138 -66q-41 0 -53.5 29.5t-16.5 62.5zM700 725q0 -59 19.5 -88t48.5 -29q31 0 65.5 32t62.5 85t46.5 121.5t18.5 142.5q0 43 -5.5 82t-15.5 74 q-49 -41 -93 -90t-77 -104.5t-51.5 -113t-18.5 -112.5z" />
<glyph unicode="&#xd4;" d="M33 643q0 147 48 298t136 272.5t214 198.5t284 77q104 0 181 -51.5t126 -128.5q43 16 86 24t84 8q27 0 57.5 -8t58 -25.5t46 -43t18.5 -60.5q0 -27 -9 -44t-26 -17q-16 0 -23 9t-14 28q-12 41 -43.5 55t-70.5 14q-55 0 -119 -26q37 -92 37 -193q0 -37 -10 -94 q8 -6 14 -23.5t10 -39t7 -44t3 -36.5q0 -82 -15 -177.5t-47 -189.5t-80 -181t-113.5 -154.5t-149.5 -107.5t-186 -40q-129 0 -224.5 66.5t-157 170t-92 226t-30.5 237.5zM227 627q0 -102 20.5 -192.5t63.5 -160t113 -109.5t168 -40q80 0 155.5 58.5t136 150.5t100.5 204.5 t52 221.5q-23 -47 -51.5 -88t-65 -74t-82.5 -51.5t-102 -18.5q-100 0 -146 57.5t-46 168.5q0 70 28.5 141.5t76.5 136t112.5 120.5t136.5 99q-35 61 -82 95t-96 34q-115 0 -206 -64.5t-154.5 -170t-97.5 -241.5t-34 -277zM361 1649q0 20 8 30q16 -8 28.5 -9t24.5 -1 q47 0 74 23.5t55 62.5q10 12 16.5 22.5t11.5 22.5t10 27.5t13 38.5q4 29 24.5 43t43.5 14q45 0 61 -43q10 -35 17.5 -66.5t38.5 -74.5q4 -6 17 -14.5t30.5 -15.5t36 -12t34.5 -5q23 0 33 -16.5t10 -39.5t-10 -48t-33 -25q-47 0 -98 17t-78 40q-23 18 -42 34.5t-29 39.5 q-16 -29 -40 -57.5t-59 -51.5q-29 -18 -53 -28.5t-63 -10.5q-37 0 -59.5 35t-22.5 68zM700 725q0 -59 19.5 -88t48.5 -29q31 0 65.5 32t62.5 85t46.5 121.5t18.5 142.5q0 43 -5.5 82t-15.5 74q-49 -41 -93 -90t-77 -104.5t-51.5 -113t-18.5 -112.5z" />
<glyph unicode="&#xd5;" d="M33 643q0 147 48 298t136 272.5t214 198.5t284 77q104 0 181 -51.5t126 -128.5q43 16 86 24t84 8q27 0 57.5 -8t58 -25.5t46 -43t18.5 -60.5q0 -27 -9 -44t-26 -17q-16 0 -23 9t-14 28q-12 41 -43.5 55t-70.5 14q-55 0 -119 -26q37 -92 37 -193q0 -37 -10 -94 q8 -6 14 -23.5t10 -39t7 -44t3 -36.5q0 -82 -15 -177.5t-47 -189.5t-80 -181t-113.5 -154.5t-149.5 -107.5t-186 -40q-129 0 -224.5 66.5t-157 170t-92 226t-30.5 237.5zM227 627q0 -102 20.5 -192.5t63.5 -160t113 -109.5t168 -40q80 0 155.5 58.5t136 150.5t100.5 204.5 t52 221.5q-23 -47 -51.5 -88t-65 -74t-82.5 -51.5t-102 -18.5q-100 0 -146 57.5t-46 168.5q0 70 28.5 141.5t76.5 136t112.5 120.5t136.5 99q-35 61 -82 95t-96 34q-115 0 -206 -64.5t-154.5 -170t-97.5 -241.5t-34 -277zM258 1640q12 74 37 119t55.5 70.5t65.5 34t68 8.5 q18 0 58 -28.5t86 -62.5t91 -62.5t76 -28.5q23 0 50.5 10t51 27.5t40 40t16.5 49.5q0 14 -2 20q25 -10 45 -30.5t20 -51.5q0 -90 -61.5 -148.5t-149.5 -58.5q-39 0 -88 23.5t-97 53.5t-87 53.5t-59 23.5q-59 0 -89 -38t-59 -110q-29 23 -48.5 43.5t-19.5 42.5zM700 725 q0 -59 19.5 -88t48.5 -29q31 0 65.5 32t62.5 85t46.5 121.5t18.5 142.5q0 43 -5.5 82t-15.5 74q-49 -41 -93 -90t-77 -104.5t-51.5 -113t-18.5 -112.5z" />
<glyph unicode="&#xd6;" d="M33 643q0 147 48 298t136 272.5t214 198.5t284 77q104 0 181 -51.5t126 -128.5q43 16 86 24t84 8q27 0 57.5 -8t58 -25.5t46 -43t18.5 -60.5q0 -27 -9 -44t-26 -17q-16 0 -23 9t-14 28q-12 41 -43.5 55t-70.5 14q-55 0 -119 -26q37 -92 37 -193q0 -37 -10 -94 q8 -6 14 -23.5t10 -39t7 -44t3 -36.5q0 -82 -15 -177.5t-47 -189.5t-80 -181t-113.5 -154.5t-149.5 -107.5t-186 -40q-129 0 -224.5 66.5t-157 170t-92 226t-30.5 237.5zM227 627q0 -102 20.5 -192.5t63.5 -160t113 -109.5t168 -40q80 0 155.5 58.5t136 150.5t100.5 204.5 t52 221.5q-23 -47 -51.5 -88t-65 -74t-82.5 -51.5t-102 -18.5q-100 0 -146 57.5t-46 168.5q0 70 28.5 141.5t76.5 136t112.5 120.5t136.5 99q-35 61 -82 95t-96 34q-115 0 -206 -64.5t-154.5 -170t-97.5 -241.5t-34 -277zM418 1634q0 41 25.5 69t66.5 28q35 0 61.5 -27 t26.5 -64q0 -35 -25.5 -61.5t-60.5 -26.5q-37 0 -65.5 23.5t-28.5 58.5zM700 725q0 -59 19.5 -88t48.5 -29q31 0 65.5 32t62.5 85t46.5 121.5t18.5 142.5q0 43 -5.5 82t-15.5 74q-49 -41 -93 -90t-77 -104.5t-51.5 -113t-18.5 -112.5zM713 1640q0 41 25.5 69t66.5 28 q35 0 61.5 -27t26.5 -63q0 -35 -25.5 -61.5t-60.5 -26.5q-37 0 -65.5 23.5t-28.5 57.5z" />
<glyph unicode="&#xd7;" horiz-adv-x="847" d="M121 905q0 16 10 31q57 29 125 29q29 -23 47 -62l86 -129q23 27 46.5 49.5t47.5 40.5q88 61 146 62q14 0 26.5 -3t22.5 -13.5t17 -33t14 -59.5q-14 16 -35 17q-23 0 -51.5 -17.5t-57.5 -38.5q-49 -39 -94 -112q20 -25 45 -63t52.5 -72.5t55 -59.5t52.5 -25q29 0 41 15.5 t22 50.5q8 -23 11.5 -45.5t3.5 -44.5q0 -55 -23.5 -95t-73.5 -40q-6 0 -23.5 11t-36.5 26.5t-36.5 31t-25.5 25.5l-144 156q-31 -59 -54.5 -113.5t-35.5 -83.5q-16 -45 -57 -60.5t-72 -15.5q-10 0 -15 10.5t-5 26.5t3 32.5t7 28.5q23 70 58.5 143t76.5 140 q-29 33 -50.5 59.5t-40 51t-35.5 52.5t-40 62q-10 16 -10 35z" />
<glyph unicode="&#xd8;" d="M27 655q0 94 9 173t36.5 156t78 157t130.5 176q47 55 100 78.5t106 31.5l17 -18v-80q-4 -12 -4 -26q0 -12 -8 -21q-49 -43 -100.5 -96t-94.5 -127t-69.5 -172.5t-26.5 -231.5q0 -197 73 -331q70 90 139.5 184t137 186t130 180.5t118.5 165.5q-45 0 -93.5 20.5t-87 53.5 t-63.5 75t-25 85q0 59 21.5 100t57.5 65.5t83 35t99 10.5q104 0 225 -111l71 117q12 6 23 6q18 0 45 -14.5t51.5 -36t42 -45t17.5 -39.5q0 -10 -4 -12q-29 -35 -56.5 -68t-54.5 -68q70 -109 115 -250t45 -309q0 -160 -52.5 -292t-137.5 -226t-193.5 -146t-222.5 -52 q-119 0 -217.5 28.5t-178.5 81.5q-18 -29 -37.5 -55.5t-40.5 -54.5q-6 -10 -15 -13.5t-19 -3.5q-18 0 -44 9.5t-50.5 24.5t-41 31.5t-16.5 32.5q0 20 12 29q27 31 53.5 66t55.5 69q-68 92 -103.5 211t-35.5 260zM399 178q125 -94 306 -94q94 0 175 48t139 128t91 183t33 216 q0 104 -28 212t-73 204q-72 -94 -143.5 -192.5t-148 -207t-163.5 -231t-188 -266.5zM680 1286q0 -25 14.5 -54.5t38 -54t54 -43t63.5 -22.5q25 35 46.5 67.5t39.5 61.5v2q-41 49 -85 79t-85 30q-47 0 -66.5 -18.5t-19.5 -47.5z" />
<glyph unicode="&#xd9;" horiz-adv-x="1298" d="M47 741q0 188 48.5 366.5t140.5 319.5q31 25 45 25q16 0 16 -27q0 -20 -8 -51t-19 -69q-33 -113 -50 -232t-17 -246q0 -139 14 -276t56 -245.5t119 -176.5t202 -68q78 0 164 47.5t160 145.5q-29 66 -48.5 132.5t-30 142t-14.5 162.5t-4 194q0 31 5 85t16.5 116.5t29 127 t41 116.5t53 86t68.5 34q53 0 89 -34t59.5 -87t37 -122.5t19.5 -139.5t7 -136.5t1 -115.5q0 -141 -39 -289.5t-112 -277.5q41 -80 106 -189q33 -27 33 -65q0 -33 -21.5 -58.5t-52.5 -25.5q-23 0 -47 18q-35 49 -64.5 93.5t-54.5 84.5q-80 -92 -183 -148t-226 -56 q-162 0 -266.5 66.5t-165 181t-84 267t-23.5 324.5zM354 1726v13q0 61 51 61q12 0 25.5 -4t30.5 -10l45 -22.5t96 -45t112.5 -47t98.5 -29.5l14 9q-2 -16 -6 -39t-12 -44.5t-21.5 -35.5t-34.5 -14q-80 37 -138 65.5t-98 48t-66.5 29.5t-45.5 12h-6q-10 0 -26 -10 q-12 16 -15.5 31.5t-3.5 31.5zM977 834q0 -133 9 -226.5t34 -173.5q33 82 51.5 180.5t18.5 214.5q0 166 -3.5 259.5t-8.5 138.5t-11 54t-12 9q-12 0 -22.5 -31.5t-19.5 -80t-15.5 -105.5t-11.5 -107.5t-7 -87t-2 -44.5z" />
<glyph unicode="&#xda;" horiz-adv-x="1298" d="M47 741q0 188 48.5 366.5t140.5 319.5q31 25 45 25q16 0 16 -27q0 -20 -8 -51t-19 -69q-33 -113 -50 -232t-17 -246q0 -139 14 -276t56 -245.5t119 -176.5t202 -68q78 0 164 47.5t160 145.5q-29 66 -48.5 132.5t-30 142t-14.5 162.5t-4 194q0 31 5 85t16.5 116.5t29 127 t41 116.5t53 86t68.5 34q53 0 89 -34t59.5 -87t37 -122.5t19.5 -139.5t7 -136.5t1 -115.5q0 -141 -39 -289.5t-112 -277.5q41 -80 106 -189q33 -27 33 -65q0 -33 -21.5 -58.5t-52.5 -25.5q-23 0 -47 18q-35 49 -64.5 93.5t-54.5 84.5q-80 -92 -183 -148t-226 -56 q-162 0 -266.5 66.5t-165 181t-84 267t-23.5 324.5zM389 1610h14q29 0 53.5 15t59.5 48q66 57 112 90t76.5 47.5t47 17.5t22.5 3q43 0 63.5 -29.5t20.5 -62.5q0 -27 -13 -46.5t-38 -19.5q-18 0 -45 -10t-67 -29.5t-98 -49.5t-138 -66q-41 0 -53.5 29.5t-16.5 62.5zM977 834 q0 -133 9 -226.5t34 -173.5q33 82 51.5 180.5t18.5 214.5q0 166 -3.5 259.5t-8.5 138.5t-11 54t-12 9q-12 0 -22.5 -31.5t-19.5 -80t-15.5 -105.5t-11.5 -107.5t-7 -87t-2 -44.5z" />
<glyph unicode="&#xdb;" horiz-adv-x="1298" d="M47 741q0 188 48.5 366.5t140.5 319.5q31 25 45 25q16 0 16 -27q0 -20 -8 -51t-19 -69q-33 -113 -50 -232t-17 -246q0 -139 14 -276t56 -245.5t119 -176.5t202 -68q78 0 164 47.5t160 145.5q-29 66 -48.5 132.5t-30 142t-14.5 162.5t-4 194q0 31 5 85t16.5 116.5t29 127 t41 116.5t53 86t68.5 34q53 0 89 -34t59.5 -87t37 -122.5t19.5 -139.5t7 -136.5t1 -115.5q0 -141 -39 -289.5t-112 -277.5q41 -80 106 -189q33 -27 33 -65q0 -33 -21.5 -58.5t-52.5 -25.5q-23 0 -47 18q-35 49 -64.5 93.5t-54.5 84.5q-80 -92 -183 -148t-226 -56 q-162 0 -266.5 66.5t-165 181t-84 267t-23.5 324.5zM353 1649q0 20 8 30q16 -8 28.5 -9t24.5 -1q47 0 74 23.5t55 62.5q10 12 16.5 22.5t11.5 22.5t10 27.5t13 38.5q4 29 24.5 43t43.5 14q45 0 61 -43q10 -35 17.5 -66.5t38.5 -74.5q4 -6 17 -14.5t30.5 -15.5t36 -12 t34.5 -5q23 0 33 -16.5t10 -39.5t-10 -48t-33 -25q-47 0 -98 17t-78 40q-23 18 -42 34.5t-29 39.5q-16 -29 -40 -57.5t-59 -51.5q-29 -18 -53 -28.5t-63 -10.5q-37 0 -59.5 35t-22.5 68zM977 834q0 -133 9 -226.5t34 -173.5q33 82 51.5 180.5t18.5 214.5q0 166 -3.5 259.5 t-8.5 138.5t-11 54t-12 9q-12 0 -22.5 -31.5t-19.5 -80t-15.5 -105.5t-11.5 -107.5t-7 -87t-2 -44.5z" />
<glyph unicode="&#xdc;" horiz-adv-x="1298" d="M47 741q0 188 48.5 366.5t140.5 319.5q31 25 45 25q16 0 16 -27q0 -20 -8 -51t-19 -69q-33 -113 -50 -232t-17 -246q0 -139 14 -276t56 -245.5t119 -176.5t202 -68q78 0 164 47.5t160 145.5q-29 66 -48.5 132.5t-30 142t-14.5 162.5t-4 194q0 31 5 85t16.5 116.5t29 127 t41 116.5t53 86t68.5 34q53 0 89 -34t59.5 -87t37 -122.5t19.5 -139.5t7 -136.5t1 -115.5q0 -141 -39 -289.5t-112 -277.5q41 -80 106 -189q33 -27 33 -65q0 -33 -21.5 -58.5t-52.5 -25.5q-23 0 -47 18q-35 49 -64.5 93.5t-54.5 84.5q-80 -92 -183 -148t-226 -56 q-162 0 -266.5 66.5t-165 181t-84 267t-23.5 324.5zM418 1634q0 41 25.5 69t66.5 28q35 0 61.5 -27t26.5 -64q0 -35 -25.5 -61.5t-60.5 -26.5q-37 0 -65.5 23.5t-28.5 58.5zM713 1640q0 41 25.5 69t66.5 28q35 0 61.5 -27t26.5 -63q0 -35 -25.5 -61.5t-60.5 -26.5 q-37 0 -65.5 23.5t-28.5 57.5zM977 834q0 -133 9 -226.5t34 -173.5q33 82 51.5 180.5t18.5 214.5q0 166 -3.5 259.5t-8.5 138.5t-11 54t-12 9q-12 0 -22.5 -31.5t-19.5 -80t-15.5 -105.5t-11.5 -107.5t-7 -87t-2 -44.5z" />
<glyph unicode="&#xdd;" horiz-adv-x="739" d="M70 698q0 106 27.5 211t74.5 201t108.5 184t131.5 164q12 10 18 16.5t14 6.5q33 0 33 -41q0 -16 -8 -40t-20.5 -47.5t-25.5 -46t-22 -36.5q-76 -133 -128 -273.5t-52 -300.5q0 -23 5 -50.5t17.5 -54t33 -47t51.5 -24.5l22 94q6 25 24.5 90.5t48.5 150.5t69.5 177t87 169 t100.5 126t113 49q45 0 70.5 -36.5t37.5 -89t14.5 -110t2.5 -100.5q0 -123 -29 -240.5t-86.5 -212.5t-142.5 -161t-195 -80q-35 -147 -56.5 -290.5t-21.5 -293.5q0 -10 -4 -24t-12.5 -28.5t-19.5 -25t-25 -12.5q-20 6 -44 20.5t-43.5 33t-32.5 39t-13 40.5q0 27 9 87.5 t23.5 138.5t32.5 165t39 166q-63 25 -106.5 62t-70 81t-38.5 94t-12 99zM299 1610h14q29 0 53.5 15t59.5 48q66 57 112 90t76.5 47.5t47 17.5t22.5 3q43 0 63.5 -29.5t20.5 -62.5q0 -27 -13 -46.5t-38 -19.5q-18 0 -45 -10t-67 -29.5t-98 -49.5t-138 -66q-41 0 -53.5 29.5 t-16.5 62.5zM500 506q72 29 125 88t88 136t51 165t16 172q0 29 -6 57.5t-12 44.5l-12 -8q-49 -45 -92.5 -137t-76 -193.5t-54 -191.5t-27.5 -133z" />
<glyph unicode="&#xde;" horiz-adv-x="952" d="M31 565q0 27 12.5 48.5t24.5 29.5q8 0 7 -8t3 -19q20 -35 39.5 -46t46.5 -21q4 70 7 138.5t3 135.5q0 147 -13.5 285.5t-43.5 269.5q0 4 -6.5 14.5t-14.5 10.5t-12 -21q-4 -10 -7 -19t-9 -9q-27 20 -27 59q0 29 19.5 51.5t62.5 22.5q66 0 89.5 -32t33.5 -71 q16 -68 27.5 -134t19.5 -132q18 25 50 46.5t69 35.5t74.5 22.5t66.5 8.5q104 0 175 -39t114 -105.5t61.5 -153.5t18.5 -181q0 -113 -38 -192t-101.5 -128t-146.5 -70.5t-171 -21.5q-16 0 -40 2t-49.5 6t-50 8t-38.5 9q-12 -106 -29.5 -212t-38.5 -214q-6 -25 -26 -25 q-53 0 -76 35t-23 74v10q10 57 17.5 103t14.5 91t13 91.5t13 103.5q-29 18 -53.5 39.5t-47.5 48.5q-20 23 -20 55zM301 494q12 -4 34.5 -8.5t46.5 -8.5t46.5 -6t36.5 -2q78 0 139.5 12.5t104.5 44t66.5 87t23.5 141.5q0 57 -8.5 117.5t-36 110.5t-79.5 82t-143 32 q-41 0 -80.5 -14.5t-56.5 -43.5q-25 -49 -38 -94t-21 -91t-12.5 -94.5t-12.5 -101.5q-2 -41 -4 -81.5t-6 -81.5z" />
<glyph unicode="&#xdf;" horiz-adv-x="694" d="M37 303q0 82 18.5 160t59.5 138.5t107.5 96t162.5 35.5q57 0 103.5 -19.5t77 -50t47 -69.5t16.5 -80q0 -47 -19.5 -87t-68.5 -52q31 -16 55.5 -44t42.5 -56.5t27.5 -55t9.5 -41.5q0 -188 -187 -188q-43 0 -85 7t-73.5 21.5t-52 37t-20.5 55.5q0 35 17.5 66.5t56.5 47.5 q6 -4 6 -14q0 -12 -5 -32.5t-5 -41.5q0 -6 17 -10t40 -6t45 -2h35q23 0 47.5 9t24.5 50q0 23 -19.5 42.5t-47.5 34.5t-59.5 26.5t-58.5 17.5q-29 6 -43 31.5t-14 50.5q0 23 11 39t38 16q51 0 93 17.5t42 70.5q0 27 -13 43.5t-30.5 24.5t-36 10t-30.5 2q-47 0 -78 -27.5 t-51.5 -73.5t-28.5 -105.5t-8 -125.5q-1 -118 22 -231q2 -8 2 -25q0 -27 -16 -42t-39 -15q-29 0 -59.5 26.5t-46.5 92.5q-29 111 -29 225z" />
<glyph unicode="&#xe0;" horiz-adv-x="475" d="M16 303l4 39q8 -2 29 -2h68q12 27 30.5 64.5t40 78.5t43 79t39.5 67l99 121l6 24q4 8 9 9t13 1h13q20 0 37.5 -20.5t21.5 -42.5q4 -12 12 -35.5t16.5 -51.5t15.5 -55.5t11 -48.5q8 -68 16.5 -122t13.5 -104t8 -100t3 -110q0 -53 -1 -74.5t-5 -39.5q-10 -6 -22 -7 q-29 0 -52.5 28t-40.5 69l-8 118h-65q-53 0 -77 1t-36 1q-10 0 -12 -2q-23 -8 -37 -58t-37 -107l-22 -60q-16 -16 -50 -16q-10 0 -19 2t-22 4q-23 23 -31 45t-8 55q0 74 58 176q0 25 -14.5 47.5t-47.5 26.5zM150 1090v10q0 45 38 45q9 0 19.5 -3t23.5 -7q3 -2 33.5 -17 t72 -33.5t85 -35.5t74.5 -23l10 7q-1 -12 -4 -29.5t-9 -33.5t-16.5 -26.5t-25.5 -10.5q-61 28 -104.5 49.5t-73.5 36t-50 22t-35 9.5h-4q-8 0 -20 -8q-9 12 -11.5 24t-2.5 24zM301 350q14 -2 29 -2h28h29q16 0 31 2q0 14 -1 37t-4 48.5t-8.5 49t-15.5 41.5 q-10 -4 -23.5 -24.5t-25.5 -48t-22.5 -56.5t-16.5 -47z" />
<glyph unicode="&#xe1;" horiz-adv-x="475" d="M16 303l4 39q8 -2 29 -2h68q12 27 30.5 64.5t40 78.5t43 79t39.5 67l99 121l6 24q4 8 9 9t13 1h13q20 0 37.5 -20.5t21.5 -42.5q4 -12 12 -35.5t16.5 -51.5t15.5 -55.5t11 -48.5q8 -68 16.5 -122t13.5 -104t8 -100t3 -110q0 -53 -1 -74.5t-5 -39.5q-10 -6 -22 -7 q-29 0 -52.5 28t-40.5 69l-8 118h-65q-53 0 -77 1t-36 1q-10 0 -12 -2q-23 -8 -37 -58t-37 -107l-22 -60q-16 -16 -50 -16q-10 0 -19 2t-22 4q-23 23 -31 45t-8 55q0 74 58 176q0 25 -14.5 47.5t-47.5 26.5zM156 997h10q22 0 40.5 11t44.5 36q49 42 84 66.5t57.5 35.5t35 13 t17.5 2q32 0 47.5 -22t15.5 -46q0 -20 -10 -34.5t-29 -14.5q-13 0 -33.5 -7.5t-50.5 -22t-73.5 -37t-103.5 -49.5q-31 0 -40 22t-12 47zM301 350q14 -2 29 -2h28h29q16 0 31 2q0 14 -1 37t-4 48.5t-8.5 49t-15.5 41.5q-10 -4 -23.5 -24.5t-25.5 -48t-22.5 -56.5t-16.5 -47z " />
<glyph unicode="&#xe2;" horiz-adv-x="475" d="M16 303l4 39q8 -2 29 -2h68q12 27 30.5 64.5t40 78.5t43 79t39.5 67l99 121l6 24q4 8 9 9t13 1h13q20 0 37.5 -20.5t21.5 -42.5q4 -12 12 -35.5t16.5 -51.5t15.5 -55.5t11 -48.5q8 -68 16.5 -122t13.5 -104t8 -100t3 -110q0 -53 -1 -74.5t-5 -39.5q-10 -6 -22 -7 q-29 0 -52.5 28t-40.5 69l-8 118h-65q-53 0 -77 1t-36 1q-10 0 -12 -2q-23 -8 -37 -58t-37 -107l-22 -60q-16 -16 -50 -16q-10 0 -19 2t-22 4q-23 23 -31 45t-8 55q0 74 58 176q0 25 -14.5 47.5t-47.5 26.5zM129 993q0 15 6 22q12 -6 21.5 -6.5t18.5 -0.5q35 0 55.5 17.5 t41.5 46.5q7 9 12 17t8.5 17t7.5 20.5t10 29.5q3 21 18 31.5t33 10.5q33 0 45 -32q8 -26 13.5 -50t28.5 -56q3 -4 13 -10.5t23 -12t27 -9t26 -3.5q17 0 24.5 -12.5t7.5 -29.5t-7.5 -36t-24.5 -19q-35 0 -73.5 13t-58.5 30q-17 13 -31.5 25.5t-21.5 29.5q-12 -21 -30 -42.5 t-44 -38.5q-22 -14 -40 -21.5t-47 -7.5q-28 0 -45 26t-17 51zM301 350q14 -2 29 -2h28h29q16 0 31 2q0 14 -1 37t-4 48.5t-8.5 49t-15.5 41.5q-10 -4 -23.5 -24.5t-25.5 -48t-22.5 -56.5t-16.5 -47z" />
<glyph unicode="&#xe3;" horiz-adv-x="475" d="M16 303l4 39q8 -2 29 -2h68q12 27 30.5 64.5t40 78.5t43 79t39.5 67l99 121l6 24q4 8 9 9t13 1h13q20 0 37.5 -20.5t21.5 -42.5q4 -12 12 -35.5t16.5 -51.5t15.5 -55.5t11 -48.5q8 -68 16.5 -122t13.5 -104t8 -100t3 -110q0 -53 -1 -74.5t-5 -39.5q-10 -6 -22 -7 q-29 0 -52.5 28t-40.5 69l-8 118h-65q-53 0 -77 1t-36 1q-10 0 -12 -2q-23 -8 -37 -58t-37 -107l-22 -60q-16 -16 -50 -16q-10 0 -19 2t-22 4q-23 23 -31 45t-8 55q0 74 58 176q0 25 -14.5 47.5t-47.5 26.5zM114 988q7 55 22 88.5t33.5 52.5t39.5 25.5t41 6.5q10 0 34 -21.5 t52 -46.5t55 -46.5t45 -21.5q14 0 30.5 7.5t30.5 20.5t24 30t10 37q0 10 -1 15q15 -8 27 -23t12 -38q0 -68 -37 -111.5t-90 -43.5q-23 0 -52.5 17.5t-58.5 40t-52 40t-35 17.5q-36 0 -54 -28.5t-35 -81.5q-18 17 -29.5 32t-11.5 32zM301 350q14 -2 29 -2h28h29q16 0 31 2 q0 14 -1 37t-4 48.5t-8.5 49t-15.5 41.5q-10 -4 -23.5 -24.5t-25.5 -48t-22.5 -56.5t-16.5 -47z" />
<glyph unicode="&#xe4;" horiz-adv-x="475" d="M16 303l4 39q8 -2 29 -2h68q12 27 30.5 64.5t40 78.5t43 79t39.5 67l99 121l6 24q4 8 9 9t13 1h13q20 0 37.5 -20.5t21.5 -42.5q4 -12 12 -35.5t16.5 -51.5t15.5 -55.5t11 -48.5q8 -68 16.5 -122t13.5 -104t8 -100t3 -110q0 -53 -1 -74.5t-5 -39.5q-10 -6 -22 -7 q-29 0 -52.5 28t-40.5 69l-8 118h-65q-53 0 -77 1t-36 1q-10 0 -12 -2q-23 -8 -37 -58t-37 -107l-22 -60q-16 -16 -50 -16q-10 0 -19 2t-22 4q-23 23 -31 45t-8 55q0 74 58 176q0 25 -14.5 47.5t-47.5 26.5zM199 1014q0 31 19 52t50 21q26 0 46 -20.5t20 -48.5 q0 -26 -19 -46t-46 -20t-48.5 17.5t-21.5 44.5zM301 350q14 -2 29 -2h28h29q16 0 31 2q0 14 -1 37t-4 48.5t-8.5 49t-15.5 41.5q-10 -4 -23.5 -24.5t-25.5 -48t-22.5 -56.5t-16.5 -47zM420 1018q0 31 19 52t50 21q26 0 46 -20t20 -48q0 -26 -19 -46t-46 -20t-48.5 17.5 t-21.5 43.5z" />
<glyph unicode="&#xe5;" horiz-adv-x="475" d="M16 303l4 39q8 -2 29 -2h68q12 27 30.5 64.5t40 78.5t43 79t39.5 67l99 121l6 24q4 8 9 9t13 1h13q20 0 37.5 -20.5t21.5 -42.5q4 -12 12 -35.5t16.5 -51.5t15.5 -55.5t11 -48.5q8 -68 16.5 -122t13.5 -104t8 -100t3 -110q0 -53 -1 -74.5t-5 -39.5q-10 -6 -22 -7 q-29 0 -52.5 28t-40.5 69l-8 118h-65q-53 0 -77 1t-36 1q-10 0 -12 -2q-23 -8 -37 -58t-37 -107l-22 -60q-16 -16 -50 -16q-10 0 -19 2t-22 4q-23 23 -31 45t-8 55q0 74 58 176q0 25 -14.5 47.5t-47.5 26.5zM219 1049q0 25 6 55.5t23.5 58t50.5 49t86 27.5q10 8 26.5 10 t28.5 2q33 0 61.5 -18.5t49 -48t32 -65.5t11.5 -70q0 -39 -17.5 -71t-44 -55.5t-60.5 -36t-66 -12.5q-94 0 -140.5 49.5t-46.5 125.5zM301 350q14 -2 29 -2h28h29q16 0 31 2q0 14 -1 37t-4 48.5t-8.5 49t-15.5 41.5q-10 -4 -23.5 -24.5t-25.5 -48t-22.5 -56.5t-16.5 -47z M303 1063q0 -45 26.5 -73.5t71.5 -28.5q18 0 37 8t35 22.5t26.5 32.5t10.5 41q0 43 -24.5 72.5t-53.5 29.5q-16 0 -22 -6l-45 -37q2 20 3 23.5t5 15.5q-4 -6 -6 -6q-29 -12 -46.5 -29.5t-17.5 -64.5z" />
<glyph unicode="&#xe6;" horiz-adv-x="993" d="M12 94q0 66 49 152q-12 39 -43 61v25q23 8 56 8h18q10 23 28.5 57.5t40 71.5t44 73t39.5 60q6 10 18 25.5t24.5 31t21.5 29.5t11 23l5 16q16 16 45 16q10 0 14 -4q10 -4 21.5 -8t15.5 -16q20 2 63 2q45 0 104.5 1t130 4t142.5 9h17q10 0 17 -1t15 -7q29 -20 46.5 -49 t21.5 -70q-6 -4 -14.5 -8t-20.5 -8q-33 -4 -84 -6t-104.5 -4.5t-98.5 -4.5t-65 -4l-29 -2v-22v-37q0 -18 4 -41h35t70 -1t88 -3t92 -4q4 -12 7 -24.5t3 -26.5q0 -27 -14 -50q-12 -4 -40 -7t-67 -5t-88 -3t-100 -1v-135q4 0 34.5 -5t84.5 -5q55 0 139 12h10q14 0 35 -4 q10 -4 22.5 -18.5t12.5 -24.5v-21q0 -6 -2 -22q-41 -37 -88 -58.5t-97.5 -33t-100.5 -15.5t-97 -4h-2q-8 -2 -19 -2q-55 0 -86 70l-10 110l-6 9h-90h-49t-22 -1l-5 -1q-14 -16 -27.5 -51.5t-33.5 -86.5l-21 -53q-12 -14 -43 -14q-10 0 -19.5 1t-19.5 3q-39 45 -39 102z M272 342q12 -2 25.5 -3t26.5 -1q12 0 24 1t25 3v14t-2 23q-2 14 -8.5 46t-10.5 54q-4 12 -8 17q-8 -8 -13 -18.5t-9 -16.5q-16 -35 -25.5 -56.5t-20.5 -50.5z" />
<glyph unicode="&#xe7;" horiz-adv-x="620" d="M31 274q0 82 30.5 162t88 143.5t140.5 102.5t187 39q16 0 38 -1t42.5 -5t37.5 -13.5t26 -25.5q14 -27 19 -36t5 -32q0 -14 -3 -28.5t-7 -32.5q-18 -8 -35.5 -13.5t-34.5 -5.5q-61 0 -104 64l-103 -27q-31 -8 -62.5 -34.5t-57 -66.5t-42 -90t-16.5 -106q0 -66 39 -104.5 t146 -38.5q39 0 86 17.5t106 35.5h64q14 -10 23 -26.5t9 -38.5q0 -37 -33.5 -59.5t-83 -35t-104.5 -15.5t-100 -3q-154 0 -227.5 69.5t-73.5 204.5zM145 -236q0 20 11 35t26 22q3 -31 24 -44t47 -13q17 0 34 4q3 12 3 19q0 17 -9.5 33.5t-21.5 31t-27.5 28.5t-25.5 26 q-13 14 -13 34q0 21 13 34q17 17 28.5 28t23.5 33q10 4 26 4q22 0 44 -8.5t25 -24.5q-4 -20 -17 -34.5t-27 -28.5q30 -34 55 -75t25 -86v-15t-3 -15q-9 -42 -38.5 -60.5t-66.5 -18.5q-33 0 -65.5 13.5t-53.5 36.5q-17 17 -17 41z" />
<glyph unicode="&#xe8;" horiz-adv-x="548" d="M23 133q0 35 17 81t34 93q-4 16 -10.5 26.5t-6.5 26.5q0 12 3 20.5t8 20.5q12 4 25 9.5t28 7.5l49 112q-18 8 -38.5 17.5t-38 21t-29 24.5t-11.5 30q0 16 13.5 22t39.5 8q33 2 69 8.5t78 13.5t93 13t115 6q14 0 32.5 -2t51.5 -12q14 -16 39.5 -45t25.5 -55 q0 -8 -12 -15.5t-28.5 -13.5t-36 -11t-33.5 -5q-33 -2 -55.5 -3.5t-38.5 -1.5t-33 -1t-37 -1t-31 -2q-6 -6 -15 -26.5t-9 -59.5q0 -6 4 -13t14 -7h152l28 -4q8 -10 10.5 -27.5t2.5 -32.5q0 -12 -4.5 -29.5t-18.5 -19.5q-29 -2 -91.5 -4t-139.5 -2q-8 0 -13 -8 q-8 -33 -20 -68t-29 -69q8 0 64.5 11t154.5 21q16 2 33.5 3.5t34.5 1.5q18 0 34.5 -21t16.5 -41q0 -23 -12 -31q-20 -16 -53 -39.5t-75 -46t-89 -38t-99 -15.5q-86 0 -124.5 53.5t-38.5 118.5zM116 1023v10q0 45 38 45q9 0 19.5 -3t23.5 -7q3 -2 33.5 -17t72 -33.5t85 -35.5 t74.5 -23l10 7q-1 -12 -4 -29.5t-9 -33.5t-16.5 -26.5t-25.5 -10.5q-61 28 -104.5 49.5t-73.5 36t-50 22t-35 9.5h-4q-8 0 -20 -8q-9 12 -11.5 24t-2.5 24z" />
<glyph unicode="&#xe9;" horiz-adv-x="548" d="M23 133q0 35 17 81t34 93q-4 16 -10.5 26.5t-6.5 26.5q0 12 3 20.5t8 20.5q12 4 25 9.5t28 7.5l49 112q-18 8 -38.5 17.5t-38 21t-29 24.5t-11.5 30q0 16 13.5 22t39.5 8q33 2 69 8.5t78 13.5t93 13t115 6q14 0 32.5 -2t51.5 -12q14 -16 39.5 -45t25.5 -55 q0 -8 -12 -15.5t-28.5 -13.5t-36 -11t-33.5 -5q-33 -2 -55.5 -3.5t-38.5 -1.5t-33 -1t-37 -1t-31 -2q-6 -6 -15 -26.5t-9 -59.5q0 -6 4 -13t14 -7h152l28 -4q8 -10 10.5 -27.5t2.5 -32.5q0 -12 -4.5 -29.5t-18.5 -19.5q-29 -2 -91.5 -4t-139.5 -2q-8 0 -13 -8 q-8 -33 -20 -68t-29 -69q8 0 64.5 11t154.5 21q16 2 33.5 3.5t34.5 1.5q18 0 34.5 -21t16.5 -41q0 -23 -12 -31q-20 -16 -53 -39.5t-75 -46t-89 -38t-99 -15.5q-86 0 -124.5 53.5t-38.5 118.5zM147 912h10q22 0 40.5 11t44.5 36q49 42 84 66.5t57.5 35.5t35 13t17.5 2 q32 0 47.5 -22t15.5 -46q0 -20 -10 -34.5t-29 -14.5q-13 0 -33.5 -7.5t-50.5 -22t-73.5 -37t-103.5 -49.5q-31 0 -40 22t-12 47z" />
<glyph unicode="&#xea;" horiz-adv-x="548" d="M23 133q0 35 17 81t34 93q-4 16 -10.5 26.5t-6.5 26.5q0 12 3 20.5t8 20.5q12 4 25 9.5t28 7.5l49 112q-18 8 -38.5 17.5t-38 21t-29 24.5t-11.5 30q0 16 13.5 22t39.5 8q33 2 69 8.5t78 13.5t93 13t115 6q14 0 32.5 -2t51.5 -12q14 -16 39.5 -45t25.5 -55 q0 -8 -12 -15.5t-28.5 -13.5t-36 -11t-33.5 -5q-33 -2 -55.5 -3.5t-38.5 -1.5t-33 -1t-37 -1t-31 -2q-6 -6 -15 -26.5t-9 -59.5q0 -6 4 -13t14 -7h152l28 -4q8 -10 10.5 -27.5t2.5 -32.5q0 -12 -4.5 -29.5t-18.5 -19.5q-29 -2 -91.5 -4t-139.5 -2q-8 0 -13 -8 q-8 -33 -20 -68t-29 -69q8 0 64.5 11t154.5 21q16 2 33.5 3.5t34.5 1.5q18 0 34.5 -21t16.5 -41q0 -23 -12 -31q-20 -16 -53 -39.5t-75 -46t-89 -38t-99 -15.5q-86 0 -124.5 53.5t-38.5 118.5zM103 939q0 15 6 22q12 -6 21.5 -6.5t18.5 -0.5q35 0 55.5 17.5t41.5 46.5 q7 9 12 17t8.5 17t7.5 20.5t10 29.5q3 21 18 31.5t33 10.5q33 0 45 -32q8 -26 13.5 -50t28.5 -56q3 -4 13 -10.5t23 -12t27 -9t26 -3.5q17 0 24.5 -12.5t7.5 -29.5t-7.5 -36t-24.5 -19q-35 0 -73.5 13t-58.5 30q-17 13 -31.5 25.5t-21.5 29.5q-12 -21 -30 -42.5t-44 -38.5 q-22 -14 -40 -21.5t-47 -7.5q-28 0 -45 26t-17 51z" />
<glyph unicode="&#xeb;" horiz-adv-x="548" d="M23 133q0 35 17 81t34 93q-4 16 -10.5 26.5t-6.5 26.5q0 12 3 20.5t8 20.5q12 4 25 9.5t28 7.5l49 112q-18 8 -38.5 17.5t-38 21t-29 24.5t-11.5 30q0 16 13.5 22t39.5 8q33 2 69 8.5t78 13.5t93 13t115 6q14 0 32.5 -2t51.5 -12q14 -16 39.5 -45t25.5 -55 q0 -8 -12 -15.5t-28.5 -13.5t-36 -11t-33.5 -5q-33 -2 -55.5 -3.5t-38.5 -1.5t-33 -1t-37 -1t-31 -2q-6 -6 -15 -26.5t-9 -59.5q0 -6 4 -13t14 -7h152l28 -4q8 -10 10.5 -27.5t2.5 -32.5q0 -12 -4.5 -29.5t-18.5 -19.5q-29 -2 -91.5 -4t-139.5 -2q-8 0 -13 -8 q-8 -33 -20 -68t-29 -69q8 0 64.5 11t154.5 21q16 2 33.5 3.5t34.5 1.5q18 0 34.5 -21t16.5 -41q0 -23 -12 -31q-20 -16 -53 -39.5t-75 -46t-89 -38t-99 -15.5q-86 0 -124.5 53.5t-38.5 118.5zM157 938q0 31 19 52t50 21q26 0 46 -20.5t20 -48.5q0 -26 -19 -46t-46 -20 t-48.5 17.5t-21.5 44.5zM378 942q0 31 19 52t50 21q26 0 46 -20t20 -48q0 -26 -19 -46t-46 -20t-48.5 17.5t-21.5 43.5z" />
<glyph unicode="&#xec;" horiz-adv-x="299" d="M2 834v10q0 45 39 45q16 0 41 -10q4 -2 34.5 -17.5t71.5 -34t84 -36t74 -21.5l12 6q-2 -12 -5 -28.5t-9 -32t-16.5 -26.5t-24.5 -11q-121 55 -178 84t-84 33h-4q-4 0 -21 -9q-10 10 -12 23.5t-2 24.5zM86 98v56q0 20 1 37.5t2 39t3 56.5q2 20 7 95t24 212q2 12 10 12 q49 -2 61.5 -28.5t16.5 -79.5q4 -111 11 -222.5t7 -220.5q0 -23 -11 -43t-46 -20q-10 0 -24.5 3t-24.5 7q-10 2 -16.5 15.5t-10.5 28.5t-7 30.5t-3 21.5z" />
<glyph unicode="&#xed;" horiz-adv-x="299" d="M4 745h10q23 0 40.5 12.5t45.5 37.5q49 43 83 67.5t57.5 34.5t36 12t16.5 2q33 0 48 -22.5t15 -44.5q0 -20 -10 -34.5t-29 -14.5q-29 0 -84 -31t-176 -86q-33 0 -41 22.5t-12 44.5zM86 98v56q0 20 1 37.5t2 39t3 56.5q2 20 7 95t24 212q2 12 10 12q49 -2 61.5 -28.5 t16.5 -79.5q4 -111 11 -222.5t7 -220.5q0 -23 -11 -43t-46 -20q-10 0 -24.5 3t-24.5 7q-10 2 -16.5 15.5t-10.5 28.5t-7 30.5t-3 21.5z" />
<glyph unicode="&#xee;" horiz-adv-x="299" d="M-37 894q0 15 6 22q12 -6 21.5 -6.5t18.5 -0.5q35 0 55.5 17.5t41.5 46.5q7 9 12 17t8.5 17t7.5 20.5t10 28.5q3 22 18 32.5t33 10.5q33 0 45 -32q8 -26 13.5 -49.5t28.5 -56.5q3 -4 13 -10.5t23 -11.5t27 -9t26 -4q17 0 24.5 -12.5t7.5 -29.5t-7.5 -36t-24.5 -19 q-35 0 -73.5 13t-58.5 30q-17 14 -31.5 26t-21.5 30q-12 -22 -30 -43.5t-44 -38.5q-22 -14 -40 -22t-47 -8q-28 0 -45 26.5t-17 51.5z" />
<glyph unicode="&#xef;" horiz-adv-x="299" d="M8 882q0 31 19 52t50 21q26 0 46 -20.5t20 -48.5q0 -26 -19.5 -46t-45.5 -20q-28 0 -49 17.5t-21 44.5zM229 886q0 31 19 52t50 21q26 0 46 -20t20 -48q0 -26 -19 -46t-45 -20q-28 0 -49.5 17.5t-21.5 43.5z" />
<glyph unicode="&#xf0;" horiz-adv-x="1001" d="M31 492q0 74 15 139t48 114.5t82 78t117 28.5q104 0 188 -33t143.5 -90t93.5 -135t40 -166q-53 10 -65.5 29.5t-18.5 27.5q-23 61 -48.5 105.5t-65.5 73t-99.5 43t-149.5 16.5q-70 0 -105.5 -66.5t-35.5 -160.5q0 -104 28.5 -190.5t81 -148t127 -94t166.5 -32.5 q98 0 165 77.5t67 221.5q0 207 -56.5 405.5t-173.5 368.5q-47 -35 -98 -61.5t-110 -47.5l-11 -2q-23 0 -39 18.5t-16 39.5q0 23 29 28q49 8 95 36t93 65q-66 78 -135 139q-12 12 -24.5 30.5t-21.5 40t-15.5 41t-6.5 31.5t4 15q23 0 53.5 -11.5t57.5 -29.5q104 -78 191 -172 q47 37 95 68.5t105 49.5q16 4 21 4q25 0 24 -26q0 -16 -8 -32.5t-18 -27.5q-35 -16 -53.5 -23t-43.5 -30l-61 -55q137 -178 210 -391t79 -432q0 -92 -20.5 -178.5t-65.5 -151t-118 -103t-177 -38.5q-102 0 -201.5 43t-179.5 120.5t-129 187t-49 243.5z" />
<glyph unicode="&#xf1;" horiz-adv-x="577" d="M35 166q0 27 4 73t12 100t20.5 108.5t29 99.5t35 73.5t40.5 28.5q23 0 56.5 -42t72.5 -102.5t81 -128t83 -118.5q16 -16 14 -16q10 0 11.5 13t1.5 40q0 70 -7.5 120t-19.5 96t-28.5 97t-34.5 123l-7 25v8q0 12 3.5 27.5t17.5 15.5q20 0 58 -36t74 -100.5t62.5 -154.5 t26.5 -197q0 -47 -10 -95t-30.5 -88t-50.5 -65.5t-67 -25.5q-29 0 -59.5 28.5t-58 70.5t-52 91.5t-45 91.5t-36 70.5t-21.5 28.5q-8 0 -14 -23q-2 -10 -4.5 -49t-4.5 -88t-5 -95t-7 -71q-2 -10 -6 -26.5t-10 -31.5t-17.5 -26.5t-27.5 -11.5q-25 0 -40.5 18.5t-24.5 44 t-12 53t-3 46.5zM80 866q0 94 29.5 134t70.5 44q14 2 41 -12t57.5 -31.5t58.5 -33t44 -17.5q14 -2 28.5 6.5t27 23.5t19.5 33.5t7 37.5q0 14 -6 26q27 -2 39 -31.5t12 -58.5q0 -53 -25.5 -97t-81.5 -44q-23 0 -52.5 11t-58 25.5t-53 26t-36.5 11.5q-39 0 -50.5 -36 t-17.5 -91q-31 16 -42 32.5t-11 40.5z" />
<glyph unicode="&#xf2;" horiz-adv-x="673" d="M20 342q0 82 33 151.5t87.5 121t125 80t148.5 28.5q66 0 108 -16q51 -23 51 -41q0 -12 -15 -18.5t-30 -8.5h4q35 0 71 -8t69 -31q12 -8 23.5 -27.5t19.5 -42t13 -48t5 -46.5q0 -94 -46 -172t-119.5 -134t-166 -88t-184.5 -36q-6 -18 -22.5 -33.5t-34.5 -31.5 q-31 41 -46.5 75.5t-15.5 59.5v4q-41 70 -59.5 135.5t-18.5 126.5zM139 299q0 -35 8 -61q66 170 131.5 263t151.5 120q23 6 42.5 11t41.5 7q-31 -4 -64.5 -11t-62.5 -18q-66 -16 -112 -49t-76.5 -76t-45 -91t-14.5 -95zM154 1046v10q0 45 38 45q9 0 19.5 -3t23.5 -7 q3 -2 33.5 -17t72 -33.5t85 -35.5t74.5 -23l10 7q-1 -12 -4 -29.5t-9 -33.5t-16.5 -26.5t-25.5 -10.5q-61 28 -104.5 49.5t-73.5 36t-50 22t-35 9.5h-4q-8 0 -20 -8q-9 12 -11.5 24t-2.5 24zM279 180h26q41 0 95.5 21.5t102.5 58.5t81.5 86t33.5 103q0 33 -22 49t-59 16 q-82 0 -141.5 -90t-116.5 -244z" />
<glyph unicode="&#xf3;" horiz-adv-x="673" d="M20 342q0 82 33 151.5t87.5 121t125 80t148.5 28.5q66 0 108 -16q51 -23 51 -41q0 -12 -15 -18.5t-30 -8.5h4q35 0 71 -8t69 -31q12 -8 23.5 -27.5t19.5 -42t13 -48t5 -46.5q0 -94 -46 -172t-119.5 -134t-166 -88t-184.5 -36q-6 -18 -22.5 -33.5t-34.5 -31.5 q-31 41 -46.5 75.5t-15.5 59.5v4q-41 70 -59.5 135.5t-18.5 126.5zM139 299q0 -35 8 -61q66 170 131.5 263t151.5 120q23 6 42.5 11t41.5 7q-31 -4 -64.5 -11t-62.5 -18q-66 -16 -112 -49t-76.5 -76t-45 -91t-14.5 -95zM167 941h10q22 0 40.5 11t44.5 36q49 42 84 66.5 t57.5 35.5t35 13t17.5 2q32 0 47.5 -22t15.5 -46q0 -20 -10 -34.5t-29 -14.5q-13 0 -33.5 -7.5t-50.5 -22t-73.5 -37t-103.5 -49.5q-31 0 -40 22t-12 47zM279 180h26q41 0 95.5 21.5t102.5 58.5t81.5 86t33.5 103q0 33 -22 49t-59 16q-82 0 -141.5 -90t-116.5 -244z" />
<glyph unicode="&#xf4;" horiz-adv-x="673" d="M20 342q0 82 33 151.5t87.5 121t125 80t148.5 28.5q66 0 108 -16q51 -23 51 -41q0 -12 -15 -18.5t-30 -8.5h4q35 0 71 -8t69 -31q12 -8 23.5 -27.5t19.5 -42t13 -48t5 -46.5q0 -94 -46 -172t-119.5 -134t-166 -88t-184.5 -36q-6 -18 -22.5 -33.5t-34.5 -31.5 q-31 41 -46.5 75.5t-15.5 59.5v4q-41 70 -59.5 135.5t-18.5 126.5zM133 954q0 15 6 22q12 -6 21.5 -6.5t18.5 -0.5q35 0 55.5 17.5t41.5 46.5q7 9 12 17t8.5 17t7.5 20.5t10 28.5q3 22 18 32.5t33 10.5q33 0 45 -32q8 -26 13.5 -49.5t28.5 -56.5q3 -4 13 -10.5t23 -11.5 t27 -9t26 -4q17 0 24.5 -12.5t7.5 -29.5t-7.5 -36t-24.5 -19q-35 0 -73.5 13t-58.5 30q-17 14 -31.5 26t-21.5 30q-12 -22 -30 -43.5t-44 -38.5q-22 -14 -40 -22t-47 -8q-28 0 -45 26.5t-17 51.5zM139 299q0 -35 8 -61q66 170 131.5 263t151.5 120q23 6 42.5 11t41.5 7 q-31 -4 -64.5 -11t-62.5 -18q-66 -16 -112 -49t-76.5 -76t-45 -91t-14.5 -95zM279 180h26q41 0 95.5 21.5t102.5 58.5t81.5 86t33.5 103q0 33 -22 49t-59 16q-82 0 -141.5 -90t-116.5 -244z" />
<glyph unicode="&#xf5;" horiz-adv-x="673" d="M20 342q0 82 33 151.5t87.5 121t125 80t148.5 28.5q66 0 108 -16q51 -23 51 -41q0 -12 -15 -18.5t-30 -8.5h4q35 0 71 -8t69 -31q12 -8 23.5 -27.5t19.5 -42t13 -48t5 -46.5q0 -94 -46 -172t-119.5 -134t-166 -88t-184.5 -36q-6 -18 -22.5 -33.5t-34.5 -31.5 q-31 41 -46.5 75.5t-15.5 59.5v4q-41 70 -59.5 135.5t-18.5 126.5zM104 945q7 55 22 88.5t33.5 52.5t39.5 25.5t41 6.5q10 0 34 -21.5t52 -46.5t55 -46.5t45 -21.5q14 0 30.5 7.5t30.5 20.5t24 30t10 37q0 10 -1 15q15 -8 27 -23t12 -38q0 -68 -37 -111.5t-90 -43.5 q-23 0 -52.5 17.5t-58.5 40t-52 40t-35 17.5q-36 0 -54 -28.5t-35 -81.5q-18 17 -29.5 32t-11.5 32zM139 299q0 -35 8 -61q66 170 131.5 263t151.5 120q23 6 42.5 11t41.5 7q-31 -4 -64.5 -11t-62.5 -18q-66 -16 -112 -49t-76.5 -76t-45 -91t-14.5 -95zM279 180h26 q41 0 95.5 21.5t102.5 58.5t81.5 86t33.5 103q0 33 -22 49t-59 16q-82 0 -141.5 -90t-116.5 -244z" />
<glyph unicode="&#xf6;" horiz-adv-x="673" d="M20 342q0 82 33 151.5t87.5 121t125 80t148.5 28.5q66 0 108 -16q51 -23 51 -41q0 -12 -15 -18.5t-30 -8.5h4q35 0 71 -8t69 -31q12 -8 23.5 -27.5t19.5 -42t13 -48t5 -46.5q0 -94 -46 -172t-119.5 -134t-166 -88t-184.5 -36q-6 -18 -22.5 -33.5t-34.5 -31.5 q-31 41 -46.5 75.5t-15.5 59.5v4q-41 70 -59.5 135.5t-18.5 126.5zM139 299q0 -35 8 -61q66 170 131.5 263t151.5 120q23 6 42.5 11t41.5 7q-31 -4 -64.5 -11t-62.5 -18q-66 -16 -112 -49t-76.5 -76t-45 -91t-14.5 -95zM182 941q0 31 19 52t50 21q26 0 46 -20.5t20 -48.5 q0 -26 -19.5 -46t-45.5 -20q-28 0 -49 17.5t-21 44.5zM279 180h26q41 0 95.5 21.5t102.5 58.5t81.5 86t33.5 103q0 33 -22 49t-59 16q-82 0 -141.5 -90t-116.5 -244zM403 945q0 31 19 52t50 21q26 0 46 -20t20 -48q0 -26 -19 -46t-45 -20q-28 0 -49.5 17.5t-21.5 43.5z" />
<glyph unicode="&#xf7;" horiz-adv-x="1050" d="M104 592q0 29 14.5 51.5t39.5 28.5v-6q0 -8 7 -10.5t28 -8.5q63 -23 121.5 -30t117.5 -7q104 0 207.5 15.5t220.5 17.5q8 2 25 2q23 0 33 -8q8 -16 8 -51q0 -33 -7.5 -66t-21.5 -41q-33 6 -64.5 8t-62.5 2l-367 -24q-55 0 -112.5 7t-116.5 30q-37 12 -53.5 37.5 t-16.5 52.5zM424 276q0 41 25.5 69t66.5 28q35 0 61.5 -27t26.5 -63q0 -35 -25.5 -61.5t-60.5 -26.5q-37 0 -65.5 23.5t-28.5 57.5zM430 829q0 41 25.5 69t66.5 28q35 0 61.5 -27t26.5 -63q0 -35 -25.5 -61.5t-60.5 -26.5q-37 0 -65.5 23.5t-28.5 57.5z" />
<glyph unicode="&#xf8;" horiz-adv-x="716" d="M39 317q0 41 10 92.5t41 99.5t86 85t148 49q20 14 48.5 17.5t49.5 3.5q59 0 110 -35l64 104q8 4 12 4q8 0 22.5 -8t27 -18.5t21.5 -23.5t9 -21q0 -4 -2 -7q-23 -27 -43 -51t-39 -51q37 -51 58.5 -114.5t21.5 -125.5q0 -68 -28.5 -123t-74.5 -96t-103.5 -63.5 t-115.5 -22.5q-82 0 -137 21q-35 -49 -73 -105q-6 -8 -17 -8q-10 0 -23.5 5t-25.5 12.5t-21.5 16.5t-9.5 17t6 15q39 45 78 96q-51 41 -75.5 101t-24.5 134zM133 338q0 -111 70 -174q78 102 153.5 207.5t128.5 183.5q-31 18 -63 18q-23 0 -35 -4t-18 -8l-101 -84q2 23 4 34 t4.5 18.5t5.5 14.5l9 21q-8 -14 -17 -16q-31 -12 -56 -27.5t-44.5 -39t-30 -58.5t-10.5 -86zM287 119q27 -8 65 -8q39 0 82 18t79 50t58.5 74t22.5 89q0 43 -12.5 80t-30.5 67q-59 -80 -122.5 -169t-141.5 -201z" />
<glyph unicode="&#xf9;" horiz-adv-x="600" d="M31 272q0 248 196 488q14 10 29 10q23 0 29 -41q-29 -98 -55.5 -193.5t-43.5 -195.5q-4 -25 -6 -48.5t-2 -43.5q0 -49 12.5 -78t53.5 -29q35 0 61.5 34t50 90.5t45 130t48.5 151.5q37 90 63 90q18 0 35 -49q51 -137 70.5 -227.5t27.5 -161.5l10 -101v-20q0 -86 -63 -86 q-14 0 -25.5 2t-25.5 6q-25 33 -25 74q0 27 -3 57.5t-7 58.5l-8 82q-20 -72 -55 -123t-75 -84.5t-79 -49t-70 -15.5h-2q-113 2 -160 92q-14 47 -20 92t-6 88zM150 1005v10q0 45 38 45q9 0 19.5 -3t23.5 -7q3 -2 33.5 -17t72 -33.5t85 -35.5t74.5 -23l10 7q-1 -12 -4 -29.5 t-9 -33.5t-16.5 -26.5t-25.5 -10.5q-61 28 -104.5 49.5t-73.5 36t-50 22t-35 9.5h-4q-8 0 -20 -8q-9 12 -11.5 24t-2.5 24z" />
<glyph unicode="&#xfa;" horiz-adv-x="600" d="M31 272q0 248 196 488q14 10 29 10q23 0 29 -41q-29 -98 -55.5 -193.5t-43.5 -195.5q-4 -25 -6 -48.5t-2 -43.5q0 -49 12.5 -78t53.5 -29q35 0 61.5 34t50 90.5t45 130t48.5 151.5q37 90 63 90q18 0 35 -49q51 -137 70.5 -227.5t27.5 -161.5l10 -101v-20q0 -86 -63 -86 q-14 0 -25.5 2t-25.5 6q-25 33 -25 74q0 27 -3 57.5t-7 58.5l-8 82q-20 -72 -55 -123t-75 -84.5t-79 -49t-70 -15.5h-2q-113 2 -160 92q-14 47 -20 92t-6 88zM139 962h10q22 0 40.5 11t44.5 36q49 42 84 66.5t57.5 35.5t35 13t17.5 2q32 0 47.5 -22t15.5 -46 q0 -20 -10 -34.5t-29 -14.5q-13 0 -33.5 -7.5t-50.5 -22t-73.5 -37t-103.5 -49.5q-31 0 -40 22t-12 47z" />
<glyph unicode="&#xfb;" horiz-adv-x="600" d="M31 272q0 248 196 488q14 10 29 10q23 0 29 -41q-29 -98 -55.5 -193.5t-43.5 -195.5q-4 -25 -6 -48.5t-2 -43.5q0 -49 12.5 -78t53.5 -29q35 0 61.5 34t50 90.5t45 130t48.5 151.5q37 90 63 90q18 0 35 -49q51 -137 70.5 -227.5t27.5 -161.5l10 -101v-20q0 -86 -63 -86 q-14 0 -25.5 2t-25.5 6q-25 33 -25 74q0 27 -3 57.5t-7 58.5l-8 82q-20 -72 -55 -123t-75 -84.5t-79 -49t-70 -15.5h-2q-113 2 -160 92q-14 47 -20 92t-6 88zM120 979q0 15 6 22q12 -6 21.5 -6.5t18.5 -0.5q35 0 55.5 17.5t41.5 46.5q7 9 12 17t8.5 17t7.5 20.5t10 29.5 q3 21 18 31.5t33 10.5q33 0 45 -32q8 -26 13.5 -50t28.5 -56q3 -4 13 -10.5t23 -12t27 -9t26 -3.5q17 0 24.5 -12.5t7.5 -29.5t-7.5 -36t-24.5 -19q-35 0 -73.5 13t-58.5 30q-17 13 -31.5 25.5t-21.5 29.5q-12 -21 -30 -42.5t-44 -38.5q-22 -14 -40 -21.5t-47 -7.5 q-28 0 -45 26t-17 51z" />
<glyph unicode="&#xfc;" horiz-adv-x="600" d="M31 272q0 248 196 488q14 10 29 10q23 0 29 -41q-29 -98 -55.5 -193.5t-43.5 -195.5q-4 -25 -6 -48.5t-2 -43.5q0 -49 12.5 -78t53.5 -29q35 0 61.5 34t50 90.5t45 130t48.5 151.5q37 90 63 90q18 0 35 -49q51 -137 70.5 -227.5t27.5 -161.5l10 -101v-20q0 -86 -63 -86 q-14 0 -25.5 2t-25.5 6q-25 33 -25 74q0 27 -3 57.5t-7 58.5l-8 82q-20 -72 -55 -123t-75 -84.5t-79 -49t-70 -15.5h-2q-113 2 -160 92q-14 47 -20 92t-6 88zM177 967q0 31 19 52t50 21q26 0 46 -20.5t20 -48.5q0 -26 -19 -46t-46 -20t-48.5 17.5t-21.5 44.5zM398 971 q0 31 19 52t50 21q26 0 46 -20t20 -48q0 -26 -19 -46t-46 -20t-48.5 17.5t-21.5 43.5z" />
<glyph unicode="&#xfd;" horiz-adv-x="638" d="M-76 -434q0 14 7.5 61t23.5 118t45 162t72 193q-16 37 -26.5 75t-10.5 75q0 80 32.5 162t74.5 148.5t82 109.5t57 45q23 -4 27.5 -16.5t4.5 -41.5q0 -31 -20.5 -61.5t-67.5 -101.5q-25 -39 -52.5 -96.5t-27.5 -112.5q0 -6 1 -13.5t6 -11.5h4q2 0 8 8q37 49 90 113.5 t110.5 123t111.5 99.5t93 41t66 -28.5t41 -68.5t20 -83t6 -74q0 -90 -49 -165.5t-118.5 -131t-145.5 -86.5t-127 -31q-10 0 -21.5 -1t-23.5 -3q-31 -88 -50.5 -154.5t-34.5 -128t-29.5 -126t-34.5 -146.5l-7 -16q-61 6 -99 52t-38 112zM203 936h10q22 0 40.5 11t44.5 36 q49 42 84 66.5t57.5 35.5t35 13t17.5 2q32 0 47.5 -22t15.5 -46q0 -20 -10 -34.5t-29 -14.5q-13 0 -33.5 -7.5t-50.5 -22t-73.5 -37t-103.5 -49.5q-31 0 -40 22t-12 47zM319 154q106 12 201 94q88 76 88 201q0 16 -3 36.5t-23 20.5q-12 0 -33 -15.5t-41.5 -36t-38.5 -43 t-31 -36.5q-8 -12 -25.5 -43t-37 -67t-35 -67.5t-21.5 -43.5z" />
<glyph unicode="&#xfe;" horiz-adv-x="501" d="M23 8q0 59 8 128t28 138q-2 10 -2 23v25q0 35 6.5 75.5t12.5 81.5t12 80t6 74v22q0 13 -2 25q0 29 20.5 46t53.5 17q45 0 59 -32q6 -18 6 -43q0 -27 -5 -64t-11 -78q61 39 135 39q39 0 62.5 -18.5t36 -46t16.5 -61t4 -66.5q0 -49 -16.5 -98.5t-45 -88.5t-67.5 -63.5 t-84 -24.5q-53 0 -88 15q-6 -59 -10 -111.5t-8 -93.5q-8 -18 -31 -19q-31 0 -63.5 33t-32.5 86zM195 324q0 -53 14 -86t55 -33q20 0 40 18.5t35 48t23.5 63.5t8.5 64q0 35 -13.5 59.5t-46.5 24.5q-47 0 -74.5 -46t-41.5 -113z" />
<glyph unicode="&#xff;" horiz-adv-x="638" d="M-76 -434q0 14 7.5 61t23.5 118t45 162t72 193q-16 37 -26.5 75t-10.5 75q0 80 32.5 162t74.5 148.5t82 109.5t57 45q23 -4 27.5 -16.5t4.5 -41.5q0 -31 -20.5 -61.5t-67.5 -101.5q-25 -39 -52.5 -96.5t-27.5 -112.5q0 -6 1 -13.5t6 -11.5h4q2 0 8 8q37 49 90 113.5 t110.5 123t111.5 99.5t93 41t66 -28.5t41 -68.5t20 -83t6 -74q0 -90 -49 -165.5t-118.5 -131t-145.5 -86.5t-127 -31q-10 0 -21.5 -1t-23.5 -3q-31 -88 -50.5 -154.5t-34.5 -128t-29.5 -126t-34.5 -146.5l-7 -16q-61 6 -99 52t-38 112zM194 952q0 31 19 52t50 21 q26 0 46 -20.5t20 -48.5q0 -26 -19.5 -46t-45.5 -20q-28 0 -49 17.5t-21 44.5zM319 154q106 12 201 94q88 76 88 201q0 16 -3 36.5t-23 20.5q-12 0 -33 -15.5t-41.5 -36t-38.5 -43t-31 -36.5q-8 -12 -25.5 -43t-37 -67t-35 -67.5t-21.5 -43.5zM415 956q0 31 19 52t50 21 q26 0 46 -20t20 -48q0 -26 -19 -46t-45 -20q-28 0 -49.5 17.5t-21.5 43.5z" />
<glyph unicode="&#x11e;" horiz-adv-x="1200" d="M43 408q0 143 41 278t114.5 255t175 220.5t222.5 172t256 111.5t276 40q72 0 138.5 -19.5t119 -56.5t83 -89t30.5 -120q0 -49 -31.5 -86t-78.5 -37q-33 0 -60 23.5t-35 54.5q18 -4 33.5 -8t28.5 -4q41 0 41 53q0 27 -18.5 51.5t-50.5 44t-74 30.5t-87 11 q-125 0 -243.5 -34.5t-223 -94t-188.5 -136.5t-141 -161q-72 -106 -116 -242.5t-44 -287.5q0 -70 28.5 -121t75.5 -85t108.5 -50.5t127.5 -16.5q76 0 151.5 29t134 79t95.5 120.5t37 156.5v19q0 8 -2 18q-111 -49 -230 -69.5t-241 -20.5q-23 0 -58 8.5t-66.5 25.5t-54 44 t-22.5 64q0 55 39 93t98.5 61.5t132 34.5t140.5 11q74 0 142 -17.5t146 -64.5q18 6 39 19.5t39 25.5q0 6 -11 18.5t-11 20.5q6 14 18 15q6 0 8 -2q45 -23 55.5 -47.5t10.5 -49.5q0 -41 -24.5 -75.5t-65.5 -63.5q20 -76 20 -154q0 -104 -42 -189t-112.5 -145.5t-165 -92 t-198.5 -31.5q-111 0 -204 26.5t-160.5 84t-106.5 144.5t-39 208zM397 598q25 -4 63 -6t72 -2h33q16 0 29 2q51 4 92 7t75 6t64.5 9.5t65.5 16.5q-25 14 -52.5 24.5t-53 16.5t-46 9t-30.5 3q-39 0 -87.5 -3t-93.5 -12.5t-81 -25.5t-50 -45zM607 1403q0 -17 11 -26 q23 7 40.5 8t34.5 1q65 0 103 -21t77 -56q14 -11 23 -20.5t16 -20t14 -24.5t18 -34q6 -26 34.5 -38.5t60.5 -12.5q63 0 85 38q14 32 24.5 60t54.5 66q5 5 23 13t42.5 14t50.5 10.5t48 4.5q33 0 46.5 14.5t13.5 35.5q0 20 -13.5 42.5t-46.5 22.5q-65 0 -136.5 -15t-109.5 -36 q-32 -16 -58.5 -30.5t-40.5 -35.5q-22 26 -55.5 51.5t-82.5 45.5q-41 16 -74.5 25.5t-87.5 9.5q-52 0 -83.5 -31t-31.5 -61z" />
<glyph unicode="&#x11f;" horiz-adv-x="690" d="M18 272q0 100 45.5 183.5t110 142.5t138 92t130.5 33q154 0 154 -102q0 -43 -25 -93l-4 -4q-35 -23 -88 -22q18 33 19 53q0 16 -25 16q-14 0 -55 -10q-106 -25 -180 -98.5t-74 -194.5q0 -68 38 -103.5t122 -35.5q18 0 52 4t66.5 18.5t57 44t24.5 78.5q0 10 -10 15.5 t-24.5 8.5t-32 4t-29.5 1q-43 0 -73.5 -22.5t-53.5 -63.5q-35 10 -41 24.5t-6 39.5q0 49 30.5 76.5t73.5 40t90.5 15.5t81.5 3q70 0 109 -40t39 -93q0 -141 -97.5 -215t-275.5 -74q-156 0 -221.5 69.5t-65.5 208.5zM111 7q0 -9 6 -14q12 4 21.5 4.5t18.5 0.5q36 0 56 -11 t41 -29q8 -6 13 -11t8.5 -10.5t7.5 -12.5t10 -18q3 -14 18.5 -20.5t32.5 -6.5q34 0 46 20q7 17 13 31.5t29 34.5q3 3 13 7t23 7.5t27 5.5t26 2q17 0 24.5 8t7.5 18q0 11 -7.5 23t-24.5 12q-36 0 -74 -8t-59 -19q-17 -9 -31.5 -16.5t-21.5 -18.5q-12 14 -30 27.5t-45 23.5 q-21 9 -39.5 13.5t-47.5 4.5q-28 0 -45 -16t-17 -32z" />
<glyph unicode="&#x130;" horiz-adv-x="751" d="M49 57q0 27 21.5 41.5t50.5 14.5q16 0 28.5 -5.5t18.5 -19.5q-31 -4 -31 -31q0 -29 45 -63.5t123 -36.5q74 0 117 53t66.5 136t30.5 185.5t7 200.5q0 66 -2 123.5t-2 104.5q0 102 -2 200.5t-6 175t-10 125t-15 54.5q-29 -10 -38 -79t-12 -177.5t-5 -247.5t-12 -289 l-2 -28q0 -66 24 -222q-70 98 -90 254t-20 377v80q0 59 3 141t15.5 156t36 126t64.5 52q39 0 67.5 -9t49 -26.5t34.5 -44t29 -63.5q2 -4 11 -51t19.5 -138.5t19.5 -222.5t9 -303q0 -66 -5 -144.5t-19.5 -157.5t-41 -151.5t-70.5 -129t-105.5 -90t-147.5 -33.5q-49 0 -95 13 t-81 36.5t-56.5 53.5t-21.5 60zM55 1694q0 51 35 106t91.5 101.5t127 77t144.5 30.5q68 0 116 -22.5t58 -57.5q2 0 3 1t5 1q12 0 31.5 -6t38 -20.5t32 -35t13.5 -48.5q0 -59 -44 -120t-107.5 -109t-133.5 -78.5t-121 -30.5q-31 0 -65.5 4t-63.5 14q-16 -20 -27.5 -34.5 t-33.5 -18.5q-16 4 -32 28.5t-20 59.5q0 8 2 17.5t5 17.5q-23 31 -38.5 59.5t-15.5 63.5zM156 1694q4 -4 8 -4q6 0 10 4q10 14 29.5 34.5t42 44t46 46t42.5 39.5v2q0 6 -4 10q-78 -16 -123 -66.5t-51 -109.5zM279 1620q0 -4 6 -10t10 -6h45q39 0 92 13t102.5 37.5t83 60.5 t33.5 83q0 23 -6 37t-47 14q-45 0 -88 -19.5t-84 -52t-78.5 -73.5t-68.5 -84z" />
<glyph unicode="&#x131;" horiz-adv-x="346" d="M86 119v61q0 25 1 45.5t2 44t3 64.5q2 23 8 107.5t27 240.5q2 14 12 14q55 -2 69.5 -32.5t18.5 -90.5q4 -125 12.5 -252.5t8.5 -250.5q0 -25 -12.5 -48.5t-51.5 -23.5q-12 0 -28.5 4t-28.5 8q-10 2 -17.5 17.5t-12.5 33t-8 34t-3 24.5z" />
<glyph unicode="&#x152;" horiz-adv-x="2148" d="M84 643q0 147 48 298t136 272.5t214 198.5t284 77q104 0 181 -51.5t126 -128.5q111 41 203 72.5t188 60.5q66 25 135.5 36t139.5 11q61 0 118.5 -10.5t112.5 -28.5q45 -14 68.5 -64.5t23.5 -103.5q0 -23 -5 -46.5t-15 -42.5t-26.5 -32.5t-41.5 -13.5q-14 0 -24.5 3 t-22.5 5q6 6 16.5 19.5t18.5 30t14 35t6 34.5q0 8 -8 17t-53 30q-35 12 -87 19.5t-91 7.5q-61 0 -127 -16.5t-119 -49.5t-88 -82t-35 -113q0 -53 16.5 -103t51.5 -73q49 14 99 20.5t99 6.5q43 0 85 -5t83 -18q57 -16 73.5 -34.5t16.5 -63.5q0 -29 -9 -48t-34.5 -32.5 t-70.5 -19.5t-117 -6q-61 0 -120.5 7t-116.5 30q-10 -4 -23 -13q-55 -18 -91 -51t-56.5 -75t-28.5 -92t-8 -101q0 -84 36.5 -149.5t95 -110.5t133.5 -67.5t152 -22.5q92 0 181.5 40.5t150.5 104.5q45 45 62 45q12 0 15 -20.5t3 -65.5q0 -72 -49 -109q-47 -37 -86 -63.5 t-79 -45t-84 -26.5t-99 -8q-111 0 -216.5 31t-195.5 90q-74 39 -120 102.5t-66 137.5q-35 -72 -82 -132.5t-105.5 -106.5t-129 -71.5t-152.5 -25.5q-129 0 -224.5 66.5t-157 170t-92 226t-30.5 237.5zM299 623q0 -86 25.5 -174.5t70.5 -161t108.5 -117.5t139.5 -45 q111 0 191.5 59.5t136 151.5t84 204.5t32.5 219.5q-23 -47 -51 -88t-65 -74t-83 -51.5t-102 -18.5q-100 0 -146 57.5t-46 168.5q0 70 28.5 141.5t77 136t113 120.5t135.5 99q-35 61 -82 95t-96 34q-115 0 -203 -65.5t-147.5 -172t-90 -242.5t-30.5 -277zM752 725 q0 -59 19.5 -88t47.5 -29q31 0 66 32t62.5 85t46 121.5t18.5 142.5q0 43 -5.5 82t-15.5 74q-49 -41 -93 -90t-77 -104.5t-51 -113t-18 -112.5zM1118 1223q37 -92 37 -193q0 -37 -10 -94q8 -6 14 -23.5t10.5 -39t7.5 -44t3 -36.5v-19q49 49 118 80q-41 47 -73.5 110.5 t-36.5 129.5q2 94 51 172q-31 -8 -64.5 -20.5t-56.5 -22.5zM1561 823l108 -10q43 0 103 16q-27 14 -74 15q-41 0 -76 -8.5t-61 -12.5z" />
<glyph unicode="&#x153;" horiz-adv-x="1044" d="M20 297q0 74 30 135.5t78 107.5t111.5 71.5t131.5 25.5q57 0 96 -16q43 -18 43 -31q0 -10 -16.5 -14.5t-28.5 -4.5q-29 -2 -60.5 -9t-60.5 -17q-59 -14 -101 -45t-71 -70t-42 -84t-13 -88q0 -37 12 -70q61 160 121.5 246t138.5 109q49 16 88 16q27 0 58 -6q-4 8 -8.5 15 t-6.5 18l15 12l65 12q10 2 87 8.5t222 18.5h15q20 0 28 -6q53 -37 60 -105q-12 -12 -31 -14q-59 -6 -117.5 -9t-95.5 -7l-25 -2q-4 -14 -10 -31t-14 -57q12 0 58 -2.5t124 -6.5q2 -10 5 -21t3 -24q0 -23 -12 -43q-37 -14 -225 -14l-19 -66l-16 -53q8 0 62.5 8.5t158.5 24.5 h8q14 0 31 -4q10 -4 20.5 -15.5t10.5 -21.5v-18t-2 -21q-70 -63 -158 -95t-172 -32q-25 0 -43 14q-20 14 -32.5 39t-18.5 51q-66 -49 -148 -76.5t-164 -29.5q-6 -18 -18 -31.5t-29 -25.5q-27 35 -39 63.5t-12 50.5v9q-39 61 -55.5 119.5t-16.5 111.5zM242 145h32 q37 0 86.5 20.5t94.5 54.5t75.5 79t30.5 94q0 33 -21.5 49.5t-56.5 16.5q-78 0 -134 -85t-107 -229z" />
<glyph unicode="&#x15e;" horiz-adv-x="1323" d="M70 319q0 74 33.5 126.5t86 85t115 48t121.5 15.5t114.5 -6t107.5 -26.5t101.5 -57.5t96.5 -98q0 -31 -35 -50.5t-70 -19.5q-29 0 -43 12q-66 57 -142.5 100.5t-195.5 43.5q-37 0 -74.5 -7.5t-70.5 -26t-53.5 -50t-20.5 -80.5q0 -43 29 -77t74 -60.5t100 -46t107.5 -32 t95.5 -18.5t65 -6q147 0 244.5 43t154 104.5t79 128t22.5 113.5q0 86 -42 136.5t-110.5 77t-156.5 36.5t-180.5 17.5t-180.5 18.5t-156.5 39.5t-110.5 82t-42 145.5q0 113 63.5 198t167 142t234.5 85t266 28q121 0 213 -46t137 -139q8 -14 9 -32q0 -27 -16.5 -50.5t-41 -42 t-50 -28.5t-44.5 -10l-12 2q-4 0 -4 4q0 2 2 4q10 14 26.5 36.5t16.5 45.5q0 8 -2 12q-4 10 -29 23.5t-64.5 24.5t-95 19.5t-118.5 8.5q-66 0 -147 -13.5t-152.5 -45t-120.5 -85t-49 -133.5q0 -63 42 -97t109.5 -49t155.5 -22.5t178 -16.5t178 -30.5t155.5 -67.5t109.5 -124 t42 -203q0 -137 -68.5 -231.5t-164.5 -152.5t-198.5 -84t-170.5 -26q-49 0 -114.5 11.5t-135 33t-136 54.5t-119 75t-84 95t-31.5 116zM496 -332q0 27 14.5 47.5t34.5 30.5q4 -43 33 -60.5t63 -17.5q23 0 46 6q4 16 4 25q0 23 -12.5 45.5t-29 42.5t-37 38.5t-34.5 35.5 q-18 18 -18 45q0 29 18 47q23 23 38.5 38t31.5 44q14 6 36 6q29 0 59 -11.5t34 -33.5q-6 -27 -23.5 -46.5t-36.5 -39.5q41 -45 75 -100.5t34 -116.5v-21q0 -10 -4 -20q-12 -57 -52 -82t-90 -25q-45 0 -89 18.5t-72 49.5q-23 23 -23 55z" />
<glyph unicode="&#x15f;" horiz-adv-x="731" d="M23 496q0 47 28.5 81.5t72.5 57t95 36t97 20.5t78 9t36 2q78 0 144.5 -11t117.5 -23q10 -2 16.5 -8.5t6.5 -22.5q-2 -18 -15.5 -29.5t-29.5 -17.5q-12 -4 -34 -7t-34 -5q-27 -4 -76 -7.5t-101 -7.5t-99 -8t-72 -8q-51 -8 -76 -14.5t-41 -16.5q-4 -4 -4 -8t4 -4 q59 -23 104.5 -31t106.5 -12q51 -4 112.5 -9.5t113 -24.5t86 -59t34.5 -112q0 -84 -40 -130t-92 -69.5t-103 -28.5t-76 -5q-66 0 -125 18t-104 47t-72 63.5t-27 65.5q0 37 17.5 61.5t45 39t60.5 20.5t64 6q59 0 129.5 -15.5t134.5 -47.5q4 -4 4 -9q0 -8 -4 -12 q-12 -12 -45 -26.5t-72 -14.5q-23 0 -48.5 7t-54 16.5t-58 17.5t-60.5 8q-23 0 -43.5 -8t-20.5 -43q0 -18 15.5 -29.5t40 -15.5t53.5 -5t57 -1q14 0 66.5 6t109 19.5t101.5 34t45 48.5q0 27 -35 46.5t-84 32t-100 19.5t-84 7q-88 2 -141.5 8t-81 19.5t-35.5 35t-8 54.5z M201 -285q0 27 14.5 47.5t34.5 30.5q4 -43 33 -60.5t63 -17.5q23 0 46 6q4 16 4 25q0 23 -12.5 45.5t-29 42.5t-37 38.5t-34.5 35.5q-18 18 -18 45q0 29 18 47q23 23 38.5 38t31.5 44q14 6 36 6q29 0 59 -11.5t34 -33.5q-6 -27 -23.5 -46.5t-36.5 -39.5q41 -45 75 -100.5 t34 -116.5v-21q0 -10 -4 -20q-12 -57 -52 -82t-90 -25q-45 0 -89 18.5t-72 49.5q-23 23 -23 55z" />
<glyph unicode="&#x178;" horiz-adv-x="1087" d="M70 698q0 106 27.5 211t74.5 201t108.5 184t131.5 164q12 10 18 16.5t14 6.5q33 0 33 -41q0 -16 -8 -40t-20.5 -47.5t-25.5 -46t-22 -36.5q-76 -133 -128 -273.5t-52 -300.5q0 -23 5 -50.5t17.5 -54t33 -47t51.5 -24.5l22 94q6 25 24.5 90.5t48.5 150.5t69.5 177t87 169 t100.5 126t113 49q45 0 70.5 -36.5t37.5 -89t14.5 -110t2.5 -100.5q0 -123 -29 -240.5t-86.5 -212.5t-142.5 -161t-195 -80q-35 -147 -56.5 -290.5t-21.5 -293.5q0 -10 -4 -24t-12.5 -28.5t-19.5 -25t-25 -12.5q-20 6 -44 20.5t-43.5 33t-32.5 39t-13 40.5q0 27 9 87.5 t23.5 138.5t32.5 165t39 166q-63 25 -106.5 62t-70 81t-38.5 94t-12 99zM344 1634q0 41 25.5 69t66.5 28q35 0 61.5 -27t26.5 -64q0 -35 -25.5 -61.5t-60.5 -26.5q-37 0 -65.5 23.5t-28.5 58.5zM500 506q72 29 125 88t88 136t51 165t16 172q0 29 -6 57.5t-12 44.5l-12 -8 q-49 -45 -92.5 -137t-76 -193.5t-54 -191.5t-27.5 -133zM639 1640q0 41 25.5 69t66.5 28q35 0 61.5 -27t26.5 -63q0 -35 -25.5 -61.5t-60.5 -26.5q-37 0 -65.5 23.5t-28.5 57.5z" />
<glyph unicode="&#x2c6;" horiz-adv-x="675" d="M31 1649q0 20 8 30q16 -8 28.5 -9t24.5 -1q47 0 74 23.5t55 62.5q10 12 16.5 22.5t11.5 22.5t10 27.5t13 38.5q4 29 24.5 43t43.5 14q45 0 61 -43q10 -35 17.5 -66.5t38.5 -74.5q4 -6 17 -14.5t30.5 -15.5t36 -12t34.5 -5q23 0 33 -16.5t10 -39.5t-10 -48t-33 -25 q-47 0 -98 17t-78 40q-23 18 -42 34.5t-29 39.5q-16 -29 -40 -57.5t-59 -51.5q-29 -18 -53 -28.5t-63 -10.5q-37 0 -59.5 35t-22.5 68z" />
<glyph unicode="&#x2dc;" horiz-adv-x="825" d="M20 1640q12 74 37 119t55.5 70.5t65.5 34t68 8.5q18 0 58 -28.5t86 -62.5t91 -62.5t76 -28.5q23 0 50.5 10t51 27.5t40 40t16.5 49.5q0 14 -2 20q25 -10 45 -30.5t20 -51.5q0 -90 -61.5 -148.5t-149.5 -58.5q-39 0 -88 23.5t-97 53.5t-87 53.5t-59 23.5q-59 0 -89 -38 t-59 -110q-29 23 -48.5 43.5t-19.5 42.5z" />
<glyph unicode="&#x2000;" horiz-adv-x="1004" />
<glyph unicode="&#x2001;" horiz-adv-x="2009" />
<glyph unicode="&#x2002;" horiz-adv-x="1004" />
<glyph unicode="&#x2003;" horiz-adv-x="2009" />
<glyph unicode="&#x2004;" horiz-adv-x="669" />
<glyph unicode="&#x2005;" horiz-adv-x="502" />
<glyph unicode="&#x2006;" horiz-adv-x="334" />
<glyph unicode="&#x2007;" horiz-adv-x="334" />
<glyph unicode="&#x2008;" horiz-adv-x="251" />
<glyph unicode="&#x2009;" horiz-adv-x="401" />
<glyph unicode="&#x200a;" horiz-adv-x="111" />
<glyph unicode="&#x2010;" horiz-adv-x="688" d="M72 514q0 29 8 51.5t24 28.5v-6q0 -8 5.5 -10.5t17.5 -8.5q41 -23 79 -30t77 -7q70 0 138 15.5t142 17.5q4 2 15 2q14 0 20 -8q6 -16 6 -53q0 -33 -4 -64.5t-14 -40.5q-20 6 -41 8.5t-41 2.5l-240 -25q-37 0 -73.5 7t-75.5 30q-23 12 -33 37.5t-10 52.5z" />
<glyph unicode="&#x2011;" horiz-adv-x="688" d="M72 514q0 29 8 51.5t24 28.5v-6q0 -8 5.5 -10.5t17.5 -8.5q41 -23 79 -30t77 -7q70 0 138 15.5t142 17.5q4 2 15 2q14 0 20 -8q6 -16 6 -53q0 -33 -4 -64.5t-14 -40.5q-20 6 -41 8.5t-41 2.5l-240 -25q-37 0 -73.5 7t-75.5 30q-23 12 -33 37.5t-10 52.5z" />
<glyph unicode="&#x2012;" horiz-adv-x="688" d="M72 514q0 29 8 51.5t24 28.5v-6q0 -8 5.5 -10.5t17.5 -8.5q41 -23 79 -30t77 -7q70 0 138 15.5t142 17.5q4 2 15 2q14 0 20 -8q6 -16 6 -53q0 -33 -4 -64.5t-14 -40.5q-20 6 -41 8.5t-41 2.5l-240 -25q-37 0 -73.5 7t-75.5 30q-23 12 -33 37.5t-10 52.5z" />
<glyph unicode="&#x2013;" horiz-adv-x="1060" d="M16 567q0 29 18.5 51.5t47.5 28.5v-6q0 -8 9 -10t34 -8q78 -23 153.5 -30t149.5 -7q135 0 268.5 15t278.5 17q10 2 31 3q29 0 38 -9q10 -16 11 -53q0 -33 -8.5 -64.5t-26.5 -39.5q-41 6 -80 8t-80 2l-467 -25q-72 0 -143.5 7.5t-147.5 29.5q-47 12 -66.5 38t-19.5 52z " />
<glyph unicode="&#x2014;" horiz-adv-x="1611" d="M35 567q0 29 26.5 51.5t71.5 28.5l-2 -6q0 -8 15.5 -10t50.5 -8q117 -23 226 -30t220 -7q201 0 398.5 15t412.5 17q10 2 23 3h22q41 0 60 -9q14 -14 14 -53q0 -33 -12.5 -64.5t-38.5 -39.5q-59 6 -117.5 8t-118.5 2q-174 0 -344 -12.5t-350 -12.5q-104 0 -212 7.5 t-218 29.5q-68 12 -97.5 38t-29.5 52z" />
<glyph unicode="&#x2018;" horiz-adv-x="307" d="M20 1217q0 35 14.5 69.5t39 62t56.5 45t69 17.5q29 0 54.5 -13.5t33.5 -43.5l-17 2q-23 0 -46 -8.5t-44.5 -23.5t-35 -34.5t-13.5 -44.5t21 -33q4 -2 6 7.5t6 13.5q4 8 15 10t24 2q31 0 52 -16.5t21 -52.5q0 -43 -38.5 -71t-79.5 -28q-23 0 -46.5 9.5t-44 28t-34 44 t-13.5 58.5z" />
<glyph unicode="&#x2019;" horiz-adv-x="307" d="M20 1124l17 -2q20 0 44.5 8.5t46.5 23.5t35 34.5t13 44.5t-20 33q-4 2 -6.5 -7.5t-6.5 -13.5q-4 -8 -15 -10t-24 -2q-31 0 -52 16.5t-21 53.5q0 43 39 70.5t80 27.5q20 0 44.5 -9.5t45 -27.5t34 -44t13.5 -58q0 -35 -14.5 -70t-39 -62.5t-56.5 -45t-68 -17.5 q-29 0 -54.5 13.5t-34.5 43.5z" />
<glyph unicode="&#x201a;" horiz-adv-x="251" d="M35 117q0 6 2 17.5t8 21.5t17.5 18.5t29.5 8.5q37 0 63.5 -15.5t43 -37t24.5 -45t8 -42.5q0 -41 -24.5 -70.5t-55 -50t-58 -29.5t-34.5 -9q-20 0 -20 22q0 16 8 27.5t17.5 20.5t17.5 16.5t8 17.5q0 18 -8 26.5t-19.5 18.5t-19.5 27.5t-8 56.5z" />
<glyph unicode="&#x201c;" horiz-adv-x="669" d="M45 1217q0 35 14.5 69.5t39 62t56 45t68.5 17.5q29 0 54.5 -13.5t33.5 -43.5l-16 2q-23 0 -46.5 -8.5t-45 -23.5t-34.5 -34.5t-13 -44.5t20 -33q4 -2 6 7.5t6 13.5q4 8 15.5 10t23.5 2q31 0 52.5 -16.5t21.5 -52.5q0 -43 -39 -71t-80 -28q-23 0 -46 9.5t-43.5 28t-34 44 t-13.5 58.5zM369 1217q0 35 14 69.5t38.5 62t56.5 45t69 17.5q29 0 54.5 -13.5t33.5 -43.5l-17 2q-23 0 -46 -8.5t-44.5 -23.5t-35 -34.5t-13.5 -44.5t21 -33q4 -2 6 7.5t6 13.5q4 8 15.5 10t23.5 2q31 0 52.5 -16.5t21.5 -52.5q0 -43 -39 -71t-80 -28q-23 0 -46.5 9.5 t-44 28t-33.5 44t-13 58.5z" />
<glyph unicode="&#x201d;" horiz-adv-x="659" d="M35 1124l16 -2q20 0 45 8.5t46.5 23.5t34.5 34.5t13 44.5t-20 33q-4 2 -6 -7.5t-6 -13.5q-4 -8 -15.5 -10t-23.5 -2q-31 0 -52.5 16.5t-21.5 53.5q0 43 39 70.5t80 27.5q20 0 44.5 -9.5t45 -27.5t34 -44t13.5 -58q0 -35 -14.5 -70t-39 -62.5t-56 -45t-68.5 -17.5 q-29 0 -54.5 13.5t-33.5 43.5zM358 1124l17 -2q20 0 44.5 8.5t46 23.5t35 34.5t13.5 44.5t-20 33q-4 2 -6.5 -7.5t-6.5 -13.5q-4 -8 -15 -10t-24 -2q-31 0 -52 16.5t-21 53.5q0 43 38.5 70.5t79.5 27.5q20 0 45 -9.5t45.5 -27.5t34 -44t13.5 -58q0 -35 -14.5 -70t-39 -62.5 t-56.5 -45t-69 -17.5q-29 0 -54 13.5t-34 43.5z" />
<glyph unicode="&#x201e;" horiz-adv-x="659" d="M35 -150l16 -2q20 0 45 8.5t46.5 23.5t34.5 34.5t13 44.5t-20 33q-4 2 -6 -7.5t-6 -13.5q-4 -8 -15.5 -10t-23.5 -2q-31 0 -52.5 16.5t-21.5 53.5q0 43 39 70.5t80 27.5q20 0 44.5 -9.5t45 -27.5t34 -44t13.5 -58q0 -35 -14.5 -70t-39 -62.5t-56 -45t-68.5 -17.5 q-29 0 -54.5 13.5t-33.5 43.5zM358 -150l17 -2q20 0 44.5 8.5t46 23.5t35 34.5t13.5 44.5t-20 33q-4 2 -6.5 -7.5t-6.5 -13.5q-4 -8 -15 -10t-24 -2q-31 0 -52 16.5t-21 53.5q0 43 38.5 70.5t79.5 27.5q20 0 45 -9.5t45.5 -27.5t34 -44t13.5 -58q0 -35 -14.5 -70t-39 -62.5 t-56.5 -45t-69 -17.5q-29 0 -54 13.5t-34 43.5z" />
<glyph unicode="&#x2022;" horiz-adv-x="473" d="M41 739q0 86 55.5 146.5t141.5 60.5q39 0 74.5 -15.5t62 -41t42 -61t15.5 -76.5q0 -37 -15.5 -73t-41 -62.5t-60 -43t-71.5 -16.5q-41 0 -78 14.5t-64.5 39t-44 58t-16.5 70.5z" />
<glyph unicode="&#x2026;" horiz-adv-x="784" d="M29 82q0 41 25.5 68.5t64.5 27.5q37 0 63.5 -26.5t26.5 -63.5q0 -34 -25 -61q-27 -27 -63 -27q-37 0 -64.5 23.5t-27.5 58.5zM301 82q0 41 25.5 68.5t66.5 27.5q37 0 63.5 -26.5t26.5 -63.5q1 -34 -24 -61q-27 -27 -64 -27t-65.5 23.5t-28.5 58.5zM575 82q0 41 26 68.5 t65 27.5q37 0 63.5 -26.5t26.5 -63.5q0 -34 -25 -61q-27 -27 -63 -27q-37 0 -65 23.5t-28 58.5z" />
<glyph unicode="&#x202f;" horiz-adv-x="401" />
<glyph unicode="&#x2039;" horiz-adv-x="509" d="M59 369q20 43 45 64.5t52.5 44t59.5 58t67 107.5q8 14 13 34.5t10 39t12.5 35t19.5 26.5q33 -18 52.5 -48t15.5 -64q-8 -88 -45 -156t-97 -141q78 -80 130 -152t59 -170q0 -45 -20.5 -60.5t-43.5 -15.5q-16 0 -27.5 12.5t-20.5 29t-15.5 33.5t-10.5 30q-29 68 -65.5 117 t-72.5 82.5t-67.5 56t-50.5 37.5z" />
<glyph unicode="&#x203a;" horiz-adv-x="509" d="M59 47q6 98 58.5 170t130.5 152q-59 74 -96 141.5t-46 155.5q-4 35 15.5 64.5t52.5 47.5q12 -10 19.5 -26.5t12.5 -35t10 -39t13 -34.5q35 -72 67 -107.5t59.5 -58t52 -44t45.5 -64.5q-18 -14 -50 -37t-68 -56.5t-73 -83t-65 -116.5q-4 -12 -10.5 -29.5t-15.5 -34 t-21.5 -29t-26.5 -12.5q-23 0 -43.5 15.5t-20.5 60.5z" />
<glyph unicode="&#x205f;" horiz-adv-x="502" />
<glyph unicode="&#x20ac;" horiz-adv-x="1253" d="M-125 524q0 8 5 20.5t14.5 25t20.5 20.5t22 8h104h276h103q59 0 121.5 1t122 2t102.5 3q45 4 45 -26q0 -8 -11.5 -20.5t-26.5 -25t-32.5 -21.5t-27.5 -9q-94 -4 -209 -5t-209 -1h-297h-84q-39 0 -39 28zM-106 709q0 6 6 19t15 27.5t20.5 25t21.5 10.5q61 8 113.5 10 t109.5 2h101q57 0 118.5 -1t118.5 -1h100q59 0 119 2t119 6q23 2 32 -14.5t9 -32.5q0 -8 -9 -17.5t-22.5 -18.5t-28 -16.5t-24.5 -7.5q-35 -4 -61 -4h-50h-102t-122.5 1t-123.5 1h-102q-80 0 -158.5 -3t-156.5 -13q-4 0 -7.5 -1t-7.5 -1q-29 0 -28 27zM31 655q0 55 10 126 t39 145.5t82 146.5t137 128t205 91t287 35q41 0 92 -12t97 -38t78 -64.5t32 -94.5q0 -12 -19.5 -32.5t-36.5 -20.5q-10 0 -26.5 20.5t-45 45t-71.5 44t-107 19.5q-147 -2 -258.5 -40t-186.5 -105.5t-114 -161.5t-39 -211q0 -129 45 -228.5t112 -167t144.5 -102.5t143.5 -35 q117 0 228.5 31t209.5 66q25 -20 34 -39t9 -35q0 -10 -2 -22.5t-6 -24.5q-49 -29 -107.5 -55.5t-121 -48t-128 -34t-126.5 -12.5q-113 0 -218.5 45t-188.5 133.5t-133 216.5t-50 291z" />
<glyph unicode="&#x2122;" horiz-adv-x="1761" d="M16 1413q0 27 25 48.5t53 21.5h6q14 0 16.5 -7.5t2.5 -13.5q0 -10 -6 -16q-23 -23 -23 -35q0 -8 25 -22h2q35 -29 108.5 -52.5t143.5 -36.5q80 76 185 117t214 41q12 0 27.5 -1t29 -6t22.5 -16.5t9 -29.5q0 -59 -32.5 -103.5t-81 -73t-104.5 -41.5t-103 -13 q-29 0 -53.5 2t-53.5 8q-47 -80 -72.5 -173t-25.5 -188q0 -117 47 -217q4 -8 8 -14t8 -14q4 -6 7 -11.5t8 -9.5q2 -4 6 -9t6 -9v2q6 -10 10 -16.5t4 -16.5q0 -12 -5 -18.5t-21 -6.5q-10 0 -23.5 4.5t-24.5 10.5h2q-18 8 -36 30q-29 37 -52.5 83t-40 95.5t-24.5 98.5t-8 92 q0 88 27.5 165t74.5 152q-49 16 -100 40t-92 46q-31 16 -63 46t-32 67zM535 1284h8q51 0 97 12.5t79 46.5q-16 -2 -31.5 -5t-25.5 -5q-29 -6 -63 -18t-64 -31zM819 819q0 57 3 113.5t8.5 105.5t11.5 90t12 68q6 33 17.5 78t33 86t54 69.5t83.5 28.5q39 0 67 -25.5t38 -60.5 l145 -538l156 546q10 35 46 50.5t65 15.5q35 0 56 -24.5t33.5 -60.5t18.5 -73t8 -61q0 -4 1 -9.5t1 -7.5v-448q0 -6 -1 -26.5t-3 -44t-3 -45t-3 -32.5q0 -4 -1 -16t-5 -25.5t-12.5 -24.5t-22.5 -11t-27.5 14t-23.5 32.5t-16.5 37t-6.5 28.5l-20 561q-10 -45 -23.5 -98 t-27.5 -104v2q-14 -51 -24.5 -94.5t-14.5 -63.5q0 -4 -1 -6t-1 -6q-6 -23 -15.5 -57.5t-26 -67.5t-41 -55.5t-59.5 -22.5q-29 0 -43 6t-24 23q-8 12 -22.5 42.5t-30 64.5t-28.5 64t-17 42q-6 18 -20.5 62t-31 98.5t-32 109.5t-27.5 98q-27 -184 -47.5 -357t-32.5 -343 q0 -14 -12 -28.5t-29 -14.5h-4q-20 0 -32.5 14t-19.5 34.5t-10.5 42t-3.5 36.5q-12 88 -12 188z" />
<glyph unicode="&#x25fc;" horiz-adv-x="737" d="M0 0v737h737v-737h-737z" />
</font>
</defs>
</svg>
